<svg xmlns="http://www.w3.org/2000/svg" width="105" height="97" viewBox="0 0 105 97">
  <g id="Group_1111371" data-name="Group 1111371" transform="translate(-1230 -857)">
    <rect id="Rectangle_404071" data-name="Rectangle 404071" width="105" height="97" transform="translate(1230 857)" fill="#ccda2d"/>
    <g id="_29-livestock" data-name="29-livestock" transform="translate(1248 871.113)">
      <path id="Path_899944" data-name="Path 899944" d="M23.1,48.865v12.9H15.576c0-3.224,3.224-4.3,3.224-4.3l-1.075-8.6a12.5,12.5,0,0,1-6.448-2.128,10.6,10.6,0,0,1-4-5.448,4.684,4.684,0,0,0,.774.054H18.8a6.448,6.448,0,0,0,3.224-12.025V26.3l.494-.494A12.973,12.973,0,0,1,31.695,22h8.6V48.865Z" transform="translate(0.543 1.641)" fill="#e6e6e6"/>
      <path id="Path_899945" data-name="Path 899945" d="M22.075,47.462H33.9a6.674,6.674,0,0,0-5.373-6.448A6.758,6.758,0,0,0,21,44.238Z" transform="translate(1.566 3.044)" fill="#333"/>
      <path id="Path_899946" data-name="Path 899946" d="M51.768,47.532a6.514,6.514,0,0,1-1.128.645,7.225,7.225,0,0,1-3.084.688H42V22h9.671a7.522,7.522,0,0,1,7.522,7.522v11.82l2.149,7.522v12.9H53.82c0-3.224,3.224-4.3,3.224-4.3l-1.075-8.6a10.522,10.522,0,0,1-4.2-1.332Z" transform="translate(3.133 1.641)" fill="#e6e6e6"/>
      <path id="Path_899947" data-name="Path 899947" d="M58.6,40.844S50,39.77,50,33.322s8.6-4.3,8.6-4.3Z" transform="translate(3.729 2.139)" fill="#333"/>
      <path id="Path_899948" data-name="Path 899948" d="M29,22s-1.075,9.671,9.671,13.97V22Z" transform="translate(2.161 1.641)" fill="#333"/>
      <path id="Path_899949" data-name="Path 899949" d="M1,59H67.624v4.3H1Z" transform="translate(0.075 4.401)" fill="#8c6239"/>
      <path id="Path_899950" data-name="Path 899950" d="M32,59H65.312v4.3H32Z" transform="translate(2.387 4.401)" fill="#694a2b"/>
      <path id="Path_899951" data-name="Path 899951" d="M20.993,21.373A8.73,8.73,0,0,0,19.1,18.515a8.244,8.244,0,0,0-1.934-1.44A8.453,8.453,0,0,0,13.02,16s-2.149,9.671,5.373,12.9a6.294,6.294,0,0,1,3.224.87V24.6A8.7,8.7,0,0,0,20.993,21.373ZM18.081,23.21a1.075,1.075,0,0,1-1.838-.763.9.9,0,0,1,.086-.408,1.241,1.241,0,0,1,.226-.355,1.125,1.125,0,0,1,1.526,0,1.241,1.241,0,0,1,.226.355A1.064,1.064,0,0,1,18.081,23.21Z" transform="translate(0.95 1.193)" fill="#333"/>
      <circle id="Ellipse_11599" data-name="Ellipse 11599" cx="2.5" cy="2.5" r="2.5" transform="translate(61 6)" fill="#0071bc"/>
      <path id="Path_899952" data-name="Path 899952" d="M55.522,47.092l1.075,8.6s-3.224,1.075-3.224,4.3H48c0-3.224,3.224-4.3,3.224-4.3L50.192,46.4a6.515,6.515,0,0,0,1.128-.645,10.522,10.522,0,0,0,4.2,1.332Z" transform="translate(3.58 3.413)" fill="#999"/>
      <circle id="Ellipse_11600" data-name="Ellipse 11600" cx="2" cy="2" r="2" transform="translate(53 1)" fill="#0071bc"/>
      <circle id="Ellipse_11601" data-name="Ellipse 11601" cx="2" cy="2" r="2" transform="translate(28 9)" fill="#dd5757"/>
      <path id="Path_899953" data-name="Path 899953" d="M16.86,17h8.747s-1.075,4.3-4.3,4.3h-.623a8.73,8.73,0,0,0-1.891-2.858A8.244,8.244,0,0,0,16.86,17Z" transform="translate(1.258 1.268)" fill="#4d4d4d"/>
      <path id="Path_899954" data-name="Path 899954" d="M22.417,28.87A6.448,6.448,0,0,1,19.193,40.9H8.448a4.683,4.683,0,0,1-.774-.054,6.438,6.438,0,0,1-3.783-10.95A6.181,6.181,0,0,1,5.224,28.87,6.294,6.294,0,0,1,8.448,28H19.193a6.294,6.294,0,0,1,3.224.87Zm-1.075,5.577A2.149,2.149,0,1,0,19.193,36.6a2.149,2.149,0,0,0,2.149-2.149Zm-10.746,0A2.149,2.149,0,1,0,8.448,36.6,2.149,2.149,0,0,0,10.6,34.448Z" transform="translate(0.149 2.088)" fill="#4d4d4d"/>
      <circle id="Ellipse_11602" data-name="Ellipse 11602" cx="2.5" cy="2.5" r="2.5" transform="translate(19 3)" fill="#dd5757"/>
      <ellipse id="Ellipse_11603" data-name="Ellipse 11603" cx="2" cy="2.5" rx="2" ry="2.5" transform="translate(17 34)" fill="#333"/>
      <path id="Path_899955" data-name="Path 899955" d="M17.6,47.148l1.075,8.6s-3.224,1.075-3.224,4.3H9c0-3.224,3.224-4.3,3.224-4.3L11.149,45.02A12.5,12.5,0,0,0,17.6,47.148Z" transform="translate(0.671 3.358)" fill="#999"/>
      <circle id="Ellipse_11604" data-name="Ellipse 11604" cx="2.5" cy="2.5" r="2.5" transform="translate(6 34)" fill="#333"/>
      <path id="Path_899956" data-name="Path 899956" d="M1,17H9.747a8.588,8.588,0,0,0-3.826,4.3H5.3C2.075,21.3,1,17,1,17Z" transform="translate(0.075 1.268)" fill="#4d4d4d"/>
      <path id="Path_899957" data-name="Path 899957" d="M18.97,28.9H8.224A6.294,6.294,0,0,0,5,29.765V24.6a8.7,8.7,0,0,1,.623-3.224,8.588,8.588,0,0,1,3.826-4.3A8.453,8.453,0,0,1,13.6,16S11.448,25.671,18.97,28.9Z" transform="translate(0.373 1.193)" fill="#e6e6e6"/>
      <g id="Group_1111370" data-name="Group 1111370" transform="translate(0 0)">
        <path id="Path_899958" data-name="Path 899958" d="M51.224,6.448A3.224,3.224,0,1,0,48,3.224,3.224,3.224,0,0,0,51.224,6.448Zm0-4.3a1.075,1.075,0,1,1-1.075,1.075A1.075,1.075,0,0,1,51.224,2.149Z" transform="translate(3.58 0)" fill="#202020"/>
        <path id="Path_899959" data-name="Path 899959" d="M56,8.224A3.224,3.224,0,1,0,59.224,5,3.224,3.224,0,0,0,56,8.224Zm3.224-1.075a1.075,1.075,0,1,1-1.075,1.075A1.075,1.075,0,0,1,59.224,7.149Z" transform="translate(4.177 0.373)" fill="#202020"/>
        <path id="Path_899960" data-name="Path 899960" d="M11.448,34.224a3.224,3.224,0,1,0-3.224,3.224A3.224,3.224,0,0,0,11.448,34.224Zm-4.3,0A1.075,1.075,0,1,1,8.224,35.3,1.075,1.075,0,0,1,7.149,34.224Z" transform="translate(0.373 2.312)" fill="#202020"/>
        <path id="Path_899961" data-name="Path 899961" d="M18.224,37.448A3.224,3.224,0,1,0,15,34.224,3.224,3.224,0,0,0,18.224,37.448Zm0-4.3a1.075,1.075,0,1,1-1.075,1.075A1.075,1.075,0,0,1,18.224,33.149Z" transform="translate(1.119 2.312)" fill="#202020"/>
        <path id="Path_899962" data-name="Path 899962" d="M51.376,10.41a1.075,1.075,0,0,0,1.514-.117l6.448-7.522a1.075,1.075,0,0,0-1.631-1.4L51.259,8.9a1.075,1.075,0,0,0,.117,1.514Z" transform="translate(3.804 0.077)" fill="#202020"/>
        <path id="Path_899963" data-name="Path 899963" d="M67.7,42.536a1.075,1.075,0,0,0,1.075-1.075V31.79A5.379,5.379,0,0,0,63.4,26.417H62.326c-.027,0-.048.013-.074.015a8.648,8.648,0,0,0-1.369-1.8A8.541,8.541,0,0,0,54.8,22.119h-8.6V8.149h4.3a1.075,1.075,0,0,0,0-2.149H45.133a1.075,1.075,0,0,0-1.075,1.075V53.282a1.075,1.075,0,0,0,2.149,0V51.133h4.481a8.426,8.426,0,0,0,2.165-.3L53.65,58a5.7,5.7,0,0,0-3.037,3.878h-25.9V51.133H39.76v2.149a1.075,1.075,0,0,0,2.149,0V7.075A1.075,1.075,0,0,0,40.834,6H35.461a1.075,1.075,0,0,0,0,2.149h4.3v13.97H32.238c-.285,0-.565.025-.847.041a.929.929,0,0,0-.107-.034,1.061,1.061,0,0,0-.469.066,13.915,13.915,0,0,0-7.185,2.891,9.62,9.62,0,0,0-.257-1.963c3.382-.6,4.487-4.843,4.536-5.038a1.075,1.075,0,0,0-1.044-1.335H18.354A9.59,9.59,0,0,0,14.23,15.71c-.011,0-.018-.01-.029-.013a1.038,1.038,0,0,0-.481.013,9.564,9.564,0,0,0-4.135,1.036H1.075A1.075,1.075,0,0,0,.032,18.08c.048.194,1.154,4.44,4.536,5.038a9.7,9.7,0,0,0-.27,2.224v4.595a7.373,7.373,0,0,0-3.224,6.151,7.5,7.5,0,0,0,5.992,7.358,11.547,11.547,0,0,0,3.728,5.026L11.75,58A5.709,5.709,0,0,0,8.7,61.878H1.075A1.075,1.075,0,0,0,0,62.953v4.3a1.075,1.075,0,0,0,1.075,1.075H67.7a1.075,1.075,0,0,0,1.075-1.075v-4.3A1.075,1.075,0,0,0,67.7,61.878H65.55V50.058a1.082,1.082,0,0,0-.041-.294L63.4,42.385V30.715a8.622,8.622,0,0,0-.279-2.149H63.4a3.224,3.224,0,0,1,3.224,3.224v9.671A1.075,1.075,0,0,0,67.7,42.536ZM54.8,35.014A3.164,3.164,0,0,1,55.9,32.335c1.377-1.075,3.869-.967,5.355-.731v9.629C59.09,40.709,54.8,39.154,54.8,35.014Zm.34,24.66a1.075,1.075,0,0,0,.729-1.137l-.95-8.553.032-.02a11.626,11.626,0,0,0,3.184,1.043l.875,7a5.7,5.7,0,0,0-3.027,3.873h-3.13a4.05,4.05,0,0,1,2.288-2.205ZM24.434,49.035l-.692-2.075a5.708,5.708,0,0,1,6.132-2.3,5.35,5.35,0,0,1,4.371,4.32H24.715a1.024,1.024,0,0,0-.282.057ZM39.76,24.268V35.5a12.775,12.775,0,0,1-7.553-11.229ZM6.448,25.343a7.482,7.482,0,0,1,3.9-6.585,7.233,7.233,0,0,1,2.34-.8c-.344,3.095.107,7.607,3.139,10.61H8.6a7.541,7.541,0,0,0-2.149.322Zm13.187,3.243c-5.265-2.364-5.06-8.382-4.765-10.694a7.371,7.371,0,0,1,2.739.876,7.187,7.187,0,0,1,1.683,1.253,7.507,7.507,0,0,1,2.2,5.322v3.546a7.478,7.478,0,0,0-1.857-.3Zm2.987-7.541A9.846,9.846,0,0,0,21.169,18.9H25.3A3.362,3.362,0,0,1,22.622,21.044ZM2.64,18.9H6.77a9.584,9.584,0,0,0-1.457,2.143A3.367,3.367,0,0,1,2.64,18.9Zm.583,17.193a5.3,5.3,0,0,1,1.576-3.8,5.091,5.091,0,0,1,1.12-.86A5.191,5.191,0,0,1,8.6,30.715H19.343a5.191,5.191,0,0,1,2.677.721l.011.006a5.368,5.368,0,0,1-2.688,10.018H8.6a3.78,3.78,0,0,1-.645-.046,5.361,5.361,0,0,1-4.728-5.327ZM9.456,43.61h9.886a7.506,7.506,0,0,0,4.3-13.671v-2l.179-.179a11.82,11.82,0,0,1,6.268-3.288c.146,2.935,1.418,9.767,9.671,13.4v2.517H36.536a1.075,1.075,0,0,0,0,2.149H39.76v6.448H36.44A7.568,7.568,0,0,0,30.3,42.557a7.829,7.829,0,0,0-8.694,3.8c-.008.016-.006.035-.014.053a1.017,1.017,0,0,0-.044.763l1.015,3.063V61.878H17.394a4.05,4.05,0,0,1,2.288-2.205,1.075,1.075,0,0,0,.726-1.152l-1.075-8.6a1.075,1.075,0,0,0-1.066-.941,11.522,11.522,0,0,1-5.836-1.934A9.256,9.256,0,0,1,9.456,43.61Zm3.776,16.063a1.075,1.075,0,0,0,.737-1.126L13.1,49.884a14.077,14.077,0,0,0,4.215,1.182l.868,6.94a5.7,5.7,0,0,0-3.032,3.873h-4.2a4.05,4.05,0,0,1,2.288-2.205Zm53.392,4.354v2.149H2.149V64.028ZM63.4,61.878H58.229a4.05,4.05,0,0,1,2.288-2.205,1.075,1.075,0,0,0,.726-1.152l-1.075-8.6a1.075,1.075,0,0,0-.95-.935,9.434,9.434,0,0,1-3.783-1.2c-4.851-2.786-4.93-9.491-4.93-9.556a1.075,1.075,0,0,0-2.149,0c0,.294.072,6.625,4.5,10.346a6.208,6.208,0,0,1-2.169.4H46.207V31.79h3.224a1.075,1.075,0,0,0,0-2.149H46.207V24.268h8.6a6.448,6.448,0,0,1,6.315,5.148c-1.732-.215-4.621-.279-6.542,1.222a5.238,5.238,0,0,0-1.922,4.376c0,5.452,5.418,7.844,8.826,8.475l1.92,6.719Z" transform="translate(0 0.448)" fill="#202020"/>
        <path id="Path_899964" data-name="Path 899964" d="M59.746,13H50.075a1.075,1.075,0,0,0,0,2.149h9.671a1.075,1.075,0,0,0,0-2.149Z" transform="translate(3.655 0.97)" fill="#202020"/>
        <path id="Path_899965" data-name="Path 899965" d="M59.746,17H50.075a1.075,1.075,0,0,0,0,2.149h9.671a1.075,1.075,0,0,0,0-2.149Z" transform="translate(3.655 1.268)" fill="#202020"/>
        <path id="Path_899966" data-name="Path 899966" d="M5.075,6.149h9.671a1.075,1.075,0,0,0,0-2.149H5.075a1.075,1.075,0,0,0,0,2.149Z" transform="translate(0.298 0.298)" fill="#202020"/>
        <path id="Path_899967" data-name="Path 899967" d="M5.075,10.149h9.671a1.075,1.075,0,0,0,0-2.149H5.075a1.075,1.075,0,0,0,0,2.149Z" transform="translate(0.298 0.597)" fill="#202020"/>
        <path id="Path_899968" data-name="Path 899968" d="M20.224,8.448A3.224,3.224,0,1,0,17,5.224,3.224,3.224,0,0,0,20.224,8.448Zm0-4.3a1.075,1.075,0,1,1-1.075,1.075A1.075,1.075,0,0,1,20.224,4.149Z" transform="translate(1.268 0.149)" fill="#202020"/>
        <path id="Path_899969" data-name="Path 899969" d="M25,10.224A3.224,3.224,0,1,0,28.224,7,3.224,3.224,0,0,0,25,10.224Zm3.224-1.075a1.075,1.075,0,1,1-1.075,1.075A1.075,1.075,0,0,1,28.224,9.149Z" transform="translate(1.865 0.522)" fill="#202020"/>
        <path id="Path_899970" data-name="Path 899970" d="M20.376,12.41a1.075,1.075,0,0,0,1.514-.117l6.448-7.522a1.075,1.075,0,0,0-1.631-1.4L20.259,10.9A1.075,1.075,0,0,0,20.376,12.41Z" transform="translate(1.492 0.226)" fill="#202020"/>
        <path id="Path_899971" data-name="Path 899971" d="M10.075,23.149a1.064,1.064,0,0,0,1.075-1.075,1.032,1.032,0,0,0-.666-.989,1.114,1.114,0,0,0-1.171.226,1.241,1.241,0,0,0-.226.355,1.064,1.064,0,0,0,.989,1.483Z" transform="translate(0.671 1.567)" fill="#202020"/>
      </g>
    </g>
  </g>
</svg>
