<svg xmlns="http://www.w3.org/2000/svg" width="77" height="77" viewBox="0 0 77 77">
  <g id="Group_1111824" data-name="Group 1111824" transform="translate(-8069 3171)">
    <g id="Group_1111457" data-name="Group 1111457" transform="translate(7048.27 -6264)">
      <g id="Group_1098742" data-name="Group 1098742" transform="translate(1020.73 3093)">
        <rect id="Rectangle_400898" data-name="Rectangle 400898" width="77" height="77" rx="38.5" transform="translate(0 0)" fill="#ccda2d"/>
        <rect id="Rectangle_400907" data-name="Rectangle 400907" width="77" height="77" rx="38.5" transform="translate(0 0)" fill="none"/>
      </g>
    </g>
    <g id="auditoria" transform="translate(8083.256 -3156)">
      <g id="Group_1111822" data-name="Group 1111822" transform="translate(2.426 0.682)">
        <g id="Group_1111816" data-name="Group 1111816" transform="translate(16.594 8.033)">
          <path id="Path_900732" data-name="Path 900732" d="M191.711,105.27V125.4a2.872,2.872,0,0,0,2.872,2.872h22.541A2.872,2.872,0,0,0,220,125.4V98.7a2.872,2.872,0,0,0-2.872-2.872H201.151a3.59,3.59,0,0,0-2.538,1.051l-5.85,5.85A3.59,3.59,0,0,0,191.711,105.27Z" transform="translate(-191.711 -95.83)" fill="#b1e4f9"/>
        </g>
        <g id="Group_1111817" data-name="Group 1111817" transform="translate(13.916 5.355)">
          <path id="Path_900733" data-name="Path 900733" d="M162.267,75.826V95.953a2.872,2.872,0,0,0,2.872,2.872H187.68a2.872,2.872,0,0,0,2.872-2.872V69.258a2.872,2.872,0,0,0-2.872-2.872H171.707a3.59,3.59,0,0,0-2.538,1.051l-5.85,5.85A3.59,3.59,0,0,0,162.267,75.826Z" transform="translate(-162.267 -66.386)" fill="#d3effb"/>
        </g>
        <g id="Group_1111818" data-name="Group 1111818" transform="translate(11.239 2.678)">
          <path id="Path_900734" data-name="Path 900734" d="M132.824,46.383V66.51a2.872,2.872,0,0,0,2.872,2.872h22.541a2.872,2.872,0,0,0,2.872-2.872V39.815a2.872,2.872,0,0,0-2.872-2.872H142.264a3.59,3.59,0,0,0-2.538,1.051l-5.85,5.85a3.59,3.59,0,0,0-1.051,2.538Z" transform="translate(-132.824 -36.943)" fill="#e4f6ff"/>
        </g>
        <g id="Group_1111819" data-name="Group 1111819" transform="translate(8.561)">
          <path id="Path_900735" data-name="Path 900735" d="M103.381,16.94V37.067a2.872,2.872,0,0,0,2.872,2.872h22.541a2.872,2.872,0,0,0,2.872-2.872V10.372A2.872,2.872,0,0,0,128.794,7.5H112.821a3.59,3.59,0,0,0-2.538,1.051l-5.85,5.85A3.59,3.59,0,0,0,103.381,16.94Z" transform="translate(-103.381 -7.5)" fill="#f4fbff"/>
          <path id="Path_900736" data-name="Path 900736" d="M103.38,16.942v.613a2.1,2.1,0,0,1,2.1-2.1h2.981a2.872,2.872,0,0,0,2.872-2.872V9.6a2.1,2.1,0,0,1,2.1-2.1h-.613a3.593,3.593,0,0,0-2.539,1.052l-5.85,5.85A3.593,3.593,0,0,0,103.38,16.942Z" transform="translate(-103.38 -7.501)" fill="#e4f6ff"/>
        </g>
        <g id="Group_1111820" data-name="Group 1111820" transform="translate(0 17.512)">
          <path id="Path_900737" data-name="Path 900737" d="M0,0H3.409V7.9H0Z" transform="translate(10.544 14.729) rotate(45)" fill="#407093"/>
          <path id="Path_900738" data-name="Path 900738" d="M0,0H1.7V7.9H0Z" transform="translate(10.544 14.729) rotate(45)" fill="#365e7d"/>
          <circle id="Ellipse_11685" data-name="Ellipse 11685" cx="10.104" cy="10.104" r="10.104" transform="translate(7.477 0)" fill="#ffe07d"/>
          <path id="Path_900739" data-name="Path 900739" d="M95.048,217.894q-.324-.273-.628-.578a10.1,10.1,0,1,1,14.289-14.289q.3.3.578.628a10.1,10.1,0,0,0-14.239,14.239Z" transform="translate(-83.983 -200.068)" fill="#ffd064"/>
          <circle id="Ellipse_11686" data-name="Ellipse 11686" cx="7.143" cy="7.143" r="7.143" transform="translate(10.438 2.961)" fill="#d3effb"/>
          <path id="Path_900740" data-name="Path 900740" d="M127.222,245.727a7.143,7.143,0,1,1,9.9-9.9,7.144,7.144,0,0,0-9.9,9.9Z" transform="translate(-113.584 -229.666)" fill="#b1e4f9"/>
          <path id="Path_900741" data-name="Path 900741" d="M11.68,402.647,9.7,400.671a1.577,1.577,0,0,1,0-2.23l5.013-5.013a1.577,1.577,0,0,1,2.23,0l1.976,1.976a1.577,1.577,0,0,1,0,2.23l-5.013,5.013a1.577,1.577,0,0,1-2.23,0Z" transform="translate(-9.242 -375.424)" fill="#a77d73"/>
          <path id="Path_900742" data-name="Path 900742" d="M11.148,402.113,9.7,400.667a1.577,1.577,0,0,1,0-2.23l5.013-5.013a1.577,1.577,0,0,1,2.23,0l1.446,1.446a1.577,1.577,0,0,0-2.23,0l-5.013,5.013A1.576,1.576,0,0,0,11.148,402.113Z" transform="translate(-9.24 -375.42)" fill="#98695e"/>
        </g>
        <g id="Group_1111821" data-name="Group 1111821" transform="translate(13.113 23.916)">
          <path id="Path_900743" data-name="Path 900743" d="M157.3,279.022a1.445,1.445,0,0,1-1.142-.56l-2.417-3.117a1.445,1.445,0,0,1,2.284-1.771l1.085,1.4,2.117-3.749a1.445,1.445,0,1,1,2.517,1.421l-3.186,5.641a1.445,1.445,0,0,1-1.153.731c-.035,0-.07,0-.105,0Z" transform="translate(-153.437 -270.49)" fill="#b3e59f"/>
        </g>
      </g>
      <g id="Group_1111823" data-name="Group 1111823" transform="translate(1.744 0)">
        <path id="Path_900744" data-name="Path 900744" d="M45.22,8.122a3.566,3.566,0,0,0-2.678-2.677,3.565,3.565,0,0,0-2.677-2.678A3.562,3.562,0,0,0,36.4,0H20.426a4.243,4.243,0,0,0-3.02,1.251l-.02.021L11.554,7.1A4.249,4.249,0,0,0,10.3,10.123V23.587a10.828,10.828,0,0,0,.577,10.462L9.75,35.179a2.26,2.26,0,0,0-2.332.536L2.406,40.729a2.259,2.259,0,0,0,0,3.194L4.382,45.9a2.261,2.261,0,0,0,3.194,0l2.362-2.361a.682.682,0,0,0-.964-.965L6.611,44.935a.9.9,0,0,1-1.265,0L3.37,42.958a.895.895,0,0,1,0-1.265L8.383,36.68a.9.9,0,0,1,1.266,0l1.976,1.976a.9.9,0,0,1,0,1.267l-.723.723a.682.682,0,0,0,.965.965l.723-.723a2.26,2.26,0,0,0,.536-2.332l1.131-1.131a10.729,10.729,0,0,0,3.489,1.417,3.526,3.526,0,0,0,.681.231,3.563,3.563,0,0,0,3.466,2.765H44.432a3.558,3.558,0,0,0,3.554-3.555v-26.7A3.562,3.562,0,0,0,45.22,8.122ZM39.954,30.249V4.226a2.2,2.2,0,0,1,1.309,1.867c0,.042,0,.088,0,.139v26.7a2.192,2.192,0,0,1-2.19,2.19H28.364a10.722,10.722,0,0,0,.918-1.313H36.4A3.558,3.558,0,0,0,39.954,30.249ZM18.3,2.283a2.788,2.788,0,0,0-.046.5V5.763a2.192,2.192,0,0,1-2.19,2.19H13.087a2.786,2.786,0,0,0-.5.046Zm-6.636,8.468c0-.005,0-.01,0-.016a1.42,1.42,0,0,1,1.418-1.418h2.981a3.558,3.558,0,0,0,3.554-3.554V2.783A1.42,1.42,0,0,1,21.04,1.364H36.4a2.194,2.194,0,0,1,2.185,2.051c0,.042,0,.087,0,.138v26.7A2.193,2.193,0,0,1,36.4,32.44H29.965A10.786,10.786,0,0,0,12.38,20.671q-.379.379-.712.785Zm1.676,10.884a9.422,9.422,0,1,1,0,13.325,9.391,9.391,0,0,1,0-13.325Zm-1.02,15.791L10.878,35.98l.813-.813q.323.391.689.758t.758.689Zm34.3.855a2.193,2.193,0,0,1-2.19,2.191H21.891a2.2,2.2,0,0,1-2.007-1.314h21.87A3.558,3.558,0,0,0,45.309,35.6V15.89a.682.682,0,1,0-1.364,0V35.6a2.193,2.193,0,0,1-2.191,2.19H25.122a10.719,10.719,0,0,0,1.912-1.313H39.077a3.558,3.558,0,0,0,3.554-3.554V6.9a2.2,2.2,0,0,1,1.314,2.007v4.258a.682.682,0,1,0,1.364,0V9.58a2.2,2.2,0,0,1,1.313,2.006v26.7Z" transform="translate(-1.744 0)"/>
        <path id="Path_900745" data-name="Path 900745" d="M124.381,240.781a7.825,7.825,0,1,0-5.533-2.292A7.774,7.774,0,0,0,124.381,240.781Zm-4.568-12.393a6.461,6.461,0,1,1,0,9.137A6.418,6.418,0,0,1,119.812,228.387Z" transform="translate(-106.118 -204.658)"/>
        <path id="Path_900746" data-name="Path 900746" d="M135.738,120.995a.682.682,0,0,0,.88-.395l.257-.674h1.795l.254.672a.682.682,0,1,0,1.276-.482l-1.688-4.472-.007-.019a.782.782,0,0,0-.726-.486h0a.782.782,0,0,0-.726.488l-.006.015-1.7,4.471A.682.682,0,0,0,135.738,120.995Zm2.417-2.433h-.76l.382-1Z" transform="translate(-123.153 -104.669)"/>
        <path id="Path_900747" data-name="Path 900747" d="M314.188,121.039a.682.682,0,0,0,.682-.682v-4.535a.682.682,0,1,0-1.364,0v4.535A.682.682,0,0,0,314.188,121.039Z" transform="translate(-285.155 -104.669)"/>
        <path id="Path_900748" data-name="Path 900748" d="M255.573,120.36a.682.682,0,0,0,.682.68h0c.039,0,.956,0,1.322-.01a2.671,2.671,0,0,0,2.464-2.94c0-1.764-1.01-2.95-2.514-2.95h-1.285a.682.682,0,0,0-.682.683s0,1.744,0,2.261C255.567,118.715,255.573,120.36,255.573,120.36Zm1.957-3.856c1.067,0,1.149,1.214,1.149,1.586,0,.775-.347,1.562-1.124,1.576-.145,0-.386,0-.621.006,0-.527,0-1.225,0-1.587,0-.3,0-1.032,0-1.581Z" transform="translate(-232.482 -104.669)"/>
        <path id="Path_900749" data-name="Path 900749" d="M196.984,120.693a2.2,2.2,0,0,0,1.2.346h0a2.318,2.318,0,0,0,1.053-.244,2.039,2.039,0,0,0,1.23-1.856v-3.117a.682.682,0,1,0-1.364,0v3.117c0,.2-.057.424-.48.637a.955.955,0,0,1-.44.1h0a.849.849,0,0,1-.47-.132c-.33-.211-.4-.386-.4-.6v-3.121a.682.682,0,1,0-1.364,0v3.121A2,2,0,0,0,196.984,120.693Z" transform="translate(-178.296 -104.669)"/>
        <path id="Path_900750" data-name="Path 900750" d="M340.626,116.5h.565v3.853a.682.682,0,0,0,1.364,0V116.5h.575a.682.682,0,1,0,0-1.364h-2.5a.682.682,0,1,0,0,1.364Z" transform="translate(-309.188 -104.669)"/>
        <path id="Path_900751" data-name="Path 900751" d="M150.49,272.892c.051,0,.1,0,.155-.006a2.123,2.123,0,0,0,1.7-1.076l3.186-5.641a2.127,2.127,0,1,0-3.7-2.092l-1.613,2.855-.456-.589a2.127,2.127,0,1,0-3.362,2.607l2.417,3.117A2.141,2.141,0,0,0,150.49,272.892Zm-2.884-5.848a.763.763,0,0,1,1.071.136l1.085,1.4a.682.682,0,0,0,1.133-.083l2.117-3.749a.763.763,0,0,1,1.329.751l-3.186,5.641a.763.763,0,0,1-1.268.092l-2.417-3.117A.764.764,0,0,1,147.606,267.044Z" transform="translate(-132.833 -239.08)"/>
      </g>
    </g>
  </g>
</svg>
