<svg xmlns="http://www.w3.org/2000/svg" width="77" height="77" viewBox="0 0 77 77">
  <g id="Group_1111864" data-name="Group 1111864" transform="translate(-11734.225 7436)">
    <g id="Group_1111499" data-name="Group 1111499" transform="translate(10713.494 -10529)">
      <g id="Group_1098742" data-name="Group 1098742" transform="translate(1020.73 3093)">
        <rect id="Rectangle_400898" data-name="Rectangle 400898" width="77" height="77" rx="38.5" transform="translate(0 0)" fill="#ccda2d"/>
        <rect id="Rectangle_400907" data-name="Rectangle 400907" width="77" height="77" rx="38.5" transform="translate(0 0)" fill="none"/>
      </g>
    </g>
    <g id="proyecto" transform="translate(11748.201 -7422.998)">
      <g id="Group_1111863" data-name="Group 1111863" transform="translate(4.098 30.478)">
        <path id="Path_900970" data-name="Path 900970" d="M0,0H9.309V5.43H0Z" transform="translate(41.89 18.618) rotate(180)" fill="#4dd7ff"/>
        <path id="Path_900971" data-name="Path 900971" d="M5,56h9.309v5.43H5Z" transform="translate(-5 -42.812)" fill="#4dd7ff"/>
        <path id="Path_900972" data-name="Path 900972" d="M50.982,39.14h-.551L47.53,39A3.1,3.1,0,0,0,44.5,41.428a21.131,21.131,0,0,0,0,9.107,3.3,3.3,0,0,0,3.212,2.428h.171c.822.078,1.963.116,3.1.116a24.95,24.95,0,0,0,3.1-.116h.171a3.3,3.3,0,0,0,3.212-2.413,21.131,21.131,0,0,0,0-9.107A3.1,3.1,0,0,0,54.434,39l-2.9.132c-.178.008-.365.016-.551.008Z" transform="translate(-13.746 -39)" fill="#4dd7ff"/>
      </g>
      <path id="Path_900973" data-name="Path 900973" d="M48,54.456a2.668,2.668,0,0,0,.605.062l.171.016c.822.078,1.963.116,3.1.116a24.95,24.95,0,0,0,3.1-.116h.171a3.3,3.3,0,0,0,3.212-2.413,21.434,21.434,0,0,0,.5-4.569A12.907,12.907,0,0,0,58.8,46H54.982v3.1a1.551,1.551,0,0,1-1.551,1.551H48Z" transform="translate(-10.545 -10.092)" fill="#eeceb2"/>
      <path id="Path_900974" data-name="Path 900974" d="M36.908,49.344,35,45h8.246l4.166,10.86H39.779l-1.59-3.623Z" transform="translate(-7.63 -9.868)" fill="#788395"/>
      <path id="Path_900975" data-name="Path 900975" d="M36.276,53.6H40.93l-1.551-3.1h-3.1a.776.776,0,0,0-.776.776v1.551A.776.776,0,0,0,36.276,53.6Z" transform="translate(-7.742 -11.101)" fill="#eeceb2"/>
      <path id="Path_900976" data-name="Path 900976" d="M48.75,30.879a3.015,3.015,0,0,0,3.3,3.1,3.015,3.015,0,0,0,3.3-3.1c0-2.032-1.474-3.879-3.3-3.879S48.75,28.846,48.75,30.879Z" transform="translate(-10.713 -5.831)" fill="#eeceb2"/>
      <path id="Path_900977" data-name="Path 900977" d="M8.982,39.14h.551l2.9-.14a3.1,3.1,0,0,1,3.033,2.428,21.434,21.434,0,0,1,.5,4.554,21.434,21.434,0,0,1-.5,4.554,3.3,3.3,0,0,1-3.212,2.428h-.171c-.822.078-1.963.116-3.1.116a24.951,24.951,0,0,1-3.1-.116H5.708A3.3,3.3,0,0,1,2.5,50.551a21.131,21.131,0,0,1,0-9.107A3.1,3.1,0,0,1,5.53,39l2.9.132c.178.008.365.016.551.008Z" transform="translate(-0.229 -8.522)" fill="#4dd7ff"/>
      <path id="Path_900978" data-name="Path 900978" d="M12.86,50.654H7.43A1.551,1.551,0,0,1,5.879,49.1V46H2.062A12.907,12.907,0,0,0,2,47.551a21.434,21.434,0,0,0,.5,4.554,3.3,3.3,0,0,0,3.212,2.428h.171c.822.078,1.963.116,3.1.116a24.951,24.951,0,0,0,3.1-.116h.171a2.668,2.668,0,0,0,.605-.078Z" transform="translate(-0.229 -10.092)" fill="#eeceb2"/>
      <path id="Path_900979" data-name="Path 900979" d="M23.5,49.344,25.412,45H17.166L13,55.86h7.633l1.59-3.623Z" transform="translate(-2.696 -9.868)" fill="#788395"/>
      <path id="Path_900980" data-name="Path 900980" d="M26.154,53.6H21.5l1.551-3.1h3.1a.776.776,0,0,1,.776.776v1.551A.776.776,0,0,1,26.154,53.6Z" transform="translate(-4.602 -11.101)" fill="#eeceb2"/>
      <path id="Path_900981" data-name="Path 900981" d="M13.344,30.879a3.015,3.015,0,0,1-3.3,3.1,3.015,3.015,0,0,1-3.3-3.1c0-2.032,1.474-3.879,3.3-3.879S13.344,28.846,13.344,30.879Z" transform="translate(-1.294 -5.831)" fill="#eeceb2"/>
      <path id="Path_900982" data-name="Path 900982" d="M40.7,16.072a12.955,12.955,0,0,0,.124-1.66,12.955,12.955,0,0,0-.124-1.66l-1.745-.9a10.667,10.667,0,0,0-1.272-3.1l.6-1.87a12.342,12.342,0,0,0-2.327-2.327l-1.87.6a10.666,10.666,0,0,0-3.1-1.272l-.908-1.753a11.164,11.164,0,0,0-3.32,0l-.9,1.745a10.666,10.666,0,0,0-3.1,1.272l-1.87-.6a12.342,12.342,0,0,0-2.327,2.327l.6,1.87a10.666,10.666,0,0,0-1.272,3.1l-1.745.9A12.955,12.955,0,0,0,16,14.412a12.955,12.955,0,0,0,.124,1.66l1.745.9a10.666,10.666,0,0,0,1.272,3.1l-.6,1.87a12.342,12.342,0,0,0,2.327,2.327l1.9-.551a10.666,10.666,0,0,0,3.1,1.272l.9,1.745a13.045,13.045,0,0,0,3.3-.039l.9-1.745a10.666,10.666,0,0,0,3.1-1.272l1.87.6a12.125,12.125,0,0,0,2.327-2.327l-.551-1.9a10.667,10.667,0,0,0,1.272-3.1Z" transform="translate(-3.369 -0.225)" fill="#788395"/>
      <circle id="Ellipse_11701" data-name="Ellipse 11701" cx="7.757" cy="7.757" r="7.757" transform="translate(17.286 6.43)" fill="#f2f2f2"/>
      <path id="Path_900983" data-name="Path 900983" d="M30.585,11.5,32.1,14.564l3.382.489-2.451,2.389.582,3.367-3.025-1.59-3.025,1.59.582-3.367L25.69,15.053l3.382-.489Z" transform="translate(-5.542 -2.355)" fill="#f2d688"/>
      <path id="Path_900984" data-name="Path 900984" d="M3.322,52.894v3.724a.776.776,0,1,0,1.551,0V53.453A4.034,4.034,0,0,0,5.4,53.5h.163c.776.078,1.877.116,3.041.116h.776l-.465,1.133a.233.233,0,0,0,.217.318h3.5v1.551a.776.776,0,1,0,1.551,0V55.066h4.189a.233.233,0,0,0,.209-.132l1.551-3.359h1.482a1.551,1.551,0,0,0,1.513-1.551V48.472a1.551,1.551,0,0,0-.892-1.4l1.908-4.081a.233.233,0,0,0-.186-.334H13.973a.225.225,0,0,0-.209.147l-1.319,3.227-2.6-2.6a.776.776,0,1,0-1.094,1.1l3.056,3.056-.2.5H7.2a.776.776,0,0,1-.776-.776V44.982a.776.776,0,0,0-1.551,0v2.327A2.327,2.327,0,0,0,7.2,49.636h3.77l-.985,2.42a38.01,38.01,0,0,1-4.267-.093h-.24a2.521,2.521,0,0,1-2.451-1.8,20.247,20.247,0,0,1,0-8.774,2.274,2.274,0,0,1,2.234-1.839l2.9.132H9.241l3.227-.132A2.831,2.831,0,0,1,14.8,40.994a.7.7,0,0,0,.776.38l.2-.047a.683.683,0,0,0,.442-1A4.391,4.391,0,0,0,12.437,38l-3.266.132H8.24L5.3,38a3.879,3.879,0,0,0-2.5.908,4.034,4.034,0,0,0-1.327,2.281,22,22,0,0,0,0,9.309,3.879,3.879,0,0,0,1.846,2.4Zm18.269-3.258a.388.388,0,0,1-.388.388H19.078a.38.38,0,0,1-.349-.551l.365-.776a.38.38,0,0,1,.349-.225H21.2a.388.388,0,0,1,.388.388ZM14.8,44.353a.248.248,0,0,1,.217-.147h6.5a.233.233,0,0,1,.209.334l-1.117,2.382h-2.4l-2.04,4.321a.233.233,0,0,0,.209.334h2.056L17.6,53.383a.24.24,0,0,1-.209.132H11.413A.225.225,0,0,1,11.2,53.2Z" transform="translate(0 -8.298)"/>
      <path id="Path_900985" data-name="Path 900985" d="M9.823,26C7.612,26,5.75,28.133,5.75,30.654a3.763,3.763,0,0,0,4.073,3.879A3.763,3.763,0,0,0,13.9,30.654C13.9,28.133,12.033,26,9.823,26Zm0,6.982A2.281,2.281,0,0,1,7.3,30.654c0-1.652,1.179-3.1,2.521-3.1s2.521,1.451,2.521,3.1a2.281,2.281,0,0,1-2.521,2.327Z" transform="translate(-1.07 -5.607)"/>
      <path id="Path_900986" data-name="Path 900986" d="M54.464,38.892A3.879,3.879,0,0,0,51.958,38l-2.9.132h-.939L44.821,38a4.375,4.375,0,0,0-3.747,2.327.683.683,0,0,0,.481,1l.2.047a.7.7,0,0,0,.776-.38,2.824,2.824,0,0,1,2.327-1.443l3.25.132H49.2l2.793-.132a2.327,2.327,0,0,1,1.551.605,2.4,2.4,0,0,1,.729,1.311,20.27,20.27,0,0,1,0,8.673,2.56,2.56,0,0,1-2.529,1.823h-.178a37.809,37.809,0,0,1-4.259.085l-.985-2.413h3.77a2.327,2.327,0,0,0,2.327-2.327V44.982a.776.776,0,1,0-1.551,0v2.327a.776.776,0,0,1-.776.776H45.683l-.2-.5,3.056-3.056a.776.776,0,0,0-1.094-1.1l-2.6,2.6L43.526,42.8a.225.225,0,0,0-.209-.147H33.333a.233.233,0,0,0-.209.334l1.908,4.08a1.551,1.551,0,0,0-.892,1.4v1.551a1.551,1.551,0,0,0,1.551,1.551h1.443l1.551,3.359a.233.233,0,0,0,.209.132h4.212v1.551a.776.776,0,1,0,1.551,0V55.066H48.18a.233.233,0,0,0,.217-.318l-.465-1.133h.776a23.233,23.233,0,0,0,3.033-.116h.1a5.3,5.3,0,0,0,.605-.047v3.165a.776.776,0,1,0,1.551,0V52.886a3.879,3.879,0,0,0,1.815-2.413,21.938,21.938,0,0,0,0-9.309,3.972,3.972,0,0,0-1.35-2.273ZM35.7,49.636V48.86a.388.388,0,0,1,.388-.388h1.761a.38.38,0,0,1,.349.225l.365.776a.38.38,0,0,1-.349.551H36.125a.388.388,0,0,1-.427-.388Zm10.178,3.879H39.9a.24.24,0,0,1-.209-.132l-.846-1.807H40.9a.233.233,0,0,0,.209-.334l-2.04-4.321h-2.4l-1.117-2.382a.233.233,0,0,1,.209-.334h6.5a.248.248,0,0,1,.217.147l3.6,8.843a.225.225,0,0,1-.209.318Z" transform="translate(-7.204 -8.298)"/>
      <path id="Path_900987" data-name="Path 900987" d="M51.823,34.533A3.763,3.763,0,0,0,55.9,30.654C55.9,28.133,54.033,26,51.823,26s-4.073,2.133-4.073,4.654A3.763,3.763,0,0,0,51.823,34.533Zm0-6.982c1.342,0,2.521,1.451,2.521,3.1a2.522,2.522,0,0,1-5.042,0C49.3,29,50.481,27.551,51.823,27.551Z" transform="translate(-10.489 -5.607)"/>
      <path id="Path_900988" data-name="Path 900988" d="M40.832,16.514a.776.776,0,0,0,.411-.582,11.923,11.923,0,0,0,0-3.537.776.776,0,0,0-.411-.535L39.4,11.084a11.69,11.69,0,0,0-1.125-2.63L38.761,6.9a.776.776,0,0,0-.124-.706,13.133,13.133,0,0,0-2.5-2.5.776.776,0,0,0-.706-.124l-1.551.5a11.566,11.566,0,0,0-2.591-1.094l-.776-1.435a.776.776,0,0,0-.582-.411,11.752,11.752,0,0,0-3.537,0,.776.776,0,0,0-.535.411l-.776,1.435A11.566,11.566,0,0,0,22.455,4.1l-1.551-.5a.776.776,0,0,0-.706.124,13.366,13.366,0,0,0-2.5,2.5.776.776,0,0,0-.124.706l.489,1.551a11.69,11.69,0,0,0-1.086,2.6l-1.435.776a.776.776,0,0,0-.411.582,11.923,11.923,0,0,0,0,3.537.776.776,0,0,0,.411.582l1.435.776A11.752,11.752,0,0,0,18.1,19.927l-.489,1.551a.776.776,0,0,0,.124.706,13.133,13.133,0,0,0,2.5,2.5.776.776,0,0,0,.706.124l1.551-.489A11.543,11.543,0,0,0,25.085,25.4l.776,1.435a.776.776,0,0,0,.582.411,11.923,11.923,0,0,0,3.537,0,.776.776,0,0,0,.535-.411l.776-1.435a11.543,11.543,0,0,0,2.63-1.125l1.551.489a.776.776,0,0,0,.706-.124,13.133,13.133,0,0,0,2.5-2.5.776.776,0,0,0,.124-.706l-.489-1.551A11.753,11.753,0,0,0,39.4,17.29Zm-2.855,0a9.805,9.805,0,0,1-1.187,2.855.776.776,0,0,0-.078.644l.473,1.474a10.984,10.984,0,0,1-1.645,1.645l-1.474-.465a.776.776,0,0,0-.644.078,10,10,0,0,1-2.855,1.179.776.776,0,0,0-.512.4L29.351,25.7a9.728,9.728,0,0,1-2.327,0l-.706-1.373a.776.776,0,0,0-.512-.4,10,10,0,0,1-2.855-1.179.776.776,0,0,0-.644-.078l-1.474.465a10.985,10.985,0,0,1-1.645-1.645l.473-1.474a.776.776,0,0,0-.078-.644A9.805,9.805,0,0,1,18.4,16.514a.776.776,0,0,0-.4-.5L16.621,15.3a9.735,9.735,0,0,1,0-2.327L18,12.263a.776.776,0,0,0,.4-.512A9.984,9.984,0,0,1,19.585,8.9a.776.776,0,0,0,.078-.636l-.473-1.427a11.365,11.365,0,0,1,1.645-1.645l1.474.473a.776.776,0,0,0,.644-.078A10.023,10.023,0,0,1,25.806,4.4a.776.776,0,0,0,.512-.4l.706-1.381a9.728,9.728,0,0,1,2.327,0L30.057,4a.776.776,0,0,0,.512.4,10.023,10.023,0,0,1,2.855,1.187.776.776,0,0,0,.644.078l1.474-.473a11.365,11.365,0,0,1,1.645,1.645l-.465,1.482a.776.776,0,0,0,.078.636,9.891,9.891,0,0,1,1.187,2.855.776.776,0,0,0,.4.512l1.381.706a9.728,9.728,0,0,1,0,2.327l-1.381.714a.776.776,0,0,0-.4.5Z" transform="translate(-3.145 0)"/>
      <path id="Path_900989" data-name="Path 900989" d="M29.533,7a8.533,8.533,0,1,0,8.533,8.533A8.533,8.533,0,0,0,29.533,7Zm0,15.515a6.982,6.982,0,1,1,6.982-6.982A6.982,6.982,0,0,1,29.533,22.515Z" transform="translate(-4.49 -1.346)"/>
      <path id="Path_900990" data-name="Path 900990" d="M31.062,10.933a.776.776,0,0,0-1.4,0l-1.327,2.7-2.979.434a.776.776,0,0,0-.427,1.319l2.157,2.1-.5,2.963a.778.778,0,0,0,1.125.838l2.653-1.42,2.661,1.4a.869.869,0,0,0,.365.085.776.776,0,0,0,.776-.908l-.5-2.963,2.133-2.1a.776.776,0,0,0-.434-1.319l-2.979-.434Zm1.21,5.725a.776.776,0,0,0-.225.69l.31,1.815-1.629-.853a.776.776,0,0,0-.729,0l-1.629.853.31-1.815a.776.776,0,0,0-.225-.69l-1.319-1.288,1.823-.264a.776.776,0,0,0,.59-.427l.815-1.652.776,1.652a.776.776,0,0,0,.59.427l1.823.264Z" transform="translate(-5.32 -2.13)"/>
    </g>
  </g>
</svg>
