<svg xmlns="http://www.w3.org/2000/svg" width="77" height="77" viewBox="0 0 77 77">
  <g id="Group_1111831" data-name="Group 1111831" transform="translate(-752 -2116.212)">
    <g id="Group_1111483" data-name="Group 1111483" transform="translate(-268.73 -976.788)">
      <g id="Group_1098742" data-name="Group 1098742" transform="translate(1020.73 3093)">
        <rect id="Rectangle_400898" data-name="Rectangle 400898" width="77" height="77" rx="38.5" transform="translate(0 0)" fill="#ccda2d"/>
        <rect id="Rectangle_400907" data-name="Rectangle 400907" width="77" height="77" rx="38.5" transform="translate(0 0)" fill="none"/>
      </g>
    </g>
    <g id="reporte-de-desempeno" transform="translate(743.084 2127.091)">
      <g id="Group_1111830" data-name="Group 1111830" transform="translate(24.751 1.834)">
        <g id="Group_1111827" data-name="Group 1111827" transform="translate(0 0)">
          <path id="Path_900769" data-name="Path 900769" d="M61.525,51.907H33.443a1.534,1.534,0,0,1-1.531-1.531v-32.8a1.479,1.479,0,0,1,.449-1.083L39.4,9.448A1.479,1.479,0,0,1,40.485,9h21.04a1.534,1.534,0,0,1,1.531,1.531V50.376a1.534,1.534,0,0,1-1.531,1.531Z" transform="translate(-31.912 -9)" fill="#eff4f7" fill-rule="evenodd"/>
          <g id="Group_1111826" data-name="Group 1111826" transform="translate(0.133 0)">
            <path id="Path_900770" data-name="Path 900770" d="M299.32,51.907h-1.893a1.534,1.534,0,0,0,1.531-1.531V10.531A1.534,1.534,0,0,0,297.427,9h1.893a1.534,1.534,0,0,1,1.531,1.531V50.376A1.534,1.534,0,0,1,299.32,51.907Z" transform="translate(-269.84 -9)" fill="#e2e3e3" fill-rule="evenodd"/>
            <path id="Path_900771" data-name="Path 900771" d="M40.54,10.587,33.5,17.628a1.535,1.535,0,0,0-.316.448h6.423a1.385,1.385,0,0,0,1.382-1.382V10.271a1.534,1.534,0,0,0-.448.316Z" transform="translate(-33.183 -10.138)" fill="#e2e3e3" fill-rule="evenodd"/>
          </g>
        </g>
        <g id="Group_1111828" data-name="Group 1111828" transform="translate(2.357 6.372)">
          <path id="Path_900772" data-name="Path 900772" d="M63.671,224.671h3.108a.418.418,0,0,1,.418.418v6.033a.418.418,0,0,1-.418.418H63.671a.418.418,0,0,1-.418-.418v-6.033A.418.418,0,0,1,63.671,224.671Z" transform="translate(-62.338 -208.527)" fill="#fc685b" fill-rule="evenodd"/>
          <path id="Path_900773" data-name="Path 900773" d="M66.152,224.671h.626a.418.418,0,0,1,.418.418v6.033a.418.418,0,0,1-.418.418H63.671a.418.418,0,0,1-.418-.418V230.5h2.481a.418.418,0,0,0,.418-.418Z" transform="translate(-62.338 -208.527)" fill="#f35244" fill-rule="evenodd"/>
          <path id="Path_900774" data-name="Path 900774" d="M129.625,151.764h3.108a.418.418,0,0,1,.418.418v13.645a.418.418,0,0,1-.418.418h-3.108a.418.418,0,0,1-.418-.418V152.182A.418.418,0,0,1,129.625,151.764Z" transform="translate(-121.406 -143.232)" fill="#ffda2d" fill-rule="evenodd"/>
          <path id="Path_900775" data-name="Path 900775" d="M132.1,151.764h.626a.418.418,0,0,1,.418.418v13.645a.418.418,0,0,1-.418.418h-3.108a.418.418,0,0,1-.418-.418V165.2h2.481a.418.418,0,0,0,.418-.418Z" transform="translate(-121.405 -143.232)" fill="#ffc700" fill-rule="evenodd"/>
          <path id="Path_900776" data-name="Path 900776" d="M195.578,183.118h3.108a.418.418,0,0,1,.418.418v10.371a.418.418,0,0,1-.418.418h-3.108a.418.418,0,0,1-.418-.418V183.536A.418.418,0,0,1,195.578,183.118Z" transform="translate(-180.474 -171.312)" fill="#72d561" fill-rule="evenodd"/>
          <path id="Path_900777" data-name="Path 900777" d="M198.059,183.118h.626a.418.418,0,0,1,.418.418v10.371a.418.418,0,0,1-.418.418h-3.108a.418.418,0,0,1-.418-.418v-.626h2.481a.418.418,0,0,0,.418-.418Z" transform="translate(-180.474 -171.312)" fill="#57ca5a" fill-rule="evenodd"/>
          <path id="Path_900778" data-name="Path 900778" d="M261.532,122.224h3.108a.418.418,0,0,1,.418.418V139.37a.418.418,0,0,1-.418.418h-3.108a.418.418,0,0,1-.418-.418V122.642a.418.418,0,0,1,.418-.418Z" transform="translate(-239.542 -116.776)" fill="#64b5f6" fill-rule="evenodd"/>
          <path id="Path_900779" data-name="Path 900779" d="M264.013,122.224h.626a.418.418,0,0,1,.418.418V139.37a.418.418,0,0,1-.418.418h-3.108a.418.418,0,0,1-.418-.418v-.626H263.6a.418.418,0,0,0,.418-.418Z" transform="translate(-239.542 -116.776)" fill="#42a5f5" fill-rule="evenodd"/>
          <circle id="Ellipse_11687" data-name="Ellipse 11687" cx="2.039" cy="2.039" r="2.039" transform="translate(0 11.411) rotate(-45)" fill="#fc685b"/>
          <path id="Path_900780" data-name="Path 900780" d="M64.641,159.813a2.038,2.038,0,0,1,1.756,1,2.04,2.04,0,0,0-2.957,2.687,2.039,2.039,0,0,1,1.2-3.688Z" transform="translate(-61.755 -150.44)" fill="#f35244" fill-rule="evenodd"/>
          <circle id="Ellipse_11688" data-name="Ellipse 11688" cx="2.039" cy="2.039" r="2.039" transform="translate(7.317 0.938) rotate(-13.3)" fill="#ffda2d"/>
          <path id="Path_900781" data-name="Path 900781" d="M130.6,74.062a2.038,2.038,0,0,1,1.756,1,2.04,2.04,0,0,0-2.956,2.687,2.039,2.039,0,0,1,1.2-3.688Z" transform="translate(-120.823 -73.642)" fill="#ffc700" fill-rule="evenodd"/>
          <path id="Path_900782" data-name="Path 900782" d="M196.549,122.339a2.039,2.039,0,1,0-2.039-2.039A2.043,2.043,0,0,0,196.549,122.339Z" transform="translate(-179.892 -113.226)" fill="#72d561" fill-rule="evenodd"/>
          <path id="Path_900783" data-name="Path 900783" d="M196.549,118.26a2.038,2.038,0,0,1,1.756,1,2.04,2.04,0,0,0-2.957,2.687,2.039,2.039,0,0,1,1.2-3.688Z" transform="translate(-179.892 -113.226)" fill="#57ca5a" fill-rule="evenodd"/>
        </g>
        <g id="Group_1111829" data-name="Group 1111829" transform="translate(19.674 31.236)">
          <path id="Path_900784" data-name="Path 900784" d="M233.916,308.192a13.561,13.561,0,0,1,11.743,20.338l-4.167-2.406a8.747,8.747,0,1,0-15.153,0l-4.167,2.406a13.561,13.561,0,0,1,11.743-20.338Z" transform="translate(-220.358 -308.192)" fill="#ffda2d" fill-rule="evenodd"/>
          <path id="Path_900785" data-name="Path 900785" d="M273.268,357.45l-1.066-.616a8.747,8.747,0,1,0-15.152,0l-1.066.616a9.978,9.978,0,1,1,17.285,0Z" transform="translate(-251.068 -338.902)" fill="#ffc700" fill-rule="evenodd"/>
          <path id="Path_900786" data-name="Path 900786" d="M229.541,329.739l-2.406-4.167a13.552,13.552,0,0,0-6.778,11.743h4.811a8.742,8.742,0,0,1,4.373-7.576Z" transform="translate(-220.357 -323.758)" fill="#fdb800" fill-rule="evenodd"/>
          <path id="Path_900787" data-name="Path 900787" d="M260.253,356.342l-.615-1.066a9.974,9.974,0,0,0-4.988,8.642h1.231a8.742,8.742,0,0,1,4.373-7.576Z" transform="translate(-251.069 -350.36)" fill="#f4a40e" fill-rule="evenodd"/>
          <path id="Path_900788" data-name="Path 900788" d="M242.7,310.006a13.625,13.625,0,0,0-4.963,4.963l4.167,2.406A8.744,8.744,0,0,1,249.482,313v-4.811A13.5,13.5,0,0,0,242.7,310.006Z" transform="translate(-235.923 -308.192)" fill="#72d561" fill-rule="evenodd"/>
          <path id="Path_900789" data-name="Path 900789" d="M267.442,347.47l1.066.615a8.744,8.744,0,0,1,7.577-4.373v-1.231A9.974,9.974,0,0,0,267.442,347.47Z" transform="translate(-262.526 -338.902)" fill="#57ca5a" fill-rule="evenodd"/>
          <path id="Path_900790" data-name="Path 900790" d="M292.06,309.244v-1.052a13.5,13.5,0,0,0-6.78,1.814l2.406,4.167a8.758,8.758,0,0,1,8.749,0l2.406-4.167a13.5,13.5,0,0,0-6.78-1.814Z" transform="translate(-278.502 -308.192)" fill="#3cbe52" fill-rule="evenodd"/>
          <path id="Path_900791" data-name="Path 900791" d="M302.429,343.819l.615,1.066a8.758,8.758,0,0,1,8.749,0l.615-1.066a9.988,9.988,0,0,0-9.979,0Z" transform="translate(-293.861 -338.903)" fill="#30aa44" fill-rule="evenodd"/>
          <path id="Path_900792" data-name="Path 900792" d="M357,310.006a13.5,13.5,0,0,0-6.78-1.814V313a8.743,8.743,0,0,1,7.576,4.373l4.167-2.406A13.625,13.625,0,0,0,357,310.006Z" transform="translate(-336.666 -308.192)" fill="#64b5f6" fill-rule="evenodd"/>
          <path id="Path_900793" data-name="Path 900793" d="M350.224,342.482v1.231a8.743,8.743,0,0,1,7.576,4.373l1.066-.615a9.974,9.974,0,0,0-8.642-4.988Z" transform="translate(-336.666 -338.902)" fill="#42a5f5" fill-rule="evenodd"/>
          <path id="Path_900794" data-name="Path 900794" d="M399.491,330.535a13.624,13.624,0,0,0-4.963-4.963l-2.406,4.167a8.743,8.743,0,0,1,4.373,7.576h4.811A13.5,13.5,0,0,0,399.491,330.535Z" transform="translate(-374.19 -323.758)" fill="#2d90f1" fill-rule="evenodd"/>
          <path id="Path_900795" data-name="Path 900795" d="M392.737,355.275l-.615,1.066a8.743,8.743,0,0,1,4.373,7.576h1.231a9.974,9.974,0,0,0-4.988-8.642Z" transform="translate(-374.19 -350.359)" fill="#1d83d4" fill-rule="evenodd"/>
          <path id="Path_900796" data-name="Path 900796" d="M428.774,379.894a13.5,13.5,0,0,0-1.814-6.78l-4.167,2.406a8.757,8.757,0,0,1,0,8.749l4.167,2.406A13.5,13.5,0,0,0,428.774,379.894Z" transform="translate(-401.658 -366.336)" fill="#fc685b" fill-rule="evenodd"/>
          <path id="Path_900797" data-name="Path 900797" d="M423.859,390.263l-1.066.615a8.757,8.757,0,0,1,0,8.749l1.066.616a9.988,9.988,0,0,0,0-9.979Z" transform="translate(-401.659 -381.695)" fill="#f35244" fill-rule="evenodd"/>
          <path id="Path_900798" data-name="Path 900798" d="M426.96,444.837a13.5,13.5,0,0,0,1.815-6.78h-4.811a8.707,8.707,0,0,1-1.171,4.374Z" transform="translate(-401.659 -424.499)" fill="#eb423f" fill-rule="evenodd"/>
          <path id="Path_900799" data-name="Path 900799" d="M425.194,438.057h-1.231a8.707,8.707,0,0,1-1.171,4.374l1.066.616A9.931,9.931,0,0,0,425.194,438.057Z" transform="translate(-401.658 -424.499)" fill="#cf312e" fill-rule="evenodd"/>
          <path id="Path_900800" data-name="Path 900800" d="M329.408,419.669a2.426,2.426,0,1,0-2.426-2.426A2.431,2.431,0,0,0,329.408,419.669Z" transform="translate(-315.85 -403.684)" fill="#64b5f6" fill-rule="evenodd"/>
          <path id="Path_900801" data-name="Path 900801" d="M329.409,414.817a2.425,2.425,0,0,1,2.1,1.218,2.427,2.427,0,0,0-3.635,3.091,2.426,2.426,0,0,1,1.53-4.309Z" transform="translate(-315.851 -403.685)" fill="#42a5f5" fill-rule="evenodd"/>
        </g>
      </g>
      <path id="Path_900802" data-name="Path 900802" d="M59.306,46.628a1.323,1.323,0,1,0-1.323,1.323A1.324,1.324,0,0,0,59.306,46.628Zm4.427-3.319a.834.834,0,0,1-.306,1.14l-2.537,1.465a3,3,0,1,1-.836-1.446L62.591,43a.835.835,0,0,1,1.141.306Zm6.945,4.154H67.528a9.587,9.587,0,0,1-.859,3.215L69.4,52.253a12.725,12.725,0,0,0,1.28-4.79Zm-4.849-6.329,2.727-1.574a12.823,12.823,0,0,0-3.5-3.5l-1.575,2.727A9.636,9.636,0,0,1,65.828,41.134Zm-13.34-2.352-1.575-2.727a12.829,12.829,0,0,0-3.5,3.5l2.727,1.574A9.636,9.636,0,0,1,52.488,38.782ZM49.3,50.678a9.589,9.589,0,0,1-.859-3.215H45.289a12.722,12.722,0,0,0,1.28,4.791Zm-.859-4.886h-3.15A12.628,12.628,0,0,1,46.573,41L49.3,42.579A9.516,9.516,0,0,0,48.437,45.793Zm-4.588-1.886A14.263,14.263,0,0,1,44.737,41H33.463a.835.835,0,1,1,0-1.67H45.584a14.5,14.5,0,0,1,1.309-1.865H33.463a.835.835,0,1,1,0-1.67H48.521a14.351,14.351,0,0,1,6.539-3.258V3.365a.7.7,0,0,0-.7-.7H33.525V8.39a2.22,2.22,0,0,1-2.218,2.218h-5.72v32.6a.7.7,0,0,0,.7.7H43.849ZM26.767,8.937,31.854,3.85V8.39a.548.548,0,0,1-.548.547ZM58.818,37.082V33.933a12.624,12.624,0,0,1,4.788,1.284l-1.574,2.727a9.513,9.513,0,0,0-3.213-.862Zm-1.671-3.149v3.149a9.508,9.508,0,0,0-3.213.862L52.36,35.217A12.629,12.629,0,0,1,57.147,33.933Zm13.53,11.859H67.528a9.507,9.507,0,0,0-.863-3.214L69.393,41A12.609,12.609,0,0,1,70.677,45.793Zm1.7.835a14.386,14.386,0,0,1-1.927,7.2.834.834,0,0,1-1.14.305l-4.167-2.406a.836.836,0,0,1-.306-1.142,7.911,7.911,0,1,0-13.707,0,.834.834,0,0,1-.3,1.141l-4.167,2.406a.836.836,0,0,1-1.141-.3,14.4,14.4,0,0,1-1.927-7.2q0-.53.038-1.051H26.282a2.369,2.369,0,0,1-2.365-2.366v-32.8a2.316,2.316,0,0,1,.693-1.673L31.65,1.692A2.321,2.321,0,0,1,33.323,1h21.04A2.369,2.369,0,0,1,56.73,3.365V32.29c.414-.035.831-.055,1.253-.055A14.409,14.409,0,0,1,72.375,46.628ZM29.1,19.619a.891.891,0,1,1,.891.891A.892.892,0,0,1,29.1,19.619Zm6.885-8.953a.891.891,0,1,1,.892.891A.892.892,0,0,1,35.989,10.666Zm6.886,4.614a.891.891,0,1,1,.891.891A.891.891,0,0,1,42.875,15.28ZM27.433,19.619a2.561,2.561,0,0,1,3.375-2.429l3.934-5.115a2.56,2.56,0,1,1,4.614-.755l2.864,1.919a2.555,2.555,0,0,1,2.757-.215l3.838-3.543-.81-.038a.835.835,0,1,1,.078-1.668l2.9.136a.835.835,0,0,1,.783.984l-.52,2.859a.835.835,0,1,1-1.643-.3l.094-.517-3.59,3.313a2.561,2.561,0,1,1-4.821.375l-2.864-1.919a2.556,2.556,0,0,1-2.36.388L32.132,18.21a2.561,2.561,0,1,1-4.7,1.409ZM49.515,30.384V14.49h2.273V30.384ZM48.68,12.819h3.943a.835.835,0,0,1,.835.836V31.219a.835.835,0,0,1-.835.835H48.68a.835.835,0,0,1-.835-.835V13.655A.835.835,0,0,1,48.68,12.819ZM31.131,25.185v5.2H28.858v-5.2Zm1.67,6.033a.835.835,0,0,1-.835.835H28.023a.835.835,0,0,1-.836-.835V24.35a.835.835,0,0,1,.836-.835h3.943a.835.835,0,0,1,.835.835Zm5.215-13.645v12.81H35.743V17.574Zm1.67-.835v14.48a.835.835,0,0,1-.835.835H34.908a.835.835,0,0,1-.835-.835V16.739a.835.835,0,0,1,.835-.835h3.943a.835.835,0,0,1,.835.835ZM44.9,20.847v9.536H42.63V20.847Zm1.67-.835V31.219a.835.835,0,0,1-.835.835H41.794a.835.835,0,0,1-.835-.835V20.012a.835.835,0,0,1,.835-.835h3.942a.835.835,0,0,1,.835.835ZM29.989,35.792a.835.835,0,1,1,0,1.67H28.33a.835.835,0,0,1,0-1.67Zm.836,4.37a.835.835,0,0,1-.836.835H28.33a.835.835,0,0,1,0-1.67h1.659A.835.835,0,0,1,30.824,40.162Z" fill-rule="evenodd"/>
    </g>
  </g>
</svg>
