<svg xmlns="http://www.w3.org/2000/svg" width="77" height="77" viewBox="0 0 77 77">
  <g id="Group_1111814" data-name="Group 1111814" transform="translate(-755 -8437)">
    <g id="Group_1111455" data-name="Group 1111455" transform="translate(-265.73 5344)">
      <g id="Group_1098742" data-name="Group 1098742" transform="translate(1020.73 3093)">
        <rect id="Rectangle_400898" data-name="Rectangle 400898" width="77" height="77" rx="38.5" transform="translate(0 0)" fill="#ccda2d"/>
        <rect id="Rectangle_400907" data-name="Rectangle 400907" width="77" height="77" rx="38.5" transform="translate(0 0)" fill="none"/>
      </g>
    </g>
    <g id="registro" transform="translate(772.07 8451)">
      <g id="Group_1111812" data-name="Group 1111812" transform="translate(1.769 1.769)">
        <g id="Group_1111796" data-name="Group 1111796" transform="translate(23.059 1.537)">
          <path id="Path_900711" data-name="Path 900711" d="M41.224,7.075v7.686l-.769.769-2.306,2.306V7.075H32V4h6.149A3.074,3.074,0,0,1,41.224,7.075Z" transform="translate(-32 -4)" fill="#ccd1d9"/>
        </g>
        <g id="Group_1111797" data-name="Group 1111797" transform="translate(0 1.537)">
          <path id="Path_900712" data-name="Path 900712" d="M34.113,31.4l.169.046V45.506a3.074,3.074,0,0,1-3.075,3.075H5.075A3.074,3.074,0,0,1,2,45.506V7.075A3.074,3.074,0,0,1,5.075,4h6.149V7.075H5.075V45.506H31.208V30.579h.015Z" transform="translate(-2 -4)" fill="#ccd1d9"/>
        </g>
        <g id="Group_1111798" data-name="Group 1111798" transform="translate(9.224 0)">
          <path id="Path_900713" data-name="Path 900713" d="M27.835,3.537V6.612H14V2.769A.771.771,0,0,1,14.769,2h12.3a.771.771,0,0,1,.769.769Z" transform="translate(-14 -2)" fill="#5cd6b3"/>
        </g>
        <g id="Group_1111799" data-name="Group 1111799" transform="translate(3.075 4.612)">
          <path id="Path_900714" data-name="Path 900714" d="M25.984,8H6V46.431H32.133V8Z" transform="translate(-6 -8)" fill="#ffeaa7"/>
        </g>
        <g id="Group_1111800" data-name="Group 1111800" transform="translate(6.149 7.686)">
          <path id="Path_900715" data-name="Path 900715" d="M23.835,12V23.306a4.659,4.659,0,0,0-1.6,1.545l-.146.238a6.89,6.89,0,0,0-5.173-2.329,3.843,3.843,0,1,0-3.843-3.843,3.845,3.845,0,0,0,3.843,3.843A6.928,6.928,0,0,0,10,29.678V12Z" transform="translate(-10 -12)" fill="#e6e9ed"/>
        </g>
        <g id="Group_1111801" data-name="Group 1111801" transform="translate(31.514 10.761)">
          <path id="Path_900716" data-name="Path 900716" d="M45.306,16l4.612,4.612-2.306,2.306-2.306-2.306L43,18.306l.769-.769Z" transform="translate(-43 -16)" fill="#ffeaa7"/>
        </g>
        <g id="Group_1111802" data-name="Group 1111802" transform="translate(33.82 9.224)">
          <path id="Path_900717" data-name="Path 900717" d="M52.149,17.259a3.263,3.263,0,0,1-.953,2.306l-.584.584L46,15.537l.584-.584a3.259,3.259,0,0,1,5.565,2.306Z" transform="translate(-46 -14)" fill="#aab2bd"/>
        </g>
        <g id="Group_1111803" data-name="Group 1111803" transform="translate(12.298 29.976)">
          <path id="Path_900718" data-name="Path 900718" d="M20.306,41,18,47.918l6.918-2.306Z" transform="translate(-18 -41)" fill="#aab2bd"/>
        </g>
        <g id="Group_1111804" data-name="Group 1111804" transform="translate(16.91 26.771)">
          <path id="Path_900719" data-name="Path 900719" d="M31.679,37.729h1.545l-6.918,6.918L24,42.341l5.511-5.511A3.062,3.062,0,0,0,31.679,37.729Z" transform="translate(-24 -36.83)" fill="#5cd6b3"/>
        </g>
        <g id="Group_1111805" data-name="Group 1111805" transform="translate(26.133 15.373)">
          <path id="Path_900720" data-name="Path 900720" d="M45.992,24.306l-1.284,1.284-2.068,2.068a6.923,6.923,0,0,1-4.9,2.029H36L43.686,22Z" transform="translate(-36 -22)" fill="#5cd6b3"/>
        </g>
        <g id="Group_1111806" data-name="Group 1111806" transform="translate(14.6 13.068)">
          <path id="Path_900721" data-name="Path 900721" d="M0,0H23.914V3.261H0Z" transform="translate(0 16.907) rotate(-45)" fill="#fcd770"/>
        </g>
        <g id="Group_1111807" data-name="Group 1111807" transform="translate(6.149 18.447)">
          <path id="Path_900722" data-name="Path 900722" d="M19.239,33.686H10v-.769a6.915,6.915,0,0,1,12.09-4.589l-2.6,4.151a1.8,1.8,0,0,0-.269.953c0,.085.008.169.015.254Z" transform="translate(-10 -26)" fill="#ef7385"/>
        </g>
        <g id="Group_1111808" data-name="Group 1111808" transform="translate(38.431 16.91)">
          <path id="Path_900723" data-name="Path 900723" d="M59.686,24V35.529L52,34.761V27.075Z" transform="translate(-52 -24)" fill="#5cd6b3"/>
        </g>
        <g id="Group_1111809" data-name="Group 1111809" transform="translate(21.522 18.962)">
          <path id="Path_900724" data-name="Path 900724" d="M46.91,27.692v7.686l-.553.369a6.957,6.957,0,0,1-3.851,1.168,7.052,7.052,0,0,1-1.745-.223l-.169-.046-2.89-.822h-.015a11.265,11.265,0,0,0-3.075-.446H33.067A3.07,3.07,0,0,1,30,32.312a1.548,1.548,0,0,1,1.545-1.545h4.812a6.923,6.923,0,0,0,4.9-2.029L43.32,26.67Z" transform="translate(-30 -26.67)" fill="#f0d0b4"/>
        </g>
        <g id="Group_1111810" data-name="Group 1111810" transform="translate(15.373 16.91)">
          <path id="Path_900725" data-name="Path 900725" d="M30.778,24.453A7.165,7.165,0,0,1,33.291,24a7.809,7.809,0,0,1,.945.061l-6.088,6.088-4.6,4.6a1.8,1.8,0,0,1-1.537-1.522c-.008-.085-.015-.169-.015-.254a1.8,1.8,0,0,1,.269-.953l2.6-4.151.146-.238a4.659,4.659,0,0,1,1.6-1.545,5.66,5.66,0,0,1,.692-.323Z" transform="translate(-22 -24)" fill="#f0d0b4"/>
        </g>
        <g id="Group_1111811" data-name="Group 1111811" transform="translate(9.442 11.183)">
          <ellipse id="Ellipse_11684" data-name="Ellipse 11684" cx="3.919" cy="3.483" rx="3.919" ry="3.483" transform="translate(0 0)" fill="#f0d0b4"/>
        </g>
      </g>
      <g id="Group_1111813" data-name="Group 1111813" transform="translate(1 1)">
        <path id="Path_900726" data-name="Path 900726" d="M40.158,20.941l-2.078-.594L41.327,17.1a4.029,4.029,0,0,0-5.7-5.7l-.808.807V6.38a3.847,3.847,0,0,0-3.843-3.843H25.6A1.539,1.539,0,0,0,24.059,1h-12.3a1.539,1.539,0,0,0-1.537,1.537H4.843A3.847,3.847,0,0,0,1,6.38V44.812a3.847,3.847,0,0,0,3.843,3.843H30.976a3.847,3.847,0,0,0,3.843-3.843V31.671a7.763,7.763,0,0,0,5.25-1.221l.328-.219,8.257.826V17.543ZM36.715,12.49a2.492,2.492,0,0,1,3.524,3.526l-.039.038-3.524-3.525Zm-1.127,1.126,3.525,3.525L37.894,18.36l-3.525-3.525Zm1.219,5.831L34,22.256a6.2,6.2,0,0,1-4.233,1.8l5.823-5.824ZM34.5,17.141,27.583,24.06l-2.44,0,8.14-8.14ZM18.678,32.964l-1.219-1.219,5.074-5.074a3.806,3.806,0,0,0,.63,1.808Zm5.571-3.4a3.8,3.8,0,0,0,1.809.63L20.984,35.27l-1.219-1.219ZM16.291,34.42l.417-1.252,2.853,2.853-1.252.417Zm.388,2.562-1.4.466.466-1.4Zm2.768-20.609A4.612,4.612,0,1,0,11.994,20a7.715,7.715,0,0,0-3.308,2.543V10.224h12.3V20.367a5.4,5.4,0,0,0-1.078,1A7.683,7.683,0,0,0,17.671,20a4.6,4.6,0,0,0,1.776-3.629Zm-4.612,3.075a3.075,3.075,0,1,1,3.075-3.075A3.078,3.078,0,0,1,14.835,19.447Zm0,1.537a6.154,6.154,0,0,1,4.2,1.666l-2.276,3.64a2.553,2.553,0,0,0-.331.843H8.686a6.156,6.156,0,0,1,6.149-6.149Zm3.639,7.573a1.019,1.019,0,0,1-.409-1.453l2.743-4.388a3.857,3.857,0,0,1,1.908-1.561l3.468-1.3a6.336,6.336,0,0,1,1.321-.331ZM25.6,4.075h5.38A2.309,2.309,0,0,1,33.282,6.38v7.368l-1.537,1.537V5.612H25.6ZM11.761,2.537h12.3V5.612h-12.3ZM30.208,7.149v9.674L29.08,17.95a7.964,7.964,0,0,0-3.436.464l-3.123,1.172V8.686H7.149V28.671H16.6a2.582,2.582,0,0,0,.769,1L15.7,31.33,13.179,38.9a1.831,1.831,0,0,0-.853,1.022l-.245.739a.475.475,0,0,1-.812.109l-.877-1.314a1.77,1.77,0,0,0-3.243.981v2.073H8.686V40.433a.241.241,0,0,1,.427-.129l.877,1.314a1.993,1.993,0,0,0,3.549-.475l.245-.739a.31.31,0,0,1,.566,0l.35,1.051a1.536,1.536,0,0,0,1.459,1.051h4.058V40.969H16.158l-.35-1.052a1.829,1.829,0,0,0-.577-.832L21.4,37.029l6.814-6.814a10.72,10.72,0,0,1,1.995.28V44.043H5.612V7.149Zm3.075,37.663a2.309,2.309,0,0,1-2.306,2.306H4.843a2.309,2.309,0,0,1-2.306-2.306V6.38A2.309,2.309,0,0,1,4.843,4.075h5.38V5.612H4.074V45.58H31.745V30.9l1.537.439Zm6.149-15.784-.214.144a6.222,6.222,0,0,1-5.121.8L31.2,29.144a12.268,12.268,0,0,0-3.377-.473h-1.47a2.3,2.3,0,0,1-2.3-2.3.777.777,0,0,1,.777-.774l4.811,0a7.743,7.743,0,0,0,5.438-2.251l1.752-1.752,2.594.741Zm7.686.331-6.149-.615v-6.47l6.149-2.46Z" transform="translate(-1 -1)"/>
        <path id="Path_900727" data-name="Path 900727" d="M31,11h4.612v1.537H31Z" transform="translate(-7.941 -3.314)"/>
        <path id="Path_900728" data-name="Path 900728" d="M31,15h4.612v1.537H31Z" transform="translate(-7.941 -4.239)"/>
        <path id="Path_900729" data-name="Path 900729" d="M31,19h4.612v1.537H31Z" transform="translate(-7.941 -5.165)"/>
        <path id="Path_900730" data-name="Path 900730" d="M9,39h3.075v1.537H9Z" transform="translate(-2.851 -9.792)"/>
        <path id="Path_900731" data-name="Path 900731" d="M9,43h4.612v1.537H9Z" transform="translate(-2.851 -10.718)"/>
      </g>
    </g>
  </g>
</svg>
