<svg xmlns="http://www.w3.org/2000/svg" xmlns:xlink="http://www.w3.org/1999/xlink" width="77" height="77" viewBox="0 0 77 77">
  <defs>
    <clipPath id="clip-path">
      <path id="path6012" d="M0-682.665H48.063V-634.6H0Z" transform="translate(0 682.665)"/>
    </clipPath>
  </defs>
  <g id="Group_1111953" data-name="Group 1111953" transform="translate(-16954 7149)">
    <g id="Group_1111539" data-name="Group 1111539" transform="translate(15933.27 -10242)">
      <g id="Group_1098742" data-name="Group 1098742" transform="translate(1020.73 3093)">
        <rect id="Rectangle_400898" data-name="Rectangle 400898" width="77" height="77" rx="38.5" transform="translate(0 0)" fill="#ccda2d"/>
        <rect id="Rectangle_400907" data-name="Rectangle 400907" width="77" height="77" rx="38.5" transform="translate(0 0)" fill="none"/>
      </g>
    </g>
    <g id="g6006" transform="translate(16969 -6451.335)">
      <g id="g6008" transform="translate(0 -682.665)">
        <g id="g6010" clip-path="url(#clip-path)">
          <g id="g6016" transform="translate(3.971 0.939)">
            <path id="path6018" d="M-342.335-537.273H-365.1a3.157,3.157,0,0,1-3.157-3.157v-34.377a3.157,3.157,0,0,1,3.157-3.157h22.77a3.157,3.157,0,0,1,3.157,3.157v34.377a3.157,3.157,0,0,1-3.157,3.157" transform="translate(368.262 577.964)" fill="#fab05f"/>
          </g>
          <g id="g6020" transform="translate(3.033 0)">
            <path id="path6022" d="M-354.729-548.729H-377.5a4.1,4.1,0,0,1-4.1-4.1V-587.2a4.1,4.1,0,0,1,4.1-4.1h22.77a4.1,4.1,0,0,1,4.1,4.1v34.377A4.1,4.1,0,0,1-354.729-548.729ZM-377.5-589.42a2.221,2.221,0,0,0-2.219,2.218v34.377a2.221,2.221,0,0,0,2.219,2.219h22.77a2.221,2.221,0,0,0,2.219-2.219V-587.2a2.221,2.221,0,0,0-2.219-2.218Z" transform="translate(381.595 591.297)"/>
          </g>
          <g id="g6024" transform="translate(8.571 5.366)">
            <path id="path6026" d="M-355.845,0h-24.816A2.134,2.134,0,0,0-382.8,2.134V33.218a4.911,4.911,0,0,0,1.509,3.542l3.78,3.629a4.911,4.911,0,0,0,3.4,1.369h18.26a2.134,2.134,0,0,0,2.134-2.134V2.134A2.134,2.134,0,0,0-355.845,0" transform="translate(382.795)" fill="#ffd866"/>
          </g>
          <g id="g6028" transform="translate(8.746 39.88)">
            <path id="path6030" d="M-17.615-29.658A4.91,4.91,0,0,1-18.949-31.9h5.859a1.51,1.51,0,0,1,1.51,1.51v5.6a4.909,4.909,0,0,1-2.255-1.232Z" transform="translate(18.949 31.904)" fill="#fab05f"/>
          </g>
          <g id="g6032" transform="translate(7.632 4.427)">
            <path id="path6034" d="M14.556-365.483H-3.7a5.823,5.823,0,0,1-4.052-1.63l-3.78-3.629a5.879,5.879,0,0,1-1.8-4.219v-5.353a.939.939,0,0,1,.939-.939.939.939,0,0,1,.939.939v5.353a3.992,3.992,0,0,0,1.221,2.865l3.78,3.629A3.954,3.954,0,0,0-3.7-367.361h18.26a1.2,1.2,0,0,0,1.2-1.2v-37.49a1.2,1.2,0,0,0-1.2-1.2H-10.261a1.2,1.2,0,0,0-1.2,1.2v18.221a.939.939,0,0,1-.939.939.939.939,0,0,1-.939-.939v-18.221a3.076,3.076,0,0,1,3.073-3.073H14.556a3.076,3.076,0,0,1,3.073,3.073v37.49A3.076,3.076,0,0,1,14.556-365.483Z" transform="translate(13.333 409.119)"/>
          </g>
          <g id="g6036" transform="translate(7.808 38.941)">
            <path id="path6038" d="M-31.344-45.237h5.859a2.451,2.451,0,0,1,2.449,2.449v5.6a.939.939,0,0,1-.358.737.939.939,0,0,1-.8.176,5.854,5.854,0,0,1-2.686-1.468l-3.78-3.629a5.852,5.852,0,0,1-1.589-2.675.939.939,0,0,1,.159-.817A.939.939,0,0,1-31.344-45.237Zm6.43,6.652v-4.2a.572.572,0,0,0-.571-.571h-4.407a3.956,3.956,0,0,0,.532.63l3.78,3.629A3.964,3.964,0,0,0-24.914-38.585Z" transform="translate(32.283 45.237)"/>
          </g>
          <g id="g6040" transform="translate(14.386 22.692)">
            <path id="path6042" d="M-385.136-121.44h0c-8.056,8.531-20.577,8.531-28.632,0a2.094,2.094,0,0,1,0-2.8c8.056-8.531,20.577-8.531,28.632,0h0a2.094,2.094,0,0,1,0,2.8" transform="translate(414.305 130.638)" fill="#d6effb"/>
          </g>
          <g id="g6044" transform="translate(13.441 21.754)">
            <path id="path6046" d="M-411.921-126.5a20.564,20.564,0,0,1-15-6.692,3.017,3.017,0,0,1,0-4.089,20.564,20.564,0,0,1,15-6.692,20.564,20.564,0,0,1,15,6.692,3.016,3.016,0,0,1,0,4.089A20.564,20.564,0,0,1-411.921-126.5Zm0-15.6a18.706,18.706,0,0,0-13.634,6.1,1.159,1.159,0,0,0,0,1.511,18.706,18.706,0,0,0,13.634,6.1,18.706,18.706,0,0,0,13.634-6.1,1.159,1.159,0,0,0,0-1.511A18.706,18.706,0,0,0-411.921-142.094Z" transform="translate(427.718 143.971)"/>
          </g>
          <g id="g6048" transform="translate(21.441 22.692)">
            <path id="path6050" d="M-205.916-102.957a7.8,7.8,0,0,1-7.8,7.8,7.8,7.8,0,0,1-7.8-7.8,7.8,7.8,0,0,1,7.8-7.8,7.8,7.8,0,0,1,7.8,7.8" transform="translate(221.511 110.754)" fill="#00b7ec"/>
          </g>
          <g id="g6052" transform="translate(20.502 21.754)">
            <path id="path6054" d="M-226.108-124.088a8.746,8.746,0,0,1,8.736,8.736,8.746,8.746,0,0,1-8.736,8.736,8.746,8.746,0,0,1-8.737-8.736A8.746,8.746,0,0,1-226.108-124.088Zm0,15.6a6.867,6.867,0,0,0,6.859-6.859,6.867,6.867,0,0,0-6.859-6.859,6.867,6.867,0,0,0-6.859,6.859A6.867,6.867,0,0,0-226.108-108.492Z" transform="translate(234.845 124.088)"/>
          </g>
          <g id="g6056" transform="translate(25.421 26.673)">
            <path id="path6058" d="M-100.8-50.4a3.817,3.817,0,0,1-3.817,3.817,3.817,3.817,0,0,1-3.817-3.817,3.817,3.817,0,0,1,3.817-3.817A3.817,3.817,0,0,1-100.8-50.4" transform="translate(108.437 54.219)" fill="#d6effb"/>
          </g>
          <g id="g6060" transform="translate(24.483 25.734)">
            <path id="path6062" d="M-117.014-67.552a4.761,4.761,0,0,1,4.756,4.756,4.761,4.761,0,0,1-4.756,4.756A4.761,4.761,0,0,1-121.77-62.8,4.761,4.761,0,0,1-117.014-67.552Zm0,7.635a2.882,2.882,0,0,0,2.878-2.879,2.882,2.882,0,0,0-2.878-2.879,2.882,2.882,0,0,0-2.878,2.879A2.882,2.882,0,0,0-117.014-59.917Z" transform="translate(121.77 67.552)"/>
          </g>
          <g id="g6064" transform="translate(13.181 9.763)">
            <path id="path6066" d="M4.127-11.456H-12.395a.939.939,0,0,1-.939-.939.939.939,0,0,1,.939-.939H4.127a.939.939,0,0,1,.939.939A.939.939,0,0,1,4.127-11.456Z" transform="translate(13.333 13.333)"/>
          </g>
          <g id="g6068" transform="translate(13.181 14.926)">
            <path id="path6070" d="M-.45-11.456H-12.395a.939.939,0,0,1-.939-.939.939.939,0,0,1,.939-.939H-.45a.939.939,0,0,1,.939.939A.939.939,0,0,1-.45-11.456Z" transform="translate(13.333 13.333)"/>
          </g>
          <g id="g6072" transform="translate(13.181 20.089)">
            <path id="path6074" d="M-7.285-11.456h-5.11a.939.939,0,0,1-.939-.939.939.939,0,0,1,.939-.939h5.11a.939.939,0,0,1,.939.939A.939.939,0,0,1-7.285-11.456Z" transform="translate(13.333 13.333)"/>
          </g>
          <g id="g6076" transform="translate(8.571 29.476)">
            <path id="path6078"/>
          </g>
        </g>
      </g>
    </g>
  </g>
</svg>
