<svg xmlns="http://www.w3.org/2000/svg" width="77" height="77" viewBox="0 0 77 77">
  <g id="Group_1111841" data-name="Group 1111841" transform="translate(-1070 -2116)">
    <g id="Group_1111484" data-name="Group 1111484" transform="translate(49.27 -977)">
      <g id="Group_1098742" data-name="Group 1098742" transform="translate(1020.73 3093)">
        <rect id="Rectangle_400898" data-name="Rectangle 400898" width="77" height="77" rx="38.5" transform="translate(0 0)" fill="#ccda2d"/>
        <rect id="Rectangle_400907" data-name="Rectangle 400907" width="77" height="77" rx="38.5" transform="translate(0 0)" fill="none"/>
      </g>
    </g>
    <g id="logro" transform="translate(1084.5 2130.398)">
      <g id="Group_1111832" data-name="Group 1111832" transform="translate(0.864 1.924)">
        <path id="Path_900803" data-name="Path 900803" d="M4.5,8.152V44.539a3.026,3.026,0,0,0,3.015,3.018H35.059a3.026,3.026,0,0,0,3.015-3.018V8.152a3.026,3.026,0,0,0-3.015-3.018H7.515A3.026,3.026,0,0,0,4.5,8.152Z" transform="translate(-4.5 -5.134)" fill="#eaf6ff" fill-rule="evenodd"/>
      </g>
      <g id="Group_1111833" data-name="Group 1111833" transform="translate(4.341 32.022)">
        <path id="Path_900804" data-name="Path 900804" d="M42.705,335.816h7.652v7.65H42.705Z" transform="translate(-42.705 -335.816)" fill="#ffd301" fill-rule="evenodd"/>
      </g>
      <g id="Group_1111834" data-name="Group 1111834" transform="translate(4.341 20.19)">
        <path id="Path_900805" data-name="Path 900805" d="M42.705,205.815h7.652v7.65H42.705Z" transform="translate(-42.705 -205.815)" fill="#ffd301" fill-rule="evenodd"/>
      </g>
      <g id="Group_1111835" data-name="Group 1111835" transform="translate(4.341 8.357)">
        <path id="Path_900806" data-name="Path 900806" d="M42.705,75.814h7.652v7.652H42.705Z" transform="translate(-42.705 -75.814)" fill="#ffd301" fill-rule="evenodd"/>
      </g>
      <g id="Group_1111836" data-name="Group 1111836" transform="translate(19.607 28.745)">
        <path id="Path_900807" data-name="Path 900807" d="M219.856,318.661a9.422,9.422,0,1,0-9.422-9.422A9.44,9.44,0,0,0,219.856,318.661Z" transform="translate(-210.434 -299.816)" fill="#fd646f" fill-rule="evenodd"/>
      </g>
      <g id="Group_1111837" data-name="Group 1111837" transform="translate(22.902 31.858)">
        <path id="Path_900808" data-name="Path 900808" d="M252.763,346.272a6.128,6.128,0,1,0-6.128-6.128A6.138,6.138,0,0,0,252.763,346.272Z" transform="translate(-246.635 -334.017)" fill="#f5f5f5" fill-rule="evenodd"/>
      </g>
      <g id="Group_1111838" data-name="Group 1111838" transform="translate(26.231 35.187)">
        <path id="Path_900809" data-name="Path 900809" d="M286.008,376.19a2.8,2.8,0,1,0-2.8-2.8A2.8,2.8,0,0,0,286.008,376.19Z" transform="translate(-283.209 -370.592)" fill="#fd646f" fill-rule="evenodd"/>
      </g>
      <g id="Group_1111839" data-name="Group 1111839" transform="translate(21.843 35.437)">
        <path id="Path_900810" data-name="Path 900810" d="M251.155,375.383A9.63,9.63,0,0,1,235,382.469a9.425,9.425,0,0,0,15.934-9.133A9.607,9.607,0,0,1,251.155,375.383Z" transform="translate(-235.002 -373.336)" fill="#eb4954" fill-rule="evenodd"/>
      </g>
      <g id="Group_1111840" data-name="Group 1111840" transform="translate(39.649 27.594)">
        <path id="Path_900811" data-name="Path 900811" d="M430.633,291.45V288.8l2.835-1.637v2.647l2.295,1.326-2.835,1.637Z" transform="translate(-430.633 -287.166)" fill="#fac149" fill-rule="evenodd"/>
      </g>
      <path id="Path_900812" data-name="Path 900812" d="M3.842,31.922a.636.636,0,0,1,.636-.636H9.749a.636.636,0,0,1,0,1.272H5.114V38.83h6.272V34.893a.636.636,0,1,1,1.272,0v4.573a.636.636,0,0,1-.636.636H4.478a.636.636,0,0,1-.636-.636Zm10.02-2.232a.636.636,0,0,0-.894.1L8.124,35.84l-1.3-2.077a.636.636,0,1,0-1.078.674L7.52,37.275a.637.637,0,0,0,.5.3H8.06a.636.636,0,0,0,.5-.239l5.4-6.751a.636.636,0,0,0-.1-.894ZM3.842,27.8a.636.636,0,0,0,.636.636h7.544a.636.636,0,0,0,.636-.636V23.224a.636.636,0,1,0-1.272,0v3.937H5.114V20.889H9.749a.636.636,0,0,0,0-1.272H4.478a.636.636,0,0,0-.636.636Zm10.02-9.773a.636.636,0,0,0-.894.1L8.124,24.171l-1.3-2.077a.636.636,0,1,0-1.078.674l1.774,2.837a.636.636,0,0,0,.5.3H8.06a.636.636,0,0,0,.5-.238l5.4-6.749a.636.636,0,0,0-.1-.894Zm5.854,25.418H4.113A2.343,2.343,0,0,1,1.772,41.1V5.215a2.343,2.343,0,0,1,2.341-2.34H31.274a2.343,2.343,0,0,1,2.34,2.34V28.188a.636.636,0,1,0,1.272,0V5.215A3.617,3.617,0,0,0,31.274,1.6H4.113A3.617,3.617,0,0,0,.5,5.215V41.1a3.617,3.617,0,0,0,3.613,3.613h15.6a.636.636,0,0,0,0-1.272ZM9.749,9.219a.636.636,0,0,0,0-1.272H4.478a.636.636,0,0,0-.636.636V16.13a.636.636,0,0,0,.636.636h7.544a.636.636,0,0,0,.636-.636V11.555a.636.636,0,1,0-1.272,0v3.939H5.114V9.219Zm4.113-2.865a.636.636,0,0,0-.894.1L8.123,12.5l-1.3-2.075a.636.636,0,1,0-1.078.675l1.774,2.835a.636.636,0,0,0,.5.3H8.06a.636.636,0,0,0,.5-.238l5.4-6.749a.636.636,0,0,0-.1-.894ZM29.395,7.947H16.533a.636.636,0,0,0,0,1.272H29.395a.636.636,0,0,0,0-1.272Zm0,3.4H16.533a.636.636,0,0,0,0,1.272H29.395a.636.636,0,0,0,0-1.272Zm0,8.265H16.533a.636.636,0,0,0,0,1.272H29.395a.636.636,0,0,0,0-1.272Zm.636,4.04a.636.636,0,0,0-.636-.636H16.533a.636.636,0,0,0,0,1.272H29.395A.636.636,0,0,0,30.031,23.656Zm-9.7,8.265a.636.636,0,0,0-.636-.636H16.533a.636.636,0,0,0,0,1.272H19.7A.636.636,0,0,0,20.331,31.922Zm-3.8,2.768a.636.636,0,0,0,0,1.272h1.684a.636.636,0,0,0,0-1.272Zm30.157-6.182-2.875,1.659,1.31.757a.636.636,0,0,1,0,1.1l-2.8,1.614a.635.635,0,0,1-.636,0l-1.945-1.124L37.9,33.58a9.956,9.956,0,1,1-.638-1.1l1.847-1.066V29.169a.636.636,0,0,1,.318-.551L42.226,27a.636.636,0,0,1,.954.551v1.51l2.875-1.659a.636.636,0,0,1,.636,1.1ZM36.8,34.217l-1.72.993a6.7,6.7,0,1,1-.638-1.1l1.72-.993a8.612,8.612,0,1,0,.638,1.1Zm-8.451,3.411,2.094-1.209a2.124,2.124,0,1,0,.637,1.1l-2.095,1.209a.636.636,0,1,1-.636-1.1Zm3.227-1.863,1.761-1.017a5.394,5.394,0,1,0,.637,1.1l-1.761,1.017a3.407,3.407,0,1,1-.638-1.1Zm11.962-4.291-1.3-.754,0,0,0,0-.015-.01a.635.635,0,0,1-.053-.035l-.02-.017c-.014-.012-.029-.024-.043-.037s-.016-.019-.025-.028-.021-.022-.03-.035a.648.648,0,0,1-.046-.069h0a.648.648,0,0,1-.034-.068l-.007-.018c-.007-.018-.014-.037-.019-.056l-.005-.018a.633.633,0,0,1-.014-.07v0a.626.626,0,0,1-.005-.078s0,0,0-.005V28.656l-1.524.88v1.877l1.627.94Z"/>
    </g>
  </g>
</svg>
