<svg xmlns="http://www.w3.org/2000/svg" width="85" height="86" viewBox="0 0 85 86">
  <g id="Group_1111976" data-name="Group 1111976" transform="translate(-17022 6312)">
    <rect id="Rectangle_404364" data-name="Rectangle 404364" width="85" height="86" rx="8" transform="translate(17022 -6312)" fill="#9eceb6"/>
    <g id="auditoria_1_" data-name="auditoria (1)" transform="translate(17034.256 -6298)">
      <g id="Group_1111974" data-name="Group 1111974" transform="translate(2.594 0.851)">
        <g id="Group_1111968" data-name="Group 1111968" transform="translate(20.696 10.019)">
          <path id="Path_901162" data-name="Path 901162" d="M191.711,107.6v25.1a3.582,3.582,0,0,0,3.582,3.582h28.113a3.582,3.582,0,0,0,3.582-3.582V99.412a3.582,3.582,0,0,0-3.582-3.582H203.485a4.477,4.477,0,0,0-3.166,1.311l-7.3,7.3A4.477,4.477,0,0,0,191.711,107.6Z" transform="translate(-191.711 -95.83)" fill="#b1e4f9"/>
        </g>
        <g id="Group_1111969" data-name="Group 1111969" transform="translate(17.357 6.679)">
          <path id="Path_901163" data-name="Path 901163" d="M162.267,78.16v25.1a3.582,3.582,0,0,0,3.582,3.582h28.113a3.582,3.582,0,0,0,3.582-3.582V69.968a3.582,3.582,0,0,0-3.582-3.582H174.041a4.478,4.478,0,0,0-3.166,1.311l-7.3,7.3a4.478,4.478,0,0,0-1.311,3.166Z" transform="translate(-162.267 -66.386)" fill="#d3effb"/>
        </g>
        <g id="Group_1111970" data-name="Group 1111970" transform="translate(14.017 3.339)">
          <path id="Path_901164" data-name="Path 901164" d="M132.824,48.717v25.1a3.582,3.582,0,0,0,3.582,3.582H164.52A3.582,3.582,0,0,0,168.1,73.82V40.525a3.582,3.582,0,0,0-3.582-3.582H144.6a4.477,4.477,0,0,0-3.166,1.311l-7.3,7.3a4.477,4.477,0,0,0-1.311,3.166Z" transform="translate(-132.824 -36.943)" fill="#e4f6ff"/>
        </g>
        <g id="Group_1111971" data-name="Group 1111971" transform="translate(10.677)">
          <path id="Path_901165" data-name="Path 901165" d="M103.381,19.274v25.1a3.582,3.582,0,0,0,3.582,3.582h28.113a3.582,3.582,0,0,0,3.582-3.582V11.082A3.582,3.582,0,0,0,135.076,7.5H115.155a4.477,4.477,0,0,0-3.166,1.311l-7.3,7.3a4.477,4.477,0,0,0-1.311,3.166Z" transform="translate(-103.381 -7.5)" fill="#f4fbff"/>
          <path id="Path_901166" data-name="Path 901166" d="M103.38,19.276v.764A2.62,2.62,0,0,1,106,17.42h3.718a3.582,3.582,0,0,0,3.582-3.582V10.121a2.62,2.62,0,0,1,2.62-2.62h-.764a4.481,4.481,0,0,0-3.167,1.311l-7.3,7.3a4.481,4.481,0,0,0-1.312,3.167Z" transform="translate(-103.38 -7.501)" fill="#e4f6ff"/>
        </g>
        <g id="Group_1111972" data-name="Group 1111972" transform="translate(0 21.841)">
          <path id="Path_901167" data-name="Path 901167" d="M0,0H4.252V9.851H0Z" transform="translate(13.151 18.37) rotate(45)" fill="#407093"/>
          <path id="Path_901168" data-name="Path 901168" d="M0,0H2.126V9.851H0Z" transform="translate(13.151 18.37) rotate(45)" fill="#365e7d"/>
          <circle id="Ellipse_11706" data-name="Ellipse 11706" cx="12.602" cy="12.602" r="12.602" transform="translate(9.325 0)" fill="#ffe07d"/>
          <path id="Path_901169" data-name="Path 901169" d="M95.934,222.3q-.4-.34-.784-.72a12.6,12.6,0,0,1,17.822-17.822q.38.38.72.784A12.6,12.6,0,0,0,95.934,222.3Z" transform="translate(-82.134 -200.068)" fill="#ffd064"/>
          <circle id="Ellipse_11707" data-name="Ellipse 11707" cx="8.909" cy="8.909" r="8.909" transform="translate(13.019 3.693)" fill="#d3effb"/>
          <path id="Path_901170" data-name="Path 901170" d="M128.013,248.966a8.909,8.909,0,1,1,12.349-12.349,8.911,8.911,0,0,0-12.349,12.349Z" transform="translate(-111.004 -228.934)" fill="#b1e4f9"/>
          <path id="Path_901171" data-name="Path 901171" d="M12.283,405.04l-2.465-2.465a1.967,1.967,0,0,1,0-2.782l6.252-6.252a1.967,1.967,0,0,1,2.782,0l2.465,2.465a1.967,1.967,0,0,1,0,2.782l-6.252,6.252a1.967,1.967,0,0,1-2.782,0Z" transform="translate(-9.242 -371.087)" fill="#a77d73"/>
          <path id="Path_901172" data-name="Path 901172" d="M11.62,404.376l-1.8-1.8a1.966,1.966,0,0,1,0-2.782l6.252-6.252a1.966,1.966,0,0,1,2.782,0l1.8,1.8a1.966,1.966,0,0,0-2.782,0l-6.252,6.252A1.966,1.966,0,0,0,11.62,404.376Z" transform="translate(-9.24 -371.084)" fill="#98695e"/>
        </g>
        <g id="Group_1111973" data-name="Group 1111973" transform="translate(16.355 29.829)">
          <path id="Path_901173" data-name="Path 901173" d="M158.253,281.131a1.8,1.8,0,0,1-1.424-.7l-3.014-3.888a1.8,1.8,0,0,1,2.849-2.209l1.353,1.745,2.64-4.675a1.8,1.8,0,0,1,3.139,1.773l-3.974,7.036a1.8,1.8,0,0,1-1.439.911c-.044,0-.088,0-.131,0Z" transform="translate(-153.437 -270.49)" fill="#b3e59f"/>
        </g>
      </g>
      <g id="Group_1111975" data-name="Group 1111975" transform="translate(1.744 0)">
        <path id="Path_901174" data-name="Path 901174" d="M55.968,10.129a4.448,4.448,0,0,0-3.34-3.339,4.446,4.446,0,0,0-3.339-3.34A4.442,4.442,0,0,0,44.967,0H25.045a5.292,5.292,0,0,0-3.767,1.56l-.026.027L13.98,8.857a5.3,5.3,0,0,0-1.56,3.769V29.418a13.5,13.5,0,0,0,.719,13.049l-1.41,1.41a2.819,2.819,0,0,0-2.908.668L2.569,50.8a2.817,2.817,0,0,0,0,3.984l2.465,2.465a2.82,2.82,0,0,0,3.984,0L11.963,54.3a.851.851,0,0,0-1.2-1.2L7.815,56.043a1.117,1.117,0,0,1-1.578,0L3.772,53.579a1.116,1.116,0,0,1,0-1.578l6.252-6.253a1.119,1.119,0,0,1,1.579,0l2.464,2.464a1.119,1.119,0,0,1,0,1.58l-.9.9a.851.851,0,1,0,1.2,1.2l.9-.9a2.819,2.819,0,0,0,.668-2.908l1.41-1.41A13.382,13.382,0,0,0,21.7,48.443a4.4,4.4,0,0,0,.849.288,4.443,4.443,0,0,0,4.322,3.449H54.986a4.438,4.438,0,0,0,4.433-4.434V14.451a4.442,4.442,0,0,0-3.451-4.322ZM49.4,37.727V5.271A2.739,2.739,0,0,1,51.032,7.6c0,.053.006.109.006.174V41.068A2.734,2.734,0,0,1,48.307,43.8H34.945a13.373,13.373,0,0,0,1.146-1.638h8.877A4.438,4.438,0,0,0,49.4,37.727Zm-27-34.88a3.477,3.477,0,0,0-.057.623V7.188a2.734,2.734,0,0,1-2.731,2.731H15.891a3.475,3.475,0,0,0-.625.058ZM14.121,13.41c0-.007,0-.013,0-.02a1.771,1.771,0,0,1,1.769-1.769h3.718a4.437,4.437,0,0,0,4.433-4.433V3.47A1.771,1.771,0,0,1,25.811,1.7H44.967A2.736,2.736,0,0,1,47.693,4.26c0,.052.006.109.006.173V37.727a2.735,2.735,0,0,1-2.731,2.732H36.942A13.452,13.452,0,0,0,15.009,25.782q-.472.472-.888.979Zm2.091,13.575a11.751,11.751,0,1,1,0,16.619,11.713,11.713,0,0,1,0-16.619ZM14.94,46.679l-1.8-1.8,1.014-1.014q.4.488.859.945t.945.859Zm42.777,1.067a2.735,2.735,0,0,1-2.731,2.732H26.872a2.739,2.739,0,0,1-2.5-1.639H51.646a4.438,4.438,0,0,0,4.434-4.433V19.818a.851.851,0,1,0-1.7,0V44.407a2.735,2.735,0,0,1-2.732,2.731H30.9A13.369,13.369,0,0,0,33.286,45.5h15.02a4.437,4.437,0,0,0,4.433-4.433V8.609a2.738,2.738,0,0,1,1.639,2.5v5.31a.851.851,0,0,0,1.7,0V11.949a2.738,2.738,0,0,1,1.638,2.5V47.746Z" transform="translate(-1.744 0)"/>
        <path id="Path_901175" data-name="Path 901175" d="M126.314,244.65a9.759,9.759,0,1,0-6.9-2.858A9.7,9.7,0,0,0,126.314,244.65Zm-5.7-15.457a8.058,8.058,0,1,1,0,11.4A8.005,8.005,0,0,1,120.616,229.192Z" transform="translate(-103.537 -199.596)"/>
        <path id="Path_901176" data-name="Path 901176" d="M135.847,122.442a.851.851,0,0,0,1.1-.492l.32-.841H139.5l.317.839a.851.851,0,1,0,1.592-.6l-2.1-5.577-.009-.023a.976.976,0,0,0-.905-.606h0a.976.976,0,0,0-.9.608l-.008.019-2.124,5.577A.851.851,0,0,0,135.847,122.442Zm3.014-3.035h-.948l.476-1.251Z" transform="translate(-120.151 -102.081)"/>
        <path id="Path_901177" data-name="Path 901177" d="M314.357,122.5a.851.851,0,0,0,.851-.851v-5.657a.851.851,0,0,0-1.7,0v5.657A.851.851,0,0,0,314.357,122.5Z" transform="translate(-278.146 -102.081)"/>
        <path id="Path_901178" data-name="Path 901178" d="M255.576,121.65a.851.851,0,0,0,.851.848h0c.048,0,1.192,0,1.649-.013,1.781-.031,3.073-1.573,3.073-3.666,0-2.2-1.26-3.679-3.135-3.679h-1.6a.851.851,0,0,0-.851.852s0,2.176,0,2.82C255.568,119.6,255.576,121.65,255.576,121.65Zm2.441-4.809c1.33,0,1.434,1.514,1.434,1.978,0,.966-.433,1.948-1.4,1.965-.181,0-.481.006-.775.008,0-.657,0-1.527,0-1.979,0-.379,0-1.287,0-1.971Z" transform="translate(-226.775 -102.081)"/>
        <path id="Path_901179" data-name="Path 901179" d="M197.238,122.066a2.747,2.747,0,0,0,1.5.432h0a2.892,2.892,0,0,0,1.314-.3,2.543,2.543,0,0,0,1.534-2.314v-3.888a.851.851,0,0,0-1.7,0v3.888c0,.244-.071.529-.6.795a1.191,1.191,0,0,1-.548.123h0a1.058,1.058,0,0,1-.586-.164c-.412-.263-.495-.482-.495-.749v-3.892a.851.851,0,1,0-1.7,0v3.892A2.5,2.5,0,0,0,197.238,122.066Z" transform="translate(-173.93 -102.081)"/>
        <path id="Path_901180" data-name="Path 901180" d="M340.795,116.841h.705v4.806a.851.851,0,0,0,1.7,0v-4.806h.718a.851.851,0,0,0,0-1.7h-3.124a.851.851,0,1,0,0,1.7Z" transform="translate(-301.585 -102.081)"/>
        <path id="Path_901181" data-name="Path 901181" d="M151.613,275.339q.1,0,.193-.007a2.647,2.647,0,0,0,2.118-1.342l3.973-7.036a2.653,2.653,0,1,0-4.62-2.609l-2.011,3.561-.569-.734a2.653,2.653,0,1,0-4.194,3.251l3.014,3.888a2.671,2.671,0,0,0,2.1,1.028Zm-3.6-7.293a.945.945,0,0,1,.581-.2.959.959,0,0,1,.121.008.945.945,0,0,1,.633.361l1.353,1.745a.851.851,0,0,0,1.413-.1l2.64-4.675a.952.952,0,1,1,1.658.936l-3.973,7.036a.952.952,0,0,1-1.581.115l-3.014-3.888A.953.953,0,0,1,148.016,268.045Z" transform="translate(-129.591 -233.167)"/>
      </g>
    </g>
  </g>
</svg>
