<svg xmlns="http://www.w3.org/2000/svg" width="85" height="86" viewBox="0 0 85 86">
  <g id="Group_1111966" data-name="Group 1111966" transform="translate(-1125 -5092)">
    <rect id="Rectangle_404285" data-name="Rectangle 404285" width="85" height="86" rx="8" transform="translate(1125 5092)" fill="#9eceb6"/>
    <g id="ciclo" transform="translate(1129.323 5104.936)">
      <g id="Group_1111964" data-name="Group 1111964" transform="translate(10.2 0.876)">
        <path id="Path_901141" data-name="Path 901141" d="M240.9,218.285a2.845,2.845,0,0,1-.839-2.025v-5.681H239.2a1.043,1.043,0,0,1-.632-.212l-.031-.024h-6.692a1.058,1.058,0,0,1-.948-.6l-3-6.212-.186-.117-.117.79v16.867l.117.45h16.422Z" transform="translate(-202.943 -180.501)" fill="#ffc344"/>
        <path id="Path_901142" data-name="Path 901142" d="M227.6,336v2.148l.117.45h16.422l-2.6-2.6Z" transform="translate(-202.943 -297.575)" fill="#feb237"/>
        <g id="Group_1111963" data-name="Group 1111963" transform="translate(0)">
          <g id="Group_1111958" data-name="Group 1111958" transform="translate(17.323 10.469)">
            <path id="Path_901143" data-name="Path 901143" d="M186.613,109.563a.833.833,0,0,0,.16-.491v-2.3a.838.838,0,0,0-.838-.838h-1.383a.842.842,0,0,1-.8-.587,8.251,8.251,0,0,0-.5-1.2.843.843,0,0,1,.15-.98l.978-.978a.838.838,0,0,0,0-1.185l-1.625-1.625a.838.838,0,0,0-1.185,0l-.978.978a.843.843,0,0,1-.98.15,8.265,8.265,0,0,0-1.2-.5.842.842,0,0,1-.587-.8V97.836A.838.838,0,0,0,177,97h-2.3a.838.838,0,0,0-.838.838v1.383a.842.842,0,0,1-.587.8,8.253,8.253,0,0,0-1.2.5.843.843,0,0,1-.98-.15l-.978-.978a.838.838,0,0,0-1.185,0l-1.624,1.625a.838.838,0,0,0,0,1.185l.977.978a.843.843,0,0,1,.15.98,8.273,8.273,0,0,0-.5,1.2.842.842,0,0,1-.8.587h-1.383a.838.838,0,0,0-.838.838v2.3a.833.833,0,0,0,.16.491h21.53Z" transform="translate(-164.923 -96.998)" fill="#b5adb6"/>
            <path id="Path_901144" data-name="Path 901144" d="M235.555,166.277a3.412,3.412,0,1,0-5.986,0Z" transform="translate(-221.636 -153.712)" fill="#918291"/>
            <path id="Path_901145" data-name="Path 901145" d="M248.543,161.225a3.4,3.4,0,0,0-1.3.255,3.413,3.413,0,0,1,1.7,4.8h2.591a3.413,3.413,0,0,0-2.993-5.052Z" transform="translate(-237.618 -153.712)" fill="#7a6d79"/>
          </g>
          <g id="Group_1111959" data-name="Group 1111959" transform="translate(9.1 22.917)">
            <path id="Path_901146" data-name="Path 901146" d="M133.144,203.535l-3,6.212a1.058,1.058,0,0,1-.948.6h-8.278l-.21.117v9.9a1.17,1.17,0,0,0,1.17,1.17h11.45V203.418Z" transform="translate(-117.659 -203.418)" fill="#ffd15b"/>
            <path id="Path_901147" data-name="Path 901147" d="M120.71,336v1.429a1.17,1.17,0,0,0,1.17,1.17h11.45V336Z" transform="translate(-117.658 -320.492)" fill="#ffc344"/>
            <path id="Path_901148" data-name="Path 901148" d="M239.031,209.528V208.39a1.054,1.054,0,0,1,1.053-1.053H249.9l-1.571-3.256a1.17,1.17,0,0,0-1.053-.661H228.6l3.078,6.38a1.17,1.17,0,0,0,1.053.661H239.6A1.054,1.054,0,0,1,239.031,209.528Z" transform="translate(-212.926 -203.42)" fill="#ffd15b"/>
            <path id="Path_901149" data-name="Path 901149" d="M95.207,210.46h10.954a1.17,1.17,0,0,0,1.053-.661l3.078-6.38H98.407a1.17,1.17,0,0,0-1.053.661l-2.674,5.541A.585.585,0,0,0,95.207,210.46Z" transform="translate(-94.621 -203.418)" fill="#ffe177"/>
          </g>
          <g id="Group_1111962" data-name="Group 1111962" transform="translate(35.088 26.717)">
            <g id="Group_1111960" data-name="Group 1111960" transform="translate(1.909 3.361)">
              <path id="Path_901150" data-name="Path 901150" d="M349.294,280.057l-3.394-3.394a.6.6,0,0,1,0-.843l3.394-3.394a2.981,2.981,0,0,0,.873-2.108v-5.681H333.12v5.681a2.981,2.981,0,0,0,.873,2.108l3.394,3.394a.6.6,0,0,1,0,.843l-3.394,3.394a2.981,2.981,0,0,0-.873,2.108v5.681h17.047v-5.681A2.981,2.981,0,0,0,349.294,280.057Z" transform="translate(-333.12 -264.637)" fill="#f3f0f3"/>
              <path id="Path_901151" data-name="Path 901151" d="M429.044,280.057l-3.394-3.394a.6.6,0,0,1,0-.843l3.394-3.394a2.981,2.981,0,0,0,.873-2.108v-5.681H427.33v5.681a2.981,2.981,0,0,1-.873,2.108L424,274.887a1.915,1.915,0,0,0,0,2.709l2.461,2.461a2.981,2.981,0,0,1,.873,2.108v5.681h2.587v-5.681A2.981,2.981,0,0,0,429.044,280.057Z" transform="translate(-412.871 -264.637)" fill="#e2dee2"/>
              <path id="Path_901152" data-name="Path 901152" d="M369.916,425.015h-9.668a.585.585,0,0,0-.585.585v3.865H370.5V425.6A.585.585,0,0,0,369.916,425.015Z" transform="translate(-356.559 -406.256)" fill="#b5adb6"/>
              <path id="Path_901153" data-name="Path 901153" d="M432.025,425.015H430v4.45h2.61V425.6A.585.585,0,0,0,432.025,425.015Z" transform="translate(-418.668 -406.256)" fill="#a79ba7"/>
              <path id="Path_901154" data-name="Path 901154" d="M366.9,313.766l4.42,4.42,4.42-4.42a.585.585,0,0,0-.414-1h-8.013A.585.585,0,0,0,366.9,313.766Z" transform="translate(-362.794 -307.138)" fill="#b5adb6"/>
              <path id="Path_901155" data-name="Path 901155" d="M397.038,312.768h-2.021l-3.7,3.7,1.716,1.716,4.42-4.42A.585.585,0,0,0,397.038,312.768Z" transform="translate(-384.508 -307.138)" fill="#a79ba7"/>
            </g>
            <g id="Group_1111961" data-name="Group 1111961">
              <path id="Path_901156" data-name="Path 901156" d="M336.5,239.384H317.971a1.17,1.17,0,0,1-1.17-1.17v-1.138a1.17,1.17,0,0,1,1.17-1.17H336.5a1.17,1.17,0,0,1,1.17,1.17v1.138A1.17,1.17,0,0,1,336.5,239.384Z" transform="translate(-316.801 -235.907)" fill="#fe5ca7"/>
              <path id="Path_901157" data-name="Path 901157" d="M336.5,465.538H317.971a1.17,1.17,0,0,1-1.17-1.17v-1.138a1.17,1.17,0,0,1,1.17-1.17H336.5a1.17,1.17,0,0,1,1.17,1.17v1.138A1.17,1.17,0,0,1,336.5,465.538Z" transform="translate(-316.801 -435.608)" fill="#fe5ca7"/>
              <path id="Path_901158" data-name="Path 901158" d="M336.5,462.061h-1.424v.578a1.17,1.17,0,0,1-1.17,1.17H316.8v.56a1.17,1.17,0,0,0,1.17,1.17H336.5a1.17,1.17,0,0,0,1.17-1.17v-1.138A1.17,1.17,0,0,0,336.5,462.061Z" transform="translate(-316.801 -435.608)" fill="#fe3d97"/>
            </g>
          </g>
          <path id="Path_901159" data-name="Path 901159" d="M42.815,163.011a.358.358,0,0,0-.589.225l-.127,1a.586.586,0,0,1-.669.5A23.985,23.985,0,0,1,24.283,128.9a.584.584,0,0,0-.239-.817l-2.7-1.369a.587.587,0,0,0-.773.232,28.181,28.181,0,0,0,20.355,41.935.583.583,0,0,1,.493.652l-.116.91a.358.358,0,0,0,.514.366l5.872-2.913a.358.358,0,0,0,.076-.591Z" transform="translate(-16.823 -112.715)" fill="#46cc8d"/>
          <path id="Path_901160" data-name="Path 901160" d="M77.808,19.033l6.538-.462A.358.358,0,0,0,84.6,18L83.99,17.2a.586.586,0,0,1,.116-.83,23.986,23.986,0,0,1,37.377,12.89.582.582,0,0,0,.563.426h3.119a.585.585,0,0,0,.569-.722,28.18,28.18,0,0,0-44.2-15.88.583.583,0,0,1-.81-.112l-.561-.726a.358.358,0,0,0-.622.1l-2.093,6.212A.358.358,0,0,0,77.808,19.033Z" transform="translate(-70.336 -7.5)" fill="#46cc8d"/>
        </g>
        <path id="Path_901161" data-name="Path 901161" d="M336.5,235.906h-1.424v.564a1.17,1.17,0,0,1-1.17,1.17H316.8v.574a1.17,1.17,0,0,0,1.17,1.17H336.5a1.17,1.17,0,0,0,1.17-1.17v-1.138A1.169,1.169,0,0,0,336.5,235.906Z" transform="translate(-281.713 -209.189)" fill="#fe3d97"/>
      </g>
      <g id="Group_1111965" data-name="Group 1111965" transform="translate(9.323 -0.002)">
        <path id="Trazado_901162" data-name="Trazado 901162" d="M180.06,103.7H158.389a.877.877,0,0,1-.784-.483,1.694,1.694,0,0,1-.183-.769v-2.3a1.717,1.717,0,0,1,1.715-1.715h1.383a6.53,6.53,0,0,1,.512-1.3l-.966-.94a1.717,1.717,0,0,1,0-2.425l1.624-1.625a1.715,1.715,0,0,1,2.425,0l.978.978a6.533,6.533,0,0,1,1.287-.56l-.02-1.348a1.717,1.717,0,0,1,1.715-1.715h2.3a1.717,1.717,0,0,1,1.715,1.715V92.6a6.528,6.528,0,0,1,1.3.512l.94-.966a1.715,1.715,0,0,1,2.425,0l1.625,1.625a1.717,1.717,0,0,1,0,2.425l-.978.978a6.531,6.531,0,0,1,.559,1.287l1.348-.02a1.717,1.717,0,0,1,1.715,1.715v2.3a1.694,1.694,0,0,1-.183.769A.877.877,0,0,1,180.06,103.7Zm-20.892-1.755h20.1v-1.794l-1.344.04A1.716,1.716,0,0,1,176.3,99a7.4,7.4,0,0,0-.443-1.07,1.717,1.717,0,0,1,.311-2l.978-.978-1.625-1.569-.921.978a1.7,1.7,0,0,1-1.211.5,1.744,1.744,0,0,1-.788-.189,7.413,7.413,0,0,0-1.07-.443,1.716,1.716,0,0,1-1.193-1.633V91.213l-2.258.04.04,1.344a1.716,1.716,0,0,1-1.193,1.633,7.4,7.4,0,0,0-1.07.443,1.744,1.744,0,0,1-.787.189,1.7,1.7,0,0,1-1.211-.5l-.978-.978-1.568,1.625.977.922a1.717,1.717,0,0,1,.311,2,7.419,7.419,0,0,0-.443,1.07,1.716,1.716,0,0,1-1.633,1.193h-1.383Z" transform="translate(-140.099 -79.029)"/>
        <path id="Trazado_901163" data-name="Trazado 901163" d="M228.991,160.415h-6.105a.877.877,0,0,1-.785-.485,4.246,4.246,0,0,1-.452-1.915,4.29,4.29,0,1,1,8.58,0,4.246,4.246,0,0,1-.452,1.915A.877.877,0,0,1,228.991,160.415Zm-5.5-1.755h4.9a2.535,2.535,0,1,0-4.9,0Z" transform="translate(-196.813 -135.744)"/>
        <path id="Trazado_901164" data-name="Trazado 901164" d="M232.759,204.714h-6.653a2.058,2.058,0,0,1-1.844-1.157l-3.078-6.38a.877.877,0,0,1,.79-1.258h18.68a2.058,2.058,0,0,1,1.844,1.157l1.514,3.139-1.58.762-1.514-3.139a.294.294,0,0,0-.263-.165H223.372l2.471,5.122a.294.294,0,0,0,.263.165h6.653Z" transform="translate(-196.326 -173.001)"/>
        <path id="Trazado_901165" data-name="Trazado 901165" d="M343.544,282.866H326.5a.877.877,0,0,1-.877-.877v-5.564a3.833,3.833,0,0,1,1.13-2.728l3.2-3.2-3.2-3.2a3.833,3.833,0,0,1-1.13-2.728v-5.564a.877.877,0,0,1,.877-.877h17.047a.877.877,0,0,1,.877.877v5.564a3.833,3.833,0,0,1-1.13,2.728l-3.2,3.2,3.2,3.2a3.833,3.833,0,0,1,1.13,2.728v5.564A.877.877,0,0,1,343.544,282.866Zm-16.17-1.755h15.292v-4.687a2.09,2.09,0,0,0-.616-1.488l-3.394-3.394a1.475,1.475,0,0,1,0-2.084l3.394-3.394a2.09,2.09,0,0,0,.616-1.488v-4.687H327.375v4.687a2.09,2.09,0,0,0,.616,1.488l3.394,3.394a1.473,1.473,0,0,1,0,2.084l-3.394,3.394a2.09,2.09,0,0,0-.616,1.488Z" transform="translate(-288.623 -227.942)"/>
        <path id="Línea_565" data-name="Línea 565" d="M-6.623-5.125A.877.877,0,0,1-7.5-6v-.621A.877.877,0,0,1-6.623-7.5a.877.877,0,0,1,.877.877V-6A.877.877,0,0,1-6.623-5.125Z" transform="translate(53.021 48.626)"/>
        <path id="Línea_566" data-name="Línea 566" d="M-6.623-5.124A.877.877,0,0,1-7.5-6v-.621A.877.877,0,0,1-6.623-7.5a.877.877,0,0,1,.877.877V-6A.877.877,0,0,1-6.623-5.124Z" transform="translate(53.021 51.99)"/>
        <path id="Trazado_901166" data-name="Trazado 901166" d="M35.035,165.1h0a1.236,1.236,0,0,1-1.225-1.392l.08-.626A29.049,29.049,0,0,1,9.352,133.106a29.1,29.1,0,0,1,3.836-13.22,1.463,1.463,0,0,1,1.93-.576l2.7,1.369a1.461,1.461,0,0,1,.6,2.043A23.108,23.108,0,0,0,34.643,157.2l.089-.7a1.235,1.235,0,0,1,2.035-.776l4.95,4.3a1.235,1.235,0,0,1-.261,2.039l-5.872,2.913A1.242,1.242,0,0,1,35.035,165.1ZM14.572,121a27.332,27.332,0,0,0,3.668,31.814,26.922,26.922,0,0,0,16.188,8.578,1.467,1.467,0,0,1,1.244,1.58l4.305-2.135-3.628-3.149,0,.034A1.466,1.466,0,0,1,34.894,159c-.043,0-.175-.01-.218-.016A24.863,24.863,0,0,1,16.747,122.1Z" transform="translate(-9.323 -105.215)"/>
        <path id="Trazado_901167" data-name="Trazado 901167" d="M118.544,23.939h-3.119a1.463,1.463,0,0,1-1.408-1.07,22.819,22.819,0,0,0-5.222-9.435,23.055,23.055,0,0,0-30.548-3.157l.431.558a1.235,1.235,0,0,1-.89,1.987l-6.538.462a1.235,1.235,0,0,1-1.257-1.626l2.093-6.212a1.235,1.235,0,0,1,2.147-.361l.386.5A28.67,28.67,0,0,1,92.555.01a29.142,29.142,0,0,1,18.322,7.185.877.877,0,1,1-1.155,1.32A27.384,27.384,0,0,0,92.505,1.764a26.938,26.938,0,0,0-17.07,5.4,1.467,1.467,0,0,1-2-.237L71.9,11.478,76.7,11.14l-.021-.027a1.464,1.464,0,0,1,.288-2.072,24.805,24.805,0,0,1,33.125,3.208,24.551,24.551,0,0,1,5.558,9.935h2.524a26.917,26.917,0,0,0-5.66-10.847.877.877,0,0,1,1.334-1.14,28.657,28.657,0,0,1,6.122,11.934,1.463,1.463,0,0,1-1.422,1.807Z" transform="translate(-62.838 0.002)"/>
        <path id="Trazado_901168" data-name="Trazado 901168" d="M329.873,233.639H311.348a2.049,2.049,0,0,1-2.047-2.047v-1.138a2.049,2.049,0,0,1,2.047-2.047h18.525a2.049,2.049,0,0,1,2.047,2.047v1.138a2.047,2.047,0,0,1-2.047,2.047Zm-18.525-3.477a.293.293,0,0,0-.292.292v1.138a.293.293,0,0,0,.292.292h18.525a.292.292,0,0,0,.292-.292v-1.138a.293.293,0,0,0-.292-.292Z" transform="translate(-274.213 -201.69)"/>
        <path id="Trazado_901169" data-name="Trazado 901169" d="M329.873,459.793H311.348a2.049,2.049,0,0,1-2.047-2.047v-1.138a2.049,2.049,0,0,1,2.047-2.047h18.525a2.049,2.049,0,0,1,2.047,2.047v1.138a2.047,2.047,0,0,1-2.047,2.047Zm-18.525-3.477a.293.293,0,0,0-.292.292v1.138a.293.293,0,0,0,.292.292h18.525a.292.292,0,0,0,.292-.292v-1.138a.293.293,0,0,0-.292-.292Z" transform="translate(-274.213 -401.391)"/>
        <path id="Trazado_901170" data-name="Trazado 901170" d="M360.692,305.268h8.013a1.462,1.462,0,0,1,1.034,2.5l-4.42,4.42a.877.877,0,0,1-1.241,0l-4.42-4.42a1.462,1.462,0,0,1,1.034-2.5ZM368,307.023h-6.6l3.3,3.3Z" transform="translate(-318.3 -269.561)"/>
        <path id="Trazado_901171" data-name="Trazado 901171" d="M99.535,204.714H88.581a1.462,1.462,0,0,1-1.317-2.1l2.673-5.541a2.058,2.058,0,0,1,1.844-1.157h11.885a.877.877,0,0,1,.79,1.258l-3.078,6.38A2.058,2.058,0,0,1,99.535,204.714ZM89.047,202.96H99.535a.294.294,0,0,0,.263-.165l2.471-5.122H91.782a.294.294,0,0,0-.263.165Z" transform="translate(-78.018 -173.001)"/>
        <path id="Trazado_901172" data-name="Trazado 901172" d="M238.231,215.78H221.974a.877.877,0,0,1-.877-.877V196.8a.877.877,0,1,1,1.755,0v17.23h15.379a.877.877,0,1,1,0,1.755Z" transform="translate(-196.326 -173.001)"/>
        <path id="Trazado_901173" data-name="Trazado 901173" d="M126.707,318.725h-11.45a2.049,2.049,0,0,1-2.047-2.047v-3.3a.877.877,0,1,1,1.755,0v3.3a.293.293,0,0,0,.292.292h11.45a.877.877,0,1,1,0,1.755Z" transform="translate(-101.058 -275.947)"/>
        <path id="Línea_567" data-name="Línea 567" d="M-6.623-3.244A.877.877,0,0,1-7.5-4.122v-2.5A.877.877,0,0,1-6.623-7.5a.877.877,0,0,1,.877.877v2.5A.877.877,0,0,1-6.623-3.244Z" transform="translate(19.652 37.458)"/>
        <path id="Trazado_901174" data-name="Trazado 901174" d="M363.879,423.6H353.041a.877.877,0,0,1-.877-.877v-3.748a1.464,1.464,0,0,1,1.462-1.462h2.613a.877.877,0,0,1,0,1.755h-2.32v2.579H363V419.27h-2.669a.877.877,0,0,1,0-1.755h2.961a1.464,1.464,0,0,1,1.462,1.462v3.748A.877.877,0,0,1,363.879,423.6Z" transform="translate(-312.062 -368.678)"/>
      </g>
    </g>
  </g>
</svg>
