<svg xmlns="http://www.w3.org/2000/svg" xmlns:xlink="http://www.w3.org/1999/xlink" width="77" height="77" viewBox="0 0 77 77">
  <defs>
    <clipPath id="clip-path">
      <path id="path984" d="M0-682.665H47v47H0Z" transform="translate(0 682.665)"/>
    </clipPath>
  </defs>
  <g id="Group_1111907" data-name="Group 1111907" transform="translate(-1070 -4459)">
    <g id="Group_1111536" data-name="Group 1111536" transform="translate(49.27 1366)">
      <g id="Group_1098742" data-name="Group 1098742" transform="translate(1020.73 3093)">
        <rect id="Rectangle_400898" data-name="Rectangle 400898" width="77" height="77" rx="38.5" transform="translate(0 0)" fill="#ccda2d"/>
        <rect id="Rectangle_400907" data-name="Rectangle 400907" width="77" height="77" rx="38.5" transform="translate(0 0)" fill="none"/>
      </g>
    </g>
    <g id="g978" transform="translate(1085 5156.665)">
      <g id="g980" transform="translate(0 -682.665)">
        <g id="g982" clip-path="url(#clip-path)">
          <g id="g988" transform="translate(34.935 23.235)">
            <path id="path990" d="M-148.365-148.365h0a1.377,1.377,0,0,1-1.947,0l-9.022-9.022,1.947-1.947,9.022,9.022a1.377,1.377,0,0,1,0,1.947" transform="translate(159.334 159.334)" fill="#484b63"/>
          </g>
          <path id="path992" d="M38.914-558.761H10v-40.571H38.914Z" transform="translate(-9.312 605.069)" fill="#d8d5ed"/>
          <path id="path994" d="M58.841-257.493H53.333v-14.87h5.507Z" transform="translate(-49.662 300.609)" fill="#ff2c5c"/>
          <path id="path996" d="M184.174-331.986h-5.507v-20.377h5.507Z" transform="translate(-166.366 375.102)" fill="#ffd659"/>
          <path id="path998" d="M312.173-304.672h-5.507V-323.03h5.507Z" transform="translate(-285.554 347.788)" fill="#4fc6f5"/>
          <path id="path1000" d="M93.333-257.493h2.754v-14.87H93.333Z" transform="translate(-86.908 300.609)" fill="#e62753"/>
          <path id="path1002" d="M218.666-331.986h2.754v-20.377h-2.754Z" transform="translate(-203.613 375.102)" fill="#ffbd54"/>
          <path id="path1004" d="M346.666-304.672h2.754V-323.03h-2.754Z" transform="translate(-322.801 347.788)" fill="#3bb3e3"/>
          <g id="g1006" transform="translate(12.567 0.688)">
            <path id="path1008" d="M-336.991-57.818a14.6,14.6,0,0,1,0,20.64,14.594,14.594,0,0,1-20.64,0,14.6,14.6,0,0,1,0-20.64,14.6,14.6,0,0,1,20.64,0" transform="translate(361.905 62.093)" fill="#50536e"/>
          </g>
          <g id="g1010" transform="translate(15.326 3.448)">
            <path id="path1012" d="M-273.334-273.333a11.854,11.854,0,0,1-16.745,0,11.854,11.854,0,0,1,0-16.745,11.854,11.854,0,0,1,16.745,0,11.854,11.854,0,0,1,0,16.745" transform="translate(293.542 293.541)" fill="#b5fcff"/>
          </g>
          <g id="g1014" transform="translate(25.785 3.448)">
            <path id="path1016" d="M-131.873-46.829a11.826,11.826,0,0,0-9.75-3.383,11.784,11.784,0,0,1,7,3.383,11.854,11.854,0,0,1,0,16.745,11.783,11.783,0,0,1-7,3.382,11.826,11.826,0,0,0,9.75-3.382,11.854,11.854,0,0,0,0-16.745" transform="translate(141.622 50.291)" fill="#71f6fc"/>
          </g>
          <g id="g1018" transform="translate(35.774 23.895)">
            <path id="path1020" d="M-29.123,1.223A2.052,2.052,0,0,1-30.584.618l-7.495-7.495a.688.688,0,0,1,0-.974.688.688,0,0,1,.974,0L-29.61-.356a.684.684,0,0,0,.487.2.684.684,0,0,0,.487-.2.69.69,0,0,0,0-.974l-7.5-7.5a.688.688,0,0,1,0-.974.688.688,0,0,1,.974,0l7.5,7.5a2.068,2.068,0,0,1,0,2.92A2.052,2.052,0,0,1-29.123,1.223Z" transform="translate(38.28 10)"/>
          </g>
          <g id="g1022" transform="translate(0 5.048)">
            <path id="path1024" d="M-9.312-49.8A.688.688,0,0,1-10-50.49v-3.044a.688.688,0,0,1,.688-.688H6.122a.688.688,0,0,1,.688.688.688.688,0,0,1-.688.688H-8.623v2.356A.688.688,0,0,1-9.312-49.8Z" transform="translate(10 54.223)"/>
          </g>
          <g id="g1026" transform="translate(0 11.076)">
            <path id="path1028" d="M-400.4-443.189h-28.914a.688.688,0,0,1-.688-.688v-34.543a.688.688,0,0,1,.688-.688.688.688,0,0,1,.688.688v33.855h27.537v-1.56a.688.688,0,0,1,.688-.688.688.688,0,0,1,.688.688v2.249A.688.688,0,0,1-400.4-443.189Z" transform="translate(430.002 479.109)"/>
          </g>
          <g id="g1030" transform="translate(28.914 28.984)">
            <path id="path1032" d="M-9.312,2.8A.688.688,0,0,1-10,2.107V-9.312A.688.688,0,0,1-9.312-10a.688.688,0,0,1,.688.688V2.107A.688.688,0,0,1-9.312,2.8Z" transform="translate(10 10)"/>
          </g>
          <path id="path1034" d="M49.529-266.117H44.022a.688.688,0,0,1-.688-.688v-14.87a.688.688,0,0,1,.688-.688h5.507a.688.688,0,0,1,.688.688v14.87A.688.688,0,0,1,49.529-266.117Zm-4.819-1.377h4.131v-13.493H44.71Z" transform="translate(-40.35 309.921)"/>
          <g id="g1036" transform="translate(11.611 22.051)">
            <path id="path1038" d="M-83.8-42.686h-5.507A.688.688,0,0,1-90-43.374V-63.751a.688.688,0,0,1,.688-.688H-87a.688.688,0,0,1,.688.688.688.688,0,0,1-.688.688h-1.624v19h4.131V-60a.688.688,0,0,1,.688-.688.688.688,0,0,1,.688.688v16.629A.688.688,0,0,1-83.8-42.686Z" transform="translate(90 64.44)"/>
          </g>
          <g id="g1040" transform="translate(20.423 27.88)">
            <path id="path1042" d="M-83.8-12.942h-5.507A.688.688,0,0,1-90-13.63V-28.178a.688.688,0,0,1,.688-.688.688.688,0,0,1,.688.688v13.859h4.131v-12.56a.688.688,0,0,1,.688-.688.688.688,0,0,1,.688.688V-13.63A.688.688,0,0,1-83.8-12.942Z" transform="translate(90 28.867)"/>
          </g>
          <g id="g1044" transform="translate(4.085 8.741)">
            <path id="path1046" d="M-131.257-8.623h-9.016a.688.688,0,0,1-.688-.688.688.688,0,0,1,.688-.688h9.016a.688.688,0,0,1,.688.688A.688.688,0,0,1-131.257-8.623Z" transform="translate(140.961 10)"/>
          </g>
          <g id="g1048" transform="translate(4.085 11.8)">
            <path id="path1050" d="M-118.357-8.623h-8.062a.688.688,0,0,1-.688-.688.688.688,0,0,1,.688-.688h8.062a.688.688,0,0,1,.688.688A.688.688,0,0,1-118.357-8.623Z" transform="translate(127.108 10)"/>
          </g>
          <g id="g1052" transform="translate(4.085 14.86)">
            <path id="path1054" d="M-114.768-8.623h-7.8a.688.688,0,0,1-.688-.688.688.688,0,0,1,.688-.688h7.8a.688.688,0,0,1,.688.688A.688.688,0,0,1-114.768-8.623Z" transform="translate(123.253 10)"/>
          </g>
          <g id="g1056" transform="translate(4.085 17.92)">
            <path id="path1058" d="M-4.164-8.623H-9.312A.688.688,0,0,1-10-9.312.688.688,0,0,1-9.312-10h5.148a.688.688,0,0,1,.688.688A.688.688,0,0,1-4.164-8.623Z" transform="translate(10 10)"/>
          </g>
          <g id="g1060" transform="translate(11.886 0.007)">
            <path id="path1062" d="M-383.9-75.013a15.236,15.236,0,0,1-10.807-4.469,15.3,15.3,0,0,1,0-21.613,15.3,15.3,0,0,1,21.613,0l-.449.525-.487.487a13.934,13.934,0,0,0-19.7-.038,13.922,13.922,0,0,0,0,19.666,13.866,13.866,0,0,0,9.833,4.066,13.86,13.86,0,0,0,9.833-4.066,13.951,13.951,0,0,0,1.8-17.463.688.688,0,0,1,.2-.953.688.688,0,0,1,.953.2A15.334,15.334,0,0,1-373.1-79.482,15.236,15.236,0,0,1-383.9-75.013Z" transform="translate(399.179 105.565)"/>
          </g>
          <g id="g1064" transform="translate(14.638 2.759)">
            <path id="path1066" d="M-291.013-278.493a12.445,12.445,0,0,1-8.86-3.664,12.544,12.544,0,0,1,0-17.719,12.445,12.445,0,0,1,8.86-3.664,12.445,12.445,0,0,1,8.86,3.664,12.445,12.445,0,0,1,3.664,8.86,12.444,12.444,0,0,1-3.664,8.859A12.445,12.445,0,0,1-291.013-278.493Zm0-23.671A11.077,11.077,0,0,0-298.9-298.9a11.165,11.165,0,0,0,0,15.772,11.077,11.077,0,0,0,7.886,3.261,11.077,11.077,0,0,0,7.886-3.261,11.077,11.077,0,0,0,3.261-7.886,11.077,11.077,0,0,0-3.261-7.886A11.077,11.077,0,0,0-291.013-302.164Z" transform="translate(303.537 303.541)"/>
          </g>
        </g>
      </g>
    </g>
  </g>
</svg>
