<svg xmlns="http://www.w3.org/2000/svg" xmlns:xlink="http://www.w3.org/1999/xlink" width="77" height="77" viewBox="0 0 77 77">
  <defs>
    <clipPath id="clip-path">
      <path id="path2229" d="M0-682.665H49.534v49.534H0Z" transform="translate(0 682.665)"/>
    </clipPath>
  </defs>
  <g id="Group_1111861" data-name="Group 1111861" transform="translate(-1078 -4130)">
    <g id="Group_1098742" data-name="Group 1098742" transform="translate(1078 4130)">
      <rect id="Rectangle_400898" data-name="Rectangle 400898" width="77" height="77" rx="38.5" transform="translate(0 0)" fill="#ccda2d"/>
      <rect id="Rectangle_400907" data-name="Rectangle 400907" width="77" height="77" rx="38.5" transform="translate(0 0)" fill="none"/>
    </g>
    <g id="g2225" transform="translate(1092 4144)">
      <g id="g2227" clip-path="url(#clip-path)">
        <g id="g2233" transform="translate(0.967 0.967)">
          <path id="path2235" d="M-29.678,0H2.829A2.322,2.322,0,0,1,5.151,2.322V45.277A2.322,2.322,0,0,1,2.829,47.6H-29.678A2.322,2.322,0,0,1-32,45.277V2.322A2.322,2.322,0,0,1-29.678,0" transform="translate(32)" fill="#79b2ff"/>
        </g>
        <g id="g2237" transform="translate(4.837 4.837)">
          <path id="path2239" d="M-284.826,0h7.127V39.86H-307.11V0h7.127" transform="translate(307.11)" fill="#fff"/>
        </g>
        <g id="g2241" transform="translate(12.271 0.967)">
          <path id="path2243" d="M-26.277-89.034h10.432a2.056,2.056,0,0,0,2.056-2.056V-96H-28.333v4.91a2.056,2.056,0,0,0,2.056,2.056" transform="translate(28.333 96)" fill="#ff6977"/>
        </g>
        <g id="g2245" transform="translate(0 0)">
          <path id="path2247" d="M-489.536-330.465h-32.507a3.293,3.293,0,0,1-3.289-3.289V-376.71A3.293,3.293,0,0,1-522.043-380h32.507a3.293,3.293,0,0,1,3.289,3.289v16.664a.967.967,0,0,1-.967.967.967.967,0,0,1-.967-.967V-376.71a1.356,1.356,0,0,0-1.354-1.354h-32.507a1.356,1.356,0,0,0-1.354,1.354v42.955a1.356,1.356,0,0,0,1.354,1.354h32.507a1.356,1.356,0,0,0,1.354-1.354v-18.672a.967.967,0,0,1,.967-.967.967.967,0,0,1,.967.967v18.672A3.293,3.293,0,0,1-489.536-330.465Z" transform="translate(525.332 379.999)"/>
        </g>
        <g id="g2249" transform="translate(12.271 0.967)">
          <path id="path2251" d="M-26.277-89.034h10.432a2.056,2.056,0,0,0,2.056-2.056V-96H-28.333v4.91a2.056,2.056,0,0,0,2.056,2.056" transform="translate(28.333 96)" fill="#bdd9ff"/>
        </g>
        <g id="g2253" transform="translate(11.303 0)">
          <path id="path2255" d="M-28.211-100.432H-38.643a3.027,3.027,0,0,1-3.023-3.023v-4.91a.967.967,0,0,1,.967-.967h14.544a.967.967,0,0,1,.967.967v4.91A3.027,3.027,0,0,1-28.211-100.432ZM-39.732-107.4v3.942a1.09,1.09,0,0,0,1.088,1.088h10.432a1.09,1.09,0,0,0,1.088-1.088V-107.4Z" transform="translate(41.667 109.333)"/>
        </g>
        <g id="g2257" transform="translate(3.87 3.87)">
          <path id="path2259" d="M-150.863-520.871H-161.7a.967.967,0,0,1-.967-.967V-561.7a.967.967,0,0,1,.967-.967h7.127a.967.967,0,0,1,.967.967.967.967,0,0,1-.967.967h-6.16v37.925h9.868a.967.967,0,0,1,.967.967A.967.967,0,0,1-150.863-520.871Z" transform="translate(162.666 562.665)"/>
        </g>
        <g id="g2261" transform="translate(22.445 29.121)">
          <path id="path2263" d="M-150.863,3.21H-161.7a.967.967,0,0,1-.967-.967.967.967,0,0,1,.967-.967h9.868V-12.366a.967.967,0,0,1,.967-.967.967.967,0,0,1,.967.967V2.243A.967.967,0,0,1-150.863,3.21Z" transform="translate(162.666 13.333)"/>
        </g>
        <g id="g2265" transform="translate(26.154 3.87)">
          <path id="path2267" d="M-5.239,7.446a.967.967,0,0,1-.967-.967V-11.4h-6.16a.967.967,0,0,1-.967-.967.967.967,0,0,1,.967-.967h7.127a.967.967,0,0,1,.967.967V6.478A.967.967,0,0,1-5.239,7.446Z" transform="translate(13.333 13.333)"/>
        </g>
        <g id="g2269" transform="translate(19.543 44.697)">
          <path id="path2271"/>
        </g>
        <g id="g2273" transform="translate(29.959 13.123)">
          <path id="path2275" d="M-37.117-154.468-25.782-165.8a2.559,2.559,0,0,1,3.619,0h0a2.559,2.559,0,0,1,0,3.619L-33.5-150.849l-6.523,2.9Z" transform="translate(40.021 166.553)" fill="#ffc15a"/>
        </g>
        <g id="g2277" transform="translate(29.959 25.208)">
          <path id="path2279" d="M-83.369-46.252l-3.619-3.619-2.9,6.523Z" transform="translate(89.892 49.871)" fill="#98a1b3"/>
        </g>
        <g id="g2281" transform="translate(42.955 13.123)">
          <path id="path2283" d="M-46.252-71.729l1.244-1.244a2.559,2.559,0,0,0,0-3.619,2.559,2.559,0,0,0-3.619,0l-1.244,1.244Z" transform="translate(49.871 77.341)" fill="#ff6977"/>
        </g>
        <g id="g2285" transform="translate(28.992 12.156)">
          <path id="path2287" d="M-208.788-102.682a.967.967,0,0,1-.684-.283.967.967,0,0,1-.2-1.078l2.9-6.523a.968.968,0,0,1,.2-.291l11.336-11.336a3.5,3.5,0,0,1,2.493-1.033,3.5,3.5,0,0,1,2.493,1.033,3.53,3.53,0,0,1,0,4.987l-11.336,11.336a.968.968,0,0,1-.291.2l-6.523,2.9A.966.966,0,0,1-208.788-102.682Zm3.715-6.933-1.806,4.056,4.056-1.806,11.209-11.209a1.593,1.593,0,0,0,0-2.25,1.581,1.581,0,0,0-1.125-.466,1.581,1.581,0,0,0-1.125.466Z" transform="translate(209.756 123.225)"/>
        </g>
        <g id="g2289" transform="translate(31.982 24.327)">
          <path id="path2291" d="M-54.805-53.838a.964.964,0,0,1-.684-.283l-3.32-3.32a.967.967,0,0,1,0-1.368.967.967,0,0,1,1.368,0l3.32,3.32a.967.967,0,0,1,0,1.368A.964.964,0,0,1-54.805-53.838Z" transform="translate(59.093 59.093)"/>
        </g>
        <g id="g2293" transform="translate(41.987 14.149)">
          <path id="path2295" d="M-58.618-57.65a.964.964,0,0,1-.684-.283l-3.619-3.619a.967.967,0,0,1,0-1.368.967.967,0,0,1,1.368,0l3.619,3.619a.967.967,0,0,1,0,1.368A.964.964,0,0,1-58.618-57.65Z" transform="translate(63.204 63.204)"/>
        </g>
        <path id="path2297" d="M136.858-503.14h-6.192v-6.192h6.192Z" transform="translate(-121.185 521.909)" fill="#cbe558"/>
        <path id="path2299" d="M136.858-356.474h-6.192v-6.192h6.192Z" transform="translate(-121.185 385.885)" fill="#cbe558"/>
        <path id="path2301" d="M136.858-209.808h-6.192V-216h6.192Z" transform="translate(-121.185 249.861)" fill="#ff6977"/>
        <path id="path2303" d="M124.492-514.539H118.3a.967.967,0,0,1-.967-.967V-521.7a.967.967,0,0,1,.967-.968h6.192a.967.967,0,0,1,.967.968v6.192A.967.967,0,0,1,124.492-514.539Zm-5.224-1.935h4.257v-4.257h-4.257Z" transform="translate(-108.819 534.275)"/>
        <path id="path2305" d="M124.492-367.872H118.3a.967.967,0,0,1-.967-.967v-6.192A.967.967,0,0,1,118.3-376h6.192a.967.967,0,0,1,.967.967v6.192A.967.967,0,0,1,124.492-367.872Zm-5.224-1.935h4.257v-4.257h-4.257Z" transform="translate(-108.819 398.251)"/>
        <path id="path2307" d="M124.492-221.206H118.3a.967.967,0,0,1-.967-.967v-6.192a.967.967,0,0,1,.967-.967h6.192a.967.967,0,0,1,.967.967v6.192A.967.967,0,0,1,124.492-221.206Zm-5.224-1.935h4.257V-227.4h-4.257Z" transform="translate(-108.819 262.227)"/>
        <g id="g2309" transform="translate(20.162 12.522)">
          <path id="path2311" d="M-10.213-37.563a.967.967,0,0,1-.684-.283L-13.05-40a.967.967,0,0,1,0-1.368.967.967,0,0,1,1.368,0l1.468,1.468,3.684-3.684a.967.967,0,0,1,1.368,0,.967.967,0,0,1,0,1.368l-4.368,4.368A.967.967,0,0,1-10.213-37.563Z" transform="translate(13.333 43.865)"/>
        </g>
        <g id="g2313" transform="translate(20.162 23.164)">
          <path id="path2315" d="M-10.213-37.563a.967.967,0,0,1-.684-.283L-13.05-40a.967.967,0,0,1,0-1.368.967.967,0,0,1,1.368,0l1.468,1.468,3.684-3.684a.967.967,0,0,1,1.368,0,.967.967,0,0,1,0,1.368l-4.368,4.368A.967.967,0,0,1-10.213-37.563Z" transform="translate(13.333 43.865)"/>
        </g>
        <g id="g2317" transform="translate(21.238 33.806)">
          <path id="path2319" d="M-12.366-67.225a.964.964,0,0,1-.684-.283.967.967,0,0,1,0-1.368l4.368-4.368a.967.967,0,0,1,1.368,0,.967.967,0,0,1,0,1.368l-4.368,4.368A.964.964,0,0,1-12.366-67.225Z" transform="translate(13.333 73.528)"/>
        </g>
        <g id="g2321" transform="translate(21.238 33.806)">
          <path id="path2323" d="M-8-7.031a.964.964,0,0,1-.684-.283l-4.368-4.368a.967.967,0,0,1,0-1.368.967.967,0,0,1,1.368,0l4.368,4.368a.967.967,0,0,1,0,1.368A.964.964,0,0,1-8-7.031Z" transform="translate(13.333 13.333)"/>
        </g>
      </g>
    </g>
  </g>
</svg>
