<svg xmlns="http://www.w3.org/2000/svg" xmlns:xlink="http://www.w3.org/1999/xlink" width="77" height="77" viewBox="0 0 77 77">
  <defs>
    <clipPath id="clip-path">
      <path id="path3732" d="M0-682.665H47.5v47.5H0Z" transform="translate(0 682.665)"/>
    </clipPath>
  </defs>
  <g id="Group_1111815" data-name="Group 1111815" transform="translate(-1073 -8437)">
    <g id="Group_1111456" data-name="Group 1111456" transform="translate(52.27 5344)">
      <g id="Group_1098742" data-name="Group 1098742" transform="translate(1020.73 3093)">
        <rect id="Rectangle_400898" data-name="Rectangle 400898" width="77" height="77" rx="38.5" transform="translate(0 0)" fill="#ccda2d"/>
        <rect id="Rectangle_400907" data-name="Rectangle 400907" width="77" height="77" rx="38.5" transform="translate(0 0)" fill="none"/>
      </g>
    </g>
    <g id="g3726" transform="translate(1088 9134.665)">
      <g id="g3728" transform="translate(0 -682.665)">
        <g id="g3730" clip-path="url(#clip-path)">
          <g id="g3736" transform="translate(9.781 0.696)">
            <path id="path3738" d="M-394.774-573.5H-422.66a1.636,1.636,0,0,1-1.636-1.636V-614.75a1.636,1.636,0,0,1,1.636-1.636h27.886a1.636,1.636,0,0,1,1.636,1.636v39.616a1.636,1.636,0,0,1-1.636,1.636" transform="translate(424.296 616.386)" fill="#3c87d0"/>
          </g>
          <g id="g3740" transform="translate(6.56 3.916)">
            <path id="path3742" d="M-394.774-573.5H-422.66a1.636,1.636,0,0,1-1.636-1.636V-614.75a1.636,1.636,0,0,1,1.636-1.636h27.886a1.636,1.636,0,0,1,1.636,1.636v39.616a1.636,1.636,0,0,1-1.636,1.636" transform="translate(424.296 616.386)" fill="#c8effe"/>
          </g>
          <g id="g3744" transform="translate(32.663 3.916)">
            <path id="path3746" d="M-45.731,0h-3.42a1.636,1.636,0,0,1,1.636,1.636V41.252a1.636,1.636,0,0,1-1.636,1.636h3.42a1.636,1.636,0,0,0,1.636-1.636V1.636A1.636,1.636,0,0,0-45.731,0" transform="translate(49.151)" fill="#a8d3d8"/>
          </g>
          <g id="g3748" transform="translate(24.009 10.052)">
            <path id="path3750" d="M-128.946-17.309h-9a.647.647,0,0,1-.647-.647.647.647,0,0,1,.647-.647h9a.647.647,0,0,1,.647.647.647.647,0,0,1-.647.647" transform="translate(138.589 18.604)" fill="#3e5959"/>
          </g>
          <g id="g3752" transform="translate(24.009 13.08)">
            <path id="path3754" d="M-128.946-17.308h-9a.647.647,0,0,1-.647-.647.647.647,0,0,1,.647-.647h9a.647.647,0,0,1,.647.647.647.647,0,0,1-.647.647" transform="translate(138.589 18.603)" fill="#3e5959"/>
          </g>
          <g id="g3756" transform="translate(24.009 16.107)">
            <path id="path3758" d="M-128.946-17.309h-9a.647.647,0,0,1-.647-.647.647.647,0,0,1,.647-.647h9a.647.647,0,0,1,.647.647.647.647,0,0,1-.647.647" transform="translate(138.589 18.604)" fill="#3e5959"/>
          </g>
          <g id="g3760" transform="translate(24.643 33.004)">
            <path id="path3762" d="M-120.479-17.308h-8.363a.647.647,0,0,1-.647-.647.647.647,0,0,1,.647-.647h8.363a.647.647,0,0,1,.647.647.647.647,0,0,1-.647.647" transform="translate(129.489 18.603)" fill="#3e5959"/>
          </g>
          <g id="g3764" transform="translate(9.98 26.689)">
            <path id="path3766" d="M-128.946-17.309h-9a.647.647,0,0,1-.647-.647.647.647,0,0,1,.647-.647h9a.647.647,0,0,1,.647.647.647.647,0,0,1-.647.647" transform="translate(138.589 18.604)" fill="#3e5959"/>
          </g>
          <g id="g3768" transform="translate(9.98 23.661)">
            <path id="path3770" d="M-128.946-17.308h-9a.647.647,0,0,1-.647-.647.647.647,0,0,1,.647-.647h9a.647.647,0,0,1,.647.647.647.647,0,0,1-.647.647" transform="translate(138.589 18.603)" fill="#3e5959"/>
          </g>
          <g id="g3772" transform="translate(15.992 7.44)">
            <path id="path3774" d="M0,0V6.012H6.012A6.012,6.012,0,0,0,0,0" fill="#ee6161"/>
          </g>
          <g id="g3776" transform="translate(9.981 7.44)">
            <path id="path3778" d="M-80.389,0A6.012,6.012,0,0,0-86.4,6.012a6.012,6.012,0,0,0,6.012,6.012,6.012,6.012,0,0,0,6.012-6.012h-6.012Z" transform="translate(86.401)" fill="#fea95c"/>
          </g>
          <g id="g3780" transform="translate(22.629 22.284)">
            <path id="path3782" d="M-150.288-94.621H-161.1a.432.432,0,0,1-.431-.431v-6.213a.431.431,0,0,1,.431-.431h10.808a.431.431,0,0,1,.431.431v6.213a.432.432,0,0,1-.431.431" transform="translate(161.528 101.697)" fill="#ee6161"/>
          </g>
          <g id="g3784" transform="translate(9.98 31.875)">
            <path id="path3786" d="M-31.05-137.746h-1.891a.431.431,0,0,1-.431-.431v-9.438a.431.431,0,0,1,.431-.431h1.891a.432.432,0,0,1,.431.431v9.438a.432.432,0,0,1-.431.431" transform="translate(33.372 148.048)" fill="#fe7701"/>
          </g>
          <g id="g3788" transform="translate(15.117 34.352)">
            <path id="path3790" d="M-31.05-104.632H-32.94a.432.432,0,0,1-.431-.431v-6.962a.431.431,0,0,1,.431-.431h1.891a.431.431,0,0,1,.431.431v6.962a.432.432,0,0,1-.431.431" transform="translate(33.372 112.457)" fill="#fe9738"/>
          </g>
          <g id="g3792" transform="translate(20.254 37.437)">
            <path id="path3794" d="M-31.051-63.375h-1.891a.432.432,0,0,1-.431-.431v-3.877a.431.431,0,0,1,.431-.431h1.891a.431.431,0,0,1,.431.431v3.877a.432.432,0,0,1-.431.431" transform="translate(33.373 68.115)" fill="#fea95c"/>
          </g>
          <g id="g3796" transform="translate(24.643 36.184)">
            <path id="path3798" d="M-120.479-17.308h-8.363a.647.647,0,0,1-.647-.647.647.647,0,0,1,.647-.647h8.363a.647.647,0,0,1,.647.647.647.647,0,0,1-.647.647" transform="translate(129.489 18.603)" fill="#3e5959"/>
          </g>
          <g id="g3800" transform="translate(24.643 39.364)">
            <path id="path3802" d="M-120.479-17.308h-8.363a.647.647,0,0,1-.647-.647.647.647,0,0,1,.647-.647h8.363a.647.647,0,0,1,.647.647.647.647,0,0,1-.647.647" transform="translate(129.489 18.603)" fill="#3e5959"/>
          </g>
          <g id="g3804" transform="translate(24.009 10.052)">
            <path id="path3806" d="M-8.655-17.309h9a.647.647,0,0,0,.647-.647A.647.647,0,0,0,.341-18.6h-9a.647.647,0,0,0-.647.647.647.647,0,0,0,.647.647" transform="translate(9.303 18.604)"/>
          </g>
          <g id="g3808" transform="translate(24.009 13.08)">
            <path id="path3810" d="M0-8.655a.647.647,0,0,0,.647.647h9a.647.647,0,0,0,.647-.647A.647.647,0,0,0,9.643-9.3h-9A.647.647,0,0,0,0-8.655" transform="translate(0 9.303)"/>
          </g>
          <g id="g3812" transform="translate(24.009 16.107)">
            <path id="path3814" d="M-8.655-17.309h9a.647.647,0,0,0,.647-.647A.647.647,0,0,0,.341-18.6h-9a.647.647,0,0,0-.647.647.647.647,0,0,0,.647.647" transform="translate(9.303 18.604)"/>
          </g>
          <g id="g3816" transform="translate(24.643 33.004)">
            <path id="path3818" d="M-129.133-8.654a.647.647,0,0,0-.647-.647h-8.363a.647.647,0,0,0-.647.647.647.647,0,0,0,.647.647h8.363a.647.647,0,0,0,.647-.647" transform="translate(138.79 9.301)"/>
          </g>
          <g id="g3820" transform="translate(9.98 26.689)">
            <path id="path3822" d="M-137.6-8.654a.647.647,0,0,0-.647-.647h-9a.647.647,0,0,0-.647.647.647.647,0,0,0,.647.647h9a.647.647,0,0,0,.647-.647" transform="translate(147.89 9.301)"/>
          </g>
          <g id="g3824" transform="translate(9.98 23.661)">
            <path id="path3826" d="M-8.655-17.308h9a.647.647,0,0,0,.647-.647A.647.647,0,0,0,.341-18.6h-9a.647.647,0,0,0-.647.647.647.647,0,0,0,.647.647" transform="translate(9.303 18.603)"/>
          </g>
          <g id="g3828" transform="translate(9.285 6.744)">
            <path id="path3830" d="M-99-80.389v-4.575a5.328,5.328,0,0,1,4.575,4.575Zm-.7,6.012a5.322,5.322,0,0,1-5.316-5.316,5.324,5.324,0,0,1,4.62-5.271v5.271a.7.7,0,0,0,.7.7h5.271a5.324,5.324,0,0,1-5.271,4.62m0-12.024a6.715,6.715,0,0,0-6.708,6.708,6.715,6.715,0,0,0,6.708,6.708,6.715,6.715,0,0,0,6.708-6.708A6.715,6.715,0,0,0-99.693-86.4" transform="translate(106.401 86.401)"/>
          </g>
          <path id="path3832" d="M316.613-371h10.279v5.685H316.613Zm-1.392-.264v6.213a1.128,1.128,0,0,0,1.127,1.127h10.808a1.129,1.129,0,0,0,1.127-1.127v-6.213a1.128,1.128,0,0,0-1.127-1.127H316.349a1.128,1.128,0,0,0-1.127,1.127" transform="translate(-293.289 393.985)"/>
          <path id="path3834" d="M134.829-233.165h1.362v8.91h-1.362Zm-1.392,9.174a1.128,1.128,0,0,0,1.127,1.127h1.891a1.129,1.129,0,0,0,1.127-1.127v-9.438a1.129,1.129,0,0,0-1.127-1.127h-1.891a1.128,1.128,0,0,0-1.127,1.127Z" transform="translate(-124.152 265.736)"/>
          <path id="path3836" d="M210.017-191.141h-1.362v-6.433h1.362Zm-1.626-7.825a1.128,1.128,0,0,0-1.127,1.127v6.962a1.129,1.129,0,0,0,1.127,1.127h1.891a1.129,1.129,0,0,0,1.127-1.127v-6.962a1.129,1.129,0,0,0-1.127-1.127Z" transform="translate(-192.842 232.622)"/>
          <path id="path3838" d="M282.482-153.233h1.362v3.348h-1.362Zm-.264,4.74h1.891a1.129,1.129,0,0,0,1.127-1.127V-153.5a1.129,1.129,0,0,0-1.127-1.127h-1.891a1.129,1.129,0,0,0-1.127,1.127v3.877a1.129,1.129,0,0,0,1.127,1.127" transform="translate(-261.532 191.366)"/>
          <g id="g3840" transform="translate(24.643 36.184)">
            <path id="path3842" d="M-120.479,0h-8.363a.647.647,0,0,0-.647.647.647.647,0,0,0,.647.647h8.363a.647.647,0,0,0,.647-.647A.647.647,0,0,0-120.479,0" transform="translate(129.489)"/>
          </g>
          <g id="g3844" transform="translate(24.643 39.364)">
            <path id="path3846" d="M-120.479,0h-8.363a.647.647,0,0,0-.647.647.647.647,0,0,0,.647.647h8.363a.647.647,0,0,0,.647-.647A.647.647,0,0,0-120.479,0" transform="translate(129.489)"/>
          </g>
          <g id="g3848" transform="translate(5.865 0)">
            <path id="path3850" d="M-469.017-115.358a.7.7,0,0,0,.7-.7v-5.6a2.335,2.335,0,0,0-2.332-2.332H-498.54a2.335,2.335,0,0,0-2.332,2.332v.888h-.888a2.335,2.335,0,0,0-2.332,2.332v29.81a.7.7,0,0,0,.7.7.7.7,0,0,0,.7-.7v-29.81a.942.942,0,0,1,.941-.941h27.886a.942.942,0,0,1,.941.941v39.616a.942.942,0,0,1-.941.941H-501.76a.942.942,0,0,1-.941-.941v-6.559a.7.7,0,0,0-.7-.7.7.7,0,0,0-.7.7v6.559a2.335,2.335,0,0,0,2.332,2.332h27.886a2.335,2.335,0,0,0,2.332-2.332v-.888h.888a2.335,2.335,0,0,0,2.332-2.332v-30.77a.7.7,0,0,0-.7-.7.7.7,0,0,0-.7.7v30.77a.942.942,0,0,1-.941.941h-.888v-37.336a2.335,2.335,0,0,0-2.332-2.332H-499.48v-.888a.942.942,0,0,1,.941-.941h27.886a.942.942,0,0,1,.941.941v5.6a.7.7,0,0,0,.7.7" transform="translate(504.092 123.985)"/>
          </g>
        </g>
      </g>
    </g>
  </g>
</svg>
