<svg xmlns="http://www.w3.org/2000/svg" xmlns:xlink="http://www.w3.org/1999/xlink" width="77" height="77" viewBox="0 0 77 77">
  <defs>
    <clipPath id="clip-path">
      <path id="path6876" d="M0-682.665H42.443v42.443H0Z" transform="translate(0 682.665)"/>
    </clipPath>
  </defs>
  <g id="Group_1111394" data-name="Group 1111394" transform="translate(9509 7911.309)">
    <g id="Group_1111259" data-name="Group 1111259" transform="translate(-10529.73 -11004.309)">
      <g id="Group_1098742" data-name="Group 1098742" transform="translate(1020.73 3093)">
        <rect id="Rectangle_400898" data-name="Rectangle 400898" width="77" height="77" rx="38.5" transform="translate(0 0)" fill="#ccda2d"/>
        <rect id="Rectangle_400907" data-name="Rectangle 400907" width="77" height="77" rx="38.5" transform="translate(0 0)" fill="none"/>
      </g>
    </g>
    <g id="g6870" transform="translate(-9491.722 -7211.365)">
      <g id="g6872" transform="translate(0 -682.665)">
        <g id="g6874" clip-path="url(#clip-path)">
          <g id="g6880" transform="translate(6.741 1.082)">
            <path id="path6882" d="M-24.7,0a1.642,1.642,0,0,0-1.638,1.638V5.132h20V1.638A1.644,1.644,0,0,0-7.986,0Z" transform="translate(26.343 0)" fill="#ccf5fc" fill-rule="evenodd"/>
          </g>
          <g id="g6884" transform="translate(0.829 6.214)">
            <path id="path6886" d="M-89.178,0-95.09,6.932h20.833L-69.182,0Z" transform="translate(95.09)" fill="#66e0f7" fill-rule="evenodd"/>
          </g>
          <g id="g6888" transform="translate(21.662 6.214)">
            <path id="path6890" d="M-76.562,0l-5.076,6.932h10.149Z" transform="translate(81.637)" fill="#fff" fill-rule="evenodd"/>
          </g>
          <g id="g6892" transform="translate(0.829 13.146)">
            <path id="path6894" d="M0,0V11.406a2.083,2.083,0,1,0,4.166,0V10.071a2.083,2.083,0,1,1,4.166,0v1.459a2.084,2.084,0,1,0,4.168,0V8.236a2.083,2.083,0,1,1,4.166,0v4.427a2.083,2.083,0,0,0,4.166,0V0Z" fill="#fff" fill-rule="evenodd"/>
          </g>
          <g id="g6896" transform="translate(26.402 28.08)">
            <path id="path6898" d="M0-6.592l.738,8.3.4,4.54H13.488L14.63-6.592a4.061,4.061,0,0,0-3.659,0,4.042,4.042,0,0,1-3.656,0,4.033,4.033,0,0,0-1.828-.437,4.036,4.036,0,0,0-1.831.437A4.042,4.042,0,0,1,0-6.592" transform="translate(0 7.029)" fill="#fff" fill-rule="evenodd"/>
          </g>
          <g id="g6900" transform="translate(25.821 21.977)">
            <path id="path6902" d="M-90.349,0h-5.99l.58,6.54a4.042,4.042,0,0,0,3.656,0,4.034,4.034,0,0,1,1.83-.437,4.032,4.032,0,0,1,1.828.437,4.042,4.042,0,0,0,3.656,0,4.062,4.062,0,0,1,3.659,0L-80.545,0Z" transform="translate(96.338)" fill="#ccf5fc" fill-rule="evenodd"/>
          </g>
          <g id="g6904" transform="translate(21.662 13.146)">
            <path id="path6906" d="M0,0V23.675H5.477l-.738-8.3-.58-6.54h5.99V0Z" transform="translate(0 0)" fill="#66e0f7" fill-rule="evenodd"/>
          </g>
          <path id="path6908" d="M34.167-90.426H13.333v4.54H34.167Z" transform="translate(-12.504 127.248)" fill="#ccf5fc" fill-rule="evenodd"/>
          <g id="g6910" transform="translate(21.662 36.821)">
            <path id="path6912" d="M0,0V4.54H5.882L5.477,0Z" fill="#ccf5fc" fill-rule="evenodd"/>
          </g>
          <g id="g6914" transform="translate(0.829 19.298)">
            <path id="path6916" d="M-62.843-79.257a2.091,2.091,0,0,1-2.082,2.084,2.09,2.09,0,0,1-2.084-2.084v12.269h20.833V-78a2.089,2.089,0,0,1-2.082,2.082A2.089,2.089,0,0,1-50.342-78v-4.427a2.092,2.092,0,0,0-2.084-2.084,2.091,2.091,0,0,0-2.082,2.084v3.295a2.092,2.092,0,0,1-2.084,2.084,2.09,2.09,0,0,1-2.084-2.084v-1.459a2.091,2.091,0,0,0-2.082-2.084,2.092,2.092,0,0,0-2.084,2.084Z" transform="translate(67.009 84.512)" fill="#66e0f7" fill-rule="evenodd"/>
          </g>
          <g id="g6918" transform="translate(20.826 5.378)">
            <path id="path6920" d="M-2.466-116.343a.835.835,0,0,1-.676-.342l-4.4-6.01-4.4,6.01a.836.836,0,0,1-1.169.181.836.836,0,0,1-.181-1.169l5.076-6.932a.836.836,0,0,1,.675-.342h0a.836.836,0,0,1,.675.342l5.073,6.932a.836.836,0,0,1-.181,1.169A.833.833,0,0,1-2.466-116.343Z" transform="translate(13.452 124.948)"/>
          </g>
          <g id="g6922" transform="translate(5.905 0.246)">
            <path id="path6924" d="M7.382-89.191h-20a.836.836,0,0,1-.836-.836v-3.494A2.477,2.477,0,0,1-10.977-96H5.742a2.478,2.478,0,0,1,2.476,2.474v3.494A.836.836,0,0,1,7.382-89.191Zm-19.161-1.673H6.546v-2.658a.8.8,0,0,0-.8-.8H-10.977a.8.8,0,0,0-.8.8Z" transform="translate(13.451 95.996)"/>
          </g>
          <g id="g6926" transform="translate(-0.007 5.378)">
            <path id="path6928" d="M-12.615-116.343a.833.833,0,0,1-.542-.2.836.836,0,0,1-.094-1.179l5.912-6.932a.836.836,0,0,1,1.179-.094.836.836,0,0,1,.094,1.179l-5.912,6.932A.834.834,0,0,1-12.615-116.343Z" transform="translate(13.451 124.948)"/>
          </g>
          <g id="g6930" transform="translate(20.826 12.31)">
            <path id="path6932" d="M-12.614,16.437a.836.836,0,0,1-.836-.836V-12.614a.836.836,0,0,1,.836-.836.836.836,0,0,1,.836.836V15.6A.836.836,0,0,1-12.614,16.437Z" transform="translate(13.451 13.451)"/>
          </g>
          <g id="g6934" transform="translate(-0.007 18.462)">
            <path id="path6936" d="M6.137-72.955a2.923,2.923,0,0,1-2.92-2.918V-80.3a1.249,1.249,0,0,0-1.248-1.248A1.248,1.248,0,0,0,.723-80.3v3.295A2.924,2.924,0,0,1-2.2-74.085a2.924,2.924,0,0,1-2.92-2.921v-1.459a1.248,1.248,0,0,0-1.246-1.248,1.249,1.249,0,0,0-1.248,1.248v1.335A2.923,2.923,0,0,1-10.53-74.21a2.924,2.924,0,0,1-2.921-2.921v-.917a.836.836,0,0,1,.836-.836.836.836,0,0,1,.836.836v.917a1.249,1.249,0,0,0,1.248,1.248A1.248,1.248,0,0,0-9.284-77.13v-1.335a2.924,2.924,0,0,1,2.921-2.921,2.923,2.923,0,0,1,2.918,2.921v1.459A1.249,1.249,0,0,0-2.2-75.758,1.249,1.249,0,0,0-.95-77.006V-80.3a2.923,2.923,0,0,1,2.918-2.921A2.924,2.924,0,0,1,4.889-80.3v4.427a1.248,1.248,0,0,0,1.248,1.246,1.247,1.247,0,0,0,1.246-1.246v-2.848a.836.836,0,0,1,.836-.836.836.836,0,0,1,.836.836v2.848A2.921,2.921,0,0,1,6.137-72.955Z" transform="translate(13.451 83.221)"/>
          </g>
          <g id="g6938" transform="translate(24.985 21.141)">
            <path id="path6940" d="M-12.614-13.451H3.179a.836.836,0,0,1,.617.272.836.836,0,0,1,.216.639L2.287,6.844a.836.836,0,0,1-.833.762H-10.892a.836.836,0,0,1-.833-.762L-13.447-12.54a.836.836,0,0,1,.216-.639A.836.836,0,0,1-12.614-13.451ZM2.265-11.778H-11.7l1.574,17.711H.689Z" transform="translate(13.451 13.451)"/>
          </g>
          <g id="g6942" transform="translate(-0.007 35.985)">
            <path id="path6944" d="M-233.33-11.778h-6.695a.836.836,0,0,1-.836-.836.836.836,0,0,1,.836-.836h6.695a.836.836,0,0,1,.836.836A.836.836,0,0,1-233.33-11.778Z" transform="translate(240.861 13.451)"/>
          </g>
          <g id="g6946" transform="translate(-0.007 12.31)">
            <path id="path6948" d="M-415.585-437.373H-442.3a.836.836,0,0,1-.836-.836v-28.215a.836.836,0,0,1,.836-.836h30.982a.836.836,0,0,1,.836.836v8.831a.836.836,0,0,1-.836.836.836.836,0,0,1-.836-.836v-7.994h-29.31v26.542h25.879a.836.836,0,0,1,.836.836A.836.836,0,0,1-415.585-437.373Z" transform="translate(443.136 467.26)"/>
          </g>
          <g id="g6950" transform="translate(25.565 27.243)">
            <path id="path6952" d="M-3.473-17.935a4.88,4.88,0,0,1-2.207-.526,3.182,3.182,0,0,0-1.45-.347,3.188,3.188,0,0,0-1.453.347,4.894,4.894,0,0,1-4.412,0,.836.836,0,0,1-.368-1.124.836.836,0,0,1,1.124-.368,3.216,3.216,0,0,0,2.9,0A4.846,4.846,0,0,1-7.13-20.48a4.84,4.84,0,0,1,2.206.527,3.217,3.217,0,0,0,2.9,0,4.917,4.917,0,0,1,4.414,0,.836.836,0,0,1,.369,1.123.836.836,0,0,1-1.123.369,3.237,3.237,0,0,0-2.905,0A4.874,4.874,0,0,1-3.473-17.935Z" transform="translate(13.454 20.48)"/>
          </g>
          <g id="g6954" transform="translate(10.409 35.985)">
            <path id="path6956" d="M-12.686-11.778h0a.836.836,0,0,1-.836-.836.836.836,0,0,1,.836-.836.838.838,0,0,1,.839.836A.834.834,0,0,1-12.686-11.778Z" transform="translate(13.527 13.451)"/>
          </g>
        </g>
      </g>
    </g>
  </g>
</svg>
