<svg xmlns="http://www.w3.org/2000/svg" width="85" height="86" viewBox="0 0 85 86">
  <g id="Group_1111373" data-name="Group 1111373" transform="translate(-180.051 -632)">
    <rect id="Rectangle_404071" data-name="Rectangle 404071" width="85" height="86" rx="8" transform="translate(180.051 632)" fill="#9eceb6"/>
    <g id="_011---Completed-Task-List" data-name="011---Completed-Task-List" transform="translate(196.051 646)">
      <path id="Path" d="M41,29.3V8.83a2.006,2.006,0,0,0-.59-1.42L34.59,1.59A2.006,2.006,0,0,0,33.17,1H4A3,3,0,0,0,1,4V47a3,3,0,0,0,3,3H30.25Z" fill="#d0d3da"/>
      <rect id="Rectangle" width="10" height="10" rx="2" transform="translate(6 7)" fill="#85c056"/>
      <rect id="Rectangle-2" data-name="Rectangle" width="10" height="10" rx="2" transform="translate(6 21)" fill="#85c056"/>
      <rect id="Rectangle-3" data-name="Rectangle" width="10" height="10" rx="2" transform="translate(6 35)" fill="#85c056"/>
      <circle id="Oval" cx="15" cy="15" r="15" transform="translate(29 29)" fill="#85c056"/>
      <path id="Path-2" data-name="Path" d="M40.82,8H37a3,3,0,0,1-3-3V1.18a2.017,2.017,0,0,1,.59.41l5.82,5.82A2.017,2.017,0,0,1,40.82,8Z" fill="#8e95a0"/>
      <g id="Group_1111372" data-name="Group 1111372">
        <path id="Shape" d="M44,28a15.9,15.9,0,0,0-2,.139V8.83a3,3,0,0,0-.254-1.2c-.01-.024-.025-.044-.036-.066a3.011,3.011,0,0,0-.593-.861L35.3.883A3.011,3.011,0,0,0,34.436.29c-.022-.011-.042-.026-.066-.036A3,3,0,0,0,33.17,0H4A4,4,0,0,0,0,4V47a4,4,0,0,0,4,4H26a1,1,0,0,0,0-2H4a2,2,0,0,1-2-2V4A2,2,0,0,1,4,2H33V5a4,4,0,0,0,4,4h3V28.527A15.991,15.991,0,1,0,53.6,56.8a1,1,0,1,0-1.2-1.6,14,14,0,1,1,2.8-2.8,1,1,0,1,0,1.6,1.2A16,16,0,0,0,44,28ZM37,7a2,2,0,0,1-2-2V3.414L38.586,7Z" fill="#373737"/>
        <path id="Shape-2" data-name="Shape" d="M19.707,5.293a1,1,0,0,0-1.414,0L16.385,7.2A2.985,2.985,0,0,0,14,6H8A3,3,0,0,0,5,9v6a3,3,0,0,0,3,3h6a3,3,0,0,0,3-3V9.414l2.707-2.707a1,1,0,0,0,0-1.414ZM15,15a1,1,0,0,1-1,1H8a1,1,0,0,1-1-1V9A1,1,0,0,1,8,8h6a.994.994,0,0,1,.93.656L12,11.586l-1.293-1.293a1,1,0,0,0-1.414,1.414l2,2a1,1,0,0,0,1.414,0L15,11.414Z" fill="#373737"/>
        <path id="Shape-3" data-name="Shape" d="M19.707,19.293a1,1,0,0,0-1.414,0L16.385,21.2A2.985,2.985,0,0,0,14,20H8a3,3,0,0,0-3,3v6a3,3,0,0,0,3,3h6a3,3,0,0,0,3-3V23.414l2.707-2.707a1,1,0,0,0,0-1.414ZM15,29a1,1,0,0,1-1,1H8a1,1,0,0,1-1-1V23a1,1,0,0,1,1-1h6a.994.994,0,0,1,.93.656L12,25.586l-1.293-1.293a1,1,0,0,0-1.414,1.414l2,2a1,1,0,0,0,1.414,0L15,25.414Z" fill="#373737"/>
        <path id="Shape-4" data-name="Shape" d="M18.293,33.293,16.385,35.2A2.985,2.985,0,0,0,14,34H8a3,3,0,0,0-3,3v6a3,3,0,0,0,3,3h6a3,3,0,0,0,3-3V37.414l2.707-2.707a1,1,0,0,0-1.414-1.414ZM15,43a1,1,0,0,1-1,1H8a1,1,0,0,1-1-1V37a1,1,0,0,1,1-1h6a.994.994,0,0,1,.93.656L12,39.586l-1.293-1.293a1,1,0,0,0-1.414,1.414l2,2a1,1,0,0,0,1.414,0L15,39.414Z" fill="#373737"/>
        <path id="Path-3" data-name="Path" d="M49.159,36.459,40.83,49.416l-2.123-2.123a1,1,0,0,0-1.414,1.414l3,3A1,1,0,0,0,41,52a.942.942,0,0,0,.106-.006,1,1,0,0,0,.735-.453l9-14a1,1,0,0,0-1.682-1.082Z" fill="#373737"/>
        <path id="Path-4" data-name="Path" d="M23,10h7a1,1,0,0,0,0-2H23a1,1,0,0,0,0,2Z" fill="#373737"/>
        <path id="Path-5" data-name="Path" d="M23,15h6a1,1,0,0,0,0-2H23a1,1,0,0,0,0,2Z" fill="#373737"/>
        <path id="Path-6" data-name="Path" d="M23,24H36a1,1,0,0,0,0-2H23a1,1,0,0,0,0,2Z" fill="#373737"/>
        <path id="Path-7" data-name="Path" d="M23,29h6a1,1,0,0,0,0-2H23a1,1,0,0,0,0,2Z" fill="#373737"/>
        <path id="Path-8" data-name="Path" d="M27,37a1,1,0,0,0-1-1H23a1,1,0,0,0,0,2h3A1,1,0,0,0,27,37Z" fill="#373737"/>
        <path id="Path-9" data-name="Path" d="M23,41a1,1,0,0,0,0,2h2a1,1,0,0,0,0-2Z" fill="#373737"/>
      </g>
    </g>
  </g>
</svg>
