<svg xmlns="http://www.w3.org/2000/svg" width="77" height="77" viewBox="0 0 77 77">
  <g id="Group_1112053" data-name="Group 1112053" transform="translate(-333.051 -5014)">
    <g id="Group_1112050" data-name="Group 1112050" transform="translate(-439 1340)">
      <g id="Group_1111213" data-name="Group 1111213" transform="translate(-248.68 581)">
        <g id="Group_1098742" data-name="Group 1098742" transform="translate(1020.73 3093)">
          <rect id="Rectangle_400898" data-name="Rectangle 400898" width="77" height="77" rx="38.5" transform="translate(0 0)" fill="#ccda2d"/>
          <rect id="Rectangle_400907" data-name="Rectangle 400907" width="77" height="77" rx="38.5" transform="translate(0 0)" fill="none"/>
        </g>
      </g>
    </g>
    <g id="obediente" transform="translate(331.973 5026)">
      <g id="Group_1112053-2" data-name="Group 1112053" transform="translate(25.238 0.753)">
        <path id="Path_901287" data-name="Path 901287" d="M148.776,7.5h-31.96a.5.5,0,0,0-.5.5V21.914h3.291a2.459,2.459,0,0,1,.172,4.913v3.051h0a1,1,0,0,1,.851.991V37.1a1,1,0,0,1-.851.991h0V41.14a2.459,2.459,0,0,1-.172,4.913h-3.291v4.118h6.926a1,1,0,0,1,1,1v2h.765a1,1,0,0,1,1,1v3.2h23.266V8A.5.5,0,0,0,148.776,7.5Z" transform="translate(-116.315 -7.5)" fill="#fff3de"/>
      </g>
      <g id="Group_1112054" data-name="Group 1112054" transform="translate(25.238 0.753)">
        <path id="Path_901288" data-name="Path 901288" d="M119.606,21.914l.09,0V8a.5.5,0,0,1,.5-.5h-3.381a.5.5,0,0,0-.5.5V21.914Z" transform="translate(-116.315 -7.5)" fill="#ffe5c2"/>
        <path id="Path_901289" data-name="Path 901289" d="M119.606,391.629h-3.291v4.118H119.7v-4.121Z" transform="translate(-116.315 -353.076)" fill="#ffe5c2"/>
      </g>
      <g id="Group_1112072" data-name="Group 1112072" transform="translate(15.831 15.167)">
        <g id="Group_1112055" data-name="Group 1112055" transform="translate(13.721 10.353)">
          <path id="Path_901290" data-name="Path 901290" d="M159.3,254.29h4.646v3.432H159.3Z" transform="translate(-159.296 -254.29)" fill="#883f2e"/>
          <path id="Path_901291" data-name="Path 901291" d="M237.5,254.29h6.635v3.432H237.5Z" transform="translate(-229.653 -254.29)" fill="#883f2e"/>
        </g>
        <g id="Group_1112056" data-name="Group 1112056" transform="translate(13.721 12.131)">
          <path id="Path_901292" data-name="Path 901292" d="M159.3,272h4.646v1.655H159.3Z" transform="translate(-159.296 -272)" fill="#6d3326"/>
          <path id="Path_901293" data-name="Path 901293" d="M237.5,272h6.635v1.655H237.5Z" transform="translate(-229.653 -272)" fill="#6d3326"/>
        </g>
        <g id="Group_1112057" data-name="Group 1112057" transform="translate(28.205 9.552)">
          <path id="Path_901294" data-name="Path 901294" d="M322.263,248.827a2.517,2.517,0,0,1-2.517,2.517H304.188a.572.572,0,0,1-.572-.572v-3.89a.572.572,0,0,1,.572-.572h15.558A2.517,2.517,0,0,1,322.263,248.827Z" transform="translate(-303.616 -246.31)" fill="#ca6e59"/>
        </g>
        <g id="Group_1112058" data-name="Group 1112058" transform="translate(28.205 9.552)">
          <path id="Path_901295" data-name="Path 901295" d="M307.036,249.189a.572.572,0,0,1-.572-.572V246.31h-2.277a.572.572,0,0,0-.572.572v3.89a.572.572,0,0,0,.572.572h15.558a2.517,2.517,0,0,0,2.49-2.154Z" transform="translate(-303.616 -246.31)" fill="#bb5d4c"/>
        </g>
        <g id="Group_1112059" data-name="Group 1112059" transform="translate(18.366 9.552)">
          <path id="Path_901296" data-name="Path 901296" d="M208.788,246.813v4.03a.5.5,0,0,1-.5.5h-2.2a.5.5,0,0,1-.5-.5v-4.03a.5.5,0,0,1,.5-.5h2.2A.5.5,0,0,1,208.788,246.813Z" transform="translate(-205.585 -246.311)" fill="#ca6e59"/>
        </g>
        <g id="Group_1112060" data-name="Group 1112060" transform="translate(18.366 9.552)">
          <path id="Path_901297" data-name="Path 901297" d="M207.04,250.843v-4.03a.5.5,0,0,1,.5-.5h-1.455a.5.5,0,0,0-.5.5v4.03a.5.5,0,0,0,.5.5h1.455A.5.5,0,0,1,207.04,250.843Z" transform="translate(-205.585 -246.311)" fill="#bb5d4c"/>
        </g>
        <g id="Group_1112061" data-name="Group 1112061" transform="translate(6.235 4.913)">
          <path id="Path_901298" data-name="Path 901298" d="M91.185,312.31h-6.33a1.008,1.008,0,0,1-.153-.013v3.051c.057,0,.114-.007.172-.007h6.292c.058,0,.115,0,.172.007V312.3A1,1,0,0,1,91.185,312.31Z" transform="translate(-84.703 -301.035)" fill="#883f2e"/>
          <path id="Path_901299" data-name="Path 901299" d="M84.856,312.31a1.008,1.008,0,0,1-.153-.013v3.051c.057,0,.114-.007.172-.007H87.23V312.31H84.856Z" transform="translate(-84.703 -301.035)" fill="#6d3326"/>
          <path id="Path_901300" data-name="Path 901300" d="M84.856,203.117h6.33a1.008,1.008,0,0,1,.153.013v-3.051c-.057,0-.114.007-.172.007H84.875c-.058,0-.115,0-.172-.007v3.051A1.008,1.008,0,0,1,84.856,203.117Z" transform="translate(-84.703 -200.079)" fill="#883f2e"/>
          <path id="Path_901301" data-name="Path 901301" d="M84.856,203.116H87.23v-3.032H84.875c-.058,0-.115,0-.172-.007v3.051A1.02,1.02,0,0,1,84.856,203.116Z" transform="translate(-84.703 -200.078)" fill="#6d3326"/>
        </g>
        <g id="Group_1112062" data-name="Group 1112062" transform="translate(5.384 7.951)">
          <path id="Path_901302" data-name="Path 901302" d="M84.562,231.356v6.23a1,1,0,0,1-1,1h-6.33a1,1,0,0,1-1-1v-6.23a1,1,0,0,1,1-1h6.33A1,1,0,0,1,84.562,231.356Z" transform="translate(-76.225 -230.352)" fill="#ca6e59"/>
        </g>
        <g id="Group_1112063" data-name="Group 1112063" transform="translate(5.384 7.951)">
          <path id="Path_901303" data-name="Path 901303" d="M79.615,237.585v-6.23a1,1,0,0,1,1-1h-3.39a1,1,0,0,0-1,1v6.23a1,1,0,0,0,1,1h3.39A1,1,0,0,1,79.615,237.585Z" transform="translate(-76.225 -230.352)" fill="#bb5d4c"/>
        </g>
        <g id="Group_1112066" data-name="Group 1112066" transform="translate(0 28.257)">
          <path id="Path_901304" data-name="Path 901304" d="M55.758,435.788a1.027,1.027,0,0,0,.005-.1v-2a1,1,0,0,0-1-1H41.2a1,1,0,0,0-1,1v2a1.027,1.027,0,0,0,.005.1Z" transform="translate(-38.427 -432.685)" fill="#ca6e59"/>
          <path id="Path_901305" data-name="Path 901305" d="M43.593,435.788a1.026,1.026,0,0,1-.005-.1v-2a1,1,0,0,1,1-1H41.2a1,1,0,0,0-1,1v2a1.027,1.027,0,0,0,.005.1Z" transform="translate(-38.427 -432.685)" fill="#bb5d4c"/>
          <g id="Group_1112064" data-name="Group 1112064" transform="translate(0 3.003)">
            <path id="Path_901306" data-name="Path 901306" d="M41.683,466.812H23.08a.5.5,0,0,1-.5-.5v-2.7a1,1,0,0,1,1-1h17.1a1,1,0,0,1,1,1Z" transform="translate(-22.578 -462.608)" fill="#883f2e"/>
          </g>
          <g id="Group_1112065" data-name="Group 1112065" transform="translate(0 3.003)">
            <path id="Path_901307" data-name="Path 901307" d="M25.932,466.31v-2.7a1,1,0,0,1,1-1H23.582a1,1,0,0,0-1,1v2.7a.5.5,0,0,0,.5.5h3.354A.5.5,0,0,1,25.932,466.31Z" transform="translate(-22.578 -462.608)" fill="#6d3326"/>
          </g>
        </g>
        <g id="Group_1112071" data-name="Group 1112071" transform="translate(3.947)">
          <g id="Group_1112067" data-name="Group 1112067" transform="translate(0 19.219)">
            <path id="Path_901308" data-name="Path 901308" d="M73.116,345.093a2.46,2.46,0,0,1-2.46,2.46H64.365a2.46,2.46,0,1,1,0-4.919h6.292A2.46,2.46,0,0,1,73.116,345.093Z" transform="translate(-61.905 -342.633)" fill="#ca6e59"/>
          </g>
          <g id="Group_1112068" data-name="Group 1112068" transform="translate(0 19.219)">
            <path id="Path_901309" data-name="Path 901309" d="M65.255,345.093a2.46,2.46,0,0,1,2.46-2.46h-3.35a2.46,2.46,0,1,0,0,4.919h3.35A2.46,2.46,0,0,1,65.255,345.093Z" transform="translate(-61.905 -342.633)" fill="#bb5d4c"/>
          </g>
          <g id="Group_1112069" data-name="Group 1112069" transform="translate(0)">
            <path id="Path_901310" data-name="Path 901310" d="M73.116,153.588a2.46,2.46,0,0,1-2.46,2.46H64.365a2.46,2.46,0,1,1,0-4.919h6.292A2.46,2.46,0,0,1,73.116,153.588Z" transform="translate(-61.905 -151.128)" fill="#ca6e59"/>
          </g>
          <g id="Group_1112070" data-name="Group 1112070">
            <path id="Path_901311" data-name="Path 901311" d="M65.255,153.588a2.46,2.46,0,0,1,2.46-2.46h-3.35a2.46,2.46,0,1,0,0,4.919h3.35A2.46,2.46,0,0,1,65.255,153.588Z" transform="translate(-61.905 -151.128)" fill="#bb5d4c"/>
          </g>
        </g>
      </g>
      <g id="Group_1112075" data-name="Group 1112075" transform="translate(34.678 5.43)">
        <g id="Group_1112073" data-name="Group 1112073">
          <circle id="Ellipse_11712" data-name="Ellipse 11712" cx="7.042" cy="7.042" r="7.042" fill="#4fc123"/>
        </g>
        <g id="Group_1112074" data-name="Group 1112074" transform="translate(0)">
          <path id="Path_901312" data-name="Path 901312" d="M213.747,61.149a7.044,7.044,0,0,1,5.355-6.837,7.042,7.042,0,1,0,0,13.674A7.044,7.044,0,0,1,213.747,61.149Z" transform="translate(-210.372 -54.107)" fill="#47a920"/>
        </g>
      </g>
      <g id="Group_1112076" data-name="Group 1112076" transform="translate(15.078 0)">
        <path id="Path_901313" data-name="Path 901313" d="M60.166,23.967H58.954V10.939a.753.753,0,0,0-.776-.752.774.774,0,0,0-.73.784v13H52.4a.753.753,0,0,0,0,1.505h7.762a1.764,1.764,0,1,1,0,3.528H44.788V25.472h4.1a.753.753,0,0,0,0-1.505H44.607a1.326,1.326,0,0,0-1.216.8H38.067a1.255,1.255,0,0,0-1.168-.8H34.7a1.256,1.256,0,0,0-1.168.8H30.3v-.646a1.755,1.755,0,0,0-.851-1.5V20.7a3.212,3.212,0,0,0-.924-6.288H25.991V1.505H57.448V7.427a.753.753,0,0,0,.776.752.774.774,0,0,0,.73-.784V1.255A1.254,1.254,0,0,0,57.7,0H25.74a1.254,1.254,0,0,0-1.254,1.254v13.16H22.237a3.212,3.212,0,0,0-.924,6.288v1.917a1.755,1.755,0,0,0-.851,1.5v6.23a1.755,1.755,0,0,0,.851,1.5V33.77a3.212,3.212,0,0,0,.924,6.288h2.248v2.613H18.6a1.758,1.758,0,0,0-1.756,1.756v1.247h-.012a1.758,1.758,0,0,0-1.756,1.756v2.7a1.256,1.256,0,0,0,1.254,1.254H57.7a1.254,1.254,0,0,0,1.254-1.254V30.506h1.212a3.269,3.269,0,0,0,0-6.539ZM38.153,26.273h5.13V28.2h-5.13Zm-3.2-.8h1.7V29h-1.7Zm-4.646.8h3.14V28.2H30.3ZM20.53,17.627a1.709,1.709,0,0,1,1.707-1.707h6.292a1.707,1.707,0,1,1,0,3.414H22.237A1.709,1.709,0,0,1,20.53,17.627ZM22.218,30.6a.251.251,0,0,1-.251-.251v-6.23a.251.251,0,0,1,.251-.251h6.33a.251.251,0,0,1,.251.251v6.23a.251.251,0,0,1-.251.251Zm5.73,1.505v1.526h-5.13V32.107Zm-5.13-9.742V20.839h5.13v1.526Zm-.581,16.188a1.707,1.707,0,0,1,0-3.414h6.292a1.707,1.707,0,1,1,0,3.414ZM34.183,49.878h-17.6V47.43a.251.251,0,0,1,.251-.251h4.659a.753.753,0,1,0,0-1.505H18.351V44.427a.251.251,0,0,1,.251-.251H32.164a.251.251,0,0,1,.251.251v1.247H25.006a.753.753,0,1,0,0,1.505h8.926a.251.251,0,0,1,.251.251Zm23.266,0H35.688V47.43a1.758,1.758,0,0,0-1.756-1.756H33.92V44.427a1.758,1.758,0,0,0-1.756-1.756H25.991V40.058h2.538a3.212,3.212,0,0,0,.924-6.288V31.853a1.755,1.755,0,0,0,.851-1.5V29.7h3.226a1.255,1.255,0,0,0,1.168.8h2.2a1.256,1.256,0,0,0,1.168-.8h5.325a1.326,1.326,0,0,0,1.216.8H57.448V49.878Z" transform="translate(-15.078 0)"/>
        <path id="Path_901314" data-name="Path 901314" d="M202.872,54.4a7.795,7.795,0,1,0,7.795-7.795A7.8,7.8,0,0,0,202.872,54.4Zm14.084,0a6.289,6.289,0,1,1-6.289-6.289A6.3,6.3,0,0,1,216.956,54.4Z" transform="translate(-184.025 -41.93)"/>
        <path id="Path_901315" data-name="Path 901315" d="M247.628,102.653a.753.753,0,0,0-1.065,1.064l2.315,2.315a.753.753,0,0,0,1.065,0l3.589-3.589a.753.753,0,1,0-1.065-1.064l-3.056,3.056Z" transform="translate(-223.134 -91.007)"/>
        <path id="Path_901316" data-name="Path 901316" d="M243.681,327.822a.753.753,0,0,0,.753.753h13.842a.753.753,0,1,0,0-1.505H244.434A.753.753,0,0,0,243.681,327.822Z" transform="translate(-220.739 -294.245)"/>
        <path id="Path_901317" data-name="Path 901317" d="M318.389,363.546h-7.137a.753.753,0,0,0,0,1.505h7.137a.753.753,0,0,0,0-1.505Z" transform="translate(-280.852 -327.061)"/>
        <path id="Path_901318" data-name="Path 901318" d="M244.434,365.051h4.1a.753.753,0,0,0,0-1.505h-4.1a.753.753,0,0,0,0,1.505Z" transform="translate(-220.739 -327.061)"/>
        <path id="Path_901319" data-name="Path 901319" d="M258.275,400.023H244.433a.753.753,0,0,0,0,1.505h13.843a.753.753,0,0,0,0-1.505Z" transform="translate(-220.738 -359.877)"/>
        <path id="Path_901320" data-name="Path 901320" d="M349.877,436.5h-3.624a.753.753,0,0,0,0,1.505h3.624a.753.753,0,1,0,0-1.505Z" transform="translate(-312.339 -392.693)"/>
        <path id="Path_901321" data-name="Path 901321" d="M252.344,436.5h-7.91a.753.753,0,1,0,0,1.505h7.91a.753.753,0,0,0,0-1.505Z" transform="translate(-220.739 -392.693)"/>
      </g>
    </g>
  </g>
</svg>
