<svg xmlns="http://www.w3.org/2000/svg" width="77" height="77" viewBox="0 0 77 77">
  <g id="Group_1111632" data-name="Group 1111632" transform="translate(-2456 2331)">
    <g id="Group_1111356" data-name="Group 1111356" transform="translate(1435.27 -5424)">
      <g id="Group_1098742" data-name="Group 1098742" transform="translate(1020.73 3093)">
        <rect id="Rectangle_400898" data-name="Rectangle 400898" width="77" height="77" rx="38.5" transform="translate(0 0)" fill="#ccda2d"/>
        <rect id="Rectangle_400907" data-name="Rectangle 400907" width="77" height="77" rx="38.5" transform="translate(0 0)" fill="none"/>
      </g>
    </g>
    <g id="Warning" transform="translate(2467.471 -2320.808)">
      <path id="Path_900318" data-name="Path 900318" d="M47.806,48.119H7.03a2.5,2.5,0,0,1-2.466-2.908,2.38,2.38,0,0,1,.3-.842L25.251,9.059a2.382,2.382,0,0,1,1.191-1.05,2.489,2.489,0,0,1,3.141,1.05L49.972,44.37a2.5,2.5,0,0,1-2.166,3.749Z" transform="translate(-0.167 -0.167)" fill="#d2d2d2"/>
      <path id="Path_900319" data-name="Path 900319" d="M45.579,47.326H7.036A2.48,2.48,0,0,1,4.57,45.252a2.38,2.38,0,0,1,.3-.842L25.258,9.1a2.382,2.382,0,0,1,1.191-1.05,2.37,2.37,0,0,1,1.683,1.191l19.58,34.577a2.374,2.374,0,0,1-2.133,3.508Z" transform="translate(-0.174 -0.207)" fill="#f6f4e6"/>
      <path id="Path_900320" data-name="Path 900320" d="M9.684,45.081,27.907,13.516a.417.417,0,0,1,.722,0L46.852,45.081a.417.417,0,0,1-.361.625H10.044a.417.417,0,0,1-.361-.625Z" transform="translate(-1.017 -1.084)" fill="#ffb433"/>
      <path id="Path_900321" data-name="Path 900321" d="M31.573,38.273a1.181,1.181,0,0,1-1.2-1.041c-.252-2.8-.813-8.393-.93-11.2a2.135,2.135,0,0,1,4.267,0c-.116,2.808-.678,8.4-.93,11.2a1.181,1.181,0,0,1-1.2,1.041Z" transform="translate(-4.322 -2.874)" fill="#f6f4e6"/>
      <circle id="Ellipse_11660" data-name="Ellipse 11660" cx="1.423" cy="1.423" r="1.423" transform="translate(25.827 38.247)" fill="#f6f4e6"/>
      <g id="Group_1111631" data-name="Group 1111631" transform="translate(3.529 6.808)">
        <path id="Path_900322" data-name="Path 900322" d="M47.639,48.787H6.862a3.332,3.332,0,0,1-2.886-5L24.364,8.475a3.332,3.332,0,0,1,5.773,0L50.525,43.788a3.332,3.332,0,0,1-2.886,5ZM25.808,9.308,5.419,44.621a1.666,1.666,0,0,0,1.443,2.5H47.639a1.666,1.666,0,0,0,1.443-2.5L28.694,9.308a1.666,1.666,0,0,0-2.886,0Z" transform="translate(-3.529 -6.808)" fill="#214252"/>
        <path id="Path_900323" data-name="Path 900323" d="M46.325,46.372H9.878A1.251,1.251,0,0,1,8.8,44.5h0L27.019,12.934a1.251,1.251,0,0,1,2.165,0L47.407,44.5a1.251,1.251,0,0,1-1.083,1.875ZM10.6,44.706h35L28.1,14.392Z" transform="translate(-4.38 -7.725)" fill="#214252"/>
        <path id="Path_900324" data-name="Path 900324" d="M29.372,37.142c-.366-3.958-.826-8.688-.932-11.24a2.968,2.968,0,0,1,5.932,0c-.107,2.574-.577,7.4-.932,11.241A2.05,2.05,0,0,1,29.372,37.142Zm2.034-12.434a1.223,1.223,0,0,0-1.3,1.125c.1,2.525.573,7.333.927,11.16.034.374.714.372.748,0,.365-3.946.823-8.655.927-11.161A1.223,1.223,0,0,0,31.406,24.708Z" transform="translate(-7.685 -9.516)" fill="#214252"/>
        <path id="Path_900325" data-name="Path 900325" d="M31.548,48.055A2.257,2.257,0,1,1,33.8,45.8,2.257,2.257,0,0,1,31.548,48.055Zm0-2.847a.59.59,0,1,0,.59.59.59.59,0,0,0-.59-.59Z" transform="translate(-7.826 -12.936)" fill="#214252"/>
      </g>
    </g>
  </g>
</svg>
