<svg xmlns="http://www.w3.org/2000/svg" width="77" height="77" viewBox="0 0 77 77">
  <g id="Group_1111587" data-name="Group 1111587" transform="translate(-600.051 -7416.279)">
    <g id="Group_1111345" data-name="Group 1111345" transform="translate(-420.679 4323.279)">
      <g id="Group_1098742" data-name="Group 1098742" transform="translate(1020.73 3093)">
        <rect id="Rectangle_400898" data-name="Rectangle 400898" width="77" height="77" rx="38.5" transform="translate(0 0)" fill="#0d8449"/>
        <rect id="Rectangle_400907" data-name="Rectangle 400907" width="77" height="77" rx="38.5" transform="translate(0 0)" fill="none"/>
      </g>
    </g>
    <g id="ordeno" transform="translate(540.805 7430.454)">
      <g id="Group_1111574" data-name="Group 1111574" transform="translate(83.9 23.573)">
        <path id="Path_900197" data-name="Path 900197" d="M136.98,248.292l-13.559-2.211-14.414,2.211h-.052c2.218,15.448,1.2,8.342,2.691,18.744l11.32,1.373,11.32-1.373Z" transform="translate(-108.955 -246.081)" fill="#cbe2ff" fill-rule="evenodd"/>
      </g>
      <g id="Group_1111575" data-name="Group 1111575" transform="translate(81.964 21.809)">
        <path id="Path_900198" data-name="Path 900198" d="M118.8,227.668H90.734a1.988,1.988,0,0,0,0,3.975H118.8a1.988,1.988,0,0,0,0-3.975Z" transform="translate(-88.746 -227.668)" fill="#9dc6fb" fill-rule="evenodd"/>
      </g>
      <g id="Group_1111576" data-name="Group 1111576" transform="translate(84.359 35.58)">
        <path id="Path_900199" data-name="Path 900199" d="M121.184,372.707A1.83,1.83,0,0,0,119,371.474a14.3,14.3,0,0,1-3.429.415,1.825,1.825,0,0,0-.288,3.628,1.673,1.673,0,0,0,.288.022,17.93,17.93,0,0,0,4.3-.521,1.826,1.826,0,0,0,1.336-2.208C121.2,372.775,121.192,372.742,121.184,372.707Z" transform="translate(-113.747 -371.42)" fill="#ffe07d" fill-rule="evenodd"/>
      </g>
      <g id="Group_1111577" data-name="Group 1111577" transform="translate(86.591 44.529)">
        <path id="Path_900200" data-name="Path 900200" d="M159.687,464.843h-22.64l.291,2.009a1.9,1.9,0,0,0,1.787,1.789H157.61a1.9,1.9,0,0,0,1.789-1.789Z" transform="translate(-137.047 -464.843)" fill="#9dc6fb" fill-rule="evenodd"/>
      </g>
      <g id="Group_1111578" data-name="Group 1111578" transform="translate(83.9 25.785)">
        <path id="Path_900201" data-name="Path 900201" d="M126.812,269.167H108.956l.337,2.352h24.18l-2.357,16.393h3.172l2.694-18.744Z" transform="translate(-108.956 -269.167)" fill="#bed8fb" fill-rule="evenodd"/>
      </g>
      <g id="Group_1111579" data-name="Group 1111579" transform="translate(103.983 44.529)">
        <path id="Path_900202" data-name="Path 900202" d="M323.85,464.843h-3.172l-.288,2.009a1.9,1.9,0,0,1-1.789,1.789h3.172a1.9,1.9,0,0,0,1.789-1.789Z" transform="translate(-318.601 -464.843)" fill="#80b4fb" fill-rule="evenodd"/>
      </g>
      <g id="Group_1111580" data-name="Group 1111580" transform="translate(108.17 21.809)">
        <path id="Path_900203" data-name="Path 900203" d="M368.149,229.656a1.992,1.992,0,0,0-1.988-1.988h-3.85a1.988,1.988,0,0,1,0,3.975h3.85A1.994,1.994,0,0,0,368.149,229.656Z" transform="translate(-362.311 -227.668)" fill="#80b4fb" fill-rule="evenodd"/>
      </g>
      <g id="Group_1111581" data-name="Group 1111581" transform="translate(84.449 35.783)">
        <path id="Path_900204" data-name="Path 900204" d="M119.817,375.874a17.944,17.944,0,0,1-3.839.516c-.155,0-.31.005-.464.005a1.724,1.724,0,0,1-.291-.024,1.778,1.778,0,0,1-.54-.177,1.837,1.837,0,0,0,1.447,1.238,1.673,1.673,0,0,0,.288.022,17.932,17.932,0,0,0,4.3-.521,1.826,1.826,0,0,0,1.336-2.208c-.008-.035-.019-.068-.027-.1a1.82,1.82,0,0,0-.915-1.083l.008.024c.011.033.019.068.027.1a1.827,1.827,0,0,1-1.333,2.21Z" transform="translate(-114.682 -373.539)" fill="#ffd064" fill-rule="evenodd"/>
      </g>
      <g id="Group_1111582" data-name="Group 1111582" transform="translate(83.321 0.719)">
        <path id="Path_900205" data-name="Path 900205" d="M130.881,7.5H104.257a13.252,13.252,0,0,0,1.07,6.218l-1.608.929a1.636,1.636,0,0,0,1.637,2.832l1.629-.94A13.328,13.328,0,0,0,109.441,19l-.94,1.627a1.636,1.636,0,1,0,2.835,1.635l.926-1.6a13.49,13.49,0,0,0,3.671,1v1.458a1.636,1.636,0,0,0,3.272,0V21.658a13.212,13.212,0,0,0,3.671-1l.926,1.6a1.636,1.636,0,1,0,2.835-1.635L125.695,19a13.259,13.259,0,0,0,2.46-2.457l1.626.94a1.636,1.636,0,1,0,1.637-2.832l-1.607-.929a13.381,13.381,0,0,0,1.07-6.218Z" transform="translate(-102.903 -7.5)" fill="#ffdfcf" fill-rule="evenodd"/>
      </g>
      <path id="Path_900206" data-name="Path 900206" d="M114.726,222.871a2.708,2.708,0,0,0-2.706-2.7h-17a.718.718,0,0,0,0,1.437h6.495a15.211,15.211,0,0,1-.335,2.536H83.952a1.268,1.268,0,1,1,0-2.536H91.7a.718.718,0,0,0,0-1.437H83.952a2.7,2.7,0,0,0-.687,5.321l1.357,9.457a2.541,2.541,0,0,0,.629,4.37l.919,6.4a2.6,2.6,0,0,0,2.5,2.407h18.486a2.61,2.61,0,0,0,2.5-2.406l2.9-20.194A2.71,2.71,0,0,0,114.726,222.871Zm-30,2.706H100.79a15.434,15.434,0,0,1-8.649,9.455,2.551,2.551,0,0,0-2.7-1.02,13.6,13.6,0,0,1-3.257.395c-.063,0-.125,0-.187.008Zm.973,10.379.015-.007a1.1,1.1,0,0,1,.468-.105,15.031,15.031,0,0,0,3.6-.437,1.107,1.107,0,0,1,.531,2.148h0a17.232,17.232,0,0,1-4.131.5,1.105,1.105,0,0,1-.483-2.1Zm21.453,10.73H88.669a1.209,1.209,0,0,1-1.076-1.173l-.171-1.189H96.3a.718.718,0,0,0,0-1.437H87.216l-.489-3.4a18.651,18.651,0,0,0,3.932-.534,2.546,2.546,0,0,0,1.935-2.552,16.822,16.822,0,0,0,9.711-10.823H111.1l-2.487,17.31H99.75a.718.718,0,0,0,0,1.437H108.4l-.171,1.188A1.214,1.214,0,0,1,107.155,246.687Zm4.866-22.546h-9.366a16.844,16.844,0,0,0,.3-2.536h9.067a1.268,1.268,0,1,1,0,2.536Z" transform="translate(0 -199.077)"/>
      <g id="Group_1111583" data-name="Group 1111583" transform="translate(94.762 0.719)">
        <path id="Path_900207" data-name="Path 900207" d="M237.806,13.718a13.382,13.382,0,0,0,1.07-6.218h-9.743a7.644,7.644,0,0,1,1.738,4.744,6.787,6.787,0,0,1-.065.942c-.494,3.641-3.829,6.718-8.466,8.173a13.634,13.634,0,0,0,1.588.3v1.458a1.636,1.636,0,0,0,3.272,0V21.658a13.213,13.213,0,0,0,3.671-1l.926,1.6a1.636,1.636,0,1,0,2.835-1.635L233.69,19a13.259,13.259,0,0,0,2.46-2.457l1.626.94a1.636,1.636,0,1,0,1.637-2.832Z" transform="translate(-222.34 -7.5)" fill="#ffcebf" fill-rule="evenodd"/>
      </g>
      <g id="Group_1111584" data-name="Group 1111584" transform="translate(82.601 0)">
        <path id="Path_900208" data-name="Path 900208" d="M110.777,18.685a2.356,2.356,0,0,1-2.353-2.353v-.838a14.181,14.181,0,0,1-2.643-.719l-.614,1.063a2.355,2.355,0,0,1-4.08-2.352l.633-1.1a14.054,14.054,0,0,1-1.7-1.7l-1.1.632a2.354,2.354,0,0,1-2.354-4.077l1.064-.615A14.064,14.064,0,0,1,96.75.669a.718.718,0,0,1,1.434.1A12.6,12.6,0,0,0,99.195,6.65a.719.719,0,0,1-.3.909l-1.608.929a.917.917,0,0,0,.918,1.588l1.63-.94a.718.718,0,0,1,.929.186,12.626,12.626,0,0,0,2.322,2.328.718.718,0,0,1,.184.929l-.94,1.626a.918.918,0,1,0,1.591.916l.926-1.6a.718.718,0,0,1,.907-.3,12.755,12.755,0,0,0,3.475.946.718.718,0,0,1,.629.713v1.458a.918.918,0,0,0,1.835,0V14.877a.718.718,0,0,1,.631-.713,12.5,12.5,0,0,0,3.472-.948.718.718,0,0,1,.909.3l.926,1.6a.918.918,0,1,0,1.59-.918l-.941-1.628a.718.718,0,0,1,.185-.93,12.554,12.554,0,0,0,2.327-2.325.718.718,0,0,1,.929-.185l1.626.94a.917.917,0,0,0,.92-1.587l-1.609-.929a.718.718,0,0,1-.3-.907A12.7,12.7,0,0,0,123.373.768a.718.718,0,0,1,1.434-.1,14.14,14.14,0,0,1-.886,5.958l1.066.616a2.354,2.354,0,0,1-2.357,4.076l-1.093-.631a14.009,14.009,0,0,1-1.7,1.7l.633,1.1a2.355,2.355,0,0,1-4.079,2.354l-.613-1.063a13.912,13.912,0,0,1-2.644.721v.834a2.357,2.357,0,0,1-2.356,2.353Z" transform="translate(-95.393 0)"/>
      </g>
      <g id="Group_1111585" data-name="Group 1111585" transform="translate(100.815 4.766)">
        <path id="Path_900209" data-name="Path 900209" d="M288.662,52.179a4.115,4.115,0,0,1-2.916-1.2.718.718,0,1,1,1.015-1.017,2.7,2.7,0,0,0,3.8,0,.718.718,0,0,1,1.015,1.017A4.115,4.115,0,0,1,288.662,52.179Z" transform="translate(-285.535 -49.748)"/>
      </g>
      <g id="Group_1111586" data-name="Group 1111586" transform="translate(90.136 6.68)">
        <path id="Path_900210" data-name="Path 900210" d="M177.177,72.166a4.112,4.112,0,0,1-2.917-1.206.718.718,0,1,1,1.016-1.016,2.691,2.691,0,0,0,3.8,0,.718.718,0,0,1,1.016,1.016A4.112,4.112,0,0,1,177.177,72.166Z" transform="translate(-174.05 -69.733)"/>
      </g>
    </g>
  </g>
</svg>
