<svg xmlns="http://www.w3.org/2000/svg" width="77" height="77" viewBox="0 0 77 77">
  <g id="Group_1111625" data-name="Group 1111625" transform="translate(-772.051 -9281.781)">
    <g id="Group_1111354" data-name="Group 1111354" transform="translate(-248.679 6188.782)">
      <g id="Group_1098742" data-name="Group 1098742" transform="translate(1020.73 3093)">
        <rect id="Rectangle_400898" data-name="Rectangle 400898" width="77" height="77" rx="38.5" transform="translate(0 0)" fill="#ccda2d"/>
        <rect id="Rectangle_400907" data-name="Rectangle 400907" width="77" height="77" rx="38.5" transform="translate(0 0)" fill="none"/>
      </g>
    </g>
    <g id="desague" transform="translate(772.93 9281.805)">
      <path id="Path_900287" data-name="Path 900287" d="M23.442,16.54H19.761a3.191,3.191,0,1,0,0,6.382H28.57a3.191,3.191,0,0,0,0-6.382H23.442Z" transform="translate(-1.175 -1.175)" fill="#d7e057"/>
      <path id="Path_900288" data-name="Path 900288" d="M27.395,22.071H18.585a3.515,3.515,0,0,1,0-7.031h3.681a.325.325,0,1,1,0,.649H18.585a2.866,2.866,0,1,0,0,5.733h8.809a2.866,2.866,0,0,0,0-5.733H25.168a.325.325,0,0,1,0-.649h2.227a3.515,3.515,0,0,1,0,7.031Z" fill="#3a312a"/>
      <path id="Path_900289" data-name="Path 900289" d="M31.79,57.718V74.465a13.419,13.419,0,0,0,26.839,0v-7.2a1.228,1.228,0,0,1,1.227-1.227H70.333c0-.058,0-.117,0-.175V57.38H59.856a9.892,9.892,0,0,0-9.88,9.88v7.2a4.766,4.766,0,0,1-9.532,0V46.04H31.79V57.718Z" transform="translate(-13.103 -24.294)" fill="#87796f"/>
      <path id="Path_900290" data-name="Path 900290" d="M44.034,87.033A13.76,13.76,0,0,1,30.29,73.289V56.542a.325.325,0,1,1,.649,0V73.289a13.095,13.095,0,1,0,26.19,0v-7.2a1.553,1.553,0,0,1,1.551-1.551H68.828v-8H58.68a9.566,9.566,0,0,0-9.556,9.556v7.2a5.09,5.09,0,1,1-10.181,0v-28.1h-8v8.333a.325.325,0,0,1-.649,0V44.865a.324.324,0,0,1,.325-.325h8.654a.324.324,0,0,1,.325.325V73.289a4.441,4.441,0,0,0,8.883,0v-7.2a10.216,10.216,0,0,1,10.2-10.2H69.153a.324.324,0,0,1,.325.325v8.478c0,.05,0,.1,0,.149a.34.34,0,0,1-.09.244.331.331,0,0,1-.233.107H58.68a.9.9,0,0,0-.9.9v7.2A13.759,13.759,0,0,1,44.034,87.033Z" transform="translate(-11.927 -23.118)" fill="#3a312a"/>
      <path id="Path_900291" data-name="Path 900291" d="M213.121,82.18a3.191,3.191,0,0,1,3.191,3.191V94.18a3.191,3.191,0,0,1-6.382,0V85.371A3.191,3.191,0,0,1,213.121,82.18Z" transform="translate(-152.704 -52.615)" fill="#d7e057"/>
      <path id="Path_900292" data-name="Path 900292" d="M211.945,96.52A3.52,3.52,0,0,1,208.43,93V84.2a3.515,3.515,0,0,1,7.031,0V93A3.52,3.52,0,0,1,211.945,96.52Zm0-15.191a2.87,2.87,0,0,0-2.866,2.866V93a2.866,2.866,0,1,0,5.733,0V84.2A2.87,2.87,0,0,0,211.945,81.329Z" transform="translate(-151.529 -51.44)" fill="#3a312a"/>
      <path id="Path_900293" data-name="Path 900293" d="M58.629,165.959v.79a13.419,13.419,0,0,1-26.839,0v-2.864a3.753,3.753,0,0,1,2.023,1l.162.156a3.776,3.776,0,0,0,5.272-.063l.065-.065a3.73,3.73,0,0,1,1.131-.779v2.62a4.766,4.766,0,1,0,9.532,0v-1.828l.013-.013a3.771,3.771,0,0,1,5.339,0A3.766,3.766,0,0,0,58,166.013,3.644,3.644,0,0,0,58.629,165.959Z" transform="translate(-13.103 -116.578)" fill="#8ac5dc"/>
      <path id="Path_900294" data-name="Path 900294" d="M44.034,179.317A13.76,13.76,0,0,1,30.29,165.573v-2.864a.324.324,0,0,1,.374-.321,4.068,4.068,0,0,1,2.2,1.081l.163.157a3.472,3.472,0,0,0,4.818-.058l.065-.065a4.048,4.048,0,0,1,1.229-.846.325.325,0,0,1,.456.3v2.62a4.441,4.441,0,1,0,8.883,0v-1.828a.324.324,0,0,1,.094-.228,4.1,4.1,0,0,1,5.812-.014,3.428,3.428,0,0,0,2.44,1.01,3.27,3.27,0,0,0,.576-.049.325.325,0,0,1,.381.32v.79a13.76,13.76,0,0,1-13.744,13.744ZM30.939,163.108v2.465a13.095,13.095,0,1,0,26.19,0v-.423q-.153.011-.307.011a4.073,4.073,0,0,1-2.9-1.2,3.446,3.446,0,0,0-4.8-.08v1.691a5.09,5.09,0,1,1-10.181,0V163.5a3.459,3.459,0,0,0-.577.466l-.065.065a4.125,4.125,0,0,1-5.725.068l-.163-.157A3.429,3.429,0,0,0,30.939,163.108Z" transform="translate(-11.927 -115.402)" fill="#3a312a"/>
      <path id="Path_900295" data-name="Path 900295" d="M67.7,199.982a1.174,1.174,0,1,1-1.174-1.174A1.174,1.174,0,0,1,67.7,199.982Z" transform="translate(-39.404 -144.012)" fill="#f4e0c4"/>
      <path id="Path_900296" data-name="Path 900296" d="M65.35,200.306a1.5,1.5,0,1,1,1.5-1.5A1.5,1.5,0,0,1,65.35,200.306Zm0-2.349a.85.85,0,1,0,.85.85A.851.851,0,0,0,65.35,197.957Z" transform="translate(-38.228 -142.837)" fill="#3a312a"/>
      <path id="Path_900297" data-name="Path 900297" d="M87.577,220.858a1.174,1.174,0,1,1-1.174-1.174A1.174,1.174,0,0,1,87.577,220.858Z" transform="translate(-54.98 -160.372)" fill="#f4e0c4"/>
      <path id="Path_900298" data-name="Path 900298" d="M85.227,221.182a1.5,1.5,0,1,1,1.5-1.5A1.5,1.5,0,0,1,85.227,221.182Zm0-2.349a.85.85,0,1,0,.85.85A.851.851,0,0,0,85.227,218.833Z" transform="translate(-53.805 -159.196)" fill="#3a312a"/>
      <path id="Path_900299" data-name="Path 900299" d="M136.221,191.214a1.174,1.174,0,1,1-1.174-1.174A1.174,1.174,0,0,1,136.221,191.214Z" transform="translate(-93.101 -137.141)" fill="#f4e0c4"/>
      <path id="Path_900300" data-name="Path 900300" d="M133.872,191.538a1.5,1.5,0,1,1,1.5-1.5A1.5,1.5,0,0,1,133.872,191.538Zm0-2.349a.85.85,0,1,0,.85.85A.851.851,0,0,0,133.872,189.189Z" transform="translate(-91.926 -135.965)" fill="#3a312a"/>
      <path id="Path_900301" data-name="Path 900301" d="M45.221,186.214a1.174,1.174,0,1,1-1.174-1.174A1.174,1.174,0,0,1,45.221,186.214Z" transform="translate(-21.787 -133.223)" fill="#f4e0c4"/>
      <path id="Path_900302" data-name="Path 900302" d="M42.872,186.538a1.5,1.5,0,1,1,1.5-1.5A1.5,1.5,0,0,1,42.872,186.538Zm0-2.349a.85.85,0,1,0,.85.85A.851.851,0,0,0,42.872,184.189Z" transform="translate(-20.613 -132.047)" fill="#3a312a"/>
      <path id="Path_900303" data-name="Path 900303" d="M110.793,201.838a1.174,1.174,0,1,1-1.174-1.174A1.174,1.174,0,0,1,110.793,201.838Z" transform="translate(-73.174 -145.467)" fill="#f4e0c4"/>
      <path id="Path_900304" data-name="Path 900304" d="M108.443,202.162a1.5,1.5,0,1,1,1.5-1.5A1.5,1.5,0,0,1,108.443,202.162Zm0-2.349a.85.85,0,1,0,.85.85A.851.851,0,0,0,108.443,199.813Z" transform="translate(-71.998 -144.291)" fill="#3a312a"/>
      <path id="Path_900305" data-name="Path 900305" d="M200.069,188.065s.738,2.739,2.862,2.866c0,0-2.836.979-2.883,3.072,0,0-.558-2.936-2.8-3.042A3.353,3.353,0,0,0,200.069,188.065Z" transform="translate(-142.768 -135.593)" fill="#d4d853"/>
      <path id="Path_900306" data-name="Path 900306" d="M198.872,193.152a.325.325,0,0,1-.319-.263c0-.027-.54-2.686-2.494-2.778a.325.325,0,0,1-.034-.645,3,3,0,0,0,2.544-2.6.325.325,0,0,1,.637-.058c.007.025.705,2.515,2.568,2.627a.325.325,0,0,1,.087.631c-.026.009-2.623.933-2.665,2.773a.324.324,0,0,1-.3.316h-.027Zm-1.676-3.4a3.782,3.782,0,0,1,1.642,1.921,4.614,4.614,0,0,1,1.937-1.823,3.964,3.964,0,0,1-1.8-1.887A3.484,3.484,0,0,1,197.2,189.749Z" transform="translate(-141.592 -134.418)" fill="#3a312a"/>
      <path id="Path_900307" data-name="Path 900307" d="M181.349,205.045s.522,1.937,2.024,2.027c0,0-2.006.693-2.039,2.173,0,0-.395-2.077-1.979-2.151a2.372,2.372,0,0,0,1.994-2.049Z" transform="translate(-128.744 -148.9)" fill="#d4d853"/>
      <path id="Path_900308" data-name="Path 900308" d="M180.157,208.395a.325.325,0,0,1-.319-.264c0-.018-.369-1.826-1.675-1.888a.324.324,0,0,1-.034-.645,2.033,2.033,0,0,0,1.719-1.755.324.324,0,0,1,.636-.058c0,.017.482,1.713,1.73,1.788a.324.324,0,0,1,.086.631c-.017.006-1.793.639-1.821,1.874a.325.325,0,0,1-.3.316h-.027Zm-.978-2.494a2.773,2.773,0,0,1,.962,1.142,3.393,3.393,0,0,1,1.161-1.076,2.9,2.9,0,0,1-1.07-1.13A2.591,2.591,0,0,1,179.179,205.9Z" transform="translate(-127.568 -147.725)" fill="#3a312a"/>
      <path id="Path_900309" data-name="Path 900309" d="M181.349,178.387s.522,1.937,2.024,2.027c0,0-2.006.693-2.039,2.173,0,0-.395-2.077-1.979-2.151a2.373,2.373,0,0,0,1.994-2.049Z" transform="translate(-128.744 -128.009)" fill="#d4d853"/>
      <path id="Path_900310" data-name="Path 900310" d="M180.157,181.737a.325.325,0,0,1-.319-.264c0-.018-.369-1.826-1.675-1.888a.325.325,0,0,1-.034-.645,2.033,2.033,0,0,0,1.719-1.755.325.325,0,0,1,.637-.058c.008.029.487,1.713,1.73,1.788a.324.324,0,0,1,.086.631c-.018.006-1.793.639-1.821,1.874a.325.325,0,0,1-.3.316h-.027Zm-.978-2.494a2.773,2.773,0,0,1,.962,1.142,3.394,3.394,0,0,1,1.161-1.076,2.9,2.9,0,0,1-1.07-1.131A2.589,2.589,0,0,1,179.179,179.243Z" transform="translate(-127.568 -126.834)" fill="#3a312a"/>
      <path id="Path_900311" data-name="Path 900311" d="M221.669,86.546v8.809a2.868,2.868,0,0,1-4.489,2.365,2.99,2.99,0,0,0,.4-.337,2.849,2.849,0,0,0,.839-2.027V86.546a2.872,2.872,0,0,0-1.244-2.365,2.868,2.868,0,0,1,4.489,2.365Z" transform="translate(-158.386 -53.791)" fill="#b9c239"/>
    </g>
  </g>
</svg>
