<svg xmlns="http://www.w3.org/2000/svg" width="77" height="77" viewBox="0 0 77 77">
  <g id="Group_1111731" data-name="Group 1111731" transform="translate(-8029 10692)">
    <g id="Group_1111401" data-name="Group 1111401" transform="translate(7008.27 -13785)">
      <g id="Group_1098742" data-name="Group 1098742" transform="translate(1020.73 3093)">
        <rect id="Rectangle_400898" data-name="Rectangle 400898" width="77" height="77" rx="38.5" transform="translate(0 0)" fill="#ccda2d"/>
        <rect id="Rectangle_400907" data-name="Rectangle 400907" width="77" height="77" rx="38.5" transform="translate(0 0)" fill="none"/>
      </g>
    </g>
    <g id="vaca_1_" data-name="vaca (1)" transform="translate(8043.993 -10694.172)">
      <g id="Group_1111728" data-name="Group 1111728" transform="translate(0.625 19.86)">
        <path id="Path_900553" data-name="Path 900553" d="M16.558,109.125a2.6,2.6,0,0,0-3.277-1.639,4.685,4.685,0,0,0-2.751,1.775,5.124,5.124,0,0,1-3.06,1.778.915.915,0,0,0-.575,1.39c1.064,1.652,3.3,4.161,6.213,2.216C17.248,111.885,16.558,109.125,16.558,109.125Z" transform="translate(-6.748 -99.993)" fill="#5f7080"/>
        <path id="Path_900554" data-name="Path 900554" d="M309.3,382.572h4.83v-7.59h-6.21Z" transform="translate(-280.325 -343.063)" fill="#ffe0b7"/>
        <path id="Path_900555" data-name="Path 900555" d="M118.369,362.98v8.69h-4.83l-.779-4.9s1.672-1.077-.6-3.786Z" transform="translate(-102.499 -332.161)" fill="#ffe0b7"/>
        <path id="Path_900556" data-name="Path 900556" d="M118.369,362.98v3.251a14.779,14.779,0,0,1-5.609.534l-.6-3.786Z" transform="translate(-102.499 -332.161)" fill="#ffd9a0"/>
        <path id="Path_900557" data-name="Path 900557" d="M144.7,184.23h-4.251l-.867-4.768a.917.917,0,0,0-.9-.752H127.453a.8.8,0,0,0-.8.8v4.717h-4.83l-.867-4.768a.916.916,0,0,0-.9-.752h-1.488a6.4,6.4,0,0,1-6.4-6.4V156.63c5.292,4.741,16.556.052,16.556.052l0-.052h3.025l13.179,12.843a52.538,52.538,0,0,0,.265,14.186A.493.493,0,0,1,144.7,184.23Z" transform="translate(-102.499 -144.721)" fill="#ffebce"/>
        <path id="Path_900558" data-name="Path 900558" d="M128.716,156.63c0,.017,0,.035,0,.052,0,.055,0,.11,0,.165,0,.028,0,.056,0,.084,0,.059-.01.116-.017.174l-.008.071c-.012.078-.025.155-.04.232a.046.046,0,0,0,0,.011c-.017.08-.038.159-.06.238-.007.026-.016.052-.024.078-.016.052-.032.1-.05.155l-.036.094q-.026.067-.055.135c-.015.033-.028.066-.044.1s-.042.086-.064.128l-.049.094c-.029.052-.06.1-.092.154-.011.018-.021.038-.033.056q-.282.437-.581.83a11.157,11.157,0,0,1-.826.977c-.123.128-.247.253-.372.372.024.108.047.217.068.327a12.315,12.315,0,0,1,.206,1.656c.013.238.02.477.02.717v7.59c0,.019,0,.039,0,.059s0,.057,0,.084a5.526,5.526,0,0,1-.926,3.047c-1.489,2.287-4.467,3.6-7.078,4.4h-.081a6.4,6.4,0,0,1-6.4-6.4V156.63Z" transform="translate(-102.499 -144.721)" fill="#ffe0b7"/>
        <path id="Path_900559" data-name="Path 900559" d="M155.274,109.125a2.6,2.6,0,0,1,3.277-1.639,4.685,4.685,0,0,1,2.751,1.775,5.124,5.124,0,0,0,3.06,1.778.915.915,0,0,1,.575,1.39c-1.064,1.652-3.3,4.161-6.213,2.216C154.584,111.885,155.274,109.125,155.274,109.125Z" transform="translate(-141.624 -99.993)" fill="#6b7d8e"/>
        <path id="Path_900560" data-name="Path 900560" d="M72.3,66.167a7.04,7.04,0,0,0-5.105-6.412.916.916,0,0,0-1.027,1.4c1.469,2.11,3.341,5.528,1.993,7.775C66.09,72.377,72.3,66.167,72.3,66.167Z" transform="translate(-60.57 -56.682)" fill="#fad989"/>
        <path id="Path_900561" data-name="Path 900561" d="M134.748,66.167a7.04,7.04,0,0,1,5.105-6.412.916.916,0,0,1,1.027,1.4c-1.469,2.11-3.341,5.528-1.993,7.775C140.958,72.377,134.748,66.167,134.748,66.167Z" transform="translate(-123.018 -56.682)" fill="#fce3a0"/>
        <path id="Path_900562" data-name="Path 900562" d="M216.934,217.812a3.45,3.45,0,1,1-5.2-3.165,2.76,2.76,0,1,1,3.82-2.619c0,.023,0,.047,0,.071s0,.068,0,.1a2.722,2.722,0,0,1-.071.531,2.992,2.992,0,0,0,.071,1.6,3.359,3.359,0,0,0,.6,1.11A3.434,3.434,0,0,1,216.934,217.812Z" transform="translate(-191.409 -192.6)" fill="#6b7d8e"/>
        <path id="Path_900563" data-name="Path 900563" d="M215.558,212.028V219c0,.019,0,.039,0,.059s0,.057,0,.084a5.389,5.389,0,0,1-.172,1.354,3.447,3.447,0,1,1-3.647-5.848,2.76,2.76,0,1,1,3.82-2.619Z" transform="translate(-191.409 -192.6)" fill="#5f7080"/>
        <path id="Path_900564" data-name="Path 900564" d="M81.472,136.17v7.591H71.39c-12.842-8.393-.815-17.171-.815-17.171a9.665,9.665,0,0,1,10.9,9.581Z" transform="translate(-60.083 -117.361)" fill="#fff4e5"/>
        <path id="Path_900565" data-name="Path 900565" d="M38.576,144.541H29.339v-7.59a9.662,9.662,0,0,1,8.423-9.581C36.9,131.7,36.12,138.837,38.576,144.541Z" transform="translate(-27.269 -118.142)" fill="#ffebce"/>
        <path id="Path_900566" data-name="Path 900566" d="M114.092,260.174c0,2.553-3.622,4.1-6.429,4.921h0c-9.994-2.525-5.08-10.52-5.08-10.52.6-.044,1.217-.065,1.85-.065C109.767,254.51,114.092,256,114.092,260.174Z" transform="translate(-92.702 -233.631)" fill="#eaaa83"/>
        <path id="Path_900567" data-name="Path 900567" d="M42.228,265.74a11.691,11.691,0,0,1-6.46,0c-2.808-.818-6.429-2.368-6.429-4.921,0-3.677,3.36-5.272,7.81-5.6C37.648,259.152,39.07,263.023,42.228,265.74Z" transform="translate(-27.269 -234.276)" fill="#e4996d"/>
        <path id="Path_900568" data-name="Path 900568" d="M166.246,295.609h0a1.38,1.38,0,0,0,1.38-1.38v-.69a1.38,1.38,0,0,0-1.38-1.38h0a1.38,1.38,0,0,0-1.38,1.38v.69A1.38,1.38,0,0,0,166.246,295.609Z" transform="translate(-150.376 -267.83)" fill="#6b7d8e"/>
        <path id="Path_900569" data-name="Path 900569" d="M68.363,295.609h0a1.38,1.38,0,0,0,1.38-1.38v-.69a1.38,1.38,0,0,0-1.38-1.38h0a1.38,1.38,0,0,0-1.38,1.38v.69A1.38,1.38,0,0,0,68.363,295.609Z" transform="translate(-61.463 -267.83)" fill="#5f7080"/>
        <path id="Path_900570" data-name="Path 900570" d="M406.966,453.727h3.585a1.375,1.375,0,0,0,1.375-1.375v-1.617a.458.458,0,0,0-.458-.458H408.1a2.291,2.291,0,0,0-2.291,2.291h0A1.159,1.159,0,0,0,406.966,453.727Z" transform="translate(-369.237 -411.458)" fill="#6b7d8e"/>
        <path id="Path_900571" data-name="Path 900571" d="M309.084,453.727h3.676a1.375,1.375,0,0,0,1.375-1.375v-1.617a.458.458,0,0,0-.458-.458h-3.461a2.291,2.291,0,0,0-2.291,2.291h0A1.159,1.159,0,0,0,309.084,453.727Z" transform="translate(-280.325 -411.458)" fill="#6b7d8e"/>
        <path id="Path_900572" data-name="Path 900572" d="M203.672,453.727h3.676a1.375,1.375,0,0,0,1.375-1.375v-1.617a.458.458,0,0,0-.458-.458H204.8a2.291,2.291,0,0,0-2.291,2.291h0A1.159,1.159,0,0,0,203.672,453.727Z" transform="translate(-184.573 -411.458)" fill="#6b7d8e"/>
        <path id="Path_900573" data-name="Path 900573" d="M113.319,453.727H117a1.375,1.375,0,0,0,1.375-1.375v-1.617a.458.458,0,0,0-.458-.458h-3.461a2.291,2.291,0,0,0-2.291,2.291h0A1.159,1.159,0,0,0,113.319,453.727Z" transform="translate(-102.5 -411.458)" fill="#6b7d8e"/>
        <path id="Path_900574" data-name="Path 900574" d="M338.217,166.922l-.111.73q-.139.909-.246,1.821c-.229.08-.449.148-.659.208a4.346,4.346,0,0,1-5.079-2.357,7.127,7.127,0,0,0-.828-1.329,5.7,5.7,0,0,0-3.075-1.956c-3.756-.972-3.868-4.926-3.538-7.41h3.243A10.292,10.292,0,0,1,338.217,166.922Z" transform="translate(-295.438 -144.721)" fill="#6b7d8e"/>
        <path id="Path_900575" data-name="Path 900575" d="M317.654,284.634a2.083,2.083,0,0,1,1.909,1.713l0,.02a.53.53,0,0,0,.661.436,2.761,2.761,0,1,1-1.983,3.07q-.019-.127-.026-.252a.9.9,0,0,0-.843-.855l-.024,0a2.07,2.07,0,0,1,.3-4.129Z" transform="translate(-287.164 -260.99)" fill="#6b7d8e"/>
        <path id="Path_900576" data-name="Path 900576" d="M441.229,27.873a7.8,7.8,0,0,0-2.28-1.115,1.375,1.375,0,0,0-1.762,1.762A7.8,7.8,0,0,0,438.3,30.8a2.07,2.07,0,1,0,2.927-2.927Z" transform="translate(-397.664 -26.672)" fill="#6b7d8e"/>
      </g>
      <g id="Group_1111730" data-name="Group 1111730" transform="translate(0.007 19.172)">
        <path id="Trazado_900577" data-name="Trazado 900577" d="M450.929,77.175a.687.687,0,0,1-.419-1.233c.036-.028,3.6-2.8,3.952-6.4a6.5,6.5,0,0,0-1.853-5.009.687.687,0,0,1,1.03-.911,7.819,7.819,0,0,1,2.191,6.06c-.409,4.2-4.318,7.227-4.484,7.354A.684.684,0,0,1,450.929,77.175Z" transform="translate(-408.982 -59.336)"/>
        <path id="Trazado_900578" data-name="Trazado 900578" d="M3.529,105.919a.685.685,0,0,1-.289-.064A7.724,7.724,0,0,1,.262,103a1.6,1.6,0,0,1,1.008-2.434,4.468,4.468,0,0,0,2.656-1.519,5.373,5.373,0,0,1,3.156-2.034,4.808,4.808,0,0,1,.884-.11A.687.687,0,0,1,8,98.282a3.433,3.433,0,0,0-.63.079,4,4,0,0,0-2.346,1.516,5.808,5.808,0,0,1-3.464,2.037.22.22,0,0,0-.16.134.224.224,0,0,0,.019.212,6.392,6.392,0,0,0,2.4,2.347.687.687,0,0,1-.29,1.311Z" transform="translate(-0.007 -89.784)"/>
        <path id="Trazado_900579" data-name="Trazado 900579" d="M369.624,393.963a.687.687,0,0,1-.687-.687v-5.52a.687.687,0,0,1,1.375,0v5.52A.687.687,0,0,1,369.624,393.963Z" transform="translate(-335.128 -353.354)"/>
        <path id="Línea_565" data-name="Línea 565" d="M-5.9-1.069a.687.687,0,0,1-.675-.565L-7.49-6.691a.687.687,0,0,1,.553-.8.687.687,0,0,1,.8.553l.919,5.058a.687.687,0,0,1-.553.8A.692.692,0,0,1-5.9-1.069Z" transform="translate(35.477 41.215)"/>
        <path id="Línea_566" data-name="Línea 566" d="M-5.577,1.172A.687.687,0,0,1-6.254.6L-7.491-6.7a.687.687,0,0,1,.563-.792.687.687,0,0,1,.792.563L-4.9.37a.687.687,0,0,1-.563.792A.692.692,0,0,1-5.577,1.172Z" transform="translate(17.224 38.972)"/>
        <path id="Trazado_900580" data-name="Trazado 900580" d="M173.864,393.89a.687.687,0,0,1-.687-.687v-5.528a.687.687,0,0,1,1.375,0V393.2A.687.687,0,0,1,173.864,393.89Z" transform="translate(-157.308 -353.282)"/>
        <path id="Trazado_900581" data-name="Trazado 900581" d="M125.466,365.8h-.317a.687.687,0,0,1-.217-.035.7.7,0,0,1-.443-.872.682.682,0,0,1,.731-.467h.246a.687.687,0,1,1,0,1.375Z" transform="translate(-113.05 -332.781)"/>
        <path id="Trazado_900582" data-name="Trazado 900582" d="M133.035,372.947a.687.687,0,0,1-.675-.565l-.782-4.305a.229.229,0,0,0-.225-.188h-1.376c-.113,0-.225,0-.337-.008a7.158,7.158,0,0,1-4.929-2.28.687.687,0,0,1,.984-.96l0,0a5.809,5.809,0,0,0,4.005,1.865c.091,0,.182.007.275.007h1.376a1.6,1.6,0,0,1,1.578,1.316l.782,4.306a.688.688,0,0,1-.677.81Z" transform="translate(-113.114 -332.8)"/>
        <path id="Trazado_900583" data-name="Trazado 900583" d="M275.275,165.835h-.008a.687.687,0,0,1-.679-.7,53.419,53.419,0,0,1,.359-5.561q.107-.922.249-1.845l.1-.678a9.616,9.616,0,0,0-9.6-9.554h-9.029a.687.687,0,1,1,0-1.375h9.029a10.992,10.992,0,0,1,10.979,10.979.687.687,0,0,1-.008.1l-.111.73q-.137.9-.242,1.8a52.037,52.037,0,0,0-.35,5.418A.687.687,0,0,1,275.275,165.835Z" transform="translate(-232.52 -134.494)"/>
        <path id="Trazado_900584" data-name="Trazado 900584" d="M460.739,383.49a.688.688,0,0,1-.679-.583,53.461,53.461,0,0,1-.569-5.893.687.687,0,0,1,1.373-.056,52.078,52.078,0,0,0,.554,5.741.688.688,0,0,1-.68.791Z" transform="translate(-417.384 -343.571)"/>
        <path id="Trazado_900585" data-name="Trazado 900585" d="M264.214,393.963a.687.687,0,0,1-.687-.687v-4.6a1.606,1.606,0,0,1,1.6-1.6h11.115a1.6,1.6,0,0,1,1.578,1.317l.783,4.3a.687.687,0,1,1-1.352.246l-.783-4.305a.229.229,0,0,0-.226-.188H265.131a.229.229,0,0,0-.229.229v4.6A.687.687,0,0,1,264.214,393.963Z" transform="translate(-239.378 -353.354)"/>
        <path id="Trazado_900586" data-name="Trazado 900586" d="M181.6,105.919a.687.687,0,0,1-.29-1.311,6.393,6.393,0,0,0,2.4-2.348.224.224,0,0,0,.02-.212.221.221,0,0,0-.161-.134,5.808,5.808,0,0,1-3.464-2.037,3.994,3.994,0,0,0-2.346-1.516,3.432,3.432,0,0,0-.63-.079.687.687,0,1,1,.035-1.374,4.807,4.807,0,0,1,.884.109,5.368,5.368,0,0,1,3.156,2.034,4.467,4.467,0,0,0,2.655,1.519,1.6,1.6,0,0,1,1.007,2.435,7.723,7.723,0,0,1-2.977,2.85A.685.685,0,0,1,181.6,105.919Z" transform="translate(-160.287 -89.784)"/>
        <path id="Trazado_900587" data-name="Trazado 900587" d="M62.519,57.445a.687.687,0,0,1-.682-.612,12.47,12.47,0,0,0-2.307-5.1,1.6,1.6,0,0,1,1.8-2.443,7.735,7.735,0,0,1,5.557,6.661.687.687,0,1,1-1.368.136A6.384,6.384,0,0,0,60.91,50.6a.208.208,0,0,0-.247.081.218.218,0,0,0-.006.269A13.763,13.763,0,0,1,63.2,56.682a.687.687,0,0,1-.607.759A.7.7,0,0,1,62.519,57.445Z" transform="translate(-53.81 -46.459)"/>
        <path id="Trazado_900588" data-name="Trazado 900588" d="M166.462,57.446a.694.694,0,0,1-.077,0,.687.687,0,0,1-.607-.759,13.763,13.763,0,0,1,2.545-5.733.218.218,0,0,0-.005-.269.208.208,0,0,0-.247-.081,7.718,7.718,0,0,0-1.532.677.687.687,0,0,1-.694-1.186,9.1,9.1,0,0,1,1.8-.8,1.6,1.6,0,0,1,1.8,2.443,12.47,12.47,0,0,0-2.307,5.1A.687.687,0,0,1,166.462,57.446Z" transform="translate(-150.338 -46.459)"/>
        <path id="Trazado_900589" data-name="Trazado 900589" d="M128.915,81.979q-.034,0-.069,0a.687.687,0,0,1-.616-.752,7.841,7.841,0,0,1,1.544-3.921.687.687,0,1,1,1.093.834A6.548,6.548,0,0,0,129.6,81.36.687.687,0,0,1,128.915,81.979Z" transform="translate(-116.476 -71.73)"/>
        <path id="Trazado_900590" data-name="Trazado 900590" d="M229.058,211.94a4.124,4.124,0,0,1-1.517-.287.687.687,0,0,1,.5-1.279,2.763,2.763,0,0,0,3.157-4.316,3.818,3.818,0,0,1-.812-3.3,2.087,2.087,0,0,0,.054-.475,2.072,2.072,0,0,0-2.207-2.069.707.707,0,0,1-.749-.62.669.669,0,0,1,.577-.744l.086-.008a3.418,3.418,0,0,1,2.579.927,3.456,3.456,0,0,1,1,3.3,2.456,2.456,0,0,0,.539,2.116,4.136,4.136,0,0,1-3.086,6.75Z" transform="translate(-206.294 -182.371)"/>
        <path id="Trazado_900591" data-name="Trazado 900591" d="M23.274,134.633a.687.687,0,0,1-.687-.687v-7.59a10.347,10.347,0,1,1,20.694,0v7.59H41.9l0-7.59a8.972,8.972,0,1,0-17.945,0v7.59A.687.687,0,0,1,23.274,134.633Z" transform="translate(-20.518 -107.134)"/>
        <path id="Trazado_900592" data-name="Trazado 900592" d="M32.933,256.426a12.233,12.233,0,0,1-3.423-.482c-4.53-1.32-6.925-3.25-6.925-5.581,0-4.1,3.675-6.351,10.347-6.351s10.347,2.255,10.347,6.351c0,2.332-2.395,4.262-6.925,5.581A12.233,12.233,0,0,1,32.933,256.426Zm0-11.04c-4.093,0-8.973.863-8.973,4.976,0,2.2,3.718,3.616,5.934,4.261a11.01,11.01,0,0,0,6.076,0c2.216-.646,5.935-2.057,5.935-4.261C41.906,246.249,37.026,245.386,32.933,245.386Z" transform="translate(-20.517 -223.407)"/>
        <g id="Group_1111729" data-name="Group 1111729" transform="translate(4.83 17.154)">
          <path id="Trazado_900593" data-name="Trazado 900593" d="M178.972,209a.687.687,0,0,1-.687-.687.574.574,0,0,0-1.148,0,.687.687,0,1,1-1.375,0,1.949,1.949,0,1,1,3.9,0A.687.687,0,0,1,178.972,209Z" transform="translate(-164.486 -206.365)"/>
          <path id="Trazado_900594" data-name="Trazado 900594" d="M55.927,209a.687.687,0,0,1-.687-.687.574.574,0,0,0-1.148,0,.687.687,0,1,1-1.375,0,1.949,1.949,0,0,1,3.9,0A.687.687,0,0,1,55.927,209Z" transform="translate(-52.717 -206.365)"/>
        </g>
        <path id="Trazado_900595" data-name="Trazado 900595" d="M160.183,286.484a2.07,2.07,0,0,1-2.067-2.067v-.69a2.067,2.067,0,0,1,4.135,0v.69A2.07,2.07,0,0,1,160.183,286.484Zm0-3.45a.693.693,0,0,0-.693.693v.69a.693.693,0,1,0,1.385,0v-.69A.693.693,0,0,0,160.183,283.034Z" transform="translate(-143.627 -257.605)"/>
        <path id="Trazado_900596" data-name="Trazado 900596" d="M62.3,286.484a2.07,2.07,0,0,1-2.067-2.067v-.69a2.067,2.067,0,0,1,4.135,0v.69A2.07,2.07,0,0,1,62.3,286.484Zm0-3.45a.693.693,0,0,0-.693.693v.69a.693.693,0,1,0,1.385,0v-.69A.693.693,0,0,0,62.3,283.034Z" transform="translate(-54.714 -257.605)"/>
        <path id="Trazado_900597" data-name="Trazado 900597" d="M306.7,444.6h-3.676a1.848,1.848,0,0,1-1.846-1.846,2.982,2.982,0,0,1,2.978-2.978h3.919a.687.687,0,0,1,.687.687v2.075A2.064,2.064,0,0,1,306.7,444.6Zm-2.544-3.45a1.606,1.606,0,0,0-1.6,1.6.472.472,0,0,0,.472.472H306.7a.688.688,0,0,0,.687-.687v-1.388Z" transform="translate(-273.576 -401.233)"/>
        <path id="Trazado_900598" data-name="Trazado 900598" d="M404.408,444.6h-3.676a1.848,1.848,0,0,1-1.846-1.846,2.982,2.982,0,0,1,2.978-2.978h3.461a1.147,1.147,0,0,1,1.146,1.146v1.617A2.064,2.064,0,0,1,404.408,444.6Zm-2.544-3.45a1.606,1.606,0,0,0-1.6,1.6.472.472,0,0,0,.472.472h3.676a.688.688,0,0,0,.687-.687v-1.388Z" transform="translate(-362.332 -401.233)"/>
        <path id="Trazado_900599" data-name="Trazado 900599" d="M201.286,444.6h-3.676a1.848,1.848,0,0,1-1.846-1.846,2.982,2.982,0,0,1,2.978-2.978h3.919a.687.687,0,0,1,.687.687v2.075A2.064,2.064,0,0,1,201.286,444.6Zm-2.544-3.45a1.605,1.605,0,0,0-1.6,1.6.472.472,0,0,0,.472.472h3.676a.688.688,0,0,0,.687-.687v-1.388Z" transform="translate(-177.824 -401.233)"/>
        <path id="Trazado_900600" data-name="Trazado 900600" d="M110.933,444.6h-3.676a1.848,1.848,0,0,1-1.846-1.846,2.982,2.982,0,0,1,2.978-2.978h3.919a.687.687,0,0,1,.687.687v2.075A2.064,2.064,0,0,1,110.933,444.6Zm-2.544-3.45a1.605,1.605,0,0,0-1.6,1.6.472.472,0,0,0,.472.472h3.676a.688.688,0,0,0,.687-.687v-1.388Z" transform="translate(-95.751 -401.233)"/>
        <path id="Trazado_900601" data-name="Trazado 900601" d="M329.953,160.716a5.067,5.067,0,0,1-4.547-2.907,6.468,6.468,0,0,0-.749-1.2,4.984,4.984,0,0,0-2.707-1.715c-3.2-.828-4.636-3.728-4.047-8.166a.687.687,0,1,1,1.363.181c-.344,2.589-.1,5.845,3.029,6.654a6.346,6.346,0,0,1,3.442,2.2,7.843,7.843,0,0,1,.908,1.457,3.654,3.654,0,0,0,4.271,1.992c.2-.056.4-.121.62-.2a.687.687,0,0,1,.452,1.3c-.242.084-.475.157-.7.22A4.9,4.9,0,0,1,329.953,160.716Z" transform="translate(-288.653 -134.495)"/>
        <path id="Trazado_900602" data-name="Trazado 900602" d="M311.46,274.13q.085,0,.172.005a2.784,2.784,0,0,1,2.518,2.152,3.332,3.332,0,0,1,1-.079,3.478,3.478,0,0,1,3.2,3.313,3.447,3.447,0,0,1-3.445,3.574,3.548,3.548,0,0,1-.415-.024,3.439,3.439,0,0,1-2.995-2.911q-.023-.158-.032-.313a.217.217,0,0,0-.206-.208,2.77,2.77,0,0,1-2.556-2.6,2.735,2.735,0,0,1,.753-2.046A2.77,2.77,0,0,1,311.46,274.13Zm2.564,3.566a1.218,1.218,0,0,1-1.2-1.03,1.4,1.4,0,0,0-1.276-1.158l-.088,0a1.383,1.383,0,0,0-1.381,1.458,1.4,1.4,0,0,0,1.264,1.3,1.6,1.6,0,0,1,1.5,1.5q.005.1.02.192a2.073,2.073,0,0,0,4.121-.389,2.074,2.074,0,0,0-2.632-1.919A1.205,1.205,0,0,1,314.024,277.7Z" transform="translate(-280.414 -250.765)"/>
        <path id="Trazado_900603" data-name="Trazado 900603" d="M430.4,19.172h0a2.078,2.078,0,0,1,.712.127,6.9,6.9,0,0,1,2.531,1.275,2.757,2.757,0,0,1-3.9,3.9,6.9,6.9,0,0,1-1.275-2.531,2.031,2.031,0,0,1,.244-1.884A2.065,2.065,0,0,1,430.4,19.172Zm1.294,4.734a1.383,1.383,0,0,0,.978-2.36,6.519,6.519,0,0,0-2.029-.955.684.684,0,0,0-.8.257.666.666,0,0,0-.079.625,6.52,6.52,0,0,0,.955,2.029A1.374,1.374,0,0,0,431.7,23.907Z" transform="translate(-389.092 -19.172)"/>
      </g>
    </g>
  </g>
</svg>
