<svg xmlns="http://www.w3.org/2000/svg" width="77" height="77" viewBox="0 0 77 77">
  <g id="Group_1111779" data-name="Group 1111779" transform="translate(-8383.449 8376.539)">
    <g id="Group_1111420" data-name="Group 1111420" transform="translate(7362.719 -11469.539)">
      <g id="Group_1098742" data-name="Group 1098742" transform="translate(1020.73 3093)">
        <rect id="Rectangle_400898" data-name="Rectangle 400898" width="77" height="77" rx="38.5" transform="translate(0 0)" fill="#ccda2d"/>
        <rect id="Rectangle_400907" data-name="Rectangle 400907" width="77" height="77" rx="38.5" transform="translate(0 0)" fill="none"/>
      </g>
    </g>
    <g id="calidad-del-agua" transform="translate(8393.001 -8370.895)">
      <g id="Group_1111778" data-name="Group 1111778" transform="translate(9.675 9.595)">
        <g id="Group_1111775" data-name="Group 1111775" transform="translate(0 0)">
          <path id="Path_900647" data-name="Path 900647" d="M22.435,15.222c-2.842,6.307-9.622,15.77-4.684,21.763a5.85,5.85,0,0,0,9.367,0C32.115,30.922,24.946,20.8,22.435,15.222Z" transform="translate(-16 -15.222)" fill="#4fc0e8" fill-rule="evenodd"/>
        </g>
        <g id="Group_1111776" data-name="Group 1111776" transform="translate(8.543 4.462)">
          <path id="Path_900648" data-name="Path 900648" d="M111.509,61.413c-3.123,6.933-10.576,17.334-5.148,23.921a6.43,6.43,0,0,0,10.3,0C122.149,78.67,114.27,67.54,111.509,61.413Z" transform="translate(-104.436 -61.413)" fill="#66d4f1" fill-rule="evenodd"/>
        </g>
        <g id="Group_1111777" data-name="Group 1111777" transform="translate(15.451 4.71)">
          <path id="Path_900649" data-name="Path 900649" d="M0,0H2.77V5.347H0Z" transform="translate(15.109 17.075) rotate(-45)" fill="#cad0d7" fill-rule="evenodd"/>
          <circle id="Ellipse_11681" data-name="Ellipse 11681" cx="9.911" cy="9.911" r="9.911" fill="#e4e8eb"/>
          <circle id="Ellipse_11682" data-name="Ellipse 11682" cx="7.554" cy="7.554" r="7.554" transform="matrix(0.987, -0.16, 0.16, 0.987, 1.241, 3.667)" fill="#a4d4ff"/>
          <path id="Path_900650" data-name="Path 900650" d="M363.446,252.977l1.5-1.5a1.275,1.275,0,0,1,1.8,0l6.878,6.878a1.275,1.275,0,0,1,0,1.8l-1.5,1.5a1.275,1.275,0,0,1-1.8,0l-6.878-6.878a1.275,1.275,0,0,1,0-1.8Z" transform="translate(-344.997 -233.032)" fill="#a9b0bb" fill-rule="evenodd"/>
        </g>
      </g>
      <path id="Path_900651" data-name="Path 900651" d="M30.12,23.365,31.89,26.9a.677.677,0,0,0,1,.244l6.324-4.622a.676.676,0,0,0-.8-1.092l-5.677,4.15L31.33,22.76a.676.676,0,0,0-1.21.605Zm-1.961.926a6.878,6.878,0,1,1,6.878,6.878A6.886,6.886,0,0,1,28.16,24.291Zm-1.352,0a8.231,8.231,0,1,1,8.231,8.231,8.24,8.24,0,0,1-8.231-8.231ZM24.935,37.21a.742.742,0,0,0,.09.006.676.676,0,0,0,.088-1.346,2.124,2.124,0,0,1-1.3-.836c-.816-.991-1.039-2.4-.68-4.3a.676.676,0,1,0-1.329-.251c-.432,2.287-.107,4.107.965,5.408A3.434,3.434,0,0,0,24.935,37.21Zm-9.157-6.484a.676.676,0,1,0,.178-1.34,1.877,1.877,0,0,1-1.147-.739,4.511,4.511,0,0,1-.606-3.859.676.676,0,1,0-1.329-.251,5.823,5.823,0,0,0,.891,4.97,3.185,3.185,0,0,0,2.014,1.22ZM11.949,31c-1.637-1.987-2.009-4.593-1.136-7.97a46.772,46.772,0,0,1,3.978-9.2c.466-.9.916-1.765,1.323-2.592.352.7.747,1.455,1.155,2.231A56.6,56.6,0,0,1,20.9,21.358c-1.854,3.781-3.488,7.839-3.348,11.525a5.182,5.182,0,0,1-5.6-1.88ZM19.4,28.8A51.472,51.472,0,0,1,23.782,18.68c.536-1.032,1.051-2.024,1.513-2.97.366.735.776,1.52,1.2,2.331a10.581,10.581,0,0,0,4.994,16.227,7.383,7.383,0,0,1-1.574,3.356,5.756,5.756,0,0,1-9.252,0c-1.814-2.2-2.227-5.086-1.262-8.819Zm6.4-4.513a9.235,9.235,0,1,1,9.235,9.235A9.246,9.246,0,0,1,25.8,24.291ZM43,31.255a10.625,10.625,0,0,1-1,1L43.344,33.6l1-1Zm2.966,1.876a.594.594,0,0,0-.421.174l-1.5,1.5a.6.6,0,0,0,0,.841l6.878,6.878a.6.6,0,0,0,.841,0l1.5-1.5a.6.6,0,0,0,0-.841l-6.878-6.878A.594.594,0,0,0,45.971,33.132ZM10.9,31.863c-4.293-5.21-.424-12.663,2.686-18.651.708-1.363,1.376-2.65,1.9-3.82a.676.676,0,0,1,1.233,0c.454,1.008,1.078,2.2,1.739,3.454A67.441,67.441,0,0,1,21.734,19.7c.284-.556.569-1.1.847-1.64.778-1.5,1.513-2.915,2.094-4.2a.676.676,0,0,1,1.233,0c.411.913.95,1.96,1.531,3.072a10.582,10.582,0,0,1,16.4,13.249L45.5,31.84a1.946,1.946,0,0,1,1.846.51l6.878,6.878a1.951,1.951,0,0,1,0,2.754l-1.5,1.5a1.949,1.949,0,0,1-2.754,0L43.1,36.6a1.947,1.947,0,0,1-.51-1.846l-1.666-1.666a10.577,10.577,0,0,1-8.127,1.549,8.821,8.821,0,0,1-1.832,3.845,7.106,7.106,0,0,1-11.339,0,8.879,8.879,0,0,1-1.931-4.236,6.212,6.212,0,0,1-1.569.2A6.783,6.783,0,0,1,10.9,31.863ZM55.567,49.669l-4.6,4.6a3.749,3.749,0,0,1-5.3,0l-1.475-1.475a5.106,5.106,0,0,0-7.209,0L35.509,54.27a3.749,3.749,0,0,1-5.3,0l-1.475-1.475a5.106,5.106,0,0,0-7.209,0L20.052,54.27a3.749,3.749,0,0,1-5.3,0l-4.6-4.6a.676.676,0,0,0-.956.956l4.6,4.6a5.1,5.1,0,0,0,7.209,0l1.475-1.475a3.753,3.753,0,0,1,5.3,0l1.475,1.475a5.1,5.1,0,0,0,7.209,0l1.475-1.475a3.753,3.753,0,0,1,5.3,0l1.475,1.475a5.1,5.1,0,0,0,7.21,0l4.6-4.6a.676.676,0,0,0-.956-.956ZM9.2,43.708a.676.676,0,1,1,.956-.956l4.6,4.6a3.754,3.754,0,0,0,5.3,0l1.475-1.476a5.106,5.106,0,0,1,7.209,0l1.475,1.476a3.754,3.754,0,0,0,5.3,0l1.476-1.476a5.106,5.106,0,0,1,7.209,0l1.475,1.476a3.754,3.754,0,0,0,5.3,0l4.6-4.6a.676.676,0,1,1,.956.956l-4.6,4.6a5.106,5.106,0,0,1-7.209,0l-1.475-1.476a3.753,3.753,0,0,0-5.3,0L36.465,48.31a5.106,5.106,0,0,1-7.209,0L27.78,46.834a3.753,3.753,0,0,0-5.3,0L21.008,48.31a5.106,5.106,0,0,1-7.209,0Z" fill-rule="evenodd"/>
    </g>
  </g>
</svg>
