<svg xmlns="http://www.w3.org/2000/svg" xmlns:xlink="http://www.w3.org/1999/xlink" width="77" height="77" viewBox="0 0 77 77">
  <defs>
    <clipPath id="clip-path">
      <path id="path3006" d="M0-682.665H54.267V-628.4H0Z" transform="translate(0 682.665)"/>
    </clipPath>
  </defs>
  <g id="Group_1111853" data-name="Group 1111853" transform="translate(-600 -3655.212)">
    <g id="Group_1111490" data-name="Group 1111490" transform="translate(-420.73 562.212)">
      <g id="Group_1098742" data-name="Group 1098742" transform="translate(1020.73 3093)">
        <rect id="Rectangle_400898" data-name="Rectangle 400898" width="77" height="77" rx="38.5" transform="translate(0 0)" fill="#ccda2d"/>
        <rect id="Rectangle_400907" data-name="Rectangle 400907" width="77" height="77" rx="38.5" transform="translate(0 0)" fill="none"/>
      </g>
    </g>
    <g id="g3000" transform="translate(613.537 4349.037)">
      <g id="g3002" transform="translate(0 -682.665)">
        <g id="g3004" clip-path="url(#clip-path)">
          <g id="g3010" transform="translate(11.179 20.271)">
            <path id="path3012" d="M-336.458-10.871a10.07,10.07,0,0,1-2.969-.445V12.627a2.8,2.8,0,0,1-2.8,2.8h-23.289v2.9a2.8,2.8,0,0,0,2.8,2.8H-335a2.8,2.8,0,0,0,2.8-2.8V-11.809a10.032,10.032,0,0,1-4.251.939" transform="translate(365.514 11.809)" fill="#ccf5fc"/>
          </g>
          <g id="g3014" transform="translate(2.899 2.294)">
            <path id="path3016" d="M-343.509,0h-26.867a2.8,2.8,0,0,0-2.8,2.8V41.353a2.8,2.8,0,0,0,2.8,2.8h27.712a2.8,2.8,0,0,0,2.8-2.8V17.623" transform="translate(374.234 1.06)" fill="#faf7f5"/>
            <path id="path3016_-_Contorno" data-name="path3016 - Contorno" d="M-354.937,32.937H-382.65a3.862,3.862,0,0,1-3.857-3.857V-9.476a3.862,3.862,0,0,1,3.857-3.857h26.867a1.06,1.06,0,0,1,1.06,1.06,1.06,1.06,0,0,1-1.06,1.06H-382.65a1.74,1.74,0,0,0-1.738,1.737V29.08a1.74,1.74,0,0,0,1.738,1.738h27.712A1.739,1.739,0,0,0-353.2,29.08V5.349a1.06,1.06,0,0,1,1.06-1.06,1.06,1.06,0,0,1,1.06,1.06V29.08A3.862,3.862,0,0,1-354.937,32.937Z" transform="translate(386.507 13.333)"/>
          </g>
          <path id="path3018" d="M158.268-530.7h-19.1v-4.476h19.1Z" transform="translate(-128.106 546.897)" fill="#ffe6b4"/>
          <path id="path3018_-_Contorno" data-name="path3018 - Contorno" d="M145.995-541.909H126.9a1.06,1.06,0,0,1-1.06-1.06v-4.476a1.06,1.06,0,0,1,1.06-1.06h19.1a1.06,1.06,0,0,1,1.06,1.06v4.476A1.06,1.06,0,0,1,145.995-541.909Zm-18.039-2.12h16.979v-2.357H127.955Z" transform="translate(-115.833 559.17)"/>
          <g id="g3020" transform="translate(10.003 20.947)">
            <path id="path3022" d="M6.826-11.214h-19.1a1.06,1.06,0,0,1-1.06-1.06,1.06,1.06,0,0,1,1.06-1.06h19.1a1.06,1.06,0,0,1,1.06,1.06A1.06,1.06,0,0,1,6.826-11.214Z" transform="translate(13.333 13.333)"/>
          </g>
          <g id="g3024" transform="translate(10.003 25.974)">
            <path id="path3026" d="M6.826-11.214h-19.1a1.06,1.06,0,0,1-1.06-1.06,1.06,1.06,0,0,1,1.06-1.06h19.1a1.06,1.06,0,0,1,1.06,1.06A1.06,1.06,0,0,1,6.826-11.214Z" transform="translate(13.333 13.333)"/>
          </g>
          <g id="g3028" transform="translate(10.003 31.001)">
            <path id="path3030" d="M6.826-11.214h-19.1a1.06,1.06,0,0,1-1.06-1.06,1.06,1.06,0,0,1,1.06-1.06h19.1a1.06,1.06,0,0,1,1.06,1.06A1.06,1.06,0,0,1,6.826-11.214Z" transform="translate(13.333 13.333)"/>
          </g>
          <g id="g3032" transform="translate(10.003 36.028)">
            <path id="path3034" d="M6.826-11.214h-19.1a1.06,1.06,0,0,1-1.06-1.06,1.06,1.06,0,0,1,1.06-1.06h19.1a1.06,1.06,0,0,1,1.06,1.06A1.06,1.06,0,0,1,6.826-11.214Z" transform="translate(13.333 13.333)"/>
          </g>
          <g id="g3036" transform="translate(30.162 1.06)">
            <path id="path3038" d="M-233.284-116.667a10.074,10.074,0,0,1-10.073,10.075,10.074,10.074,0,0,1-10.073-10.075,10.074,10.074,0,0,1,10.073-10.075,10.074,10.074,0,0,1,10.073,10.075" transform="translate(253.43 126.742)" fill="#ff7d97"/>
          </g>
          <g id="g3040" transform="translate(29.102 0)">
            <path id="path3042" d="M-255.631-140.076A11.146,11.146,0,0,1-244.5-128.941a11.146,11.146,0,0,1-11.133,11.135,11.146,11.146,0,0,1-11.133-11.135A11.146,11.146,0,0,1-255.631-140.076Zm0,20.15a9.024,9.024,0,0,0,9.013-9.015,9.024,9.024,0,0,0-9.013-9.015,9.024,9.024,0,0,0-9.013,9.015A9.024,9.024,0,0,0-255.631-119.926Z" transform="translate(266.763 140.076)"/>
          </g>
          <g id="g3044" transform="translate(39.18 8.686)">
            <path id="path3046" d="M-12.273-3.966a1.06,1.06,0,0,1-1.06-1.06v-7.247a1.06,1.06,0,0,1,1.06-1.06,1.06,1.06,0,0,1,1.06,1.06v7.247A1.06,1.06,0,0,1-12.273-3.966Z" transform="translate(13.333 13.333)"/>
          </g>
          <g id="g3048" transform="translate(39.175 5.276)">
            <path id="path3050" d="M-24.547-12.273a1.06,1.06,0,0,1-1.06,1.06,1.06,1.06,0,0,1-1.06-1.06,1.06,1.06,0,0,1,1.06-1.06,1.06,1.06,0,0,1,1.06,1.06" transform="translate(26.667 13.333)"/>
          </g>
          <g id="g3052" transform="translate(43.426 19.682)">
            <path id="path3054" d="M-12.273-5.83a1.06,1.06,0,0,1-1.06-1.06v-5.384a1.06,1.06,0,0,1,1.06-1.06,1.06,1.06,0,0,1,1.06,1.06V-6.89A1.06,1.06,0,0,1-12.273-5.83Z" transform="translate(13.333 13.333)"/>
          </g>
          <g id="g3056" transform="translate(10.119 34.648)">
            <path id="path3058" d="M-400.76,6.285h-27.712a3.862,3.862,0,0,1-3.857-3.857V-.159a1.06,1.06,0,0,1,1.06-1.06,1.06,1.06,0,0,1,1.06,1.06V2.428a1.74,1.74,0,0,0,1.738,1.738h27.712a1.74,1.74,0,0,0,1.738-1.738v-14.7a1.06,1.06,0,0,1,1.06-1.06,1.06,1.06,0,0,1,1.06,1.06v14.7A3.862,3.862,0,0,1-400.76,6.285Z" transform="translate(432.33 13.333)"/>
          </g>
          <g id="g3060" transform="translate(44.486 30.898)">
            <path id="path3062"/>
          </g>
        </g>
      </g>
    </g>
  </g>
</svg>
