<svg xmlns="http://www.w3.org/2000/svg" width="77" height="77" viewBox="0 0 77 77">
  <g id="Group_1111793" data-name="Group 1111793" transform="translate(-8041 6831)">
    <g id="Group_1111429" data-name="Group 1111429" transform="translate(7020.27 -9924)">
      <g id="Group_1098742" data-name="Group 1098742" transform="translate(1020.73 3093)">
        <rect id="Rectangle_400898" data-name="Rectangle 400898" width="77" height="77" rx="38.5" transform="translate(0 0)" fill="#ccda2d"/>
        <rect id="Rectangle_400907" data-name="Rectangle 400907" width="77" height="77" rx="38.5" transform="translate(0 0)" fill="none"/>
      </g>
    </g>
    <g id="vulnerabilidad" transform="translate(8011.909 -6825.825)">
      <g id="Group_1111792" data-name="Group 1111792" transform="translate(46.94 7.942)">
        <path id="Path_900685" data-name="Path 900685" d="M74.581,16.052a2.123,2.123,0,0,1,1.673,0L96.1,24.559a1.062,1.062,0,0,1,.643.976V42.08A24.9,24.9,0,0,1,76.195,66.51l-.777.136-.777-.136A24.9,24.9,0,0,1,54.091,42.08V25.535a1.062,1.062,0,0,1,.643-.976Z" transform="translate(-54.091 -15.88)" fill="#8ac9fe" fill-rule="evenodd"/>
        <path id="Path_900686" data-name="Path 900686" d="M370.838,63.773l8.387,3.6a1.062,1.062,0,0,1,.643.976V84.889a24.846,24.846,0,0,1-9.03,19.106Z" transform="translate(-337.215 -58.689)" fill="#60b7ff" fill-rule="evenodd"/>
        <path id="Path_900687" data-name="Path 900687" d="M123.987,74.16,137.849,80.1a1.592,1.592,0,0,1,.965,1.464V94.02a19.225,19.225,0,0,1-15.663,18.81,19.225,19.225,0,0,1-15.658-18.81V81.559a1.592,1.592,0,0,1,.965-1.464l13.857-5.935a2.123,2.123,0,0,1,1.672,0Z" transform="translate(-101.824 -67.821)" fill="#60b7ff" fill-rule="evenodd"/>
        <path id="Path_900688" data-name="Path 900688" d="M370.838,121.831l2.4,1.028a1.592,1.592,0,0,1,.965,1.464v12.461a19.027,19.027,0,0,1-3.367,10.79Z" transform="translate(-337.215 -110.584)" fill="#41a8fc" fill-rule="evenodd"/>
        <path id="Path_900689" data-name="Path 900689" d="M178.142,182.711l-4.454-4.459a2.492,2.492,0,1,1,3.524-3.524l4.459,4.454,4.454-4.454a2.494,2.494,0,0,1,3.529,3.524l-4.459,4.459,4.459,4.454a2.5,2.5,0,0,1-3.529,3.529l-4.454-4.459-4.459,4.459a2.494,2.494,0,1,1-3.524-3.529Z" transform="translate(-160.34 -157.213)" fill="#fe646f" fill-rule="evenodd"/>
      </g>
      <path id="Path_900690" data-name="Path 900690" d="M80.471,54.395a.845.845,0,0,1-.248.3A25.491,25.491,0,0,1,69.19,59.5l-.777.136a.846.846,0,0,1-.293,0l-.777-.136A25.748,25.748,0,0,1,46.091,34.235V16.99a.849.849,0,0,1,.515-.781l8.824-3.782a.847.847,0,0,1,.422-.071.849.849,0,0,1,.775.861c0,.214-.015.809-.019.953a1.433,1.433,0,0,0,.4.294c.285.159.6.287.887.429a2.734,2.734,0,0,1,1.313,1.146,2.562,2.562,0,0,1,.2.847l8.521-3.65a.85.85,0,0,1,.669,0l15.663,6.707a.849.849,0,0,1,.515.781V34.235a20.014,20.014,0,0,1-6.891,15.057c.042.291.058.615.072.934a5.415,5.415,0,0,0,.076.586c.273.212,1.29.645,1.753.912a1.313,1.313,0,0,1,.769,1.18,10.27,10.27,0,0,1,0,1.112.845.845,0,0,1-.089.378ZM54.933,14.488,47.789,17.55V34.235A24.043,24.043,0,0,0,67.635,57.829l.631.11.631-.11a23.789,23.789,0,0,0,9.963-4.238c0-.155,0-.315,0-.427-.313-.162-.959-.5-1.336-.7a3.737,3.737,0,0,1-.677-.434,2.162,2.162,0,0,1-.567-1.424l0-.046a19.838,19.838,0,0,1-7.856,3.321.846.846,0,0,1-.309,0A20.078,20.078,0,0,1,51.76,34.235V20.724a.849.849,0,0,1,.515-.781l5.485-2.349c-.005-.144-.009-.288-.018-.427a1.034,1.034,0,0,0-.053-.368.706.706,0,0,0-.307-.256c-.163-.095-.343-.178-.527-.263a3.965,3.965,0,0,1-1.713-1.236,1.5,1.5,0,0,1-.209-.556ZM76.98,47.831a18.306,18.306,0,0,0,6.1-13.6V21.284L68.267,14.941,60,18.483c.418.212.98.467,1.291.647a1.7,1.7,0,0,1,.533.443,1.535,1.535,0,0,1,.231.694,8.891,8.891,0,0,1-.02.94.849.849,0,1,1-1.7,0c0-.139.012-.453.019-.641-.315-.164-.954-.5-1.328-.7a3.733,3.733,0,0,1-.677-.434,1.345,1.345,0,0,1-.159-.177l-4.731,2.026V34.235A18.373,18.373,0,0,0,68.267,52.181a18.167,18.167,0,0,0,7.305-3.2l-.218-.1a3.965,3.965,0,0,1-1.712-1.236,1.565,1.565,0,0,1-.233-.713,9.775,9.775,0,0,1,.022-.989.849.849,0,0,1,1.7,0c0,.188-.019.691-.024.826a1.422,1.422,0,0,0,.4.3c.285.159.6.287.887.429A4.325,4.325,0,0,1,76.98,47.831Zm-13.439-14.3-3.852-3.856a3.341,3.341,0,1,1,4.723-4.727L68.271,28.8l3.854-3.854a3.343,3.343,0,1,1,4.73,4.725L73,33.533l3.857,3.853,0,0a3.345,3.345,0,0,1-4.73,4.73l0,0-3.853-3.857-3.858,3.858a3.343,3.343,0,1,1-4.725-4.73Zm1.8.6-4.454,4.454a1.646,1.646,0,0,0,0,2.327v0a1.648,1.648,0,0,0,2.324,0l4.459-4.459a.849.849,0,0,1,1.2,0l4.452,4.457a1.646,1.646,0,1,0,2.328-2.328L71.2,34.134a.849.849,0,0,1,0-1.2l4.459-4.459a1.648,1.648,0,0,0,0-2.324h0a1.646,1.646,0,0,0-2.327,0L68.872,30.6a.849.849,0,0,1-1.2,0l-4.459-4.454,0,0a1.64,1.64,0,0,0-2.32,0l0,0a1.64,1.64,0,0,0,0,2.32l0,0,4.454,4.459a.849.849,0,0,1,0,1.2ZM58.576,12.927a.849.849,0,0,1-.669-1.561l10.025-4.3a.849.849,0,0,1,.669,0L89.928,16.21a.849.849,0,0,1,.515.781V34.235a25.662,25.662,0,0,1-8.068,18.635.849.849,0,1,1-1.167-1.234,23.964,23.964,0,0,0,7.537-17.4V17.55L68.267,8.773Z" fill-rule="evenodd"/>
    </g>
  </g>
</svg>
