<svg xmlns="http://www.w3.org/2000/svg" width="77" height="77" viewBox="0 0 77 77">
  <g id="Group_1111825" data-name="Group 1111825" transform="translate(-437 -2116)">
    <g id="Group_1111482" data-name="Group 1111482" transform="translate(-583.73 -977)">
      <g id="Group_1098742" data-name="Group 1098742" transform="translate(1020.73 3093)">
        <rect id="Rectangle_400898" data-name="Rectangle 400898" width="77" height="77" rx="38.5" transform="translate(0 0)" fill="#ccda2d"/>
        <rect id="Rectangle_400907" data-name="Rectangle 400907" width="77" height="77" rx="38.5" transform="translate(0 0)" fill="none"/>
      </g>
    </g>
    <g id="gestion-de-riesgos" transform="translate(437.002 2104.122)">
      <path id="Path_900752" data-name="Path 900752" d="M60.384,70.284a1.068,1.068,0,0,1-.974.672H44.258a1.069,1.069,0,0,1-.974-.672,1.48,1.48,0,0,1,.053-1.414l7.577-12.914a1.027,1.027,0,0,1,1.842,0L60.332,68.87a1.48,1.48,0,0,1,.052,1.414ZM44.42,51.131V64.457l3.4-5.8V51.131l-1.7-1.3-1.7,1.3Zm9.618-7.759-1.7,1.3v9.462A2.379,2.379,0,0,1,53.875,55.3l1.862,3.175v-13.8l-1.7-1.3Zm7.414,24.84-4.415-7.525V44.356a.649.649,0,0,0-.254-.516l-2.349-1.8a.649.649,0,0,0-.791,0l-2.35,1.8a.649.649,0,0,0-.254.516v9.869A2.426,2.426,0,0,0,49.793,55.3l-.673,1.147V50.811a.649.649,0,0,0-.254-.516l-2.349-1.8a.649.649,0,0,0-.791,0l-2.35,1.8a.649.649,0,0,0-.254.516V66.672l-.9,1.54a2.8,2.8,0,0,0-.1,2.637,2.364,2.364,0,0,0,2.142,1.406H59.411a2.366,2.366,0,0,0,2.143-1.406,2.8,2.8,0,0,0-.1-2.637Zm-9.614.712a.406.406,0,1,0-.434-.406.421.421,0,0,0,.434.406Zm0-2.11a1.7,1.7,0,1,0,1.733,1.7A1.7,1.7,0,0,0,51.838,66.814Zm.2-1.385.245-4.992-.9.01.2,4.985Zm.3-6.292-1.033.012a1.233,1.233,0,0,0-1.221,1.283l.2,5.112a1.231,1.231,0,0,0,1.235,1.188h.01l.581,0a1.236,1.236,0,0,0,1.226-1.175l.251-5.119a1.236,1.236,0,0,0-1.248-1.3ZM47.066,38.69c-5.235,5.335-12.417,10.634-20.292,10.634a17.294,17.294,0,0,1-4.7-.651,18.466,18.466,0,0,0,9.272-2.236A31.931,31.931,0,0,0,42.335,36.16a.65.65,0,0,0-.138-.881l-1.41-1.09a.184.184,0,0,1,.046-.317l8.726-3.4.076,8.948a.169.169,0,0,1-.1.163.167.167,0,0,1-.189-.009L47.89,38.6a.649.649,0,0,0-.824.086Zm1.563,1.968-1.014-.676C40.548,47.06,33.508,50.64,26.809,50.64A19.617,19.617,0,0,1,16.3,47.5a.649.649,0,0,1,.564-1.162c11.826,4.285,20.53-5.451,24.044-10.405l-.92-.712a1.483,1.483,0,0,1,.369-2.555l9.6-3.739a.649.649,0,0,1,.886.6l.084,9.889a1.483,1.483,0,0,1-2.306,1.246ZM24.07,67.41h-3.4V59.539l1.7-1.3,1.7,1.3ZM25.114,58.7l-2.35-1.8a.652.652,0,0,0-.791,0l-2.35,1.8a.649.649,0,0,0-.254.516v8.84a.649.649,0,0,0,.649.649h4.7a.649.649,0,0,0,.649-.649v-8.84a.65.65,0,0,0-.254-.516Zm6.872,8.707h-3.4V53.518l1.7-1.3,1.7,1.3V67.41Zm1.045-14.727-2.35-1.8a.649.649,0,0,0-.791,0l-2.35,1.8a.652.652,0,0,0-.254.516V68.059a.649.649,0,0,0,.649.649h4.7a.649.649,0,0,0,.649-.649V53.2a.649.649,0,0,0-.254-.516ZM39.9,67.41H36.5V55.447l1.7-1.3,1.7,1.3V67.41Zm1.045-12.8-2.35-1.8a.649.649,0,0,0-.791,0l-2.35,1.8a.649.649,0,0,0-.254.515V68.059a.649.649,0,0,0,.649.649h4.7a.649.649,0,0,0,.649-.649V55.127a.647.647,0,0,0-.254-.515Z" transform="translate(0)" fill="#282828" fill-rule="evenodd"/>
      <path id="Path_900753" data-name="Path 900753" d="M307.089,319.573a1.734,1.734,0,1,1,1.733,1.7A1.734,1.734,0,0,1,307.089,319.573Zm10.227.352-7.576-12.914a1.027,1.027,0,0,0-1.842,0l-7.577,12.914a1.48,1.48,0,0,0-.053,1.414,1.069,1.069,0,0,0,.974.672H316.4a1.068,1.068,0,0,0,.974-.672,1.48,1.48,0,0,0-.052-1.414Zm-8.813-2.139a1.231,1.231,0,0,1-1.235-1.188l-.2-5.112a1.233,1.233,0,0,1,1.221-1.283l1.033-.012a1.236,1.236,0,0,1,1.248,1.3l-.251,5.119a1.236,1.236,0,0,1-1.226,1.175l-.581,0Z" transform="translate(-256.985 -251.055)" fill="#fe646f" fill-rule="evenodd"/>
      <path id="Path_900754" data-name="Path 900754" d="M386.546,359.362l.2,4.985.459,0,.245-4.992Z" transform="translate(-335.163 -298.916)" fill="#eceff1" fill-rule="evenodd"/>
      <path id="Path_900755" data-name="Path 900755" d="M387.72,439.74a.406.406,0,1,0,.434.406A.421.421,0,0,0,387.72,439.74Z" transform="translate(-335.882 -371.627)" fill="#eceff1" fill-rule="evenodd"/>
      <path id="Path_900756" data-name="Path 900756" d="M398.073,192.586l1.862,3.175v-13.8l-1.7-1.3-1.7,1.3v9.462A2.379,2.379,0,0,1,398.073,192.586Z" transform="translate(-344.198 -137.288)" fill="#6cf5c2" fill-rule="evenodd"/>
      <path id="Path_900757" data-name="Path 900757" d="M317.03,257.083v-7.529l-1.7-1.3-1.7,1.3v13.326Z" transform="translate(-269.209 -198.422)" fill="#8ac9fe" fill-rule="evenodd"/>
      <path id="Path_900758" data-name="Path 900758" d="M234.113,306.714V294.751l-1.7-1.3-1.7,1.3v11.963Z" transform="translate(-194.209 -239.304)" fill="#ffe177" fill-rule="evenodd"/>
      <path id="Path_900759" data-name="Path 900759" d="M151.207,288.439V274.548l-1.7-1.3-1.7,1.3v13.892Z" transform="translate(-119.22 -221.03)" fill="#a79ba7" fill-rule="evenodd"/>
      <path id="Path_900760" data-name="Path 900760" d="M68.3,345.469V337.6l-1.7-1.3-1.7,1.3v7.871Z" transform="translate(-44.23 -278.06)" fill="#fe646f" fill-rule="evenodd"/>
      <path id="Path_900761" data-name="Path 900761" d="M84.31,64.439c7.875,0,15.058-5.3,20.293-10.634a.649.649,0,0,1,.824-.086l1.46.973a.167.167,0,0,0,.189.009.169.169,0,0,0,.1-.163L107.1,45.59l-8.726,3.4a.184.184,0,0,0-.046.317l1.409,1.09a.65.65,0,0,1,.138.881A31.929,31.929,0,0,1,88.877,61.552a18.475,18.475,0,0,1-9.268,2.237,17.286,17.286,0,0,0,4.7.65Z" transform="translate(-57.536 -15.116)" fill="#6cf5c2" fill-rule="evenodd"/>
      <path id="Path_900762" data-name="Path 900762" d="M391.269,317.868a1.7,1.7,0,1,1,0,3.409h0v.733h7.576a1.068,1.068,0,0,0,.974-.672,1.48,1.48,0,0,0-.052-1.414l-7.577-12.914a1.056,1.056,0,0,0-.921-.573V310.2l.5-.006a1.236,1.236,0,0,1,1.248,1.3l-.251,5.119a1.236,1.236,0,0,1-1.226,1.175l-.275,0v.085Z" transform="translate(-339.431 -251.055)" fill="#fd4755" fill-rule="evenodd"/>
      <path id="Path_900763" data-name="Path 900763" d="M84.411,345.469V337.6l-1.7-1.3v9.175Z" transform="translate(-60.341 -278.06)" fill="#fd4755" fill-rule="evenodd"/>
      <path id="Path_900764" data-name="Path 900764" d="M165.616,273.243v15.2h1.7V274.548Z" transform="translate(-135.33 -221.03)" fill="#837683" fill-rule="evenodd"/>
      <path id="Path_900765" data-name="Path 900765" d="M248.523,293.447v13.267h1.7V294.751Z" transform="translate(-210.32 -239.304)" fill="#ffd064" fill-rule="evenodd"/>
      <path id="Path_900766" data-name="Path 900766" d="M331.43,248.249v11.733l1.7-2.9v-7.529Z" transform="translate(-285.31 -198.422)" fill="#60b7ff" fill-rule="evenodd"/>
      <path id="Path_900767" data-name="Path 900767" d="M414.345,192.863l1.7,2.9v-13.8l-1.7-1.3Z" transform="translate(-360.307 -137.288)" fill="#6b809b" fill-rule="evenodd"/>
      <path id="Path_900768" data-name="Path 900768" d="M416.045,195.761v-13.8l-1.7-1.3v12.2Z" transform="translate(-360.307 -137.288)" fill="#00e499" fill-rule="evenodd"/>
    </g>
  </g>
</svg>
