<svg xmlns="http://www.w3.org/2000/svg" width="77" height="77" viewBox="0 0 77 77">
  <g id="Group_1111781" data-name="Group 1111781" transform="translate(-445.051 -10215)">
    <g id="Group_1111362" data-name="Group 1111362" transform="translate(-575.679 7122)">
      <g id="Group_1098742" data-name="Group 1098742" transform="translate(1020.73 3093)">
        <rect id="Rectangle_400898" data-name="Rectangle 400898" width="77" height="77" rx="38.5" transform="translate(0 0)" fill="#ccda2d"/>
        <rect id="Rectangle_400907" data-name="Rectangle 400907" width="77" height="77" rx="38.5" transform="translate(0 0)" fill="none"/>
      </g>
    </g>
    <g id="atencion-de-urgencias" transform="translate(429.483 10190.684)">
      <g id="Group_1111647" data-name="Group 1111647" transform="translate(35.78 41.073)">
        <g id="Group_1111645" data-name="Group 1111645" transform="translate(0 0)">
          <path id="Path_900349" data-name="Path 900349" d="M120.018,53.19a.54.54,0,0,1,.488-.538,28.1,28.1,0,0,0,13.307-5.336h11.43a28.114,28.114,0,0,0,13.307,5.337.54.54,0,0,1,.488.537c0,2.8,0,16.554,0,16.554,0,11-11.165,20.242-19.51,22.48-8.343-2.238-19.51-11.48-19.51-22.48Z" transform="translate(-120.018 -47.316)" fill="#4fc0e8" fill-rule="evenodd"/>
          <path id="Path_900350" data-name="Path 900350" d="M162.674,112.469c7.905-2.474,16.7-10.9,16.7-19.558V78.323a31.294,31.294,0,0,1-11.867-5.031h-9.672a31.323,31.323,0,0,1-11.87,5.031V92.911C145.969,101.57,154.768,109.995,162.674,112.469Z" transform="translate(-143.163 -70.484)" fill="#66d4f1" fill-rule="evenodd"/>
        </g>
        <g id="Group_1111646" data-name="Group 1111646" transform="translate(10.476 13.341)">
          <path id="Path_900351" data-name="Path 900351" d="M253.015,177.2a6.484,6.484,0,0,0-6.484-6.484h-.125a6.484,6.484,0,0,0-6.484,6.484v8.241h13.094Z" transform="translate(-237.434 -170.712)" fill="#f76c82" fill-rule="evenodd"/>
          <path id="Path_900352" data-name="Path 900352" d="M234.983,288.279a.541.541,0,0,0-.541-.541H217.456a.541.541,0,0,0-.541.541v4.378a.54.54,0,0,0,.541.541h16.987a.541.541,0,0,0,.541-.541Z" transform="translate(-216.915 -275.086)" fill="#eb5463" fill-rule="evenodd"/>
          <path id="Path_900353" data-name="Path 900353" d="M267.754,198.972V197.1a.541.541,0,0,1,.541-.541h1.7a.54.54,0,0,1,.541.541v1.867H272.4a.54.54,0,0,1,.541.541v1.7a.541.541,0,0,1-.541.541h-1.867v1.867a.54.54,0,0,1-.541.541h-1.7a.541.541,0,0,1-.541-.541v-1.867h-1.867a.541.541,0,0,1-.541-.541v-1.7a.541.541,0,0,1,.541-.541Z" transform="translate(-260.11 -193.769)" fill="#f4f6f8" fill-rule="evenodd"/>
        </g>
      </g>
      <path id="Path_900354" data-name="Path 900354" d="M34.644,62.123h-8.32a.757.757,0,1,1,0-1.514h8.32V46.454a.757.757,0,0,1,.7-.754,27.117,27.117,0,0,0,13.415-5.242.757.757,0,0,1,.44-.141h11.43a.757.757,0,0,1,.44.141A27.117,27.117,0,0,0,74.481,45.7a.757.757,0,0,1,.7.754V63.5c0,5.7-2.868,10.946-6.838,15.052a30.572,30.572,0,0,1-13.233,8.159.758.758,0,0,1-.392,0,30.579,30.579,0,0,1-13.232-8.159,25.037,25.037,0,0,1-5.932-9.481H31.5a.757.757,0,1,1,0-1.514h3.621a18.063,18.063,0,0,1-.352-1.961H28.915a.757.757,0,0,1,0-1.514h5.74q-.01-.291-.01-.583Zm2.5,6.949A23.8,23.8,0,0,0,42.572,77.5a29.151,29.151,0,0,0,12.34,7.7,29.145,29.145,0,0,0,12.341-7.7c3.7-3.824,6.413-8.695,6.413-14V47.142a28.858,28.858,0,0,1-13.28-5.313H49.438a28.858,28.858,0,0,1-13.28,5.313V60.609H37.45v-11.7a.757.757,0,0,1,.621-.745,30.566,30.566,0,0,0,11.581-4.913.757.757,0,0,1,.424-.13h9.672a.757.757,0,0,1,.425.13,30.536,30.536,0,0,0,11.578,4.913.757.757,0,0,1,.621.745V63.5a17.912,17.912,0,0,1-3.748,10.358,28,28,0,0,1-13.488,9.922.757.757,0,0,1-.452,0A28,28,0,0,1,41.2,73.857a21.34,21.34,0,0,1-2.65-4.786ZM36.3,65.6a16.7,16.7,0,0,0,.384,1.961h1.355A15.6,15.6,0,0,1,37.61,65.6Zm-.141-3.474V63.5q0,.293.011.583h1.294q-.012-.291-.013-.583V62.123Zm4.023,6.949a20.267,20.267,0,0,0,2.242,3.9,26.5,26.5,0,0,0,12.489,9.3A26.5,26.5,0,0,0,67.4,72.969,16.4,16.4,0,0,0,70.859,63.5V49.536a32.237,32.237,0,0,1-11.342-4.9H50.308a32.268,32.268,0,0,1-11.344,4.9V60.609H43.2a.757.757,0,1,1,0,1.514H38.964V63.5q0,.292.014.583H43.2a.757.757,0,1,1,0,1.514H39.141a14.372,14.372,0,0,0,.475,1.961H43.2a.757.757,0,1,1,0,1.514Zm7.1-13.343a.757.757,0,0,1-.757,1.311l-4.16-2.4a.757.757,0,1,1,.757-1.311Zm12.906-2.35a.757.757,0,0,1-1.311-.757l2.4-4.161a.757.757,0,0,1,1.311.757Zm2.026,12.93h1.73a.757.757,0,0,1,.757.757v5.459a.757.757,0,0,1-.757.757H45.877a.757.757,0,0,1-.757-.757V67.066a.757.757,0,0,1,.757-.757h1.73V60.9a7.241,7.241,0,0,1,7.241-7.241h.125A7.241,7.241,0,0,1,62.215,60.9Zm.974,1.514H46.634v3.946H63.189ZM60.7,66.309V60.9a5.727,5.727,0,0,0-5.728-5.728h-.125A5.727,5.727,0,0,0,49.121,60.9v5.411Zm-7.937-7.45V57.209a.757.757,0,0,1,.757-.757H56.3a.757.757,0,0,1,.757.757V58.86h1.651a.757.757,0,0,1,.757.757V62.4a.757.757,0,0,1-.757.757H57.058V64.8a.757.757,0,0,1-.757.757H53.521a.757.757,0,0,1-.757-.757V63.154H51.113a.757.757,0,0,1-.757-.757V59.617a.757.757,0,0,1,.757-.757Zm.757,1.514H51.87V61.64h1.651a.757.757,0,0,1,.757.757v1.651h1.267V62.4a.757.757,0,0,1,.757-.757h1.651V60.373H56.3a.757.757,0,0,1-.757-.757V57.966H54.278v1.651a.757.757,0,0,1-.757.757Zm-2.577-7.751a.757.757,0,0,1-1.311.757l-2.4-4.161a.757.757,0,0,1,1.311-.757Zm4.724-.86a.757.757,0,1,1-1.514,0v-4.8a.757.757,0,0,1,1.514,0ZM63.3,57.04a.757.757,0,1,1-.757-1.311l4.16-2.4a.757.757,0,1,1,.757,1.311Z" fill-rule="evenodd"/>
    </g>
  </g>
</svg>
