<svg xmlns="http://www.w3.org/2000/svg" width="85" height="86" viewBox="0 0 85 86">
  <g id="Group_1111851" data-name="Group 1111851" transform="translate(-328 -3235)">
    <rect id="Rectangle_404285" data-name="Rectangle 404285" width="85" height="86" rx="8" transform="translate(328 3235)" fill="#ccda2d"/>
    <g id="logro" transform="translate(343.5 3249.397)">
      <g id="Group_1111832" data-name="Group 1111832" transform="translate(0.92 1.974)">
        <path id="Path_900803" data-name="Path 900803" d="M4.5,8.614V50.569a3.489,3.489,0,0,0,3.477,3.48H39.736a3.489,3.489,0,0,0,3.477-3.48V8.614a3.489,3.489,0,0,0-3.477-3.48H7.977A3.489,3.489,0,0,0,4.5,8.614Z" transform="translate(-4.5 -5.134)" fill="#eaf6ff" fill-rule="evenodd"/>
      </g>
      <g id="Group_1111833" data-name="Group 1111833" transform="translate(4.929 36.677)">
        <path id="Path_900804" data-name="Path 900804" d="M42.7,335.816h8.823v8.82H42.7Z" transform="translate(-42.705 -335.816)" fill="#ffd301" fill-rule="evenodd"/>
      </g>
      <g id="Group_1111834" data-name="Group 1111834" transform="translate(4.929 23.034)">
        <path id="Path_900805" data-name="Path 900805" d="M42.7,205.815h8.823v8.82H42.7Z" transform="translate(-42.705 -205.815)" fill="#ffd301" fill-rule="evenodd"/>
      </g>
      <g id="Group_1111835" data-name="Group 1111835" transform="translate(4.929 9.391)">
        <path id="Path_900806" data-name="Path 900806" d="M42.7,75.814h8.823v8.823H42.7Z" transform="translate(-42.705 -75.814)" fill="#ffd301" fill-rule="evenodd"/>
      </g>
      <g id="Group_1111836" data-name="Group 1111836" transform="translate(22.531 32.899)">
        <path id="Path_900807" data-name="Path 900807" d="M221.3,321.545a10.864,10.864,0,1,0-10.864-10.864A10.884,10.884,0,0,0,221.3,321.545Z" transform="translate(-210.434 -299.816)" fill="#fd646f" fill-rule="evenodd"/>
      </g>
      <g id="Group_1111837" data-name="Group 1111837" transform="translate(26.33 36.488)">
        <path id="Path_900808" data-name="Path 900808" d="M253.7,348.147a7.065,7.065,0,1,0-7.065-7.065A7.078,7.078,0,0,0,253.7,348.147Z" transform="translate(-246.635 -334.017)" fill="#f5f5f5" fill-rule="evenodd"/>
      </g>
      <g id="Group_1111838" data-name="Group 1111838" transform="translate(30.169 40.326)">
        <path id="Path_900809" data-name="Path 900809" d="M286.436,377.046a3.227,3.227,0,1,0-3.227-3.227A3.233,3.233,0,0,0,286.436,377.046Z" transform="translate(-283.209 -370.592)" fill="#fd646f" fill-rule="evenodd"/>
      </g>
      <g id="Group_1111839" data-name="Group 1111839" transform="translate(25.11 40.614)">
        <path id="Path_900810" data-name="Path 900810" d="M253.627,375.7A11.1,11.1,0,0,1,235,383.866a10.867,10.867,0,0,0,18.372-10.53A11.078,11.078,0,0,1,253.627,375.7Z" transform="translate(-235.002 -373.336)" fill="#eb4954" fill-rule="evenodd"/>
      </g>
      <g id="Group_1111840" data-name="Group 1111840" transform="translate(45.64 31.571)">
        <path id="Path_900811" data-name="Path 900811" d="M430.633,292.106v-3.053l3.269-1.888v3.053l2.646,1.529-3.269,1.888Z" transform="translate(-430.633 -287.166)" fill="#fac149" fill-rule="evenodd"/>
      </g>
      <path id="Path_900812" data-name="Path 900812" d="M4.354,36.561a.733.733,0,0,1,.733-.733h6.077a.733.733,0,0,1,0,1.467H5.82v7.232h7.232V39.987a.733.733,0,1,1,1.466,0V45.26a.733.733,0,0,1-.733.733h-8.7a.733.733,0,0,1-.733-.733Zm11.553-2.573a.733.733,0,0,0-1.031.114L9.29,41.079l-1.5-2.4a.733.733,0,1,0-1.243.778l2.046,3.272a.734.734,0,0,0,.579.343h.043a.733.733,0,0,0,.572-.275l6.232-7.784a.733.733,0,0,0-.114-1.031ZM4.354,31.805a.733.733,0,0,0,.733.733h8.7a.733.733,0,0,0,.733-.733V26.533a.733.733,0,1,0-1.466,0v4.539H5.82V23.84h5.344a.733.733,0,0,0,0-1.467H5.087a.733.733,0,0,0-.733.733ZM15.907,20.536a.733.733,0,0,0-1.031.114L9.29,27.625l-1.5-2.4a.733.733,0,1,0-1.243.778l2.046,3.272a.733.733,0,0,0,.579.343h.043a.733.733,0,0,0,.572-.275l6.232-7.781a.733.733,0,0,0-.114-1.031Zm6.75,29.308H4.665a2.7,2.7,0,0,1-2.7-2.7V5.768a2.7,2.7,0,0,1,2.7-2.7H35.984a2.7,2.7,0,0,1,2.7,2.7V32.256a.733.733,0,1,0,1.466,0V5.768A4.17,4.17,0,0,0,35.984,1.6H4.665A4.17,4.17,0,0,0,.5,5.768V47.145a4.17,4.17,0,0,0,4.165,4.165H22.657a.733.733,0,0,0,0-1.467ZM11.164,10.385a.733.733,0,0,0,0-1.467H5.087a.733.733,0,0,0-.733.733v8.7a.733.733,0,0,0,.733.733h8.7a.733.733,0,0,0,.733-.733V13.078a.733.733,0,1,0-1.466,0V17.62H5.82V10.385Zm4.742-3.3a.733.733,0,0,0-1.031.114L9.29,14.17l-1.5-2.393a.733.733,0,1,0-1.243.778l2.046,3.269a.733.733,0,0,0,.579.343h.043a.733.733,0,0,0,.572-.275l6.232-7.781a.733.733,0,0,0-.114-1.031Zm17.91,1.837H18.987a.733.733,0,0,0,0,1.467H33.816a.733.733,0,0,0,0-1.467Zm0,3.925H18.987a.733.733,0,0,0,0,1.467H33.816a.733.733,0,0,0,0-1.467Zm0,9.53H18.987a.733.733,0,0,0,0,1.467H33.816a.733.733,0,0,0,0-1.467Zm.733,4.658a.733.733,0,0,0-.733-.733H18.987a.733.733,0,0,0,0,1.467H33.816A.733.733,0,0,0,34.55,27.031Zm-11.184,9.53a.733.733,0,0,0-.733-.733H18.987a.733.733,0,0,0,0,1.467h3.646A.733.733,0,0,0,23.366,36.561Zm-4.379,3.192a.733.733,0,0,0,0,1.467h1.942a.733.733,0,0,0,0-1.467Zm34.772-7.128-3.315,1.913,1.51.873a.733.733,0,0,1,0,1.27L48.73,38.541a.733.733,0,0,1-.733,0l-2.243-1.3-2.127,1.228a11.48,11.48,0,1,1-.735-1.269l2.129-1.23V33.388a.733.733,0,0,1,.367-.635l3.224-1.861a.733.733,0,0,1,1.1.635v1.741l3.315-1.913a.733.733,0,0,1,.733,1.27ZM42.354,39.208l-1.983,1.145a7.727,7.727,0,1,1-.735-1.269l1.983-1.145a9.929,9.929,0,1,0,.736,1.269ZM32.61,43.14l2.414-1.394a2.449,2.449,0,1,0,.735,1.269l-2.415,1.394a.733.733,0,1,1-.733-1.27Zm3.72-2.148,2.031-1.173a6.219,6.219,0,1,0,.735,1.269l-2.03,1.172a3.928,3.928,0,1,1-.735-1.269Zm13.792-4.948-1.5-.869,0,0,0,0-.018-.012a.732.732,0,0,1-.061-.041l-.023-.02c-.017-.014-.033-.028-.049-.043s-.019-.021-.028-.032-.024-.026-.035-.04a.747.747,0,0,1-.053-.08h0a.747.747,0,0,1-.039-.078L48.3,34.8c-.008-.021-.016-.043-.022-.064l-.006-.021a.729.729,0,0,1-.016-.081v0a.722.722,0,0,1-.006-.09s0,0,0-.006V32.8l-1.758,1.015v2.164l1.877,1.084Z"/>
    </g>
  </g>
</svg>
