<svg xmlns="http://www.w3.org/2000/svg" width="77" height="77" viewBox="0 0 77 77">
  <g id="Group_1111850" data-name="Group 1111850" transform="translate(-11710 9456)">
    <g id="Group_1111486" data-name="Group 1111486" transform="translate(10689.27 -12549)">
      <g id="Group_1098742" data-name="Group 1098742" transform="translate(1020.73 3093)">
        <rect id="Rectangle_400898" data-name="Rectangle 400898" width="77" height="77" rx="38.5" transform="translate(0 0)" fill="#ccda2d"/>
        <rect id="Rectangle_400907" data-name="Rectangle 400907" width="77" height="77" rx="38.5" transform="translate(0 0)" fill="none"/>
      </g>
    </g>
    <g id="tiempo" transform="translate(11723 -9466.124)">
      <g id="Group_1111848" data-name="Group 1111848" transform="translate(0.738 25.862)">
        <path id="Path_900824" data-name="Path 900824" d="M49.378,95.864H12.006L7.5,99.172v23.446a3.614,3.614,0,0,0,3.614,3.614H48.733a3.336,3.336,0,0,0,3.336-3.335V99.172Z" transform="translate(-7.501 -89.644)" fill="#f9f7f8"/>
        <path id="Path_900825" data-name="Path 900825" d="M257.917,218.841a13.953,13.953,0,0,0-13.267,18.273h17.29a3.336,3.336,0,0,0,3.336-3.335V220.945A13.868,13.868,0,0,0,257.917,218.841Z" transform="translate(-220.708 -200.527)" fill="#efedef"/>
        <circle id="Ellipse_11691" data-name="Ellipse 11691" cx="11.494" cy="11.494" r="11.494" transform="translate(25.715 20.773)" fill="#9cf8d2"/>
        <path id="Path_900826" data-name="Path 900826" d="M272.435,255.335a11.5,11.5,0,0,1,9.759-11.364,11.494,11.494,0,1,0,0,22.728A11.5,11.5,0,0,1,272.435,255.335Z" transform="translate(-243.251 -223.068)" fill="#6cf5c2"/>
        <path id="Path_900827" data-name="Path 900827" d="M56.464,174.6H54.276a.971.971,0,0,1-.971-.971v-2.187a.971.971,0,0,1,.971-.971h2.187a.971.971,0,0,1,.971.971v2.187A.971.971,0,0,1,56.464,174.6Z" transform="translate(-48.8 -156.913)" fill="#f79595"/>
        <path id="Path_900828" data-name="Path 900828" d="M135.985,174.6H133.8a.971.971,0,0,1-.971-.971v-2.187a.971.971,0,0,1,.971-.971h2.187a.971.971,0,0,1,.971.971v2.187A.971.971,0,0,1,135.985,174.6Z" transform="translate(-120.5 -156.913)" fill="#d4f2f6"/>
        <path id="Path_900829" data-name="Path 900829" d="M215.506,174.6h-2.187a.971.971,0,0,1-.971-.971v-2.187a.971.971,0,0,1,.971-.971h2.187a.971.971,0,0,1,.971.971v2.187A.971.971,0,0,1,215.506,174.6Z" transform="translate(-192.2 -156.913)" fill="#d4f2f6"/>
        <path id="Path_900830" data-name="Path 900830" d="M295.028,174.6H292.84a.971.971,0,0,1-.971-.971v-2.187a.971.971,0,0,1,.971-.971h2.187a.971.971,0,0,1,.971.971v2.187A.972.972,0,0,1,295.028,174.6Z" transform="translate(-263.901 -156.913)" fill="#d4f2f6"/>
        <path id="Path_900831" data-name="Path 900831" d="M374.549,174.6h-2.187a.971.971,0,0,1-.971-.971v-2.187a.971.971,0,0,1,.971-.971h2.187a.971.971,0,0,1,.971.971v2.187A.971.971,0,0,1,374.549,174.6Z" transform="translate(-335.602 -156.913)" fill="#d4f2f6"/>
        <path id="Path_900832" data-name="Path 900832" d="M56.464,250.361H54.276a.971.971,0,0,1-.971-.971V247.2a.971.971,0,0,1,.971-.971h2.187a.971.971,0,0,1,.971.971v2.187A.971.971,0,0,1,56.464,250.361Z" transform="translate(-48.8 -225.223)" fill="#f79595"/>
        <path id="Path_900833" data-name="Path 900833" d="M135.985,250.361H133.8a.971.971,0,0,1-.971-.971V247.2a.971.971,0,0,1,.971-.971h2.187a.971.971,0,0,1,.971.971v2.187A.971.971,0,0,1,135.985,250.361Z" transform="translate(-120.5 -225.223)" fill="#d4f2f6"/>
        <path id="Path_900834" data-name="Path 900834" d="M215.506,250.361h-2.187a.971.971,0,0,1-.971-.971V247.2a.971.971,0,0,1,.971-.971h2.187a.971.971,0,0,1,.971.971v2.187A.971.971,0,0,1,215.506,250.361Z" transform="translate(-192.2 -225.223)" fill="#d4f2f6"/>
        <path id="Path_900835" data-name="Path 900835" d="M56.464,326.122H54.276a.971.971,0,0,1-.971-.971v-2.187a.971.971,0,0,1,.971-.971h2.187a.971.971,0,0,1,.971.971v2.187A.971.971,0,0,1,56.464,326.122Z" transform="translate(-48.8 -293.533)" fill="#f79595"/>
        <path id="Path_900836" data-name="Path 900836" d="M135.985,326.122H133.8a.971.971,0,0,1-.971-.971v-2.187a.971.971,0,0,1,.971-.971h2.187a.971.971,0,0,1,.971.971v2.187A.971.971,0,0,1,135.985,326.122Z" transform="translate(-120.5 -293.533)" fill="#d4f2f6"/>
        <g id="Group_1111846" data-name="Group 1111846" transform="translate(0 3.011)">
          <g id="XMLID_1114_">
            <path id="Path_900837" data-name="Path 900837" d="M14.879,122.617V99.171l4.5-3.308H12.006L7.5,99.171v23.446a3.614,3.614,0,0,0,3.614,3.614h7.378A3.614,3.614,0,0,1,14.879,122.617Z" transform="translate(-7.501 -92.655)" fill="#efedef"/>
            <g id="Group_1111844" data-name="Group 1111844" transform="translate(4.505 10.546)">
              <path id="Path_900838" data-name="Path 900838" d="M54.276,326.123h1.9v-4.13h-1.9a.971.971,0,0,0-.971.971v2.187A.971.971,0,0,0,54.276,326.123Z" transform="translate(-53.305 -307.091)" fill="#ee6161"/>
              <path id="Path_900839" data-name="Path 900839" d="M54.276,250.361h1.9v-4.13h-1.9a.971.971,0,0,0-.971.971v2.187A.971.971,0,0,0,54.276,250.361Z" transform="translate(-53.305 -238.78)" fill="#ee6161"/>
              <path id="Path_900840" data-name="Path 900840" d="M54.276,174.6h1.9v-4.13h-1.9a.971.971,0,0,0-.971.971v2.187A.971.971,0,0,0,54.276,174.6Z" transform="translate(-53.305 -170.47)" fill="#ee6161"/>
            </g>
            <g id="Group_1111845" data-name="Group 1111845" transform="translate(0 0)">
              <path id="Path_900841" data-name="Path 900841" d="M52.069,66.858v2.8H7.5v-2.8a3.615,3.615,0,0,1,3.614-3.614h37.34A3.615,3.615,0,0,1,52.069,66.858Z" transform="translate(-7.501 -63.244)" fill="#d4f2f6"/>
            </g>
            <path id="Path_900842" data-name="Path 900842" d="M18.493,63.243H11.115A3.615,3.615,0,0,0,7.5,66.857v2.8h7.378v-2.8A3.615,3.615,0,0,1,18.493,63.243Z" transform="translate(-7.501 -63.243)" fill="#a6e7f0"/>
          </g>
        </g>
        <g id="Group_1111847" data-name="Group 1111847" transform="translate(8.022 0)">
          <path id="Path_900843" data-name="Path 900843" d="M220.106,38.848a1.524,1.524,0,0,1-1.524-1.524V34.149a1.524,1.524,0,1,1,3.048,0v3.174A1.524,1.524,0,0,1,220.106,38.848Z" transform="translate(-205.844 -32.625)" fill="#efedef"/>
          <path id="Path_900844" data-name="Path 900844" d="M155.347,38.848a1.524,1.524,0,0,1-1.524-1.524V34.149a1.524,1.524,0,0,1,3.048,0v3.174A1.524,1.524,0,0,1,155.347,38.848Z" transform="translate(-147.454 -32.625)" fill="#efedef"/>
          <path id="Path_900845" data-name="Path 900845" d="M90.589,38.848a1.524,1.524,0,0,1-1.524-1.524V34.149a1.524,1.524,0,0,1,3.048,0v3.174A1.524,1.524,0,0,1,90.589,38.848Z" transform="translate(-89.065 -32.625)" fill="#efedef"/>
          <path id="Path_900846" data-name="Path 900846" d="M284.864,38.848a1.524,1.524,0,0,0,1.524-1.524V34.149a1.524,1.524,0,0,0-3.048,0v3.174A1.524,1.524,0,0,0,284.864,38.848Z" transform="translate(-264.233 -32.625)" fill="#efedef"/>
          <path id="Path_900847" data-name="Path 900847" d="M349.623,38.848a1.524,1.524,0,0,0,1.524-1.524V34.149a1.524,1.524,0,0,0-3.048,0v3.174A1.524,1.524,0,0,0,349.623,38.848Z" transform="translate(-322.623 -32.625)" fill="#efedef"/>
        </g>
        <circle id="Ellipse_11692" data-name="Ellipse 11692" cx="1.866" cy="1.866" r="1.866" transform="translate(35.343 30.401)" fill="#00f2a6"/>
      </g>
      <g id="Group_1111849" data-name="Group 1111849" transform="translate(0 25.124)">
        <path id="Path_900848" data-name="Path 900848" d="M24.162,61.712H4.352a2.88,2.88,0,0,1-2.877-2.877V36.127H6.382a.738.738,0,0,0,0-1.475H1.475V32.588a2.88,2.88,0,0,1,2.877-2.877h3.67v.85a2.262,2.262,0,0,0,4.524,0v-.85h1.845v.85a2.262,2.262,0,1,0,4.524,0v-.85H20.76v.85a2.262,2.262,0,0,0,4.524,0v-.85h1.845v.85a2.262,2.262,0,1,0,4.524,0v-.85H33.5v.85a2.262,2.262,0,1,0,4.524,0v-.85h3.67a2.88,2.88,0,0,1,2.877,2.877v2.064H9.526a.738.738,0,1,0,0,1.475H44.568V45.7a.738.738,0,1,0,1.475,0V32.587a4.357,4.357,0,0,0-4.352-4.352h-3.67v-.849a2.262,2.262,0,1,0-4.524,0v.849H31.653v-.849a2.262,2.262,0,1,0-4.524,0v.849H25.284v-.849a2.262,2.262,0,0,0-4.524,0v.849H18.915v-.849a2.262,2.262,0,1,0-4.524,0v.849H12.546v-.849a2.262,2.262,0,0,0-4.524,0v.849H4.352A4.357,4.357,0,0,0,0,32.587V58.835a4.357,4.357,0,0,0,4.352,4.352h19.81a.738.738,0,0,0,0-1.475ZM34.973,27.386a.787.787,0,1,1,1.573,0V30.56a.787.787,0,1,1-1.573,0Zm-6.369,0a.787.787,0,1,1,1.573,0V30.56a.787.787,0,1,1-1.573,0Zm-6.369,0a.787.787,0,0,1,1.573,0V30.56a.787.787,0,0,1-1.573,0Zm-6.369,0a.787.787,0,1,1,1.573,0V30.56a.787.787,0,1,1-1.573,0Zm-6.369,0a.787.787,0,0,1,1.573,0V30.56a.787.787,0,0,1-1.573,0Z" transform="translate(0 -25.124)"/>
        <path id="Path_900849" data-name="Path 900849" d="M273.7,236.34a12.28,12.28,0,0,0-10.582,6.095.738.738,0,0,0,1.276.741,10.707,10.707,0,1,1-1.117,2.732.738.738,0,0,0-1.43-.364,12.233,12.233,0,1,0,11.854-9.2Z" transform="translate(-235.749 -215.567)"/>
        <path id="Path_900850" data-name="Path 900850" d="M379.808,268.839v-.64a.738.738,0,1,0-1.475,0v.64a.738.738,0,1,0,1.475,0Z" transform="translate(-341.124 -243.628)"/>
        <path id="Path_900851" data-name="Path 900851" d="M318.892,294.5a.738.738,0,0,0,.522-1.259l-.452-.453a.738.738,0,0,0-1.043,1.043l.452.453a.735.735,0,0,0,.522.216Z" transform="translate(-286.456 -266.273)"/>
        <path id="Path_900852" data-name="Path 900852" d="M293.963,354.684a.738.738,0,1,0,0-1.475h-.64a.738.738,0,1,0,0,1.475Z" transform="translate(-263.81 -320.942)"/>
        <path id="Path_900853" data-name="Path 900853" d="M317.917,410.953a.738.738,0,0,0,1.043,0l.452-.452a.738.738,0,1,0-1.043-1.043l-.452.452A.738.738,0,0,0,317.917,410.953Z" transform="translate(-286.455 -371.463)"/>
        <path id="Path_900854" data-name="Path 900854" d="M378.333,433.189v.64a.738.738,0,1,0,1.475,0v-.64a.738.738,0,0,0-1.475,0Z" transform="translate(-341.124 -392.39)"/>
        <path id="Path_900855" data-name="Path 900855" d="M434.582,410.5l.452.452a.738.738,0,0,0,1.043-1.043l-.452-.452a.738.738,0,0,0-1.043,1.043Z" transform="translate(-391.646 -371.464)"/>
        <path id="Path_900856" data-name="Path 900856" d="M458.952,354.684a.738.738,0,1,0,0-1.475h-.64a.738.738,0,0,0,0,1.475Z" transform="translate(-412.573 -320.942)"/>
        <path id="Path_900857" data-name="Path 900857" d="M435.1,294.5a.735.735,0,0,0,.522-.216l.452-.453a.738.738,0,1,0-1.043-1.043l-.452.453a.738.738,0,0,0,.522,1.259Z" transform="translate(-391.647 -266.273)"/>
        <path id="Path_900858" data-name="Path 900858" d="M345.5,315.505a.738.738,0,1,0-1.1.986l1.687,1.876a2.6,2.6,0,1,0,4.617.353l1.357-1.11a.738.738,0,1,0-.934-1.142l-1.358,1.11a2.6,2.6,0,0,0-2.586-.2Zm3.936,4.225a1.128,1.128,0,1,1-1.886-.834l0,0,0,0a1.126,1.126,0,0,1,1.877.842Z" transform="translate(-310.357 -286.726)"/>
        <path id="Path_900859" data-name="Path 900859" d="M51.41,164.679A1.711,1.711,0,0,0,49.7,162.97H47.514a1.711,1.711,0,0,0-1.709,1.709v2.187a1.711,1.711,0,0,0,1.709,1.709H49.7a1.711,1.711,0,0,0,1.709-1.709Zm-1.475,2.187a.234.234,0,0,1-.234.234H47.514a.234.234,0,0,1-.234-.234v-2.187a.234.234,0,0,1,.234-.234H49.7a.234.234,0,0,1,.234.234Z" transform="translate(-41.3 -149.413)"/>
        <path id="Path_900860" data-name="Path 900860" d="M130.931,164.679a1.711,1.711,0,0,0-1.709-1.709h-2.187a1.711,1.711,0,0,0-1.709,1.709v2.187a1.711,1.711,0,0,0,1.709,1.709h2.187a1.711,1.711,0,0,0,1.709-1.709Zm-1.475,2.187a.234.234,0,0,1-.234.234h-2.187a.234.234,0,0,1-.234-.234v-2.187a.234.234,0,0,1,.234-.234h2.187a.234.234,0,0,1,.234.234Z" transform="translate(-113 -149.413)"/>
        <path id="Path_900861" data-name="Path 900861" d="M206.556,162.97a1.711,1.711,0,0,0-1.709,1.709v2.187a1.711,1.711,0,0,0,1.709,1.709h2.187a1.711,1.711,0,0,0,1.709-1.709v-2.187a1.711,1.711,0,0,0-1.709-1.709Zm2.421,1.709v2.187a.234.234,0,0,1-.234.234h-2.187a.234.234,0,0,1-.234-.234v-2.187a.234.234,0,0,1,.234-.234h2.187A.234.234,0,0,1,208.977,164.679Z" transform="translate(-184.7 -149.413)"/>
        <path id="Path_900862" data-name="Path 900862" d="M286.077,162.97a1.711,1.711,0,0,0-1.709,1.709v2.187a1.711,1.711,0,0,0,1.709,1.709h2.187a1.711,1.711,0,0,0,1.709-1.709v-2.187a1.711,1.711,0,0,0-1.709-1.709Zm2.421,1.709v2.187a.234.234,0,0,1-.234.234h-2.187a.234.234,0,0,1-.234-.234v-2.187a.234.234,0,0,1,.234-.234h2.187A.234.234,0,0,1,288.5,164.679Z" transform="translate(-256.4 -149.413)"/>
        <path id="Path_900863" data-name="Path 900863" d="M365.6,162.97a1.711,1.711,0,0,0-1.709,1.709v2.187a1.711,1.711,0,0,0,1.709,1.709h2.187a1.711,1.711,0,0,0,1.709-1.709v-2.187a1.711,1.711,0,0,0-1.709-1.709Zm2.421,1.709v2.187a.234.234,0,0,1-.234.234H365.6a.234.234,0,0,1-.234-.234v-2.187a.234.234,0,0,1,.234-.234h2.187A.234.234,0,0,1,368.02,164.679Z" transform="translate(-328.101 -149.413)"/>
        <path id="Path_900864" data-name="Path 900864" d="M51.41,240.44a1.711,1.711,0,0,0-1.709-1.709H47.514a1.711,1.711,0,0,0-1.709,1.709v2.187a1.711,1.711,0,0,0,1.709,1.709H49.7a1.711,1.711,0,0,0,1.709-1.709Zm-1.475,2.187a.234.234,0,0,1-.234.234H47.514a.234.234,0,0,1-.234-.234V240.44a.234.234,0,0,1,.234-.234H49.7a.234.234,0,0,1,.234.234Z" transform="translate(-41.3 -217.723)"/>
        <path id="Path_900865" data-name="Path 900865" d="M130.931,240.44a1.711,1.711,0,0,0-1.709-1.709h-2.187a1.711,1.711,0,0,0-1.709,1.709v2.187a1.711,1.711,0,0,0,1.709,1.709h2.187a1.711,1.711,0,0,0,1.709-1.709Zm-1.475,2.187a.234.234,0,0,1-.234.234h-2.187a.234.234,0,0,1-.234-.234V240.44a.234.234,0,0,1,.234-.234h2.187a.234.234,0,0,1,.234.234Z" transform="translate(-113 -217.723)"/>
        <path id="Path_900866" data-name="Path 900866" d="M210.452,240.44a1.711,1.711,0,0,0-1.709-1.709h-2.187a1.711,1.711,0,0,0-1.709,1.709v2.187a1.711,1.711,0,0,0,1.709,1.709h2.187a1.711,1.711,0,0,0,1.709-1.709Zm-1.475,2.187a.234.234,0,0,1-.234.234h-2.187a.234.234,0,0,1-.234-.234V240.44a.234.234,0,0,1,.234-.234h2.187a.234.234,0,0,1,.234.234Z" transform="translate(-184.7 -217.723)"/>
        <path id="Path_900867" data-name="Path 900867" d="M49.7,314.492H47.514a1.711,1.711,0,0,0-1.709,1.709v2.187a1.711,1.711,0,0,0,1.709,1.709H49.7a1.711,1.711,0,0,0,1.709-1.709V316.2A1.711,1.711,0,0,0,49.7,314.492Zm.234,3.9a.234.234,0,0,1-.234.234H47.514a.234.234,0,0,1-.234-.234V316.2a.234.234,0,0,1,.234-.234H49.7a.234.234,0,0,1,.234.234Z" transform="translate(-41.3 -286.033)"/>
        <path id="Path_900868" data-name="Path 900868" d="M129.222,314.492h-2.187a1.711,1.711,0,0,0-1.709,1.709v2.187a1.711,1.711,0,0,0,1.709,1.709h2.187a1.711,1.711,0,0,0,1.709-1.709V316.2A1.711,1.711,0,0,0,129.222,314.492Zm.234,3.9a.234.234,0,0,1-.234.234h-2.187a.234.234,0,0,1-.234-.234V316.2a.234.234,0,0,1,.234-.234h2.187a.234.234,0,0,1,.234.234Z" transform="translate(-113 -286.033)"/>
      </g>
    </g>
  </g>
</svg>
