<svg xmlns="http://www.w3.org/2000/svg" width="77" height="77" viewBox="0 0 77 77">
  <g id="Group_1111843" data-name="Group 1111843" transform="translate(-11392 9456)">
    <g id="Group_1111485" data-name="Group 1111485" transform="translate(10371.27 -12549)">
      <g id="Group_1098742" data-name="Group 1098742" transform="translate(1020.73 3093)">
        <rect id="Rectangle_400898" data-name="Rectangle 400898" width="77" height="77" rx="38.5" transform="translate(0 0)" fill="#ccda2d"/>
        <rect id="Rectangle_400907" data-name="Rectangle 400907" width="77" height="77" rx="38.5" transform="translate(0 0)" fill="none"/>
      </g>
    </g>
    <g id="publico-objetivo" transform="translate(11403 -9446.963)">
      <path id="Path_900813" data-name="Path 900813" d="M290.539,282.257a11.454,11.454,0,0,0-6.426,1.96l-5.695-1.005,1.743,5.576a11.51,11.51,0,1,0,10.379-6.531Z" transform="translate(-248.992 -250.67)" fill="#61a2ff"/>
      <path id="Trazado_900814" data-name="Trazado 900814" d="M281.6,272.257a12.565,12.565,0,1,1-12.565,12.565,12.448,12.448,0,0,1,1.056-5.049l-1.621-5.188a1.057,1.057,0,0,1,1.193-1.356l5.285.933A12.5,12.5,0,0,1,281.6,272.257Zm0,23.017a10.452,10.452,0,1,0-5.836-19.124,1.057,1.057,0,0,1-.775.165l-3.984-.7,1.224,3.918a1.057,1.057,0,0,1-.056.773,10.455,10.455,0,0,0,9.426,14.972Z" transform="translate(-240.049 -241.727)"/>
      <g id="Group_1111842" data-name="Group 1111842" transform="translate(32.409 35.399)">
        <path id="Path_900815" data-name="Path 900815" d="M363.414,336.729h0a3.529,3.529,0,0,1-3.529-3.529v-1.348a3.529,3.529,0,0,1,3.529-3.529h0a3.529,3.529,0,0,1,3.529,3.529V333.2A3.529,3.529,0,0,1,363.414,336.729Z" transform="translate(-354.258 -327.266)" fill="#ffc6ae"/>
        <path id="Path_900816" data-name="Path 900816" d="M332.839,412.5v1.74a11.509,11.509,0,0,1-16.2.034V412.5a4.654,4.654,0,0,1,4.653-4.654h6.892A4.654,4.654,0,0,1,332.839,412.5Z" transform="translate(-315.583 -398.385)" fill="#ffce62"/>
        <path id="Trazado_900817" data-name="Trazado 900817" d="M354.471,328.842a4.591,4.591,0,0,1-4.586-4.586v-1.348a4.586,4.586,0,1,1,9.171,0v1.348A4.591,4.591,0,0,1,354.471,328.842Zm0-8.406A2.475,2.475,0,0,0,352,322.909v1.348a2.472,2.472,0,1,0,4.944,0v-1.348A2.475,2.475,0,0,0,354.471,320.437Z" transform="translate(-345.314 -318.323)"/>
        <path id="Trazado_900818" data-name="Trazado 900818" d="M312.35,397.847h6.892a5.711,5.711,0,0,1,5.711,5.711v1.74a1.057,1.057,0,0,1-.312.749,12.566,12.566,0,0,1-17.687.036,1.057,1.057,0,0,1-.314-.752v-1.774A5.717,5.717,0,0,1,312.35,397.847Zm10.49,7v-1.288a3.6,3.6,0,0,0-3.6-3.6H312.35a3.6,3.6,0,0,0-3.6,3.6v1.32a10.453,10.453,0,0,0,14.085-.031Z" transform="translate(-306.64 -389.442)"/>
        <path id="Línea_565" data-name="Línea 565" d="M-8.943-4.329A1.057,1.057,0,0,1-10-5.386V-8.943A1.057,1.057,0,0,1-8.943-10,1.057,1.057,0,0,1-7.886-8.943v3.557A1.057,1.057,0,0,1-8.943-4.329Z" transform="translate(14.12 23.643)"/>
        <path id="Línea_566" data-name="Línea 566" d="M-8.943-4.329A1.057,1.057,0,0,1-10-5.386V-8.943A1.057,1.057,0,0,1-8.943-10,1.057,1.057,0,0,1-7.886-8.943v3.557A1.057,1.057,0,0,1-8.943-4.329Z" transform="translate(22.058 23.643)"/>
      </g>
      <path id="Path_900819" data-name="Path 900819" d="M49.97,81.279a20.044,20.044,0,0,1-.288,3.4,11.444,11.444,0,0,0-5.618,1.932l-.253-.045-5.442-.96,1.743,5.575a11.545,11.545,0,0,0-.787,7.774A19.988,19.988,0,1,1,49.97,81.279Z" transform="translate(-8.943 -53.061)" fill="#fff"/>
      <path id="Línea_567" data-name="Línea 567" transform="translate(6.644 14.36)"/>
      <path id="Trazado_900820" data-name="Trazado 900820" d="M21.042,93.377A21.045,21.045,0,0,1,2.9,61.677a1.057,1.057,0,1,1,1.822,1.072A18.934,18.934,0,0,0,29.178,89.43a12.63,12.63,0,0,1,.428-6.136c.124-.38.269-.76.433-1.132l-1.622-5.188a1.057,1.057,0,0,1,1.192-1.356l5.286.933a12.543,12.543,0,0,1,4.92-1.784A18.942,18.942,0,0,0,21.042,53.407a18.851,18.851,0,0,0-10.321,3.06A1.057,1.057,0,1,1,9.567,54.7,21.043,21.043,0,0,1,42.084,72.335a21.171,21.171,0,0,1-.3,3.576,1.057,1.057,0,0,1-.969.875,10.422,10.422,0,0,0-5.1,1.754,1.057,1.057,0,0,1-.776.164l-.253-.045L30.953,78l1.225,3.917a1.057,1.057,0,0,1-.056.773,10.488,10.488,0,0,0-.715,7.059,1.057,1.057,0,0,1-.53,1.191A21.075,21.075,0,0,1,21.042,93.377Z" transform="translate(0 -44.117)"/>
      <path id="Path_900821" data-name="Path 900821" d="M87.706,130.459l-5.442-.96,1.743,5.575a11.386,11.386,0,0,0-.559,1.39,14.765,14.765,0,1,1,4.258-6.005Z" transform="translate(-52.839 -96.956)" fill="#ff7e96"/>
      <circle id="Ellipse_11689" data-name="Ellipse 11689" cx="9.41" cy="9.41" r="9.41" transform="translate(11.632 18.808)" fill="#fff"/>
      <circle id="Ellipse_11690" data-name="Ellipse 11690" cx="4.167" cy="4.167" r="4.167" transform="translate(16.875 24.051)" fill="#ff7e96"/>
      <path id="Trazado_900822" data-name="Trazado 900822" d="M64.937,132.086A15.842,15.842,0,1,1,79.75,121.893a1.057,1.057,0,0,1-1.171.663l-3.732-.658,1.225,3.917a1.057,1.057,0,0,1-.056.773,10.361,10.361,0,0,0-.507,1.261,1.057,1.057,0,0,1-.321.478A15.862,15.862,0,0,1,64.937,132.086Zm0-29.6A13.741,13.741,0,1,0,73.6,126.9c.1-.282.212-.563.333-.839l-1.622-5.188a1.057,1.057,0,0,1,1.192-1.356l4.556.8a13.752,13.752,0,0,0-13.123-17.827Z" transform="translate(-43.895 -88.013)"/>
      <path id="Elipse_11691" data-name="Elipse 11691" d="M.467-10A10.479,10.479,0,0,1,10.934.467,10.479,10.479,0,0,1,.467,10.934,10.479,10.479,0,0,1-10,.467,10.479,10.479,0,0,1,.467-10Zm0,18.82A8.363,8.363,0,0,0,8.82.467,8.363,8.363,0,0,0,.467-7.886,8.363,8.363,0,0,0-7.886.467,8.363,8.363,0,0,0,.467,8.82Z" transform="translate(20.576 27.751)"/>
      <path id="Elipse_11692" data-name="Elipse 11692" d="M-4.776-10A5.23,5.23,0,0,1,.449-4.776,5.23,5.23,0,0,1-4.776.449,5.23,5.23,0,0,1-10-4.776,5.23,5.23,0,0,1-4.776-10Zm0,8.335a3.114,3.114,0,0,0,3.11-3.11,3.114,3.114,0,0,0-3.11-3.11,3.114,3.114,0,0,0-3.11,3.11A3.114,3.114,0,0,0-4.776-1.665Z" transform="translate(25.818 32.994)"/>
      <path id="Línea_568" data-name="Línea 568" d="M-8.943,8.615a1.054,1.054,0,0,1-.748-.31,1.057,1.057,0,0,1,0-1.495L6.852-9.691a1.057,1.057,0,0,1,1.495,0,1.057,1.057,0,0,1,0,1.495L-8.2,8.306A1.054,1.054,0,0,1-8.943,8.615Z" transform="translate(29.986 20.661)"/>
      <path id="Path_900823" data-name="Path 900823" d="M355.609,20.661h4.551l4.147-4.282h-4.416V11.963l-4.282,4.147Z" transform="translate(-318.025 -8.943)" fill="#868eaf"/>
      <path id="Trazado_900824" data-name="Trazado 900824" d="M351.217,12.774h-4.551a1.057,1.057,0,0,1-1.057-1.057V7.167a1.057,1.057,0,0,1,.322-.759l4.282-4.147A1.057,1.057,0,0,1,352,3.02V6.379h3.359a1.057,1.057,0,0,1,.759,1.792l-4.147,4.282A1.057,1.057,0,0,1,351.217,12.774Zm-3.494-2.114h3.046l2.1-2.168h-1.921a1.057,1.057,0,0,1-1.057-1.057V5.515l-2.168,2.1Z" transform="translate(-309.082 0)"/>
    </g>
  </g>
</svg>
