<svg xmlns="http://www.w3.org/2000/svg" width="77" height="77" viewBox="0 0 77 77">
  <g id="Group_1111858" data-name="Group 1111858" transform="translate(-445 -4130)">
    <g id="Group_1111495" data-name="Group 1111495" transform="translate(-575.73 1037)">
      <g id="Group_1098742" data-name="Group 1098742" transform="translate(1020.73 3093)">
        <rect id="Rectangle_400898" data-name="Rectangle 400898" width="77" height="77" rx="38.5" transform="translate(0 0)" fill="#ccda2d"/>
        <rect id="Rectangle_400907" data-name="Rectangle 400907" width="77" height="77" rx="38.5" transform="translate(0 0)" fill="none"/>
      </g>
    </g>
    <g id="encuesta" transform="translate(462 4147)">
      <path id="Path_900905" data-name="Path 900905" d="M8,8H49.495V49.495H8Z" transform="translate(-7.331 -7.331)" fill="#dce1eb"/>
      <path id="Path_900906" data-name="Path 900906" d="M47.258,46.936H76.883V8H37.888V37.566a9.37,9.37,0,0,0,9.369,9.37Z" transform="translate(-34.718 -7.331)" fill="#e9edf5"/>
      <path id="Path_900907" data-name="Path 900907" d="M70.8,435.537a4.915,4.915,0,0,0-5.364,0,1.446,1.446,0,0,0-.625,1.191s0,1.8,0,3.806l6.613,0v-3.808A1.447,1.447,0,0,0,70.8,435.537Z" transform="translate(-59.39 -398.371)" fill="#00c8c8"/>
      <path id="Path_900908" data-name="Path 900908" d="M86.316,384.555h-.667a1.342,1.342,0,0,0-1.342,1.342v.831a2.134,2.134,0,0,0,.781,1.651l.119.1a1.222,1.222,0,0,0,1.549,0l.119-.1a2.134,2.134,0,0,0,.781-1.651V385.9a1.342,1.342,0,0,0-1.342-1.342Z" transform="translate(-77.254 -352.383)" fill="#00c8c8"/>
      <path id="Path_900909" data-name="Path 900909" d="M222.462,435.537a4.915,4.915,0,0,0-5.364,0,1.446,1.446,0,0,0-.625,1.191s0,1.8,0,3.806l6.613,0v-3.808A1.446,1.446,0,0,0,222.462,435.537Z" transform="translate(-198.363 -398.371)" fill="#eb3958"/>
      <path id="Path_900910" data-name="Path 900910" d="M237.982,384.555h-.667a1.342,1.342,0,0,0-1.342,1.342v.831a2.134,2.134,0,0,0,.781,1.651l.119.1a1.222,1.222,0,0,0,1.549,0l.119-.1a2.134,2.134,0,0,0,.781-1.651V385.9a1.342,1.342,0,0,0-1.342-1.342Z" transform="translate(-216.232 -352.383)" fill="#eb3958"/>
      <path id="Path_900911" data-name="Path 900911" d="M374.128,435.537a4.915,4.915,0,0,0-5.364,0,1.446,1.446,0,0,0-.625,1.191s0,1.8,0,3.806l6.613,0v-3.808A1.446,1.446,0,0,0,374.128,435.537Z" transform="translate(-337.341 -398.371)" fill="#f9b534"/>
      <path id="Path_900912" data-name="Path 900912" d="M389.648,384.555h-.667a1.342,1.342,0,0,0-1.342,1.342v.831a2.134,2.134,0,0,0,.781,1.651l.12.1a1.222,1.222,0,0,0,1.549,0l.119-.1a2.134,2.134,0,0,0,.781-1.651V385.9a1.342,1.342,0,0,0-1.342-1.342Z" transform="translate(-355.209 -352.383)" fill="#f9b534"/>
      <path id="Path_900913" data-name="Path 900913" d="M0,0H14.324V5H0Z" transform="translate(6.228 29.668) rotate(-90)" fill="#00c8c8"/>
      <path id="Path_900914" data-name="Path 900914" d="M0,0H19.352V5H0Z" transform="translate(18.916 29.668) rotate(-90)" fill="#eb3958"/>
      <path id="Path_900915" data-name="Path 900915" d="M0,0H6.849V5H0Z" transform="translate(31.605 29.668) rotate(-90)" fill="#f9b534"/>
      <path id="Trazado_900916" data-name="Trazado 900916" d="M42.164,497.339H.669a.669.669,0,0,1,0-1.339H42.164a.669.669,0,0,1,0,1.339Z" transform="translate(0 -454.505)"/>
      <path id="Path_900917" data-name="Path 900917" d="M71.646,91.011l-5,5a.669.669,0,0,0,.947.947l5-5a.669.669,0,0,0-.947-.947Z" transform="translate(-60.89 -83.217)"/>
      <path id="Path_900918" data-name="Path 900918" d="M97.631,151.93a.669.669,0,1,0,0-1.339h-.625a.669.669,0,1,0,0,1.339Z" transform="translate(-88.278 -137.993)"/>
      <path id="Path_900919" data-name="Path 900919" d="M89.533,92.154h.625a.669.669,0,0,0,0-1.339h-.625a.669.669,0,0,0,0,1.339Z" transform="translate(-81.43 -83.217)"/>
      <path id="Path_900920" data-name="Path 900920" d="M369.975,185.626a.669.669,0,0,0,.947,0l5-5a.669.669,0,1,0-.947-.947l-5,5A.669.669,0,0,0,369.975,185.626Z" transform="translate(-338.844 -164.468)"/>
      <path id="Path_900921" data-name="Path 900921" d="M400.338,239.26a.669.669,0,1,0,0,1.339h.625a.669.669,0,0,0,0-1.339Z" transform="translate(-366.233 -219.244)"/>
      <path id="Path_900922" data-name="Path 900922" d="M393.494,180.822a.669.669,0,1,0,0-1.339h-.625a.669.669,0,0,0,0,1.339Z" transform="translate(-359.389 -164.468)"/>
      <path id="Path_900923" data-name="Path 900923" d="M64.093,385.213a.669.669,0,0,0,.669-.669v-1.132a2.116,2.116,0,0,0-.914-1.742,5.061,5.061,0,0,0-1.252-.624,2.793,2.793,0,0,0,.535-1.647v-.831a2.014,2.014,0,0,0-2.011-2.011h-.667a2.014,2.014,0,0,0-2.011,2.011v.831a2.792,2.792,0,0,0,.535,1.646,5.068,5.068,0,0,0-1.252.625,2.117,2.117,0,0,0-.913,1.741v1.266a.67.67,0,0,0,.669.683h0a.675.675,0,0,0,.669-.675h0v-1.273a.778.778,0,0,1,.335-.64,4.248,4.248,0,0,1,4.6,0,.777.777,0,0,1,.335.64v1.132a.669.669,0,0,0,.669.669Zm-4.313-6.644a.674.674,0,0,1,.673-.673h.667a.674.674,0,0,1,.673.673v.831a1.46,1.46,0,0,1-.536,1.133l-.119.1a.554.554,0,0,1-.7,0l-.12-.1a1.46,1.46,0,0,1-.536-1.133Z" transform="translate(-52.058 -345.055)"/>
      <path id="Path_900924" data-name="Path 900924" d="M208.477,383.411v1.266a.67.67,0,0,0,.669.683h0a.675.675,0,0,0,.669-.675h0v-1.273a.778.778,0,0,1,.335-.64,4.248,4.248,0,0,1,4.6,0,.777.777,0,0,1,.335.64v1.132a.669.669,0,1,0,1.339,0v-1.132a2.116,2.116,0,0,0-.914-1.742,5.062,5.062,0,0,0-1.252-.624,2.792,2.792,0,0,0,.535-1.647v-.831a2.014,2.014,0,0,0-2.011-2.011h-.667a2.014,2.014,0,0,0-2.012,2.011v.831a2.793,2.793,0,0,0,.535,1.647,5.068,5.068,0,0,0-1.252.625A2.117,2.117,0,0,0,208.477,383.411Zm2.97-4.843a.674.674,0,0,1,.673-.673h.667a.674.674,0,0,1,.673.673v.831a1.46,1.46,0,0,1-.536,1.133l-.119.1a.554.554,0,0,1-.7,0l-.12-.1a1.46,1.46,0,0,1-.536-1.133Z" transform="translate(-191.036 -345.055)"/>
      <path id="Path_900925" data-name="Path 900925" d="M360.138,383.411v1.266a.67.67,0,0,0,.669.682h0a.675.675,0,0,0,.669-.675h0v-.141c0-.009,0-.018,0-.027,0-.347,0-1.1,0-1.1a.778.778,0,0,1,.335-.64,4.248,4.248,0,0,1,4.6,0,.778.778,0,0,1,.335.64v1.132a.669.669,0,0,0,1.339,0v-1.132a2.116,2.116,0,0,0-.914-1.742,5.064,5.064,0,0,0-1.252-.624,2.793,2.793,0,0,0,.535-1.646v-.831a2.014,2.014,0,0,0-2.011-2.011h-.667a2.014,2.014,0,0,0-2.011,2.011v.831a2.793,2.793,0,0,0,.535,1.647,5.064,5.064,0,0,0-1.252.625A2.116,2.116,0,0,0,360.138,383.411Zm2.969-4.843a.674.674,0,0,1,.673-.673h.667a.674.674,0,0,1,.673.673v.831a1.459,1.459,0,0,1-.536,1.133l-.119.1a.554.554,0,0,1-.7,0l-.12-.1a1.46,1.46,0,0,1-.536-1.133Z" transform="translate(-330.009 -345.055)"/>
      <path id="Path_900926" data-name="Path 900926" d="M66.446,176.08V190.4a.669.669,0,0,0,.669.669h5a.669.669,0,0,0,.669-.669V176.08a.669.669,0,0,0-.669-.669h-5A.669.669,0,0,0,66.446,176.08Zm1.339.669h3.662v12.985H67.785Z" transform="translate(-60.887 -160.736)"/>
      <path id="Path_900927" data-name="Path 900927" d="M218.112,115.98v19.352a.669.669,0,0,0,.669.669h5a.669.669,0,0,0,.669-.669V115.98a.669.669,0,0,0-.669-.669h-5A.669.669,0,0,0,218.112,115.98Zm1.339.669h3.662v18.013h-3.662Z" transform="translate(-199.865 -105.664)"/>
      <path id="Path_900928" data-name="Path 900928" d="M369.778,272.276a.669.669,0,0,0,.669.669h5a.669.669,0,0,0,.669-.669v-6.849a.669.669,0,0,0-.669-.669h-5a.669.669,0,0,0-.669.669Zm1.339-6.18h3.662v5.511h-3.662Z" transform="translate(-338.843 -242.609)"/>
      <path id="Path_900929" data-name="Path 900929" d="M218.308,35.03a.669.669,0,0,0,.947,0l5-5a.669.669,0,0,0-.947-.947l-5,5A.669.669,0,0,0,218.308,35.03Z" transform="translate(-199.865 -26.47)"/>
      <path id="Path_900930" data-name="Path 900930" d="M249.294,90a.669.669,0,0,0,0-1.339h-.625a.669.669,0,1,0,0,1.339Z" transform="translate(-227.252 -81.246)"/>
      <path id="Path_900931" data-name="Path 900931" d="M241.822,30.227a.669.669,0,1,0,0-1.339H241.2a.669.669,0,1,0,0,1.339Z" transform="translate(-220.406 -26.471)"/>
      <path id="Path_900932" data-name="Path 900932" d="M42.164,0H8.58a.669.669,0,0,0,0,1.339H41.495V41.495H1.339V1.339H5.9A.669.669,0,1,0,5.9,0H.669A.669.669,0,0,0,0,.669V42.164a.669.669,0,0,0,.669.669H42.164a.669.669,0,0,0,.669-.669V.669A.669.669,0,0,0,42.164,0Z" transform="translate(0)"/>
    </g>
  </g>
</svg>
