<svg xmlns="http://www.w3.org/2000/svg" width="77" height="77" viewBox="0 0 77 77">
  <g id="Group_1111857" data-name="Group 1111857" transform="translate(-1230 -3655)">
    <g id="Group_1111492" data-name="Group 1111492" transform="translate(209.27 562)">
      <g id="Group_1098742" data-name="Group 1098742" transform="translate(1020.73 3093)">
        <rect id="Rectangle_400898" data-name="Rectangle 400898" width="77" height="77" rx="38.5" transform="translate(0 0)" fill="#ccda2d"/>
        <rect id="Rectangle_400907" data-name="Rectangle 400907" width="77" height="77" rx="38.5" transform="translate(0 0)" fill="none"/>
      </g>
    </g>
    <g id="verificado" transform="translate(1193 3668)">
      <g id="Group_1111855" data-name="Group 1111855" transform="translate(56.981 0.98)">
        <path id="Path_900895" data-name="Path 900895" d="M159.512,18.817V14.9a.982.982,0,0,0-.98-.98h-6.857a3.919,3.919,0,1,0-7.837,0h-6.857a.982.982,0,0,0-.98.98v3.918a.982.982,0,0,0,.98.98h21.551A.982.982,0,0,0,159.512,18.817Z" transform="translate(-129.144 -10)" fill="#ffee80" fill-rule="evenodd"/>
        <path id="Path_900896" data-name="Path 900896" d="M72.858,63.919V60h-4.9A1.965,1.965,0,0,0,66,61.959V101.34A1.965,1.965,0,0,0,67.96,103.3h33.307a1.965,1.965,0,0,0,1.959-1.959V61.959A1.965,1.965,0,0,0,101.267,60h-4.9v3.918h2.939V99.381H69.919V63.918Z" transform="translate(-66.001 -55.102)" fill="#8690af" fill-rule="evenodd"/>
        <path id="Path_900897" data-name="Path 900897" d="M109.919,100.98a.982.982,0,0,1-.98-.98H106v35.462h29.388V100h-2.939a.983.983,0,0,1-.98.98Z" transform="translate(-102.083 -91.183)" fill="#fff" fill-rule="evenodd"/>
        <circle id="Ellipse_11697" data-name="Ellipse 11697" cx="9.765" cy="9.765" r="9.765" transform="translate(8.91 17.089)" fill="#b8ecbc"/>
        <path id="Path_900898" data-name="Path 900898" d="M199.221,242.187a1.959,1.959,0,0,1,2.77-2.77l1.152,1.152,3.4-3.4a1.959,1.959,0,1,1,2.77,2.77l-4.782,4.782a1.959,1.959,0,0,1-2.77,0Z" transform="translate(-185.653 -214.4)" fill="#fff" fill-rule="evenodd"/>
      </g>
      <g id="Group_1111856" data-name="Group 1111856" transform="translate(56.001)">
        <path id="Path_900899" data-name="Path 900899" d="M92.247,4.9H88.063a1.959,1.959,0,0,0-1.694-.98H80.393a4.9,4.9,0,0,0-9.6,0H64.818a1.959,1.959,0,0,0-1.694.98H58.94A2.942,2.942,0,0,0,56,7.837V9.8a.98.98,0,1,0,1.959,0V7.837a.981.981,0,0,1,.98-.98h3.918V8.817H60.9a.98.98,0,0,0-.98.98V45.258a.98.98,0,0,0,.98.98H77.552a.98.98,0,0,0,0-1.959H61.879v-33.5h1.245a1.959,1.959,0,0,0,1.694.98H86.369a1.959,1.959,0,0,0,1.694-.98h1.245v33.5H86.369a.98.98,0,0,0,0,1.959h3.919a.98.98,0,0,0,.98-.98V9.8a.98.98,0,0,0-.98-.98H88.328V6.857h3.918a.981.981,0,0,1,.98.98V47.217a.981.981,0,0,1-.98.98H58.94a.981.981,0,0,1-.98-.98v-28.6a.98.98,0,1,0-1.959,0v28.6a2.942,2.942,0,0,0,2.939,2.939H92.247a2.942,2.942,0,0,0,2.939-2.939V7.837A2.942,2.942,0,0,0,92.247,4.9ZM64.818,9.8V5.878h6.857a.98.98,0,0,0,.98-.98,2.939,2.939,0,0,1,5.878,0,.98.98,0,0,0,.98.98h6.857V9.8Z" transform="translate(-56.001)"/>
        <path id="Path_900900" data-name="Path 900900" d="M246.981,40h0a.98.98,0,1,0,.98.98A.979.979,0,0,0,246.98,40Z" transform="translate(-227.388 -36.082)"/>
        <path id="Path_900901" data-name="Path 900901" d="M167.553,181.777a10.776,10.776,0,1,0-10.776,10.776A10.788,10.788,0,0,0,167.553,181.777Zm-10.776,8.816a8.817,8.817,0,1,1,8.817-8.816A8.826,8.826,0,0,1,156.778,190.593Z" transform="translate(-137.185 -154.25)"/>
        <path id="Path_900902" data-name="Path 900902" d="M201,227.458a2.939,2.939,0,0,0-4.156,0l-2.7,2.7-.459-.459a2.939,2.939,0,0,0-4.156,4.156l2.537,2.537a2.942,2.942,0,0,0,4.156,0L201,231.614a2.939,2.939,0,0,0,0-4.156Zm-1.385,2.771-4.782,4.782a.981.981,0,0,1-1.385,0l-2.537-2.537a.979.979,0,0,1,1.385-1.385l1.152,1.152a.98.98,0,0,0,1.385,0l3.4-3.4a.979.979,0,1,1,1.385,1.385Z" transform="translate(-175.666 -204.399)"/>
        <path id="Path_900903" data-name="Path 900903" d="M56.981,136.961a.98.98,0,0,0,.98-.98h0a.98.98,0,1,0-.98.98Z" transform="translate(-56.001 -121.776)"/>
        <path id="Path_900904" data-name="Path 900904" d="M311.98,453.96a.98.98,0,1,0,0-1.959h0a.98.98,0,0,0,0,1.959Z" transform="translate(-286.02 -407.722)"/>
      </g>
    </g>
  </g>
</svg>
