<svg xmlns="http://www.w3.org/2000/svg" xmlns:xlink="http://www.w3.org/1999/xlink" width="77" height="77" viewBox="0 0 77 77">
  <defs>
    <clipPath id="clip-path">
      <path id="path2397" d="M0-682.665H45.239v45.239H0Z" transform="translate(0 682.665)"/>
    </clipPath>
  </defs>
  <g id="Group_1111865" data-name="Group 1111865" transform="translate(-12063 7436)">
    <g id="Group_1111500" data-name="Group 1111500" transform="translate(11042.27 -10529)">
      <g id="Group_1098742" data-name="Group 1098742" transform="translate(1020.73 3093)">
        <rect id="Rectangle_400898" data-name="Rectangle 400898" width="77" height="77" rx="38.5" transform="translate(0 0)" fill="#ccda2d"/>
        <rect id="Rectangle_400907" data-name="Rectangle 400907" width="77" height="77" rx="38.5" transform="translate(0 0)" fill="none"/>
      </g>
    </g>
    <g id="g2391" transform="translate(12079 -6737.335)">
      <g id="g2393" transform="translate(0 -682.665)">
        <g id="g2395" clip-path="url(#clip-path)">
          <g id="g2401" transform="translate(0.663 0.663)">
            <path id="path2403" d="M-259.07-618.751h-16.6a1.785,1.785,0,0,1-1.785-1.785V-660.88a1.785,1.785,0,0,1,1.785-1.785h16.6a1.785,1.785,0,0,1,1.785,1.785v40.344a1.785,1.785,0,0,1-1.785,1.785" transform="translate(277.457 662.665)" fill="#dff6fd"/>
          </g>
          <g id="g2405" transform="translate(16.372 0.663)">
            <path id="path2407" d="M-37.729,0h-2.678a1.785,1.785,0,0,1,1.785,1.785V42.129a1.785,1.785,0,0,1-1.785,1.785h2.678a1.785,1.785,0,0,0,1.785-1.785V1.785A1.785,1.785,0,0,0-37.729,0" transform="translate(40.407)" fill="#c8effe"/>
          </g>
          <g id="g2409" transform="translate(3.519 26.547)">
            <path id="path2411" d="M0-201.22v-13.388a.893.893,0,0,1,.893-.893H13.567a.893.893,0,0,1,.893.893v13.388a.893.893,0,0,1-.893.893H.893A.893.893,0,0,1,0-201.22" transform="translate(0 215.501)" fill="#ffe177"/>
          </g>
          <g id="g2413" transform="translate(3.519 20.835)">
            <path id="path2415" d="M0-30.183v-1.428a.714.714,0,0,1,.714-.714H13.745a.714.714,0,0,1,.714.714v1.428a.714.714,0,0,1-.714.714H.714A.714.714,0,0,1,0-30.183" transform="translate(0 32.325)" fill="#528fd8"/>
          </g>
          <g id="g2417" transform="translate(3.519 3.519)">
            <path id="path2419" d="M-203.735-101.867a7.23,7.23,0,0,1-7.23,7.23,7.23,7.23,0,0,1-7.23-7.23,7.23,7.23,0,0,1,7.23-7.23,7.23,7.23,0,0,1,7.23,7.23" transform="translate(218.194 109.097)" fill="#bbec6c"/>
          </g>
          <g id="g2421" transform="translate(4.574 4.574)">
            <path id="path2423" d="M-140.008,0a7.2,7.2,0,0,1,1.055,3.762,7.23,7.23,0,0,1-7.23,7.23,7.2,7.2,0,0,1-3.762-1.055A7.225,7.225,0,0,0-143.77,13.4a7.23,7.23,0,0,0,7.23-7.23A7.225,7.225,0,0,0-140.008,0" transform="translate(149.945)" fill="#a2e62e"/>
          </g>
          <g id="g2425" transform="translate(6.417 7.789)">
            <path id="path2427" d="M-82.116-5.895l-2.7,2.7-.691-.691a1.428,1.428,0,0,0-2.02,0h0a1.428,1.428,0,0,0,0,2.02L-85.7-.04a1.25,1.25,0,0,0,1.767,0L-80.1-3.875a1.428,1.428,0,0,0,0-2.02h0a1.428,1.428,0,0,0-2.02,0" transform="translate(87.943 6.313)" fill="#dff6fd"/>
          </g>
          <g id="g2429" transform="translate(24.405 0.663)">
            <path id="path2431" d="M-259.071-618.751h-16.6a1.785,1.785,0,0,1-1.785-1.785V-660.88a1.785,1.785,0,0,1,1.785-1.785h16.6a1.785,1.785,0,0,1,1.785,1.785v40.344a1.785,1.785,0,0,1-1.785,1.785" transform="translate(277.458 662.665)" fill="#dff6fd"/>
          </g>
          <g id="g2433" transform="translate(40.114 0.663)">
            <path id="path2435" d="M-37.729,0h-2.678a1.785,1.785,0,0,1,1.785,1.785V42.129a1.785,1.785,0,0,1-1.785,1.785h2.678a1.785,1.785,0,0,0,1.785-1.785V1.785A1.785,1.785,0,0,0-37.729,0" transform="translate(40.407)" fill="#c8effe"/>
          </g>
          <g id="g2437" transform="translate(27.261 26.547)">
            <path id="path2439" d="M0-201.22v-13.388a.893.893,0,0,1,.893-.893H13.567a.893.893,0,0,1,.893.893v13.388a.893.893,0,0,1-.893.893H.893A.893.893,0,0,1,0-201.22" transform="translate(0 215.501)" fill="#ffe177"/>
          </g>
          <g id="g2441" transform="translate(27.261 20.835)">
            <path id="path2443" d="M0-30.183v-1.428a.714.714,0,0,1,.714-.714H13.745a.714.714,0,0,1,.714.714v1.428a.714.714,0,0,1-.714.714H.714A.714.714,0,0,1,0-30.183" transform="translate(0 32.325)" fill="#528fd8"/>
          </g>
          <g id="g2445" transform="translate(27.261 3.519)">
            <path id="path2447" d="M-203.735-101.867a7.23,7.23,0,0,1-7.23,7.23,7.23,7.23,0,0,1-7.23-7.23,7.23,7.23,0,0,1,7.23-7.23,7.23,7.23,0,0,1,7.23,7.23" transform="translate(218.194 109.097)" fill="#fe7ab6"/>
          </g>
          <g id="g2449" transform="translate(28.316 4.574)">
            <path id="path2451" d="M-140.008,0a7.2,7.2,0,0,1,1.055,3.762,7.23,7.23,0,0,1-7.23,7.23,7.2,7.2,0,0,1-3.762-1.055A7.225,7.225,0,0,0-143.77,13.4a7.23,7.23,0,0,0,7.23-7.23A7.225,7.225,0,0,0-140.008,0" transform="translate(149.945)" fill="#fe5ca7"/>
          </g>
          <g id="g2453" transform="translate(30.98 7.238)">
            <path id="path2455" d="M-93.043-64.585l-1.073-1.073,1.073-1.073a1.428,1.428,0,0,0,0-2.02,1.428,1.428,0,0,0-2.02,0l-1.073,1.073-1.073-1.073a1.428,1.428,0,0,0-2.02,0,1.428,1.428,0,0,0,0,2.02l1.073,1.073-1.073,1.073a1.428,1.428,0,0,0,0,2.02,1.428,1.428,0,0,0,2.02,0l1.073-1.073,1.073,1.073a1.428,1.428,0,0,0,2.02,0,1.428,1.428,0,0,0,0-2.02" transform="translate(99.646 69.169)" fill="#dff6fd"/>
          </g>
          <g id="g2457" transform="translate(2.856 25.884)">
            <path id="path2459" d="M4.23-209H-8.445A1.557,1.557,0,0,1-10-210.557v-13.388A1.557,1.557,0,0,1-8.445-225.5H4.23a1.557,1.557,0,0,1,1.555,1.555v13.388A1.557,1.557,0,0,1,4.23-209ZM-8.445-224.175a.23.23,0,0,0-.23.23v13.388a.23.23,0,0,0,.23.23H4.23a.23.23,0,0,0,.23-.23v-13.388a.23.23,0,0,0-.23-.23Z" transform="translate(10 225.501)"/>
          </g>
          <g id="g2461" transform="translate(2.856 20.172)">
            <path id="path2463" d="M4.408-38.144H-8.623A1.378,1.378,0,0,1-10-39.52v-1.428a1.378,1.378,0,0,1,1.377-1.377H4.408a1.378,1.378,0,0,1,1.377,1.377v1.428A1.378,1.378,0,0,1,4.408-38.144ZM-8.623-41a.051.051,0,0,0-.051.051v1.428a.051.051,0,0,0,.051.051H4.408a.051.051,0,0,0,.051-.051v-1.428A.051.051,0,0,0,4.408-41Z" transform="translate(10 42.325)"/>
          </g>
          <g id="g2465" transform="translate(2.856 2.856)">
            <path id="path2467" d="M-220.3-119.1a7.9,7.9,0,0,1,7.892,7.892,7.9,7.9,0,0,1-7.892,7.892,7.9,7.9,0,0,1-7.892-7.892A7.9,7.9,0,0,1-220.3-119.1Zm0,14.459a6.574,6.574,0,0,0,6.567-6.567,6.574,6.574,0,0,0-6.567-6.567,6.574,6.574,0,0,0-6.567,6.567A6.574,6.574,0,0,0-220.3-104.638Z" transform="translate(228.194 119.097)"/>
          </g>
          <g id="g2469" transform="translate(5.755 7.126)">
            <path id="path2471" d="M-90.443-16.313a2.077,2.077,0,0,1,1.479.612,2.093,2.093,0,0,1,0,2.957L-92.8-8.908a1.9,1.9,0,0,1-1.352.56,1.9,1.9,0,0,1-1.352-.56l-1.827-1.827a2.077,2.077,0,0,1-.612-1.478,2.077,2.077,0,0,1,.612-1.479,2.077,2.077,0,0,1,1.478-.612,2.077,2.077,0,0,1,1.479.612l.222.222,2.23-2.23A2.077,2.077,0,0,1-90.443-16.313Zm-3.709,6.639a.583.583,0,0,0,.415-.172l3.835-3.835a.766.766,0,0,0,0-1.083.761.761,0,0,0-.541-.224.761.761,0,0,0-.541.224l-2.7,2.7a.663.663,0,0,1-.937,0l-.691-.691a.761.761,0,0,0-.541-.224.76.76,0,0,0-.541.224.761.761,0,0,0-.224.541.76.76,0,0,0,.224.541l1.827,1.827A.583.583,0,0,0-94.152-9.674Z" transform="translate(97.943 16.313)"/>
          </g>
          <g id="g2473" transform="translate(11.782 29.187)">
            <path id="path2475" d="M-47.066-8.675h-2.678a.663.663,0,0,1-.663-.663A.663.663,0,0,1-49.744-10h2.678a.663.663,0,0,1,.663.663A.663.663,0,0,1-47.066-8.675Z" transform="translate(50.407 10)"/>
          </g>
          <g id="g2477" transform="translate(7.497 29.187)">
            <path id="path2479" d="M-29.46-8.675h-1.428a.663.663,0,0,1-.663-.663A.663.663,0,0,1-30.888-10h1.428a.663.663,0,0,1,.663.663A.663.663,0,0,1-29.46-8.675Z" transform="translate(31.551 10)"/>
          </g>
          <g id="g2481" transform="translate(5.712 32.043)">
            <path id="path2483" d="M-132.585-8.675h-8.747a.663.663,0,0,1-.663-.663.663.663,0,0,1,.663-.663h8.747a.663.663,0,0,1,.663.663A.663.663,0,0,1-132.585-8.675Z" transform="translate(141.994 10)"/>
          </g>
          <g id="g2485" transform="translate(5.712 34.899)">
            <path id="path2487" d="M-132.585-8.675h-8.747a.663.663,0,0,1-.663-.663.663.663,0,0,1,.663-.663h8.747a.663.663,0,0,1,.663.663A.663.663,0,0,1-132.585-8.675Z" transform="translate(141.994 10)"/>
          </g>
          <g id="g2489" transform="translate(5.712 37.755)">
            <path id="path2491" d="M-47.066-8.675h-2.678a.663.663,0,0,1-.663-.663A.663.663,0,0,1-49.744-10h2.678a.663.663,0,0,1,.663.663A.663.663,0,0,1-47.066-8.675Z" transform="translate(50.407 10)"/>
          </g>
          <g id="g2493" transform="translate(11.246 37.755)">
            <path id="path2495" d="M-29.46-8.675h-1.428a.663.663,0,0,1-.663-.663A.663.663,0,0,1-30.888-10h1.428a.663.663,0,0,1,.663.663A.663.663,0,0,1-29.46-8.675Z" transform="translate(31.551 10)"/>
          </g>
          <g id="g2497" transform="translate(0 0)">
            <path id="path2499" d="M10.835-106a.663.663,0,0,1-.663-.663v-29.754a1.124,1.124,0,0,0-1.123-1.122h-16.6a1.123,1.123,0,0,0-1.122,1.122v6.755a.663.663,0,0,1-.663.663.663.663,0,0,1-.663-.663v-6.755a2.45,2.45,0,0,1,2.448-2.448h16.6a2.451,2.451,0,0,1,2.448,2.448v29.754A.663.663,0,0,1,10.835-106Z" transform="translate(10 138.866)"/>
          </g>
          <g id="g2501" transform="translate(0 11.632)">
            <path id="path2503" d="M-295.35-323.445h-16.6a2.45,2.45,0,0,1-2.448-2.448v-30.5a.663.663,0,0,1,.663-.663.663.663,0,0,1,.663.663v30.5a1.123,1.123,0,0,0,1.122,1.122h16.6a1.124,1.124,0,0,0,1.123-1.122v-7.5a.663.663,0,0,1,.663-.663.663.663,0,0,1,.663.663v7.5A2.451,2.451,0,0,1-295.35-323.445Z" transform="translate(314.399 357.052)"/>
          </g>
          <g id="g2505" transform="translate(26.598 25.884)">
            <path id="path2507" d="M4.23-209H-8.445A1.557,1.557,0,0,1-10-210.557v-13.388A1.557,1.557,0,0,1-8.445-225.5H4.23a1.557,1.557,0,0,1,1.555,1.555v13.388A1.557,1.557,0,0,1,4.23-209ZM-8.445-224.175a.23.23,0,0,0-.23.23v13.388a.23.23,0,0,0,.23.23H4.23a.23.23,0,0,0,.23-.23v-13.388a.23.23,0,0,0-.23-.23Z" transform="translate(10 225.501)"/>
          </g>
          <g id="g2509" transform="translate(26.598 20.172)">
            <path id="path2511" d="M4.408-38.144H-8.623A1.378,1.378,0,0,1-10-39.52v-1.428a1.378,1.378,0,0,1,1.377-1.377H4.408a1.378,1.378,0,0,1,1.377,1.377v1.428A1.378,1.378,0,0,1,4.408-38.144ZM-8.623-41a.051.051,0,0,0-.051.051v1.428a.051.051,0,0,0,.051.051H4.408a.051.051,0,0,0,.051-.051v-1.428A.051.051,0,0,0,4.408-41Z" transform="translate(10 42.325)"/>
          </g>
          <g id="g2513" transform="translate(35.524 29.187)">
            <path id="path2515" d="M-47.066-8.675h-2.678a.663.663,0,0,1-.663-.663A.663.663,0,0,1-49.744-10h2.678a.663.663,0,0,1,.663.663A.663.663,0,0,1-47.066-8.675Z" transform="translate(50.407 10)"/>
          </g>
          <g id="g2517" transform="translate(31.24 29.187)">
            <path id="path2519" d="M-29.46-8.675h-1.428a.663.663,0,0,1-.663-.663A.663.663,0,0,1-30.888-10h1.428a.663.663,0,0,1,.663.663A.663.663,0,0,1-29.46-8.675Z" transform="translate(31.551 10)"/>
          </g>
          <g id="g2521" transform="translate(29.454 32.043)">
            <path id="path2523" d="M-132.585-8.675h-8.747a.663.663,0,0,1-.663-.663.663.663,0,0,1,.663-.663h8.747a.663.663,0,0,1,.663.663A.663.663,0,0,1-132.585-8.675Z" transform="translate(141.994 10)"/>
          </g>
          <g id="g2525" transform="translate(29.454 34.899)">
            <path id="path2527" d="M-132.585-8.675h-8.747a.663.663,0,0,1-.663-.663.663.663,0,0,1,.663-.663h8.747a.663.663,0,0,1,.663.663A.663.663,0,0,1-132.585-8.675Z" transform="translate(141.994 10)"/>
          </g>
          <g id="g2529" transform="translate(29.454 37.755)">
            <path id="path2531" d="M-47.066-8.675h-2.678a.663.663,0,0,1-.663-.663A.663.663,0,0,1-49.744-10h2.678a.663.663,0,0,1,.663.663A.663.663,0,0,1-47.066-8.675Z" transform="translate(50.407 10)"/>
          </g>
          <g id="g2533" transform="translate(34.988 37.755)">
            <path id="path2535" d="M-29.46-8.675h-1.428a.663.663,0,0,1-.663-.663A.663.663,0,0,1-30.888-10h1.428a.663.663,0,0,1,.663.663A.663.663,0,0,1-29.46-8.675Z" transform="translate(31.551 10)"/>
          </g>
          <g id="g2537" transform="translate(23.742 0)">
            <path id="path2539" d="M-295.349-124.92h-16.6a2.451,2.451,0,0,1-2.448-2.448v-40.344a2.451,2.451,0,0,1,2.448-2.448h16.6a2.45,2.45,0,0,1,2.448,2.448v5.736a.663.663,0,0,1-.663.663.663.663,0,0,1-.663-.663v-5.736a1.123,1.123,0,0,0-1.122-1.122h-16.6a1.124,1.124,0,0,0-1.123,1.122v40.344a1.124,1.124,0,0,0,1.123,1.122h16.6a1.123,1.123,0,0,0,1.122-1.122v-31.516a.663.663,0,0,1,.663-.663.663.663,0,0,1,.663.663v31.516A2.45,2.45,0,0,1-295.349-124.92Z" transform="translate(314.399 170.16)"/>
          </g>
          <g id="g2541" transform="translate(26.598 2.856)">
            <path id="path2543" d="M-220.3-119.1a7.9,7.9,0,0,1,7.892,7.892,7.9,7.9,0,0,1-7.892,7.892,7.9,7.9,0,0,1-7.892-7.892A7.9,7.9,0,0,1-220.3-119.1Zm0,14.459a6.574,6.574,0,0,0,6.567-6.567,6.574,6.574,0,0,0-6.567-6.567,6.574,6.574,0,0,0-6.567,6.567A6.574,6.574,0,0,0-220.3-104.638Z" transform="translate(228.194 119.097)"/>
          </g>
          <g id="g2545" transform="translate(30.317 6.575)">
            <path id="path2547" d="M-103.39-70.822a2.077,2.077,0,0,1-1.478-.612l-.6-.6-.6.6a2.077,2.077,0,0,1-1.478.612,2.077,2.077,0,0,1-1.478-.612,2.077,2.077,0,0,1-.612-1.478,2.077,2.077,0,0,1,.612-1.478l.6-.6-.6-.6a2.093,2.093,0,0,1,0-2.957,2.077,2.077,0,0,1,1.478-.612,2.077,2.077,0,0,1,1.478.612l.6.6.6-.6a2.077,2.077,0,0,1,1.478-.612,2.077,2.077,0,0,1,1.478.612,2.093,2.093,0,0,1,0,2.957l-.6.6.6.6a2.077,2.077,0,0,1,.612,1.478,2.077,2.077,0,0,1-.612,1.478A2.077,2.077,0,0,1-103.39-70.822Zm-2.083-2.817a.661.661,0,0,1,.469.194l1.073,1.073a.76.76,0,0,0,.541.224.76.76,0,0,0,.541-.224.76.76,0,0,0,.224-.541.76.76,0,0,0-.224-.541l-1.073-1.073a.663.663,0,0,1-.194-.469.663.663,0,0,1,.194-.469l1.073-1.073a.766.766,0,0,0,0-1.082.76.76,0,0,0-.541-.224.76.76,0,0,0-.541.224L-105-76.547a.663.663,0,0,1-.937,0l-1.073-1.073a.76.76,0,0,0-.541-.224.76.76,0,0,0-.541.224.766.766,0,0,0,0,1.082l1.073,1.073a.663.663,0,0,1,.194.469.663.663,0,0,1-.194.469l-1.073,1.073a.76.76,0,0,0-.224.541.76.76,0,0,0,.224.541.76.76,0,0,0,.541.224.761.761,0,0,0,.541-.224l1.073-1.073A.661.661,0,0,1-105.473-73.639Z" transform="translate(109.646 79.169)"/>
          </g>
        </g>
      </g>
    </g>
  </g>
</svg>
