<svg xmlns="http://www.w3.org/2000/svg" width="77" height="77" viewBox="0 0 77 77">
  <g id="Group_1111791" data-name="Group 1111791" transform="translate(-8701 6831)">
    <g id="Group_1111790" data-name="Group 1111790" transform="translate(5586 -5438)">
      <g id="Group_1111367" data-name="Group 1111367" transform="translate(2094.27 -4486)">
        <g id="Group_1098742" data-name="Group 1098742" transform="translate(1020.73 3093)">
          <rect id="Rectangle_400898" data-name="Rectangle 400898" width="77" height="77" rx="38.5" transform="translate(0 0)" fill="#ccda2d"/>
          <rect id="Rectangle_400907" data-name="Rectangle 400907" width="77" height="77" rx="38.5" transform="translate(0 0)" fill="none"/>
        </g>
      </g>
    </g>
    <g id="ICON" transform="translate(8714 -6818)">
      <path id="Path_900662" data-name="Path 900662" d="M36.653,24.809l-3.737-7.474h3.53l-.85,2.553a.768.768,0,1,0,1.457.485l1.013-3.038h4.8a4.7,4.7,0,1,0-1.5-9.144,5.153,5.153,0,0,0-10.306,0,4.675,4.675,0,0,0-2.758-.072L25.96,3.425a.767.767,0,0,0-1.373,0l-1.475,2.95-4.583-2.8a.768.768,0,0,0-1.149.482l-.646,2.792a.768.768,0,0,0,.347.828l4.1,2.51.018.011-.568,1.136a6.525,6.525,0,0,0-1.913-1.123A17.967,17.967,0,0,0,12.29,9.144c-3.5,0-6.521.806-8.027,1.923A2.7,2.7,0,0,0,3,13.19a2.7,2.7,0,0,0,1.263,2.123,5.741,5.741,0,0,0,.73.455,2.592,2.592,0,0,0-.682,1.692,3.181,3.181,0,0,0,1.755,2.588c.064.04.129.078.2.117a2.652,2.652,0,0,0-.64,1.684,3.054,3.054,0,0,0,1.462,2.439,6.532,6.532,0,0,0,1.459.758,2.383,2.383,0,0,0-.3,1.151,2.6,2.6,0,0,0,1.012,1.942c.038.032.077.064.117.1a2.311,2.311,0,0,0-.354,1.222,2.628,2.628,0,0,0,1.434,2.236l-.819,1.637L6.278,31.276a.767.767,0,0,0-1.149.482l-.646,2.792a.768.768,0,0,0,.347.828l2.895,1.771L3.081,46.436a.767.767,0,0,0,.687,1.111H46.779a.767.767,0,0,0,.687-1.111L43.949,39.4l2.1-1.789a.767.767,0,0,0,.214-.873l-1.075-2.657a.768.768,0,0,0-1.21-.3l-1.987,1.694-.881-1.762a6.07,6.07,0,0,0,5-3.386A13.158,13.158,0,0,0,47.535,26.5a.768.768,0,0,0-1.359-.61,8.762,8.762,0,0,1-1.451,1.469,5.755,5.755,0,0,0,.458-3.371,2.955,2.955,0,0,1,.216-1.472,6.825,6.825,0,0,1,.7-1.378.768.768,0,0,0-.462-1.188,3.457,3.457,0,0,0-4.1,2.679,4.544,4.544,0,0,1-.962,1.893,3.5,3.5,0,0,0-.718-2.479.768.768,0,0,0-1.333.369,2.4,2.4,0,0,1-.869,1.364,13.1,13.1,0,0,0-1,1.031Z" transform="translate(0 0)" fill="#272727" fill-rule="evenodd"/>
      <path id="Path_900663" data-name="Path 900663" d="M25.881,6.236,46.143,46.761H5.618Z" transform="translate(-0.607 -0.751)" fill="#ff8173" fill-rule="evenodd"/>
      <path id="Path_900664" data-name="Path 900664" d="M29.474,10.116l1.94-3.88L51.677,46.761H47.8Z" transform="translate(-6.141 -0.751)" fill="#e57366" fill-rule="evenodd"/>
      <path id="Path_900665" data-name="Path 900665" d="M28.048,15.425a.767.767,0,0,0-1.373,0L12.081,44.611a.767.767,0,0,0,.687,1.111H41.954a.767.767,0,0,0,.687-1.111Z" transform="translate(-2.088 -2.783)" fill="#272727" fill-rule="evenodd"/>
      <path id="Path_900666" data-name="Path 900666" d="M27.968,18.236l13.35,26.7h-26.7Z" transform="translate(-2.695 -3.534)" fill="#f9bf4e" fill-rule="evenodd"/>
      <path id="Path_900667" data-name="Path 900667" d="M29.758,21.681l1.722-3.445,13.35,26.7H41.386Z" transform="translate(-6.206 -3.534)" fill="#ddad4e" fill-rule="evenodd"/>
      <path id="Path_900668" data-name="Path 900668" d="M31.9,44.84a.768.768,0,0,0-.768-.768h-2.3a.768.768,0,0,0-.768.768v2.3a.768.768,0,0,0,.768.768h2.3a.767.767,0,0,0,.768-.768Z" transform="translate(-5.813 -9.527)" fill="#ddad4e" fill-rule="evenodd"/>
      <path id="Path_900669" data-name="Path 900669" d="M33.34,45.768A.768.768,0,0,0,32.572,45h-2.3a.768.768,0,0,0-.768.768v2.3a.768.768,0,0,0,.768.768h2.3a.768.768,0,0,0,.768-.768Z" transform="translate(-6.147 -9.742)" fill="#272727" fill-rule="evenodd"/>
      <path id="Path_900670" data-name="Path 900670" d="M54.685,46.757l.545,1.09,1.389-1.184-.468-1.156Z" transform="translate(-11.988 -9.859)" fill="#b18753" fill-rule="evenodd"/>
      <path id="Path_900671" data-name="Path 900671" d="M9.882,43.81,7.323,42.245l-.281,1.214,2.31,1.413Z" transform="translate(-0.938 -9.103)" fill="#a17c4c" fill-rule="evenodd"/>
      <path id="Path_900672" data-name="Path 900672" d="M8.232,44.187,8.557,43l-1.233-.754-.281,1.214Z" transform="translate(-0.938 -9.103)" fill="#b88d56" fill-rule="evenodd"/>
      <path id="Path_900673" data-name="Path 900673" d="M31.4,28.072H28.3a.768.768,0,0,0-.738.8l.384,9.985a.768.768,0,0,0,.767.738h2.3a.768.768,0,0,0,.768-.738l.384-9.985a.769.769,0,0,0-.738-.8H31.4Z" transform="translate(-5.697 -5.815)" fill="#ddad4e" fill-rule="evenodd"/>
      <path id="Path_900674" data-name="Path 900674" d="M32.836,29h-3.1a.768.768,0,0,0-.738.8l.384,9.985a.768.768,0,0,0,.767.739h2.3a.768.768,0,0,0,.767-.739l.384-9.985a.768.768,0,0,0-.738-.8h-.033Z" transform="translate(-6.031 -6.031)" fill="#272727" fill-rule="evenodd"/>
      <path id="Path_900675" data-name="Path 900675" d="M32.161,43.289v.768h-.768v-.768ZM32.515,31H31.039l.325,8.449h.826Z" transform="translate(-6.504 -6.495)" fill="#fff" fill-rule="evenodd"/>
      <path id="Path_900676" data-name="Path 900676" d="M50.72,37.762a4.453,4.453,0,0,0,4.455-2.589c.108-.187.209-.375.3-.56a5.485,5.485,0,0,1-2.089.9.768.768,0,0,1-.751-1.185c1.489-2.243,1.59-3.559,1.432-4.467a4.531,4.531,0,0,1,.286-2.262c.052-.143.108-.281.167-.414a2.186,2.186,0,0,0-1.091,1.419A6.012,6.012,0,0,1,50.059,32.7a.768.768,0,0,1-.995-1,4.958,4.958,0,0,0,.356-1.508,10.041,10.041,0,0,0-1.6,1.767Z" transform="translate(-10.395 -5.61)" fill="#ee4e40" fill-rule="evenodd"/>
      <path id="Path_900677" data-name="Path 900677" d="M53.777,35.424a4.661,4.661,0,0,1-3.071,2.311l.014.026a4.453,4.453,0,0,0,4.455-2.589c.108-.187.209-.375.3-.56A6.439,6.439,0,0,1,53.777,35.424ZM52.853,30.1c.1.9-.1,2.174-1.465,4.231a.768.768,0,0,0,.751,1.185,3.434,3.434,0,0,0,.641-.171.753.753,0,0,1-.156-.177.768.768,0,0,1,.009-.836c1.489-2.243,1.59-3.559,1.432-4.467a4.531,4.531,0,0,1,.286-2.262c.052-.143.108-.281.167-.414a2.186,2.186,0,0,0-1.091,1.419,6.2,6.2,0,0,1-.574,1.493Zm-4.687,2.557a.771.771,0,0,0,.648.041,3.791,3.791,0,0,0,.4-.194.768.768,0,0,1-.151-.8,4.958,4.958,0,0,0,.356-1.508,10.041,10.041,0,0,0-1.6,1.767Z" transform="translate(-10.395 -5.61)" fill="#d64337" fill-rule="evenodd"/>
      <path id="Path_900678" data-name="Path 900678" d="M11.589,33.015a.817.817,0,0,0-.174.487,1.047,1.047,0,0,0,.584.861l.548-1.094a5.616,5.616,0,0,1-.959-.253Zm-.612-3.485a1.026,1.026,0,0,0-.336.712,1.092,1.092,0,0,0,.472.773,3.71,3.71,0,0,0,2.166.792l1.067-2.133c-.387.038-.786.059-1.2.059a11.54,11.54,0,0,1-2.173-.2ZM8.623,24.868a1.389,1.389,0,0,0-.6,1.026,1.573,1.573,0,0,0,.816,1.187A7.718,7.718,0,0,0,13.149,28.2a10.007,10.007,0,0,0,2.035-.2l1.409-2.819a15.4,15.4,0,0,1-3.445.376A14.45,14.45,0,0,1,8.623,24.868ZM18.96,20.443a18.958,18.958,0,0,1-5.81.839A18.968,18.968,0,0,1,7.4,20.455a1.4,1.4,0,0,0-.688,1.051c0,.5.425.909,1.028,1.283a10.78,10.78,0,0,0,5.414,1.227,12.478,12.478,0,0,0,4.374-.722l.014-.005Z" transform="translate(-0.86 -4.046)" fill="#e5e5e5" fill-rule="evenodd"/>
      <path id="Path_900679" data-name="Path 900679" d="M11.687,33.015a.817.817,0,0,0-.174.487,1.047,1.047,0,0,0,.584.861l.548-1.094a5.616,5.616,0,0,1-.959-.253Zm.82-3.3-.816,1.633a3.943,3.943,0,0,0,1.685.464l1.067-2.133c-.387.038-.786.059-1.2.059-.25,0-.5-.008-.74-.023Zm-1.537-.062c.132,0,.265.006.4.006s.3,0,.443-.008c-.252-.031-.5-.07-.738-.116C11.038,29.569,11,29.607,10.97,29.648ZM14.614,25.5l-1.21,2.42a9.744,9.744,0,0,1-1.54.191,10.434,10.434,0,0,0,1.382.091,10.007,10.007,0,0,0,2.035-.2l1.409-2.819a14.611,14.611,0,0,1-2.078.32Zm-6.222-.3a15.606,15.606,0,0,0,2.977.279l.254,0a13.429,13.429,0,0,1-2.9-.6A2.354,2.354,0,0,0,8.392,25.194Zm8.48-4.214L15.757,23.21l-.014.005a12.283,12.283,0,0,1-4.071.719,14.921,14.921,0,0,0,1.575.081,12.478,12.478,0,0,0,4.374-.722l.014-.005,1.422-2.845a15.469,15.469,0,0,1-2.185.538Zm-9.744-.2a20.6,20.6,0,0,0,4.24.423h.006a17.378,17.378,0,0,1-3.882-.747,2.621,2.621,0,0,0-.364.324Z" transform="translate(-0.958 -4.046)" fill="#cbcbcb" fill-rule="evenodd"/>
      <path id="Path_900680" data-name="Path 900680" d="M46.433,16.283h4.29a3.159,3.159,0,0,0,0-6.318,3.118,3.118,0,0,0-1.991.716.768.768,0,0,1-1.219-.83,3.617,3.617,0,1,0-6.879,0,.768.768,0,0,1-1.219.83,3.118,3.118,0,0,0-1.991-.716,3.159,3.159,0,0,0-.556.049L40,16.283h4.81l.743-2.23-2.82.47a.767.767,0,0,1-.851-1.01L43.863,7.84a.768.768,0,0,1,1.45.505l-1.551,4.449,2.8-.467a.769.769,0,0,1,.855,1Z" transform="translate(-7.856 -0.484)" fill="#9d9d9d" fill-rule="evenodd"/>
      <path id="Path_900681" data-name="Path 900681" d="M43.376,14.417l1.714-.286-.717,2.153H42.754Zm6.317-4.277a3.161,3.161,0,0,1-1.03,6.144h2.06a3.159,3.159,0,0,0,0-6.318A3.114,3.114,0,0,0,49.693,10.139Zm-7.64,4.154-.03-.034a.767.767,0,0,1-.137-.747l.277-.795-.46.077,1.551-4.449A.768.768,0,1,0,41.8,7.84l-1.977,5.673a.767.767,0,0,0,.851,1.01ZM43.89,12.43l-.127.365,1.425-.237a.767.767,0,0,0-.684-.23Zm-.846-7.192a3.647,3.647,0,0,1,2.409,4.613.768.768,0,0,0,1.219.83,3.128,3.128,0,0,1,.811-.485.757.757,0,0,1,.03-.345,3.64,3.64,0,0,0-3.439-4.763,3.591,3.591,0,0,0-1.03.15ZM37.111,10.5a2.993,2.993,0,0,1,.245.184A.768.768,0,0,0,38.6,10.2a3.123,3.123,0,0,0-1.18-.23,3.159,3.159,0,0,0-.556.049Z" transform="translate(-7.856 -0.484)" fill="#8e8e8e" fill-rule="evenodd"/>
      <path id="Path_900682" data-name="Path 900682" d="M20.366,15.114a3.776,3.776,0,0,0-1.752-1.161A16.4,16.4,0,0,0,12.753,13a14.907,14.907,0,0,0-6.52,1.254,3.387,3.387,0,0,0-.986.723.7.7,0,0,0,0,1.065,3.386,3.386,0,0,0,.986.722,14.906,14.906,0,0,0,6.52,1.255,17.154,17.154,0,0,0,5.429-.791c-1.274-.684-3.993-1.668-8.351-.961a.768.768,0,1,1-.246-1.516c5.884-.955,9.134.9,10.147,1.628Z" transform="translate(-0.464 -2.319)" fill="#9f9f9f" fill-rule="evenodd"/>
      <path id="Path_900683" data-name="Path 900683" d="M12.323,16.054A10.9,10.9,0,0,1,16.8,17.228,16.206,16.206,0,0,1,12.358,18q.486.022.988.022a17.154,17.154,0,0,0,5.429-.791,11.992,11.992,0,0,0-6.452-1.174Zm.033-3.031a15.432,15.432,0,0,1,4.873.931,3.772,3.772,0,0,1,1.752,1.161l-.2.4a8.418,8.418,0,0,1,1.545.862l.633-1.266a3.776,3.776,0,0,0-1.752-1.161A16.4,16.4,0,0,0,13.346,13q-.5,0-.99.022ZM9.8,16.1a.768.768,0,0,1,.374-1.344,20.692,20.692,0,0,1,2.175-.24,19.03,19.03,0,0,0-4.152.24.768.768,0,1,0,.247,1.516Q9.155,16.153,9.8,16.1Z" transform="translate(-1.057 -2.319)" fill="#8e8e8e" fill-rule="evenodd"/>
      <path id="Path_900684" data-name="Path 900684" d="M27.059,8.49,23.273,6.174l-.281,1.214,3.536,2.164Z" transform="translate(-4.637 -0.736)" fill="#b88d56" fill-rule="evenodd"/>
    </g>
  </g>
</svg>
