<svg xmlns="http://www.w3.org/2000/svg" xmlns:xlink="http://www.w3.org/1999/xlink" width="77" height="77" viewBox="0 0 77 77">
  <defs>
    <clipPath id="clip-path">
      <path id="path2466" d="M0-682.665H51.982v51.982H0Z" transform="translate(0 682.665)"/>
    </clipPath>
  </defs>
  <g id="Group_1111854" data-name="Group 1111854" transform="translate(-919 -3655.212)">
    <g id="Group_1111491" data-name="Group 1111491" transform="translate(-101.73 562.212)">
      <g id="Group_1098742" data-name="Group 1098742" transform="translate(1020.73 3093)">
        <rect id="Rectangle_400898" data-name="Rectangle 400898" width="77" height="77" rx="38.5" transform="translate(0 0)" fill="#ccda2d"/>
        <rect id="Rectangle_400907" data-name="Rectangle 400907" width="77" height="77" rx="38.5" transform="translate(0 0)" fill="none"/>
      </g>
    </g>
    <g id="g2448" transform="translate(932.008 4350.386)">
      <g id="g2450" transform="translate(21.551 -658.28)">
        <path id="path2452" d="M-227.255-197.8l-2.427,2.427-16.3-16.3,2.427-2.427Z" transform="translate(245.986 214.107)" fill="#cbc4cb"/>
      </g>
      <g id="g2454" transform="translate(21.551 -658.28)">
        <path id="path2456" d="M-29.451,0h0l-2.427,2.427,16.3,16.3,1.189-1.189-16.3-16.3Z" transform="translate(31.879)" fill="#b5adb6"/>
      </g>
      <g id="g2458" transform="translate(20.789 -659.042)">
        <path id="path2460" d="M-238.921-203.854a.762.762,0,0,1-.538-.223l-16.3-16.3a.761.761,0,0,1,0-1.077l2.427-2.427a.761.761,0,0,1,1.077,0l16.3,16.3a.761.761,0,0,1,0,1.077l-2.427,2.427A.761.761,0,0,1-238.921-203.854Zm-15.227-17.065,15.227,15.227,1.351-1.351L-252.8-222.269Z" transform="translate(255.986 224.107)"/>
      </g>
      <g id="g2462" transform="translate(0 -682.665)">
        <g id="g2464" clip-path="url(#clip-path)">
          <g id="g2470" transform="translate(31.685 34.519)">
            <path id="path2472" d="M-111.119-160.7l-8.836-8.836a1.1,1.1,0,0,1,0-1.558l2.528-2.528a1.1,1.1,0,0,1,1.558,0l3.926,3.926" transform="translate(121.038 174.701)" fill="#fff"/>
            <path id="path2472_-_Contorno" data-name="path2472 - Contorno" d="M-120.347-169.161a.759.759,0,0,1-.538-.223l-8.836-8.836a1.865,1.865,0,0,1,0-2.635l2.528-2.528a1.866,1.866,0,0,1,2.635,0l3.926,3.926a.761.761,0,0,1,0,1.077.761.761,0,0,1-1.077,0l-3.926-3.926a.341.341,0,0,0-.481,0l-2.528,2.528a.341.341,0,0,0,0,.481l8.836,8.836a.761.761,0,0,1,0,1.077A.759.759,0,0,1-120.347-169.161Z" transform="translate(130.266 183.928)"/>
          </g>
          <g id="g2474" transform="translate(34.591 37.425)">
            <path id="path2476" d="M-161.506-140.287l-1.749,1.749a1.653,1.653,0,0,1-2.337,0l-9.225-9.226,4.086-4.086,9.226,9.226a1.653,1.653,0,0,1,0,2.337" transform="translate(174.818 151.85)" fill="#27a5fe"/>
          </g>
          <g id="g2478" transform="translate(34.591 37.425)">
            <path id="path2480" d="M-52.331-40.866l1.571-1.571-1.8-1.8-4.086,4.086,9.226,9.226a1.653,1.653,0,0,0,2.337,0l.629-.629-7.879-7.879a1.015,1.015,0,0,1,0-1.436" transform="translate(56.644 44.235)" fill="#0593fc"/>
          </g>
          <g id="g2482" transform="translate(33.83 36.664)">
            <path id="path2484" d="M-93.295-35.47A2.407,2.407,0,0,1-95-36.176l-9.226-9.226a.761.761,0,0,1,0-1.077l4.086-4.086a.761.761,0,0,1,.538-.223.761.761,0,0,1,.538.223l3.106,3.106a.761.761,0,0,1,0,1.077.761.761,0,0,1-1.077,0L-99.6-48.95l-3.009,3.009,8.687,8.687a.892.892,0,0,0,1.261,0L-90.916-39a.885.885,0,0,0,.261-.63.885.885,0,0,0-.261-.63l-3.607-3.607a.761.761,0,0,1,0-1.077.761.761,0,0,1,1.077,0l3.607,3.607a2.4,2.4,0,0,1,.707,1.707,2.4,2.4,0,0,1-.707,1.707l-1.749,1.749A2.407,2.407,0,0,1-93.295-35.47Z" transform="translate(104.45 50.788)"/>
          </g>
          <g id="g2486" transform="translate(4.095 6.928)">
            <path id="path2488" d="M-175.12,0a14.434,14.434,0,0,1,14.434,14.434A14.434,14.434,0,0,1-175.12,28.868a14.434,14.434,0,0,1-14.434-14.434A14.434,14.434,0,0,1-175.12,0" transform="translate(189.554)" fill="#00f3a7"/>
          </g>
          <g id="g2490" transform="translate(3.333 6.167)">
            <path id="path2492" d="M-184.359-10a15.213,15.213,0,0,1,15.2,15.2,15.213,15.213,0,0,1-15.2,15.2,15.213,15.213,0,0,1-15.2-15.2A15.213,15.213,0,0,1-184.359-10Zm0,28.868A13.688,13.688,0,0,0-170.686,5.2,13.688,13.688,0,0,0-184.359-8.477,13.688,13.688,0,0,0-198.031,5.2,13.688,13.688,0,0,0-184.359,18.868Z" transform="translate(199.554 10)"/>
          </g>
          <g id="g2494" transform="translate(7.4 10.234)">
            <path id="path2496" d="M-135.017,0a11.128,11.128,0,0,1,11.128,11.128,11.128,11.128,0,0,1-11.128,11.128,11.128,11.128,0,0,1-11.128-11.128A11.128,11.128,0,0,1-135.017,0" transform="translate(146.145)" fill="#d8ecfe"/>
          </g>
          <g id="g2498" transform="translate(7.4 10.234)">
            <path id="path2500" d="M-51.876-135.017a11.131,11.131,0,0,1,8.991-10.922,11.185,11.185,0,0,0-2.138-.206,11.128,11.128,0,0,0-11.128,11.128,11.128,11.128,0,0,0,11.128,11.128,11.185,11.185,0,0,0,2.138-.206,11.131,11.131,0,0,1-8.991-10.922" transform="translate(56.152 146.145)" fill="#c4e2ff"/>
          </g>
          <g id="g2502" transform="translate(6.639 9.472)">
            <path id="path2504" d="M-144.255-10a11.9,11.9,0,0,1,11.89,11.89,11.9,11.9,0,0,1-11.89,11.89,11.9,11.9,0,0,1-11.89-11.89A11.9,11.9,0,0,1-144.255-10Zm0,22.257A10.379,10.379,0,0,0-133.888,1.89,10.379,10.379,0,0,0-144.255-8.477,10.379,10.379,0,0,0-154.622,1.89,10.379,10.379,0,0,0-144.255,12.257Z" transform="translate(156.145 10)"/>
          </g>
          <g id="g2506" transform="translate(16.447 0.761)">
            <path id="path2508" d="M-229.116,0h-18.377A.508.508,0,0,0-248,.508V18.884a.508.508,0,0,0,.508.508h3.9a.508.508,0,0,1,.508.508v2.926a.508.508,0,0,0,.867.359l3.644-3.644a.508.508,0,0,1,.359-.149h9.1a.508.508,0,0,0,.508-.508V.508A.508.508,0,0,0-229.116,0" transform="translate(248.001 0)" fill="#27a5fe"/>
          </g>
          <g id="g2510" transform="translate(16.447 0.762)">
            <path id="path2512" d="M-41.881-229.116v-18.377a.508.508,0,0,1,.508-.508h-3.452a.508.508,0,0,0-.508.508v18.377a.508.508,0,0,0,.508.508h3.452a.508.508,0,0,1-.508-.508" transform="translate(45.333 248.001)" fill="#0593fc"/>
          </g>
          <g id="g2514" transform="translate(15.686 0)">
            <path id="path2516" d="M-258.486-92.476a1.271,1.271,0,0,1-.487-.1,1.265,1.265,0,0,1-.783-1.173v-2.672H-263.4a1.271,1.271,0,0,1-1.269-1.269v-18.377a1.271,1.271,0,0,1,1.269-1.269h18.377a1.271,1.271,0,0,1,1.269,1.269v7.665a.761.761,0,0,1-.761.761.761.761,0,0,1-.761-.761v-7.412h-17.869v17.869h3.642a1.271,1.271,0,0,1,1.269,1.269v2.313l3.211-3.211a1.261,1.261,0,0,1,.9-.372h8.85v-6.9a.761.761,0,0,1,.761-.761.761.761,0,0,1,.761.761v7.158a1.271,1.271,0,0,1-1.269,1.269h-9l-3.569,3.57A1.266,1.266,0,0,1-258.486-92.476Z" transform="translate(264.667 117.333)"/>
          </g>
          <g id="g2518" transform="translate(24.726 9.044)">
            <path id="path2520" d="M-34.807-91.052h-2.869v-7.5h2.646a.223.223,0,0,1,.223.223Z" transform="translate(37.676 98.557)" fill="#fff"/>
          </g>
          <g id="g2522" transform="translate(23.964 8.283)">
            <path id="path2524" d="M-44.046-99.529h-2.869a.761.761,0,0,1-.761-.761v-7.5a.761.761,0,0,1,.761-.761h2.646a.985.985,0,0,1,.984.984v7.282A.761.761,0,0,1-44.046-99.529Zm-2.107-1.523h1.346v-5.982h-1.346Z" transform="translate(47.676 108.557)"/>
          </g>
          <g id="g2526" transform="translate(24.726 3.96)">
            <path id="path2528" d="M-32.1-34.807h-2.423a.223.223,0,0,1-.223-.223v-2.423a.223.223,0,0,1,.223-.223H-32.1a.223.223,0,0,1,.223.223v2.423a.223.223,0,0,1-.223.223" transform="translate(34.749 37.676)" fill="#fff"/>
          </g>
          <g id="g2530" transform="translate(23.964 3.198)">
            <path id="path2532" d="M-41.342-43.284h-2.423a.985.985,0,0,1-.984-.984v-2.423a.985.985,0,0,1,.984-.984h2.423a.985.985,0,0,1,.984.984v2.423A.985.985,0,0,1-41.342-43.284Zm-1.885-1.523h1.346v-1.346h-1.346Z" transform="translate(44.749 47.676)"/>
          </g>
          <g id="g2534" transform="translate(22.94 8.283)">
            <path id="path2536" d="M-27.23,0h-2.244" transform="translate(30.236 0.761)" fill="#fff"/>
            <path id="path2536_-_Contorno" data-name="path2536 - Contorno" d="M-36.469-8.477h-2.244a.761.761,0,0,1-.761-.761A.761.761,0,0,1-38.713-10h2.244a.761.761,0,0,1,.761.761A.761.761,0,0,1-36.469-8.477Z" transform="translate(39.475 10)"/>
          </g>
          <g id="g2538" transform="translate(22.973 15.788)">
            <path id="path2540" d="M-58.86,0h-4.851" transform="translate(64.473 0.761)" fill="#fff"/>
            <path id="path2540_-_Contorno" data-name="path2540 - Contorno" d="M-68.1-8.477H-72.95a.761.761,0,0,1-.761-.761A.761.761,0,0,1-72.95-10H-68.1a.761.761,0,0,1,.761.761A.761.761,0,0,1-68.1-8.477Z" transform="translate(73.712 10)"/>
          </g>
          <g id="g2542" transform="translate(36.223 23.136)">
            <path id="path2544" d="M-87.207-90.9H-94.09a.3.3,0,0,1-.3-.3V-98.09a.3.3,0,0,1,.3-.3h6.883a.3.3,0,0,1,.3.3v6.883a.3.3,0,0,1-.3.3" transform="translate(94.394 98.394)" fill="#00f3a7"/>
          </g>
          <g id="g2546" transform="translate(36.223 23.136)">
            <path id="path2548" d="M-31.07-87.207V-94.09a.3.3,0,0,1,.3-.3h-2.561a.3.3,0,0,0-.3.3v6.883a.3.3,0,0,0,.3.3h2.561a.3.3,0,0,1-.3-.3" transform="translate(33.631 94.394)" fill="#05e39c"/>
          </g>
          <g id="g2550" transform="translate(35.462 22.375)">
            <path id="path2552" d="M-96.445-99.379h-6.883a1.067,1.067,0,0,1-1.066-1.066v-6.883a1.067,1.067,0,0,1,1.066-1.066h6.883a1.067,1.067,0,0,1,1.066,1.066v6.883A1.067,1.067,0,0,1-96.445-99.379Zm-6.426-1.523H-96.9v-5.969h-5.969Z" transform="translate(104.394 108.394)"/>
          </g>
          <g id="g2554" transform="translate(19.916 39.333)">
            <path id="path2556" d="M-59.134-62.829H-63.7a.3.3,0,0,1-.3-.3V-67.7a.3.3,0,0,1,.3-.3h4.569a.3.3,0,0,1,.3.3v4.569a.3.3,0,0,1-.3.3" transform="translate(64.008 68.008)" fill="#fd8087"/>
          </g>
          <g id="g2558" transform="translate(19.916 39.333)">
            <path id="path2560" d="M-26.9-59.134V-63.7a.3.3,0,0,1,.3-.3h-2.217a.3.3,0,0,0-.3.3v4.569a.3.3,0,0,0,.3.3H-26.6a.3.3,0,0,1-.3-.3" transform="translate(29.117 64.008)" fill="#fe646f"/>
          </g>
          <g id="g2562" transform="translate(19.155 38.572)">
            <path id="path2564" d="M-68.372-71.306h-4.569a1.067,1.067,0,0,1-1.066-1.066v-4.569a1.067,1.067,0,0,1,1.066-1.066h4.569a1.067,1.067,0,0,1,1.066,1.066v4.569A1.067,1.067,0,0,1-68.372-71.306Zm-4.113-1.523h3.656v-3.656h-3.656Z" transform="translate(74.008 78.008)"/>
          </g>
          <g id="g2566" transform="translate(6.092 2.437)">
            <path id="path2568" d="M-49.872-53.567h-3.806a.3.3,0,0,1-.3-.3v-3.806a.3.3,0,0,1,.3-.3h3.806a.3.3,0,0,1,.3.3v3.806a.3.3,0,0,1-.3.3" transform="translate(53.983 57.983)" fill="#fed402"/>
          </g>
          <g id="g2570" transform="translate(6.092 2.437)">
            <path id="path2572" d="M-24.395-49.872v-3.806a.3.3,0,0,1,.3-.3H-26.1a.3.3,0,0,0-.3.3v3.806a.3.3,0,0,0,.3.3h2.011a.3.3,0,0,1-.3-.3" transform="translate(26.405 53.983)" fill="#fac600"/>
          </g>
          <g id="g2574" transform="translate(5.33 1.675)">
            <path id="path2576" d="M-59.11-62.044h-3.806a1.067,1.067,0,0,1-1.066-1.066v-3.806a1.067,1.067,0,0,1,1.066-1.066h3.806a1.067,1.067,0,0,1,1.066,1.066v3.806A1.067,1.067,0,0,1-59.11-62.044Zm-3.349-1.523h2.892V-66.46H-62.46Z" transform="translate(63.983 67.982)"/>
          </g>
          <g id="g2578" transform="translate(3.595 26.097)">
            <path id="path2580" d="M-111.818,0h-8.912a.3.3,0,0,0-.3.3V14.983a.3.3,0,0,0,.3.3h11.621a.3.3,0,0,0,.3-.3V3.014a.3.3,0,0,0-.089-.215L-111.6.089A.3.3,0,0,0-111.818,0" transform="translate(121.034)" fill="#fed402"/>
          </g>
          <g id="g2582" transform="translate(3.595 26.097)">
            <path id="path2584" d="M-41.374-181.786v-14.679a.3.3,0,0,1,.3-.3h-3.41a.3.3,0,0,0-.3.3v14.679a.3.3,0,0,0,.3.3h3.41a.3.3,0,0,1-.3-.3" transform="translate(44.784 196.769)" fill="#fac600"/>
          </g>
          <g id="g2586" transform="translate(2.834 25.336)">
            <path id="path2588" d="M-118.1-193.958h-2.728a.761.761,0,0,1-.761-.761.761.761,0,0,1,.761-.761h2.271V-206.8L-121-209.246h-8.266v13.765h4.882a.761.761,0,0,1,.761.761.761.761,0,0,1-.761.761h-5.339a1.067,1.067,0,0,1-1.066-1.066V-209.7a1.067,1.067,0,0,1,1.066-1.066h8.912a1.06,1.06,0,0,1,.753.312l2.71,2.71a1.059,1.059,0,0,1,.312.754v11.969A1.067,1.067,0,0,1-118.1-193.958Z" transform="translate(130.784 210.769)"/>
          </g>
          <g id="g2590" transform="translate(6.503 36.404)">
            <path id="path2592" d="M-4.346-8.477H-9.239A.761.761,0,0,1-10-9.239.761.761,0,0,1-9.239-10h4.892a.761.761,0,0,1,.761.761A.761.761,0,0,1-4.346-8.477Z" transform="translate(10 10)"/>
          </g>
          <g id="g2594" transform="translate(6.503 32.98)">
            <path id="path2596" d="M-4.346-8.477H-9.239A.761.761,0,0,1-10-9.239.761.761,0,0,1-9.239-10h4.892a.761.761,0,0,1,.761.761A.761.761,0,0,1-4.346-8.477Z" transform="translate(10 10)"/>
          </g>
          <g id="g2598" transform="translate(6.503 29.555)">
            <path id="path2600" d="M-6.466-8.477H-9.239A.761.761,0,0,1-10-9.239.761.761,0,0,1-9.239-10h2.772a.761.761,0,0,1,.761.761A.761.761,0,0,1-6.466-8.477Z" transform="translate(10 10)"/>
          </g>
          <g id="g2602" transform="translate(39.088 7.27)">
            <path id="path2604" d="M-79.856,0h-6.277a.3.3,0,0,0-.3.3V10.672a.3.3,0,0,0,.3.3h8.172a.3.3,0,0,0,.3-.3V2.2a.3.3,0,0,0-.089-.215L-79.641.089A.3.3,0,0,0-79.856,0" transform="translate(86.438)" fill="#d8ecfe"/>
          </g>
          <g id="g2606" transform="translate(39.088 7.27)">
            <path id="path2608" d="M-35.124-129.483v-10.368a.3.3,0,0,1,.3-.3h-2.895a.3.3,0,0,0-.3.3v10.368a.3.3,0,0,0,.3.3h2.895a.3.3,0,0,1-.3-.3" transform="translate(38.019 140.156)" fill="#c4e2ff"/>
          </g>
          <g id="g2610" transform="translate(38.326 6.509)">
            <path id="path2612" d="M-95.372-10h6.277a1.059,1.059,0,0,1,.754.312l1.895,1.895a1.059,1.059,0,0,1,.312.754V1.434A1.067,1.067,0,0,1-87.2,2.5h-8.172a1.067,1.067,0,0,1-1.066-1.066V-8.934A1.067,1.067,0,0,1-95.372-10Zm6.088,1.523h-5.631V.977h7.259V-6.85Z" transform="translate(96.438 10)"/>
          </g>
          <g id="g2614" transform="translate(40.961 14.456)">
            <path id="path2616" d="M-5.726-8.477H-9.239A.761.761,0,0,1-10-9.239.761.761,0,0,1-9.239-10h3.513a.761.761,0,0,1,.761.761A.761.761,0,0,1-5.726-8.477Z" transform="translate(10 10)"/>
          </g>
          <g id="g2618" transform="translate(40.961 11.997)">
            <path id="path2620" d="M-5.726-8.477H-9.239A.761.761,0,0,1-10-9.239.761.761,0,0,1-9.239-10h3.513a.761.761,0,0,1,.761.761A.761.761,0,0,1-5.726-8.477Z" transform="translate(10 10)"/>
          </g>
          <g id="g2622" transform="translate(40.961 9.538)">
            <path id="path2624" d="M-7.248-8.477h-1.99A.761.761,0,0,1-10-9.239.761.761,0,0,1-9.239-10h1.99a.761.761,0,0,1,.761.761A.761.761,0,0,1-7.248-8.477Z" transform="translate(10 10)"/>
          </g>
        </g>
      </g>
    </g>
  </g>
</svg>
