<svg xmlns="http://www.w3.org/2000/svg" width="85" height="86" viewBox="0 0 85 86">
  <g id="Group_1112031" data-name="Group 1112031" transform="translate(-17022 5911)">
    <rect id="Rectangle_404368" data-name="Rectangle 404368" width="85" height="86" rx="8" transform="translate(17022 -5911)" fill="#9eceb6"/>
    <g id="evaluacion" transform="translate(17034.17 -5898.25)">
      <g id="Group_1112007" data-name="Group 1112007" transform="translate(2.516 1.936)">
        <g id="Group_1111979" data-name="Group 1111979" transform="translate(0)">
          <path id="Path_901203" data-name="Path 901203" d="M7.1,10.144a3.616,3.616,0,0,1,3.614-3.614H40.709V5.614A3.6,3.6,0,0,0,37.094,2H6.2A3.618,3.618,0,0,0,2.58,5.614V50.587A3.616,3.616,0,0,0,6.194,54.2H7.1Z" transform="translate(-2.58 -2)" fill="#8aba55"/>
        </g>
        <g id="Group_1111980" data-name="Group 1111980" transform="translate(23.589)" opacity="0.3">
          <path id="Path_901204" data-name="Path 901204" d="M39.285,2H28.36a3.124,3.124,0,0,0,3.12,3.12h8.3v6.067a3.124,3.124,0,0,0,3.12,3.12h.009V5.614A3.618,3.618,0,0,0,39.285,2Z" transform="translate(-28.36 -2)" fill="#fff"/>
        </g>
        <g id="Group_1111981" data-name="Group 1111981" transform="translate(4.529 4.52)">
          <path id="Path_901205" data-name="Path 901205" d="M42.035,6.94H11.144A3.616,3.616,0,0,0,7.53,10.554V55.527a3.616,3.616,0,0,0,3.614,3.614h30.9a3.616,3.616,0,0,0,3.614-3.614V10.563A3.62,3.62,0,0,0,42.035,6.94Z" transform="translate(-7.53 -6.94)" fill="#e2e2e2"/>
        </g>
        <g id="Group_1111982" data-name="Group 1111982" transform="translate(8.345 22.93)">
          <path id="Path_901206" data-name="Path 901206" d="M11.7,27.06h7.585v7.585H11.7Z" transform="translate(-11.7 -27.06)" fill="#ef4a51"/>
        </g>
        <g id="Group_1111983" data-name="Group 1111983" transform="translate(8.345 33.801)">
          <path id="Path_901207" data-name="Path 901207" d="M11.7,38.94h7.585v7.585H11.7Z" transform="translate(-11.7 -38.94)" fill="#ffab03"/>
        </g>
        <g id="Group_1111984" data-name="Group 1111984" transform="translate(8.345 44.68)">
          <path id="Path_901208" data-name="Path 901208" d="M11.7,50.83h7.585v7.585H11.7Z" transform="translate(-11.7 -50.83)" fill="#7cb5e8"/>
        </g>
        <g id="Group_1111985" data-name="Group 1111985" transform="translate(8.345 44.68)">
          <path id="Path_901209" data-name="Path 901209" d="M11.7,50.83h7.585v7.585H11.7Z" transform="translate(-11.7 -50.83)" fill="#7cb5e8"/>
        </g>
        <g id="Group_1111986" data-name="Group 1111986" transform="translate(11.09 44.68)" opacity="0.3">
          <path id="Path_901210" data-name="Path 901210" d="M14.7,53.84a1.835,1.835,0,0,0,1.83,1.83h3.01V50.83H14.7Z" transform="translate(-14.7 -50.83)" fill="#fff"/>
        </g>
        <g id="Group_1111987" data-name="Group 1111987" transform="translate(11.09 33.801)" opacity="0.3">
          <path id="Path_901211" data-name="Path 901211" d="M14.7,41.95a1.835,1.835,0,0,0,1.83,1.83h3.01V38.94H14.7Z" transform="translate(-14.7 -38.94)" fill="#fff"/>
        </g>
        <g id="Group_1111988" data-name="Group 1111988" transform="translate(11.09 22.921)" opacity="0.3">
          <path id="Path_901212" data-name="Path 901212" d="M14.7,30.06a1.835,1.835,0,0,0,1.83,1.83h3.01V27.05H14.7Z" transform="translate(-14.7 -27.05)" fill="#fff"/>
        </g>
        <g id="Group_1111989" data-name="Group 1111989" transform="translate(16.992 4.52)" opacity="0.3">
          <path id="Path_901213" data-name="Path 901213" d="M43.193,6.94H21.15v11.5A15.144,15.144,0,0,0,36.293,33.585H46.816V10.563A3.62,3.62,0,0,0,43.193,6.94Z" transform="translate(-21.15 -6.94)" fill="#fff"/>
        </g>
        <g id="Group_1111990" data-name="Group 1111990" transform="translate(25.245 4.529)" opacity="0.5">
          <path id="Path_901214" data-name="Path 901214" d="M43.959,6.95H30.17A3.737,3.737,0,0,0,33.9,10.683H43.84v7.265a3.737,3.737,0,0,0,3.733,3.733h.009V10.564A3.618,3.618,0,0,0,43.959,6.95Z" transform="translate(-30.17 -6.95)" fill="#fff"/>
        </g>
        <g id="Group_1111991" data-name="Group 1111991" transform="translate(23.928 20.634)">
          <circle id="Ellipse_11710" data-name="Ellipse 11710" cx="11.767" cy="11.767" r="11.767" fill="#fff"/>
        </g>
        <g id="Group_1111992" data-name="Group 1111992" transform="translate(26.915 23.626)">
          <path id="Path_901215" data-name="Path 901215" d="M40.775,45.388a8.784,8.784,0,1,0-6.213-2.571A8.727,8.727,0,0,0,40.775,45.388Z" transform="translate(-31.995 -27.82)" fill="#7cb5e8"/>
        </g>
        <g id="Group_1111993" data-name="Group 1111993" transform="translate(29.771 23.616)" opacity="0.3">
          <path id="Path_901216" data-name="Path 901216" d="M41.04,27.81a8.724,8.724,0,0,0-4.612,1.318A8.779,8.779,0,0,0,48.515,41.215a8.779,8.779,0,0,0-7.476-13.4Z" transform="translate(-35.116 -27.81)" fill="#fff"/>
        </g>
        <g id="Group_1111994" data-name="Group 1111994" transform="translate(44.607 41.304)">
          <path id="Path_901217" data-name="Path 901217" d="M54.359,47.662l-2.507,2.507a2.691,2.691,0,0,1-.522.393l6.927,6.927a2.42,2.42,0,0,0,3.422-3.422L54.752,47.14A2.44,2.44,0,0,1,54.359,47.662Z" transform="translate(-51.33 -47.14)" fill="#ef4a51"/>
        </g>
        <g id="Group_1111995" data-name="Group 1111995" transform="translate(46.007 41.313)" opacity="0.3">
          <path id="Path_901218" data-name="Path 901218" d="M54.882,47.15a3,3,0,0,1-.393.522L52.86,49.3,58.4,54.836a2.424,2.424,0,0,0,3.422,0,2.939,2.939,0,0,0,.311-.375,2.419,2.419,0,0,0-.311-.375Z" transform="translate(-52.86 -47.15)" fill="#e2e2e2"/>
        </g>
        <g id="Group_1111996" data-name="Group 1111996" transform="translate(40.187 36.893)">
          <path id="Path_901219" data-name="Path 901219" d="M50.334,46.154a11.533,11.533,0,0,0,2.553-3.834l1.061,1.061a2.745,2.745,0,0,1,0,3.88l-2.507,2.507a2.745,2.745,0,0,1-3.88,0L46.5,48.707a11.917,11.917,0,0,0,3.834-2.553Z" transform="translate(-46.5 -42.32)" fill="#4e6575"/>
        </g>
        <g id="Group_1111997" data-name="Group 1111997" transform="translate(41.468 36.884)" opacity="0.3">
          <path id="Path_901220" data-name="Path 901220" d="M51.551,47.873l2.507-2.507a2.754,2.754,0,0,0,.631-1,2.754,2.754,0,0,0-.631-1L53,42.31a11.917,11.917,0,0,1-2.553,3.834A11.558,11.558,0,0,1,47.9,48.065a2.744,2.744,0,0,0,3.651-.192Z" transform="translate(-47.9 -42.31)" fill="#e2e2e2"/>
        </g>
        <g id="Group_1112000" data-name="Group 1112000" transform="translate(19.371 7.265)">
          <g id="Group_1111998" data-name="Group 1111998">
            <path id="Path_901221" data-name="Path 901221" d="M27.968,9.94l1.308,2.644,2.919.421-2.114,2.059.494,2.91L27.968,16.6,25.36,17.974l.494-2.91-2.1-2.059,2.91-.421Z" transform="translate(-23.75 -9.94)" fill="#ffab03"/>
          </g>
          <g id="Group_1111999" data-name="Group 1111999" transform="translate(2.196)" opacity="0.3">
            <path id="Path_901222" data-name="Path 901222" d="M29.481,12.584,28.172,9.94l-1.308,2.644-.714.1a4.239,4.239,0,0,0,4.09,3.175c.055,0,.11-.018.165-.018l-.137-.778,2.114-2.059Z" transform="translate(-26.15 -9.94)" fill="#fff"/>
          </g>
        </g>
        <g id="Group_1112003" data-name="Group 1112003" transform="translate(10.147 10.486)">
          <g id="Group_1112001" data-name="Group 1112001">
            <path id="Path_901223" data-name="Path 901223" d="M17.9,13.46,19.2,16.1l2.919.421L20,18.584l.5,2.91L17.9,20.121,15.28,21.494l.5-2.91L13.67,16.525l2.919-.421Z" transform="translate(-13.67 -13.46)" fill="#ffab03"/>
          </g>
          <g id="Group_1112002" data-name="Group 1112002" transform="translate(2.196)" opacity="0.3">
            <path id="Path_901224" data-name="Path 901224" d="M19.4,16.1,18.092,13.46,16.784,16.1l-.714.1a4.239,4.239,0,0,0,4.09,3.175c.055,0,.11-.018.165-.018l-.137-.778L22.3,16.525Z" transform="translate(-16.07 -13.46)" fill="#fff"/>
          </g>
        </g>
        <g id="Group_1112006" data-name="Group 1112006" transform="translate(28.585 10.486)">
          <g id="Group_1112004" data-name="Group 1112004">
            <path id="Path_901225" data-name="Path 901225" d="M38.047,13.46l1.3,2.644,2.919.421-2.114,2.059.5,2.91-2.608-1.373L35.43,21.494l.5-2.91L33.82,16.525l2.919-.421Z" transform="translate(-33.82 -13.46)" fill="#ffab03"/>
          </g>
          <g id="Group_1112005" data-name="Group 1112005" transform="translate(2.196)" opacity="0.3">
            <path id="Path_901226" data-name="Path 901226" d="M39.551,16.1,38.242,13.46,36.934,16.1l-.714.1a4.239,4.239,0,0,0,4.09,3.175c.055,0,.11-.018.165-.018l-.137-.778,2.114-2.059Z" transform="translate(-36.22 -13.46)" fill="#fff"/>
          </g>
        </g>
      </g>
      <g id="Group_1112030" data-name="Group 1112030" transform="translate(1.83 1.25)">
        <g id="Group_1112008" data-name="Group 1112008" transform="translate(23.934 20.65)">
          <path id="Path_901227" data-name="Path 901227" d="M40.434,48.708a12.444,12.444,0,1,1,8.8-3.642A12.423,12.423,0,0,1,40.434,48.708Zm0-23.525a11.072,11.072,0,1,0,7.833,3.239A11.042,11.042,0,0,0,40.434,25.183Z" transform="translate(-27.988 -23.818)"/>
        </g>
        <g id="Group_1112009" data-name="Group 1112009" transform="translate(26.903 23.626)">
          <path id="Path_901228" data-name="Path 901228" d="M40.71,46.011a9.475,9.475,0,0,1-8.418-13.826.685.685,0,0,1,1.217.631,8.085,8.085,0,1,0,1.464-2,.686.686,0,0,1-.97-.97A9.472,9.472,0,1,1,40.71,46.011Z" transform="translate(-31.231 -27.07)"/>
        </g>
        <g id="Group_1112010" data-name="Group 1112010" transform="translate(44.61 41.316)">
          <path id="Path_901229" data-name="Path 901229" d="M59.9,58.835a3.05,3.05,0,0,1-2.2-.915l-6.927-6.927a.68.68,0,0,1-.192-.567.7.7,0,0,1,.32-.5,2,2,0,0,0,.384-.293L53.8,47.123a1.92,1.92,0,0,0,.293-.384.686.686,0,0,1,1.071-.137l6.927,6.927A3.111,3.111,0,0,1,59.9,58.835Zm-7.613-8.263,6.387,6.387a1.768,1.768,0,0,0,2.452,0,1.734,1.734,0,0,0,0-2.452l-6.387-6.387Z" transform="translate(-50.584 -46.404)"/>
        </g>
        <g id="Group_1112011" data-name="Group 1112011" transform="translate(40.177 36.88)">
          <path id="Path_901230" data-name="Path 901230" d="M49.427,51.186A3.406,3.406,0,0,1,47,50.179l-1.061-1.061a.709.709,0,0,1-.192-.622.7.7,0,0,1,.412-.5,11.083,11.083,0,0,0,6.012-6.012.7.7,0,0,1,.5-.412.684.684,0,0,1,.622.192l1.061,1.061a3.435,3.435,0,0,1,0,4.85l-2.507,2.507a3.39,3.39,0,0,1-2.425,1.007Zm-1.812-2.333.366.366a2.106,2.106,0,0,0,2.91,0L53.4,46.711a2.054,2.054,0,0,0,0-2.91l-.366-.366a12.748,12.748,0,0,1-2.278,3.138A12.137,12.137,0,0,1,47.616,48.852Z" transform="translate(-45.739 -41.555)"/>
        </g>
        <g id="Group_1112012" data-name="Group 1112012" transform="translate(20.203 48.953)">
          <path id="Path_901231" data-name="Path 901231" d="M31.916,56.123H24.6a.686.686,0,1,1,0-1.373h7.32a.686.686,0,1,1,0,1.373Z" transform="translate(-23.91 -54.75)"/>
        </g>
        <g id="Group_1112013" data-name="Group 1112013" transform="translate(30.882 48.953)">
          <path id="Path_901232" data-name="Path 901232" d="M38,56.123H36.266a.686.686,0,1,1,0-1.373H38a.686.686,0,1,1,0,1.373Z" transform="translate(-35.58 -54.75)"/>
        </g>
        <g id="Group_1112014" data-name="Group 1112014" transform="translate(20.203 52.265)">
          <path id="Path_901233" data-name="Path 901233" d="M31.916,59.743H24.6a.686.686,0,1,1,0-1.373h7.32a.686.686,0,1,1,0,1.373Z" transform="translate(-23.91 -58.37)"/>
        </g>
        <g id="Group_1112015" data-name="Group 1112015" transform="translate(30.882 52.265)">
          <path id="Path_901234" data-name="Path 901234" d="M38,59.743H36.266a.686.686,0,1,1,0-1.373H38a.686.686,0,1,1,0,1.373Z" transform="translate(-35.58 -58.37)"/>
        </g>
        <g id="Group_1112016" data-name="Group 1112016" transform="translate(4.529 12.673)">
          <path id="Path_901235" data-name="Path 901235" d="M41.971,60.53H11.081a4.307,4.307,0,0,1-4.3-4.3V15.786a.686.686,0,0,1,1.373,0V56.23a2.931,2.931,0,0,0,2.928,2.928h30.9a2.931,2.931,0,0,0,2.928-2.928V50.053a.686.686,0,0,1,1.373,0V56.23a4.309,4.309,0,0,1-4.31,4.3Z" transform="translate(-6.78 -15.1)"/>
        </g>
        <g id="Group_1112017" data-name="Group 1112017" transform="translate(4.529 4.529)">
          <path id="Path_901236" data-name="Path 901236" d="M45.595,23.759a.691.691,0,0,1-.686-.686V10.5A2.931,2.931,0,0,0,41.98,7.573h-30.9A2.931,2.931,0,0,0,8.153,10.5v1.318a.686.686,0,0,1-1.373,0V10.5a4.307,4.307,0,0,1,4.3-4.3h30.9a4.307,4.307,0,0,1,4.3,4.3V23.082A.683.683,0,0,1,45.595,23.759Z" transform="translate(-6.78 -6.2)"/>
        </g>
        <g id="Group_1112018" data-name="Group 1112018" transform="translate(0.009 46.153)">
          <path id="Path_901237" data-name="Path 901237" d="M7.037,59.12h-.9a4.307,4.307,0,0,1-4.3-4.3V52.376a.686.686,0,1,1,1.373,0v2.443a2.931,2.931,0,0,0,2.928,2.928h.906a.686.686,0,1,1-.009,1.373Z" transform="translate(-1.84 -51.69)"/>
        </g>
        <g id="Group_1112019" data-name="Group 1112019">
          <path id="Path_901238" data-name="Path 901238" d="M2.516,46.433a.691.691,0,0,1-.686-.686V5.551a4.307,4.307,0,0,1,4.3-4.3h30.9a4.307,4.307,0,0,1,4.3,4.3v.906a.686.686,0,1,1-1.373,0V5.551A2.931,2.931,0,0,0,37.03,2.623H6.14A2.931,2.931,0,0,0,3.212,5.551v40.2a.7.7,0,0,1-.7.686Z" transform="translate(-1.83 -1.25)"/>
        </g>
        <g id="Group_1112020" data-name="Group 1112020" transform="translate(10.141 10.52)">
          <path id="Path_901239" data-name="Path 901239" d="M15.216,22.12a.7.7,0,0,1-.4-.128.683.683,0,0,1-.275-.668l.439-2.553-1.857-1.8a.694.694,0,0,1-.174-.7.685.685,0,0,1,.558-.467l2.562-.375L17.211,13.1a.712.712,0,0,1,1.226,0l1.144,2.324,2.562.375a.686.686,0,0,1,.384,1.171l-1.857,1.8.439,2.553a.676.676,0,0,1-.275.668.688.688,0,0,1-.723.055l-2.288-1.208-2.288,1.208a.78.78,0,0,1-.32.073Zm2.617-2.745a.668.668,0,0,1,.32.082l1.382.723-.265-1.537a.679.679,0,0,1,.2-.6l1.116-1.089-1.546-.229a.684.684,0,0,1-.512-.375l-.686-1.4-.686,1.4a.7.7,0,0,1-.512.375L15.1,16.95l1.116,1.089a.679.679,0,0,1,.2.6l-.265,1.537,1.382-.723a.553.553,0,0,1,.3-.082Z" transform="translate(-12.913 -12.748)"/>
        </g>
        <g id="Group_1112021" data-name="Group 1112021" transform="translate(19.365 7.3)">
          <path id="Path_901240" data-name="Path 901240" d="M25.3,18.6a.7.7,0,0,1-.4-.128.683.683,0,0,1-.275-.668l.439-2.553-1.857-1.8a.694.694,0,0,1-.174-.7.685.685,0,0,1,.558-.467l2.562-.375,1.144-2.324a.712.712,0,0,1,1.226,0L29.661,11.9l2.562.375a.686.686,0,0,1,.384,1.171l-1.857,1.8.439,2.553a.676.676,0,0,1-.275.668.688.688,0,0,1-.723.055L27.9,17.318l-2.288,1.208a.78.78,0,0,1-.32.073ZM27.9,15.854a.668.668,0,0,1,.32.082l1.382.723-.265-1.537a.679.679,0,0,1,.2-.6l1.116-1.089L29.112,13.2a.684.684,0,0,1-.512-.375l-.686-1.4-.686,1.4a.7.7,0,0,1-.512.375l-1.546.229,1.116,1.089a.679.679,0,0,1,.2.6L26.22,16.66l1.382-.723a.553.553,0,0,1,.3-.082Z" transform="translate(-22.993 -9.227)"/>
        </g>
        <g id="Group_1112022" data-name="Group 1112022" transform="translate(28.579 10.52)">
          <path id="Path_901241" data-name="Path 901241" d="M35.366,22.12a.7.7,0,0,1-.4-.128.683.683,0,0,1-.275-.668l.439-2.553-1.857-1.8a.694.694,0,0,1-.174-.7.685.685,0,0,1,.558-.467l2.562-.375L37.361,13.1a.712.712,0,0,1,1.226,0l1.144,2.324,2.562.375a.686.686,0,0,1,.384,1.171l-1.857,1.8.439,2.553a.676.676,0,0,1-.275.668.688.688,0,0,1-.723.055l-2.288-1.208-2.288,1.208a.78.78,0,0,1-.32.073Zm2.617-2.745a.668.668,0,0,1,.32.082l1.382.723-.274-1.537a.679.679,0,0,1,.2-.6l1.116-1.089-1.546-.229a.684.684,0,0,1-.512-.375l-.686-1.4-.686,1.4a.7.7,0,0,1-.512.375l-1.546.229,1.116,1.089a.679.679,0,0,1,.2.6L36.29,20.18l1.382-.723A.609.609,0,0,1,37.983,19.374Z" transform="translate(-33.063 -12.748)"/>
        </g>
        <g id="Group_1112023" data-name="Group 1112023" transform="translate(8.345 22.921)">
          <path id="Path_901242" data-name="Path 901242" d="M19.222,35.258H11.636a.691.691,0,0,1-.686-.686V26.986a.691.691,0,0,1,.686-.686h7.585a.691.691,0,0,1,.686.686v5.444a.686.686,0,1,1-1.373,0V27.682H12.323v6.213h6.9a.691.691,0,0,1,.686.686A.678.678,0,0,1,19.222,35.258Z" transform="translate(-10.95 -26.3)"/>
        </g>
        <g id="Group_1112024" data-name="Group 1112024" transform="translate(10.461 25.577)">
          <path id="Path_901243" data-name="Path 901243" d="M15.035,32.851a.679.679,0,0,1-.485-.2l-1.089-1.089a.686.686,0,1,1,.97-.97l.595.595L16.81,29.4a.686.686,0,0,1,.97.97l-2.269,2.269a.62.62,0,0,1-.476.21Z" transform="translate(-13.262 -29.202)"/>
        </g>
        <g id="Group_1112025" data-name="Group 1112025" transform="translate(8.345 33.801)">
          <path id="Path_901244" data-name="Path 901244" d="M19.222,47.148H11.636a.691.691,0,0,1-.686-.686V38.876a.691.691,0,0,1,.686-.686h7.585a.691.691,0,0,1,.686.686v7.585A.68.68,0,0,1,19.222,47.148Zm-6.9-1.373h6.213V39.563H12.323Z" transform="translate(-10.95 -38.19)"/>
        </g>
        <g id="Group_1112026" data-name="Group 1112026" transform="translate(10.461 36.456)">
          <path id="Path_901245" data-name="Path 901245" d="M15.035,44.741a.686.686,0,0,1-.485-.2l-1.089-1.089a.686.686,0,1,1,.97-.97l.595.595,1.784-1.784a.686.686,0,0,1,.97.97l-2.269,2.269A.624.624,0,0,1,15.035,44.741Z" transform="translate(-13.262 -41.092)"/>
        </g>
        <g id="Group_1112027" data-name="Group 1112027" transform="translate(8.345 44.68)">
          <path id="Path_901246" data-name="Path 901246" d="M19.222,59.038H13.75a.686.686,0,1,1,0-1.373h4.786V51.453H12.323v6.9a.686.686,0,0,1-1.373,0V50.766a.691.691,0,0,1,.686-.686h7.585a.691.691,0,0,1,.686.686v7.585A.685.685,0,0,1,19.222,59.038Z" transform="translate(-10.95 -50.08)"/>
        </g>
        <g id="Group_1112028" data-name="Group 1112028" transform="translate(10.461 47.336)">
          <path id="Path_901247" data-name="Path 901247" d="M15.035,56.631a.686.686,0,0,1-.485-.2l-1.089-1.089a.686.686,0,0,1,.97-.97l.595.595,1.784-1.784a.686.686,0,0,1,.97.97l-2.269,2.269A.624.624,0,0,1,15.035,56.631Z" transform="translate(-13.262 -52.982)"/>
        </g>
        <g id="Group_1112029" data-name="Group 1112029" transform="translate(31.854 29.621)">
          <path id="Path_901248" data-name="Path 901248" d="M39.431,40.574a.679.679,0,0,1-.485-.2l-2.1-2.1a.686.686,0,0,1,.97-.97l1.62,1.62,5.1-5.1a.686.686,0,0,1,.97.97l-5.582,5.582a.686.686,0,0,1-.485.2Z" transform="translate(-36.643 -33.622)"/>
        </g>
      </g>
    </g>
  </g>
</svg>
