<svg xmlns="http://www.w3.org/2000/svg" width="77" height="77" viewBox="0 0 77 77">
  <g id="Group_1111952" data-name="Group 1111952" transform="translate(-16616 7149)">
    <g id="Group_1111538" data-name="Group 1111538" transform="translate(15595.27 -10242)">
      <g id="Group_1098742" data-name="Group 1098742" transform="translate(1020.73 3093)">
        <rect id="Rectangle_400898" data-name="Rectangle 400898" width="77" height="77" rx="38.5" transform="translate(0 0)" fill="#ccda2d"/>
        <rect id="Rectangle_400907" data-name="Rectangle 400907" width="77" height="77" rx="38.5" transform="translate(0 0)" fill="none"/>
      </g>
    </g>
    <g id="colaboracion" transform="translate(16624.4 -7140.386)">
      <g id="Group_1111913" data-name="Group 1111913" transform="translate(5.688 24.538)">
        <path id="Path_901115" data-name="Path 901115" d="M30.238,39.278H24.417V31.516A3.577,3.577,0,0,0,20.8,27.9H10.216A3.577,3.577,0,0,0,6.6,31.516V43.688h4.5V56.213h9V43.776H30.326Z" transform="translate(-5.806 -27.194)" fill="#fff"/>
        <path id="Path_901116" data-name="Path 901116" d="M19.9,56.912h-9a.791.791,0,0,1-.794-.794V44.476H6.494a.791.791,0,0,1-.794-.794V31.51a4.367,4.367,0,0,1,4.41-4.41H20.694a4.367,4.367,0,0,1,4.41,4.41v6.968h5.027a.791.791,0,0,1,.794.794v4.5a.791.791,0,0,1-.794.794H20.694V56.118a.791.791,0,0,1-.794.794Zm-8.2-1.588h7.409V43.682a.791.791,0,0,1,.794-.794h9.526V39.977H24.4a.791.791,0,0,1-.794-.794V31.422a2.936,2.936,0,0,0-2.911-2.911H10.11A2.936,2.936,0,0,0,7.2,31.422V42.888h3.7a.791.791,0,0,1,.794.794Z" transform="translate(-5.7 -27.1)" fill="#193651"/>
      </g>
      <g id="Group_1111914" data-name="Group 1111914" transform="translate(10.098 33.711)">
        <path id="Path_901117" data-name="Path 901117" d="M11.494,45.7a.791.791,0,0,1-.794-.794V38.294a.794.794,0,0,1,1.588,0v6.615A.791.791,0,0,1,11.494,45.7Z" transform="translate(-10.7 -37.5)" fill="#193651"/>
      </g>
      <g id="Group_1111915" data-name="Group 1111915" transform="translate(19.095 33.711)">
        <path id="Path_901118" data-name="Path 901118" d="M21.694,45.7a.791.791,0,0,1-.794-.794V38.294a.794.794,0,0,1,1.588,0v6.615A.791.791,0,0,1,21.694,45.7Z" transform="translate(-20.9 -37.5)" fill="#193651"/>
      </g>
      <g id="Group_1111916" data-name="Group 1111916" transform="translate(14.597 43.06)">
        <path id="Path_901119" data-name="Path 901119" d="M16.594,59.39A.791.791,0,0,1,15.8,58.6v-9.7a.794.794,0,1,1,1.588,0v9.7A.791.791,0,0,1,16.594,59.39Z" transform="translate(-15.8 -48.1)" fill="#193651"/>
      </g>
      <g id="Group_1111917" data-name="Group 1111917" transform="translate(9.393 14.042)">
        <circle id="Ellipse_11704" data-name="Ellipse 11704" cx="5.292" cy="5.292" r="5.292" transform="translate(0.706 0.706)" fill="#fdbf5e"/>
        <path id="Path_901120" data-name="Path 901120" d="M15.9,27.2a6,6,0,1,1,6-6A6,6,0,0,1,15.9,27.2Zm0-10.5a4.5,4.5,0,1,0,4.5,4.5A4.517,4.517,0,0,0,15.9,16.7Z" transform="translate(-9.9 -15.2)" fill="#193651"/>
      </g>
      <g id="Group_1111918" data-name="Group 1111918" transform="translate(29.326 24.45)">
        <path id="Path_901121" data-name="Path 901121" d="M33.4,39.278h5.821V31.516A3.577,3.577,0,0,1,42.838,27.9H53.422a3.577,3.577,0,0,1,3.616,3.616V43.688h-4.5V56.213H43.72V43.776H33.4Z" transform="translate(-32.606 -27.106)" fill="#fff"/>
        <path id="Path_901122" data-name="Path 901122" d="M52.522,56.9H43.613a.791.791,0,0,1-.794-.794V44.464H33.294a.629.629,0,0,1-.529-.265.762.762,0,0,1-.265-.529v-4.5a.791.791,0,0,1,.794-.794h5.027V31.41A4.367,4.367,0,0,1,42.731,27H53.315a4.367,4.367,0,0,1,4.41,4.41V43.582a.791.791,0,0,1-.794.794h-3.7V56.106A.675.675,0,0,1,52.522,56.9Zm-8.2-1.588h7.409V43.67a.791.791,0,0,1,.794-.794h3.7V31.41A2.936,2.936,0,0,0,53.315,28.5H42.731a2.936,2.936,0,0,0-2.911,2.911v7.762a.791.791,0,0,1-.794.794H34v2.911h9.526a.791.791,0,0,1,.794.794Z" transform="translate(-32.5 -27)" fill="#193651"/>
      </g>
      <g id="Group_1111919" data-name="Group 1111919" transform="translate(5.6 24.45)">
        <path id="Path_901123" data-name="Path 901123" d="M24.517,34.968V31.616A3.577,3.577,0,0,0,20.9,28H10.316A3.577,3.577,0,0,0,6.7,31.616v3.352" transform="translate(-5.73 -27.118)" fill="#4fbf9f"/>
        <path id="Path_901124" data-name="Path 901124" d="M24.387,35.556a.791.791,0,0,1-.794-.794V31.41A2.936,2.936,0,0,0,20.682,28.5H10.1A2.936,2.936,0,0,0,7.188,31.41v3.352a.794.794,0,1,1-1.588,0V31.41A4.367,4.367,0,0,1,10.01,27H20.594A4.367,4.367,0,0,1,25,31.41v3.352A.624.624,0,0,1,24.387,35.556Z" transform="translate(-5.6 -27)" fill="#193651"/>
      </g>
      <g id="Group_1111920" data-name="Group 1111920" transform="translate(35.059 24.45)">
        <path id="Path_901125" data-name="Path 901125" d="M57.917,34.968V31.616A3.577,3.577,0,0,0,54.3,28H43.716A3.577,3.577,0,0,0,40.1,31.616v3.352" transform="translate(-39.13 -27.118)" fill="#f16051"/>
        <path id="Path_901126" data-name="Path 901126" d="M57.787,35.556a.791.791,0,0,1-.794-.794V31.41A2.936,2.936,0,0,0,54.082,28.5H43.5a2.936,2.936,0,0,0-2.911,2.911v3.352a.794.794,0,1,1-1.588,0V31.41A4.367,4.367,0,0,1,43.41,27H53.994a4.367,4.367,0,0,1,4.41,4.41v3.352c.088.529-.176.794-.617.794Z" transform="translate(-39 -27)" fill="#193651"/>
      </g>
      <g id="Group_1111921" data-name="Group 1111921" transform="translate(48.554 33.711)">
        <path id="Path_901127" data-name="Path 901127" d="M55.094,45.7a.791.791,0,0,1-.794-.794V38.294a.794.794,0,0,1,1.588,0v6.615A.791.791,0,0,1,55.094,45.7Z" transform="translate(-54.3 -37.5)" fill="#193651"/>
      </g>
      <g id="Group_1111922" data-name="Group 1111922" transform="translate(39.646 33.711)">
        <path id="Path_901128" data-name="Path 901128" d="M44.994,45.7a.791.791,0,0,1-.794-.794V38.294a.794.794,0,0,1,1.588,0v6.615A.931.931,0,0,1,44.994,45.7Z" transform="translate(-44.2 -37.5)" fill="#193651"/>
      </g>
      <g id="Group_1111923" data-name="Group 1111923" transform="translate(44.056 43.06)">
        <path id="Path_901129" data-name="Path 901129" d="M49.994,59.39A.791.791,0,0,1,49.2,58.6v-9.7a.794.794,0,1,1,1.588,0v9.7A.791.791,0,0,1,49.994,59.39Z" transform="translate(-49.2 -48.1)" fill="#193651"/>
      </g>
      <g id="Group_1111924" data-name="Group 1111924" transform="translate(38.852 14.042)">
        <circle id="Ellipse_11705" data-name="Ellipse 11705" cx="5.292" cy="5.292" r="5.292" transform="translate(0.706 0.706)" fill="#fdbf5e"/>
        <path id="Path_901130" data-name="Path 901130" d="M49.3,27.2a6,6,0,1,1,0-12,6,6,0,1,1,0,12Zm0-10.5a4.5,4.5,0,1,0,4.5,4.5A4.517,4.517,0,0,0,49.3,16.7Z" transform="translate(-43.3 -15.2)" fill="#193651"/>
      </g>
      <g id="Group_1111931" data-name="Group 1111931" transform="translate(15.214 5.386)">
        <g id="Group_1111927" data-name="Group 1111927">
          <g id="Group_1111925" data-name="Group 1111925" transform="translate(0 2.394)">
            <path id="Path_901131" data-name="Path 901131" d="M28.407,15.685H24.614a.794.794,0,0,1,0-1.588h3.793a2.205,2.205,0,1,0,0-4.41H17.294a.794.794,0,0,1,0-1.588H28.407A3.821,3.821,0,0,1,32.2,11.893a3.765,3.765,0,0,1-3.793,3.793Z" transform="translate(-16.5 -8.1)" fill="#193651"/>
          </g>
          <g id="Group_1111926" data-name="Group 1111926" transform="translate(0.088)">
            <path id="Path_901132" data-name="Path 901132" d="M19.687,11.572,16.865,9.191a.853.853,0,0,1,0-1.235l2.822-2.381a.751.751,0,1,1,.97,1.147L18.452,8.574l2.205,1.852a.726.726,0,0,1,.088,1.058.666.666,0,0,1-1.058.088Z" transform="translate(-16.6 -5.386)" fill="#193651"/>
          </g>
        </g>
        <g id="Group_1111930" data-name="Group 1111930" transform="translate(14.112 0.088)">
          <g id="Group_1111928" data-name="Group 1111928" transform="translate(0 2.305)">
            <path id="Path_901133" data-name="Path 901133" d="M40.085,15.685H36.293a3.793,3.793,0,1,1,0-7.585h11.2a.794.794,0,0,1,0,1.588h-11.2a2.205,2.205,0,0,0,0,4.41h3.793a.791.791,0,0,1,.794.794.74.74,0,0,1-.794.794Z" transform="translate(-32.5 -8.1)" fill="#193651"/>
          </g>
          <g id="Group_1111929" data-name="Group 1111929" transform="translate(11.366)">
            <path id="Path_901134" data-name="Path 901134" d="M45.575,11.584a.72.72,0,0,1,.088-1.058l2.205-1.852L45.663,6.821a.751.751,0,0,1,.97-1.147l2.822,2.381a.853.853,0,0,1,0,1.235l-2.822,2.381A.72.72,0,0,1,45.575,11.584Z" transform="translate(-45.386 -5.486)" fill="#193651"/>
          </g>
        </g>
      </g>
      <g id="Group_1111941" data-name="Group 1111941" transform="translate(39.998 28.595)">
        <g id="Group_1111940" data-name="Group 1111940">
          <g id="Group_1111939" data-name="Group 1111939">
            <g id="Group_1111938" data-name="Group 1111938">
              <g id="Group_1111937" data-name="Group 1111937">
                <g id="Group_1111936" data-name="Group 1111936">
                  <g id="Group_1111935" data-name="Group 1111935">
                    <g id="Group_1111932" data-name="Group 1111932">
                      <path id="Path_901135" data-name="Path 901135" d="M44.6,31.7h1.5v1.5H44.6Z" transform="translate(-44.6 -31.7)" fill="#193651"/>
                    </g>
                    <g id="Group_1111933" data-name="Group 1111933" transform="translate(4.145)">
                      <path id="Path_901136" data-name="Path 901136" d="M49.3,31.7h1.5v1.5H49.3Z" transform="translate(-49.3 -31.7)" fill="#193651"/>
                    </g>
                    <g id="Group_1111934" data-name="Group 1111934" transform="translate(8.203)">
                      <path id="Path_901137" data-name="Path 901137" d="M53.9,31.7h1.5v1.5H53.9Z" transform="translate(-53.9 -31.7)" fill="#193651"/>
                    </g>
                  </g>
                </g>
              </g>
            </g>
          </g>
        </g>
      </g>
      <g id="Group_1111951" data-name="Group 1111951" transform="translate(10.539 28.595)">
        <g id="Group_1111950" data-name="Group 1111950">
          <g id="Group_1111949" data-name="Group 1111949">
            <g id="Group_1111948" data-name="Group 1111948">
              <g id="Group_1111947" data-name="Group 1111947">
                <g id="Group_1111946" data-name="Group 1111946">
                  <g id="Group_1111945" data-name="Group 1111945">
                    <g id="Group_1111942" data-name="Group 1111942">
                      <path id="Path_901138" data-name="Path 901138" d="M11.2,31.7h1.5v1.5H11.2Z" transform="translate(-11.2 -31.7)" fill="#193651"/>
                    </g>
                    <g id="Group_1111943" data-name="Group 1111943" transform="translate(4.057)">
                      <path id="Path_901139" data-name="Path 901139" d="M15.8,31.7h1.5v1.5H15.8Z" transform="translate(-15.8 -31.7)" fill="#193651"/>
                    </g>
                    <g id="Group_1111944" data-name="Group 1111944" transform="translate(8.203)">
                      <path id="Path_901140" data-name="Path 901140" d="M20.5,31.7H22v1.5H20.5Z" transform="translate(-20.5 -31.7)" fill="#193651"/>
                    </g>
                  </g>
                </g>
              </g>
            </g>
          </g>
        </g>
      </g>
    </g>
  </g>
</svg>
