<svg xmlns="http://www.w3.org/2000/svg" width="77" height="77" viewBox="0 0 77 77">
  <g id="Group_1111787" data-name="Group 1111787" transform="translate(-1070 -4777)">
    <g id="Group_1111783" data-name="Group 1111783" transform="translate(-8.051 -5438)">
      <g id="Group_1111364" data-name="Group 1111364" transform="translate(57.321 7122)">
        <g id="Group_1098742" data-name="Group 1098742" transform="translate(1020.73 3093)">
          <rect id="Rectangle_400898" data-name="Rectangle 400898" width="77" height="77" rx="38.5" transform="translate(0 0)" fill="#ccda2d"/>
          <rect id="Rectangle_400907" data-name="Rectangle 400907" width="77" height="77" rx="38.5" transform="translate(0 0)" fill="none"/>
        </g>
      </g>
    </g>
    <g id="amenaza" transform="translate(1079.024 4734.761)">
      <g id="Group_1111786" data-name="Group 1111786" transform="translate(0.891 57.147)">
        <g id="Group_1111784" data-name="Group 1111784" transform="translate(0 0)">
          <path id="Path_900652" data-name="Path 900652" d="M34.971,67.563,49.507,92.74a6.638,6.638,0,0,1-5.749,9.957H14.686A6.638,6.638,0,0,1,8.937,92.74L23.473,67.563a6.638,6.638,0,0,1,11.5,0Z" transform="translate(-8.041 -64.244)" fill="#fe646f" fill-rule="evenodd"/>
          <path id="Path_900653" data-name="Path 900653" d="M193.727,67.563,208.263,92.74a6.638,6.638,0,0,1-5.749,9.957h-1.727a6.638,6.638,0,0,0,5.749-9.957L192,67.563a6.586,6.586,0,0,0-4.885-3.264,6.776,6.776,0,0,1,.864-.055,6.593,6.593,0,0,1,5.749,3.319Z" transform="translate(-166.797 -64.244)" fill="#fd4755" fill-rule="evenodd"/>
          <path id="Path_900654" data-name="Path 900654" d="M59.013,96.332l14.536,25.177a3.178,3.178,0,0,1-2.752,4.766H41.725a3.178,3.178,0,0,1-2.752-4.766L53.509,96.332a3.178,3.178,0,0,1,5.5,0Z" transform="translate(-35.079 -91.283)" fill="#ffe177" fill-rule="evenodd"/>
          <path id="Path_900655" data-name="Path 900655" d="M43.451,126.276H41.724a3.178,3.178,0,0,1-2.752-4.766L53.509,96.332a3.133,3.133,0,0,1,2.752-1.589,3.249,3.249,0,0,1,.863.115,3.13,3.13,0,0,0-1.888,1.474L40.7,121.509a3.178,3.178,0,0,0,2.752,4.767Z" transform="translate(-35.079 -91.283)" fill="#ffd064" fill-rule="evenodd"/>
          <path id="Path_900656" data-name="Path 900656" d="M180.523,179.41a1.818,1.818,0,1,1-1.818,1.818A1.818,1.818,0,0,1,180.523,179.41Zm0-1.9a1.419,1.419,0,0,1-1.418-1.368l-.359-9.932a1.419,1.419,0,0,1,1.418-1.47h.717a1.419,1.419,0,0,1,1.418,1.47l-.359,9.932A1.42,1.42,0,0,1,180.523,177.51Z" transform="translate(-159.341 -153.338)" fill="#fe646f" fill-rule="evenodd"/>
          <path id="Path_900657" data-name="Path 900657" d="M191.352,179.41a1.818,1.818,0,1,1-.432,3.584,1.818,1.818,0,0,0,0-3.532A1.818,1.818,0,0,1,191.352,179.41Zm0-1.9a1.419,1.419,0,0,1-.432-.067,1.419,1.419,0,0,0,.986-1.3l.359-9.932a1.419,1.419,0,0,0-1.345-1.468l.073,0h.717a1.419,1.419,0,0,1,1.418,1.47l-.359,9.932A1.419,1.419,0,0,1,191.352,177.51Z" transform="translate(-170.171 -153.338)" fill="#fd4755" fill-rule="evenodd"/>
        </g>
        <g id="Group_1111785" data-name="Group 1111785" transform="translate(20.708 14.341)">
          <path id="Path_900658" data-name="Path 900658" d="M313.081,198.747h3.386a1.7,1.7,0,0,1,1.693,1.693v8.665h-6.773V200.44A1.7,1.7,0,0,1,313.081,198.747Z" transform="translate(-297.679 -197.827)" fill="#685e68" fill-rule="evenodd"/>
          <path id="Path_900659" data-name="Path 900659" d="M336.158,198.747h2.269a1.7,1.7,0,0,1,1.693,1.693v8.665h-2.269V200.44A1.7,1.7,0,0,0,336.158,198.747Z" transform="translate(-319.638 -197.827)" fill="#544854" fill-rule="evenodd"/>
          <circle id="Ellipse_11683" data-name="Ellipse 11683" cx="12.085" cy="12.085" r="12.085" transform="translate(0 17.088) rotate(-45)" fill="#837683"/>
          <path id="Path_900660" data-name="Path 900660" d="M332.37,234.736a12.085,12.085,0,0,1,0,24.169c-.383,0-.761-.019-1.135-.053a12.085,12.085,0,0,0,0-24.062C331.608,234.755,331.987,234.736,332.37,234.736Z" transform="translate(-315.274 -229.733)" fill="#685e68" fill-rule="evenodd"/>
        </g>
      </g>
      <path id="Path_900661" data-name="Path 900661" d="M46.924,62.685a.908.908,0,0,1,1.24-.332l1.609.929a.907.907,0,1,1-.908,1.572l-1.609-.929A.906.906,0,0,1,46.924,62.685Zm11.027,6.366a.908.908,0,0,1-1.24.332L55.1,68.454a.908.908,0,0,1,.908-1.573l1.609.93A.907.907,0,0,1,57.951,69.051ZM54.77,64.522a.908.908,0,0,1,.332-1.24l1.609-.929a.907.907,0,1,1,.908,1.572l-1.609.929a.907.907,0,0,1-1.24-.331Zm-1.425-4.113v1.858a.908.908,0,1,1-1.815,0V60.409a.908.908,0,1,1,1.815,0ZM41.172,74.1v1.721a13.018,13.018,0,0,0-4.957,0V74.1A.785.785,0,0,1,37,73.316h3.387A.786.786,0,0,1,41.172,74.1Zm8.7,14.475A11.177,11.177,0,1,1,38.693,77.4,11.19,11.19,0,0,1,49.87,88.576ZM7.534,94.693h19.7a12.774,12.774,0,0,1-.74-1.645H7.534A4.085,4.085,0,0,1,4,86.92L18.532,61.743a4.085,4.085,0,0,1,7.077,0l8.478,14.685c.1-.04.208-.077.313-.115V74.1a2.647,2.647,0,0,1,.027-.376l-7.394-12.8a5.729,5.729,0,0,0-9.925,0L2.572,86.1a5.73,5.73,0,0,0,4.963,8.6Zm18.439-3.461a12.994,12.994,0,0,1,6.459-14.038l-8.4-14.544a2.269,2.269,0,0,0-3.932,0L5.568,87.827a2.27,2.27,0,0,0,1.967,3.4ZM52.437,64.96a.908.908,0,0,0-.908.907A2.085,2.085,0,0,1,51,67.476c-.889.824-3.036.658-5.114.5-2.584-.2-5.256-.4-6.851,1.074A3.967,3.967,0,0,0,37.846,71.5H37a2.591,2.591,0,0,0-1.491.471L28.6,60.013a7.545,7.545,0,0,0-13.069,0L1,85.19A7.545,7.545,0,0,0,7.534,96.508H28.411A12.989,12.989,0,1,0,42.987,76.314V74.1a2.6,2.6,0,0,0-2.6-2.6h-.7a2.038,2.038,0,0,1,.583-1.119c1.014-.939,3.284-.765,5.478-.6,2.467.189,5.016.384,6.487-.977a3.823,3.823,0,0,0,1.112-2.941.908.908,0,0,0-.907-.907ZM38.693,95.017a6.449,6.449,0,0,1-6.441-6.441.908.908,0,1,0-1.815,0,8.267,8.267,0,0,0,8.256,8.257.908.908,0,0,0,0-1.816Zm-16.623-9.07a.91.91,0,1,1,.91-.91A.912.912,0,0,1,22.069,85.948Zm0-3.635a2.725,2.725,0,1,1-2.725,2.725A2.728,2.728,0,0,1,22.069,82.313Zm-.726-12.7a.462.462,0,0,1,.368-.157h.718a.512.512,0,0,1,.511.53l-.359,9.932a.511.511,0,0,1-1.022,0L21.2,69.987A.465.465,0,0,1,21.344,69.614Zm.726,12.613a2.318,2.318,0,0,1-2.324-2.243l-.359-9.931a2.327,2.327,0,0,1,2.325-2.411h.718a2.328,2.328,0,0,1,2.325,2.41L24.4,79.984a2.319,2.319,0,0,1-2.325,2.243h0Z" transform="translate(0)" fill-rule="evenodd"/>
    </g>
  </g>
</svg>
