<svg xmlns="http://www.w3.org/2000/svg" width="77" height="77" viewBox="0 0 77 77">
  <g id="Group_1111782" data-name="Group 1111782" transform="translate(-760.051 -10214.719)">
    <g id="Group_1111363" data-name="Group 1111363" transform="translate(-260.679 7121.719)">
      <g id="Group_1098742" data-name="Group 1098742" transform="translate(1020.73 3093)">
        <rect id="Rectangle_400898" data-name="Rectangle 400898" width="77" height="77" rx="38.5" transform="translate(0 0)" fill="#ccda2d"/>
        <rect id="Rectangle_400907" data-name="Rectangle 400907" width="77" height="77" rx="38.5" transform="translate(0 0)" fill="none"/>
      </g>
    </g>
    <g id="Page-1" transform="translate(781.051 10230.544)">
      <g id="_024---Power-Station" data-name="024---Power-Station" transform="translate(0 0)">
        <path id="Shape" d="M33.6,55a1.482,1.482,0,0,1,0,2.964H2.482a1.482,1.482,0,0,1,0-2.964Z" transform="translate(-0.259 -14.248)" fill="#607d8b"/>
        <path id="Shape-2" data-name="Shape" d="M44.223,55H42a1.482,1.482,0,1,1,0,2.964h2.223a1.482,1.482,0,0,0,0-2.964Z" transform="translate(-10.881 -14.248)" fill="#37474f"/>
        <path id="Shape-3" data-name="Shape" d="M33.6,21.964H2.482a1.482,1.482,0,1,1,0-2.964H33.6a1.482,1.482,0,0,1,0,2.964Z" transform="translate(-0.259 -4.922)" fill="#607d8b"/>
        <path id="Shape-4" data-name="Shape" d="M44.223,19H42a1.482,1.482,0,1,1,0,2.964h2.223a1.482,1.482,0,0,0,0-2.964Z" transform="translate(-10.881 -4.922)" fill="#37474f"/>
        <path id="Rectangle-path" d="M5,23H33.156V46.71H5Z" transform="translate(-1.295 -5.958)" fill="#ff9801"/>
        <path id="Rectangle-path-2" data-name="Rectangle-path" d="M40,23h2.223V46.71H40Z" transform="translate(-10.362 -5.958)" fill="#f57c00"/>
        <path id="Shape-5" data-name="Shape" d="M18.965,30.9l-7.609,11.44a2.06,2.06,0,0,0,1.66,3.216H28.249a2.06,2.06,0,0,0,1.66-3.216L22.3,30.9a1.986,1.986,0,0,0-3.334,0Z" transform="translate(-2.85 -7.771)" fill="#ffdc00"/>
        <path id="Rectangle-path-3" data-name="Rectangle-path" d="M8,15h2.964v2.964H8Z" transform="translate(-2.072 -3.886)" fill="#37474f"/>
        <path id="Shape-6" data-name="Shape" d="M10.185,11l2.008,1.7a.741.741,0,0,1-.526,1.267H5.739A.741.741,0,0,1,5.213,12.7L7.221,11Z" transform="translate(-1.294 -2.85)" fill="#d84315"/>
        <path id="Shape-7" data-name="Shape" d="M10.185,7l2.008,1.7a.741.741,0,0,1-.526,1.267H5.739A.741.741,0,0,1,5.213,8.7L7.221,7Z" transform="translate(-1.294 -1.813)" fill="#ff5722"/>
        <path id="Shape-8" data-name="Shape" d="M9.911,3a.741.741,0,0,1,.482.178l1.8,1.519a.741.741,0,0,1-.526,1.267H5.739A.741.741,0,0,1,5.213,4.7l1.8-1.482A.741.741,0,0,1,7.5,3Z" transform="translate(-1.294 -0.777)" fill="#ff9801"/>
        <path id="Rectangle-path-4" data-name="Rectangle-path" d="M36,15h2.964v2.964H36Z" transform="translate(-9.326 -3.886)" fill="#37474f"/>
        <path id="Shape-9" data-name="Shape" d="M38.185,11l2.008,1.7a.741.741,0,0,1-.526,1.267H33.739a.741.741,0,0,1-.526-1.267L35.221,11Z" transform="translate(-8.548 -2.85)" fill="#d84315"/>
        <path id="Shape-10" data-name="Shape" d="M38.185,7l2.008,1.7a.741.741,0,0,1-.526,1.267H33.739A.741.741,0,0,1,33.213,8.7L35.221,7Z" transform="translate(-8.548 -1.813)" fill="#ff5722"/>
        <path id="Shape-11" data-name="Shape" d="M37.911,3a.741.741,0,0,1,.482.178l1.8,1.519a.741.741,0,0,1-.526,1.267H33.739A.741.741,0,0,1,33.213,4.7l1.8-1.482A.741.741,0,0,1,35.5,3Z" transform="translate(-8.548 -0.777)" fill="#ff9801"/>
        <path id="Rectangle-path-5" data-name="Rectangle-path" d="M22,15h2.964v2.964H22Z" transform="translate(-5.699 -3.886)" fill="#37474f"/>
        <path id="Shape-12" data-name="Shape" d="M24.185,11l2.008,1.7a.741.741,0,0,1-.526,1.267H19.739a.741.741,0,0,1-.526-1.267L21.221,11Z" transform="translate(-4.921 -2.85)" fill="#d84315"/>
        <path id="Shape-13" data-name="Shape" d="M24.185,7l2.008,1.7a.741.741,0,0,1-.526,1.267H19.739A.741.741,0,0,1,19.213,8.7L21.221,7Z" transform="translate(-4.921 -1.813)" fill="#ff5722"/>
        <path id="Shape-14" data-name="Shape" d="M23.911,3a.741.741,0,0,1,.482.178l1.8,1.519a.741.741,0,0,1-.526,1.267H19.739A.741.741,0,0,1,19.213,4.7l1.8-1.482A.741.741,0,0,1,21.5,3Z" transform="translate(-4.921 -0.777)" fill="#ff9801"/>
        <g id="Group_1111649" data-name="Group 1111649">
          <path id="Shape-15" data-name="Shape" d="M22.658,30.231a2.734,2.734,0,0,0-4.564,0l-7.617,11.44a2.838,2.838,0,0,0-.133,2.89,2.712,2.712,0,0,0,2.415,1.482H27.993a2.712,2.712,0,0,0,2.415-1.482,2.838,2.838,0,0,0-.133-2.912ZM29.1,43.879a1.245,1.245,0,0,1-1.111.682H12.759a1.245,1.245,0,0,1-1.111-.682,1.334,1.334,0,0,1,.067-1.386l7.609-11.44a1.252,1.252,0,0,1,2.1,0l7.609,11.44a1.334,1.334,0,0,1,.067,1.386Z" transform="translate(-2.594 -7.513)"/>
          <path id="Shape-16" data-name="Shape" d="M24.449,39.684H22.055L23.6,37.1a.741.741,0,1,0-1.274-.741l-2.223,3.7a.741.741,0,0,0,.637,1.1h2.393l-1.549,2.586a.741.741,0,1,0,1.274.756l2.223-3.7a.741.741,0,0,0-.637-1.119Z" transform="translate(-5.184 -9.306)"/>
          <path id="Shape-17" data-name="Shape" d="M22.117,5.016a1.482,1.482,0,0,0-.37-1.66L19.953,1.838a1.482,1.482,0,0,0-.963-.356h-.467V.741a.741.741,0,0,0-1.482,0v.741h-.467a1.482,1.482,0,0,0-.963.348L13.774,3.4a1.482,1.482,0,0,0,.593,2.453l-.593.511a1.482,1.482,0,0,0,.593,2.453l-.593.511a1.482,1.482,0,0,0,1.045,2.527h.741v1.482H9.632V11.855h.741a1.478,1.478,0,0,0,1-2.571l-.548-.467a1.472,1.472,0,0,0,.548-2.5l-.548-.467a1.472,1.472,0,0,0,.548-2.5L9.58,1.838a1.482,1.482,0,0,0-.963-.356H8.15V.741a.741.741,0,0,0-1.482,0v.741H6.2a1.482,1.482,0,0,0-.963.348L3.4,3.4a1.482,1.482,0,0,0,.593,2.453L3.4,6.365a1.482,1.482,0,0,0,.593,2.453L3.4,9.328a1.482,1.482,0,0,0,1.045,2.527h.741v1.482H2.223a2.223,2.223,0,0,0,0,4.446h.741V40.011H2.223a2.223,2.223,0,0,0,0,4.446H33.342a2.223,2.223,0,1,0,0-4.446H32.6V17.783h.741a2.223,2.223,0,0,0,0-4.446H30.378V11.855h.741a1.478,1.478,0,0,0,1-2.571l-.548-.467a1.472,1.472,0,0,0,.548-2.5l-.548-.467a1.472,1.472,0,0,0,.548-2.5L30.327,1.838a1.482,1.482,0,0,0-.963-.356H28.9V.741a.741.741,0,1,0-1.482,0v.741h-.467a1.482,1.482,0,0,0-.963.348L24.147,3.4a1.482,1.482,0,0,0,.593,2.453l-.593.511a1.482,1.482,0,0,0,.593,2.453l-.593.511a1.482,1.482,0,0,0,1.045,2.527h.741v1.482H20.005V11.855h.741a1.478,1.478,0,0,0,1-2.571L21.2,8.817a1.472,1.472,0,0,0,.548-2.5L21.2,5.853a1.482,1.482,0,0,0,.919-.837ZM16.575,2.964H18.99l1.756,1.482-5.972.044Zm4.171,4.446-5.972.044,1.8-1.526H18.99ZM4.4,7.454,6.2,5.928H8.617l1.756,1.482Zm1.8-4.49H8.617l1.756,1.482L4.4,4.49ZM4.4,10.418,6.2,8.891H8.617l1.756,1.482Zm2.267,1.437H8.15v1.482H6.668ZM31.119,40.011H11.855a.741.741,0,0,0,0,1.482H33.342a.741.741,0,0,1,0,1.482H2.223a.741.741,0,1,1,0-1.482H8.15a.741.741,0,0,0,0-1.482h-3.7V17.783H6.668v1.482a.741.741,0,0,0,1.482,0V17.783h8.891v1.482a.741.741,0,0,0,1.482,0V17.783h8.891v1.482a.741.741,0,0,0,1.482,0V17.783h2.223ZM34.083,15.56a.741.741,0,0,1-.741.741H2.223a.741.741,0,0,1,0-1.482H33.342A.741.741,0,0,1,34.083,15.56ZM25.147,7.454l1.8-1.526h2.415l1.756,1.482Zm1.8-4.49h2.415l1.756,1.482-5.972.044Zm-1.8,7.454,1.8-1.526h2.415l1.756,1.482c-2.275,0-1.8,0-5.972.044Zm2.267,1.437H28.9v1.482H27.415Zm-8.891,1.482H17.042V11.855h1.482Zm-3.749-2.919,1.8-1.526H18.99l1.756,1.482c-2.275,0-1.8,0-5.972.044Z" transform="translate(0 0)"/>
        </g>
      </g>
    </g>
  </g>
</svg>
