<svg xmlns="http://www.w3.org/2000/svg" width="85" height="86" viewBox="0 0 85 86">
  <g id="Group_1111967" data-name="Group 1111967" transform="translate(-17022 6516)">
    <rect id="Rectangle_404362" data-name="Rectangle 404362" width="85" height="86" rx="8" transform="translate(17022 -6516)" fill="#9eceb6"/>
    <g id="XMLID_2147_" transform="translate(17035 -6520)">
      <g id="XMLID_1644_" transform="translate(1.15 21.15)">
        <g id="XMLID_2911_" transform="translate(19.652 40.482)">
          <path id="XMLID_1515_" d="M198.155,388.44h-17.28l1.668-6.44h13.944Z" transform="translate(-180.875 -382)" fill="#8aa8bd"/>
        </g>
        <g id="XMLID_2910_" transform="translate(14.951 46.922)">
          <path id="XMLID_1514_" d="M164.151,443.06H142.53a2.53,2.53,0,1,1,0-5.06h21.621a2.53,2.53,0,1,1,0,5.06Z" transform="translate(-140 -438)" fill="#e2e9ee"/>
        </g>
        <g id="XMLID_2909_" transform="translate(0 0)">
          <path id="XMLID_1512_" d="M61.982,70.482H14.6a4.6,4.6,0,0,1-4.6-4.6V34.6A4.6,4.6,0,0,1,14.6,30H61.982a4.6,4.6,0,0,1,4.6,4.6V65.882A4.6,4.6,0,0,1,61.982,70.482Z" transform="translate(-10 -30)" fill="#99ebfa"/>
        </g>
        <g id="XMLID_2908_" transform="translate(0 32.202)">
          <path id="XMLID_1495_" d="M66.583,310v3.68a4.6,4.6,0,0,1-4.6,4.6H14.6a4.6,4.6,0,0,1-4.6-4.6V310Z" transform="translate(-10 -310)" fill="#e2e9ee"/>
        </g>
        <g id="XMLID_2902_" transform="translate(0 26.329)">
          <path id="XMLID_1492_" d="M10.905,276.048a3.091,3.091,0,0,1,0-4.371l12.739-12.739,4.371,4.371L15.277,276.048A3.091,3.091,0,0,1,10.905,276.048Z" transform="translate(-10 -258.938)" fill="#ffcd69"/>
        </g>
        <g id="XMLID_2900_" transform="translate(9.383 9.507)">
          <circle id="XMLID_1491_" cx="12.727" cy="12.727" r="12.727" fill="#fff"/>
        </g>
        <g id="XMLID_2899_" transform="translate(14.086 17.366)">
          <ellipse id="XMLID_1489_" cx="8.024" cy="4.869" rx="8.024" ry="4.869" fill="#ccf5fc"/>
        </g>
        <g id="XMLID_2799_" transform="translate(19.082 19.206)">
          <circle id="XMLID_540_" cx="3.029" cy="3.029" r="3.029" fill="#ff7b79"/>
        </g>
      </g>
      <g id="XMLID_529_" transform="translate(0 20)">
        <path id="XMLID_1481_" d="M53.133,20H34.617a1.15,1.15,0,1,0,0,2.3H53.133a3.454,3.454,0,0,1,3.45,3.45V52.113H34.04a13.875,13.875,0,1,0-23.12-2.386L8.445,52.2H2.3V25.75A3.454,3.454,0,0,1,5.75,22.3H24.266a1.15,1.15,0,0,0,0-2.3H5.75A5.757,5.757,0,0,0,0,25.75V57.032a5.774,5.774,0,0,0,.79,2.907A4.241,4.241,0,0,0,7.24,65.4l2.621-2.621H20.983l-1.072,4.14h-1.28a3.68,3.68,0,0,0,0,7.36H40.252a3.68,3.68,0,0,0,0-7.36h-1.28L37.9,62.782H53.133a5.757,5.757,0,0,0,5.75-5.75V25.75A5.757,5.757,0,0,0,53.133,20ZM23.26,31.807A11.577,11.577,0,1,1,11.683,43.385,11.59,11.59,0,0,1,23.26,31.807ZM6.145,54.5,2.488,58.159A3.445,3.445,0,0,1,2.3,57.032V54.5Zm-.532,9.274a1.941,1.941,0,1,1-2.745-2.745l9.307-9.307a13.992,13.992,0,0,0,2.745,2.745ZM41.632,70.6a1.382,1.382,0,0,1-1.38,1.38H18.631a1.38,1.38,0,0,1,0-2.76H40.252A1.382,1.382,0,0,1,41.632,70.6ZM36.6,66.922H22.287l1.072-4.14H35.523Zm16.537-6.44H12.161l4.757-4.757a13.852,13.852,0,0,0,14.755-1.312h24.91v2.618a3.454,3.454,0,0,1-3.45,3.45Z" transform="translate(0 -20)"/>
        <path id="XMLID_1509_" d="M131.658,183.038a10.172,10.172,0,0,0,9.043-5.486,1.15,1.15,0,0,0,0-1.064,10.2,10.2,0,0,0-18.087,0,1.15,1.15,0,0,0,0,1.064A10.172,10.172,0,0,0,131.658,183.038Zm0-7.9a1.878,1.878,0,1,1-1.879,1.878A1.881,1.881,0,0,1,131.658,175.141Zm6.7,1.878a7.877,7.877,0,0,1-4.128,3.289,4.171,4.171,0,0,0,0-6.579A7.877,7.877,0,0,1,138.358,177.02Zm-9.272-3.289a4.171,4.171,0,0,0,0,6.579,7.876,7.876,0,0,1-4.128-3.289A7.878,7.878,0,0,1,129.086,173.73Z" transform="translate(-108.398 -153.635)"/>
        <path id="XMLID_1518_" d="M347.4,134.307a1.15,1.15,0,0,0,1.15,1.15h11.57a1.15,1.15,0,1,0,0-2.3h-11.57A1.15,1.15,0,0,0,347.4,134.307Z" transform="translate(-307.444 -120.143)"/>
        <path id="XMLID_1519_" d="M397.917,87.457a1.15,1.15,0,1,0,0-2.3h-6.658a1.15,1.15,0,0,0,0,2.3Z" transform="translate(-345.244 -77.664)"/>
        <path id="XMLID_1520_" d="M347.709,85.16a1.152,1.152,0,1,0,.813.337A1.158,1.158,0,0,0,347.709,85.16Z" transform="translate(-306.704 -77.666)"/>
        <path id="XMLID_1521_" d="M449.963,183.124a1.149,1.149,0,1,0-.813.337A1.159,1.159,0,0,0,449.963,183.124Z" transform="translate(-396.478 -162.627)"/>
        <path id="XMLID_1522_" d="M398.85,183.46a1.151,1.151,0,1,0-.813-.337A1.158,1.158,0,0,0,398.85,183.46Z" transform="translate(-351.962 -162.626)"/>
        <path id="XMLID_1523_" d="M349.363,183.124a1.151,1.151,0,1,0-.813.337A1.157,1.157,0,0,0,349.363,183.124Z" transform="translate(-307.447 -162.627)"/>
        <path id="XMLID_1524_" d="M348.546,231.457h3.692a1.15,1.15,0,0,0,0-2.3h-3.692a1.15,1.15,0,1,0,0,2.3Z" transform="translate(-307.444 -205.103)"/>
        <path id="XMLID_1525_" d="M423.5,230.307a1.15,1.15,0,0,0,1.15,1.15h3.788a1.15,1.15,0,0,0,0-2.3H424.65A1.15,1.15,0,0,0,423.5,230.307Z" transform="translate(-374.795 -205.103)"/>
        <path id="XMLID_1526_" d="M247.15,22.3a1.151,1.151,0,1,0-.813-.337A1.158,1.158,0,0,0,247.15,22.3Z" transform="translate(-217.709 -20)"/>
      </g>
    </g>
  </g>
</svg>
