<svg xmlns="http://www.w3.org/2000/svg" width="77" height="77" viewBox="0 0 77 77">
  <g id="Group_1111867" data-name="Group 1111867" transform="translate(-11405 7068)">
    <g id="Group_1111501" data-name="Group 1111501" transform="translate(10384.27 -10161)">
      <g id="Group_1098742" data-name="Group 1098742" transform="translate(1020.73 3093)">
        <rect id="Rectangle_400898" data-name="Rectangle 400898" width="77" height="77" rx="38.5" transform="translate(0 0)" fill="#ccda2d"/>
        <rect id="Rectangle_400907" data-name="Rectangle 400907" width="77" height="77" rx="38.5" transform="translate(0 0)" fill="none"/>
      </g>
    </g>
    <g id="barra-grafica" transform="translate(11420 -7074.055)">
      <path id="Path_900991" data-name="Path 900991" d="M45.364,101.638H.865a.767.767,0,0,1,0-1.534H44.6V64.811a.767.767,0,1,1,1.534,0V100.87A.767.767,0,0,1,45.364,101.638Z" transform="translate(-0.089 -36.154)" fill="#5a6470"/>
      <path id="Path_900992" data-name="Path 900992" d="M48.1,240.044H57.3v16.879H48.1Z" transform="translate(-43.486 -195.275)" fill="#fdbd40"/>
      <path id="Path_900993" data-name="Path 900993" d="M192.1,144.044H201.3v26.085H192.1Z" transform="translate(-173.676 -108.482)" fill="#e9686a"/>
      <path id="Path_900994" data-name="Path 900994" d="M336.1,64.044H345.3V97.8H336.1Z" transform="translate(-303.866 -36.154)" fill="#238892"/>
      <path id="Path_900995" data-name="Path 900995" d="M16.121,32.811l2.526,2.526L12.285,41.7l-1.759-1.759a.767.767,0,0,0-1.085,0L.234,49.148a.767.767,0,0,0,1.066,1.1l.019-.019,8.664-8.664,1.759,1.759a.767.767,0,0,0,1.085,0l6.9-6.9,2.526,2.526.767-6.9Z" transform="translate(0 -7.223)" fill="#e9686a"/>
      <g id="Group_1111866" data-name="Group 1111866" transform="translate(6.914 37.864)">
        <path id="Path_900996" data-name="Path 900996" d="M72.865,363.113a.767.767,0,0,1-.767-.767v-1.534a.767.767,0,0,1,1.534,0v1.534A.767.767,0,0,1,72.865,363.113Z" transform="translate(-72.098 -341.631)" fill="#fff"/>
        <path id="Path_900997" data-name="Path 900997" d="M72.865,300.647a.767.767,0,0,1-.767-.767v-3.069a.767.767,0,1,1,1.534,0v3.069A.767.767,0,0,1,72.865,300.647Z" transform="translate(-72.098 -283.769)" fill="#fff"/>
        <path id="Path_900998" data-name="Path 900998" d="M216.865,363.113a.767.767,0,0,1-.767-.767v-1.534a.767.767,0,1,1,1.534,0v1.534A.767.767,0,0,1,216.865,363.113Z" transform="translate(-202.288 -341.631)" fill="#fff"/>
        <path id="Path_900999" data-name="Path 900999" d="M216.865,257.251a.767.767,0,0,1-.767-.767v-7.672a.767.767,0,0,1,1.534,0v7.672A.767.767,0,0,1,216.865,257.251Z" transform="translate(-202.288 -240.372)" fill="#fff"/>
        <path id="Path_901000" data-name="Path 901000" d="M360.865,363.113a.767.767,0,0,1-.767-.767v-1.534a.767.767,0,1,1,1.534,0v1.534A.767.767,0,0,1,360.865,363.113Z" transform="translate(-332.478 -341.631)" fill="#fff"/>
        <path id="Path_901001" data-name="Path 901001" d="M360.865,184.923a.767.767,0,0,1-.767-.767V168.811a.767.767,0,1,1,1.534,0v15.344A.767.767,0,0,1,360.865,184.923Z" transform="translate(-332.478 -168.044)" fill="#fff"/>
      </g>
      <path id="Path_901002" data-name="Path 901002" d="M45.364,64.044a.767.767,0,0,0-.767.767V100.1H.865a.767.767,0,0,0,0,1.534h44.5a.767.767,0,0,0,.767-.767V64.811A.767.767,0,0,0,45.364,64.044Z" transform="translate(-0.089 -36.154)"/>
      <path id="Path_901003" data-name="Path 901003" d="M40.865,232.044a.767.767,0,0,0-.767.767V249.69a.767.767,0,0,0,.767.767h9.207a.767.767,0,0,0,.767-.767V232.811a.767.767,0,0,0-.767-.767ZM49.3,248.923H41.632V233.578H49.3Z" transform="translate(-36.253 -188.042)"/>
      <path id="Path_901004" data-name="Path 901004" d="M184.865,136.044a.767.767,0,0,0-.767.767V162.9a.767.767,0,0,0,.767.767h9.207a.767.767,0,0,0,.767-.767V136.811a.767.767,0,0,0-.767-.767Zm8.439,26.085h-7.672V137.578H193.3Z" transform="translate(-166.443 -101.249)"/>
      <path id="Path_901005" data-name="Path 901005" d="M328.865,91.336h9.207a.767.767,0,0,0,.767-.767V56.811a.767.767,0,0,0-.767-.767h-9.207a.767.767,0,0,0-.767.767V90.569A.767.767,0,0,0,328.865,91.336Zm.767-33.757H337.3V89.8h-7.672Z" transform="translate(-296.633 -28.921)"/>
      <path id="Path_901006" data-name="Path 901006" d="M.324,43.01a.767.767,0,0,0,1.085,0l8.664-8.664L11.833,36.1a.767.767,0,0,0,1.085,0l6.363-6.363,2.526,2.526a.767.767,0,0,0,1.3-.46l.767-6.9a.767.767,0,0,0-.844-.844l-6.9.767a.767.767,0,0,0-.46,1.3L18.2,28.657l-5.82,5.82-1.759-1.759a.767.767,0,0,0-1.085,0L.324,41.925a.767.767,0,0,0,0,1.085ZM22.248,25.69l-.485,4.365-3.88-3.88Z" transform="translate(-0.091)"/>
      <path id="Path_901007" data-name="Path 901007" d="M72.865,363.113a.767.767,0,0,0,.767-.767v-1.534a.767.767,0,0,0-1.534,0v1.534A.767.767,0,0,0,72.865,363.113Z" transform="translate(-65.184 -303.767)"/>
      <path id="Path_901008" data-name="Path 901008" d="M72.865,300.647a.767.767,0,0,0,.767-.767v-3.069a.767.767,0,1,0-1.534,0v3.069A.767.767,0,0,0,72.865,300.647Z" transform="translate(-65.184 -245.905)"/>
      <path id="Path_901009" data-name="Path 901009" d="M216.865,363.113a.767.767,0,0,0,.767-.767v-1.534a.767.767,0,1,0-1.534,0v1.534A.767.767,0,0,0,216.865,363.113Z" transform="translate(-195.374 -303.767)"/>
      <path id="Path_901010" data-name="Path 901010" d="M216.865,257.251a.767.767,0,0,0,.767-.767v-7.672a.767.767,0,0,0-1.534,0v7.672A.767.767,0,0,0,216.865,257.251Z" transform="translate(-195.374 -202.508)"/>
      <path id="Path_901011" data-name="Path 901011" d="M360.865,360.044a.767.767,0,0,0-.767.767v1.534a.767.767,0,1,0,1.534,0v-1.534A.767.767,0,0,0,360.865,360.044Z" transform="translate(-325.564 -303.767)"/>
      <path id="Path_901012" data-name="Path 901012" d="M360.865,168.044a.767.767,0,0,0-.767.767v15.344a.767.767,0,0,0,1.534,0V168.811A.767.767,0,0,0,360.865,168.044Z" transform="translate(-325.564 -130.18)"/>
    </g>
  </g>
</svg>
