<svg xmlns="http://www.w3.org/2000/svg" width="77" height="77" viewBox="0 0 77 77">
  <g id="Group_1111906" data-name="Group 1111906" transform="translate(-752 -4459)">
    <g id="Group_1111535" data-name="Group 1111535" transform="translate(-268.73 1366)">
      <g id="Group_1098742" data-name="Group 1098742" transform="translate(1020.73 3093)">
        <rect id="Rectangle_400898" data-name="Rectangle 400898" width="77" height="77" rx="38.5" transform="translate(0 0)" fill="#ccda2d"/>
        <rect id="Rectangle_400907" data-name="Rectangle 400907" width="77" height="77" rx="38.5" transform="translate(0 0)" fill="none"/>
      </g>
    </g>
    <g id="auditoria" transform="translate(767 4474)">
      <g id="Group_1111904" data-name="Group 1111904" transform="translate(0.778 0.778)">
        <g id="Group_1111886" data-name="Group 1111886" transform="translate(35.003 23.335)">
          <path id="Path_901061" data-name="Path 901061" d="M56.781,38.2l-4.317,1.789A6.978,6.978,0,0,0,46,35.667V31a11.674,11.674,0,0,1,10.781,7.2Z" transform="translate(-46 -31)" fill="#b4dd7f"/>
        </g>
        <g id="Group_1111887" data-name="Group 1111887" transform="translate(35.003 30.538)">
          <path id="Path_901062" data-name="Path 901062" d="M56.781,40.26a11.547,11.547,0,0,1,.887,4.465A11.672,11.672,0,0,1,46,56.393V51.725a7,7,0,0,0,7-7,6.82,6.82,0,0,0-.537-2.676Z" transform="translate(-46 -40.26)" fill="#fcd770"/>
        </g>
        <g id="Group_1111888" data-name="Group 1111888" transform="translate(22.744 34.731)">
          <path id="Path_901063" data-name="Path 901063" d="M30.24,48.248a6.957,6.957,0,0,0,5.258-2.6l.008.008c-.008.086-.008.171-.008.264a7,7,0,0,0,7,7V57.59a11.665,11.665,0,0,1-9.715-5.2,1.529,1.529,0,0,0,.381-1.019V49.811a1.56,1.56,0,0,0-1.556-1.556H30.24Z" transform="translate(-30.24 -45.65)" fill="#ff826e"/>
        </g>
        <g id="Group_1111889" data-name="Group 1111889" transform="translate(27.863 23.335)">
          <path id="Path_901064" data-name="Path 901064" d="M38.516,38a6.959,6.959,0,0,0-1.7-4.566A11.644,11.644,0,0,1,43.961,31v4.667a6.98,6.98,0,0,0-5.445,2.6h-.008C38.516,38.18,38.516,38.086,38.516,38Z" transform="translate(-36.82 -31)" fill="#ff826e"/>
        </g>
        <g id="Group_1111890" data-name="Group 1111890" transform="translate(26.447)">
          <path id="Path_901065" data-name="Path 901065" d="M35,1h4.667V4.111H35Z" transform="translate(-35 -1)" fill="#ff826e"/>
        </g>
        <g id="Group_1111891" data-name="Group 1111891" transform="translate(26.447 6.223)">
          <path id="Path_901066" data-name="Path 901066" d="M35,9h4.667v3.111H35Z" transform="translate(-35 -9)" fill="#ff826e"/>
        </g>
        <g id="Group_1111892" data-name="Group 1111892" transform="translate(26.447 12.446)">
          <path id="Path_901067" data-name="Path 901067" d="M35,17h4.667v3.111H35Z" transform="translate(-35 -17)" fill="#ff826e"/>
        </g>
        <g id="Group_1111893" data-name="Group 1111893" transform="translate(0 6.223)">
          <path id="Path_901068" data-name="Path 901068" d="M21.224,18.334H11.112A2.33,2.33,0,0,1,8.778,16H8A3.891,3.891,0,0,0,4.111,19.89v1.556H3.334A2.335,2.335,0,0,0,2,21.866,8.8,8.8,0,0,1,9.8,9h5.741a8.8,8.8,0,0,1,7.8,12.866A2.335,2.335,0,0,0,22,21.446h-.778Z" transform="translate(-1 -9)" fill="#b27946"/>
        </g>
        <g id="Group_1111894" data-name="Group 1111894" transform="translate(21.002 42.004)">
          <path id="Path_901069" data-name="Path 901069" d="M31.111,55v3.889a.78.78,0,0,1-.778.778H28.778A.78.78,0,0,1,28,58.889V55Z" transform="translate(-28 -55)" fill="#969faa"/>
        </g>
        <g id="Group_1111895" data-name="Group 1111895" transform="translate(7.001 31.114)">
          <path id="Path_901070" data-name="Path 901070" d="M16.223,47.223h6.223A1.56,1.56,0,0,1,24,48.778V51.89a1.56,1.56,0,0,1-1.556,1.556H14.667A4.671,4.671,0,0,1,10,48.778V44.111A3.111,3.111,0,0,1,13.111,41c.109,0,.21.008.319.016a3.589,3.589,0,0,1,1.882.895,3.131,3.131,0,0,1,.91,2.2Z" transform="translate(-10 -41)" fill="#fcd770"/>
        </g>
        <g id="Group_1111896" data-name="Group 1111896" transform="translate(10.431 30.468)">
          <path id="Path_901071" data-name="Path 901071" d="M23.425,47.038H17.2V43.927a3.131,3.131,0,0,0-.91-2.2,3.589,3.589,0,0,0-1.882-.895V40.8c.148.008.3.016.459.016h1.556a7.812,7.812,0,0,0,3.111-.646,7,7,0,0,0,7,6.868,1.5,1.5,0,0,0,.187-.008v.008a1.556,1.556,0,0,0-1.392.863l-.35.692A1.56,1.56,0,0,0,23.425,47.038Z" transform="translate(-14.41 -40.17)" fill="#fcd770"/>
        </g>
        <g id="Group_1111897" data-name="Group 1111897" transform="translate(21.002 37.337)">
          <path id="Path_901072" data-name="Path 901072" d="M32.667,50.556v1.556a1.529,1.529,0,0,1-.381,1.019,1.566,1.566,0,0,1-1.175.537H28V50.556l.35-.692A1.556,1.556,0,0,1,29.742,49h1.369A1.56,1.56,0,0,1,32.667,50.556Z" transform="translate(-28 -49)" fill="#f0d0b4"/>
        </g>
        <g id="Group_1111898" data-name="Group 1111898" transform="translate(20.224 18.668)">
          <path id="Path_901073" data-name="Path 901073" d="M29.116,25.42a2.335,2.335,0,0,1-1.338,4.247H27V25h.778A2.335,2.335,0,0,1,29.116,25.42Z" transform="translate(-27 -25)" fill="#f0d0b4"/>
        </g>
        <g id="Group_1111899" data-name="Group 1111899" transform="translate(3.111 13.223)">
          <path id="Path_901074" data-name="Path 901074" d="M22.1,28.517a7,7,0,0,0-4.659,6.6v.132a7.812,7.812,0,0,1-3.111.646H12.778c-.156,0-.311-.008-.459-.016A7.781,7.781,0,0,1,5,28.112V21.889A3.891,3.891,0,0,1,8.889,18h.778A2.33,2.33,0,0,0,12,20.334H22.113v7.778C22.113,28.244,22.113,28.384,22.1,28.517Z" transform="translate(-5 -18)" fill="#f0d0b4"/>
        </g>
        <g id="Group_1111900" data-name="Group 1111900" transform="translate(0 18.668)">
          <path id="Path_901075" data-name="Path 901075" d="M4.111,25v4.667H3.334a2.332,2.332,0,0,1-1.649-3.983A2.539,2.539,0,0,1,2,25.42,2.335,2.335,0,0,1,3.334,25Z" transform="translate(-1 -25)" fill="#f0d0b4"/>
        </g>
        <g id="Group_1111901" data-name="Group 1111901" transform="translate(8.556 24.891)">
          <path id="Path_901076" data-name="Path 901076" d="M12,33h6.223A3.111,3.111,0,0,1,12,33Z" transform="translate(-12 -33)" fill="#ff826e"/>
        </g>
        <g id="Group_1111902" data-name="Group 1111902" transform="translate(15.557 23.335)">
          <path id="Path_901077" data-name="Path 901077" d="M35,38c0,.086,0,.179-.008.264a7,7,0,0,1-6.806,6.728A1.5,1.5,0,0,1,28,45a7,7,0,0,1-7-6.868V38a7,7,0,0,1,4.659-6.6A6.856,6.856,0,0,1,28,31a7,7,0,0,1,7,7Z" transform="translate(-21 -31)" fill="#ccd1d9"/>
        </g>
        <g id="Group_1111903" data-name="Group 1111903" transform="translate(18.668 26.447)">
          <circle id="Ellipse_11702" data-name="Ellipse 11702" cx="4" cy="4" r="4" transform="translate(-0.446 -0.225)" fill="#69d6f4"/>
        </g>
      </g>
      <g id="Group_1111905" data-name="Group 1111905">
        <path id="Path_901078" data-name="Path 901078" d="M18.778,32.778V32H11v.778a3.889,3.889,0,1,0,7.778,0Zm-6.09.778h4.4a2.334,2.334,0,0,1-4.4,0Z" transform="translate(-2.444 -7.109)"/>
        <path id="Path_901079" data-name="Path 901079" d="M11.667,27.111h1.556a3.111,3.111,0,0,0-6.223,0H8.556a1.556,1.556,0,1,1,3.111,0Z" transform="translate(-1.555 -5.332)"/>
        <path id="Path_901080" data-name="Path 901080" d="M20.111,25.556a1.557,1.557,0,0,1,1.556,1.556h1.556a3.111,3.111,0,0,0-6.223,0h1.556A1.557,1.557,0,0,1,20.111,25.556Z" transform="translate(-3.777 -5.332)"/>
        <path id="Path_901081" data-name="Path 901081" d="M24,38.667A4.667,4.667,0,1,0,28.667,34,4.672,4.672,0,0,0,24,38.667Zm7.778,0a3.111,3.111,0,1,1-3.111-3.111A3.115,3.115,0,0,1,31.778,38.667Z" transform="translate(-5.332 -7.553)"/>
        <path id="Path_901082" data-name="Path 901082" d="M35.781,25.113a12.31,12.31,0,0,0-7.043,2.194A7.757,7.757,0,0,0,24.413,25.2a3.061,3.061,0,0,0-.359-3.746A9.542,9.542,0,0,0,15.313,8H9.578A9.543,9.543,0,0,0,.836,21.449a3.1,3.1,0,0,0,2.275,5.219H3.15A8.571,8.571,0,0,0,8.418,33.8,3.866,3.866,0,0,0,7,36.779v4.669a5.451,5.451,0,0,0,5.445,5.445h7.778A2.307,2.307,0,0,0,21,46.749v1.7A1.557,1.557,0,0,0,22.558,50h1.556a1.557,1.557,0,0,0,1.556-1.556V45.194a2.281,2.281,0,0,0,.216-.087,12.446,12.446,0,1,0,9.9-19.994Zm-21.828,9.3a8.434,8.434,0,0,0,1.706-.322,7.771,7.771,0,0,0,3.029,5.026H14.778V36.779a3.847,3.847,0,0,0-.825-2.369Zm8.6,7.222.266-.532a.774.774,0,0,1,.7-.429h1.372a.779.779,0,0,1,.778.778V43a.779.779,0,0,1-.778.778H22.558Zm4.084-1.71a7.767,7.767,0,0,0,1.5-.926,7.762,7.762,0,0,0,1.62,3.482l-2.211,2.211c-.194-.225-.368-.471-.545-.713A2.308,2.308,0,0,0,27.225,43V41.447a2.315,2.315,0,0,0-.583-1.526ZM40.7,31.539a7.826,7.826,0,0,0-1.24-.832l1.191-2.876a10.9,10.9,0,0,1,2.25,1.506Zm-2.677-1.427a7.732,7.732,0,0,0-1.465-.293V26.708a10.81,10.81,0,0,1,2.657.524ZM35,29.823a7.732,7.732,0,0,0-4.03,1.618A7.739,7.739,0,0,0,29.747,28.5,10.743,10.743,0,0,1,35,26.7ZM30.862,43.577A7.741,7.741,0,0,0,35,45.3v3.1a10.843,10.843,0,0,1-6.346-2.618Zm4.919.2a6.23,6.23,0,0,1-6.223-6.223v-.02a7.726,7.726,0,0,0,1.525-4.049,6.219,6.219,0,1,1,4.7,10.292ZM41.8,32.639l2.2-2.2a10.913,10.913,0,0,1,1.506,2.25l-2.876,1.191A7.739,7.739,0,0,0,41.8,32.639Zm-12.242.252a6.223,6.223,0,1,1-6.223-6.223A6.23,6.23,0,0,1,29.558,32.891Zm-6.223-9.334a1.557,1.557,0,0,1-1.556,1.556V22A1.557,1.557,0,0,1,23.335,23.557Zm-21.78,0A1.557,1.557,0,0,1,3.111,22v3.111A1.557,1.557,0,0,1,1.556,23.557Zm1.556-3.889v.778a3.058,3.058,0,0,0-.95.164A8,8,0,0,1,9.578,9.556h5.735a8,8,0,0,1,7.416,11.053,3.072,3.072,0,0,0-.949-.163V18.112a5.352,5.352,0,0,0-4.487-5.3l-.831-.138-.256,1.535.831.138a3.8,3.8,0,0,1,3.108,2.983H10.89a1.556,1.556,0,0,1,0-3.111h1.556V12.667H10.89a3.109,3.109,0,0,0-3,2.334h-.11a4.672,4.672,0,0,0-4.667,4.667ZM4.667,25.89V19.668a3.116,3.116,0,0,1,3.111-3.111h.11a3.109,3.109,0,0,0,3,2.334h9.334v6.877a7.785,7.785,0,0,0-4.646,6.71,6.975,6.975,0,0,1-2.355.414H11.668A7.009,7.009,0,0,1,4.667,25.89ZM20.224,45.337H12.446a3.894,3.894,0,0,1-3.889-3.889V36.78a2.334,2.334,0,0,1,4.667,0v2.876L11.8,41.794l1.294.863,1.323-1.987h5.807a.779.779,0,0,1,.778.778v3.111A.779.779,0,0,1,20.224,45.337Zm2.334,3.111V45.337h1.556v3.111Zm14-.04V45.3a7.769,7.769,0,0,0,6.668-9.981l2.88-1.193a10.858,10.858,0,0,1-9.548,14.286Z" transform="translate(0 -1.777)"/>
        <path id="Path_901083" data-name="Path 901083" d="M40.223,0H34V4.667h6.223ZM38.667,3.111H35.556V1.556h3.111Z" transform="translate(-7.553)"/>
        <path id="Path_901084" data-name="Path 901084" d="M44,0H58V1.556H44Z" transform="translate(-9.775)"/>
        <path id="Path_901085" data-name="Path 901085" d="M44,4H58V5.556H44Z" transform="translate(-9.775 -0.889)"/>
        <path id="Path_901086" data-name="Path 901086" d="M40.223,8H34v4.667h6.223Zm-1.556,3.111H35.556V9.556h3.111Z" transform="translate(-7.553 -1.777)"/>
        <path id="Path_901087" data-name="Path 901087" d="M44,8H58V9.556H44Z" transform="translate(-9.775 -1.777)"/>
        <path id="Path_901088" data-name="Path 901088" d="M44,12H58v1.556H44Z" transform="translate(-9.775 -2.666)"/>
        <path id="Path_901089" data-name="Path 901089" d="M40.223,16H34v4.667h6.223Zm-1.556,3.111H35.556V17.556h3.111Z" transform="translate(-7.553 -3.554)"/>
        <path id="Path_901090" data-name="Path 901090" d="M44,16H58v1.556H44Z" transform="translate(-9.775 -3.554)"/>
        <path id="Path_901091" data-name="Path 901091" d="M44,20H58v1.556H44Z" transform="translate(-9.775 -4.443)"/>
      </g>
    </g>
  </g>
</svg>
