<svg xmlns="http://www.w3.org/2000/svg" width="77" height="77" viewBox="0 0 77 77">
  <g id="Group_1111911" data-name="Group 1111911" transform="translate(-16291 7149)">
    <g id="Group_1111537" data-name="Group 1111537" transform="translate(15270.27 -10242)">
      <g id="Group_1098742" data-name="Group 1098742" transform="translate(1020.73 3093)">
        <rect id="Rectangle_400898" data-name="Rectangle 400898" width="77" height="77" rx="38.5" transform="translate(0 0)" fill="#ccda2d"/>
        <rect id="Rectangle_400907" data-name="Rectangle 400907" width="77" height="77" rx="38.5" transform="translate(0 0)" fill="none"/>
      </g>
    </g>
    <g id="documentos" transform="translate(16276.5 -7136)">
      <g id="Group_1111909" data-name="Group 1111909" transform="translate(31.261 0.761)">
        <path id="Path_901092" data-name="Path 901092" d="M163.507,92.5h30.531a.507.507,0,0,1,.507.507v40.776a.507.507,0,0,1-.507.507H163.507a.507.507,0,0,1-.507-.507V93.007A.507.507,0,0,1,163.507,92.5Z" transform="translate(-150.321 -83.878)" fill="#f5f5f5"/>
        <path id="Path_901093" data-name="Path 901093" d="M192.263,92.5v39a.507.507,0,0,1-.507.507H163v-39a.507.507,0,0,1,.507-.507Z" transform="translate(-150.321 -83.878)" fill="#e6e6e6"/>
        <path id="Path_901094" data-name="Path 901094" d="M151.538,50H121.007a.507.507,0,0,0-.507.507V91.283a.507.507,0,0,0,.507.507h30.531a.507.507,0,0,0,.507-.507V50.507A.507.507,0,0,0,151.538,50Z" transform="translate(-112.132 -45.689)" fill="#f5f5f5"/>
        <path id="Path_901095" data-name="Path 901095" d="M149.763,50V89a.507.507,0,0,1-.507.507H120.5v-39a.507.507,0,0,1,.507-.507Z" transform="translate(-112.132 -45.689)" fill="#e6e6e6"/>
        <path id="Path_901096" data-name="Path 901096" d="M73.6,8.007V48.783a.507.507,0,0,1-.507.507H43.072A5.072,5.072,0,0,1,38,44.219V42.9a.507.507,0,0,1,.507-.507h3.06a.506.506,0,0,0,.49-.506V8.007a.507.507,0,0,1,.507-.507H73.1A.507.507,0,0,1,73.6,8.007Z" transform="translate(-38 -7.5)" fill="#f5f5f5"/>
        <path id="Path_901097" data-name="Path 901097" d="M122.23,66.238h-8.723A.507.507,0,0,1,113,65.73V57.007a.507.507,0,0,1,.507-.507h8.723a.507.507,0,0,1,.507.507V65.73A.507.507,0,0,1,122.23,66.238Z" transform="translate(-105.393 -51.53)" fill="#faa515"/>
        <g id="Group_1111908" data-name="Group 1111908" transform="translate(0 5.528)">
          <path id="Path_901098" data-name="Path 901098" d="M248.418,133.521H237.261a.761.761,0,0,1,0-1.521h11.158a.761.761,0,0,1,0,1.521Z" transform="translate(-216.366 -124.9)" fill="#2b597f"/>
          <path id="Path_901099" data-name="Path 901099" d="M182.52,201.521H171.261a.761.761,0,0,1,0-1.521H182.52a.761.761,0,1,1,0,1.521Z" transform="translate(-157.06 -186.002)" fill="#2b597f"/>
          <path id="Path_901100" data-name="Path 901100" d="M248.418,98.521H237.261a.761.761,0,0,1,0-1.521h11.158a.761.761,0,0,1,0,1.521Z" transform="translate(-216.366 -93.45)" fill="#2b597f"/>
          <path id="Path_901101" data-name="Path 901101" d="M248.418,63.521H237.261a.761.761,0,0,1,0-1.521h11.158a.761.761,0,0,1,0,1.521Z" transform="translate(-216.366 -62)" fill="#2b597f"/>
          <path id="Path_901102" data-name="Path 901102" d="M130.706,290.521H106.261a.761.761,0,1,1,0-1.521h24.445a.761.761,0,1,1,0,1.521Z" transform="translate(-98.653 -265.975)" fill="#2b597f"/>
          <path id="Path_901103" data-name="Path 901103" d="M229.548,245.521H216.261a.761.761,0,0,1,0-1.521h13.288a.761.761,0,0,1,0,1.521Z" transform="translate(-197.496 -225.539)" fill="#2b597f"/>
          <path id="Path_901104" data-name="Path 901104" d="M113.419,245.521h-7.658a.761.761,0,0,1,0-1.521h7.658a.761.761,0,1,1,0,1.521Z" transform="translate(-98.204 -225.539)" fill="#2b597f"/>
          <path id="Path_901105" data-name="Path 901105" d="M68.61,358.388H43.072A5.072,5.072,0,0,1,38,353.317V352a.507.507,0,0,1,.507-.507H63.082a.507.507,0,0,1,.507.507v1.32A5.072,5.072,0,0,0,68.61,358.388Z" transform="translate(-38 -322.126)" fill="#2b597f"/>
        </g>
      </g>
      <g id="Group_1111910" data-name="Group 1111910" transform="translate(30.5)">
        <path id="Path_901106" data-name="Path 901106" d="M75.485,8.622h-3.55V5.072a.761.761,0,0,0-.761-.761h-3.55V.761A.761.761,0,0,0,66.864,0H35.318a.761.761,0,0,0-.761.761V34.893h-3.3a.761.761,0,0,0-.761.761v1.826a5.839,5.839,0,0,0,5.832,5.832h2.536v3.55a.761.761,0,0,0,.761.761h3.55v3.55a.761.761,0,0,0,.761.761H59.205a.761.761,0,0,0,0-1.521H44.7V47.623H71.174a.761.761,0,0,0,.761-.761V34.893a.761.761,0,1,0-1.521,0V46.1H40.39V43.312H66.864a.761.761,0,0,0,.761-.761V5.832h2.789V31.444a.761.761,0,1,0,1.521,0v-21.3h2.789V50.412H62.654a.761.761,0,0,0,0,1.521H75.485a.761.761,0,0,0,.761-.761V9.383A.761.761,0,0,0,75.485,8.622ZM66.1,41.79H61.893a4.316,4.316,0,0,1-4.311-4.311V35.654a.761.761,0,0,0-.761-.761H51.547a.761.761,0,0,0,0,1.521h4.514v1.065a5.819,5.819,0,0,0,1.908,4.311H36.332a4.316,4.316,0,0,1-4.311-4.311V36.414H48a.761.761,0,1,0,0-1.521H36.079V1.521H66.1Z" transform="translate(-30.5)"/>
        <path id="Path_901107" data-name="Path 901107" d="M106.261,60.259H116a.761.761,0,0,0,.761-.761V49.761A.761.761,0,0,0,116,49h-9.738a.761.761,0,0,0-.761.761V59.5A.761.761,0,0,0,106.261,60.259Zm.761-9.738h8.216v8.216h-8.216Z" transform="translate(-97.893 -44.03)"/>
        <path id="Path_901108" data-name="Path 901108" d="M248.418,132H237.261a.761.761,0,0,0,0,1.521h11.158a.761.761,0,0,0,0-1.521Z" transform="translate(-215.605 -118.611)"/>
        <path id="Path_901109" data-name="Path 901109" d="M170.5,200.761a.761.761,0,0,0,.761.761H182.52a.761.761,0,1,0,0-1.521H171.261A.761.761,0,0,0,170.5,200.761Z" transform="translate(-156.299 -179.713)"/>
        <path id="Path_901110" data-name="Path 901110" d="M248.418,97H237.261a.761.761,0,0,0,0,1.521h11.158a.761.761,0,0,0,0-1.521Z" transform="translate(-215.605 -87.161)"/>
        <path id="Path_901111" data-name="Path 901111" d="M248.418,62H237.261a.761.761,0,0,0,0,1.521h11.158a.761.761,0,0,0,0-1.521Z" transform="translate(-215.605 -55.711)"/>
        <path id="Path_901112" data-name="Path 901112" d="M130.706,289H106.261a.761.761,0,1,0,0,1.521h24.445a.761.761,0,1,0,0-1.521Z" transform="translate(-97.893 -259.686)"/>
        <path id="Path_901113" data-name="Path 901113" d="M229.548,244H216.261a.761.761,0,0,0,0,1.521h13.288a.761.761,0,0,0,0-1.521Z" transform="translate(-196.735 -219.25)"/>
        <path id="Path_901114" data-name="Path 901114" d="M105.761,245.521h7.658a.761.761,0,1,0,0-1.521h-7.658a.761.761,0,0,0,0,1.521Z" transform="translate(-97.443 -219.25)"/>
      </g>
    </g>
  </g>
</svg>
