<svg xmlns="http://www.w3.org/2000/svg" width="77" height="77" viewBox="0 0 77 77">
  <g id="Group_1111885" data-name="Group 1111885" transform="translate(-437 -4459)">
    <g id="Group_1111534" data-name="Group 1111534" transform="translate(-583.73 1366)">
      <g id="Group_1098742" data-name="Group 1098742" transform="translate(1020.73 3093)">
        <rect id="Rectangle_400898" data-name="Rectangle 400898" width="77" height="77" rx="38.5" transform="translate(0 0)" fill="#ccda2d"/>
        <rect id="Rectangle_400907" data-name="Rectangle 400907" width="77" height="77" rx="38.5" transform="translate(0 0)" fill="none"/>
      </g>
    </g>
    <g id="Layer_32" data-name="Layer 32" transform="translate(452 4474)">
      <path id="Path_901036" data-name="Path 901036" d="M52,6h7.331v4.4l-2.2.733v2.2H52Z" transform="translate(-13.613 -1.335)" fill="#f19537"/>
      <path id="Path_901037" data-name="Path 901037" d="M52,20h7.331v4.4l-2.2.733v2.2H52Z" transform="translate(-13.613 -5.072)" fill="#82d055"/>
      <path id="Path_901038" data-name="Path 901038" d="M2,4.2A2.2,2.2,0,0,1,4.2,2H40.12V41.586l-2.2,2.2,2.2,2.2H4.2a2.2,2.2,0,0,1-2.2-2.2Z" transform="translate(-0.267 -0.267)" fill="#4da8e2"/>
      <path id="Path_901039" data-name="Path 901039" d="M2,4.2V43.785a2.181,2.181,0,0,0,.089.586l5.043-2.786V2H4.2A2.2,2.2,0,0,0,2,4.2Z" transform="translate(-0.267 -0.267)" fill="#3a64db"/>
      <path id="Path_901040" data-name="Path 901040" d="M14,12.646A25.275,25.275,0,0,0,39.275,37.921h4.048V2H14Z" transform="translate(-3.47 -0.267)" fill="#68c1f7"/>
      <path id="Path_901041" data-name="Path 901041" d="M4.2,60.4H40.12l-2.2-2.2,2.2-2.2H4.2a2.2,2.2,0,0,0,0,4.4Z" transform="translate(-0.267 -14.681)" fill="#abe7ff"/>
      <g id="Group_1111884" data-name="Group 1111884" transform="translate(10.53 14.928)">
        <path id="Path_901042" data-name="Path 901042" d="M14,37.594,21.331,31,26.1,35.761l10.63-10.63,2.2,2.2L39.658,20l-7.331.733,2.2,2.2-8.43,8.43L21.331,26.6,14,33.2Z" transform="translate(-14 -20)" fill="#ec525b"/>
        <path id="Path_901043" data-name="Path 901043" d="M17.665,50.132V45L14,47.932v2.2Z" transform="translate(-14 -26.673)" fill="#ec525b"/>
        <path id="Path_901044" data-name="Path 901044" d="M23,41v8.064h3.665v-4.4Z" transform="translate(-16.402 -25.605)" fill="#ec525b"/>
        <path id="Path_901045" data-name="Path 901045" d="M35.665,41v8.064H32v-4.4Z" transform="translate(-18.805 -25.605)" fill="#ec525b"/>
        <path id="Path_901046" data-name="Path 901046" d="M41,35.665v11h3.665V32Z" transform="translate(-21.207 -23.203)" fill="#ec525b"/>
      </g>
      <path id="Path_901047" data-name="Path 901047" d="M17.665,5H14.733A.733.733,0,0,0,14,5.733V11.6h1.466V9.4h2.2a2.2,2.2,0,0,0,0-4.4Zm0,2.932h-2.2V6.466h2.2a.733.733,0,1,1,0,1.466Z" transform="translate(-3.47 -1.068)" fill="#f2f2f2"/>
      <path id="Path_901048" data-name="Path 901048" d="M24.466,5H23v5.865a.733.733,0,0,0,.733.733H27.4V10.132H24.466Z" transform="translate(-5.872 -1.068)" fill="#f2f2f2"/>
      <path id="Path_901049" data-name="Path 901049" d="M32.932,5A2.932,2.932,0,0,0,30,7.932V11.6h1.466V10.132H34.4V11.6h1.466V7.932A2.932,2.932,0,0,0,32.932,5ZM31.466,8.665V7.932a1.466,1.466,0,1,1,2.932,0v.733Z" transform="translate(-7.741 -1.068)" fill="#f2f2f2"/>
      <path id="Path_901050" data-name="Path 901050" d="M45.132,5V9.985a.155.155,0,0,1-.289.059L43.1,5.98a1.616,1.616,0,0,0-3.1.636V11.6h1.466V6.616a.155.155,0,0,1,.289-.059l1.74,4.06a1.616,1.616,0,0,0,3.1-.633V5Z" transform="translate(-10.41 -1.068)" fill="#f2f2f2"/>
      <path id="Path_901051" data-name="Path 901051" d="M13.435,38a.733.733,0,0,0,.789-.125l6.814-6.132,4.273,4.273a.733.733,0,0,0,1.037,0L36.458,25.9l1.681,1.681a.733.733,0,0,0,1.251-.445l.733-7.331a.733.733,0,0,0-.8-.806l-7.331.733a.733.733,0,0,0-.445,1.246l1.677,1.686-7.394,7.394-4.247-4.247a.733.733,0,0,0-1.009-.026l-7.331,6.6a.733.733,0,0,0-.243.545v4.4a.733.733,0,0,0,.435.67Zm1.031-4.742,6.571-5.914,4.273,4.273a.733.733,0,0,0,1.037,0l8.43-8.43a.733.733,0,0,0,0-1.037l-1.1-1.105,4.9-.49-.49,4.9-1.105-1.105a.733.733,0,0,0-1.037,0L25.829,34.456,21.582,30.21a.733.733,0,0,0-1.009-.026l-6.107,5.5Z" transform="translate(-3.203 -4.803)"/>
      <path id="Path_901052" data-name="Path 901052" d="M13.733,50.6H17.4a.733.733,0,0,0,.733-.733V44.733a.733.733,0,0,0-1.191-.573l-3.665,2.932a.733.733,0,0,0-.275.573v2.2A.733.733,0,0,0,13.733,50.6Zm.733-2.58,2.2-1.759v2.874h-2.2Z" transform="translate(-3.203 -11.478)"/>
      <path id="Path_901053" data-name="Path 901053" d="M23.251,40.215A.733.733,0,0,0,22,40.733V48.8a.733.733,0,0,0,.733.733H26.4a.733.733,0,0,0,.733-.733V44.4a.733.733,0,0,0-.215-.518Zm2.414,7.849h-2.2V42.5l2.2,2.2Z" transform="translate(-5.605 -10.41)"/>
      <path id="Path_901054" data-name="Path 901054" d="M35.679,40.056a.733.733,0,0,0-.8.159L31.215,43.88A.733.733,0,0,0,31,44.4v4.4a.733.733,0,0,0,.733.733H35.4a.733.733,0,0,0,.733-.733V40.733a.733.733,0,0,0-.452-.677Zm-1.014,8.008h-2.2V44.7l2.2-2.2Z" transform="translate(-8.008 -10.41)"/>
      <path id="Path_901055" data-name="Path 901055" d="M44.679,31.056a.733.733,0,0,0-.8.159L40.215,34.88A.733.733,0,0,0,40,35.4v11a.733.733,0,0,0,.733.733H44.4a.733.733,0,0,0,.733-.733V31.733A.733.733,0,0,0,44.679,31.056ZM43.665,45.661h-2.2V35.7l2.2-2.2Z" transform="translate(-10.41 -8.008)"/>
      <path id="Path_901056" data-name="Path 901056" d="M15.466,9.4h2.2a2.2,2.2,0,0,0,0-4.4H14.733A.733.733,0,0,0,14,5.733V11.6h1.466Zm0-2.932h2.2a.733.733,0,1,1,0,1.466h-2.2Z" transform="translate(-3.47 -1.068)"/>
      <path id="Path_901057" data-name="Path 901057" d="M23.733,11.6H27.4V10.132H24.466V5H23v5.865A.733.733,0,0,0,23.733,11.6Z" transform="translate(-5.872 -1.068)"/>
      <path id="Path_901058" data-name="Path 901058" d="M31.466,10.132H34.4V11.6h1.466V7.932a2.932,2.932,0,1,0-5.865,0V11.6h1.466Zm1.466-3.665A1.466,1.466,0,0,1,34.4,7.932v.733H31.466V7.932A1.466,1.466,0,0,1,32.932,6.466Z" transform="translate(-7.741 -1.068)"/>
      <path id="Path_901059" data-name="Path 901059" d="M41.466,6.616a.155.155,0,0,1,.289-.059l1.74,4.06a1.616,1.616,0,0,0,3.1-.633V5H45.132V9.985a.155.155,0,0,1-.289.059L43.1,5.98a1.616,1.616,0,0,0-3.1.636V11.6h1.466Z" transform="translate(-10.41 -1.068)"/>
      <path id="Path_901060" data-name="Path 901060" d="M45.718,3.932H40.586v-2.2A.733.733,0,0,0,39.853,1H3.932A2.932,2.932,0,0,0,1,3.932V43.518a2.932,2.932,0,0,0,2.932,2.932H39.853a.733.733,0,0,0,.518-1.251L38.69,43.518l1.681-1.681a.733.733,0,0,0,.215-.518V22.992h2.932a.733.733,0,0,0,.733-.733V20.589l1.7-.566a.733.733,0,0,0,.5-.7v-4.4a.733.733,0,0,0-.733-.733H40.586V12.729h2.932A.733.733,0,0,0,44.251,12V10.325l1.7-.566a.733.733,0,0,0,.5-.7v-4.4a.733.733,0,0,0-.733-.733Zm-6.6,36.654H7.6V2.466H39.12ZM3.932,2.466h2.2v38.12h-2.2a2.9,2.9,0,0,0-1.466.408V3.932A1.466,1.466,0,0,1,3.932,2.466Zm0,42.518a1.466,1.466,0,0,1,0-2.932H38.083L37.135,43a.733.733,0,0,0,0,1.037l.948.948ZM44.985,15.662V18.8l-1.7.566a.733.733,0,0,0-.5.7v1.466h-2.2V15.662Zm0-7.126-1.7.566a.733.733,0,0,0-.5.7v1.466h-2.2V5.4h4.4Z" transform="translate(0)"/>
    </g>
  </g>
</svg>
