<svg xmlns="http://www.w3.org/2000/svg" width="77" height="77" viewBox="0 0 77 77">
  <g id="Group_1111376" data-name="Group 1111376" transform="translate(-772.05 -3674)">
    <g id="Group_1111213" data-name="Group 1111213" transform="translate(-248.68 581)">
      <g id="Group_1098742" data-name="Group 1098742" transform="translate(1020.73 3093)">
        <rect id="Rectangle_400898" data-name="Rectangle 400898" width="77" height="77" rx="38.5" transform="translate(0 0)" fill="#ccda2d"/>
        <rect id="Rectangle_400907" data-name="Rectangle 400907" width="77" height="77" rx="38.5" transform="translate(0 0)" fill="none"/>
      </g>
    </g>
    <g id="escudo-seguro" transform="translate(755.372 3692.003)">
      <g id="Group_1111374" data-name="Group 1111374" transform="translate(38.543 0.862)">
        <path id="Path_899972" data-name="Path 899972" d="M74.294,26.455,63.668,37.081a1.941,1.941,0,0,1-2.745,0l-5.09-5.09a1.941,1.941,0,0,1,2.745-2.745L62.3,32.963l9.253-9.253a1.941,1.941,0,1,1,2.745,2.745ZM65.063,10.768a67.389,67.389,0,0,1-16.611,7.046v8.807c0,16.524,14.291,23.4,16.611,23.4s16.612-6.878,16.612-23.4V17.814A69.493,69.493,0,0,1,65.063,10.768Z" transform="translate(-48.452 -10.768)" fill="#85bf4f"/>
        <path id="Path_899973" data-name="Path 899973" d="M141.979,179.305,152.6,168.679a1.941,1.941,0,0,0-2.745-2.745l-9.253,9.253-3.718-3.717a1.941,1.941,0,0,0-2.745,2.745l5.09,5.09A1.941,1.941,0,0,0,141.979,179.305Z" transform="translate(-126.762 -152.992)" fill="#ffcd85"/>
      </g>
      <g id="Group_1111375" data-name="Group 1111375" transform="translate(37.681 0)">
        <path id="Path_899974" data-name="Path 899974" d="M71.994,7.076A68.166,68.166,0,0,1,55.593.12a.862.862,0,0,0-.876,0,66.3,66.3,0,0,1-16.4,6.956.862.862,0,0,0-.634.831v8.808a25.339,25.339,0,0,0,7.695,18.513c3.779,3.7,8.181,5.751,9.779,5.751s6-2.048,9.779-5.751a25.339,25.339,0,0,0,7.694-18.513V7.907A.862.862,0,0,0,71.994,7.076ZM70.9,16.715A23.649,23.649,0,0,1,63.727,34c-3.716,3.641-7.689,5.258-8.573,5.258S50.3,37.638,46.582,34a23.649,23.649,0,0,1-7.177-17.282V8.562a67.888,67.888,0,0,0,15.75-6.7A70.037,70.037,0,0,0,70.9,8.561Z" transform="translate(-37.681 0)" fill="#000003"/>
        <path id="Path_899975" data-name="Path 899975" d="M86.747,99.489A.862.862,0,0,0,85.629,99c-1.54.607-3.12,1.165-4.7,1.66a.862.862,0,0,0-.6.822v3.329a.862.862,0,1,0,1.724,0v-2.7c1.415-.458,2.828-.964,4.21-1.509A.862.862,0,0,0,86.747,99.489Z" transform="translate(-76.914 -91.024)" fill="#000003"/>
        <path id="Path_899976" data-name="Path 899976" d="M171.066,87.934a.862.862,0,0,0,.346-.072l.016-.007a.862.862,0,1,0-.7-1.577l-.014.006a.862.862,0,0,0,.348,1.651Z" transform="translate(-159.596 -79.305)" fill="#000003"/>
        <path id="Path_899977" data-name="Path 899977" d="M309.813,345.669a.862.862,0,0,0-1.193.25,20.982,20.982,0,0,1-2.477,3.094,22.016,22.016,0,0,1-2.473,2.2.862.862,0,1,0,1.045,1.371,23.764,23.764,0,0,0,2.667-2.372,22.685,22.685,0,0,0,2.681-3.349A.862.862,0,0,0,309.813,345.669Z" transform="translate(-282.069 -317.873)" fill="#000003"/>
        <path id="Path_899978" data-name="Path 899978" d="M277.043,432.084l-.049.029a.862.862,0,1,0,.864,1.492l.057-.034a.862.862,0,1,0-.871-1.488Z" transform="translate(-257.444 -397.393)" fill="#000003"/>
        <path id="Path_899979" data-name="Path 899979" d="M127.6,160.956a2.8,2.8,0,0,0-3.964,3.964l5.09,5.09a2.8,2.8,0,0,0,3.964,0l10.626-10.626a2.8,2.8,0,0,0-3.964-3.964l-8.644,8.644Zm12.971-4.317a1.079,1.079,0,1,1,1.526,1.526l-10.626,10.626a1.08,1.08,0,0,1-1.526,0l-5.09-5.09a1.079,1.079,0,0,1,1.526-1.526l3.717,3.717a.862.862,0,0,0,1.219,0Z" transform="translate(-116.007 -142.225)" fill="#000003"/>
      </g>
    </g>
  </g>
</svg>
