<svg xmlns="http://www.w3.org/2000/svg" width="77" height="77" viewBox="0 0 77 77">
  <g id="Group_1111393" data-name="Group 1111393" transform="translate(9194 7911)">
    <g id="Group_1111260" data-name="Group 1111260" transform="translate(-10214.73 -11004)">
      <g id="Group_1098742" data-name="Group 1098742" transform="translate(1020.73 3093)">
        <rect id="Rectangle_400898" data-name="Rectangle 400898" width="77" height="77" rx="38.5" transform="translate(0 0)" fill="#ccda2d"/>
        <rect id="Rectangle_400907" data-name="Rectangle 400907" width="77" height="77" rx="38.5" transform="translate(0 0)" fill="none"/>
      </g>
    </g>
    <g id="Dairy_Product" data-name="Dairy Product" transform="translate(-9179 -7897)">
      <g id="Filled" transform="translate(0.744 0.744)">
        <path id="Path_900030" data-name="Path 900030" d="M8,136H21.4v34.241H8Z" transform="translate(-8 -124.09)" fill="#e2dbd5"/>
        <path id="Path_900031" data-name="Path 900031" d="M21.4,63.444H8L12.466,56h13.4Z" transform="translate(-8 -51.534)" fill="#efebe8"/>
        <path id="Path_900032" data-name="Path 900032" d="M160.963,97.685H152V63.444L156.482,56l4.482,7.444Z" transform="translate(-138.601 -51.534)" fill="#d4ccc7"/>
        <path id="Path_900033" data-name="Path 900033" d="M156.482,97.685H152V63.444L156.482,56Z" transform="translate(-138.601 -51.534)" fill="#c6bab3"/>
        <path id="Path_900034" data-name="Path 900034" d="M8,216H21.4v19.354H8Z" transform="translate(-8 -196.646)" fill="#ea6049"/>
        <path id="Path_900035" data-name="Path 900035" d="M312,8h8.932v5.955H312Z" transform="translate(-283.714 -8)" fill="#ffead2"/>
        <path id="Path_900036" data-name="Path 900036" d="M280,97.308V83.91l.15-1.489a7.45,7.45,0,0,1,2.828-4.466s1.489-1.489-.726-3.34c-.964-.806-1-2.619.617-2.615h9.15c1.558-.008,1.618,1.778.617,2.615-2.215,1.852-.726,3.34-.726,3.34a7.445,7.445,0,0,1,2.977,5.955v13.4Z" transform="translate(-254.691 -66.045)" fill="#f09b73"/>
        <path id="Path_900037" data-name="Path 900037" d="M280,191v5.339h14.887v-13.4a7.436,7.436,0,0,0-.209-1.75A19.36,19.36,0,0,1,280,191Z" transform="translate(-254.691 -165.079)" fill="#e58b6c"/>
        <path id="Path_900038" data-name="Path 900038" d="M56,8H69.4v4.466H56Z" transform="translate(-51.534 -8)" fill="#d4ccc7"/>
        <path id="Path_900039" data-name="Path 900039" d="M288.045,223.361c-2.857.772-3.777-3.053-1.6-4.149L285.211,216H280v26.8c4.466,0,11.01-.551,14.143-3.6Z" transform="translate(-254.691 -196.646)" fill="#eed60f"/>
        <path id="Path_900040" data-name="Path 900040" d="M192.932,216l-2.592,6.733c3.309.544,1.334,5.947-1.574,4.089l-2.405,6.247a2.261,2.261,0,0,1-1.45,3.766L184,239.2a12.889,12.889,0,0,0,17.865,0Z" transform="translate(-167.624 -196.646)" fill="#f8e868"/>
        <path id="Path_900041" data-name="Path 900041" d="M188.937,374.488a12.894,12.894,0,0,0,17.406-.424l-3.605-9.364a18.624,18.624,0,0,1-13.8,9.788Z" transform="translate(-172.101 -331.51)" fill="#f6e23d"/>
        <ellipse id="Ellipse_11607" data-name="Ellipse 11607" cx="1.258" cy="1.677" rx="1.258" ry="1.677" transform="translate(26.931 37.664)" fill="#f8e868"/>
        <circle id="Ellipse_11608" data-name="Ellipse 11608" cx="1.677" cy="1.677" r="1.677" transform="translate(24.415 32.632)" fill="#f6e23d"/>
        <ellipse id="Ellipse_11609" data-name="Ellipse 11609" cx="1.258" cy="1.677" rx="1.258" ry="1.677" transform="translate(21.061 40.18)" fill="#f6e23d"/>
        <g id="Group_1111392" data-name="Group 1111392" transform="translate(20.842 32.751)">
          <path id="Path_900042" data-name="Path 900042" d="M298.231,417.479a1.48,1.48,0,0,1,.731.192,1.488,1.488,0,1,0-2.206,1.1A1.488,1.488,0,0,1,298.231,417.479Z" transform="translate(-290.043 -410.779)" fill="#eed60f"/>
          <path id="Path_900043" data-name="Path 900043" d="M274.231,361.479a1.481,1.481,0,0,1,.731.192,1.509,1.509,0,0,0,.014-.192,1.489,1.489,0,1,0-2.219,1.3A1.488,1.488,0,0,1,274.231,361.479Z" transform="translate(-268.276 -359.99)" fill="#eed60f"/>
          <path id="Path_900044" data-name="Path 900044" d="M234.231,441.479a1.481,1.481,0,0,1,.731.192,1.506,1.506,0,0,0,.014-.192,1.489,1.489,0,1,0-2.219,1.3A1.488,1.488,0,0,1,234.231,441.479Z" transform="translate(-231.998 -432.546)" fill="#eed60f"/>
        </g>
        <path id="Path_900045" data-name="Path 900045" d="M352.3,13.955V8h-2.268a8.18,8.18,0,0,1-3.446,5.955Z" transform="translate(-315.084 -8)" fill="#faddc3"/>
        <circle id="Ellipse_11610" data-name="Ellipse 11610" cx="1.677" cy="1.677" r="1.677" transform="translate(23.577 23.406)" fill="#fcf5be"/>
        <circle id="Ellipse_11611" data-name="Ellipse 11611" cx="0.839" cy="0.839" r="0.839" transform="translate(26.093 27.6)" fill="#fcf5be"/>
        <circle id="Ellipse_11612" data-name="Ellipse 11612" cx="2.097" cy="2.097" r="2.097" transform="translate(30.286 10.827)" fill="#f2bba5"/>
        <ellipse id="Ellipse_11613" data-name="Ellipse 11613" cx="0.839" cy="1.258" rx="0.839" ry="1.258" transform="translate(34.479 15.02)" fill="#f2bba5"/>
        <circle id="Ellipse_11614" data-name="Ellipse 11614" cx="1.677" cy="1.677" r="1.677" transform="translate(3.449 6.633)" fill="#fff"/>
        <ellipse id="Ellipse_11615" data-name="Ellipse 11615" cx="0.839" cy="0.419" rx="0.839" ry="0.419" transform="translate(6.803 9.988)" fill="#fff"/>
        <path id="Path_900046" data-name="Path 900046" d="M8,269.372v4.967H21.4V258.985A20.131,20.131,0,0,1,8,269.372Z" transform="translate(-8 -235.632)" fill="#de513e"/>
        <path id="Path_900047" data-name="Path 900047" d="M344,328l1.489,16.376H355.91L357.4,328Z" transform="translate(-312.736 -298.225)" fill="#81c784"/>
        <ellipse id="Ellipse_11616" data-name="Ellipse 11616" cx="1.258" cy="1.677" rx="1.258" ry="1.677" transform="translate(32.802 31.793)" fill="#c8e6c9"/>
        <circle id="Ellipse_11617" data-name="Ellipse 11617" cx="0.839" cy="0.839" r="0.839" transform="translate(35.318 35.148)" fill="#c8e6c9"/>
        <path id="Path_900048" data-name="Path 900048" d="M356.337,395.189h10.421l1.015-11.163a15.992,15.992,0,0,1-11.812,7.029Z" transform="translate(-323.584 -349.038)" fill="#66bb6a"/>
        <path id="Path_900049" data-name="Path 900049" d="M47.444,270.7a3.722,3.722,0,1,1-7.444,0c0-2.055,3.722-6.7,3.722-6.7S47.444,268.644,47.444,270.7Z" transform="translate(-37.023 -240.18)" fill="#fff"/>
        <path id="Path_900050" data-name="Path 900050" d="M54.149,324.975a6.846,6.846,0,0,1-6.525,3.21A3.721,3.721,0,0,0,54.358,326a3.262,3.262,0,0,0-.209-1.026Z" transform="translate(-43.937 -295.482)" fill="#efebe8"/>
      </g>
      <g id="Outline" transform="translate(0)">
        <path id="Path_900051" data-name="Path 900051" d="M290.233,409.521a.744.744,0,0,0,.744-.744c0-1.424-2.977-.725-2.977,1.489s2.977,2.917,2.977,1.489a.744.744,0,0,0-.744-.744.744.744,0,1,1,0-1.489Z" transform="translate(-261.203 -370.069)"/>
        <path id="Path_900052" data-name="Path 900052" d="M268.466,354.233a2.233,2.233,0,1,0-2.233,2.233A2.233,2.233,0,0,0,268.466,354.233Zm-2.977,0a.744.744,0,1,1,.744.744A.744.744,0,0,1,265.489,354.233Z" transform="translate(-239.436 -319.248)"/>
        <path id="Path_900053" data-name="Path 900053" d="M226.233,432a2.233,2.233,0,1,0,2.233,2.233A2.233,2.233,0,0,0,226.233,432Zm0,2.977a.744.744,0,1,1,.744-.744A.744.744,0,0,1,226.233,434.977Z" transform="translate(-203.158 -391.804)"/>
        <path id="Path_900054" data-name="Path 900054" d="M189.595,233.96a12.237,12.237,0,0,1-11.975-2.413l.575-1.493a3.032,3.032,0,0,0,1.759-4.569l1.966-5.106c3.214.993,5.127-4.153,2.144-5.569l1.613-4.189,2.19,5.687a.744.744,0,0,0,1.389-.535l-2.495-6.479h3.615l.839,2.178c-2.241,1.873-.683,6.072,2.7,5.157a.744.744,0,1,0-.388-1.437c-1.969.532-2.469-2.061-1.069-2.765a.744.744,0,0,0,.36-.933l-1.237-3.212a.744.744,0,0,0-.695-.477c-5.349,0-5.654-.175-5.905.477-2.567,6.939-2.859,6.82-2.544,7.37a.744.744,0,0,0,.525.365c1.61.265,1.214,2.188.35,2.8a1.179,1.179,0,0,1-1.4-.069.744.744,0,0,0-1.1.36l-2.405,6.247a.744.744,0,0,0,.161.786,1.517,1.517,0,0,1-.962,2.505.744.744,0,0,0-.65.476l-.91,2.364a.744.744,0,0,0,.176.8,13.634,13.634,0,0,0,13.846,3.088.744.744,0,0,0-.477-1.41Z" transform="translate(-159.624 -188.451)"/>
        <path id="Path_900055" data-name="Path 900055" d="M337.121,320H320.744a.744.744,0,0,0,0,1.489h.81l1.427,15.7a.744.744,0,0,0,.741.677h10.421a.744.744,0,0,0,.741-.677l.542-5.962a.744.744,0,1,0-1.483-.135l-.48,5.284H324.4l-1.353-14.887h11.769l-.334,3.674a.744.744,0,1,0,1.483.135l.346-3.809h.809a.744.744,0,0,0,0-1.489Z" transform="translate(-290.225 -290.225)"/>
        <path id="Path_900056" data-name="Path 900056" d="M274.2,17.85a.744.744,0,0,0,.879-.58,6.7,6.7,0,0,1,2.545-4.02.743.743,0,0,0,.08-.069c.988-.989,1.134-2.842-.775-4.438a1.072,1.072,0,0,1-.372-1.058c.024-.066.085-.242.512-.241,9.015.172,9.467-.264,9.656.253a1.041,1.041,0,0,1-.366,1.047,3.58,3.58,0,0,0-1.479,2.541,2.59,2.59,0,0,0,.785,1.966,6.733,6.733,0,0,1,2.679,5.36.744.744,0,1,0,1.489,0,8.229,8.229,0,0,0-3.214-6.5c-.608-.754-.045-1.6.7-2.22,1.347-1.126,1.269-3.38-.459-3.85V.744A.744.744,0,0,0,286.113,0h-8.932a.744.744,0,0,0-.744.744v5.29c-1.745.465-1.809,2.722-.459,3.85.75.627,1.3,1.471.7,2.22a8.187,8.187,0,0,0-3.049,4.866.744.744,0,0,0,.58.878Zm3.721-16.361h7.444V2.977h-5.211a.744.744,0,1,0,0,1.489h5.211V5.955h-7.444Z" transform="translate(-248.151 0)"/>
        <path id="Path_900057" data-name="Path 900057" d="M37.211,267.168a.744.744,0,0,0-.744-.744,2.981,2.981,0,0,1-2.977-2.978c0-1.133,1.644-3.7,2.977-5.483,1.334,1.781,2.977,4.349,2.977,5.483a.744.744,0,1,0,1.489,0c0-2.252-3.488-6.669-3.885-7.165a.744.744,0,0,0-1.162,0c-.4.5-3.885,4.913-3.885,7.165C32,267.55,37.211,268.965,37.211,267.168Z" transform="translate(-29.023 -232.182)"/>
        <path id="Path_900058" data-name="Path 900058" d="M17.121,46.151H14.887V12.861l3.731-6.218,3.744,6.218V20.1a.744.744,0,0,0,1.489,0V12.654c0-.379.036-.075-4.5-7.676V.744A.744.744,0,0,0,18.61,0H5.211a.744.744,0,0,0-.744.744V5L3.871,6a.744.744,0,1,0,1.277.766l.485-.808H17.295L13.722,11.91H11.166a.744.744,0,1,0,0,1.489H13.4v5.955H1.489V13.4h6.7a.744.744,0,1,0,0-1.489H2.059l.025-.042A.744.744,0,1,0,.808,11.1C.069,12.334,0,12.38,0,12.654V46.9a.744.744,0,0,0,.744.744H17.121a.744.744,0,0,0,0-1.489ZM5.955,4.466V1.489h11.91V4.466ZM13.4,46.151H1.489V40.2H13.4Zm0-7.444H1.489V20.842H13.4Z" transform="translate(0)"/>
        <ellipse id="Ellipse_11618" data-name="Ellipse 11618" cx="0.419" cy="0.839" rx="0.419" ry="0.839" transform="translate(2.516 8.216)"/>
        <ellipse id="Ellipse_11619" data-name="Ellipse 11619" cx="0.419" cy="0.839" rx="0.419" ry="0.839" transform="translate(10.064 33.376)"/>
        <circle id="Ellipse_11620" data-name="Ellipse 11620" cx="0.839" cy="0.839" r="0.839" transform="translate(40.256 20.796)"/>
        <ellipse id="Ellipse_11621" data-name="Ellipse 11621" cx="0.839" cy="0.419" rx="0.839" ry="0.419" transform="translate(43.61 37.569)"/>
        <path id="Path_900059" data-name="Path 900059" d="M432.744,256a.744.744,0,0,0-.744.744v2.978a.744.744,0,0,0,1.489,0v-2.978A.744.744,0,0,0,432.744,256Z" transform="translate(-391.804 -232.18)"/>
      </g>
    </g>
  </g>
</svg>
