<svg xmlns="http://www.w3.org/2000/svg" width="77" height="77" viewBox="0 0 77 77">
  <g id="Group_1111588" data-name="Group 1111588" transform="translate(-285.051 -7416)">
    <g id="Group_1111344" data-name="Group 1111344" transform="translate(-735.679 4323)">
      <g id="Group_1098742" data-name="Group 1098742" transform="translate(1020.73 3093)">
        <rect id="Rectangle_400898" data-name="Rectangle 400898" width="77" height="77" rx="38.5" transform="translate(0 0)" fill="#0d8449"/>
        <rect id="Rectangle_400907" data-name="Rectangle 400907" width="77" height="77" rx="38.5" transform="translate(0 0)" fill="none"/>
      </g>
    </g>
    <g id="vaca" transform="translate(296.051 7436)">
      <g id="Group_1111572" data-name="Group 1111572" transform="translate(1.325 0.874)">
        <g id="Group_1111548" data-name="Group 1111548" transform="translate(3.496 31.466)">
          <path id="Path_900172" data-name="Path 900172" d="M5.516,37H26.493v3.5H5.516Z" transform="translate(-5.516 -37)" fill="#dfb28b"/>
        </g>
        <g id="Group_1111549" data-name="Group 1111549" transform="translate(27.97 31.466)">
          <path id="Path_900173" data-name="Path 900173" d="M33.516,37H54.493v3.5H33.516Z" transform="translate(-33.516 -37)" fill="#dfb28b"/>
        </g>
        <g id="Group_1111550" data-name="Group 1111550" transform="translate(27.97 24.473)">
          <path id="Path_900174" data-name="Path 900174" d="M54.493,29v3.5H33.516V29H54.493Z" transform="translate(-33.516 -29)" fill="#dfb28b"/>
        </g>
        <g id="Group_1111551" data-name="Group 1111551" transform="translate(3.496 24.473)">
          <path id="Path_900175" data-name="Path 900175" d="M26.493,29v3.5H5.516V29H26.493Z" transform="translate(-5.516 -29)" fill="#dfb28b"/>
        </g>
        <g id="Group_1111552" data-name="Group 1111552" transform="translate(48.947 22.725)">
          <path id="Path_900176" data-name="Path 900176" d="M61.012,27.874V40.111a.877.877,0,0,1-.874.874H58.39a.877.877,0,0,1-.874-.874V27.874A.877.877,0,0,1,58.39,27h1.748A.877.877,0,0,1,61.012,27.874Z" transform="translate(-57.516 -27)" fill="#d3a06c"/>
        </g>
        <g id="Group_1111553" data-name="Group 1111553" transform="translate(24.473 22.725)">
          <path id="Path_900177" data-name="Path 900177" d="M33.012,39.237v.874a.877.877,0,0,1-.874.874H30.39a.877.877,0,0,1-.874-.874V27.874A.877.877,0,0,1,30.39,27h1.748a.877.877,0,0,1,.874.874V39.237Z" transform="translate(-29.516 -27)" fill="#d3a06c"/>
        </g>
        <g id="Group_1111554" data-name="Group 1111554" transform="translate(0 22.725)">
          <path id="Path_900178" data-name="Path 900178" d="M5.012,39.237v.874a.877.877,0,0,1-.874.874H2.39a.877.877,0,0,1-.874-.874V27.874A.877.877,0,0,1,2.39,27H4.138a.877.877,0,0,1,.874.874V39.237Z" transform="translate(-1.516 -27)" fill="#d3a06c"/>
        </g>
        <g id="Group_1111555" data-name="Group 1111555" transform="translate(27.646 7.866)">
          <path id="Path_900179" data-name="Path 900179" d="M55.539,15.69a7.847,7.847,0,0,1,.656,3.138v6.031h-.874a.877.877,0,0,0-.874.874v.874H37.84l.752-1.495A8.384,8.384,0,0,1,41.45,21.87a1.708,1.708,0,0,0-.944-3.129H40.3a1.714,1.714,0,0,0-1.206.5l-.175.175a3.657,3.657,0,0,1-4.615.463l-1.154-.769c1.766-.612,2.946-1.722,2.946-2.989a2.5,2.5,0,0,0-.874-1.8v-2.57L39.588,10l3.592.376.446,1.783a2.524,2.524,0,0,0,1.643,1.774,2.524,2.524,0,0,1,1.643,1.774l.087.323a2.4,2.4,0,0,0,2.342,1.836,2.454,2.454,0,0,0,1.346-.4l1.093-.734a3.616,3.616,0,0,1,2.028-.612,3.668,3.668,0,0,0,1.722-.428Z" transform="translate(-33.146 -10)" fill="#969faa"/>
        </g>
        <g id="Group_1111556" data-name="Group 1111556" transform="translate(12.787 11.363)">
          <path id="Path_900180" data-name="Path 900180" d="M22.588,14.822a2.483,2.483,0,0,0-.874,1.8c0,1.932,2.736,3.5,6.118,3.5l1.748,5.244h-.874a.877.877,0,0,0-.874.874v.874H22.981A8.694,8.694,0,0,1,24.45,25.87a1.708,1.708,0,0,0-.944-3.129H23.3a1.714,1.714,0,0,0-1.206.5l-.175.175a3.657,3.657,0,0,1-4.615.463l-1.154-.769c1.766-.612,2.946-1.722,2.946-2.989a2.5,2.5,0,0,0-.874-1.8v-2.57L22.588,14Z" transform="translate(-16.146 -14)" fill="#969faa"/>
        </g>
        <g id="Group_1111557" data-name="Group 1111557" transform="translate(25.776)">
          <path id="Path_900181" data-name="Path 900181" d="M34.948,2.119V6.271a5.312,5.312,0,0,0-.533-.026h-.8c-.07-.07-.131-.14-.2-.21a5.17,5.17,0,0,0-2.4-1.372l1.87-3.12a1.115,1.115,0,0,1,2.072.577Z" transform="translate(-31.006 -1)" fill="#aab2bd"/>
        </g>
        <g id="Group_1111558" data-name="Group 1111558" transform="translate(28.38 5.244)">
          <path id="Path_900182" data-name="Path 900182" d="M35.323,7.026a5.9,5.9,0,0,1,4.37,2.6l-4.37,1.748V10.5A5.219,5.219,0,0,0,33.986,7h.8A5.312,5.312,0,0,1,35.323,7.026Z" transform="translate(-33.986 -7)" fill="#aab2bd"/>
        </g>
        <g id="Group_1111559" data-name="Group 1111559" transform="translate(19.229 0)">
          <path id="Path_900183" data-name="Path 900183" d="M24.049,6.244a5.312,5.312,0,0,0-.533.026V2.119a1.115,1.115,0,0,1,2.072-.577l1.87,3.12a5.248,5.248,0,0,0-2.6,1.582Z" transform="translate(-23.516 -1)" fill="#aab2bd"/>
        </g>
        <g id="Group_1111560" data-name="Group 1111560" transform="translate(14.859 5.244)">
          <path id="Path_900184" data-name="Path 900184" d="M23.419,7h.8a5.219,5.219,0,0,0-1.337,3.5v.874l-4.37-1.748a5.9,5.9,0,0,1,4.37-2.6A5.312,5.312,0,0,1,23.419,7Z" transform="translate(-18.516 -7)" fill="#aab2bd"/>
        </g>
        <g id="Group_1111561" data-name="Group 1111561" transform="translate(10.917 3.496)">
          <path id="Path_900185" data-name="Path 900185" d="M17.948,9.37v.9a5.312,5.312,0,0,0-.533-.026h-.8c-.07-.07-.131-.14-.2-.21a17.462,17.462,0,0,0-2.4-1.372l1.87-3.12a1.115,1.115,0,0,1,2.072.577Z" transform="translate(-14.006 -5)" fill="#aab2bd"/>
        </g>
        <g id="Group_1111562" data-name="Group 1111562" transform="translate(4.37 3.496)">
          <path id="Path_900186" data-name="Path 900186" d="M10.458,8.662a5.248,5.248,0,0,0-2.6,1.582h-.8a5.312,5.312,0,0,0-.533.026V6.119a1.115,1.115,0,0,1,2.072-.577Z" transform="translate(-6.516 -5)" fill="#aab2bd"/>
        </g>
        <g id="Group_1111563" data-name="Group 1111563" transform="translate(0 8.741)">
          <path id="Path_900187" data-name="Path 900187" d="M6.419,11h.8a5.219,5.219,0,0,0-1.337,3.5v.874l-4.37-1.748a5.9,5.9,0,0,1,4.37-2.6A5.312,5.312,0,0,1,6.419,11Z" transform="translate(-1.516 -11)" fill="#aab2bd"/>
        </g>
        <g id="Group_1111564" data-name="Group 1111564" transform="translate(13.522 8.741)">
          <path id="Path_900188" data-name="Path 900188" d="M18.323,11.026a5.9,5.9,0,0,1,4.37,2.6l-4.37,1.748V14.5A5.219,5.219,0,0,0,16.986,11h.8A5.313,5.313,0,0,1,18.323,11.026Z" transform="translate(-16.986 -11)" fill="#aab2bd"/>
        </g>
        <g id="Group_1111565" data-name="Group 1111565" transform="translate(19.229 3.496)">
          <path id="Path_900189" data-name="Path 900189" d="M30.063,5.166a5.17,5.17,0,0,1,2.4,1.372c.07.07.131.14.2.21A5.219,5.219,0,0,1,34,10.244v3.444a7.822,7.822,0,0,0-5.244-1.7,7.822,7.822,0,0,0-5.244,1.7V10.244a5.245,5.245,0,0,1,3.942-5.078A4.973,4.973,0,0,1,28.76,5Z" transform="translate(-23.516 -5)" fill="#ccd1d9"/>
        </g>
        <g id="Group_1111566" data-name="Group 1111566" transform="translate(4.37 6.992)">
          <path id="Path_900190" data-name="Path 900190" d="M13.063,9.166a17.462,17.462,0,0,1,2.4,1.372c.07.07.131.14.2.21A5.219,5.219,0,0,1,17,14.244v3.444a7.822,7.822,0,0,0-5.244-1.7,7.822,7.822,0,0,0-5.244,1.7V14.244a5.245,5.245,0,0,1,3.942-5.078A4.973,4.973,0,0,1,11.76,9Z" transform="translate(-6.516 -9)" fill="#ccd1d9"/>
        </g>
        <g id="Group_1111567" data-name="Group 1111567" transform="translate(18.355 10.489)">
          <path id="Path_900191" data-name="Path 900191" d="M33.879,14.7a2.5,2.5,0,0,1,.874,1.8c0,1.267-1.18,2.377-2.946,2.989a9.624,9.624,0,0,1-3.173.507c-3.383,0-6.118-1.565-6.118-3.5a2.483,2.483,0,0,1,.874-1.8A7.822,7.822,0,0,1,28.634,13a7.822,7.822,0,0,1,5.244,1.7Z" transform="translate(-22.516 -13)" fill="#aab2bd"/>
        </g>
        <g id="Group_1111568" data-name="Group 1111568" transform="translate(3.496 13.985)">
          <path id="Path_900192" data-name="Path 900192" d="M16.879,18.7a2.5,2.5,0,0,1,.874,1.8c0,1.267-1.18,2.377-2.946,2.989a9.623,9.623,0,0,1-3.173.507c-3.383,0-6.118-1.565-6.118-3.5a2.5,2.5,0,0,1,.874-1.8A7.822,7.822,0,0,1,11.634,17a7.822,7.822,0,0,1,5.244,1.7Z" transform="translate(-5.516 -17)" fill="#aab2bd"/>
        </g>
        <g id="Group_1111569" data-name="Group 1111569" transform="translate(37.68 8.242)">
          <path id="Path_900193" data-name="Path 900193" d="M50.6,11.059a7.875,7.875,0,0,1,6.389,4.685h-.009a3.668,3.668,0,0,1-1.722.428,3.616,3.616,0,0,0-2.028.612l-1.093.734a2.454,2.454,0,0,1-1.346.4,2.4,2.4,0,0,1-2.342-1.836l-.087-.323a2.524,2.524,0,0,0-1.643-1.774,2.524,2.524,0,0,1-1.643-1.774l-.446-1.783Z" transform="translate(-44.626 -10.43)" fill="#e6e9ed"/>
        </g>
        <g id="Group_1111570" data-name="Group 1111570" transform="translate(24.473 16.607)">
          <path id="Path_900194" data-name="Path 900194" d="M40.048,20a1.708,1.708,0,0,1,.944,3.129,8.384,8.384,0,0,0-2.858,3.243l-.752,1.495h-4.37v-.874a.877.877,0,0,0-.874-.874h-.874l-1.748-5.244a9.623,9.623,0,0,0,3.173-.507l1.154.769a3.657,3.657,0,0,0,4.615-.463l.175-.175a1.714,1.714,0,0,1,1.206-.5Z" transform="translate(-29.516 -20)" fill="#e6e9ed"/>
        </g>
        <g id="Group_1111571" data-name="Group 1111571" transform="translate(9.615 20.103)">
          <path id="Path_900195" data-name="Path 900195" d="M18.87,25.748a3.652,3.652,0,0,0,2.587-1.075l.175-.175a1.714,1.714,0,0,1,1.206-.5h.21a1.708,1.708,0,0,1,.944,3.129,8.694,8.694,0,0,0-1.468,1.241H13.678l-1.162-3.5a9.623,9.623,0,0,0,3.173-.507l1.154.769a3.616,3.616,0,0,0,2.028.612Z" transform="translate(-12.516 -24)" fill="#e6e9ed"/>
        </g>
      </g>
      <g id="Group_1111573" data-name="Group 1111573" transform="translate(0 0)">
        <path id="Path_900196" data-name="Path 900196" d="M52.894,22.725V17.571a8.721,8.721,0,0,0-7.825-8.692L35.878,7.91A6.725,6.725,0,0,0,31.917,5.4V1.99A1.991,1.991,0,0,0,28.22.966l-1.558,2.6A6.242,6.242,0,0,0,25.8,3.5a6.1,6.1,0,0,0-.863.068L23.377.968a1.99,1.99,0,0,0-3.7,1.023V5.4a6.734,6.734,0,0,0-2.622,1.179V5.486a1.991,1.991,0,0,0-3.7-1.024L11.8,7.06a6.242,6.242,0,0,0-.863-.067,6.1,6.1,0,0,0-.863.068l-1.559-2.6a1.99,1.99,0,0,0-3.7,1.024V8.9A6.737,6.737,0,0,0,.6,11.752l-.6.9,4.821,1.928v1.635a3.219,3.219,0,0,0-.874,2.143c0,2.316,2.745,4.156,6.356,4.351l.589,1.767H5.7a1.75,1.75,0,0,0-1.748-1.748H2.2A1.75,1.75,0,0,0,.451,24.473V36.71A1.75,1.75,0,0,0,2.2,38.458H3.947A1.75,1.75,0,0,0,5.7,36.71H24.924a1.75,1.75,0,0,0,1.748,1.748h1.748a1.75,1.75,0,0,0,1.748-1.748H49.4a1.75,1.75,0,0,0,1.748,1.748h1.748a1.75,1.75,0,0,0,1.748-1.748V24.473A1.75,1.75,0,0,0,52.894,22.725Zm-2.771-8.8a2.764,2.764,0,0,1-.493.061,4.511,4.511,0,0,0-2.513.761l-1.093.728a1.546,1.546,0,0,1-2.356-.911l-.081-.324a3.377,3.377,0,0,0-2.217-2.394,1.637,1.637,0,0,1-1.075-1.16l-.142-.566,4.732.5a6.973,6.973,0,0,1,5.237,3.307ZM31.9,9.206a6.058,6.058,0,0,0-.539-2.133,4.993,4.993,0,0,1,2.615,1.3ZM29.637,19.342a4.529,4.529,0,0,0,5.717-.566l.177-.177a.843.843,0,0,1,.59-.244h.206a.834.834,0,0,1,.462,1.528,9.314,9.314,0,0,0-3.159,3.578l-.506,1.012H30.168a1.75,1.75,0,0,0-1.748-1.748h-.245l-1.187-3.562a10.218,10.218,0,0,0,1.843-.358Zm.532,10.376H49.4v1.748H30.169Zm0-1.748V26.222H49.4V27.97Zm-5.244-3.5H23.319a2.573,2.573,0,0,0-1.85-4.37h-.206a2.565,2.565,0,0,0-1.826.756l-.177.177a2.832,2.832,0,0,1-3.362.428,3.775,3.775,0,0,0,2.035-3.109,3.219,3.219,0,0,0-.874-2.143V14.577l1.958-.783a2.936,2.936,0,0,0-.21,1.065c0,2.316,2.745,4.156,6.356,4.351l1.183,3.549A1.749,1.749,0,0,0,24.924,24.473ZM17.037,12.7a6.058,6.058,0,0,0-.539-2.133,4.993,4.993,0,0,1,2.615,1.3ZM25.8,17.481c-3.091,0-5.244-1.382-5.244-2.622s2.154-2.622,5.244-2.622,5.244,1.382,5.244,2.622S28.889,17.481,25.8,17.481Zm3.92-15.616a.252.252,0,0,1,.45.125V5.244h-.1A6.151,6.151,0,0,0,28.39,4.08Zm.45,7.749v1.813a9.951,9.951,0,0,0-4.37-.939,9.951,9.951,0,0,0-4.37.939V9.615a4.37,4.37,0,0,1,8.741,0ZM21.878,1.866l1.329,2.215a6.142,6.142,0,0,0-1.682,1.163h-.1V1.99a.251.251,0,0,1,.45-.124ZM20.24,7.074A6.077,6.077,0,0,0,19.7,9.206l-2.076-.83A4.975,4.975,0,0,1,20.24,7.074ZM14.86,5.361a.252.252,0,0,1,.45.125V8.476l-.146.219a6.147,6.147,0,0,0-1.632-1.119Zm.45,7.749v1.813a9.951,9.951,0,0,0-4.37-.939,9.951,9.951,0,0,0-4.37.939V13.111a4.37,4.37,0,0,1,8.741,0ZM7.019,5.362,8.347,7.577A6.142,6.142,0,0,0,6.666,8.741h-.1V5.486a.251.251,0,0,1,.449-.124ZM5.381,10.57A6.077,6.077,0,0,0,4.841,12.7l-2.076-.83a4.975,4.975,0,0,1,2.615-1.3ZM5.7,18.355c0-1.24,2.154-2.622,5.244-2.622s5.244,1.382,5.244,2.622-2.154,2.622-5.244,2.622S5.7,19.6,5.7,18.355Zm6.435,4.3a10.218,10.218,0,0,0,1.843-.358l.8.535a4.526,4.526,0,0,0,5.717-.565l.177-.177a.843.843,0,0,1,.59-.244h.206a.834.834,0,0,1,.462,1.528A9.27,9.27,0,0,0,20.6,24.473H12.733Zm12.794,3.562V27.97H5.7V26.222Zm0,3.5v1.748H5.7V29.718ZM2.2,36.71V24.473H3.947l0,12.237Zm3.5-1.748V33.214H24.924v1.748ZM26.673,36.71V24.473h1.748l0,12.237Zm3.5-1.748V33.214H49.4v1.748ZM49.4,24.473H35.079l.115-.231a7.565,7.565,0,0,1,2.565-2.905,2.582,2.582,0,0,0-1.433-4.73h-.206a2.565,2.565,0,0,0-1.826.756l-.177.177a2.834,2.834,0,0,1-3.362.429,3.776,3.776,0,0,0,2.036-3.11,3.219,3.219,0,0,0-.874-2.143V11.08l3.619-1.448,2.768.291.3,1.185A3.377,3.377,0,0,0,40.818,13.5a1.635,1.635,0,0,1,1.074,1.159l.081.324A3.293,3.293,0,0,0,47,16.928l1.092-.728a2.774,2.774,0,0,1,1.543-.467,4.533,4.533,0,0,0,1.22-.174,7.018,7.018,0,0,1,.3,2.011v5.155A1.75,1.75,0,0,0,49.4,24.473ZM51.146,36.71V24.473h1.748l0,12.237Z" transform="translate(0 0)"/>
        <circle id="Ellipse_11644" data-name="Ellipse 11644" cx="0.874" cy="0.874" r="0.874" transform="translate(22.302 7.866)"/>
        <circle id="Ellipse_11645" data-name="Ellipse 11645" cx="0.874" cy="0.874" r="0.874" transform="translate(23.176 13.985)"/>
        <circle id="Ellipse_11646" data-name="Ellipse 11646" cx="0.874" cy="0.874" r="0.874" transform="translate(26.673 13.985)"/>
        <circle id="Ellipse_11647" data-name="Ellipse 11647" cx="0.874" cy="0.874" r="0.874" transform="translate(27.547 7.866)"/>
        <circle id="Ellipse_11648" data-name="Ellipse 11648" cx="0.874" cy="0.874" r="0.874" transform="translate(7.443 11.363)"/>
        <circle id="Ellipse_11649" data-name="Ellipse 11649" cx="0.874" cy="0.874" r="0.874" transform="translate(8.317 17.481)"/>
        <circle id="Ellipse_11650" data-name="Ellipse 11650" cx="0.874" cy="0.874" r="0.874" transform="translate(11.814 17.481)"/>
        <circle id="Ellipse_11651" data-name="Ellipse 11651" cx="0.874" cy="0.874" r="0.874" transform="translate(12.688 11.363)"/>
      </g>
    </g>
  </g>
</svg>
