<svg xmlns="http://www.w3.org/2000/svg" width="77" height="77" viewBox="0 0 77 77">
  <g id="Group_1111346" data-name="Group 1111346" transform="translate(-1020.781 -3092.721)">
    <g id="Group_1098742" data-name="Group 1098742" transform="translate(1020.782 3092.721)">
      <rect id="Rectangle_400898" data-name="Rectangle 400898" width="77" height="77" rx="38.5" transform="translate(0 0)" fill="#0d8449"/>
      <rect id="Rectangle_400907" data-name="Rectangle 400907" width="77" height="77" rx="38.5" transform="translate(0 0)" fill="none"/>
    </g>
    <g id="registro-de-vacunas" transform="translate(1035.781 3107.721)">
      <g id="Group_1111592" data-name="Group 1111592" transform="translate(0.748 0.748)">
        <g id="Group_1111589" data-name="Group 1111589">
          <path id="Path_900211" data-name="Path 900211" d="M2.5,7H24.935l5.984,5.984V47.391a1.5,1.5,0,0,1-1.5,1.5H2.5a1.5,1.5,0,0,1-1.5-1.5V8.5A1.5,1.5,0,0,1,2.5,7Z" transform="translate(-1 -2.512)" fill="#eefdff"/>
          <path id="Path_900212" data-name="Path 900212" d="M31.423,47.895V13.488L26.935,9H4.5A1.5,1.5,0,0,0,3,10.5V49.391H29.927A1.5,1.5,0,0,0,31.423,47.895Z" transform="translate(-1.504 -3.016)" fill="#d4f6f9"/>
          <path id="Path_900213" data-name="Path 900213" d="M7.5,1H29.935l5.984,5.984V41.391a1.5,1.5,0,0,1-1.5,1.5H7.5a1.5,1.5,0,0,1-1.5-1.5V2.5A1.5,1.5,0,0,1,7.5,1Z" transform="translate(-2.26 -1)" fill="#c3f77e"/>
          <path id="Path_900214" data-name="Path 900214" d="M36.423,41.895V7.488L31.935,3H9.5A1.5,1.5,0,0,0,8,4.5V43.391H34.927A1.5,1.5,0,0,0,36.423,41.895Z" transform="translate(-2.764 -1.504)" fill="#a2ed50"/>
          <path id="Path_900215" data-name="Path 900215" d="M38,1l5.984,5.984H38Z" transform="translate(-10.325 -1)" fill="#c3f77e"/>
        </g>
        <g id="Group_1111590" data-name="Group 1111590" transform="translate(26.156 4.263)">
          <path id="Path_900216" data-name="Path 900216" d="M35.969,49.5l5.359-5.542L38.09,42.09Z" transform="translate(-35.969 -15.618)" fill="#8fdfff"/>
          <path id="Path_900217" data-name="Path 900217" d="M0,0H16.455V3.74H0Z" transform="matrix(0.5, -0.866, 0.866, 0.5, 2.119, 26.472)" fill="#ff8282"/>
          <path id="Path_900218" data-name="Path 900218" d="M0,0H10.472V3.74H0Z" transform="matrix(0.5, -0.866, 0.866, 0.5, 10.348, 12.222)" fill="#8fdfff"/>
          <path id="Path_900219" data-name="Path 900219" d="M42.051,44.212,40.107,43.09l-1.272,4.447Z" transform="translate(-36.691 -15.87)" fill="#64c8ff"/>
          <path id="Path_900220" data-name="Path 900220" d="M0,0H16.455V2.244H0Z" transform="matrix(0.5, -0.866, 0.866, 0.5, 3.415, 27.22)" fill="#f0645a"/>
          <path id="Path_900221" data-name="Path 900221" d="M0,0H10.472V2.244H0Z" transform="matrix(0.5, -0.866, 0.866, 0.5, 11.643, 12.97)" fill="#64c8ff"/>
          <path id="Path_900222" data-name="Path 900222" d="M58.733,7.447l-1.5,2.591,2.591,1.5,1.5-2.591a1.5,1.5,0,1,0-2.591-1.5Z" transform="translate(-41.329 -6.699)" fill="#ff8282"/>
          <path id="Path_900223" data-name="Path 900223" d="M59.717,10.179l-.748,1.3,1.3.748,1.5-2.591a1.5,1.5,0,0,0-2.043.548Z" transform="translate(-41.766 -7.387)" fill="#f0645a"/>
        </g>
        <g id="Group_1111591" data-name="Group 1111591" transform="translate(13.464 4.488)">
          <path id="Path_900224" data-name="Path 900224" d="M20.5,11h7.48v2.244a5.106,5.106,0,0,1,1.5,3.611v6.86a2.244,2.244,0,0,1-2.244,2.244H21.244A2.244,2.244,0,0,1,19,23.716v-6.86a5.1,5.1,0,0,1,1.5-3.611Z" transform="translate(-19 -8.008)" fill="#eefdff"/>
          <path id="Path_900225" data-name="Path 900225" d="M21,11h7.48v1.5H21Z" transform="translate(-19.504 -8.008)" fill="#d4f6f9"/>
          <path id="Path_900226" data-name="Path 900226" d="M29.976,23.716v-6.86a5.1,5.1,0,0,0-1.5-3.611V11H22.5v2.244A5.106,5.106,0,0,0,21,16.855v6.86a2.244,2.244,0,0,0,2.244,2.244h4.488A2.244,2.244,0,0,0,29.976,23.716Z" transform="translate(-19.504 -8.008)" fill="#d4f6f9"/>
          <path id="Path_900227" data-name="Path 900227" d="M23,11h5.984v1.5H23Z" transform="translate(-20.008 -8.008)" fill="#bdf3f4"/>
          <path id="Path_900228" data-name="Path 900228" d="M29.472,19v6.732a2.244,2.244,0,0,1-2.244,2.244H21.244A2.244,2.244,0,0,1,19,25.732V19Z" transform="translate(-19 -10.024)" fill="#8fdfff"/>
          <path id="Path_900229" data-name="Path 900229" d="M29.976,25.732V19H21v6.732a2.244,2.244,0,0,0,2.244,2.244h4.488A2.244,2.244,0,0,0,29.976,25.732Z" transform="translate(-19.504 -10.024)" fill="#64c8ff"/>
          <rect id="Rectangle_404344" data-name="Rectangle 404344" width="11" height="3" rx="1.5" transform="translate(-0.212 -0.365)" fill="#6c7a98"/>
          <path id="Path_900230" data-name="Path 900230" d="M29.976,9H22.5A1.5,1.5,0,0,0,21,10.5h7.48A1.5,1.5,0,0,0,29.976,9Z" transform="translate(-19.504 -7.504)" fill="#56627d"/>
        </g>
      </g>
      <g id="Group_1111593" data-name="Group 1111593" transform="translate(0 0)">
        <path id="Path_900231" data-name="Path 900231" d="M20.992,25.447h5.984a3,3,0,0,0,2.992-2.992V15.6a5.815,5.815,0,0,0-1.5-3.91V10.35A2.238,2.238,0,0,0,27.724,6h-7.48a2.238,2.238,0,0,0-.748,4.35v1.336A5.812,5.812,0,0,0,18,15.6v6.86A3,3,0,0,0,20.992,25.447ZM20.244,7.5h7.48a.748.748,0,0,1,0,1.5h-7.48a.748.748,0,0,1,0-1.5Zm6.951,5.017a4.327,4.327,0,0,1,1.228,2.463H19.545a4.327,4.327,0,0,1,1.228-2.463.747.747,0,0,0,.219-.529v-1.5h5.984v1.5a.746.746,0,0,0,.219.529Zm-7.7,3.959h8.976v5.984a1.5,1.5,0,0,1-1.5,1.5H20.992a1.5,1.5,0,0,1-1.5-1.5Z" transform="translate(-4.536 -1.512)"/>
        <path id="Path_900232" data-name="Path 900232" d="M23.248,24.866H24.37v1.122a.748.748,0,0,0,1.5,0V24.866h1.122a.748.748,0,1,0,0-1.5H25.866V22.248a.748.748,0,0,0-1.5,0V23.37H23.248a.748.748,0,1,0,0,1.5Z" transform="translate(-5.671 -5.419)"/>
        <path id="Path_900233" data-name="Path 900233" d="M12.992,36H10.748a.748.748,0,0,0,0,1.5h2.244a.748.748,0,0,0,0-1.5Z" transform="translate(-2.52 -9.073)"/>
        <path id="Path_900234" data-name="Path 900234" d="M12.992,41H10.748a.748.748,0,0,0,0,1.5h2.244a.748.748,0,0,0,0-1.5Z" transform="translate(-2.52 -10.333)"/>
        <path id="Path_900235" data-name="Path 900235" d="M12.992,46H10.748a.748.748,0,1,0,0,1.5h2.244a.748.748,0,1,0,0-1.5Z" transform="translate(-2.52 -11.593)"/>
        <path id="Path_900236" data-name="Path 900236" d="M12.992,51H10.748a.748.748,0,0,0,0,1.5h2.244a.748.748,0,0,0,0-1.5Z" transform="translate(-2.52 -12.853)"/>
        <path id="Path_900237" data-name="Path 900237" d="M46.748,4.563a2.244,2.244,0,0,0-3.065.821L42.56,7.328l-.972-.561a2.244,2.244,0,0,0-3.065.821l-2.744,4.753a.748.748,0,0,0,1.3.748l2.744-4.753a.748.748,0,0,1,1.022-.274l.647.374L35.154,19.408V6.732a.746.746,0,0,0-.219-.529L28.952.219A.75.75,0,0,0,28.423,0H5.984A2.247,2.247,0,0,0,3.74,2.244V4.488h-1.5A2.247,2.247,0,0,0,0,6.732V45.626A2.247,2.247,0,0,0,2.244,47.87H29.171a2.247,2.247,0,0,0,2.244-2.244V43.382h1.5a2.247,2.247,0,0,0,2.244-2.244v-11.3L46.022,11.054h0a.748.748,0,1,0,.748-1.295l-.324-.187,1.122-1.943a2.245,2.245,0,0,0-.821-3.066ZM29.17,2.554l3.43,3.43H29.17V2.554Zm.748,43.073a.749.749,0,0,1-.748.748H2.244a.749.749,0,0,1-.748-.748V6.732a.749.749,0,0,1,.748-.748h1.5V41.139a2.247,2.247,0,0,0,2.244,2.244H29.919v2.244Zm3.74-4.488a.749.749,0,0,1-.748.748H5.984a.749.749,0,0,1-.748-.748V2.244A.749.749,0,0,1,5.984,1.5H27.675V6.732a.748.748,0,0,0,.748.748h5.236V22L30.8,26.953a.7.7,0,0,0-.131-.026H14.211a.748.748,0,1,0,0,1.5H29.95l-1.3,2.244H14.211a.748.748,0,1,0,0,1.5H28.1l-.647,2.244H14.211a.748.748,0,1,0,0,1.5H27.017l-.647,2.244H14.211a.748.748,0,0,0,0,1.5H26.926v-.015a.714.714,0,0,0,.547-.223l5.286-5.467a.764.764,0,0,0,.11-.145l.789-1.364v8.71Zm-2.577-7.617-2.613,2.7L29.5,32.61Zm.93-1.191-1.943-1.122,7.48-12.955,1.943,1.122ZM40.239,18.08,38.3,16.958l4.488-7.773,1.943,1.122Zm6.034-11.2L45.151,8.824l-1.3-.748,1.122-1.943a.748.748,0,1,1,1.3.748Z" transform="translate(0 0)"/>
      </g>
    </g>
  </g>
</svg>
