<svg xmlns="http://www.w3.org/2000/svg" width="77" height="77" viewBox="0 0 77 77">
  <g id="Group_1111621" data-name="Group 1111621" transform="translate(-600.051 -7648)">
    <g id="Group_1111348" data-name="Group 1111348" transform="translate(-420.679 4555)">
      <g id="Group_1098742" data-name="Group 1098742" transform="translate(1020.73 3093)">
        <rect id="Rectangle_400898" data-name="Rectangle 400898" width="77" height="77" rx="38.5" transform="translate(0 0)" fill="#0d8449"/>
        <rect id="Rectangle_400907" data-name="Rectangle 400907" width="77" height="77" rx="38.5" transform="translate(0 0)" fill="none"/>
      </g>
    </g>
    <g id="ganado" transform="translate(614.18 7662)">
      <g id="Group_1111619" data-name="Group 1111619" transform="translate(1.735 1.765)">
        <g id="Group_1111595" data-name="Group 1111595" transform="translate(41.329 36.737)">
          <path id="Path_900252" data-name="Path 900252" d="M60.592,50.291v8.893H56V50h4.592Z" transform="translate(-56 -50)" fill="#dfb28b"/>
        </g>
        <g id="Group_1111596" data-name="Group 1111596" transform="translate(33.676 36.737)">
          <path id="Path_900253" data-name="Path 900253" d="M50.592,50v9.184H46V50h4.592Z" transform="translate(-46 -50)" fill="#dfb28b"/>
        </g>
        <g id="Group_1111597" data-name="Group 1111597" transform="translate(26.022 36.737)">
          <path id="Path_900254" data-name="Path 900254" d="M36,50h4.592v9.184H36Z" transform="translate(-36 -50)" fill="#dfb28b"/>
        </g>
        <g id="Group_1111598" data-name="Group 1111598" transform="translate(18.369 36.737)">
          <path id="Path_900255" data-name="Path 900255" d="M26,50h4.592v9.184H26Z" transform="translate(-26 -50)" fill="#dfb28b"/>
        </g>
        <g id="Group_1111599" data-name="Group 1111599" transform="translate(10.715 36.737)">
          <path id="Path_900256" data-name="Path 900256" d="M16,50h4.592v9.184H16Z" transform="translate(-16 -50)" fill="#dfb28b"/>
        </g>
        <g id="Group_1111600" data-name="Group 1111600" transform="translate(3.061 36.737)">
          <path id="Path_900257" data-name="Path 900257" d="M7.531,50h3.061v9.184H6V50Z" transform="translate(-6 -50)" fill="#dfb28b"/>
        </g>
        <g id="Group_1111601" data-name="Group 1111601" transform="translate(38.268 36.737)">
          <path id="Path_900258" data-name="Path 900258" d="M55.061,54.592v4.592H52V50h3.061Z" transform="translate(-52 -50)" fill="#d3a06c"/>
        </g>
        <g id="Group_1111602" data-name="Group 1111602" transform="translate(30.614 36.737)">
          <path id="Path_900259" data-name="Path 900259" d="M45.061,54.592v4.592H42V50h3.061Z" transform="translate(-42 -50)" fill="#d3a06c"/>
        </g>
        <g id="Group_1111603" data-name="Group 1111603" transform="translate(22.961 36.737)">
          <path id="Path_900260" data-name="Path 900260" d="M35.061,54.592v4.592H32V50h3.061Z" transform="translate(-32 -50)" fill="#d3a06c"/>
        </g>
        <g id="Group_1111604" data-name="Group 1111604" transform="translate(15.307 36.737)">
          <path id="Path_900261" data-name="Path 900261" d="M25.061,54.592v4.592H22V50h3.061Z" transform="translate(-22 -50)" fill="#d3a06c"/>
        </g>
        <g id="Group_1111605" data-name="Group 1111605" transform="translate(7.654 36.737)">
          <path id="Path_900262" data-name="Path 900262" d="M15.061,54.592v4.592H12V50h3.061Z" transform="translate(-12 -50)" fill="#d3a06c"/>
        </g>
        <g id="Group_1111606" data-name="Group 1111606" transform="translate(0 36.737)">
          <path id="Path_900263" data-name="Path 900263" d="M5.061,54.592v4.592H2V50H5.061Z" transform="translate(-2 -50)" fill="#d3a06c"/>
        </g>
        <g id="Group_1111607" data-name="Group 1111607" transform="translate(0)">
          <path id="Path_900264" data-name="Path 900264" d="M15.983,32.767a4.805,4.805,0,0,1-.972-1.684l-.62-1.852a3.9,3.9,0,0,0-.8-1.385,2.3,2.3,0,0,0-.88-4.416h-.084l-.681-6.123H10.855a1.6,1.6,0,0,0-.811.23L4.3,21.134,2,17.307,4.954,10.9A7.757,7.757,0,0,1,6.485,8.7a7.557,7.557,0,0,1,.689-.612,7.752,7.752,0,0,1,3.245-1.5L11.95,2l.674.674a5.538,5.538,0,0,1,1.623,3.919,8.879,8.879,0,0,1,4.294,4.722l2.595,6.75a3.778,3.778,0,0,1-1.3,1.745l-1.148.865a1.541,1.541,0,0,0-.612,1.225V23.43a3.061,3.061,0,0,0,5.511,1.837l.8-1.071a3.075,3.075,0,0,1,1.485-1.071l.811-.268A4.594,4.594,0,0,1,28.022,26.1v.015a4.578,4.578,0,0,0,1.041,2.916l-1.041.52v.582a7.845,7.845,0,0,0,2.3,5.541l6.169-.949a4.431,4.431,0,0,0,1.776-.681,7.2,7.2,0,0,1,.475,2.579v2.112H28.022a5.542,5.542,0,0,1-3.061-4.952V33.38a3.827,3.827,0,0,0-7.577-.765H16.8A2.256,2.256,0,0,0,15.983,32.767Z" transform="translate(-2 -2)" fill="#cf9e76"/>
        </g>
        <g id="Group_1111608" data-name="Group 1111608" transform="translate(9.95)">
          <path id="Path_900265" data-name="Path 900265" d="M24.184,18.065l-2.595-6.75A8.879,8.879,0,0,0,17.3,6.592a5.538,5.538,0,0,0-1.623-3.919L15,2a10.923,10.923,0,0,1,5.809,1.7,10.793,10.793,0,0,1,4,4.562L27,12.952a3.827,3.827,0,0,0-2.472,3.115l-.145,1.156a3.858,3.858,0,0,1-.2.842Z" transform="translate(-15 -2)" fill="#b27946"/>
        </g>
        <g id="Group_1111609" data-name="Group 1111609" transform="translate(2.296)">
          <path id="Path_900266" data-name="Path 900266" d="M12.654,2,11.123,6.592a7.752,7.752,0,0,0-3.245,1.5,7.557,7.557,0,0,0-.689.612L5,5.061l.857-.681A10.837,10.837,0,0,1,12.631,2Z" transform="translate(-5 -2)" fill="#b27946"/>
        </g>
        <g id="Group_1111610" data-name="Group 1111610" transform="translate(16.072 4.592)">
          <path id="Path_900267" data-name="Path 900267" d="M36.524,17.276a6.124,6.124,0,0,0,5.25,2.97h11.84V29.43H50.461a3.052,3.052,0,0,1-2.9-2.1l-.107-.314a3.192,3.192,0,0,0-2.365-2.112H45.08a2.25,2.25,0,0,0-.559-.926,2.289,2.289,0,0,0-3.781.857h-1.37a3.059,3.059,0,0,0-3.023,2.556l-.207,1.27a1.553,1.553,0,0,1-.827,1.117l-1.324.658a4.578,4.578,0,0,1-1.041-2.916v-.015a4.594,4.594,0,0,0-1.339-3.245l-.811.268A3.075,3.075,0,0,0,29.314,25.6l-.8,1.071A3.06,3.06,0,0,1,23,24.838V23.307a1.541,1.541,0,0,1,.612-1.225l1.148-.865a3.778,3.778,0,0,0,1.3-1.745,3.858,3.858,0,0,0,.2-.842l.145-1.156a3.829,3.829,0,0,1,3.8-3.352h.452l1.056-1.408a6.208,6.208,0,0,0,1.24-3.72A.993.993,0,0,1,33.945,8a1,1,0,0,1,.834.444,7.363,7.363,0,0,1,1.232,4.079v1.6h-.582a2.766,2.766,0,0,0-2.48,1.531,1.542,1.542,0,0,0,1.531,1.531h.138a2.677,2.677,0,0,0,1.554-.49l.008.008Z" transform="translate(-23 -8)" fill="#ccd1d9"/>
        </g>
        <g id="Group_1111611" data-name="Group 1111611" transform="translate(26.022 10.715)">
          <path id="Path_900268" data-name="Path 900268" d="M40.592,16l-.237.964a2.759,2.759,0,0,1-1.133,1.607,2.677,2.677,0,0,1-1.554.49h-.138A1.542,1.542,0,0,1,36,17.531,2.766,2.766,0,0,1,38.48,16h2.112Z" transform="translate(-36 -16)" fill="#aab2bd"/>
        </g>
        <g id="Group_1111612" data-name="Group 1111612" transform="translate(15.307 27.553)">
          <path id="Path_900269" data-name="Path 900269" d="M29.654,42.232a5.542,5.542,0,0,0,3.061,4.952H25.061a2.457,2.457,0,0,0-1.37-2.212L22,44.123v-2.3a3.607,3.607,0,0,1,.077-.765,3.826,3.826,0,0,1,7.577.765Z" transform="translate(-22 -38)" fill="#e6e9ed"/>
        </g>
        <g id="Group_1111613" data-name="Group 1111613" transform="translate(4.592 24.491)">
          <path id="Path_900270" data-name="Path 900270" d="M11.061,46.246H8V38a3.867,3.867,0,0,1,.115-.941A4,4,0,0,1,9.477,34.9,3.94,3.94,0,0,1,12,34a3.981,3.981,0,0,1,2.342.758,4.07,4.07,0,0,1,.658.6,3.9,3.9,0,0,1,.8,1.385l.62,1.852a4.805,4.805,0,0,0,.972,1.684,2.341,2.341,0,0,0-1.408,1.584l-.329,1.324h3.061l1.691.85a2.457,2.457,0,0,1,1.37,2.212H11.061Z" transform="translate(-8 -34)" fill="#ffeaa7"/>
        </g>
        <g id="Group_1111614" data-name="Group 1111614" transform="translate(12.246 30.614)">
          <path id="Path_900271" data-name="Path 900271" d="M18.329,43.737a2.341,2.341,0,0,1,1.408-1.584A2.256,2.256,0,0,1,20.556,42h.582a3.607,3.607,0,0,0-.077.765v2.3H18Z" transform="translate(-18 -42)" fill="#ff826e"/>
        </g>
        <g id="Group_1111615" data-name="Group 1111615" transform="translate(5.357 21.43)">
          <path id="Path_900272" data-name="Path 900272" d="M14.357,30a2.3,2.3,0,0,1,.88,4.416,4.07,4.07,0,0,0-.658-.6,3.981,3.981,0,0,0-2.342-.758,3.94,3.94,0,0,0-2.526.9,2.291,2.291,0,0,1,3.115-3.36,2.267,2.267,0,0,1,1.447-.6Z" transform="translate(-9 -30)" fill="#ff826e"/>
        </g>
        <g id="Group_1111616" data-name="Group 1111616" transform="translate(1.531 27.553)">
          <path id="Path_900273" data-name="Path 900273" d="M7.176,38a3.867,3.867,0,0,0-.115.941v2.12H4l.207-.834A2.947,2.947,0,0,1,7.061,38Z" transform="translate(-4 -38)" fill="#ff826e"/>
        </g>
        <g id="Group_1111617" data-name="Group 1111617" transform="translate(26.022 21.43)">
          <path id="Path_900274" data-name="Path 900274" d="M39.4,32.556A3.059,3.059,0,0,1,42.421,30h1.37a2.122,2.122,0,0,0-.138.765v1.064a2.291,2.291,0,0,0,1.026,1.913l1.27.85,1.27-.85a2.291,2.291,0,0,0,1.026-1.913V30.765a2.078,2.078,0,0,0-.115-.7h.008A3.192,3.192,0,0,1,50.5,32.181l.107.314a3.052,3.052,0,0,0,2.9,2.1h3.153V45.307h-9.95V43.195a7.2,7.2,0,0,0-.475-2.579,4.431,4.431,0,0,1-1.776.681l-6.169.949A7.845,7.845,0,0,1,36,36.7v-.582l1.041-.52,1.324-.658a1.553,1.553,0,0,0,.827-1.117Z" transform="translate(-36 -30)" fill="#ecc19c"/>
        </g>
        <g id="Group_1111618" data-name="Group 1111618" transform="translate(33.676 19.899)">
          <path id="Path_900275" data-name="Path 900275" d="M50.592,30.3V31.36a2.291,2.291,0,0,1-1.026,1.913l-1.27.85-1.27-.85A2.291,2.291,0,0,1,46,31.36V30.3a2.121,2.121,0,0,1,.138-.765,2.286,2.286,0,0,1,4.34.069A2.078,2.078,0,0,1,50.592,30.3Z" transform="translate(-46 -28)" fill="#dfb28b"/>
        </g>
      </g>
      <g id="Group_1111620" data-name="Group 1111620" transform="translate(0.871 1)">
        <circle id="Ellipse_11652" data-name="Ellipse 11652" cx="0.765" cy="0.765" r="0.765" transform="translate(32.244 26.022)"/>
        <circle id="Ellipse_11653" data-name="Ellipse 11653" cx="0.765" cy="0.765" r="0.765" transform="translate(23.059 15.307)"/>
        <circle id="Ellipse_11654" data-name="Ellipse 11654" cx="0.765" cy="0.765" r="0.765" transform="translate(7.752 9.184)"/>
        <circle id="Ellipse_11655" data-name="Ellipse 11655" cx="0.765" cy="0.765" r="0.765" transform="translate(18.467 30.614)"/>
        <circle id="Ellipse_11656" data-name="Ellipse 11656" cx="0.765" cy="0.765" r="0.765" transform="translate(7.752 27.553)"/>
        <path id="Path_900276" data-name="Path 900276" d="M11,43h1.531v3.061H11Z" transform="translate(-3.248 -10.855)"/>
        <path id="Path_900277" data-name="Path 900277" d="M29.422,14.776h-.134v1.531h.134a3.517,3.517,0,0,0,1.278-.246,6.922,6.922,0,0,0,5.881,3.308H48.422V17.838H36.581a5.384,5.384,0,0,1-4.594-2.6l-.014-.023a3.516,3.516,0,0,0,.877-1.584l.479-1.915H31.584v-.836a8.1,8.1,0,0,0-1.363-4.5,1.763,1.763,0,0,0-3.229.978,5.459,5.459,0,0,1-1.085,3.257l-.828,1.1h-.066a4.552,4.552,0,0,0-.907.1L22.188,7.7A11.613,11.613,0,0,0,4.408,3.546l-1.378,1.1,2.244,3.74A8.354,8.354,0,0,0,4,10.346L.871,17.119l2.905,4.842,6.411-4.007a.76.76,0,0,1,.406-.116H11l.527,4.744a3.061,3.061,0,0,0-.608.266,3.023,3.023,0,0,0-1.531-.418,3.065,3.065,0,0,0-3.061,3.061,3.025,3.025,0,0,0,.458,1.59,4.761,4.761,0,0,0-.916,1.51A3.693,3.693,0,0,0,2.732,31.36l-.447,1.785H5.562v4.592H.97V48.452H48.422V37.737H39.237v-1.35A7.974,7.974,0,0,0,38.9,34.1a5.2,5.2,0,0,0,1.87-4.014H39.237A3.676,3.676,0,0,1,36.1,33.736l-5.772.888A7.024,7.024,0,0,1,28.523,29.9v-.106l1.941-.97A2.3,2.3,0,0,0,31.7,27.145l.21-1.265a2.289,2.289,0,0,1,2.265-1.919h.468v1.068a3.056,3.056,0,0,0,1.363,2.547l1.7,1.132,1.7-1.132a3.057,3.057,0,0,0,1.363-2.547v-.507a2.416,2.416,0,0,1,.765,1.094l.107.321a3.822,3.822,0,0,0,3.63,2.616h3.151V27.022H45.271a2.293,2.293,0,0,1-2.178-1.57l-.107-.321a3.963,3.963,0,0,0-2.537-2.505,3.037,3.037,0,0,0-5.377-.2h-.894a3.814,3.814,0,0,0-3.775,3.2l-.21,1.264a.766.766,0,0,1-.413.559l-.728.364a3.868,3.868,0,0,1-.528-1.952,5.321,5.321,0,0,0-.845-2.885,3.935,3.935,0,0,0,2.376-3.609H28.523a2.417,2.417,0,0,1-1.655,2.3l-1.506.5A3.8,3.8,0,0,0,23.51,23.5l-.8,1.071a2.309,2.309,0,0,1-1.838.919,2.258,2.258,0,0,1-.983-.23l2.29-2.29-1.082-1.082-2.29,2.29a2.258,2.258,0,0,1-.23-.983V21.665a.768.768,0,0,1,.306-.612l1.15-.862a4.617,4.617,0,0,0,1.8-3.1l.145-1.159a3.066,3.066,0,0,1,3.038-2.682h.831l1.287-1.716a6.932,6.932,0,0,0,.622-1l2.3.878v.321a3.509,3.509,0,0,0-2.981,1.941l1.369.685a1.994,1.994,0,0,1,1.792-1.108h1.135l0,.013a2,2,0,0,1-1.944,1.518Zm6.754,9.184a1.531,1.531,0,1,1,3.061,0v1.068a1.528,1.528,0,0,1-.682,1.274l-.849.566-.849-.566a1.526,1.526,0,0,1-.682-1.273ZM18.985,10.808a9.6,9.6,0,0,0-.695-1.433l2.122-1.768c.139.242.27.488.39.743l.817,1.752-2.437,1.218Zm.559-4.471L17.4,8.121a9.559,9.559,0,0,0-1.5-1.445l1.43-2.383a10.144,10.144,0,0,1,2.209,2.044ZM9.564,5.708l-.024.008L8.248,3.132A10.1,10.1,0,0,1,10.6,2.594ZM14.707,5.7A6.24,6.24,0,0,0,13.6,2.725a10.108,10.108,0,0,1,2.416.8ZM5.364,4.74a10.085,10.085,0,0,1,1.486-.982L8.1,6.247A8.46,8.46,0,0,0,6.4,7.294L5.031,5.007Zm4.024,19.22a1.515,1.515,0,0,1,1.019.4l.512.462.512-.461a1.511,1.511,0,0,1,1.019-.4,1.529,1.529,0,0,1,.987,2.7,4.725,4.725,0,0,0-5.449-.549,1.531,1.531,0,0,1,1.4-2.15ZM4.25,31.614a2.166,2.166,0,0,1,1.314-1.388c0,.011,0,.022,0,.033v1.355ZM7.093,30.26A3.237,3.237,0,0,1,13.4,29.236l.618,1.855a5.6,5.6,0,0,0,.583,1.217,3.052,3.052,0,0,0-1.035,1.625L13,36.206h3.86l1.531.765a1.691,1.691,0,0,1,.752.765H7.093Zm7.869,4.416.093-.371a1.527,1.527,0,0,1,1.223-1.137v1.508Zm10.571,3.061h-4.76a3.218,3.218,0,0,0-1.7-2.135l-1.27-.634V33.145a3.061,3.061,0,1,1,6.123,0v.4A6.262,6.262,0,0,0,25.532,37.737ZM42.3,46.921H40.768V39.268H42.3ZM36.176,43.86h3.061v3.061H36.176Zm3.061-1.531H36.176V39.268h3.061Zm-4.592,4.592H33.115V39.268h1.531ZM8.623,42.329H5.562V39.268H8.623ZM5.562,43.86H8.623v3.061H5.562Zm4.592-4.592h1.531v7.654H10.154Zm6.123,3.061H13.215V39.268h3.061ZM13.215,43.86h3.061v3.061H13.215Zm4.592-4.592h1.531v7.654H17.808Zm6.123,3.061H20.869V39.268H23.93ZM20.869,43.86H23.93v3.061H20.869Zm4.592-4.592h1.531v7.654H25.461Zm3.061,4.592h3.061v3.061H28.523Zm3.061-1.531H28.523V39.268h3.061ZM2.5,39.268H4.031v7.654H2.5ZM43.83,46.921V43.86h3.061v3.061Zm3.061-4.592H43.83V39.268h3.061ZM19.11,18.966l-1.15.862a2.308,2.308,0,0,0-.918,1.837V23.2a3.827,3.827,0,0,0,6.888,2.3l.8-1.072a2.277,2.277,0,0,1,1.111-.8l.318-.106a3.809,3.809,0,0,1,.828,2.373,5.375,5.375,0,0,0,.685,2.618l-.685.342V29.9a8.548,8.548,0,0,0,2.52,6.085l.274.274,6.551-1.008a5.258,5.258,0,0,0,1.194-.334,6.463,6.463,0,0,1,.176,1.473v1.351H27.962a4.739,4.739,0,0,1-2.5-4.188v-.4a4.589,4.589,0,0,0-8.916-1.531h-.006a3.154,3.154,0,0,0-.513.043,4.038,4.038,0,0,1-.554-1.051l-.618-1.855a4.733,4.733,0,0,0-.433-.918,3.06,3.06,0,0,0-1.363-5.342l-.519-4.67a4.11,4.11,0,0,0,3.7-2.8l-1.452-.484a2.591,2.591,0,0,1-2.46,1.773H10.593a2.3,2.3,0,0,0-1.217.349l-5.09,3.181L2.6,17.026l2.787-6.039A6.931,6.931,0,0,1,10.3,7.108l.435-.087L12.015,3.2a4.744,4.744,0,0,1,1.2,3.16V6.83l.423.211a8.044,8.044,0,0,1,3.919,4.315L20.035,17.8a3.068,3.068,0,0,1-.925,1.166Zm1.5-3.932-.876-2.279,2.532-1.266.407.873A4.6,4.6,0,0,0,20.611,15.034Zm7.911-7.68a.241.241,0,0,1,.425-.129,6.562,6.562,0,0,1,.993,2.5L28.3,9.1a6.966,6.966,0,0,0,.227-1.743Z" transform="translate(-0.871 -1)"/>
      </g>
    </g>
  </g>
</svg>
