<svg xmlns="http://www.w3.org/2000/svg" width="77" height="77" viewBox="0 0 77 77">
  <g id="Group_1111624" data-name="Group 1111624" transform="translate(-923.051 -7648)">
    <g id="Group_1111349" data-name="Group 1111349" transform="translate(-97.679 4555)">
      <g id="Group_1098742" data-name="Group 1098742" transform="translate(1020.73 3093)">
        <rect id="Rectangle_400898" data-name="Rectangle 400898" width="77" height="77" rx="38.5" transform="translate(0 0)" fill="#0d8449"/>
        <rect id="Rectangle_400907" data-name="Rectangle 400907" width="77" height="77" rx="38.5" transform="translate(0 0)" fill="none"/>
      </g>
    </g>
    <g id="investigar" transform="translate(925.801 7654.75)">
      <g id="Group_1111622" data-name="Group 1111622" transform="translate(13.031 6.031)">
        <path id="Path_900278" data-name="Path 900278" d="M81.376,84.121,92.69,95.435a3.008,3.008,0,0,1,0,4.254h0a3.008,3.008,0,0,1-4.254,0L77.121,88.376Z" transform="translate(-48.966 -49.721)" fill="#543f87"/>
        <circle id="Ellipse_11657" data-name="Ellipse 11657" cx="17.842" cy="17.842" r="17.842" transform="translate(0 6.245)" fill="#919cee"/>
        <circle id="Ellipse_11658" data-name="Ellipse 11658" cx="13.382" cy="13.382" r="13.382" transform="translate(4.461 10.705)" fill="#e7f2ff"/>
        <path id="Path_900279" data-name="Path 900279" d="M41,9.007V27.741h4.84v6.914l5.531-6.914H66.648a2.007,2.007,0,0,0,2.007-2.007V7H43.007A2.007,2.007,0,0,0,41,9.007Z" transform="translate(-28.957 -7)" fill="#ffd92e"/>
      </g>
      <g id="Group_1111623" data-name="Group 1111623" transform="translate(12.25 5.25)">
        <path id="Path_900280" data-name="Path 900280" d="M23.458,85.792a.781.781,0,1,0-1.176,1.026A18.753,18.753,0,0,0,23.9,88.459a.781.781,0,1,0,1.04-1.162,17.319,17.319,0,0,1-1.484-1.5Z" transform="translate(-17.694 -49.71)"/>
        <path id="Path_900281" data-name="Path 900281" d="M57.307,51.193l-3.786-3.785a.781.781,0,1,0-1.1,1.1L56.2,52.3a2.23,2.23,0,0,1-3.151,3.151l-10.69-10.69a18.737,18.737,0,0,0,3.151-3.151l4.03,4.03a.781.781,0,1,0,1.1-1.1L46.44,40.324A18.511,18.511,0,0,0,49.5,30.117a18.863,18.863,0,0,0-.178-2.565h1.405a2.791,2.791,0,0,0,2.788-2.788V17.9a.781.781,0,1,0-1.561,0v6.869a1.228,1.228,0,0,1-1.227,1.227H35.445a.781.781,0,0,0-.609.293L30.694,31.46V26.772a.781.781,0,0,0-.781-.781H25.855V8.038a1.228,1.228,0,0,1,1.227-1.227H51.949v7.02a.781.781,0,0,0,1.561,0v-7.8a.781.781,0,0,0-.781-.781H27.081a2.791,2.791,0,0,0-2.788,2.788v4.655a18.633,18.633,0,0,0-9.865,26.17.781.781,0,1,0,1.378-.734,17.072,17.072,0,0,1,8.488-23.758v3.212A14.161,14.161,0,1,0,44.8,27.553h2.94a17.27,17.27,0,0,1,.194,2.565A17.067,17.067,0,0,1,22.688,45.091a.781.781,0,0,0-.75,1.369,18.6,18.6,0,0,0,19.141-.776L51.948,56.553a3.791,3.791,0,0,0,5.359-5.359ZM43.474,30.117a12.6,12.6,0,1,1-19.18-10.739v7.394a.781.781,0,0,0,.781.781h4.059v6.133a.781.781,0,0,0,1.39.488l5.3-6.621h7.388a12.682,12.682,0,0,1,.266,2.565Z" transform="translate(-12.25 -5.25)"/>
        <path id="Path_900282" data-name="Path 900282" d="M53.281,18.5a.781.781,0,0,0-.781.781V28.2a.781.781,0,0,0,.781.781H69.115a.781.781,0,1,0,0-1.561H54.061v-8.14A.781.781,0,0,0,53.281,18.5Z" transform="translate(-34.546 -12.59)"/>
        <path id="Path_900283" data-name="Path 900283" d="M60.708,28.934V25.957a.781.781,0,0,0-1.561,0v2.977a.781.781,0,1,0,1.561,0Z" transform="translate(-38.229 -16.288)"/>
        <path id="Path_900284" data-name="Path 900284" d="M82.913,25.235V19.281a.781.781,0,1,0-1.561,0v5.955a.781.781,0,0,0,1.561,0Z" transform="translate(-50.529 -12.59)"/>
        <path id="Path_900285" data-name="Path 900285" d="M75.512,28.934V25.957a.781.781,0,1,0-1.561,0v2.977a.781.781,0,1,0,1.561,0Z" transform="translate(-46.429 -16.288)"/>
        <path id="Path_900286" data-name="Path 900286" d="M68.11,25.235V19.281a.781.781,0,1,0-1.561,0v5.955a.781.781,0,1,0,1.561,0Z" transform="translate(-42.329 -12.59)"/>
      </g>
    </g>
  </g>
</svg>
