<svg xmlns="http://www.w3.org/2000/svg" width="85" height="86" viewBox="0 0 85 86">
  <g id="Group_1112048" data-name="Group 1112048" transform="translate(-180.051 -1698)">
    <rect id="Rectangle_404075" data-name="Rectangle 404075" width="85" height="86" rx="8" transform="translate(180.051 1698)" fill="#ccda2d"/>
    <g id="lista-de-verificacion" transform="translate(192.051 1710)">
      <g id="Group_1112046" data-name="Group 1112046">
        <g id="Group_1112032" data-name="Group 1112032">
          <path id="Path_901255" data-name="Path 901255" d="M56,57H25V8a1,1,0,0,1,1-1H56a1,1,0,0,1,1,1V56A1,1,0,0,1,56,57Z" fill="#e6e9ed"/>
        </g>
        <g id="Group_1112033" data-name="Group 1112033">
          <path id="Path_901256" data-name="Path 901256" d="M24,57H56a1,1,0,0,0,1-1V8a1,1,0,0,0-1-1H50a1,1,0,0,0,1-1V3h9a1,1,0,0,1,1,1V60a1,1,0,0,1-1,1H22a1,1,0,0,1-1-1V55a2.006,2.006,0,0,0,2,2Z" fill="#cf9e76"/>
        </g>
        <g id="Group_1112034" data-name="Group 1112034">
          <path id="Path_901257" data-name="Path 901257" d="M32,7H26a1,1,0,0,0-1,1v3.04c-.33-.03-.66-.04-1-.04a11.858,11.858,0,0,0-3,.38V4a1,1,0,0,1,1-1h9V6A1,1,0,0,0,32,7Z" fill="#cf9e76"/>
        </g>
        <g id="Group_1112035" data-name="Group 1112035">
          <path id="Path_901258" data-name="Path 901258" d="M51,3V6a1,1,0,0,1-1,1H32a1,1,0,0,1-1-1V2a1,1,0,0,1,1-1H50a1,1,0,0,1,1,1Z" fill="#b4dd7f"/>
        </g>
        <g id="Group_1112036" data-name="Group 1112036">
          <path id="Path_901259" data-name="Path 901259" d="M57,40.95V47H52V45.95a2.164,2.164,0,0,0-1.35-2.01l-.03-.01a2.156,2.156,0,0,0-2.36.47l-.75.74-5.65-5.65.75-.76a2.16,2.16,0,0,0,.47-2.34l-.02-.05a2.157,2.157,0,0,0-2-1.34H40V27h1.05a2.164,2.164,0,0,0,2.01-1.35l.01-.03a2.156,2.156,0,0,0-.47-2.36l-.74-.75,5.65-5.65.76.75a2.137,2.137,0,0,0,2.35.46.037.037,0,0,0,.03-.01,2.151,2.151,0,0,0,1.35-2V15h5v6.05c-.33-.03-.66-.05-1-.05a10,10,0,0,0,0,20c.34,0,.68-.02,1-.05Z" fill="#ffc729"/>
        </g>
        <g id="Group_1112037" data-name="Group 1112037">
          <path id="Path_901260" data-name="Path 901260" d="M57,36.91v4.04c-.32.03-.66.05-1,.05a10,10,0,0,1,0-20c.34,0,.67.02,1,.05v4.03A6.634,6.634,0,0,0,56,25a6,6,0,0,0,0,12A5.47,5.47,0,0,0,57,36.91Z" fill="#fcd770"/>
        </g>
        <g id="Group_1112038" data-name="Group 1112038">
          <path id="Path_901261" data-name="Path 901261" d="M9,40V50a1,1,0,0,1-1,1H1V39H8A1,1,0,0,1,9,40Z" fill="#ff826e"/>
        </g>
        <g id="Group_1112039" data-name="Group 1112039">
          <path id="Path_901262" data-name="Path 901262" d="M26.6,39.04a2.008,2.008,0,0,0-1.01.55A1.955,1.955,0,0,0,25,41a2.006,2.006,0,0,0,2,2,2.015,2.015,0,0,0-2,2,2.006,2.006,0,0,0,2,2,2.015,2.015,0,0,0-2,2,2.006,2.006,0,0,0,2,2v4a2.006,2.006,0,0,1-2,2H23a2.006,2.006,0,0,1-2-2V42c1.66-2.14,1.85-2.56,2-3h3a2.88,2.88,0,0,0,.59-.06Z" fill="#969faa"/>
        </g>
        <g id="Group_1112040" data-name="Group 1112040">
          <path id="Path_901263" data-name="Path 901263" d="M29,39a2.006,2.006,0,0,1,2,2,2.015,2.015,0,0,1-2,2H27a2.006,2.006,0,0,1-2-2,1.955,1.955,0,0,1,.59-1.41,2.008,2.008,0,0,1,1.01-.55A1.752,1.752,0,0,1,27,39Z" fill="#f0d0b4"/>
        </g>
        <g id="Group_1112041" data-name="Group 1112041">
          <path id="Path_901264" data-name="Path 901264" d="M29,43a2.006,2.006,0,0,1,2,2,2.015,2.015,0,0,1-2,2H27a2.006,2.006,0,0,1-2-2,2.015,2.015,0,0,1,2-2Z" fill="#f0d0b4"/>
        </g>
        <g id="Group_1112042" data-name="Group 1112042">
          <path id="Path_901265" data-name="Path 901265" d="M27,51a2.006,2.006,0,0,1-2-2,2.015,2.015,0,0,1,2-2h2a2.006,2.006,0,0,1,2,2,2.015,2.015,0,0,1-2,2Z" fill="#f0d0b4"/>
        </g>
        <g id="Group_1112043" data-name="Group 1112043">
          <path id="Path_901266" data-name="Path 901266" d="M21,42V53H16.24A10.25,10.25,0,0,1,9,50V40a10.3,10.3,0,0,1,8.83-5H28a1,1,0,0,1,1,1,2.993,2.993,0,0,1-.88,2.12,2.94,2.94,0,0,1-1.53.82A2.88,2.88,0,0,1,26,39H23C22.85,39.44,22.66,39.86,21,42Z" fill="#f0d0b4"/>
        </g>
        <g id="Group_1112044" data-name="Group 1112044">
          <path id="Path_901267" data-name="Path 901267" d="M25,11.04a12,12,0,1,1-4,.34A11.858,11.858,0,0,1,24,11C24.34,11,24.67,11.01,25,11.04Z" fill="#aab2bd"/>
        </g>
        <g id="Group_1112045" data-name="Group 1112045">
          <circle id="Ellipse_11711" data-name="Ellipse 11711" cx="8" cy="8" r="8" transform="translate(16 15)" fill="#69d6f4"/>
        </g>
      </g>
      <g id="Group_1112047" data-name="Group 1112047">
        <path id="Path_901268" data-name="Path 901268" d="M33,23a9,9,0,1,0-9,9A9.011,9.011,0,0,0,33,23ZM17,23a7,7,0,1,1,7,7A7.008,7.008,0,0,1,17,23Z"/>
        <path id="Path_901269" data-name="Path 901269" d="M27.293,19.293,22,24.586l-1.293-1.293-1.414,1.414L22,27.414l6.707-6.707Z"/>
        <path id="Path_901270" data-name="Path 901270" d="M4,56H6v2H4Z"/>
        <path id="Path_901271" data-name="Path 901271" d="M8,56h2v2H8Z"/>
        <path id="Path_901272" data-name="Path 901272" d="M12,56h2v2H12Z"/>
        <path id="Path_901273" data-name="Path 901273" d="M2,3H16V5H2Z"/>
        <path id="Path_901274" data-name="Path 901274" d="M2,7H14V9H2Z"/>
        <path id="Path_901275" data-name="Path 901275" d="M2,11H12v2H2Z"/>
        <path id="Path_901276" data-name="Path 901276" d="M2,15H4v2H2Z"/>
        <path id="Path_901277" data-name="Path 901277" d="M6,15H8v2H6Z"/>
        <path id="Path_901278" data-name="Path 901278" d="M60,2H52a2,2,0,0,0-2-2H32a2,2,0,0,0-2,2H22a2,2,0,0,0-2,2v6.636a12.979,12.979,0,0,0-2.825,23.407A11.36,11.36,0,0,0,8.987,38.27,1.983,1.983,0,0,0,8,38H0V52H8a1.976,1.976,0,0,0,1.247-.449,11.147,11.147,0,0,0,7,2.449H20v6a2,2,0,0,0,2,2H60a2,2,0,0,0,2-2V4A2,2,0,0,0,60,2ZM8,50H2V40H8ZM56,36a5,5,0,0,1,0-10Zm-7-5a7.008,7.008,0,0,0,7,7v2a9,9,0,0,1,0-18v2A7.008,7.008,0,0,0,49,31Zm-4,0A11.013,11.013,0,0,0,56,42v4H53v-.049a3.2,3.2,0,0,0-5.45-2.259l-.035.035-4.243-4.243.044-.043A3.2,3.2,0,0,0,41.062,34H41V28h.049a3.2,3.2,0,0,0,2.259-5.45l-.035-.035,4.243-4.243.043.044A3.2,3.2,0,0,0,53,16.061V16h3v4A11.013,11.013,0,0,0,45,31ZM56,14H51v2.062a1.2,1.2,0,0,1-2.028.84l-1.458-1.458-7.071,7.071,1.449,1.449A1.2,1.2,0,0,1,41.049,26H39V36h2.062a1.175,1.175,0,0,1,1.092.768,1.157,1.157,0,0,1-.252,1.26l-1.458,1.458,7.071,7.071,1.449-1.449A1.2,1.2,0,0,1,51,45.951V48h5v8H27.816A2.966,2.966,0,0,0,28,55V52h1a2.987,2.987,0,0,0,2.22-5,2.954,2.954,0,0,0,0-4,2.976,2.976,0,0,0-1.8-4.958A3.953,3.953,0,0,0,30,36a1.98,1.98,0,0,0-.458-1.258A12.978,12.978,0,0,0,26,10.17V8H56ZM26,45a1,1,0,0,1,1-1h2a1,1,0,0,1,0,2H27A1,1,0,0,1,26,45Zm3-3H27a1,1,0,0,1,0-2h2a1,1,0,0,1,0,2Zm0,6a1,1,0,0,1,0,2H27a1,1,0,0,1,0-2ZM32,2H50V6H32ZM22,4h8V6H26a2,2,0,0,0-2,2v2a13.056,13.056,0,0,0-2,.17ZM13,23A11,11,0,1,1,24,34,11.013,11.013,0,0,1,13,23Zm3.243,29A9.172,9.172,0,0,1,10,49.559v-9.25A9.339,9.339,0,0,1,17.831,36H28a2,2,0,0,1-2,2H22.279l-.228.684a5.809,5.809,0,0,1-3.359,3.563l-2.064.826.743,1.856,2.063-.825c.193-.077.38-.167.565-.259V52ZM22,42.431A7.812,7.812,0,0,0,23.685,40h.5a2.908,2.908,0,0,0,.6,3,2.954,2.954,0,0,0,0,4A2.972,2.972,0,0,0,26,51.816V55a1,1,0,0,1-1,1H23a1,1,0,0,1-1-1ZM60,60H22V57.816A2.966,2.966,0,0,0,23,58H56a2,2,0,0,0,2-2V8a2,2,0,0,0-2-2H52V4h8Z"/>
        <path id="Path_901279" data-name="Path 901279" d="M36,52h2v2H36Z"/>
        <path id="Path_901280" data-name="Path 901280" d="M40,52h2v2H40Z"/>
        <path id="Path_901281" data-name="Path 901281" d="M44,52h2v2H44Z"/>
      </g>
    </g>
  </g>
</svg>
