<svg xmlns="http://www.w3.org/2000/svg" width="77" height="77" viewBox="0 0 77 77">
  <g id="Group_1111707" data-name="Group 1111707" transform="translate(-2445 1393)">
    <g id="Group_1111365" data-name="Group 1111365" transform="translate(1424.27 -4486)">
      <g id="Group_1098742" data-name="Group 1098742" transform="translate(1020.73 3093)">
        <rect id="Rectangle_400898" data-name="Rectangle 400898" width="77" height="77" rx="38.5" transform="translate(0 0)" fill="#ccda2d"/>
        <rect id="Rectangle_400907" data-name="Rectangle 400907" width="77" height="77" rx="38.5" transform="translate(0 0)" fill="none"/>
      </g>
    </g>
    <g id="la-contaminacion-del-agua" transform="translate(2460 -1379.208)">
      <path id="Path_900400" data-name="Path 900400" d="M28.071,40.047c2.683-1.422,11.432-5.5,18.133-2.457V55.817L1,55.832V40.506s4.375,2.187,13.124-1.458c4.542-1.888,9.879-.642,13.948,1Z" transform="translate(-0.271 -9.557)" fill="#0087ea"/>
      <path id="Path_900401" data-name="Path 900401" d="M46.2,47.59V58.527L1,58.541V50.506s4.375,2.187,13.124-1.458c4.542-1.888,9.879-.642,13.948,1C30.754,48.625,39.5,44.542,46.2,47.59Z" transform="translate(-0.271 -12.266)" fill="#006cea"/>
      <path id="Path_900402" data-name="Path 900402" d="M35.023,12.555v-1.4L39.274,6.9a.982.982,0,0,1,.7-.292h4.776a.982.982,0,0,0,.7-.292l1.108-1.1L50.75,9.412l-1.108,1.108a.97.97,0,0,0-.292.7v4.768a.97.97,0,0,1-.292.7L46.944,18.81a9.991,9.991,0,0,0-3.66-.627,10.121,10.121,0,0,0-6.263,1.939,1.445,1.445,0,0,1-1.866-.051,8.135,8.135,0,0,0-5.723-1.888,12.5,12.5,0,0,0-1.531.095l4.324-4.324h1.4Z" transform="translate(-7.558 -1.087)" fill="#f5f2ff"/>
      <path id="Path_900403" data-name="Path 900403" d="M52.92,12.7a16.843,16.843,0,0,1-2.905,6.594,9.652,9.652,0,0,1,2.92.595l2.114-2.122a.97.97,0,0,0,.292-.7V12.3a.97.97,0,0,1,.292-.7l1.108-1.108L55.453,9.2a16.728,16.728,0,0,0-2.532,3.5Z" transform="translate(-13.549 -2.166)" fill="#b3b3c6"/>
      <path id="Path_900404" data-name="Path 900404" d="M38.669,22.384a8.452,8.452,0,0,0-1.648.984,1.445,1.445,0,0,1-1.866-.051,8.135,8.135,0,0,0-5.723-1.888,12.5,12.5,0,0,0-1.531.095L32.224,17.2h1.261Z" transform="translate(-7.558 -4.332)" fill="#b3b3c6"/>
      <path id="Path_900405" data-name="Path 900405" d="M32.693,55.94l.736,2.931s-4.338.868-5.76-2.238v-.007c.248.044.51.087.787.117.321.036.663.066,1.013.087a4,4,0,0,0,1.677-.27Z" transform="translate(-7.496 -14.827)" fill="#fb8800"/>
      <path id="Path_900406" data-name="Path 900406" d="M33.588,43.981l.919,2.45a12.871,12.871,0,0,0-4-.911,12.638,12.638,0,0,0-2.494.241A5.78,5.78,0,0,1,33.588,43.981Z" transform="translate(-7.588 -11.552)" fill="#fb8800"/>
      <path id="Path_900407" data-name="Path 900407" d="M26.109,54.087c-.277-.029-.54-.073-.787-.117-4.848-.846-6.321-3.8-6.321-3.8a11.378,11.378,0,0,1,6.569-3.791,12.638,12.638,0,0,1,2.494-.241,12.871,12.871,0,0,1,4,.911,12.109,12.109,0,0,1,2.246,1.174h2.916l2.916-2.085s-1.006,5.038,0,7.05l-3.018-2.012-4.032,1.006-2.749,1.1L28.8,53.9a4,4,0,0,1-1.677.27c-.35-.022-.693-.051-1.013-.087Z" transform="translate(-5.147 -12.172)" fill="#fbb500"/>
      <path id="Path_900408" data-name="Path 900408" d="M46.2,25.9v8.035c-6.7-3.048-15.45,1.035-18.133,2.457-4.068-1.64-9.405-2.887-13.948-1C5.375,39.04,1,36.853,1,36.853V25.916a8.184,8.184,0,0,1,4.345-2.559A11.716,11.716,0,0,1,8.291,23a8.135,8.135,0,0,1,5.723,1.888,1.445,1.445,0,0,0,1.866.051c.109-.08.226-.168.357-.255a9.83,9.83,0,0,1,4.375-1.589A12.5,12.5,0,0,1,22.144,23a8.135,8.135,0,0,1,5.723,1.888,1.445,1.445,0,0,0,1.866.051A10.121,10.121,0,0,1,36,23a9.991,9.991,0,0,1,3.66.627,6.45,6.45,0,0,1,2.063,1.261,1.444,1.444,0,0,0,1.859.058c.1-.08.211-.153.328-.233A1.456,1.456,0,0,1,46.2,25.9Z" transform="translate(-0.271 -5.904)" fill="#00abea"/>
      <path id="Path_900409" data-name="Path 900409" d="M53.34,4.4l-.19-.19a.726.726,0,0,1,0-1.028l.554-.554a1.461,1.461,0,0,1,2.063,0L59.3,6.16a1.461,1.461,0,0,1,0,2.063l-.554.554a.726.726,0,0,1-1.028,0L57.533,8.6Z" transform="translate(-14.341 -0.27)" fill="#6fc500"/>
      <circle id="Ellipse_11664" data-name="Ellipse 11664" cx="0.729" cy="0.729" r="0.729" transform="translate(40.829 35.324)" fill="#00abea"/>
      <circle id="Ellipse_11665" data-name="Ellipse 11665" cx="1.094" cy="1.094" r="1.094" transform="translate(39.371 39.698)" fill="#00abea"/>
      <path id="Path_900410" data-name="Path 900410" d="M16.1,16.917l1.546,5.971c-.131.087-.248.175-.357.255a1.445,1.445,0,0,1-1.866-.051A8.135,8.135,0,0,0,9.7,21.2a11.716,11.716,0,0,0-2.946.357l-.54-2.093a.735.735,0,0,1,.525-.889l.707-.182L14.5,16.574l.707-.182a.741.741,0,0,1,.889.525Z" transform="translate(-1.676 -4.108)" fill="#6fc500"/>
      <path id="Path_900411" data-name="Path 900411" d="M6.528,21.26l.315,1.222a11.716,11.716,0,0,1,2.946-.357,8.135,8.135,0,0,1,5.723,1.888,1.445,1.445,0,0,0,1.866.051c.109-.08.226-.168.357-.255l-.829-3.2c-3.723-1.512-7.08-.783-10.379.653Z" transform="translate(-1.768 -5.028)" fill="#54b700"/>
      <path id="Path_900412" data-name="Path 900412" d="M14.459,14.516l.365,1.407L7.766,17.746,7.4,16.339a.726.726,0,0,1,.525-.889l2.822-.729,2.822-.729a.726.726,0,0,1,.889.525Z" transform="translate(-1.999 -3.457)" fill="#584f63"/>
      <circle id="Ellipse_11666" data-name="Ellipse 11666" cx="1.458" cy="1.458" r="1.458" transform="translate(5.104 34.595)" fill="#00abea"/>
      <circle id="Ellipse_11667" data-name="Ellipse 11667" cx="1.458" cy="1.458" r="1.458" transform="translate(3.594 40.478)" fill="#00abea"/>
      <path id="Path_900413" data-name="Path 900413" d="M42.774,10.724l-1.01,1.01a.539.539,0,0,0,.37.92l2.059.039a.539.539,0,0,0,.392-.92l-1.049-1.049A.539.539,0,0,0,42.774,10.724Z" transform="translate(-11.271 -2.536)" fill="#b3b3c6"/>
      <g id="Group_1111706" data-name="Group 1111706" transform="translate(0 1.207)">
        <path id="Path_900414" data-name="Path 900414" d="M29.187,34H27.729a.729.729,0,0,0,0,1.458h1.458a.729.729,0,1,0,0-1.458Z" transform="translate(-7.314 -10.091)" fill="#352727"/>
        <path id="Path_900415" data-name="Path 900415" d="M6.133,29.065c.017-.012,1.7-1.115,2.725-.091a2.883,2.883,0,0,0,2.068.886h.021a5.476,5.476,0,0,0,3.323-1.622.729.729,0,0,0-1.045-1.017A3.963,3.963,0,0,1,10.934,28.4a1.527,1.527,0,0,1-1.045-.459c-1.487-1.486-3.635-.711-4.566-.091a.729.729,0,1,0,.81,1.213Z" transform="translate(-1.354 -8.195)" fill="#352727"/>
        <path id="Path_900416" data-name="Path 900416" d="M45.134,28.1c.017-.012,1.7-1.115,2.725-.091a2.86,2.86,0,0,0,2.068.881,4.271,4.271,0,0,0,2.316-.787.729.729,0,1,0-.8-1.219c-1.6,1.05-2.316.33-2.553.094-1.487-1.486-3.636-.71-4.566-.091a.729.729,0,1,0,.809,1.213Z" transform="translate(-11.92 -7.957)" fill="#352727"/>
        <path id="Path_900417" data-name="Path 900417" d="M13.324,32.852a.729.729,0,0,0,.809,1.213c.017-.012,1.7-1.115,2.725-.091a2.883,2.883,0,0,0,2.068.886h.021a5.476,5.476,0,0,0,3.323-1.622.729.729,0,0,0-1.045-1.017A3.963,3.963,0,0,1,18.934,33.4h-.007a1.42,1.42,0,0,1-1.038-.459C16.4,31.456,14.254,32.232,13.324,32.852Z" transform="translate(-3.522 -9.55)" fill="#352727"/>
        <path id="Path_900418" data-name="Path 900418" d="M51.124,31.756a1.42,1.42,0,0,1-1.038-.459c-1.486-1.487-3.636-.71-4.566-.091a.729.729,0,0,0,.809,1.213c.017-.012,1.7-1.114,2.725-.091a2.883,2.883,0,0,0,2.069.886h.021a5.473,5.473,0,0,0,3.322-1.622.729.729,0,0,0-1.045-1.017,3.963,3.963,0,0,1-2.292,1.181Z" transform="translate(-12.244 -9.104)" fill="#352727"/>
        <path id="Path_900419" data-name="Path 900419" d="M32.213,31.974a2.883,2.883,0,0,0,2.068.886H34.3a5.476,5.476,0,0,0,3.323-1.622.729.729,0,0,0-1.045-1.017A3.963,3.963,0,0,1,34.288,31.4a1.421,1.421,0,0,1-1.045-.459.729.729,0,1,0-1.03,1.031Z" transform="translate(-8.669 -9.008)" fill="#352727"/>
        <path id="Path_900420" data-name="Path 900420" d="M27.282,28.86H27.3a5.476,5.476,0,0,0,3.323-1.622.729.729,0,0,0-1.045-1.017A3.963,3.963,0,0,1,27.288,27.4h-.007a1.42,1.42,0,0,1-1.038-.459.729.729,0,0,0-1.031,1.031,2.886,2.886,0,0,0,2.069.886Z" transform="translate(-6.772 -7.924)" fill="#352727"/>
        <path id="Path_900421" data-name="Path 900421" d="M45.492,18.066a2.195,2.195,0,0,0-2.273.141c-.128.088-.246.175-.354.258a.716.716,0,0,1-.923-.015,7.031,7.031,0,0,0-1.315-.938l1.379-1.385a1.708,1.708,0,0,0,.515-1.226V10.133a.25.25,0,0,1,.077-.184l.654-.654a1.437,1.437,0,0,0,1.667-.273l.55-.55a2.189,2.189,0,0,0,0-3.093l-3.53-3.53a2.189,2.189,0,0,0-3.093,0l-.55.55a1.454,1.454,0,0,0-.272,1.67l-.65.65a.254.254,0,0,1-.184.077H32.416A1.706,1.706,0,0,0,31.2,5.3L26.95,9.551a.727.727,0,0,0-.214.515v1.1l-.973.974h-1.1a.726.726,0,0,0-.515.214L19.992,16.51a10.315,10.315,0,0,0-4.823,1.947.721.721,0,0,1-.933-.007A8.825,8.825,0,0,0,8.02,16.367a12.743,12.743,0,0,0-2.413.228l-.365-1.418,8.474-2.185L14.6,16.4a.729.729,0,0,0,1.412-.366l-.883-3.412a1.47,1.47,0,0,0-1.778-1.044h0l-.182-.7A1.46,1.46,0,0,0,11.39,9.828L5.743,11.285A1.457,1.457,0,0,0,4.7,13.062l.182.7h0a1.458,1.458,0,0,0-.887.671,1.439,1.439,0,0,0-.159,1.106l.365,1.417A8.641,8.641,0,0,0,.146,19.575.727.727,0,0,0,0,20.013V46.275A.729.729,0,0,0,.729,47l45.2-.015a.729.729,0,0,0,.729-.729V20a2.177,2.177,0,0,0-1.17-1.934ZM6.108,12.7l5.648-1.458.182.7L6.289,13.4ZM39.879,2.879a.728.728,0,0,1,1.031,0l3.53,3.53a.73.73,0,0,1,0,1.031l-.55.55L39.328,3.429ZM24.967,13.6h.8l1.883,1.883a.729.729,0,0,0,1.031-1.031L27.1,12.868l.367-.367,3.513,3.513a.729.729,0,1,0,1.031-1.031L28.194,11.17v-.8l4.038-4.038a.252.252,0,0,1,.184-.077h4.776a1.708,1.708,0,0,0,1.215-.5L39,5.16l3.165,3.165-.584.584a1.706,1.706,0,0,0-.515,1.226v3.419L36.716,9.206a.729.729,0,0,0-1.031,1.031l5.075,5.075-1.57,1.576a10.922,10.922,0,0,0-3.464-.521,10.8,10.8,0,0,0-6.7,2.09.721.721,0,0,1-.933-.007,8.723,8.723,0,0,0-5.906-2.069ZM8.02,17.825a7.414,7.414,0,0,1,5.227,1.7,2.177,2.177,0,0,0,2.81.093,9.35,9.35,0,0,1,5.816-1.789,7.414,7.414,0,0,1,5.227,1.7,2.177,2.177,0,0,0,2.81.093,9.35,9.35,0,0,1,5.816-1.789,7.414,7.414,0,0,1,5.228,1.7,2.171,2.171,0,0,0,2.8.1c.091-.071.19-.141.294-.214a.73.73,0,0,1,.767-.048A.708.708,0,0,1,45.2,20v6.963c-6.631-2.3-14.633,1.276-17.448,2.73-4.2-1.648-9.55-2.806-14.184-.876C6.74,31.664,2.687,30.83,1.458,30.442V20.28A8.72,8.72,0,0,1,8.02,17.825ZM1.458,45.546V31.963a12.6,12.6,0,0,0,3.174.368,24.844,24.844,0,0,0,9.5-2.168c4.915-2.047,10.873-.2,15.006,1.7a.729.729,0,0,0,.611-1.324l-.215-.1c3.374-1.587,10.2-4.114,15.669-1.912v17Z" transform="translate(0 -1.207)" fill="#352727"/>
        <path id="Path_900422" data-name="Path 900422" d="M42.672,44.167q.467.25.864.478a.729.729,0,1,0,.722-1.267c-.273-.155-.572-.322-.9-.5a.729.729,0,0,0-.69,1.285Z" transform="translate(-11.456 -12.474)" fill="#352727"/>
        <path id="Path_900423" data-name="Path 900423" d="M19.339,43.852a.729.729,0,0,0-.918-.47,18.57,18.57,0,0,0-3.046,1.261.729.729,0,0,0,.707,1.276,17.557,17.557,0,0,1,2.787-1.149.729.729,0,0,0,.47-.918Z" transform="translate(-4.064 -12.623)" fill="#352727"/>
        <path id="Path_900424" data-name="Path 900424" d="M57.945,43.009a.729.729,0,1,0-.432,1.393,4.068,4.068,0,0,1,1.237.634.729.729,0,1,0,.875-1.166A5.487,5.487,0,0,0,57.945,43.009Z" transform="translate(-15.442 -12.523)" fill="#352727"/>
        <path id="Path_900425" data-name="Path 900425" d="M53.629,41.451a.725.725,0,0,0-.866-.56,8.625,8.625,0,0,0-2.41.908.729.729,0,0,0,.749,1.25,7.272,7.272,0,0,1,1.966-.733.727.727,0,0,0,.561-.865Z" transform="translate(-13.545 -11.953)" fill="#352727"/>
        <path id="Path_900426" data-name="Path 900426" d="M46.687,10.952a.729.729,0,0,0,1.031-1.031l-.7-.7a.729.729,0,0,0-1.031,1.031Z" transform="translate(-12.4 -3.321)" fill="#352727"/>
        <path id="Path_900427" data-name="Path 900427" d="M54.1,10.692a.729.729,0,1,0,1.031-1.031l-1.4-1.4A.729.729,0,0,0,52.7,9.293Z" transform="translate(-14.218 -3.061)" fill="#352727"/>
        <path id="Path_900428" data-name="Path 900428" d="M40.271,44.639a.731.731,0,0,0-.819.018L36.722,46.6H34.256a12.9,12.9,0,0,0-1.89-.994l-.809-2.157a.729.729,0,0,0-.54-.459,6.484,6.484,0,0,0-6.108,1.839,12.044,12.044,0,0,0-6.769,4.009.728.728,0,0,0-.069.763c.072.145,1.634,3.149,6.492,4.127a5.334,5.334,0,0,0,4.893,2.433,8.234,8.234,0,0,0,1.5-.128.729.729,0,0,0,.564-.892l-.58-2.311,2.112-.845,3.667-.918,2.753,1.836a.729.729,0,0,0,1.056-.933c-.733-1.466-.2-5.247.063-6.58a.728.728,0,0,0-.319-.755Zm-9.932-.28.235.626a13.319,13.319,0,0,0-2.487-.446A5.136,5.136,0,0,1,30.339,44.359ZM29.9,54.693a5.291,5.291,0,0,1-3.119-.684l.029,0c.085,0,.169.007.254.007A4.7,4.7,0,0,0,28.8,53.69l.771-.308Zm8.844-4.022-1.487-.991a.728.728,0,0,0-.581-.1l-4.028,1.008a.706.706,0,0,0-.094.03l-4.3,1.718a3.183,3.183,0,0,1-1.368.22,13.556,13.556,0,0,0,.586-3.764.729.729,0,0,0-.728-.729h0a.729.729,0,0,0-.729.728A11.683,11.683,0,0,1,25.4,52.4a8.519,8.519,0,0,1-5.769-3.054,11.063,11.063,0,0,1,8.144-3.363,12.353,12.353,0,0,1,5.862,1.96.738.738,0,0,0,.4.122h2.916a.727.727,0,0,0,.423-.136l1.5-1.072a18.589,18.589,0,0,0-.137,3.816Z" transform="translate(-4.875 -12.487)" fill="#352727"/>
        <path id="Path_900429" data-name="Path 900429" d="M25.6,49.834a.728.728,0,0,0-1.031,0l-.25.25-.25-.25a.729.729,0,0,0-1.031,1.031l.25.25-.25.25A.729.729,0,1,0,24.064,52.4l.25-.25.25.25A.729.729,0,1,0,25.6,51.365l-.25-.25.25-.25a.728.728,0,0,0,0-1.031Z" transform="translate(-6.182 -14.323)" fill="#352727"/>
        <path id="Path_900430" data-name="Path 900430" d="M54.823,53a1.823,1.823,0,1,0,1.823,1.823A1.824,1.824,0,0,0,54.823,53Zm0,2.187a.365.365,0,1,1,.365-.365A.366.366,0,0,1,54.823,55.187Z" transform="translate(-14.358 -15.238)" fill="#352727"/>
        <circle id="Ellipse_11668" data-name="Ellipse 11668" cx="0.729" cy="0.729" r="0.729" transform="translate(40.829 34.116)" fill="#352727"/>
        <path id="Path_900431" data-name="Path 900431" d="M8.187,46a.729.729,0,0,0,0,1.458.729.729,0,1,1-.729.729.729.729,0,0,0-1.458,0A2.187,2.187,0,1,0,8.187,46Z" transform="translate(-1.625 -13.342)" fill="#352727"/>
        <path id="Path_900432" data-name="Path 900432" d="M6.121,54.066a.729.729,0,0,0,0,1.458.729.729,0,1,1-.729.729.729.729,0,1,0-1.458,0,2.187,2.187,0,1,0,2.187-2.187Z" transform="translate(-1.066 -15.527)" fill="#352727"/>
      </g>
    </g>
  </g>
</svg>
