<svg xmlns="http://www.w3.org/2000/svg" width="77" height="77" viewBox="0 0 77 77">
  <g id="Group_1111633" data-name="Group 1111633" transform="translate(-2803.731 2331.218)">
    <g id="Group_1111357" data-name="Group 1111357" transform="translate(1783.001 -5424.218)">
      <g id="Group_1098742" data-name="Group 1098742" transform="translate(1020.73 3093)">
        <rect id="Rectangle_400898" data-name="Rectangle 400898" width="77" height="77" rx="38.5" transform="translate(0 0)" fill="#ccda2d"/>
        <rect id="Rectangle_400907" data-name="Rectangle 400907" width="77" height="77" rx="38.5" transform="translate(0 0)" fill="none"/>
      </g>
    </g>
    <g id="compostaje_1_" data-name="compostaje (1)" transform="translate(2794.819 -2339.46)">
      <path id="Path_900326" data-name="Path 900326" d="M87.472,42.823a4.438,4.438,0,0,1-4.438,4.427H66.844a5.544,5.544,0,1,1,0-11.089,5.132,5.132,0,0,1,1.046.111,4.559,4.559,0,0,1-.07-.745,4.427,4.427,0,0,1,8.855,0,4.417,4.417,0,0,1,4.3,3.4,4.367,4.367,0,0,1,2.063-.533,4.438,4.438,0,0,1,4.438,4.427Z" transform="translate(-33.48 -7.038)" fill="#bf6c39"/>
      <path id="Path_900327" data-name="Path 900327" d="M217.472,55.223a4.427,4.427,0,0,1-4.438,4.427h-16.19a5.544,5.544,0,1,1,0-11.089,5.051,5.051,0,0,1,1.046.111,4.558,4.558,0,0,1-.07-.745,4.427,4.427,0,1,1,8.855,0,4.417,4.417,0,0,1,4.3,3.391,4.478,4.478,0,0,1,2.063-.523,4.427,4.427,0,0,1,4.438,4.427Z" transform="translate(-150.399 -18.19)" fill="#ff904c"/>
      <path id="Path_900328" data-name="Path 900328" d="M89.86,215.5H48V189.3H89.86Z" transform="translate(-21.518 -149.319)" fill="#009245"/>
      <path id="Path_900329" data-name="Path 900329" d="M75.47,189.942H33.61a1.61,1.61,0,1,1,0-3.22H75.47a1.61,1.61,0,1,1,0,3.22Zm1.61-31.032a1.61,1.61,0,0,0-1.61-1.61H33.61a1.61,1.61,0,1,0,0,3.22H75.47a1.61,1.61,0,0,0,1.61-1.61Zm-22.54,5.454a9.257,9.257,0,1,0,9.257,9.257A9.257,9.257,0,0,0,54.54,164.364Zm.08,11.9s-3.049.413-4.679-1.218-1.218-4.679-1.218-4.679,3.049-.413,4.679,1.218S54.62,176.268,54.62,176.268Zm3.834-2.173c-1.3,1.3-3.733.966-3.733.966s-.332-2.425.966-3.723,3.733-.976,3.733-.976S59.752,172.8,58.454,174.094Z" transform="translate(-7.128 -120.539)" fill="#0cc0df"/>
      <path id="Path_900330" data-name="Path 900330" d="M69.147,40.645a2.415,2.415,0,0,0-.8-4.689h-.6a5.212,5.212,0,0,0-5.092-4.166,5.061,5.061,0,0,0-1.59.262,5.212,5.212,0,0,0-4.025-3.079,5.212,5.212,0,0,0-10.334.07,5.222,5.222,0,0,0-2.757-1.308,5.232,5.232,0,0,0-10.4.594,6.341,6.341,0,0,0-6.52,6.339,6.732,6.732,0,0,0,.131,1.288h-.664a2.415,2.415,0,0,0-.8,4.689V65.519a2.415,2.415,0,0,0,.8,4.689h41.86a2.415,2.415,0,0,0,.8-4.689ZM27.287,65.378V60.82h13.7a10.012,10.012,0,0,0,6.42,2.324h.111a9.972,9.972,0,0,0,6.309-2.314h13.7v4.558Zm40.25-24.592V44.68H52.946a10.052,10.052,0,0,0-11.069,0H27.287V40.786ZM43.377,53.947A4.832,4.832,0,0,1,42.35,50.6,4.782,4.782,0,0,1,45.7,51.623a4.783,4.783,0,0,1,1.026,3.351A4.832,4.832,0,0,1,43.377,53.947ZM48.3,55.769c.01-.06.02-.2.03-.4a5.187,5.187,0,0,0,3.562-1.238c1.56-1.57,1.218-4.3,1.2-4.407l-.081-.614-.6-.08c-.121-.02-2.848-.362-4.407,1.2a3.431,3.431,0,0,0-.634.906,5.232,5.232,0,0,0-.523-.644c-1.882-1.892-5.212-1.469-5.353-1.449l-.6.08-.091.614c-.01.141-.433,3.461,1.449,5.353a6.291,6.291,0,0,0,4.4,1.5h.05v4.87a8.424,8.424,0,1,1,1.61-.01Zm.06-2.012a3.586,3.586,0,0,1,.775-2.395,3.576,3.576,0,0,1,2.395-.765,3.55,3.55,0,0,1-.775,2.385A3.48,3.48,0,0,1,48.358,53.756ZM38.013,49.53H27.287V46.29H40.006a10.032,10.032,0,0,0-1.992,3.24Zm-.473,1.61a10.254,10.254,0,0,0-.191,1.942,10.758,10.758,0,0,0,.091,1.278H27.287V51.14Zm.242,4.83a9.921,9.921,0,0,0,1.67,3.24H27.287V55.97Zm17.036-9.68H67.537v3.24H56.81a10.032,10.032,0,0,0-1.992-3.24Zm2.224,9.68h10.5v3.24H55.371A9.921,9.921,0,0,0,57.041,55.97Zm.342-1.61a10.755,10.755,0,0,0,.091-1.278,10.253,10.253,0,0,0-.191-1.942H67.537v3.22Zm-9.1-23.979c-.02-.211-.05-.433-.05-.654a3.622,3.622,0,1,1,7.245,0v.8h.8a3.612,3.612,0,0,1,3.512,2.8l.241,1.026.936-.513a3.461,3.461,0,0,1,1.67-.443,3.6,3.6,0,0,1,3.441,2.556H41.716v-.05a4.739,4.739,0,0,1,4.729-4.729h.312a5.423,5.423,0,0,1,.563.08l1.117.241ZM28.625,34.668a4.749,4.749,0,0,1,4.749-4.729,5.293,5.293,0,0,1,.9.081l1.177.221-.241-1.167a2.8,2.8,0,0,1-.06-.584,3.622,3.622,0,1,1,7.245,0v.8h.8a3.643,3.643,0,0,1,1.761.463,6.339,6.339,0,0,0-4.85,6.148v.05H28.827A4.538,4.538,0,0,1,28.625,34.668Zm-2.143,2.9h41.86a.805.805,0,0,1,.01,1.61H26.472a.805.805,0,0,1,.01-1.61ZM68.342,68.6H26.482a.8.8,0,1,1,0-1.61h41.86a.8.8,0,0,1,0,1.61Z" transform="translate(0 0)"/>
    </g>
  </g>
</svg>
