<svg xmlns="http://www.w3.org/2000/svg" width="77" height="77" viewBox="0 0 77 77">
  <g id="Group_1111705" data-name="Group 1111705" transform="translate(-1078.051 -10215)">
    <g id="Group_1111364" data-name="Group 1111364" transform="translate(57.321 7122)">
      <g id="Group_1098742" data-name="Group 1098742" transform="translate(1020.73 3093)">
        <rect id="Rectangle_400898" data-name="Rectangle 400898" width="77" height="77" rx="38.5" transform="translate(0 0)" fill="#ccda2d"/>
        <rect id="Rectangle_400907" data-name="Rectangle 400907" width="77" height="77" rx="38.5" transform="translate(0 0)" fill="none"/>
      </g>
    </g>
    <g id="deposito-de-agua" transform="translate(1093.051 10229)">
      <g id="Group_1111665" data-name="Group 1111665" transform="translate(0.696 0.696)">
        <g id="Group_1111655" data-name="Group 1111655">
          <g id="Group_1111651" data-name="Group 1111651" transform="translate(1.134 1.953)">
            <path id="Path_900355" data-name="Path 900355" d="M38.152,53.217l-8.22,8.635h-1.66l-8.207-8.635a1.76,1.76,0,0,1-.349-1.052V28.533H38.5V52.164a1.761,1.761,0,0,1-.349,1.053Z" transform="translate(-19.716 -28.533)" fill="#e8f4ff"/>
          </g>
          <path id="Path_900356" data-name="Path 900356" d="M108.369,28.533V52.164a1.761,1.761,0,0,1-.349,1.052l-7.193,7.555,1.026,1.079h1.66l8.22-8.635a1.76,1.76,0,0,0,.349-1.052V28.533Z" transform="translate(-92.163 -26.58)" fill="#dceaf7"/>
          <ellipse id="Ellipse_11662" data-name="Ellipse 11662" cx="9.393" cy="1.953" rx="9.393" ry="1.953" transform="translate(1.134)" fill="#bed0e0"/>
          <g id="Group_1111654" data-name="Group 1111654" transform="translate(0 22.073)">
            <g id="Group_1111652" data-name="Group 1111652" transform="translate(1.134 1.351)">
              <path id="Path_900357" data-name="Path 900357" d="M29.108,261.763c-5.188,0-9.393-.874-9.393-1.953v2.982a1.761,1.761,0,0,0,.414,1.134l6.727,7.984a1.765,1.765,0,0,0,1.35.628h1.8a1.765,1.765,0,0,0,1.35-.628l6.727-7.984a1.76,1.76,0,0,0,.414-1.134V259.81C38.5,260.888,34.3,261.763,29.108,261.763Z" transform="translate(-19.715 -259.81)" fill="#365dca"/>
            </g>
            <g id="Group_1111653" data-name="Group 1111653" transform="translate(8.67 1.351)">
              <path id="Path_900358" data-name="Path 900358" d="M108.426,261.365v1.427a1.761,1.761,0,0,1-.414,1.134l-6.727,7.984a1.763,1.763,0,0,1-.394.346,1.765,1.765,0,0,0,.955.282h1.8a1.765,1.765,0,0,0,1.35-.628l6.727-7.984a1.76,1.76,0,0,0,.414-1.134V259.81C112.139,260.445,110.682,261.009,108.426,261.365Z" transform="translate(-100.89 -259.81)" fill="#284eb8"/>
            </g>
            <path id="Path_900359" data-name="Path 900359" d="M7.5,248.079c0,1.209,4.713,2.188,10.527,2.188s10.527-.98,10.527-2.188v-2.4a.424.424,0,0,0-.639-.364c-1.476.838-5.346,1.436-9.888,1.436s-8.412-.6-9.888-1.436a.424.424,0,0,0-.639.364v2.4Z" transform="translate(-7.5 -245.259)" fill="#66a8ff"/>
          </g>
        </g>
        <g id="Group_1111662" data-name="Group 1111662" transform="translate(25.087)">
          <g id="Group_1111656" data-name="Group 1111656" transform="translate(1.134 1.953)">
            <path id="Path_900360" data-name="Path 900360" d="M290.286,53.217l8.22,8.635h1.66l8.207-8.635a1.761,1.761,0,0,0,.349-1.052V28.533H289.937V52.164a1.761,1.761,0,0,0,.349,1.053Z" transform="translate(-289.937 -28.533)" fill="#e8f4ff"/>
          </g>
          <path id="Path_900361" data-name="Path 900361" d="M378.7,28.533V52.164a1.761,1.761,0,0,1-.349,1.052l-7.181,7.555,1.028,1.079h1.66l8.207-8.635a1.76,1.76,0,0,0,.349-1.052V28.533Z" transform="translate(-362.498 -26.58)" fill="#dceaf7"/>
          <ellipse id="Ellipse_11663" data-name="Ellipse 11663" cx="9.393" cy="1.953" rx="9.393" ry="1.953" transform="translate(1.134)" fill="#bed0e0"/>
          <g id="Group_1111657" data-name="Group 1111657" transform="translate(1.83 8.765)">
            <path id="Path_900362" data-name="Path 900362" d="M297.438,101.914h0Z" transform="translate(-297.438 -101.914)" fill="#bed0e0"/>
          </g>
          <g id="Group_1111658" data-name="Group 1111658" transform="translate(1.83 15.654)">
            <path id="Path_900363" data-name="Path 900363" d="M297.438,176.12h0Z" transform="translate(-297.438 -176.12)" fill="#bed0e0"/>
          </g>
          <g id="Group_1111661" data-name="Group 1111661" transform="translate(0 22.073)">
            <g id="Group_1111659" data-name="Group 1111659" transform="translate(1.134 1.351)">
              <path id="Path_900364" data-name="Path 900364" d="M299.332,261.763c5.188,0,9.393-.874,9.393-1.953v2.982a1.761,1.761,0,0,1-.414,1.134l-6.727,7.984a1.765,1.765,0,0,1-1.35.628h-1.8a1.765,1.765,0,0,1-1.35-.628l-6.727-7.984a1.76,1.76,0,0,1-.414-1.134V259.81C289.939,260.888,294.144,261.763,299.332,261.763Z" transform="translate(-289.939 -259.81)" fill="#365dca"/>
            </g>
            <g id="Group_1111660" data-name="Group 1111660" transform="translate(1.134 1.351)">
              <path id="Path_900365" data-name="Path 900365" d="M295.616,261.763c.636,0,1.256-.013,1.857-.038-4.3-.179-7.536-.968-7.536-1.914v1.555A37.441,37.441,0,0,0,295.616,261.763Z" transform="translate(-289.937 -259.81)" fill="#284eb8"/>
              <path id="Path_900366" data-name="Path 900366" d="M378.648,261.365v1.427a1.761,1.761,0,0,1-.414,1.134l-6.727,7.984a1.763,1.763,0,0,1-.394.346,1.765,1.765,0,0,0,.956.281h1.8a1.765,1.765,0,0,0,1.35-.628l6.727-7.984a1.76,1.76,0,0,0,.414-1.134V259.81C382.361,260.445,380.9,261.009,378.648,261.365Z" transform="translate(-363.576 -259.81)" fill="#284eb8"/>
            </g>
            <path id="Path_900367" data-name="Path 900367" d="M298.776,248.079c0,1.209-4.713,2.188-10.527,2.188s-10.527-.98-10.527-2.188v-2.4a.424.424,0,0,1,.639-.364c1.476.838,5.346,1.436,9.888,1.436s8.412-.6,9.888-1.436a.424.424,0,0,1,.639.364Z" transform="translate(-277.722 -245.259)" fill="#66a8ff"/>
          </g>
        </g>
        <g id="Group_1111663" data-name="Group 1111663" transform="translate(8.67 22.073)">
          <path id="Path_900368" data-name="Path 900368" d="M112.634,245.317a10.431,10.431,0,0,1-3.075.915v1.847c0,1.077-3.742,1.972-8.67,2.154.6.022,1.223.034,1.857.034,5.814,0,10.527-.98,10.527-2.188v-2.4A.424.424,0,0,0,112.634,245.317Z" transform="translate(-100.889 -245.259)" fill="#4d99ff"/>
        </g>
        <g id="Group_1111664" data-name="Group 1111664" transform="translate(33.757 22.073)">
          <path id="Path_900369" data-name="Path 900369" d="M382.856,245.317a10.431,10.431,0,0,1-3.075.915v1.847c0,1.077-3.742,1.972-8.67,2.154.6.022,1.223.034,1.857.034,5.814,0,10.527-.98,10.527-2.188v-2.4A.424.424,0,0,0,382.856,245.317Z" transform="translate(-371.111 -245.259)" fill="#4d99ff"/>
        </g>
      </g>
      <g id="Group_1111704" data-name="Group 1111704" transform="translate(0 0)">
        <g id="Group_1111684" data-name="Group 1111684" transform="translate(0 0)">
          <g id="Group_1111668" data-name="Group 1111668" transform="translate(1.134 1.953)">
            <g id="Group_1111666" data-name="Group 1111666">
              <path id="Path_900370" data-name="Path 900370" d="M12.911,42.808a.7.7,0,0,1-.7-.7V21.729a.7.7,0,1,1,1.393,0V42.111a.7.7,0,0,1-.7.7Z" transform="translate(-12.215 -21.033)" fill="#060606"/>
            </g>
            <g id="Group_1111667" data-name="Group 1111667" transform="translate(18.786)">
              <path id="Path_900371" data-name="Path 900371" d="M215.259,42.808a.7.7,0,0,1-.7-.7V21.729a.7.7,0,1,1,1.393,0V42.111a.7.7,0,0,1-.7.7Z" transform="translate(-214.563 -21.033)" fill="#060606"/>
            </g>
          </g>
          <g id="Group_1111669" data-name="Group 1111669" transform="translate(1.134)">
            <path id="Path_900372" data-name="Path 900372" d="M22.3,5.3a34.986,34.986,0,0,1-6.783-.586c-2.255-.469-3.306-1.124-3.306-2.062,0-1.125,1.554-1.64,2.723-1.93a.7.7,0,1,1,.335,1.352,5.058,5.058,0,0,0-1.556.58,7.4,7.4,0,0,0,2.528.783,35.381,35.381,0,0,0,6.06.472,35.381,35.381,0,0,0,6.06-.472,7.382,7.382,0,0,0,2.529-.785,7.385,7.385,0,0,0-2.529-.785,35.4,35.4,0,0,0-6.06-.472c-1.23,0-2.424.049-3.549.147a.7.7,0,1,1-.12-1.387C19.8.051,21.036,0,22.3,0a34.986,34.986,0,0,1,6.783.586c2.255.469,3.306,1.124,3.306,2.062s-1.05,1.594-3.306,2.062A34.979,34.979,0,0,1,22.3,5.3Z" transform="translate(-12.216 0)"/>
          </g>
          <g id="Group_1111670" data-name="Group 1111670" transform="translate(1.134 8.766)">
            <path id="Path_900373" data-name="Path 900373" d="M22.3,97.764a34.986,34.986,0,0,1-6.783-.586c-2.255-.469-3.306-1.124-3.306-2.062a.7.7,0,0,1,1.387-.089,5.959,5.959,0,0,0,2.642.874,35.38,35.38,0,0,0,6.06.472c1.023,0,2.028-.035,2.986-.1a.7.7,0,1,1,.1,1.389c-.991.07-2.029.106-3.085.106Z" transform="translate(-12.216 -94.419)"/>
          </g>
          <g id="Group_1111671" data-name="Group 1111671" transform="translate(17.407 8.766)">
            <path id="Path_900374" data-name="Path 900374" d="M188.2,97.141a.7.7,0,0,1-.151-1.376,4.392,4.392,0,0,0,1.974-.742.7.7,0,0,1,1.387.092c0,.9-.971,1.543-3.057,2.009A.7.7,0,0,1,188.2,97.141Zm1.817-2.026h0Z" transform="translate(-187.501 -94.419)"/>
          </g>
          <g id="Group_1111672" data-name="Group 1111672" transform="translate(1.134 15.654)">
            <path id="Path_900375" data-name="Path 900375" d="M18.231,171.772a.688.688,0,0,1-.07,0,20.04,20.04,0,0,1-3.984-.738c-.485-.157-1.96-.636-1.96-1.715a.7.7,0,0,1,1.387-.089c.211.223,1.409.827,4.7,1.156a.7.7,0,0,1-.069,1.389Zm-4.623-2.457h0Z" transform="translate(-12.216 -168.619)"/>
          </g>
          <g id="Group_1111673" data-name="Group 1111673" transform="translate(10.527 15.654)">
            <path id="Path_900376" data-name="Path 900376" d="M114.085,171.964a.7.7,0,0,1,0-1.393,35.379,35.379,0,0,0,6.06-.472,5.959,5.959,0,0,0,2.642-.874.7.7,0,0,1,1.387.089c0,.938-1.05,1.594-3.306,2.063A34.978,34.978,0,0,1,114.085,171.964Z" transform="translate(-113.389 -168.619)"/>
          </g>
          <g id="Group_1111677" data-name="Group 1111677" transform="translate(0 22.074)">
            <g id="Group_1111675" data-name="Group 1111675" transform="translate(1.134 4.332)">
              <g id="Group_1111674" data-name="Group 1111674">
                <path id="Path_900377" data-name="Path 900377" d="M23.206,295.571H21.4a2.456,2.456,0,0,1-1.882-.875l-6.727-7.984a2.46,2.46,0,0,1-.578-1.583.7.7,0,0,1,1.393,0,1.065,1.065,0,0,0,.251.686l6.727,7.984a1.067,1.067,0,0,0,.817.38h1.8a1.066,1.066,0,0,0,.817-.38l6.727-7.984a1.066,1.066,0,0,0,.251-.686.7.7,0,0,1,1.393,0,2.46,2.46,0,0,1-.578,1.583L25.089,294.7a2.456,2.456,0,0,1-1.882.875Z" transform="translate(-12.216 -284.433)"/>
              </g>
            </g>
            <g id="Group_1111676" data-name="Group 1111676">
              <path id="Path_900378" data-name="Path 900378" d="M11.223,244.171a39.122,39.122,0,0,1-7.585-.656C1.156,243,0,242.291,0,241.286v-2.4a1.105,1.105,0,0,1,.554-.965,1.132,1.132,0,0,1,1.125,0c1.628.924,6.089,1.345,9.544,1.345s7.916-.421,9.544-1.345a1.132,1.132,0,0,1,1.125,0,1.105,1.105,0,0,1,.554.965v2.4c0,1-1.156,1.713-3.638,2.229a39.114,39.114,0,0,1-7.585.656Zm-9.831-2.945c.144.173.886.626,2.956,1.01a39.48,39.48,0,0,0,6.874.542,39.481,39.481,0,0,0,6.874-.542c2.07-.384,2.812-.836,2.956-1.01v-1.9c-1.83.812-5.588,1.326-9.831,1.326s-8-.514-9.831-1.326Z" transform="translate(0 -237.771)"/>
            </g>
          </g>
          <g id="Group_1111678" data-name="Group 1111678" transform="translate(4.67 26.752)">
            <path id="Path_900379" data-name="Path 900379" d="M51,308.937a.7.7,0,0,1-.7-.7V288.852a.7.7,0,1,1,1.393,0v19.389A.7.7,0,0,1,51,308.937Z" transform="translate(-50.307 -288.156)"/>
          </g>
          <g id="Group_1111679" data-name="Group 1111679" transform="translate(0 23.965)">
            <path id="Path_900380" data-name="Path 900380" d="M.7,281.7a.7.7,0,0,1-.7-.7V258.83a.7.7,0,1,1,1.393,0v22.176A.7.7,0,0,1,.7,281.7Z" transform="translate(0 -258.134)"/>
          </g>
          <g id="Group_1111680" data-name="Group 1111680" transform="translate(0 40.404)">
            <path id="Path_900381" data-name="Path 900381" d="M5.181,436.607H.7a.7.7,0,0,1,0-1.393H5.181a.7.7,0,0,1,0,1.393Z" transform="translate(0 -435.214)"/>
          </g>
          <g id="Group_1111681" data-name="Group 1111681" transform="translate(16.383 26.752)">
            <path id="Path_900382" data-name="Path 900382" d="M177.167,308.937a.7.7,0,0,1-.7-.7V288.852a.7.7,0,0,1,1.393,0v19.389A.7.7,0,0,1,177.167,308.937Z" transform="translate(-176.471 -288.156)"/>
          </g>
          <g id="Group_1111682" data-name="Group 1111682" transform="translate(21.054 23.965)">
            <path id="Path_900383" data-name="Path 900383" d="M227.474,281.7a.7.7,0,0,1-.7-.7V258.83a.7.7,0,1,1,1.393,0v22.176A.7.7,0,0,1,227.474,281.7Z" transform="translate(-226.778 -258.134)"/>
          </g>
          <g id="Group_1111683" data-name="Group 1111683" transform="translate(16.569 40.404)">
            <path id="Path_900384" data-name="Path 900384" d="M183.652,436.607h-4.485a.7.7,0,0,1,0-1.393h4.485a.7.7,0,1,1,0,1.393Z" transform="translate(-178.471 -435.214)"/>
          </g>
        </g>
        <g id="Group_1111703" data-name="Group 1111703" transform="translate(25.087)">
          <g id="Group_1111687" data-name="Group 1111687" transform="translate(1.134 1.953)">
            <g id="Group_1111685" data-name="Group 1111685" transform="translate(18.786)">
              <path id="Path_900385" data-name="Path 900385" d="M485.481,42.808a.7.7,0,0,1-.7-.7V21.729a.7.7,0,0,1,1.393,0V42.111a.7.7,0,0,1-.7.7Z" transform="translate(-484.785 -21.033)" fill="#060606"/>
            </g>
            <g id="Group_1111686" data-name="Group 1111686">
              <path id="Path_900386" data-name="Path 900386" d="M283.134,42.715a.7.7,0,0,1-.7-.7V21.729a.7.7,0,0,1,1.393,0V42.018A.7.7,0,0,1,283.134,42.715Z" transform="translate(-282.438 -21.033)" fill="#060606"/>
            </g>
          </g>
          <g id="Group_1111688" data-name="Group 1111688" transform="translate(1.134)">
            <path id="Path_900387" data-name="Path 900387" d="M292.527,5.3a34.986,34.986,0,0,1-6.783-.586c-2.255-.469-3.306-1.124-3.306-2.062s1.05-1.594,3.306-2.062a39.524,39.524,0,0,1,13.567,0c2.255.469,3.306,1.124,3.306,2.062s-1.05,1.594-3.306,2.062A34.979,34.979,0,0,1,292.527,5.3Zm-8.589-2.649a7.385,7.385,0,0,0,2.529.785,35.38,35.38,0,0,0,6.06.472,35.379,35.379,0,0,0,6.06-.472,7.381,7.381,0,0,0,2.529-.785,7.385,7.385,0,0,0-2.529-.785,39.158,39.158,0,0,0-12.12,0A7.384,7.384,0,0,0,283.938,2.649Z" transform="translate(-282.438 0)"/>
          </g>
          <g id="Group_1111689" data-name="Group 1111689" transform="translate(7.491 8.766)">
            <path id="Path_900388" data-name="Path 900388" d="M354.644,97.764c-1.056,0-2.094-.036-3.085-.106a.7.7,0,1,1,.1-1.389c.959.068,1.963.1,2.986.1a35.379,35.379,0,0,0,6.06-.472,5.959,5.959,0,0,0,2.642-.874.7.7,0,0,1,1.387.089c0,.938-1.05,1.594-3.306,2.062A34.984,34.984,0,0,1,354.644,97.764Z" transform="translate(-350.912 -94.419)"/>
          </g>
          <g id="Group_1111690" data-name="Group 1111690" transform="translate(1.134 8.766)">
            <path id="Path_900389" data-name="Path 900389" d="M285.646,97.141a.7.7,0,0,1-.153-.017c-2.085-.466-3.057-1.1-3.057-2.009a.7.7,0,0,1,1.387-.092,4.393,4.393,0,0,0,1.974.742.7.7,0,0,1-.151,1.376Zm-1.816-2.026h0Z" transform="translate(-282.437 -94.419)"/>
          </g>
          <g id="Group_1111691" data-name="Group 1111691" transform="translate(14.601 15.654)">
            <path id="Path_900390" data-name="Path 900390" d="M428.2,171.772a.7.7,0,0,1-.069-1.389c3.288-.33,4.485-.933,4.7-1.156a.7.7,0,0,1,1.387.089c0,1.079-1.476,1.557-1.96,1.715a20.042,20.042,0,0,1-3.984.738Q428.23,171.772,428.2,171.772Zm4.623-2.457h0Z" transform="translate(-427.5 -168.62)"/>
          </g>
          <g id="Group_1111692" data-name="Group 1111692" transform="translate(1.134 15.654)">
            <path id="Path_900391" data-name="Path 900391" d="M292.527,171.965a34.985,34.985,0,0,1-6.783-.586c-2.255-.469-3.306-1.124-3.306-2.062a.7.7,0,0,1,1.387-.089,5.96,5.96,0,0,0,2.642.874,35.38,35.38,0,0,0,6.06.472.7.7,0,1,1,0,1.392Zm-8.7-2.649h0Z" transform="translate(-282.438 -168.62)"/>
          </g>
          <g id="Group_1111696" data-name="Group 1111696" transform="translate(0 22.074)">
            <g id="Group_1111694" data-name="Group 1111694" transform="translate(1.134 4.332)">
              <g id="Group_1111693" data-name="Group 1111693">
                <path id="Path_900392" data-name="Path 900392" d="M293.428,295.571h-1.8a2.456,2.456,0,0,1-1.882-.875l-6.727-7.984a2.461,2.461,0,0,1-.578-1.583.7.7,0,0,1,1.393,0,1.065,1.065,0,0,0,.251.686l6.727,7.984a1.067,1.067,0,0,0,.817.38h1.8a1.066,1.066,0,0,0,.817-.38l6.727-7.984a1.066,1.066,0,0,0,.251-.686.7.7,0,0,1,1.393,0,2.46,2.46,0,0,1-.578,1.583l-6.727,7.984A2.456,2.456,0,0,1,293.428,295.571Z" transform="translate(-282.438 -284.433)"/>
              </g>
            </g>
            <g id="Group_1111695" data-name="Group 1111695">
              <path id="Path_900393" data-name="Path 900393" d="M281.358,244.169h0a38.86,38.86,0,0,1-7.526-.662c-2.462-.516-3.608-1.222-3.608-2.223v-2.4a1.105,1.105,0,0,1,.554-.965,1.132,1.132,0,0,1,1.125,0c1.628.924,6.089,1.345,9.544,1.345s7.916-.421,9.544-1.345a1.132,1.132,0,0,1,1.125,0,1.105,1.105,0,0,1,.554.965v2.4c0,1.095-1.4,1.629-2.446,1.936a26.184,26.184,0,0,1-5.114.815.7.7,0,0,1-.749-.678v-.02a.7.7,0,0,1,.863-.708c4.036-.328,5.788-1.065,6.053-1.4v-1.9c-1.83.812-5.588,1.326-9.831,1.326s-8-.514-9.831-1.326v1.9c.144.172.878.622,2.927,1a39.239,39.239,0,0,0,6.817.548.7.7,0,0,1,0,1.393Z" transform="translate(-270.223 -237.77)"/>
            </g>
          </g>
          <g id="Group_1111697" data-name="Group 1111697" transform="translate(16.383 26.752)">
            <path id="Path_900394" data-name="Path 900394" d="M447.389,308.937a.7.7,0,0,1-.7-.7V288.852a.7.7,0,1,1,1.393,0v19.389A.7.7,0,0,1,447.389,308.937Z" transform="translate(-446.693 -288.156)"/>
          </g>
          <g id="Group_1111698" data-name="Group 1111698" transform="translate(21.054 23.965)">
            <path id="Path_900395" data-name="Path 900395" d="M497.7,281.7a.7.7,0,0,1-.7-.7V258.83a.7.7,0,0,1,1.393,0v22.176A.7.7,0,0,1,497.7,281.7Z" transform="translate(-497 -258.134)"/>
          </g>
          <g id="Group_1111699" data-name="Group 1111699" transform="translate(16.569 40.404)">
            <path id="Path_900396" data-name="Path 900396" d="M453.874,436.607h-4.485a.7.7,0,0,1,0-1.393h4.485a.7.7,0,0,1,0,1.393Z" transform="translate(-448.693 -435.214)"/>
          </g>
          <g id="Group_1111700" data-name="Group 1111700" transform="translate(4.67 26.752)">
            <path id="Path_900397" data-name="Path 900397" d="M321.225,308.937a.7.7,0,0,1-.7-.7V288.852a.7.7,0,0,1,1.393,0v19.389A.7.7,0,0,1,321.225,308.937Z" transform="translate(-320.529 -288.156)"/>
          </g>
          <g id="Group_1111701" data-name="Group 1111701" transform="translate(0 23.965)">
            <path id="Path_900398" data-name="Path 900398" d="M270.918,281.7a.7.7,0,0,1-.7-.7V258.83a.7.7,0,0,1,1.393,0v22.176A.7.7,0,0,1,270.918,281.7Z" transform="translate(-270.222 -258.134)"/>
          </g>
          <g id="Group_1111702" data-name="Group 1111702" transform="translate(0 40.404)">
            <path id="Path_900399" data-name="Path 900399" d="M275.589,436.607h-4.67a.7.7,0,0,1,0-1.393h4.67a.7.7,0,0,1,0,1.393Z" transform="translate(-270.222 -435.214)"/>
          </g>
        </g>
      </g>
    </g>
  </g>
</svg>
