<svg xmlns="http://www.w3.org/2000/svg" width="77" height="77" viewBox="0 0 77 77">
  <g id="Group_1111710" data-name="Group 1111710" transform="translate(-3115 1393)">
    <g id="Group_1111367" data-name="Group 1111367" transform="translate(2094.27 -4486)">
      <g id="Group_1098742" data-name="Group 1098742" transform="translate(1020.73 3093)">
        <rect id="Rectangle_400898" data-name="Rectangle 400898" width="77" height="77" rx="38.5" transform="translate(0 0)" fill="#ccda2d"/>
        <rect id="Rectangle_400907" data-name="Rectangle 400907" width="77" height="77" rx="38.5" transform="translate(0 0)" fill="none"/>
      </g>
    </g>
    <g id="desastre" transform="translate(3112 -1395.999)">
      <circle id="Ellipse_11669" data-name="Ellipse 11669" cx="24.821" cy="24.821" r="24.821" transform="translate(16.856 16.855)" fill="#ecb347"/>
      <path id="Path_900442" data-name="Path 900442" d="M26.568,51.388A24.821,24.821,0,0,1,67.609,32.6,24.821,24.821,0,1,0,32.6,67.609a24.724,24.724,0,0,1-6.033-16.22Z" transform="translate(-7.144 -7.145)" fill="#f6e597"/>
      <path id="Path_900443" data-name="Path 900443" d="M256,24a24.821,24.821,0,1,1,0,49.642Z" transform="translate(-214.323 -7.145)" fill="#0c5177"/>
      <path id="Path_900444" data-name="Path 900444" d="M279.109,51.388a24.7,24.7,0,0,1-3.336,12.436A24.821,24.821,0,0,0,256,24v2.627A24.821,24.821,0,0,1,279.109,51.388Z" transform="translate(-214.323 -7.145)" fill="#045f9c"/>
      <path id="Path_900445" data-name="Path 900445" d="M415.829,200h-3.55L408,209.415v10.271h4.441A24.865,24.865,0,0,0,415.829,200Z" transform="translate(-350.062 -164.315)" fill="#4895aa"/>
      <circle id="Ellipse_11670" data-name="Ellipse 11670" cx="4.279" cy="4.279" r="4.279" transform="translate(20.279 20.279)" fill="#e97867"/>
      <path id="Path_900446" data-name="Path 900446" d="M344,304h5.135v6.847H344Z" transform="translate(-292.909 -257.189)" fill="#7b81c6"/>
      <path id="Path_900447" data-name="Path 900447" d="M392,304h3.424v6.847H392Z" transform="translate(-335.773 -257.189)" fill="#4e52a8"/>
      <path id="Path_900448" data-name="Path 900448" d="M291.424,42.83l10.271-5.991-1.712-3.424,7.7-4.279A11.532,11.532,0,0,0,298.09,24h-.675l-6.847,8.559,2.568,5.135L288,41.974l.181.09A7.252,7.252,0,0,0,291.424,42.83Z" transform="translate(-242.9 -7.145)" fill="#d1dee0"/>
      <path id="Path_900449" data-name="Path 900449" d="M307.689,31.144a11.532,11.532,0,0,0-7.258-4.895,11.527,11.527,0,0,1,4.69,4.039l-6.178,3.432a1.822,1.822,0,0,0-.745,2.408l.168.335a1.822,1.822,0,0,1-.712,2.389l-8.2,4.782a2.273,2.273,0,0,1-1.391.3h-.008l-.053.045.181.09a7.252,7.252,0,0,0,3.242.765L301.7,38.847l-1.712-3.424Z" transform="translate(-242.903 -9.153)" fill="#b6c4c6"/>
      <path id="Path_900450" data-name="Path 900450" d="M126.845,311.7v-5.135a2.568,2.568,0,1,0-5.135,0V311.7a4.279,4.279,0,1,0,5.135,0Z" transform="translate(-92.871 -257.189)" fill="#d1dee0"/>
      <path id="Path_900451" data-name="Path 900451" d="M0,0H1.712V2.421H0Z" transform="translate(17.961 19.172) rotate(-45)" fill="#eeaaa8"/>
      <path id="Path_900452" data-name="Path 900452" d="M88,16h1.712v1.712H88Z" transform="translate(-64.297 -0.001)" fill="#eeaaa8"/>
      <path id="Path_900453" data-name="Path 900453" d="M16,88h1.712v1.712H16Z" transform="translate(0 -64.298)" fill="#eeaaa8"/>
      <path id="Path_900454" data-name="Path 900454" d="M328,275.424h6.847L331.424,272Z" transform="translate(-278.62 -228.612)" fill="#e97867"/>
      <path id="Path_900455" data-name="Path 900455" d="M384.309,29.135h1.961a11.532,11.532,0,0,0-9.6-5.135H376A9.29,9.29,0,0,0,384.309,29.135Z" transform="translate(-321.485 -7.145)" fill="#b6c4c6"/>
      <path id="Path_900456" data-name="Path 900456" d="M0,0H1.712V1.914H0Z" transform="translate(42.134 37.314) rotate(-63.435)" fill="#4895aa"/>
      <path id="Path_900457" data-name="Path 900457" d="M296,216h1.712v1.712H296Z" transform="translate(-250.044 -178.603)" fill="#4895aa"/>
      <path id="Path_900458" data-name="Path 900458" d="M384,177.712a1.712,1.712,0,0,0,1.712,1.712h8.882a24.646,24.646,0,0,0-.982-3.424h-7.9A1.712,1.712,0,0,0,384,177.712Z" transform="translate(-328.629 -142.883)" fill="#96d6e4"/>
      <path id="Path_900459" data-name="Path 900459" d="M407.7,208v1.712a10.271,10.271,0,0,1-2.054,6.162l-.514.685a2.922,2.922,0,0,1-2.066.856h-2.213L400,214.847l2.568-3.424V208Z" transform="translate(-342.917 -171.459)" fill="#2a6377"/>
      <path id="Path_900460" data-name="Path 900460" d="M349.991,214.847l2.2-1.466a5.008,5.008,0,0,0,2.08-5.381h-3.424a3.705,3.705,0,0,1-2.4,3.469L344,213.135l1.712,1.712Z" transform="translate(-292.909 -171.459)" fill="#4895aa"/>
      <path id="Path_900461" data-name="Path 900461" d="M234.271,51.424V49.712A1.712,1.712,0,0,0,232.559,48h-6.847a1.712,1.712,0,1,0,0,3.424h2.568v1.712a1.712,1.712,0,0,0,1.712,1.712h5.135a1.712,1.712,0,1,0,0-3.424Z" transform="translate(-185.747 -28.577)" fill="#b6c4c6"/>
      <path id="Path_900462" data-name="Path 900462" d="M265.461,93.972l-1.21-1.21,1.588-1.588-1.254-.418a.856.856,0,0,1-.495-1.195l2.568-5.135,1.531.766-2.126,4.253,1.631.544a.856.856,0,0,1,.335,1.417Z" transform="translate(-221.468 -61.106)" fill="#ecb347"/>
      <path id="Path_900463" data-name="Path 900463" d="M146.566,335.079V328h-1.712v7.079a1.712,1.712,0,1,0,1.712,0Z" transform="translate(-114.305 -278.621)" fill="#af1e4b"/>
      <g id="Group_1111709" data-name="Group 1111709" transform="translate(19.432 38.726)">
        <path id="Path_900464" data-name="Path 900464" d="M194.557,238.6l-1.022-2.043a3.523,3.523,0,0,1,.219-3.522,1.807,1.807,0,0,0,.113-1.806l-1.022-2.043,1.531-.766,1.022,2.043a3.523,3.523,0,0,1-.219,3.522,1.807,1.807,0,0,0-.113,1.806l1.022,2.043Z" transform="translate(-177.357 -228.423)" fill="#af4f45"/>
        <path id="Path_900465" data-name="Path 900465" d="M234.557,246.6l-1.022-2.043a3.523,3.523,0,0,1,.219-3.522,1.807,1.807,0,0,0,.113-1.806l-1.022-2.043,1.531-.766,1.022,2.043a3.523,3.523,0,0,1-.219,3.522,1.807,1.807,0,0,0-.113,1.806l1.022,2.043Z" transform="translate(-213.078 -235.567)" fill="#af4f45"/>
        <path id="Path_900466" data-name="Path 900466" d="M49.61,246.6l-1.531-.766,1.022-2.043a1.807,1.807,0,0,0-.112-1.806,3.523,3.523,0,0,1-.219-3.522l1.022-2.043,1.531.765L50.3,239.232a1.807,1.807,0,0,0,.112,1.806,3.523,3.523,0,0,1,.219,3.522Z" transform="translate(-48.079 -235.567)" fill="#af4f45"/>
        <path id="Path_900467" data-name="Path 900467" d="M89.61,238.6l-1.531-.766,1.022-2.043a1.807,1.807,0,0,0-.112-1.806,3.523,3.523,0,0,1-.219-3.522l1.022-2.043,1.531.765L90.3,231.232a1.807,1.807,0,0,0,.112,1.806,3.523,3.523,0,0,1,.219,3.522Z" transform="translate(-83.8 -228.423)" fill="#af4f45"/>
      </g>
      <path id="Path_900468" data-name="Path 900468" d="M50.792,170.568H41.481a4.383,4.383,0,0,1-3.1-1.284,4.383,4.383,0,0,0-3.1-1.284h-1a4.384,4.384,0,0,0-2.63.877l-2.255,1.691-2.825,1.412q-.221.991-.362,2.011H50.792Z" transform="translate(-9.115 -135.739)" fill="#c18423"/>
      <path id="Path_900469" data-name="Path 900469" d="M187.424,121.712v1.712h-1.712V120H184v7.7h1.712v-2.568h2.568a.856.856,0,0,0,.856-.856v-2.568Z" transform="translate(-150.026 -92.874)" fill="#64962f"/>
      <path id="Path_900470" data-name="Path 900470" d="M360,272h5.135l3.424,3.424h-5.135Z" transform="translate(-307.197 -228.612)" fill="#af4f45"/>
      <path id="Path_900471" data-name="Path 900471" d="M273.974,407.02l-.9-.6a2.832,2.832,0,0,0-3.271.091l-.108.081a2.853,2.853,0,0,1-3.424,0,2.853,2.853,0,0,0-3.424,0l-1.036.777a2.535,2.535,0,0,1-1.521.507H256v6.847A24.75,24.75,0,0,0,273.974,407.02Z" transform="translate(-214.323 -348.226)" fill="#4895aa"/>
      <path id="Path_900472" data-name="Path 900472" d="M271.406,351.153a2.421,2.421,0,0,1-3.424,0,2.421,2.421,0,0,0-3.424,0,2.421,2.421,0,0,1-3.424,0l-.186-.186a2.421,2.421,0,0,0-3.216-.185L256,352.156v5.991h4.29a2.536,2.536,0,0,0,1.521-.507l1.036-.777a2.853,2.853,0,0,1,3.424,0,2.853,2.853,0,0,0,3.424,0l.108-.081a2.832,2.832,0,0,1,3.271-.091l.9.6a24.919,24.919,0,0,0,3.318-4.356l-2.462-1.782A2.421,2.421,0,0,0,271.406,351.153Z" transform="translate(-214.323 -298.497)" fill="#96d6e4"/>
      <path id="Path_900473" data-name="Path 900473" d="M264.856,432l3.424,1.712-1.712,1.712L264,434.568Z" transform="translate(-221.468 -371.494)" fill="#0c5177"/>
      <path id="Path_900474" data-name="Path 900474" d="M272,384h1.712v1.712H272Z" transform="translate(-228.612 -328.63)" fill="#4895aa"/>
      <path id="Path_900475" data-name="Path 900475" d="M0,0H1.914V1.712H0Z" transform="translate(51.54 54.596) rotate(-26.565)" fill="#4895aa"/>
      <path id="Path_900476" data-name="Path 900476" d="M0,0H1.712V1.914H0Z" transform="translate(49.825 62.133) rotate(-63.435)" fill="#0c5177"/>
      <path id="Path_900477" data-name="Path 900477" d="M147.436,336.559a1.712,1.712,0,0,0-.856-1.48V328h-1.712v7.079a1.711,1.711,0,1,0,2.568,1.48Z" transform="translate(-114.318 -278.621)"/>
      <path id="Path_900478" data-name="Path 900478" d="M0,0H1.712V2.421H0Z" transform="translate(17.961 19.172) rotate(-45)"/>
      <path id="Path_900479" data-name="Path 900479" d="M88,16h1.712v1.712H88Z" transform="translate(-64.297 -0.001)"/>
      <path id="Path_900480" data-name="Path 900480" d="M16,88h1.712v1.712H16Z" transform="translate(0 -64.298)"/>
      <path id="Path_900481" data-name="Path 900481" d="M256.9,424.586l-.856,2.568a.856.856,0,0,0,.541,1.083l2.568.856a.856.856,0,0,0,.876-.207l1.712-1.712a.856.856,0,0,0-.222-1.371l-3.424-1.712a.856.856,0,0,0-1.195.495Zm1.312,1.477,1.479.739-.5.5-1.254-.418Z" transform="translate(-214.322 -364.351)"/>
      <path id="Path_900482" data-name="Path 900482" d="M272,384h1.712v1.712H272Z" transform="translate(-228.612 -328.63)"/>
      <path id="Path_900483" data-name="Path 900483" d="M0,0H1.914V1.712H0Z" transform="translate(51.54 54.596) rotate(-26.565)"/>
      <path id="Path_900484" data-name="Path 900484" d="M0,0H1.712V1.914H0Z" transform="translate(49.825 62.133) rotate(-63.435)"/>
      <path id="Path_900485" data-name="Path 900485" d="M0,0H1.712V1.914H0Z" transform="translate(42.134 37.314) rotate(-63.435)"/>
      <path id="Path_900486" data-name="Path 900486" d="M296,216h1.712v1.712H296Z" transform="translate(-250.044 -178.603)"/>
      <path id="Path_900487" data-name="Path 900487" d="M193.535,236.56l1.022,2.043,1.531-.766-1.022-2.043a1.807,1.807,0,0,1,.113-1.806,3.523,3.523,0,0,0,.219-3.522l-1.022-2.043-1.531.766,1.022,2.043a1.807,1.807,0,0,1-.113,1.806A3.523,3.523,0,0,0,193.535,236.56Z" transform="translate(-157.925 -189.697)"/>
      <path id="Path_900488" data-name="Path 900488" d="M235.4,238.465l-1.022-2.043-1.531.766,1.022,2.043a1.807,1.807,0,0,1-.113,1.806,3.523,3.523,0,0,0-.219,3.522l1.022,2.043,1.531-.766-1.022-2.043a1.807,1.807,0,0,1,.113-1.806A3.523,3.523,0,0,0,235.4,238.465Z" transform="translate(-193.646 -196.84)"/>
      <path id="Path_900489" data-name="Path 900489" d="M48.079,245.839l1.531.766,1.022-2.043a3.523,3.523,0,0,0-.219-3.522,1.807,1.807,0,0,1-.112-1.806l1.022-2.043-1.531-.765-1.022,2.043a3.523,3.523,0,0,0,.219,3.522A1.807,1.807,0,0,1,49.1,243.8Z" transform="translate(-28.647 -196.842)"/>
      <path id="Path_900490" data-name="Path 900490" d="M91.322,229.188l-1.531-.765-1.022,2.043a3.523,3.523,0,0,0,.219,3.522,1.807,1.807,0,0,1,.112,1.806l-1.022,2.043,1.531.766,1.022-2.043a3.523,3.523,0,0,0-.219-3.522,1.807,1.807,0,0,1-.112-1.806Z" transform="translate(-64.368 -189.697)"/>
      <path id="Path_900491" data-name="Path 900491" d="M65.408,120v6.847H63.8a3.5,3.5,0,0,1-2.494-1.033,5.205,5.205,0,0,0-3.7-1.535h-1a5.272,5.272,0,0,0-3.143,1.048L51.2,127.018l1.027,1.369,2.255-1.691a3.549,3.549,0,0,1,2.116-.705h1a3.5,3.5,0,0,1,2.494,1.033,5.2,5.2,0,0,0,3.7,1.535h5.887v-1.712H67.12v-1.712h2.568a.856.856,0,0,0,.856-.856v-2.568H68.831v1.712H67.12V120Z" transform="translate(-31.434 -92.874)"/>
      <path id="Path_900492" data-name="Path 900492" d="M61.178,24.974,65.2,22.739a.856.856,0,0,0,.3-1.223A12.363,12.363,0,0,0,55.19,16h-.675a.856.856,0,0,0-.668.321l-1.57,1.963A25.731,25.731,0,0,0,27.433,20.3a5.135,5.135,0,0,0-7.13,7.13A25.715,25.715,0,0,0,19.542,54.7l1.475-.869A24,24,0,0,1,21.523,28.7,5.134,5.134,0,0,0,28.7,21.522a24.008,24.008,0,0,1,22.47-1.855L49.38,21.9v-.77a2.571,2.571,0,0,0-2.568-2.568H39.965a2.568,2.568,0,1,0,0,5.135h1.712v.856a2.572,2.572,0,0,0,1.688,2.413l-.742,1.484a.856.856,0,0,0,.495,1.195l1.254.418-1.588,1.588,1.21,1.21L46.561,30.3a.856.856,0,0,0-.335-1.417L44.6,28.338l.606-1.212h2.366l1.6,3.2-4.615,3.846,1.1,1.315,5.135-4.279A.856.856,0,0,0,51,30.167l-1.522-3.043a2.566,2.566,0,0,0,1.545-4.535l3.381-4.226a10.065,10.065,0,0,0,7.208,4.411l-4.946,2.748a.856.856,0,0,0-.35,1.131l1.353,2.706-9.578,5.587.863,1.479,10.271-5.991a.856.856,0,0,0,.334-1.122L58.215,26.62l1.434-.8a23.921,23.921,0,0,1,4.072,6.438H57.083a2.568,2.568,0,0,0-.132,5.132,2.864,2.864,0,0,1-1.717,1.815l-4.443,1.666.6,1.6,4.443-1.666A4.586,4.586,0,0,0,58.712,37.4H60.64a4.163,4.163,0,0,1-1.833,3.813l-1.984,1.322H52.8a.853.853,0,0,0-.605.251l-3.424,3.424a.856.856,0,0,0,.605,1.461h.856v3.907a3.269,3.269,0,0,0-.605.477,1.567,1.567,0,0,1-2.213,0l-.186-.186a3.276,3.276,0,0,0-4.353-.251l-1.733,1.374,1.063,1.341,1.733-1.374a1.565,1.565,0,0,1,2.079.12l.186.186a3.28,3.28,0,0,0,4.634,0,1.566,1.566,0,0,1,2.213,0,3.28,3.28,0,0,0,4.634,0,1.567,1.567,0,0,1,2.213,0,.862.862,0,0,0,.1.088l1.819,1.317a24.083,24.083,0,0,1-2.306,3.011l-.28-.187a3.714,3.714,0,0,0-4.283.119l-.1.073a2.007,2.007,0,0,1-2.4,0,3.728,3.728,0,0,0-4.451,0L46.3,58.965l1.027,1.369,1.712-1.284a2.007,2.007,0,0,1,2.4,0,3.728,3.728,0,0,0,4.451,0l.1-.073a2,2,0,0,1,2.306-.064l.021.014a23.972,23.972,0,0,1-27.5,4.109,5.135,5.135,0,0,0,4.023-8.927V49.379a3.424,3.424,0,0,0-6.847,0V54.11a5.13,5.13,0,0,0-.927,6.551,24.185,24.185,0,0,1-4.8-4.937l-1.386,1A25.677,25.677,0,1,0,61.178,24.974Zm-33.2-.416A3.424,3.424,0,1,1,27.3,22.5,3.424,3.424,0,0,1,27.982,24.558Zm21.4.856H46.057l.664-1.329-1.531-.766-1.044,2.088a.857.857,0,0,1-.758-.85V22.847a.856.856,0,0,0-.856-.856H39.965a.856.856,0,1,1,0-1.712h6.847a.857.857,0,0,1,.856.856v1.712a.856.856,0,0,0,.856.856h.856a.856.856,0,1,1,0,1.712Zm6.684-7.667a10.647,10.647,0,0,1,6.961,3.388h-.2a8.381,8.381,0,0,1-6.761-3.388ZM27.982,57.938a3.4,3.4,0,0,1,1.37-2.739.856.856,0,0,0,.342-.685V49.379a1.712,1.712,0,0,1,3.424,0v5.135a.856.856,0,0,0,.342.685,3.424,3.424,0,1,1-5.477,2.739ZM51.446,45.956,52.8,44.6l1.357,1.357Zm3.925,6.553a1.56,1.56,0,0,1-1.107-.458,3.266,3.266,0,0,0-2.317-.958V47.667h3.424Zm3.424-1.415a3.276,3.276,0,0,0-1.712.481V47.667h1.712Zm-2.213-5.138-1.712-1.712h2.715L59.3,45.956ZM61.059,52a3.273,3.273,0,0,0-.553-.425V47.667h.856a.856.856,0,0,0,.605-1.461L58.94,43.179l.817-.545a5.879,5.879,0,0,0,2.6-5.237H63.93V35.685H57.083a.856.856,0,1,1,0-1.712h7.293A23.872,23.872,0,0,1,65.4,38.253H63.93A9.473,9.473,0,0,1,62.047,43.9l-.514.685L62.9,45.613l.514-.685a11.2,11.2,0,0,0,2.137-5.3c.057.677.088,1.359.088,2.045A23.836,23.836,0,0,1,62.7,53.191Z" transform="translate(0 0)"/>
    </g>
  </g>
</svg>
