<svg xmlns="http://www.w3.org/2000/svg" width="77" height="77" viewBox="0 0 77 77">
  <g id="Group_1111644" data-name="Group 1111644" transform="translate(-3138 2331)">
    <g id="Group_1111358" data-name="Group 1111358" transform="translate(2117.27 -5424)">
      <g id="Group_1098742" data-name="Group 1098742" transform="translate(1020.73 3093)">
        <rect id="Rectangle_400898" data-name="Rectangle 400898" width="77" height="77" rx="38.5" transform="translate(0 0)" fill="#ccda2d"/>
        <rect id="Rectangle_400907" data-name="Rectangle 400907" width="77" height="77" rx="38.5" transform="translate(0 0)" fill="none"/>
      </g>
    </g>
    <g id="documentacion" transform="translate(3143.581 -2315)">
      <g id="Group_1111634" data-name="Group 1111634" transform="translate(19.165 4.341)">
        <path id="Path_900331" data-name="Path 900331" d="M107.76,53.5V49.914h-6.406a.87.87,0,0,0-.87.87V53.5Z" transform="translate(-100.484 -49.914)" fill="#8ac9fe"/>
        <rect id="Rectangle_404345" data-name="Rectangle 404345" width="2.912" height="3.587" transform="translate(4.363)" fill="#60b7ff"/>
        <path id="Path_900332" data-name="Path 900332" d="M327.864,420.848v3.776h6.311a.87.87,0,0,0,.87-.87v-2.906Z" transform="translate(-308.088 -388.587)" fill="#8ac9fe"/>
        <path id="Path_900333" data-name="Path 900333" d="M367.435,420.848v2.906a.87.87,0,0,1-.87.87h2.945a.87.87,0,0,0,.87-.87v-2.906Z" transform="translate(-343.423 -388.587)" fill="#60b7ff"/>
      </g>
      <g id="Group_1111635" data-name="Group 1111635" transform="translate(18.513 3.689)">
        <path id="Trazado_900334" data-name="Trazado 900334" d="M100.912,47.305H93.636a.652.652,0,0,1-.652-.652V43.936a1.524,1.524,0,0,1,1.522-1.522h6.406a.652.652,0,0,1,.652.652v3.587A.652.652,0,0,1,100.912,47.305ZM94.289,46h5.971V43.719H94.506a.218.218,0,0,0-.217.217Z" transform="translate(-92.984 -42.414)"/>
        <path id="Trazado_900335" data-name="Trazado 900335" d="M321.016,413.348H328.2a.652.652,0,0,1,.652.652v2.906a1.524,1.524,0,0,1-1.522,1.522h-6.311a.652.652,0,0,1-.652-.652V414A.652.652,0,0,1,321.016,413.348Zm6.529,1.3h-5.876v2.471h5.659a.218.218,0,0,0,.217-.217Z" transform="translate(-300.588 -381.087)"/>
      </g>
      <path id="Path_900336" data-name="Path 900336" d="M209.223,7.5H184.006a.87.87,0,0,0-.87.87v6.406h11.8a.784.784,0,0,1,.783.783V43.537h13.5a.87.87,0,0,0,.87-.87V8.37A.87.87,0,0,0,209.223,7.5Z" transform="translate(-156.782 -6.848)" fill="#f2fbff"/>
      <path id="Path_900337" data-name="Path 900337" d="M444.66,7.5H441a.87.87,0,0,1,.87.87v34.3a.87.87,0,0,1-.87.87h3.66a.87.87,0,0,0,.87-.87V8.37A.87.87,0,0,0,444.66,7.5Z" transform="translate(-392.219 -6.848)" fill="#dff6fd"/>
      <path id="Trazado_900338" data-name="Trazado 900338" d="M202.376,37.342h-13.5a.652.652,0,0,1,0-1.3h13.5a.218.218,0,0,0,.217-.217V1.522a.218.218,0,0,0-.217-.217H177.158a.218.218,0,0,0-.217.217V7.928a.652.652,0,1,1-1.3,0V1.522A1.524,1.524,0,0,1,177.158,0h25.218A1.524,1.524,0,0,1,203.9,1.522v34.3A1.524,1.524,0,0,1,202.376,37.342Z" transform="translate(-149.934 0)"/>
      <path id="Path_900339" data-name="Path 900339" d="M45.006,126.189H19.789a.87.87,0,0,1-.87-.87v-34.3a.87.87,0,0,1,.87-.87H45.006a.87.87,0,0,1,.87.87v34.3A.87.87,0,0,1,45.006,126.189Z" transform="translate(-6.848 -82.311)" fill="#fef0ae"/>
      <path id="Path_900340" data-name="Path 900340" d="M277.9,90.152H274a.87.87,0,0,1,.87.87v34.3a.87.87,0,0,1-.87.87h3.9a.87.87,0,0,0,.87-.87v-34.3A.87.87,0,0,0,277.9,90.152Z" transform="translate(-239.743 -82.311)" fill="#fee97d"/>
      <path id="Trazado_900341" data-name="Trazado 900341" d="M38.159,119.994H12.941a1.524,1.524,0,0,1-1.522-1.522v-5.523a.652.652,0,0,1,1.3,0v5.523a.218.218,0,0,0,.217.217H38.159a.218.218,0,0,0,.217-.217v-34.3a.218.218,0,0,0-.217-.217h-5.12a.652.652,0,0,1,0-1.3h5.12a1.524,1.524,0,0,1,1.522,1.522v34.3A1.524,1.524,0,0,1,38.159,119.994Z" transform="translate(0 -75.463)"/>
      <path id="Trazado_900342" data-name="Trazado 900342" d="M12.071,110.557a.652.652,0,0,1-.652-.652V84.174a1.524,1.524,0,0,1,1.522-1.522H29.995a.652.652,0,1,1,0,1.3H12.941a.218.218,0,0,0-.217.217V109.9A.652.652,0,0,1,12.071,110.557Z" transform="translate(0 -75.463)"/>
      <g id="Group_1111637" data-name="Group 1111637" transform="translate(21.894 15.525)">
        <g id="Group_1111636" data-name="Group 1111636" transform="translate(0)">
          <path id="Línea_565" data-name="Línea 565" d="M5.259-6.2H-6.848A.652.652,0,0,1-7.5-6.848.652.652,0,0,1-6.848-7.5H5.259a.652.652,0,0,1,.652.652A.652.652,0,0,1,5.259-6.2Z" transform="translate(7.5 7.5)"/>
          <path id="Línea_566" data-name="Línea 566" d="M.7-6.2H-6.848A.652.652,0,0,1-7.5-6.848.652.652,0,0,1-6.848-7.5H.7a.652.652,0,0,1,.652.652A.652.652,0,0,1,.7-6.2Z" transform="translate(7.5 10.243)"/>
          <path id="Línea_567" data-name="Línea 567" d="M-4.649-6.2h-2.2A.652.652,0,0,1-7.5-6.848.652.652,0,0,1-6.848-7.5h2.2A.652.652,0,0,1-4-6.848.652.652,0,0,1-4.649-6.2Z" transform="translate(17.408 10.243)"/>
        </g>
      </g>
      <g id="Group_1111639" data-name="Group 1111639" transform="translate(15.794 21.886)">
        <path id="Path_900343" data-name="Path 900343" d="M72.267,262.449H69.478a.261.261,0,0,1-.261-.261V259.4a.261.261,0,0,1,.261-.261h2.789a.261.261,0,0,1,.261.261v2.789A.261.261,0,0,1,72.267,262.449Z" transform="translate(-68.565 -258.486)" fill="#fff"/>
        <path id="Trazado_900343_-_Contorno" data-name="Trazado 900343 - Contorno" d="M65.419,256.253H62.63a.914.914,0,0,1-.913-.913v-2.789a.914.914,0,0,1,.913-.913h2.789a.914.914,0,0,1,.913.913v2.789a.913.913,0,0,1-.913.913Zm-2.4-1.3h2.006v-2.006H63.022Z" transform="translate(-61.717 -251.638)"/>
        <g id="Group_1111638" data-name="Group 1111638" transform="translate(6.101 0.284)">
          <path id="Línea_568" data-name="Línea 568" d="M5.259-6.2H-6.848A.652.652,0,0,1-7.5-6.848.652.652,0,0,1-6.848-7.5H5.259a.652.652,0,0,1,.652.652A.652.652,0,0,1,5.259-6.2Z" transform="translate(7.5 7.5)"/>
          <path id="Línea_569" data-name="Línea 569" d="M-4.6-6.2H-6.848A.652.652,0,0,1-7.5-6.848.652.652,0,0,1-6.848-7.5H-4.6a.652.652,0,0,1,.652.652A.652.652,0,0,1-4.6-6.2Z" transform="translate(7.5 10.243)"/>
          <path id="Línea_570" data-name="Línea 570" d="M.648-6.2h-7.5A.652.652,0,0,1-7.5-6.848.652.652,0,0,1-6.848-7.5h7.5a.652.652,0,0,1,.652.652A.652.652,0,0,1,.648-6.2Z" transform="translate(12.111 10.243)"/>
        </g>
      </g>
      <g id="Group_1111641" data-name="Group 1111641" transform="translate(15.794 28.531)">
        <path id="Path_900344" data-name="Path 900344" d="M72.267,338.848H69.478a.261.261,0,0,1-.261-.261V335.8a.261.261,0,0,1,.261-.261h2.789a.261.261,0,0,1,.261.261v2.789A.261.261,0,0,1,72.267,338.848Z" transform="translate(-68.565 -334.885)" fill="#fff"/>
        <path id="Trazado_900344_-_Contorno" data-name="Trazado 900344 - Contorno" d="M65.419,332.652H62.63a.914.914,0,0,1-.913-.913V328.95a.914.914,0,0,1,.913-.913h2.789a.914.914,0,0,1,.913.913v2.789a.913.913,0,0,1-.913.913Zm-2.4-1.3h2.006v-2.006H63.022Z" transform="translate(-61.717 -328.037)"/>
        <g id="Group_1111640" data-name="Group 1111640" transform="translate(6.101 0.284)">
          <path id="Línea_571" data-name="Línea 571" d="M5.259-6.2H-6.848A.652.652,0,0,1-7.5-6.848.652.652,0,0,1-6.848-7.5H5.259a.652.652,0,0,1,.652.652A.652.652,0,0,1,5.259-6.2Z" transform="translate(7.5 7.5)"/>
          <path id="Línea_572" data-name="Línea 572" d="M5.259-6.2H-6.848A.652.652,0,0,1-7.5-6.848.652.652,0,0,1-6.848-7.5H5.259a.652.652,0,0,1,.652.652A.652.652,0,0,1,5.259-6.2Z" transform="translate(7.5 10.243)"/>
        </g>
      </g>
      <g id="Group_1111643" data-name="Group 1111643" transform="translate(15.794 35.175)">
        <path id="Path_900345" data-name="Path 900345" d="M72.267,415.247H69.478a.261.261,0,0,1-.261-.261V412.2a.261.261,0,0,1,.261-.261h2.789a.261.261,0,0,1,.261.261v2.789A.261.261,0,0,1,72.267,415.247Z" transform="translate(-68.565 -411.284)" fill="#fff"/>
        <path id="Trazado_900345_-_Contorno" data-name="Trazado 900345 - Contorno" d="M65.419,409.051H62.63a.914.914,0,0,1-.913-.913v-2.789a.914.914,0,0,1,.913-.913h2.789a.914.914,0,0,1,.913.913v2.789a.913.913,0,0,1-.913.913Zm-2.4-1.3h2.006v-2.006H63.022Z" transform="translate(-61.717 -404.436)"/>
        <g id="Group_1111642" data-name="Group 1111642" transform="translate(6.101 0.284)">
          <path id="Línea_573" data-name="Línea 573" d="M5.259-6.2H-6.848A.652.652,0,0,1-7.5-6.848.652.652,0,0,1-6.848-7.5H5.259a.652.652,0,0,1,.652.652A.652.652,0,0,1,5.259-6.2Z" transform="translate(7.5 7.5)"/>
          <path id="Línea_574" data-name="Línea 574" d="M-2.331-6.2H-6.848A.652.652,0,0,1-7.5-6.848.652.652,0,0,1-6.848-7.5h4.516a.652.652,0,0,1,.652.652A.652.652,0,0,1-2.331-6.2Z" transform="translate(7.5 10.243)"/>
          <path id="Línea_575" data-name="Línea 575" d="M-1.622-6.2H-6.848A.652.652,0,0,1-7.5-6.848.652.652,0,0,1-6.848-7.5h5.226a.652.652,0,0,1,.652.652A.652.652,0,0,1-1.622-6.2Z" transform="translate(14.381 10.243)"/>
        </g>
      </g>
      <path id="Trazado_900346" data-name="Trazado 900346" d="M60.987,170.433a.652.652,0,0,1-.461-.191l-1.608-1.608a.652.652,0,1,1,.922-.922l1.076,1.076,2.1-2.8a.652.652,0,1,1,1.044.783l-2.554,3.405a.652.652,0,0,1-.476.259Z" transform="translate(-43.193 -151.31)"/>
      <path id="Línea_576" data-name="Línea 576" d="M-3.2-6.2H-6.848A.652.652,0,0,1-7.5-6.848.652.652,0,0,1-6.848-7.5H-3.2a.652.652,0,0,1,.652.652A.652.652,0,0,1-3.2-6.2Z" transform="translate(49.128 23.485)"/>
      <path id="Línea_577" data-name="Línea 577" d="M.719-6.2H-6.848A.652.652,0,0,1-7.5-6.848.652.652,0,0,1-6.848-7.5H.719a.652.652,0,0,1,.652.652A.652.652,0,0,1,.719-6.2Z" transform="translate(49.128 26.512)"/>
      <path id="Línea_578" data-name="Línea 578" d="M.719-6.2H-6.848A.652.652,0,0,1-7.5-6.848.652.652,0,0,1-6.848-7.5H.719a.652.652,0,0,1,.652.652A.652.652,0,0,1,.719-6.2Z" transform="translate(49.128 29.539)"/>
      <path id="Línea_579" data-name="Línea 579" d="M.719-6.2H-6.848A.652.652,0,0,1-7.5-6.848.652.652,0,0,1-6.848-7.5H.719a.652.652,0,0,1,.652.652A.652.652,0,0,1,.719-6.2Z" transform="translate(49.128 32.565)"/>
      <path id="Línea_580" data-name="Línea 580" d="M-5.392-6.2H-6.848A.652.652,0,0,1-7.5-6.848.652.652,0,0,1-6.848-7.5h1.456a.652.652,0,0,1,.652.652A.652.652,0,0,1-5.392-6.2Z" transform="translate(49.128 35.592)"/>
      <path id="Línea_581" data-name="Línea 581" d="M-2.912-6.2H-6.848A.652.652,0,0,1-7.5-6.848.652.652,0,0,1-6.848-7.5h3.935a.652.652,0,0,1,.652.652A.652.652,0,0,1-2.912-6.2Z" transform="translate(52.76 35.592)"/>
      <path id="Línea_582" data-name="Línea 582" d="M.719-6.2H-6.848A.652.652,0,0,1-7.5-6.848.652.652,0,0,1-6.848-7.5H.719a.652.652,0,0,1,.652.652A.652.652,0,0,1,.719-6.2Z" transform="translate(49.128 38.619)"/>
      <circle id="Ellipse_11661" data-name="Ellipse 11661" cx="4.373" cy="4.373" r="4.373" transform="translate(41.691 4.392)" fill="#ffd15b"/>
      <path id="Trazado_900347" data-name="Trazado 900347" d="M358.622,53.052a5.034,5.034,0,0,1-4.848-3.7.652.652,0,0,1,1.259-.342,3.719,3.719,0,1,0,.235-2.59.652.652,0,1,1-1.176-.566,5.025,5.025,0,1,1,4.53,7.2Z" transform="translate(-312.558 -39.262)"/>
      <path id="Path_900348" data-name="Path 900348" d="M409.76,100.777v4.373a4.373,4.373,0,0,0,4.373-4.373Z" transform="translate(-363.696 -92.012)" fill="#fd6930"/>
      <path id="Trazado_900349" data-name="Trazado 900349" d="M402.912,93.277h4.373a.652.652,0,0,1,.652.652,5.031,5.031,0,0,1-5.025,5.025.652.652,0,0,1-.652-.652V93.929A.652.652,0,0,1,402.912,93.277Zm3.663,1.3h-3.011v3.011A3.731,3.731,0,0,0,406.575,94.582Z" transform="translate(-356.848 -85.164)"/>
      <path id="Línea_583" data-name="Línea 583" d="M2.327-6.2H-6.848A.652.652,0,0,1-7.5-6.848.652.652,0,0,1-6.848-7.5H2.327a.652.652,0,0,1,.652.652A.652.652,0,0,1,2.327-6.2Z" transform="translate(36.701 11.24)"/>
      <path id="Línea_584" data-name="Línea 584" d="M-5.109-6.2H-6.848A.652.652,0,0,1-7.5-6.848.652.652,0,0,1-6.848-7.5h1.739a.652.652,0,0,1,.652.652A.652.652,0,0,1-5.109-6.2Z" transform="translate(54.956 23.485)"/>
      <path id="Línea_585" data-name="Línea 585" d="M5.4-6.2H-6.848A.652.652,0,0,1-7.5-6.848.652.652,0,0,1-6.848-7.5H5.4a.652.652,0,0,1,.652.652A.652.652,0,0,1,5.4-6.2Z" transform="translate(23.294 18.937)"/>
      <path id="Línea_586" data-name="Línea 586" d="M-6.19-6.2h-.658A.652.652,0,0,1-7.5-6.848.652.652,0,0,1-6.848-7.5h.658a.652.652,0,0,1,.652.652A.652.652,0,0,1-6.19-6.2Z" transform="translate(40.843 18.937)"/>
      <path id="Línea_587" data-name="Línea 587" d="M-6.19-6.2h-.658A.652.652,0,0,1-7.5-6.848.652.652,0,0,1-6.848-7.5h.658a.652.652,0,0,1,.652.652A.652.652,0,0,1-6.19-6.2Z" transform="translate(37.924 18.937)"/>
    </g>
  </g>
</svg>
