<svg xmlns="http://www.w3.org/2000/svg" width="77" height="77" viewBox="0 0 77 77">
  <g id="Group_1111708" data-name="Group 1111708" transform="translate(-2780 1393)">
    <g id="Group_1111366" data-name="Group 1111366" transform="translate(1759.27 -4486)">
      <g id="Group_1098742" data-name="Group 1098742" transform="translate(1020.73 3093)">
        <rect id="Rectangle_400898" data-name="Rectangle 400898" width="77" height="77" rx="38.5" transform="translate(0 0)" fill="#ccda2d"/>
        <rect id="Rectangle_400907" data-name="Rectangle 400907" width="77" height="77" rx="38.5" transform="translate(0 0)" fill="none"/>
      </g>
    </g>
    <g id="blindaje" transform="translate(2749.588 -1393)">
      <path id="Path_900433" data-name="Path 900433" d="M117.886,61H105.713a21.409,21.409,0,0,1-10.328,6.429V78.835c0,5.527,2.452,10.693,7.288,15.356a35.942,35.942,0,0,0,9.125,6.339,35.893,35.893,0,0,0,9.129-6.339c4.833-4.66,7.284-9.826,7.284-15.355V67.429A21.409,21.409,0,0,1,117.886,61Z" transform="translate(-43.07 -43.095)" fill="#59abff"/>
      <path id="Path_900434" data-name="Path 900434" d="M262.074,61h-6.088v39.529a35.893,35.893,0,0,0,9.129-6.339c4.833-4.66,7.284-9.826,7.284-15.355V67.429A21.41,21.41,0,0,1,262.074,61Z" transform="translate(-187.258 -43.095)" fill="#4a9be5"/>
      <path id="Path_900435" data-name="Path 900435" d="M170.56,136.516l-4.374-7.571-4.371-7.573a2.189,2.189,0,0,0-3.8,0l-4.371,7.572-4.374,7.573a2.191,2.191,0,0,0,1.9,3.287h17.488a2.191,2.191,0,0,0,1.9-3.288Z" transform="translate(-91.188 -96.311)" fill="#ffdf40"/>
      <path id="Path_900436" data-name="Path 900436" d="M264.729,139.8a2.191,2.191,0,0,0,1.9-3.287l-4.374-7.571-4.371-7.573a2.12,2.12,0,0,0-1.9-1.1V139.8Z" transform="translate(-187.256 -96.307)" fill="#ffbe40"/>
      <path id="Path_900437" data-name="Path 900437" d="M68.728,62.668a.816.816,0,0,1-.278-.049A39.155,39.155,0,0,1,56.2,54.629a30.644,30.644,0,0,1-6.346-8.513,23.422,23.422,0,0,1-2.441-10.375V21.1a.818.818,0,0,1,.678-.806c3.785-.656,8.908-2.388,11.815-6.919A.818.818,0,0,1,60.593,13H76.862a.818.818,0,0,1,.688.376c2.911,4.531,8.033,6.264,11.818,6.919a.818.818,0,0,1,.678.806V35.741A23.422,23.422,0,0,1,87.6,46.116a30.641,30.641,0,0,1-6.346,8.513A39.146,39.146,0,0,1,69,62.619.818.818,0,0,1,68.728,62.668ZM49.047,21.78V35.741c0,6.45,2.788,12.409,8.287,17.711a37.816,37.816,0,0,0,11.394,7.527,37.806,37.806,0,0,0,11.4-7.527c5.5-5.3,8.287-11.261,8.287-17.711V21.78A22.605,22.605,0,0,1,81.8,19.419a15.674,15.674,0,0,1-5.374-4.784H61.031a15.658,15.658,0,0,1-5.371,4.784,22.6,22.6,0,0,1-6.613,2.361ZM68.728,59.148a.817.817,0,0,1-.327-.068,37.264,37.264,0,0,1-9.932-6.806,27.493,27.493,0,0,1-5.6-7.437,20.219,20.219,0,0,1-2.187-9.1V23.719a.818.818,0,0,1,.6-.788,19.867,19.867,0,0,0,10.343-6.358.818.818,0,0,1,.634-.3H75.2a.818.818,0,0,1,.635.3,19.87,19.87,0,0,0,10.341,6.358.818.818,0,0,1,.6.788V35.741a20.23,20.23,0,0,1-2.186,9.1,27.48,27.48,0,0,1-5.6,7.436,37.245,37.245,0,0,1-9.936,6.806.817.817,0,0,1-.327.068ZM52.315,24.335V35.741c0,5.527,2.452,10.693,7.288,15.356a35.941,35.941,0,0,0,9.125,6.339A35.893,35.893,0,0,0,77.856,51.1c4.833-4.66,7.284-9.826,7.284-15.355V24.335a21.409,21.409,0,0,1-10.325-6.429H62.643a21.407,21.407,0,0,1-10.328,6.43ZM68.728,36.822a2.342,2.342,0,0,1-2.3-2.257l-.267-5.24a2.416,2.416,0,0,1,.677-1.8,2.606,2.606,0,0,1,3.781,0,2.415,2.415,0,0,1,.677,1.8l-.267,5.237a2.339,2.339,0,0,1-2.3,2.259Zm0-8.473a.976.976,0,0,0-.7.3.8.8,0,0,0-.229.59l.267,5.238a.669.669,0,1,0,1.336,0l.267-5.238a.8.8,0,0,0-.229-.589A.98.98,0,0,0,68.728,28.349Zm0,14a2.3,2.3,0,1,1,2.3-2.3,2.3,2.3,0,0,1-2.3,2.3Zm0-2.972a.668.668,0,1,0,.668.668.668.668,0,0,0-.668-.668Zm8.746,5.75H59.985a3.826,3.826,0,0,1-3.315-5.739l4.374-7.573,4.371-7.572a3.824,3.824,0,0,1,6.627,0h0l4.371,7.573,4.375,7.571a3.826,3.826,0,0,1-3.315,5.74ZM68.728,23.963a2.118,2.118,0,0,0-1.9,1.1L62.46,32.633l-4.374,7.573a2.191,2.191,0,0,0,1.9,3.287H77.473a2.191,2.191,0,0,0,1.9-3.288L75,32.633l-4.371-7.573A2.12,2.12,0,0,0,68.728,23.963Z"/>
      <path id="Path_900438" data-name="Path 900438" d="M250.113,271.1a.668.668,0,1,0,.668.668A.668.668,0,0,0,250.113,271.1Z" transform="translate(-181.386 -231.723)" fill="#ec4c36"/>
      <path id="Path_900439" data-name="Path 900439" d="M247.783,170.026a.7.7,0,0,0,.669-.706l.267-5.238a.8.8,0,0,0-.229-.589.971.971,0,0,0-1.411,0,.8.8,0,0,0-.229.59l.267,5.238A.7.7,0,0,0,247.783,170.026Z" transform="translate(-179.056 -134.839)" fill="#ec4c36"/>
      <path id="Path_900440" data-name="Path 900440" d="M71.7,67.817a37.817,37.817,0,0,0,11.394,7.527,37.806,37.806,0,0,0,11.4-7.527c5.5-5.3,8.287-11.261,8.287-17.711V36.145a22.605,22.605,0,0,1-6.613-2.361A15.674,15.674,0,0,1,90.789,29H75.4a15.658,15.658,0,0,1-5.371,4.784,22.608,22.608,0,0,1-6.613,2.361V50.106C63.412,56.556,66.2,62.515,71.7,67.817ZM65.044,50.106V38.084a.818.818,0,0,1,.6-.788,19.867,19.867,0,0,0,10.343-6.358.818.818,0,0,1,.635-.3h12.94a.818.818,0,0,1,.635.3A19.87,19.87,0,0,0,100.54,37.3a.818.818,0,0,1,.6.788V50.106a20.23,20.23,0,0,1-2.186,9.1,27.48,27.48,0,0,1-5.6,7.436,37.245,37.245,0,0,1-9.936,6.806.818.818,0,0,1-.655,0,37.264,37.264,0,0,1-9.932-6.806,27.493,27.493,0,0,1-5.6-7.437,20.214,20.214,0,0,1-2.188-9.1Z" transform="translate(-14.365 -14.365)" fill="#bec7cf"/>
      <path id="Path_900441" data-name="Path 900441" d="M263.682,29h-7.7v1.635h6.472a.817.817,0,0,1,.635.3A19.87,19.87,0,0,0,273.433,37.3a.818.818,0,0,1,.6.788V50.106a20.23,20.23,0,0,1-2.186,9.1,27.479,27.479,0,0,1-5.6,7.436,37.245,37.245,0,0,1-9.936,6.806.818.818,0,0,1-.327.068v1.83a37.805,37.805,0,0,0,11.4-7.527c5.5-5.3,8.287-11.261,8.287-17.711V36.145a22.606,22.606,0,0,1-6.613-2.361A15.673,15.673,0,0,1,263.682,29Z" transform="translate(-187.258 -14.365)" fill="#abb3ba"/>
    </g>
  </g>
</svg>
