<svg xmlns="http://www.w3.org/2000/svg" width="85" height="86" viewBox="0 0 85 86">
  <g id="Group_1111712" data-name="Group 1111712" transform="translate(-181 -709)">
    <rect id="Rectangle_404131" data-name="Rectangle 404131" width="85" height="86" rx="8" transform="translate(181 709)" fill="#ccda2d"/>
    <g id="contingencia" transform="translate(165.81 716.189)">
      <g id="Group_1111711" data-name="Group 1111711" transform="translate(27.842 0.941)">
        <path id="Path_900493" data-name="Path 900493" d="M76.624,64.973h39.034a5.757,5.757,0,0,1,5.741,5.741v51.838a1.558,1.558,0,0,1-1.558,1.559H88.106a5.757,5.757,0,0,1-5.741-5.741V74.09Z" transform="translate(-70.883 -57.182)" fill="#eaf6ff" fill-rule="evenodd"/>
        <path id="Path_900494" data-name="Path 900494" d="M33.906,93.724H45.388V70.714a5.741,5.741,0,0,0-11.482,0Z" transform="translate(-33.906 -57.182)" fill="#d3dde6" fill-rule="evenodd"/>
        <path id="Path_900495" data-name="Path 900495" d="M167.8,422.96h33.876v5.513a5.528,5.528,0,0,1-5.513,5.513h-34.1a5.757,5.757,0,0,0,5.741-5.741Z" transform="translate(-144.836 -367.057)" fill="#d3dde6" fill-rule="evenodd"/>
        <path id="Path_900496" data-name="Path 900496" d="M188.424,97.18l5.543,9.6,5.539,9.6a.853.853,0,0,1-.739,1.28H176.6a.853.853,0,0,1-.739-1.28l5.543-9.6,5.539-9.6a.854.854,0,0,1,1.478,0Z" transform="translate(-156.686 -84.692)" fill="#fea832" fill-rule="evenodd"/>
        <path id="Path_900497" data-name="Path 900497" d="M253.23,142.9h2.046a.528.528,0,0,1,.575.491L255.425,150a.55.55,0,0,1-.575.488h-1.192a.556.556,0,0,1-.579-.488l-.427-6.606A.532.532,0,0,1,253.23,142.9Z" transform="translate(-223.252 -124.636)" fill="#eaf6ff" fill-rule="evenodd"/>
        <path id="Path_900498" data-name="Path 900498" d="M256.218,218.253a1.3,1.3,0,1,0-1.3-1.3A1.3,1.3,0,0,0,256.218,218.253Z" transform="translate(-225.219 -187.619)" fill="#fff" fill-rule="evenodd"/>
        <path id="Path_900499" data-name="Path 900499" d="M334.226,27.733A10.364,10.364,0,1,0,323.864,17.37,10.365,10.365,0,0,0,334.226,27.733Z" transform="translate(-284.894 -7.004)" fill="#9eceb6" fill-rule="evenodd"/>
        <path id="Path_900500" data-name="Path 900500" d="M392.148,7.074a10.366,10.366,0,0,1,2.37,20.035,10.19,10.19,0,0,1-2.37.556A10.364,10.364,0,1,0,393.333,7a10.154,10.154,0,0,0-1.185.069Z" transform="translate(-344.001 -7.005)" fill="#3eac5a" fill-rule="evenodd"/>
        <path id="Path_900501" data-name="Path 900501" d="M391.78,160.7v35.247H394.2V160.7a10.276,10.276,0,0,1-2.37,0,.228.228,0,0,1-.049,0Z" transform="translate(-343.683 -140.043)" fill="#d3dde6" fill-rule="evenodd"/>
        <path id="Path_900502" data-name="Path 900502" d="M257.077,97.644l5.273,9.132,5.539,9.6a.853.853,0,0,1-.739,1.28h2.016a.853.853,0,0,0,.739-1.28l-5.539-9.6-5.544-9.6a.854.854,0,0,0-1.478,0Z" transform="translate(-227.083 -84.687)" fill="#e5972d" fill-rule="evenodd"/>
      </g>
      <path id="Path_900503" data-name="Path 900503" d="M84.682,55.9H79.3V22.408A11.3,11.3,0,1,0,66.431,7.791H33.583A6.69,6.69,0,0,0,26.9,14.473v23.01a.941.941,0,0,0,.941.941H38.383v23.7a6.69,6.69,0,0,0,6.682,6.683h34.1a6.461,6.461,0,0,0,6.454-6.454V56.84a.941.941,0,0,0-.941-.941ZM77.173,1.882A9.423,9.423,0,1,1,67.752,11.3a9.424,9.424,0,0,1,9.421-9.422ZM28.783,36.542V14.473a4.805,4.805,0,0,1,4.8-4.8h.165l.033,0a4.847,4.847,0,0,1,4.6,4.8V36.542ZM45.065,66.928a4.805,4.805,0,0,1-4.8-4.8V14.473a6.663,6.663,0,0,0-2.026-4.8H65.989A11.3,11.3,0,0,0,77.173,22.61c.082,0,.162,0,.244-.006V55.9H50.806a.941.941,0,0,0-.941.941v5.288a4.805,4.805,0,0,1-4.8,4.8Zm38.676-4.572a4.577,4.577,0,0,1-4.572,4.572H49.71a6.663,6.663,0,0,0,2.038-4.8V57.782H83.741ZM47.758,34.847H69.923a1.794,1.794,0,0,0,1.554-2.691l-5.54-9.6-5.543-9.6a1.794,1.794,0,0,0-3.108,0L46.2,32.155a1.794,1.794,0,0,0,1.554,2.692ZM58.841,14.031,64.308,23.5l5.464,9.469H47.91Zm1.025,4.233h-2.05a1.572,1.572,0,0,0-1.142.482,1.341,1.341,0,0,0-.372,1.008l.427,6.611a1.485,1.485,0,0,0,1.518,1.367h1.192a1.5,1.5,0,0,0,1.514-1.372l.426-6.6a1.325,1.325,0,0,0-.363-1.006,1.572,1.572,0,0,0-1.151-.489ZM59.1,25.849h-.519l-.368-5.7h1.256Zm-.259,2.194a2.236,2.236,0,1,0,2.236,2.236,2.236,2.236,0,0,0-2.236-2.236Zm0,2.591a.359.359,0,0,1-.354-.354.354.354,0,1,1,.708,0,.359.359,0,0,1-.355.354ZM49.176,51.5a.941.941,0,0,1-.941.941H44.269a.941.941,0,1,1,0-1.882h3.966a.941.941,0,0,1,.941.941Zm25.178,0a.941.941,0,0,1-.941.941H51.728a.941.941,0,1,1,0-1.882H73.413a.941.941,0,0,1,.941.941ZM49.176,45.59a.941.941,0,0,1-.941.941H44.269a.941.941,0,1,1,0-1.882h3.966a.941.941,0,0,1,.941.941Zm25.178,0a.941.941,0,0,1-.941.941H51.728a.941.941,0,1,1,0-1.882H73.413a.941.941,0,0,1,.941.941ZM51.728,38.744H73.413a.941.941,0,1,1,0,1.882H51.728a.941.941,0,0,1,0-1.882Zm-2.552.941a.941.941,0,0,1-.941.941H44.269a.941.941,0,0,1,0-1.882h3.966a.941.941,0,0,1,.941.941ZM71.071,13A.941.941,0,1,1,72.4,11.667l2.272,2.272,7.271-7.267A.941.941,0,0,1,83.275,8L75.34,15.935a.941.941,0,0,1-1.331,0Z" transform="translate(0 0)"/>
    </g>
  </g>
</svg>
