<svg xmlns="http://www.w3.org/2000/svg" width="77" height="77" viewBox="0 0 77 77">
  <g id="Group_1111713" data-name="Group 1111713" transform="translate(-435 -916)">
    <g id="Group_1111398" data-name="Group 1111398" transform="translate(-585.73 -2177)">
      <g id="Group_1098742" data-name="Group 1098742" transform="translate(1020.73 3093)">
        <rect id="Rectangle_400898" data-name="Rectangle 400898" width="77" height="77" rx="38.5" transform="translate(0 0)" fill="#ccda2d"/>
        <rect id="Rectangle_400907" data-name="Rectangle 400907" width="77" height="77" rx="38.5" transform="translate(0 0)" fill="none"/>
      </g>
    </g>
    <g id="vacuna" transform="translate(450.999 933)">
      <rect id="Rectangle_404346" data-name="Rectangle 404346" width="5.262" height="10.524" transform="translate(11.51 25.771) rotate(-45)" fill="#cdf2fb"/>
      <path id="Path_900504" data-name="Path 900504" d="M193.927,115.389l-5.645-5.645a1.27,1.27,0,0,0-1.8,0L174.36,121.869l7.442,7.442,12.125-12.125A1.271,1.271,0,0,0,193.927,115.389Z" transform="translate(-159.129 -99.819)" fill="#9cd2fc"/>
      <path id="Path_900505" data-name="Path 900505" d="M136.792,253.753l-1.31-1.31-3.721,3.721,7.442,7.442,1.31-1.31-5.205-5.205a1.31,1.31,0,0,1,0-1.853Z" transform="translate(-120.251 -230.393)" fill="#a7eafa"/>
      <path id="Path_900506" data-name="Path 900506" d="M188.693,110.156l-.412-.412a1.27,1.27,0,0,0-1.8,0L174.36,121.869l1.31,1.31Z" transform="translate(-159.129 -99.819)" fill="#8cb7e8"/>
      <path id="Path_900507" data-name="Path 900507" d="M361.442,334.4H350.5a1.31,1.31,0,0,1-1.31-1.31V320.833a2.708,2.708,0,0,1,2.708-2.708h8.151a2.708,2.708,0,0,1,2.708,2.708v12.261A1.31,1.31,0,0,1,361.442,334.4Z" transform="translate(-318.684 -290.337)" fill="#f8f6f6"/>
      <path id="Path_900508" data-name="Path 900508" d="M351.806,333.094V320.833a2.708,2.708,0,0,1,2.708-2.708h-2.62a2.708,2.708,0,0,0-2.708,2.708v12.261a1.31,1.31,0,0,0,1.31,1.31h2.62A1.31,1.31,0,0,1,351.806,333.094Z" transform="translate(-318.684 -290.337)" fill="#ece6e3"/>
      <rect id="Rectangle_404347" data-name="Rectangle 404347" width="8.14" height="2.713" transform="translate(33.215 22.361)" fill="#f3d57a"/>
      <rect id="Rectangle_404348" data-name="Rectangle 404348" width="2.62" height="2.713" transform="translate(33.215 22.361)" fill="#eebe3b"/>
      <rect id="Rectangle_404349" data-name="Rectangle 404349" width="5.427" height="2.713" transform="translate(34.725 25.071)" fill="#ece6e3"/>
      <rect id="Rectangle_404350" data-name="Rectangle 404350" width="2.62" height="2.713" transform="translate(34.725 25.071)" fill="#d8d0cb"/>
      <path id="Path_900509" data-name="Path 900509" d="M105.089,291.529l-9.3-9.3a1.315,1.315,0,0,1,0-1.86h0a1.315,1.315,0,0,1,1.86,0l9.3,9.3a1.315,1.315,0,0,1,0,1.86h0A1.315,1.315,0,0,1,105.089,291.529Z" transform="translate(-87.067 -255.525)" fill="#f8f6f6"/>
      <path id="Path_900510" data-name="Path 900510" d="M106.836,291.529l-9.3-9.3a1.315,1.315,0,0,1,0-1.86q.028-.028.057-.054a1.316,1.316,0,0,0-1.8,1.914l9.3,9.3a1.316,1.316,0,0,0,1.8.053Q106.864,291.557,106.836,291.529Z" transform="translate(-87.067 -255.525)" fill="#ece6e3"/>
      <path id="Path_900511" data-name="Path 900511" d="M15.329,416.446l-5.581-5.581a1.315,1.315,0,0,0-1.86,0h0a1.315,1.315,0,0,0,0,1.86l5.581,5.581a1.315,1.315,0,0,0,1.86,0h0A1.316,1.316,0,0,0,15.329,416.446Z" transform="translate(-6.845 -374.625)" fill="#f8f6f6"/>
      <path id="Path_900512" data-name="Path 900512" d="M15.214,418.309l-5.581-5.581a1.315,1.315,0,0,1,0-1.86h0q.028-.028.057-.053a1.316,1.316,0,0,0-1.8.053h0a1.315,1.315,0,0,0,0,1.86l5.581,5.581a1.316,1.316,0,0,0,1.8.053Q15.242,418.336,15.214,418.309Z" transform="translate(-6.844 -374.627)" fill="#ece6e3"/>
      <rect id="Rectangle_404351" data-name="Rectangle 404351" width="5.262" height="10.858" transform="translate(11.511 29.492) rotate(45)" fill="#f8f6f6"/>
      <path id="Path_900513" data-name="Path 900513" d="M47.409,344.391l5.441-5.441-1.31-1.31-7.678,7.678,3.721,3.721,1.31-1.31-1.484-1.484A1.31,1.31,0,0,1,47.409,344.391Z" transform="translate(-40.029 -308.148)" fill="#ece6e3"/>
      <rect id="Rectangle_404352" data-name="Rectangle 404352" width="5.262" height="2.631" transform="translate(31.976 9.027) rotate(45)" fill="#f8f6f6"/>
      <path id="Path_900514" data-name="Path 900514" d="M346.935,104.775l.555-.555-.873-.873-1.86,1.86,3.721,3.721.873-.873-2.415-2.415A.611.611,0,0,1,346.935,104.775Z" transform="translate(-314.641 -94.32)" fill="#ece6e3"/>
      <path id="Path_900515" data-name="Path 900515" d="M378.565,18.663,376.7,16.8l9.3-9.3v3.721Z" transform="translate(-343.799 -6.845)" fill="#ece6e3"/>
      <path id="Trazado_900516" data-name="Trazado 900516" d="M132.356,126.84a.655.655,0,0,1-.463-.192l-7.442-7.442a.655.655,0,0,1,0-.926l9.441-9.441a.655.655,0,0,1,.926.926l-8.978,8.978,6.516,6.516,15.383-15.383a.616.616,0,0,0,0-.87l-5.645-5.645a.615.615,0,0,0-.87,0l-4.386,4.386a.655.655,0,1,1-.926-.926l4.386-4.386a1.926,1.926,0,0,1,2.723,0l5.645,5.645a1.928,1.928,0,0,1,0,2.723l-15.846,15.846A.655.655,0,0,1,132.356,126.84Z" transform="translate(-113.404 -92.972)"/>
      <path id="Trazado_900517" data-name="Trazado 900517" d="M99.174,285.724a1.958,1.958,0,0,1-1.393-.577l-9.3-9.3a1.971,1.971,0,1,1,2.787-2.787l9.3,9.3a1.971,1.971,0,0,1-1.393,3.364Zm-9.3-11.933a.66.66,0,0,0-.467,1.127l9.3,9.3a.66.66,0,1,0,.934-.934l-9.3-9.3A.656.656,0,0,0,89.872,273.791Z" transform="translate(-80.222 -248.68)"/>
      <path id="Trazado_900518" data-name="Trazado 900518" d="M7.554,412.5a1.958,1.958,0,0,1-1.393-.577L.579,406.344a1.971,1.971,0,1,1,2.787-2.787l5.581,5.581A1.971,1.971,0,0,1,7.554,412.5ZM1.972,404.29a.66.66,0,0,0-.467,1.127L7.087,411a.66.66,0,1,0,.934-.934l-5.581-5.581A.656.656,0,0,0,1.972,404.29Z" transform="translate(0 -367.78)"/>
      <path id="Trazado_900519" data-name="Trazado 900519" d="M40.735,342.849a.655.655,0,0,1-.463-.192l-3.721-3.721a.655.655,0,0,1,0-.926l7.678-7.678a.655.655,0,0,1,.926,0l3.721,3.721a.655.655,0,0,1,0,.926l-2.793,2.793a.655.655,0,0,1-.926-.926l2.329-2.329-2.795-2.795-6.751,6.751,2.795,2.795,2.4-2.4a.655.655,0,1,1,.926.926L41.2,342.657A.655.655,0,0,1,40.735,342.849Z" transform="translate(-33.182 -301.303)"/>
      <path id="Rectángulo_404353" data-name="Rectángulo 404353" d="M.655,0H5.917a.655.655,0,0,1,.655.655V3.286a.655.655,0,0,1-.655.655H.655A.655.655,0,0,1,0,3.286V.655A.655.655,0,0,1,.655,0ZM5.262,1.31H1.31V2.631H5.262Z" transform="translate(31.976 8.1) rotate(45)"/>
      <path id="Trazado_900520" data-name="Trazado 900520" d="M371.721,12.473a.653.653,0,0,1-.463-.192l-1.86-1.86a.655.655,0,0,1,0-.926l9.3-9.3a.655.655,0,0,1,1.118.463V4.376a.655.655,0,0,1-.192.463l-7.442,7.442A.653.653,0,0,1,371.721,12.473Zm-.934-2.516.934.934L378.507,4.1V2.236Z" transform="translate(-336.954 0)"/>
      <path id="Línea_565" data-name="Línea 565" d="M-4.054-3.4a.653.653,0,0,1-.463-.192L-7.308-6.382a.655.655,0,0,1,0-.926.655.655,0,0,1,.926,0l2.791,2.791a.655.655,0,0,1,0,.926A.653.653,0,0,1-4.054-3.4Z" transform="translate(36.03 24.244)"/>
      <path id="Línea_566" data-name="Línea 566" d="M-4.054-3.4a.653.653,0,0,1-.463-.192L-7.308-6.382a.655.655,0,0,1,0-.926.655.655,0,0,1,.926,0l2.791,2.791a.655.655,0,0,1,0,.926A.653.653,0,0,1-4.054-3.4Z" transform="translate(32.309 27.965)"/>
      <path id="Línea_567" data-name="Línea 567" d="M-4.054-3.4a.653.653,0,0,1-.463-.192L-7.308-6.382a.655.655,0,0,1,0-.926.655.655,0,0,1,.926,0l2.791,2.791a.655.655,0,0,1,0,.926A.653.653,0,0,1-4.054-3.4Z" transform="translate(28.588 31.686)"/>
      <path id="Línea_568" data-name="Línea 568" d="M.6,1.252A.653.653,0,0,1,.134,1.06L-7.308-6.382a.655.655,0,0,1,0-.926.655.655,0,0,1,.926,0L1.06.134A.655.655,0,0,1,.6,1.252Z" transform="translate(22.076 28.895)"/>
      <path id="Trazado_900521" data-name="Trazado 900521" d="M354.6,328.21H343.654a1.968,1.968,0,0,1-1.965-1.965v-5.4a.655.655,0,1,1,1.31,0v5.4a.656.656,0,0,0,.655.655H354.6a.656.656,0,0,0,.655-.655V313.983a2.055,2.055,0,0,0-2.053-2.053h-8.15A2.055,2.055,0,0,0,343,313.983v4a.655.655,0,0,1-1.31,0v-4a3.367,3.367,0,0,1,3.363-3.363h8.15a3.367,3.367,0,0,1,3.363,3.363v12.262A1.968,1.968,0,0,1,354.6,328.21Z" transform="translate(-311.842 -283.488)"/>
      <path id="Rectángulo_404354" data-name="Rectángulo 404354" d="M-6.845-7.5h8.14a.655.655,0,0,1,.655.655v2.713a.655.655,0,0,1-.655.655h-8.14A.655.655,0,0,1-7.5-4.132V-6.845A.655.655,0,0,1-6.845-7.5ZM.64-6.19H-6.19v1.4H.64Z" transform="translate(40.06 29.206)"/>
      <path id="Rectángulo_404355" data-name="Rectángulo 404355" d="M-6.845-7.5h5.427a.655.655,0,0,1,.655.655v2.713a.655.655,0,0,1-.655.655H-6.845A.655.655,0,0,1-7.5-4.132V-6.845A.655.655,0,0,1-6.845-7.5Zm4.771,1.31H-6.19v1.4h4.116Z" transform="translate(41.57 31.916)"/>
      <path id="Path_900522" data-name="Path 900522" d="M389.159,377.879l.187-3.271a.544.544,0,0,0-.87-.466L387,375.246a3.237,3.237,0,0,0-3.177,0l-1.474-1.105a.544.544,0,0,0-.87.466l.187,3.273a4.048,4.048,0,0,0-.22,1.284c0,2.024,1.775,3,3.965,3s3.965-.972,3.965-3A4.044,4.044,0,0,0,389.159,377.879Z" transform="translate(-348.13 -341.361)" fill="#f3d57a"/>
      <path id="Trazado_900523" data-name="Trazado 900523" d="M375.181,366.532a1.207,1.207,0,0,1,.72.24l1.156.867a3.863,3.863,0,0,1,3.025,0l1.156-.867a1.2,1.2,0,0,1,1.917,1.028l-.18,3.149a4.631,4.631,0,0,1,.215,1.369c0,2.218-1.813,3.652-4.62,3.652s-4.62-1.433-4.62-3.652a4.635,4.635,0,0,1,.214-1.368l-.18-3.151a1.2,1.2,0,0,1,1.2-1.268Zm3.388,8.128c.776,0,3.31-.169,3.31-2.342a3.376,3.376,0,0,0-.186-1.075.655.655,0,0,1-.033-.247l.175-3.06-1.284.988a.655.655,0,0,1-.7.052,2.593,2.593,0,0,0-2.554,0,.655.655,0,0,1-.7-.052l-1.283-.962.174,3.034a.655.655,0,0,1-.033.246,3.377,3.377,0,0,0-.186,1.075C375.26,374.491,377.793,374.66,378.57,374.66Z" transform="translate(-341.285 -334.516)"/>
      <path id="Línea_569" data-name="Línea 569" d="M-4.132-6.19H-6.845A.655.655,0,0,1-7.5-6.845.655.655,0,0,1-6.845-7.5h2.713a.655.655,0,0,1,.655.655A.655.655,0,0,1-4.132-6.19Z" transform="translate(42.774 37.346)"/>
    </g>
  </g>
</svg>
