<svg xmlns="http://www.w3.org/2000/svg" width="77" height="77" viewBox="0 0 77 77">
  <g id="Group_1111727" data-name="Group 1111727" transform="translate(-1068 -916)">
    <g id="Group_1111400" data-name="Group 1111400" transform="translate(47.27 -2177)">
      <g id="Group_1098742" data-name="Group 1098742" transform="translate(1020.73 3093)">
        <rect id="Rectangle_400898" data-name="Rectangle 400898" width="77" height="77" rx="38.5" transform="translate(0 0)" fill="#ccda2d"/>
        <rect id="Rectangle_400907" data-name="Rectangle 400907" width="77" height="77" rx="38.5" transform="translate(0 0)" fill="none"/>
      </g>
    </g>
    <g id="clima" transform="translate(1056.929 929)">
      <path id="Path_900534" data-name="Path 900534" d="M169.233,343.765h-2.686a.365.365,0,0,1-.274-.606l3.538-3.769h-7.034l-4.6,4.941a.608.608,0,0,0,.445,1.023h3.122a.365.365,0,0,1,.294.582l-7.087,9.6a.365.365,0,0,0,.52.5L169.61,344.85A.608.608,0,0,0,169.233,343.765Z" transform="translate(-115.752 -304.99)" fill="#ffd15b"/>
      <g id="Group_1111715" data-name="Group 1111715" transform="translate(39.127 34.4)">
        <path id="Path_900535" data-name="Path 900535" d="M235.245,343.765h3.194a.365.365,0,0,1-.274-.606l3.538-3.769H238.51l-3.538,3.769A.365.365,0,0,0,235.245,343.765Z" transform="translate(-226.771 -339.39)" fill="#ffc344"/>
        <path id="Path_900536" data-name="Path 900536" d="M169.232,382.553h-1.445l-9.97,7.894-2.864,3.881a.365.365,0,0,0,.52.5l14.136-11.193A.608.608,0,0,0,169.232,382.553Z" transform="translate(-154.878 -378.178)" fill="#ffc344"/>
      </g>
      <path id="Trazado_900537" data-name="Trazado 900537" d="M148.512,351.044a1.129,1.129,0,0,1-.9-1.8l3.82-5.178a.76.76,0,1,1,1.223.9l-2.063,2.8,11.473-9.084h-2.249a1.125,1.125,0,0,1-.844-1.869l2.257-2.4h-4.946l-4.04,4.342h2.773a1.125,1.125,0,0,1,.905,1.793l-1.156,1.566a.76.76,0,0,1-1.223-.9l.691-.936h-2.34a1.368,1.368,0,0,1-1-2.3l4.5-4.84a.76.76,0,0,1,.557-.242h7.033a.76.76,0,0,1,.554,1.28l-2.81,2.993H162.5a1.368,1.368,0,0,1,.85,2.441L149.211,350.8A1.124,1.124,0,0,1,148.512,351.044Z" transform="translate(-109.017 -299.148)"/>
      <path id="Path_900538" data-name="Path 900538" d="M79.46,92.1h1.692l.013-.086a6.956,6.956,0,0,1,6.871-5.875,6.881,6.881,0,0,1,3.123.741l.069.035.052-.057A9.253,9.253,0,0,1,93.03,85.36a8.637,8.637,0,1,0-15.441,7.012A6.5,6.5,0,0,1,79.46,92.1Z" transform="translate(-44.862 -70.754)" fill="#ffd15b"/>
      <g id="Group_1111716" data-name="Group 1111716" transform="translate(35.459 7.981)">
        <path id="Path_900539" data-name="Path 900539" d="M123,78.735a8.594,8.594,0,0,0-4.31,1.153,8.9,8.9,0,0,1,10.051,6.65,7.022,7.022,0,0,1,.789.338l.069.035.052-.057A9.253,9.253,0,0,1,131.4,85.36,8.639,8.639,0,0,0,123,78.735Z" transform="translate(-118.69 -78.735)" fill="#ffc344"/>
      </g>
      <path id="Trazado_900540" data-name="Trazado 900540" d="M126.872,79.274a.76.76,0,0,1-.737-.574A7.876,7.876,0,0,0,114.8,73.678a.76.76,0,1,1-.715-1.342,9.4,9.4,0,0,1,13.523,5.991.761.761,0,0,1-.738.946Z" transform="translate(-78.732 -64.015)"/>
      <path id="Trazado_900541" data-name="Trazado 900541" d="M70.79,115.451a.759.759,0,0,1-.625-.327,9.385,9.385,0,0,1,.351-11.167.76.76,0,0,1,1.193.943,7.864,7.864,0,0,0-.294,9.358.76.76,0,0,1-.624,1.193Z" transform="translate(-38.122 -93.16)"/>
      <path id="Path_900542" data-name="Path 900542" d="M82.781,136.47a3.9,3.9,0,0,1-.417,1.05,3.846,3.846,0,0,1-6.662-3.846l1.451-2.512a9.363,9.363,0,0,0-13.99-.153,7.056,7.056,0,0,0-10.14,5.209H51.416a6.63,6.63,0,1,0,0,13.261H80.979a6.629,6.629,0,0,0,1.8-13.008Z" transform="translate(-16.818 -114.977)" fill="#c8effe"/>
      <g id="Group_1111717" data-name="Group 1111717" transform="translate(60.991 21.494)">
        <path id="Path_900543" data-name="Path 900543" d="M375.558,212.053a3.9,3.9,0,0,1-.417,1.05c-.066.114-.138.223-.214.328a6.622,6.622,0,0,1-4.341,11.63h3.17a6.629,6.629,0,0,0,1.8-13.008Z" transform="translate(-370.586 -212.053)" fill="#99e6fc"/>
      </g>
      <path id="Trazado_900544" data-name="Trazado 900544" d="M74.239,143.5H44.677a7.391,7.391,0,1,1,0-14.781h.982a7.82,7.82,0,0,1,10.591-5.365,10.121,10.121,0,0,1,14.66.484.76.76,0,1,1-1.135,1.012,8.6,8.6,0,0,0-12.789-.068.76.76,0,0,1-.9.167,6.3,6.3,0,0,0-9.047,4.647.76.76,0,0,1-.751.643H44.677a5.87,5.87,0,0,0,0,11.74H74.239a5.868,5.868,0,0,0,1.679-11.491.76.76,0,1,1,.438-1.456A7.388,7.388,0,0,1,74.239,143.5Z" transform="translate(-10.078 -108.237)"/>
      <g id="Group_1111724" data-name="Group 1111724" transform="translate(26.071 2.92)">
        <g id="Group_1111718" data-name="Group 1111718" transform="translate(10.645)">
          <path id="Línea_565" data-name="Línea 565" d="M-6.53-4.783a.76.76,0,0,1-.748-.628l-.212-1.2a.76.76,0,0,1,.616-.881.76.76,0,0,1,.881.616l.212,1.2a.76.76,0,0,1-.616.881A.765.765,0,0,1-6.53-4.783Z" transform="translate(7.501 7.501)"/>
        </g>
        <g id="Group_1111719" data-name="Group 1111719" transform="translate(0 15.018)">
          <path id="Línea_566" data-name="Línea 566" d="M-6.742-5.768A.76.76,0,0,1-7.489-6.4a.76.76,0,0,1,.616-.881l1.2-.212a.76.76,0,0,1,.881.616.76.76,0,0,1-.616.881l-1.2.212A.765.765,0,0,1-6.742-5.768Z" transform="translate(7.501 7.501)"/>
        </g>
        <g id="Group_1111720" data-name="Group 1111720" transform="translate(4.483 2.88)">
          <path id="Línea_567" data-name="Línea 567" d="M-5.957-5.048a.759.759,0,0,1-.582-.271l-.783-.931a.76.76,0,0,1,.093-1.071.76.76,0,0,1,1.071.093l.783.931a.76.76,0,0,1-.093,1.071A.757.757,0,0,1-5.957-5.048Z" transform="translate(7.5 7.5)"/>
        </g>
        <g id="Group_1111721" data-name="Group 1111721" transform="translate(22.064 4.483)">
          <path id="Línea_568" data-name="Línea 568" d="M-6.74-5.2a.759.759,0,0,1-.582-.271.76.76,0,0,1,.093-1.071l.931-.783a.76.76,0,0,1,1.071.093A.76.76,0,0,1-5.32-6.158l-.931.783A.757.757,0,0,1-6.74-5.2Z" transform="translate(7.5 7.5)"/>
        </g>
        <g id="Group_1111722" data-name="Group 1111722" transform="translate(0.587 8.454)">
          <path id="Línea_569" data-name="Línea 569" d="M-5.6-5.566a.759.759,0,0,1-.259-.046L-7-6.027A.76.76,0,0,1-7.456-7a.76.76,0,0,1,.974-.455l1.144.415a.76.76,0,0,1,.455.974A.761.761,0,0,1-5.6-5.566Z" transform="translate(7.502 7.502)"/>
        </g>
        <g id="Group_1111723" data-name="Group 1111723" transform="translate(17.005 0.587)">
          <path id="Línea_570" data-name="Línea 570" d="M-6.742-4.838A.759.759,0,0,1-7-4.883a.76.76,0,0,1-.455-.974L-7.041-7a.76.76,0,0,1,.974-.455.76.76,0,0,1,.455.974l-.415,1.144A.761.761,0,0,1-6.742-4.838Z" transform="translate(7.502 7.502)"/>
        </g>
      </g>
      <path id="Path_900545" data-name="Path 900545" d="M347.342,128.7l-3.155,5.465a3.948,3.948,0,0,0,3.419,5.922h0a3.948,3.948,0,0,0,3.419-5.922l-3.155-5.465A.3.3,0,0,0,347.342,128.7Z" transform="translate(-285.391 -115.515)" fill="#8ac9fe"/>
      <path id="Path_900546" data-name="Path 900546" d="M373.2,134.163l-3.156-5.466a.3.3,0,0,0-.527,0l-1.189,2.059,1.967,3.407a3.952,3.952,0,0,1-1.967,5.649,3.954,3.954,0,0,0,1.452.273h0A3.948,3.948,0,0,0,373.2,134.163Z" transform="translate(-307.57 -115.516)" fill="#60b7ff"/>
      <path id="Trazado_900547" data-name="Trazado 900547" d="M340.884,134.1a4.671,4.671,0,0,1-2.664-.82.76.76,0,0,1,.863-1.252,3.19,3.19,0,0,0,4.562-4.229l-2.76-4.781-2.76,4.781a3.125,3.125,0,0,0-.428,1.718.76.76,0,1,1-1.519.064,4.687,4.687,0,0,1,.631-2.541l3.156-5.465a1.064,1.064,0,0,1,1.843,0l3.156,5.466a4.708,4.708,0,0,1-4.077,7.062Z" transform="translate(-278.669 -108.776)"/>
      <path id="Path_900548" data-name="Path 900548" d="M432.254,79.486,430.4,82.7a2.447,2.447,0,0,0,2.119,3.671h0a2.447,2.447,0,0,0,2.119-3.671l-1.856-3.215A.3.3,0,0,0,432.254,79.486Z" transform="translate(-363.047 -71.293)" fill="#8ac9fe"/>
      <path id="Path_900549" data-name="Path 900549" d="M447.189,82.7l-1.856-3.215a.3.3,0,0,0-.527,0l-.772,1.337,1.084,1.878a2.45,2.45,0,0,1-1.084,3.444,2.439,2.439,0,0,0,1.035.227h0A2.447,2.447,0,0,0,447.189,82.7Z" transform="translate(-375.599 -71.293)" fill="#60b7ff"/>
      <path id="Trazado_900550" data-name="Trazado 900550" d="M425.764,71.834a1.067,1.067,0,0,1,.922.532l1.856,3.215a3.208,3.208,0,1,1-5.556,0l1.856-3.215A1.067,1.067,0,0,1,425.764,71.834Zm0,7.038a1.687,1.687,0,0,0,1.461-2.531l-1.461-2.531L424.3,76.341a1.687,1.687,0,0,0,1.461,2.531Z" transform="translate(-356.294 -64.553)"/>
      <path id="Path_900551" data-name="Path 900551" d="M339.483,7.652l-1.856,3.215a2.447,2.447,0,0,0,2.119,3.671h0a2.447,2.447,0,0,0,2.119-3.671L340.01,7.652A.3.3,0,0,0,339.483,7.652Z" transform="translate(-279.679 -6.74)" fill="#8ac9fe"/>
      <path id="Path_900552" data-name="Path 900552" d="M354.314,10.867l-1.856-3.215a.3.3,0,0,0-.527,0l-.783,1.357,1.073,1.858a2.45,2.45,0,0,1-1.073,3.438,2.437,2.437,0,0,0,1.047.233h0A2.447,2.447,0,0,0,354.314,10.867Z" transform="translate(-292.128 -6.74)" fill="#60b7ff"/>
      <path id="Trazado_900553" data-name="Trazado 900553" d="M332.993,0a1.067,1.067,0,0,1,.922.532l1.856,3.215a3.207,3.207,0,1,1-5.556,0L332.072.532A1.067,1.067,0,0,1,332.993,0Zm0,7.038a1.687,1.687,0,0,0,1.461-2.531l-1.461-2.531-1.461,2.531a1.687,1.687,0,0,0,1.461,2.531Z" transform="translate(-272.926)"/>
      <g id="Group_1111725" data-name="Group 1111725" transform="translate(27.409 37.115)">
        <path id="Línea_571" data-name="Línea 571" d="M-6.74-5.006a.758.758,0,0,1-.538-.223.76.76,0,0,1,0-1.075l.973-.973a.76.76,0,0,1,1.075,0,.76.76,0,0,1,0,1.075l-.973.973A.758.758,0,0,1-6.74-5.006Z" transform="translate(7.5 7.5)"/>
        <path id="Línea_572" data-name="Línea 572" d="M-6.74-5.006a.758.758,0,0,1-.538-.223.76.76,0,0,1,0-1.075l.973-.973a.76.76,0,0,1,1.075,0,.76.76,0,0,1,0,1.075l-.973.973A.758.758,0,0,1-6.74-5.006Z" transform="translate(12.245 7.5)"/>
        <path id="Línea_573" data-name="Línea 573" d="M-6.74-5.006a.758.758,0,0,1-.538-.223.76.76,0,0,1,0-1.075l.973-.973a.76.76,0,0,1,1.075,0,.76.76,0,0,1,0,1.075l-.973.973A.758.758,0,0,1-6.74-5.006Z" transform="translate(16.989 7.5)"/>
        <path id="Línea_574" data-name="Línea 574" d="M-6.74-5.006a.758.758,0,0,1-.538-.223.76.76,0,0,1,0-1.075l.973-.973a.76.76,0,0,1,1.075,0,.76.76,0,0,1,0,1.075l-.973.973A.758.758,0,0,1-6.74-5.006Z" transform="translate(36.941 7.5)"/>
        <path id="Línea_575" data-name="Línea 575" d="M-6.74-5.006a.758.758,0,0,1-.538-.223.76.76,0,0,1,0-1.075l.973-.973a.76.76,0,0,1,1.075,0,.76.76,0,0,1,0,1.075l-.973.973A.758.758,0,0,1-6.74-5.006Z" transform="translate(41.686 7.5)"/>
        <path id="Línea_576" data-name="Línea 576" d="M-6.74-5.006a.758.758,0,0,1-.538-.223.76.76,0,0,1,0-1.075l.973-.973a.76.76,0,0,1,1.075,0,.76.76,0,0,1,0,1.075l-.973.973A.758.758,0,0,1-6.74-5.006Z" transform="translate(46.43 7.5)"/>
      </g>
      <g id="Group_1111726" data-name="Group 1111726" transform="translate(27.409 41.86)">
        <path id="Línea_577" data-name="Línea 577" d="M-6.74-5.006a.758.758,0,0,1-.538-.223.76.76,0,0,1,0-1.075l.973-.973a.76.76,0,0,1,1.075,0,.76.76,0,0,1,0,1.075l-.973.973A.758.758,0,0,1-6.74-5.006Z" transform="translate(7.5 7.5)"/>
        <path id="Línea_578" data-name="Línea 578" d="M-6.74-5.006a.758.758,0,0,1-.538-.223.76.76,0,0,1,0-1.075l.973-.973a.76.76,0,0,1,1.075,0,.76.76,0,0,1,0,1.075l-.973.973A.758.758,0,0,1-6.74-5.006Z" transform="translate(12.245 7.5)"/>
        <path id="Línea_579" data-name="Línea 579" d="M-6.74-5.006a.758.758,0,0,1-.538-.223.76.76,0,0,1,0-1.075l.973-.973a.76.76,0,0,1,1.075,0,.76.76,0,0,1,0,1.075l-.973.973A.758.758,0,0,1-6.74-5.006Z" transform="translate(16.989 7.5)"/>
        <path id="Línea_580" data-name="Línea 580" d="M-6.74-5.006a.758.758,0,0,1-.538-.223.76.76,0,0,1,0-1.075l.973-.973a.76.76,0,0,1,1.075,0,.76.76,0,0,1,0,1.075l-.973.973A.758.758,0,0,1-6.74-5.006Z" transform="translate(36.941 7.5)"/>
        <path id="Línea_581" data-name="Línea 581" d="M-6.74-5.006a.758.758,0,0,1-.538-.223.76.76,0,0,1,0-1.075l.973-.973a.76.76,0,0,1,1.075,0,.76.76,0,0,1,0,1.075l-.973.973A.758.758,0,0,1-6.74-5.006Z" transform="translate(41.686 7.5)"/>
        <path id="Línea_582" data-name="Línea 582" d="M-6.74-5.006a.758.758,0,0,1-.538-.223.76.76,0,0,1,0-1.075l.973-.973a.76.76,0,0,1,1.075,0,.76.76,0,0,1,0,1.075l-.973.973A.758.758,0,0,1-6.74-5.006Z" transform="translate(46.43 7.5)"/>
      </g>
    </g>
  </g>
</svg>
