<svg xmlns="http://www.w3.org/2000/svg" width="77" height="77" viewBox="0 0 77 77">
  <g id="Group_1111740" data-name="Group 1111740" transform="translate(-8372.225 10691.539)">
    <g id="Group_1111402" data-name="Group 1111402" transform="translate(7351.494 -13784.539)">
      <g id="Group_1098742" data-name="Group 1098742" transform="translate(1020.73 3093)">
        <rect id="Rectangle_400898" data-name="Rectangle 400898" width="77" height="77" rx="38.5" transform="translate(0 0)" fill="#ccda2d"/>
        <rect id="Rectangle_400907" data-name="Rectangle 400907" width="77" height="77" rx="38.5" transform="translate(0 0)" fill="none"/>
      </g>
    </g>
    <g id="desarrollo" transform="translate(8385.689 -10679.626)">
      <g id="Group_1111734" data-name="Group 1111734" transform="translate(0.733 2.453)">
        <path id="Path_900577" data-name="Path 900577" d="M88.611,19.621,80.619,22.46a1.929,1.929,0,0,0-.606,3.286l1.525,1.3-5.112,6-7.836-7.257a2.236,2.236,0,0,0-3.4.433L57.141,38.762l-7.008-6.414a2.236,2.236,0,0,0-3.02,3.3l8.967,8.206a2.237,2.237,0,0,0,3.392-.442l8.04-12.528L75.1,37.909a2.237,2.237,0,0,0,3.222-.19l6.624-7.771,1.526,1.3a1.929,1.929,0,0,0,3.149-1.119l1.537-8.341a1.929,1.929,0,0,0-2.543-2.167Z" transform="translate(-42.583 -18.501)" fill="#b3e59f"/>
        <g id="Group_1111732" data-name="Group 1111732" transform="translate(0 23.966)">
          <path id="Path_900578" data-name="Path 900578" d="M56.1,254.281a24.3,24.3,0,0,1-48.6,0Z" transform="translate(-7.499 -254.281)" fill="#80b4fb"/>
          <path id="Path_900579" data-name="Path 900579" d="M37.723,277.854A24.323,24.323,0,0,1,7.5,254.281H19.343A24.307,24.307,0,0,0,37.723,277.854Z" transform="translate(-7.498 -254.281)" fill="#61a2f9"/>
        </g>
        <g id="Group_1111733" data-name="Group 1111733" transform="translate(9.282 0)">
          <circle id="Ellipse_11672" data-name="Ellipse 11672" cx="7.464" cy="7.464" r="7.464" transform="translate(0 0)" fill="#f6e266"/>
          <path id="Path_900580" data-name="Path 900580" d="M111.684,23.925a7.465,7.465,0,1,1,0-14.487,7.467,7.467,0,0,0,0,14.487Z" transform="translate(-102.407 -9.217)" fill="#ffd064"/>
        </g>
      </g>
      <g id="Group_1111735" data-name="Group 1111735" transform="translate(0 1.72)">
        <path id="Path_900581" data-name="Path 900581" d="M50.07,26.419a.733.733,0,0,0-.733-.733H19.57l6.235-9.717L32.749,22.4a2.97,2.97,0,0,0,4.279-.253l3.1-3.638a.733.733,0,0,0-1.116-.952l-3.1,3.638a1.5,1.5,0,0,1-2.166.128L26.16,14.3a.734.734,0,0,0-1.116.142L17.827,25.685H13L5.758,19.058a1.5,1.5,0,0,1,2.03-2.217L14.8,23.255a.734.734,0,0,0,1.113-.145l3.328-5.186a8.21,8.21,0,0,0,6.44-7.977,1.5,1.5,0,0,1,.566.33l7.836,7.257a.733.733,0,0,0,.5.2h.043a.733.733,0,0,0,.515-.256l5.112-6a.733.733,0,0,0-.082-1.034l-1.526-1.3A1.2,1.2,0,0,1,39.015,7.1l7.991-2.839a1.2,1.2,0,0,1,1.576,1.344l-1.536,8.341a1.2,1.2,0,0,1-1.952.692l-1.526-1.3a.733.733,0,0,0-1.034.082l-1.623,1.9a.733.733,0,0,0,1.116.952l1.148-1.346.967.824a2.662,2.662,0,0,0,4.346-1.543l1.536-8.341a2.663,2.663,0,0,0-3.509-2.992L38.524,5.721a2.663,2.663,0,0,0-.837,4.535l.968.825-4.14,4.858L27.239,9.2a2.959,2.959,0,0,0-1.7-.774,8.2,8.2,0,1,0-8.166,9.686l-2.228,3.473L8.778,15.759a2.97,2.97,0,1,0-4.01,4.382l6.059,5.545H.733A.733.733,0,0,0,0,26.419,25.006,25.006,0,0,0,10.61,46.883a.733.733,0,1,0,.846-1.2A23.623,23.623,0,0,1,8.6,43.309a23.438,23.438,0,0,1,5.976-4.235,31.549,31.549,0,0,0,1.766,4.84A16.689,16.689,0,0,0,20.29,49.5a23.471,23.471,0,0,1-6.421-2.325.733.733,0,0,0-.7,1.291,25.072,25.072,0,0,0,11.849,2.983h.032A25.035,25.035,0,0,0,50.07,26.419ZM10.748,9.918a6.731,6.731,0,1,1,6.731,6.731,6.738,6.738,0,0,1-6.731-6.731ZM42.489,42.257a24.9,24.9,0,0,0-6.625-4.632,48.334,48.334,0,0,0,1.247-10.473H48.592a23.384,23.384,0,0,1-6.1,15.1Zm-28.063-15.1H35.645A47.056,47.056,0,0,1,34.5,37.02a25.112,25.112,0,0,0-18.932,0A47.048,47.048,0,0,1,14.426,27.152Zm-6.841,15.1a23.434,23.434,0,0,1-6.107-15.1h11.48a48.335,48.335,0,0,0,1.247,10.473,24.9,24.9,0,0,0-6.621,4.628Zm10.09,1.039a30.362,30.362,0,0,1-1.744-4.834,23.631,23.631,0,0,1,18.207,0A30.349,30.349,0,0,1,32.4,43.292c-2.012,4.309-4.62,6.685-7.344,6.694h-.028c-2.726-.007-5.335-2.384-7.348-6.694Zm16.049.621a31.55,31.55,0,0,0,1.766-4.84,23.446,23.446,0,0,1,5.978,4.237,23.39,23.39,0,0,1-11.7,6.2,16.67,16.67,0,0,0,3.953-5.6Z" transform="translate(0 -1.72)"/>
        <path id="Path_900582" data-name="Path 900582" d="M153.8,38.85v-.466a2.862,2.862,0,0,0,2.053-2.271,2.521,2.521,0,0,0-1.713-2.852,7.588,7.588,0,0,1-1.932-.9.68.68,0,0,1-.164-.657.922.922,0,0,1,.611-.729,1.6,1.6,0,0,1,1.47.234.733.733,0,1,0,.938-1.128,3.009,3.009,0,0,0-1.264-.589V29.14a.733.733,0,1,0-1.467,0v.4l-.1.028a2.376,2.376,0,0,0-1.63,1.862,2.115,2.115,0,0,0,.7,2.083,8.189,8.189,0,0,0,2.349,1.128,1.045,1.045,0,0,1,.756,1.226,1.356,1.356,0,0,1-1.345,1.144,2.209,2.209,0,0,1-1.59-.418.733.733,0,0,0-.8,1.228,3.418,3.418,0,0,0,1.664.631v.4a.733.733,0,1,0,1.467,0Z" transform="translate(-135.632 -25.797)"/>
      </g>
    </g>
  </g>
</svg>
