<svg xmlns="http://www.w3.org/2000/svg" width="77" height="77" viewBox="0 0 77 77">
  <g id="Group_1111714" data-name="Group 1111714" transform="translate(-750 -916)">
    <g id="Group_1111399" data-name="Group 1111399" transform="translate(-270.73 -2177)">
      <g id="Group_1098742" data-name="Group 1098742" transform="translate(1020.73 3093)">
        <rect id="Rectangle_400898" data-name="Rectangle 400898" width="77" height="77" rx="38.5" transform="translate(0 0)" fill="#ccda2d"/>
        <rect id="Rectangle_400907" data-name="Rectangle 400907" width="77" height="77" rx="38.5" transform="translate(0 0)" fill="none"/>
      </g>
    </g>
    <g id="ambiental" transform="translate(759 926)">
      <path id="Path_900523" data-name="Path 900523" d="M35.341,20.291c2.938-1.664,6.993-4.4,8.466-9.393a16.182,16.182,0,0,0,0-8.885H42.9a17.044,17.044,0,0,0-7.269,3.554,16.328,16.328,0,0,0-3.688,4.424Z" transform="translate(-2.112 -0.113)" fill="#a9f76d"/>
      <path id="Path_900524" data-name="Path 900524" d="M34.712,18.729l1.271-2.379a19.672,19.672,0,0,1,4.709-5.74L39.556,9.244a21.392,21.392,0,0,0-5.137,6.263l-1.272,2.386Z" transform="translate(-2.246 -0.919)" fill="#1d945e"/>
      <path id="Path_900525" data-name="Path 900525" d="M28.716,23.756l-1.232-.138a14.18,14.18,0,0,1-9.123-4.8,14.339,14.339,0,0,1-3.287-6.858L14,6.013l9.407,1.263a11.652,11.652,0,0,1,6.718,3.346,11.8,11.8,0,0,1,3.423,8.312v.47a4.383,4.383,0,0,1-2.405,3.917,4.33,4.33,0,0,1-2.426.435Z" transform="translate(-0.111 -0.559)" fill="#c6ff7a"/>
      <path id="Path_900526" data-name="Path 900526" d="M32.96,36.455h1.777V29.447a13.977,13.977,0,0,0-2.369-7.981q-.228-.331-.484-.662a14.314,14.314,0,0,0-6.63-4.737l-.581,1.679a12.547,12.547,0,0,1,5.809,4.148c.149.193.291.386.423.579a12.211,12.211,0,0,1,2.055,6.973Z" transform="translate(-1.301 -1.68)" fill="#1d945e"/>
      <path id="Path_900527" data-name="Path 900527" d="M40.565,4.818c-.648-.6-2.67.394-3.849,1.628-.8.834-1.805,2.406-1.308,3.079s2.382.313,3.578-.6c1.531-1.171,2.24-3.5,1.579-4.1Z" transform="translate(-2.484 -0.406)" fill="#eefde2"/>
      <path id="Path_900528" data-name="Path 900528" d="M25.385,10.972c.166-1.066-2.231-2.458-4.3-2.817-1.4-.243-3.694-.2-4.041.771s1.311,2.648,3.064,3.243C22.355,12.931,25.215,12.065,25.385,10.972Z" transform="translate(-0.446 -0.784)" fill="#eefde2"/>
      <circle id="Ellipse_11671" data-name="Ellipse 11671" cx="14.216" cy="14.216" r="14.216" transform="translate(17.443 26.778)" fill="#66c2ed"/>
      <path id="Path_900529" data-name="Path 900529" d="M32.884,30.013a14.136,14.136,0,0,0-6.149,1.41,14.193,14.193,0,0,0,17.63,21.165,14.2,14.2,0,0,0-11.48-22.575Z" transform="translate(-1.225 -3.235)" fill="#76d8ff"/>
      <path id="Path_900530" data-name="Path 900530" d="M48.774,44.549a14.2,14.2,0,0,0-6.107-11.668L39.943,35.61A3.218,3.218,0,0,0,39,37.885v3.554a3.221,3.221,0,0,0,.943,2.275L42.5,46.272a3.218,3.218,0,0,1,.943,2.275,3.221,3.221,0,0,0,.943,2.275l1.838,1.838a14.147,14.147,0,0,0,2.55-8.112Z" transform="translate(-2.899 -3.555)" fill="#aaf66f"/>
      <path id="Path_900531" data-name="Path 900531" d="M30.96,40.267a1.777,1.777,0,0,0-1.256-.521H23.869a1.777,1.777,0,0,1-.987-.3l-2.75-1.835a14.177,14.177,0,0,0,8.53,21.213V57.582a10.878,10.878,0,0,0-3.186-7.692,1.777,1.777,0,0,1,1.256-3.033h4.386a1.777,1.777,0,0,0,1.59-.983l.711-1.422a1.777,1.777,0,0,0-.332-2.051Z" transform="translate(-0.557 -4.082)" fill="#86ee88"/>
      <path id="Path_900532" data-name="Path 900532" d="M31.629,40.525A1.777,1.777,0,0,0,30.372,40H24.538a1.782,1.782,0,0,1-.5-.074c-.021.318-.039.638-.039.962a14.13,14.13,0,0,0,1.894,7.069,1.725,1.725,0,0,1,.251-.329,1.777,1.777,0,0,1,1.256-.521h4.386a1.777,1.777,0,0,0,1.59-.983l.711-1.422a1.777,1.777,0,0,0-.332-2.051Z" transform="translate(-1.226 -4.341)" fill="#aaf66f"/>
      <path id="Path_900533" data-name="Path 900533" d="M33.329,25.976a14.422,14.422,0,0,0-.749-3.22,5.21,5.21,0,0,0,1.368-1.979c3.043-1.755,7.094-4.65,8.6-9.752a17.019,17.019,0,0,0,0-9.375A.889.889,0,0,0,41.7,1h-.912a.924.924,0,0,0-.191.02,17.963,17.963,0,0,0-7.65,3.741A17.16,17.16,0,0,0,29.63,8.519a12.6,12.6,0,0,0-6.22-2.694l-9.4-1.263A.889.889,0,0,0,13.014,5.6l1.075,5.953a15.228,15.228,0,0,0,3.489,7.286,15.036,15.036,0,0,0,9.694,5.1l1.232.137a5.117,5.117,0,0,0,2.528-.355,12.578,12.578,0,0,1,.495,2.169,15.1,15.1,0,1,0,1.8.089Zm.759-19.853a16.157,16.157,0,0,1,6.8-3.346h.121a15.181,15.181,0,0,1-.163,7.745,14.385,14.385,0,0,1-6.519,7.949v-.108a12.794,12.794,0,0,0-.422-3.215A19.248,19.248,0,0,1,38.447,9.68L37.309,8.313A20.724,20.724,0,0,0,33.133,13a12.628,12.628,0,0,0-2.186-3.244,15.427,15.427,0,0,1,3.14-3.634ZM28.7,22.3l-1.232-.138a13.26,13.26,0,0,1-8.551-4.5,13.45,13.45,0,0,1-3.082-6.433L14.98,6.486l8.2,1.1a10.84,10.84,0,0,1,9.37,10.778v.471A3.492,3.492,0,0,1,31.8,21a12.717,12.717,0,0,0-.734-1.223q-.228-.331-.484-.661a14.314,14.314,0,0,0-6.63-4.737l-.581,1.679A12.543,12.543,0,0,1,29.181,20.2q.224.289.423.578a10.832,10.832,0,0,1,.757,1.287A3.415,3.415,0,0,1,28.7,22.3ZM18.331,40.983a13.247,13.247,0,0,1,1.54-6.2L21.833,36.1a2.658,2.658,0,0,0,1.478.444h5.835a.888.888,0,0,1,.628.26L31.9,38.933a.889.889,0,0,1,.167,1.025l-.711,1.426a.882.882,0,0,1-.794.491H26.175a2.666,2.666,0,0,0-1.885,4.55,9.927,9.927,0,0,1,2.926,7.059v.048a13.338,13.338,0,0,1-8.885-12.55ZM31.659,54.31a13.38,13.38,0,0,1-2.666-.267v-.557a11.69,11.69,0,0,0-3.447-8.32.889.889,0,0,1,.628-1.518H30.56a2.652,2.652,0,0,0,2.384-1.473l.711-1.427a2.666,2.666,0,0,0-.5-3.077l-2.132-2.127a2.646,2.646,0,0,0-1.877-.781H23.311a.883.883,0,0,1-.492-.149l-2.012-1.341a13.261,13.261,0,0,1,17.546-3.8l-1.938,1.938a4.133,4.133,0,0,0-1.2,2.9v3.554a4.133,4.133,0,0,0,1.2,2.9l2.557,2.557a2.347,2.347,0,0,1,.682,1.647,4.133,4.133,0,0,0,1.2,2.9l1.291,1.291A13.3,13.3,0,0,1,31.659,54.31Zm11.505-6.633-1.049-1.049a2.347,2.347,0,0,1-.682-1.647,4.133,4.133,0,0,0-1.2-2.9L37.672,39.52a2.347,2.347,0,0,1-.682-1.647V34.319a2.347,2.347,0,0,1,.682-1.647l2.179-2.179a13.256,13.256,0,0,1,3.312,17.185Z"/>
    </g>
  </g>
</svg>
