<svg xmlns="http://www.w3.org/2000/svg" width="77" height="77" viewBox="0 0 77 77">
  <g id="Group_1111759" data-name="Group 1111759" transform="translate(-1068 -3231)">
    <g id="Group_1111418" data-name="Group 1111418" transform="translate(47.27 138)">
      <g id="Group_1098742" data-name="Group 1098742" transform="translate(1020.73 3093)">
        <rect id="Rectangle_400898" data-name="Rectangle 400898" width="77" height="77" rx="38.5" transform="translate(0 0)" fill="#ccda2d"/>
        <rect id="Rectangle_400907" data-name="Rectangle 400907" width="77" height="77" rx="38.5" transform="translate(0 0)" fill="none"/>
      </g>
    </g>
    <g id="amb12" transform="translate(1063.532 3201.407)">
      <g id="Group_1111758" data-name="Group 1111758" transform="translate(16.468 45.593)">
        <path id="Path_900612" data-name="Path 900612" d="M18.96,69.11c-.01-.279-.019-.558-.019-.836A20.772,20.772,0,0,1,48.41,49.408a22.694,22.694,0,0,0,5.385-3.351,1.931,1.931,0,0,1,2.51,0A22.7,22.7,0,0,0,61.7,49.41a25.462,25.462,0,0,0,6.338,1.871A1.265,1.265,0,0,1,69.108,52.5a23.607,23.607,0,0,1-8.915,19.238A20.8,20.8,0,0,1,47.543,87.517a21.059,21.059,0,0,0,4.817,1.064c.794.061,1.108,1.2,1.04,1.882a1.412,1.412,0,0,1-1.766,1.349,37.093,37.093,0,0,1-7.256-2.145Q34.065,92.543,27.06,87.584T16.489,69.832a.6.6,0,0,1,.614-.76q.943.009,1.856.038Z" transform="translate(-16.468 -45.593)" fill-rule="evenodd"/>
        <path id="Path_900613" data-name="Path 900613" d="M275.26,62.331a.074.074,0,0,0-.061-.068A26.672,26.672,0,0,1,268.56,60.3a23.9,23.9,0,0,1-5.674-3.531.748.748,0,0,0-.965,0,23.9,23.9,0,0,1-5.674,3.531,26.672,26.672,0,0,1-6.639,1.961.074.074,0,0,0-.061.068,22.442,22.442,0,0,0,12.857,21,22.442,22.442,0,0,0,12.857-21ZM272.193,72.3a.6.6,0,1,1-1.083-.518,20.215,20.215,0,0,0,1.959-7.717,28.6,28.6,0,0,1-5.668-1.9,26.231,26.231,0,0,1-5-2.991,25.577,25.577,0,0,1-2.314,1.575,26.915,26.915,0,0,1-2.953,1.539.6.6,0,1,1-.49-1.1,25.709,25.709,0,0,0,2.821-1.472,24.289,24.289,0,0,0,2.554-1.772.6.6,0,0,1,.756-.006,24.912,24.912,0,0,0,5.122,3.132A27.473,27.473,0,0,0,273.81,63a.6.6,0,0,1,.48.6,21.441,21.441,0,0,1-2.1,8.7Zm-18.857-9.893a.6.6,0,1,1,.339,1.154q-.614.182-1.209.332-.353.089-.728.172A20.264,20.264,0,0,0,262.4,80.9a20.247,20.247,0,0,0,6.322-5.289.6.6,0,1,1,.942.744,21.472,21.472,0,0,1-6.984,5.757.6.6,0,0,1-.555,0,21.466,21.466,0,0,1-11.61-18.489A.6.6,0,0,1,251,63q.564-.116,1.176-.27t1.162-.318Zm10.63,7.89a1.563,1.563,0,1,1-3.126,0l-.343-7.075a1.806,1.806,0,0,1,.549-1.288,1.942,1.942,0,0,1,1.264-.555,1.711,1.711,0,0,1,.184,0,1.942,1.942,0,0,1,1.264.555,1.807,1.807,0,0,1,.549,1.288l-.343,7.075ZM262.4,73.428a2.146,2.146,0,1,1-1.517.629A2.146,2.146,0,0,1,262.4,73.428Z" transform="translate(-223.921 -55.386)" fill="#a0d468" fill-rule="evenodd"/>
        <path id="Path_900614" data-name="Path 900614" d="M294.651,354.3H287.62A21.316,21.316,0,0,1,285,359.77q.175.824.287,1.691a19.6,19.6,0,0,0,8.171-5.636Q294.093,355.093,294.651,354.3Z" transform="translate(-255.49 -320.372)" fill="#69d6f4" fill-rule="evenodd"/>
        <path id="Path_900615" data-name="Path 900615" d="M269.222,354.3h-3.46a17.024,17.024,0,0,1,1.708,3.877A21.171,21.171,0,0,0,269.222,354.3Z" transform="translate(-238.364 -320.372)" fill="#69d6f4" fill-rule="evenodd"/>
        <path id="Path_900616" data-name="Path 900616" d="M235.4,266.907h4.646a34.491,34.491,0,0,0,1.263-7.268,23.763,23.763,0,0,1-2.18-2.168h-6.576V263.9A16.8,16.8,0,0,1,235.4,266.907Z" transform="translate(-208.803 -234.185)" fill="#69d6f4" fill-rule="evenodd"/>
        <path id="Path_900617" data-name="Path 900617" d="M312.145,291.992h7.449a19.441,19.441,0,0,0,2.242-5.512,23.616,23.616,0,0,1-3.455,1.946.6.6,0,0,1-.5,0,23.652,23.652,0,0,1-4.6-2.773A35.475,35.475,0,0,1,312.145,291.992Z" transform="translate(-279.649 -259.27)" fill="#69d6f4" fill-rule="evenodd"/>
        <path id="Path_900618" data-name="Path 900618" d="M233.707,159.092h-1.156V168.7h5.58q-.624-.809-1.179-1.671A23.508,23.508,0,0,1,233.707,159.092Z" transform="translate(-208.803 -146.618)" fill="#69d6f4" fill-rule="evenodd"/>
        <path id="Path_900619" data-name="Path 900619" d="M149.936,159.092h-7.444a35.6,35.6,0,0,0-1.4,9.606h8.846Z" transform="translate(-127.394 -146.618)" fill="#69d6f4" fill-rule="evenodd"/>
        <path id="Path_900620" data-name="Path 900620" d="M59.379,159.092H51.986a19.465,19.465,0,0,0-2.862,9.606h8.9A37.1,37.1,0,0,1,59.379,159.092Z" transform="translate(-45.535 -146.618)" fill="#69d6f4" fill-rule="evenodd"/>
        <path id="Path_900621" data-name="Path 900621" d="M82.459,85.811h6.965A24.167,24.167,0,0,1,90.7,82.7a14.046,14.046,0,0,1,3.426-4.578,19.606,19.606,0,0,0-11.668,7.693Z" transform="translate(-75.206 -74.543)" fill="#69d6f4" fill-rule="evenodd"/>
        <path id="Path_900622" data-name="Path 900622" d="M157.419,82.435h7.051v-8.11c-2.294.309-4.389,2.365-5.969,5.532a22.58,22.58,0,0,0-1.083,2.578Z" transform="translate(-141.928 -71.167)" fill="#69d6f4" fill-rule="evenodd"/>
        <path id="Path_900623" data-name="Path 900623" d="M232.547,82.435h.939a23.79,23.79,0,0,1-.262-4.355,1.265,1.265,0,0,1,1.074-1.222q.99-.159,1.948-.388a7.93,7.93,0,0,0-1.8-1.473,5.135,5.135,0,0,0-1.9-.672Z" transform="translate(-208.798 -71.167)" fill="#69d6f4" fill-rule="evenodd"/>
        <path id="Path_900624" data-name="Path 900624" d="M149.926,257.47h-8.847q.011.845.06,1.688a27.576,27.576,0,0,1,7.837,3.189q.489.3.95.628Z" transform="translate(-127.384 -234.184)" fill="#69d6f4" fill-rule="evenodd"/>
        <path id="Path_900625" data-name="Path 900625" d="M58,257.47H49.1q0,.141.011.282a54.269,54.269,0,0,1,8.938,1.119Q58.016,258.171,58,257.47Z" transform="translate(-45.514 -234.184)" fill="#69d6f4" fill-rule="evenodd"/>
        <path id="Path_900626" data-name="Path 900626" d="M265.478,78.092a10.766,10.766,0,0,1,1.379,1.385q.776-.229,1.526-.5A19.483,19.483,0,0,0,265.478,78.092Z" transform="translate(-238.111 -74.52)" fill="#69d6f4" fill-rule="evenodd"/>
        <path id="Path_900627" data-name="Path 900627" d="M207.839,398.594c-4.474-.343-10.339-3.06-16.481-6.062a44.861,44.861,0,0,0,5.239,3.112,40.338,40.338,0,0,0,10.807,3.793C207.927,399.526,207.918,398.6,207.839,398.594Z" transform="translate(-172.137 -354.402)" fill="#f0bc5e" fill-rule="evenodd"/>
        <path id="Path_900628" data-name="Path 900628" d="M55.585,286.64a15.88,15.88,0,0,0-7.628-11.878q-6.844-4.253-19.656-4.493,3.435,11.754,9.884,16.321,6.023,4.264,14.79,2.284-1.022-.459-2.057-.983a42.268,42.268,0,0,1-9.659-6.627.6.6,0,0,1,.637-1.012c4.512,2.185,9.027,4.562,13.688,6.387Z" transform="translate(-27 -245.577)" fill="#b4dd7f" fill-rule="evenodd"/>
      </g>
      <circle id="Ellipse_11677" data-name="Ellipse 11677" cx="0.94" cy="0.94" r="0.94" transform="translate(54.011 64.841)" fill="#f24646"/>
      <path id="Path_900629" data-name="Path 900629" d="M361.206,119.058a.383.383,0,0,0,.107-.281c.111-2.272.341-4.8.341-7.047a.606.606,0,0,0-.187-.431.734.734,0,0,0-.477-.211h-.071a.735.735,0,0,0-.477.211.607.607,0,0,0-.187.431c0,2.229.229,4.743.339,7,.017.135,0,.215.109.328a.358.358,0,0,0,.506,0Z" transform="translate(-306.003 -58.296)" fill="#f24646" fill-rule="evenodd"/>
    </g>
  </g>
</svg>
