<svg xmlns="http://www.w3.org/2000/svg" xmlns:xlink="http://www.w3.org/1999/xlink" width="77" height="77" viewBox="0 0 77 77">
  <defs>
    <clipPath id="clip-path">
      <path id="path5598" d="M0-682.665H50.282v50.282H0Z" transform="translate(0 682.665)"/>
    </clipPath>
  </defs>
  <g id="Group_1111780" data-name="Group 1111780" transform="translate(-8708.449 8376.539)">
    <g id="Group_1111421" data-name="Group 1111421" transform="translate(7687.719 -11469.539)">
      <g id="Group_1098742" data-name="Group 1098742" transform="translate(1020.73 3093)">
        <rect id="Rectangle_400898" data-name="Rectangle 400898" width="77" height="77" rx="38.5" transform="translate(0 0)" fill="#ccda2d"/>
        <rect id="Rectangle_400907" data-name="Rectangle 400907" width="77" height="77" rx="38.5" transform="translate(0 0)" fill="none"/>
      </g>
    </g>
    <g id="g5592" transform="translate(8721.809 -7680.515)">
      <g id="g5594" transform="translate(0 -682.665)">
        <g id="g5596" transform="translate(0 0)" clip-path="url(#clip-path)">
          <g id="g5602" transform="translate(37.244 39.625)">
            <path id="path5604" d="M0-44.916v4.365H12.3v-4.365A3.571,3.571,0,0,0,8.73-48.488H3.571A3.571,3.571,0,0,0,0-44.916" transform="translate(0 48.488)" fill="#e69642"/>
          </g>
          <g id="g5606" transform="translate(43.395 39.625)">
            <path id="path5608" d="M-32.439,0h-2.579a3.571,3.571,0,0,1,3.571,3.571V7.936h2.579V3.571A3.571,3.571,0,0,0-32.439,0" transform="translate(35.019)" fill="#e38523"/>
          </g>
          <g id="g5610" transform="translate(39.427 31.689)">
            <path id="path5612" d="M-99.814-49.906a3.968,3.968,0,0,1-3.968,3.968,3.968,3.968,0,0,1-3.968-3.968,3.968,3.968,0,0,1,3.968-3.968,3.968,3.968,0,0,1,3.968,3.968" transform="translate(107.75 53.875)" fill="#fed2a4"/>
          </g>
          <g id="g5614" transform="translate(39.892 32.154)">
            <path id="path5616" d="M-67.513,0a3.95,3.95,0,0,1,.466,1.866,3.968,3.968,0,0,1-3.968,3.968,3.95,3.95,0,0,1-1.866-.466,3.967,3.967,0,0,0,3.5,2.1A3.968,3.968,0,0,0-65.41,3.5a3.967,3.967,0,0,0-2.1-3.5" transform="translate(72.881)" fill="#ffbd86"/>
          </g>
          <g id="g5618" transform="translate(0.737 39.625)">
            <path id="path5620" d="M0-44.916v4.365H12.3v-4.365A3.571,3.571,0,0,0,8.73-48.488H3.571A3.571,3.571,0,0,0,0-44.916" transform="translate(0 48.488)" fill="#ad7fdd"/>
          </g>
          <g id="g5622" transform="translate(6.887 39.625)">
            <path id="path5624" d="M-32.44,0H-35.02a3.571,3.571,0,0,1,3.572,3.571V7.936h2.579V3.571A3.571,3.571,0,0,0-32.44,0" transform="translate(35.02)" fill="#9d66d6"/>
          </g>
          <g id="g5626" transform="translate(2.919 31.689)">
            <path id="path5628" d="M-99.814-49.906a3.968,3.968,0,0,1-3.968,3.968,3.968,3.968,0,0,1-3.968-3.968,3.968,3.968,0,0,1,3.968-3.968,3.968,3.968,0,0,1,3.968,3.968" transform="translate(107.75 53.875)" fill="#fed2a4"/>
          </g>
          <g id="g5630" transform="translate(3.385 32.154)">
            <path id="path5632" d="M-67.513,0a3.95,3.95,0,0,1,.466,1.866,3.968,3.968,0,0,1-3.968,3.968,3.95,3.95,0,0,1-1.866-.466,3.967,3.967,0,0,0,3.5,2.1A3.968,3.968,0,0,0-65.411,3.5a3.967,3.967,0,0,0-2.1-3.5" transform="translate(72.881)" fill="#ffbd86"/>
          </g>
          <g id="g5634" transform="translate(37.244 10.657)">
            <path id="path5636" d="M0-44.916v4.365H12.3v-4.365A3.571,3.571,0,0,0,8.73-48.488H3.571A3.571,3.571,0,0,0,0-44.916" transform="translate(0 48.488)" fill="#62a4fb"/>
          </g>
          <g id="g5638" transform="translate(43.395 10.657)">
            <path id="path5640" d="M-32.439,0h-2.579a3.571,3.571,0,0,1,3.571,3.571V7.936h2.579V3.571A3.571,3.571,0,0,0-32.439,0" transform="translate(35.019)" fill="#5392f9"/>
          </g>
          <g id="g5642" transform="translate(39.427 2.721)">
            <path id="path5644" d="M-99.814-49.908a3.968,3.968,0,0,1-3.968,3.968,3.968,3.968,0,0,1-3.968-3.968,3.968,3.968,0,0,1,3.968-3.968,3.968,3.968,0,0,1,3.968,3.968" transform="translate(107.75 53.876)" fill="#fed2a4"/>
          </g>
          <g id="g5646" transform="translate(39.892 3.186)">
            <path id="path5648" d="M-67.513,0a3.95,3.95,0,0,1,.466,1.866,3.968,3.968,0,0,1-3.968,3.968,3.95,3.95,0,0,1-1.866-.466,3.967,3.967,0,0,0,3.5,2.1A3.968,3.968,0,0,0-65.41,3.5a3.967,3.967,0,0,0-2.1-3.5" transform="translate(72.881)" fill="#ffbd86"/>
          </g>
          <g id="g5650" transform="translate(0.737 10.657)">
            <path id="path5652" d="M0-44.916v4.365H12.3v-4.365A3.571,3.571,0,0,0,8.73-48.488H3.571A3.571,3.571,0,0,0,0-44.916" transform="translate(0 48.488)" fill="#e175a5"/>
          </g>
          <g id="g5654" transform="translate(6.887 10.657)">
            <path id="path5656" d="M-32.44,0H-35.02a3.571,3.571,0,0,1,3.572,3.571V7.936h2.579V3.571A3.571,3.571,0,0,0-32.44,0" transform="translate(35.02)" fill="#de5791"/>
          </g>
          <g id="g5658" transform="translate(2.919 2.721)">
            <path id="path5660" d="M-99.814-49.908a3.968,3.968,0,0,1-3.968,3.968,3.968,3.968,0,0,1-3.968-3.968,3.968,3.968,0,0,1,3.968-3.968,3.968,3.968,0,0,1,3.968,3.968" transform="translate(107.75 53.876)" fill="#fed2a4"/>
          </g>
          <g id="g5662" transform="translate(3.385 3.186)">
            <path id="path5664" d="M-67.513,0a3.95,3.95,0,0,1,.466,1.866,3.968,3.968,0,0,1-3.968,3.968,3.95,3.95,0,0,1-1.866-.466,3.967,3.967,0,0,0,3.5,2.1A3.968,3.968,0,0,0-65.411,3.5a3.967,3.967,0,0,0-2.1-3.5" transform="translate(72.881)" fill="#ffbd86"/>
          </g>
          <g id="g5666" transform="translate(17.931 17.931)">
            <path id="path5668" d="M-181.351-90.677a7.21,7.21,0,0,1-7.21,7.21,7.21,7.21,0,0,1-7.21-7.21,7.21,7.21,0,0,1,7.21-7.21,7.21,7.21,0,0,1,7.21,7.21" transform="translate(195.77 97.886)" fill="#a2f5c3"/>
          </g>
          <g id="g5670" transform="translate(19.072 19.072)">
            <path id="path5672" d="M-125.251,0a7.173,7.173,0,0,1,1.141,3.89,7.21,7.21,0,0,1-7.21,7.21,7.173,7.173,0,0,1-3.89-1.141,7.2,7.2,0,0,0,6.069,3.32,7.21,7.21,0,0,0,7.21-7.21A7.2,7.2,0,0,0-125.251,0" transform="translate(135.21)" fill="#88f2a9"/>
          </g>
          <g id="g5674" transform="translate(21.47 22.09)">
            <path id="path5676" d="M-35.559-76.751a1.587,1.587,0,0,1-1.122-.465l-1.24-1.24a1.587,1.587,0,0,1,0-2.245,1.587,1.587,0,0,1,2.245,0l.118.118,1.806-1.806a1.587,1.587,0,0,1,2.245,0,1.587,1.587,0,0,1,0,2.245l-2.928,2.928a1.587,1.587,0,0,1-1.122.465" transform="translate(38.387 82.854)" fill="#e6f7fe"/>
          </g>
          <g id="g5678" transform="translate(22.562 0.737)">
            <path id="path5680" d="M-64.88-32.439a2.579,2.579,0,0,1-2.579,2.579,2.579,2.579,0,0,1-2.579-2.579,2.579,2.579,0,0,1,2.579-2.579,2.579,2.579,0,0,1,2.579,2.579" transform="translate(70.038 35.019)" fill="#a2f5c3"/>
          </g>
          <g id="g5682" transform="translate(44.387 22.562)">
            <path id="path5684" d="M-64.879-32.439a2.579,2.579,0,0,1-2.579,2.579,2.579,2.579,0,0,1-2.579-2.579,2.579,2.579,0,0,1,2.579-2.579,2.579,2.579,0,0,1,2.579,2.579" transform="translate(70.037 35.019)" fill="#a2f5c3"/>
          </g>
          <g id="g5686" transform="translate(0.737 22.562)">
            <path id="path5688" d="M-64.879-32.439a2.579,2.579,0,0,1-2.579,2.579,2.579,2.579,0,0,1-2.579-2.579,2.579,2.579,0,0,1,2.579-2.579,2.579,2.579,0,0,1,2.579,2.579" transform="translate(70.037 35.019)" fill="#a2f5c3"/>
          </g>
          <g id="g5690" transform="translate(22.562 44.387)">
            <path id="path5692" d="M-64.88-32.439a2.579,2.579,0,0,1-2.579,2.579,2.579,2.579,0,0,1-2.579-2.579,2.579,2.579,0,0,1,2.579-2.579,2.579,2.579,0,0,1,2.579,2.579" transform="translate(70.038 35.019)" fill="#a2f5c3"/>
          </g>
          <g id="g5694" transform="translate(44.98 26.98)">
            <path id="path5696" d="M-24.189-3.805a.735.735,0,0,1-.246-.043.737.737,0,0,1-.448-.94A21.02,21.02,0,0,0-23.821-9.35.737.737,0,0,1-23-10a.737.737,0,0,1,.645.818A22.5,22.5,0,0,1-23.494-4.3.737.737,0,0,1-24.189-3.805Z" transform="translate(24.925 10.001)"/>
          </g>
          <g id="g5698" transform="translate(2.73 26.98)">
            <path id="path5700" d="M-23.088-67.917a.737.737,0,0,1-.694-.491,22.489,22.489,0,0,1-1.136-4.882.737.737,0,0,1,.645-.818.737.737,0,0,1,.818.645A21.014,21.014,0,0,0-22.394-68.9a.737.737,0,0,1-.448.94A.736.736,0,0,1-23.088-67.917Z" transform="translate(24.924 74.113)"/>
          </g>
          <g id="g5702" transform="translate(26.98 42.568)">
            <path id="path5704" d="M-9.265-52.7a.737.737,0,0,1-.731-.65.737.737,0,0,1,.645-.818,21.094,21.094,0,0,0,9.2-3.393.737.737,0,0,1,1.022.2.737.737,0,0,1-.2,1.022A22.573,22.573,0,0,1-9.178-52.7.745.745,0,0,1-9.265-52.7Z" transform="translate(10.001 57.681)"/>
          </g>
          <g id="g5706" transform="translate(12.301 42.568)">
            <path id="path5708" d="M.264-5.016a.744.744,0,0,1-.087-.005A22.574,22.574,0,0,1-9.673-8.652a.737.737,0,0,1-.2-1.022.737.737,0,0,1,1.022-.2A21.094,21.094,0,0,0,.35-6.484a.737.737,0,0,1,.645.818A.737.737,0,0,1,.264-5.016Z" transform="translate(10.001 10.001)"/>
          </g>
          <g id="g5710" transform="translate(8.078 2.73)">
            <path id="path5712" d="M-9.264-98.958a.734.734,0,0,1-.489-.186.737.737,0,0,1-.062-1.04A22.507,22.507,0,0,1,4.4-107.617a.737.737,0,0,1,.817.646.737.737,0,0,1-.646.817A21.036,21.036,0,0,0-8.713-99.206.735.735,0,0,1-9.264-98.958Z" transform="translate(10 107.622)"/>
          </g>
          <g id="g5714" transform="translate(2.729 17.857)">
            <path id="path5716" d="M-20.8-4.557a.744.744,0,0,1-.087-.005.737.737,0,0,1-.646-.817,22.463,22.463,0,0,1,.879-4.107.737.737,0,0,1,.924-.482.737.737,0,0,1,.482.924,20.986,20.986,0,0,0-.821,3.837A.737.737,0,0,1-20.8-4.557Z" transform="translate(21.542 10.003)"/>
          </g>
          <g id="g5718" transform="translate(45.23 17.857)">
            <path id="path5720" d="M-19.958-58.486a.737.737,0,0,1-.731-.651,21,21,0,0,0-.821-3.837.737.737,0,0,1,.482-.924.737.737,0,0,1,.924.482,22.472,22.472,0,0,1,.879,4.107.737.737,0,0,1-.646.817A.745.745,0,0,1-19.958-58.486Z" transform="translate(21.544 63.932)"/>
          </g>
          <g id="g5722" transform="translate(26.98 2.73)">
            <path id="path5724" d="M4.487-1.337a.735.735,0,0,1-.551-.248A21.036,21.036,0,0,0-9.35-8.533.737.737,0,0,1-10-9.35.737.737,0,0,1-9.178-10,22.508,22.508,0,0,1,5.037-2.563a.737.737,0,0,1-.062,1.04A.734.734,0,0,1,4.487-1.337Z" transform="translate(10.001 10.001)"/>
          </g>
          <g id="g5726" transform="translate(36.508 38.888)">
            <path id="path5728" d="M-98.8-108.349h-4.8a.737.737,0,0,1-.737-.737.737.737,0,0,1,.737-.737h4.064v-3.629a2.838,2.838,0,0,0-2.835-2.835h-5.158a2.838,2.838,0,0,0-2.835,2.835v3.629h3.327a.737.737,0,0,1,.737.737.737.737,0,0,1-.737.737H-111.1a.737.737,0,0,1-.737-.737v-4.365a4.313,4.313,0,0,1,4.308-4.308h5.158a4.313,4.313,0,0,1,4.308,4.308v4.365A.737.737,0,0,1-98.8-108.349Z" transform="translate(111.84 117.76)"/>
          </g>
          <g id="g5730" transform="translate(38.69 30.952)">
            <path id="path5732" d="M-113.046-63.874a4.71,4.71,0,0,1,4.7,4.7,4.71,4.71,0,0,1-4.7,4.7,4.71,4.71,0,0,1-4.7-4.7A4.71,4.71,0,0,1-113.046-63.874Zm0,7.936a3.235,3.235,0,0,0,3.232-3.232,3.235,3.235,0,0,0-3.232-3.232,3.235,3.235,0,0,0-3.232,3.232A3.235,3.235,0,0,0-113.046-55.938Z" transform="translate(117.75 63.874)"/>
          </g>
          <g id="g5734" transform="translate(0 38.889)">
            <path id="path5736" d="M-5.692-58.488H-.533A4.313,4.313,0,0,1,3.775-54.18v4.365a.737.737,0,0,1-.737.737h-12.3A.737.737,0,0,1-10-49.815V-54.18A4.313,4.313,0,0,1-5.692-58.488ZM2.3-50.551V-54.18A2.838,2.838,0,0,0-.533-57.015H-5.692A2.838,2.838,0,0,0-8.527-54.18v3.628Z" transform="translate(10 58.488)"/>
          </g>
          <g id="g5738" transform="translate(2.182 30.952)">
            <path id="path5740" d="M-113.046-63.874a4.71,4.71,0,0,1,4.7,4.7,4.71,4.71,0,0,1-4.7,4.7,4.71,4.71,0,0,1-4.7-4.7A4.71,4.71,0,0,1-113.046-63.874Zm0,7.936a3.235,3.235,0,0,0,3.232-3.232,3.235,3.235,0,0,0-3.232-3.232,3.235,3.235,0,0,0-3.232,3.232A3.235,3.235,0,0,0-113.046-55.938Z" transform="translate(117.75 63.874)"/>
          </g>
          <g id="g5742" transform="translate(36.508 9.921)">
            <path id="path5744" d="M-5.692-58.488H-.533A4.313,4.313,0,0,1,3.775-54.18v4.365a.737.737,0,0,1-.737.737h-12.3A.737.737,0,0,1-10-49.815V-54.18A4.313,4.313,0,0,1-5.692-58.488ZM2.3-50.551V-54.18A2.838,2.838,0,0,0-.533-57.015H-5.692A2.838,2.838,0,0,0-8.527-54.18v3.628Z" transform="translate(10 58.488)"/>
          </g>
          <g id="g5746" transform="translate(38.69 1.984)">
            <path id="path5748" d="M-113.046-54.466a4.71,4.71,0,0,1-4.7-4.7,4.71,4.71,0,0,1,4.7-4.7,4.71,4.71,0,0,1,4.7,4.7A4.71,4.71,0,0,1-113.046-54.466Zm0-7.936a3.235,3.235,0,0,0-3.232,3.232,3.235,3.235,0,0,0,3.232,3.232,3.235,3.235,0,0,0,3.232-3.232A3.235,3.235,0,0,0-113.046-62.4Z" transform="translate(117.75 63.876)"/>
          </g>
          <g id="g5750" transform="translate(0 9.921)">
            <path id="path5752" d="M-119.908-108.337h-3.246a.737.737,0,0,1-.737-.737.737.737,0,0,1,.737-.737h2.509v-3.629a2.838,2.838,0,0,0-2.835-2.834h-5.158a2.838,2.838,0,0,0-2.835,2.834v3.629h4.882a.737.737,0,0,1,.737.737.737.737,0,0,1-.737.737h-5.618a.737.737,0,0,1-.737-.737v-4.365a4.313,4.313,0,0,1,4.308-4.307h5.158a4.313,4.313,0,0,1,4.308,4.307v4.365A.737.737,0,0,1-119.908-108.337Z" transform="translate(132.946 117.746)"/>
          </g>
          <g id="g5754" transform="translate(2.182 1.984)">
            <path id="path5756" d="M-113.046-54.466a4.71,4.71,0,0,1-4.7-4.7,4.71,4.71,0,0,1,4.7-4.7,4.71,4.71,0,0,1,4.7,4.7A4.71,4.71,0,0,1-113.046-54.466Zm0-7.936a3.235,3.235,0,0,0-3.232,3.232,3.235,3.235,0,0,0,3.232,3.232,3.235,3.235,0,0,0,3.232-3.232A3.235,3.235,0,0,0-113.046-62.4Z" transform="translate(117.75 63.876)"/>
          </g>
          <g id="g5758" transform="translate(17.195 17.195)">
            <path id="path5760" d="M-183.6-41.148a7.955,7.955,0,0,1-7.946-7.946A7.955,7.955,0,0,1-183.6-57.04a7.929,7.929,0,0,1,4.128,1.154.737.737,0,0,1,.246,1.012.737.737,0,0,1-1.012.246,6.456,6.456,0,0,0-3.361-.939,6.48,6.48,0,0,0-6.473,6.473,6.48,6.48,0,0,0,6.473,6.473,6.48,6.48,0,0,0,6.473-6.473,6.456,6.456,0,0,0-.939-3.361.737.737,0,0,1,.246-1.012.737.737,0,0,1,1.012.246,7.929,7.929,0,0,1,1.154,4.128A7.955,7.955,0,0,1-183.6-41.148Z" transform="translate(191.546 57.04)"/>
          </g>
          <g id="g5762" transform="translate(20.733 21.353)">
            <path id="path5764" d="M-44.823-85.278a2.309,2.309,0,0,1-1.643-.681l-1.24-1.24a2.309,2.309,0,0,1-.681-1.643,2.308,2.308,0,0,1,.681-1.643,2.308,2.308,0,0,1,1.643-.681,2.309,2.309,0,0,1,1.191.327l1.334-1.334a2.308,2.308,0,0,1,1.643-.681,2.309,2.309,0,0,1,1.643.681,2.308,2.308,0,0,1,.681,1.643,2.309,2.309,0,0,1-.681,1.643l-2.928,2.928A2.309,2.309,0,0,1-44.823-85.278Zm-1.24-4.415a.845.845,0,0,0-.6.249.845.845,0,0,0-.249.6.845.845,0,0,0,.249.6l1.24,1.24a.845.845,0,0,0,.6.249.845.845,0,0,0,.6-.249l2.928-2.928a.845.845,0,0,0,.249-.6.845.845,0,0,0-.249-.6.845.845,0,0,0-.6-.249.845.845,0,0,0-.6.249L-44.3-89.326a.737.737,0,0,1-1.042,0l-.118-.118A.845.845,0,0,0-46.063-89.693Z" transform="translate(48.387 92.854)"/>
          </g>
          <g id="g5766" transform="translate(21.825 0)">
            <path id="path5768" d="M-76.723-45.019A3.32,3.32,0,0,1-73.407-41.7a3.32,3.32,0,0,1-3.316,3.316A3.32,3.32,0,0,1-80.038-41.7,3.32,3.32,0,0,1-76.723-45.019Zm0,5.159A1.845,1.845,0,0,0-74.88-41.7a1.845,1.845,0,0,0-1.843-1.843A1.845,1.845,0,0,0-78.565-41.7,1.845,1.845,0,0,0-76.723-39.86Z" transform="translate(80.038 45.019)"/>
          </g>
          <g id="g5770" transform="translate(43.65 21.825)">
            <path id="path5772" d="M-76.721-45.019A3.32,3.32,0,0,1-73.405-41.7a3.32,3.32,0,0,1-3.316,3.316A3.32,3.32,0,0,1-80.037-41.7,3.32,3.32,0,0,1-76.721-45.019Zm0,5.159A1.845,1.845,0,0,0-74.879-41.7a1.845,1.845,0,0,0-1.843-1.843A1.845,1.845,0,0,0-78.564-41.7,1.845,1.845,0,0,0-76.721-39.86Z" transform="translate(80.037 45.019)"/>
          </g>
          <g id="g5774" transform="translate(0 21.825)">
            <path id="path5776" d="M-76.721-45.019A3.32,3.32,0,0,1-73.405-41.7a3.32,3.32,0,0,1-3.316,3.316A3.32,3.32,0,0,1-80.037-41.7,3.32,3.32,0,0,1-76.721-45.019Zm0,5.159A1.845,1.845,0,0,0-74.879-41.7a1.845,1.845,0,0,0-1.843-1.843A1.845,1.845,0,0,0-78.564-41.7,1.845,1.845,0,0,0-76.721-39.86Z" transform="translate(80.037 45.019)"/>
          </g>
          <g id="g5778" transform="translate(21.825 43.65)">
            <path id="path5780" d="M-76.723-45.019A3.32,3.32,0,0,1-73.407-41.7a3.32,3.32,0,0,1-3.316,3.316A3.32,3.32,0,0,1-80.038-41.7,3.32,3.32,0,0,1-76.723-45.019Zm0,5.159A1.845,1.845,0,0,0-74.88-41.7a1.845,1.845,0,0,0-1.843-1.843A1.845,1.845,0,0,0-78.565-41.7,1.845,1.845,0,0,0-76.723-39.86Z" transform="translate(80.038 45.019)"/>
          </g>
          <g id="g5782" transform="translate(24.405 8.333)">
            <path id="path5784" d="M-9.263-2.872A.737.737,0,0,1-10-3.609V-9.263A.737.737,0,0,1-9.263-10a.737.737,0,0,1,.737.737v5.655A.737.737,0,0,1-9.263-2.872Z" transform="translate(10 10)"/>
          </g>
          <g id="g5786" transform="translate(34.821 24.405)">
            <path id="path5788" d="M-80.381-8.527h-5.655a.737.737,0,0,1-.737-.737A.737.737,0,0,1-86.035-10h5.655a.737.737,0,0,1,.737.737A.737.737,0,0,1-80.381-8.527Z" transform="translate(86.772 10)"/>
          </g>
          <g id="g5790" transform="translate(24.405 34.821)">
            <path id="path5792" d="M-9.263-79.645A.737.737,0,0,1-10-80.382v-5.655a.737.737,0,0,1,.737-.737.737.737,0,0,1,.737.737v5.655A.737.737,0,0,1-9.263-79.645Z" transform="translate(10 86.773)"/>
          </g>
          <g id="g5794" transform="translate(8.333 24.405)">
            <path id="path5796" d="M-3.609-8.527H-9.263A.737.737,0,0,1-10-9.263.737.737,0,0,1-9.263-10h5.655a.737.737,0,0,1,.737.737A.737.737,0,0,1-3.609-8.527Z" transform="translate(10 10)"/>
          </g>
        </g>
      </g>
    </g>
  </g>
</svg>
