<svg xmlns="http://www.w3.org/2000/svg" width="77" height="77" viewBox="0 0 77 77">
  <g id="Group_1111743" data-name="Group 1111743" transform="translate(-435 -3231.461)">
    <g id="Group_1111416" data-name="Group 1111416" transform="translate(-585.73 138.461)">
      <g id="Group_1098742" data-name="Group 1098742" transform="translate(1020.73 3093)">
        <rect id="Rectangle_400898" data-name="Rectangle 400898" width="77" height="77" rx="38.5" transform="translate(0 0)" fill="#ccda2d"/>
        <rect id="Rectangle_400907" data-name="Rectangle 400907" width="77" height="77" rx="38.5" transform="translate(0 0)" fill="none"/>
      </g>
    </g>
    <g id="l1" transform="translate(440.24 3242.709)">
      <path id="Path_900583" data-name="Path 900583" d="M21.6,206.2v22.4a3.705,3.705,0,0,0,3.679,3.733H41.833V206.2Z" transform="translate(-8.99 -184.725)" fill="#82bcf4"/>
      <path id="Path_900584" data-name="Path 900584" d="M103.124,384.12v1.006a3.019,3.019,0,1,1-6.034.134v-1.14Z" transform="translate(-77.956 -347.269)" fill="#edebf2"/>
      <path id="Path_900585" data-name="Path 900585" d="M97.09,329.82h6.034v3.352H97.09Z" transform="translate(-77.956 -297.662)" fill="#edebf2"/>
      <path id="Path_900586" data-name="Path 900586" d="M102.925,11.8H87.29a1.859,1.859,0,0,0-1.839,1.867v4.667h19.314V13.667A1.859,1.859,0,0,0,102.925,11.8Z" transform="translate(-67.322 -7.126)" fill="#82bcf4"/>
      <path id="Path_900587" data-name="Path 900587" d="M27.118,87.4,21.6,97.667H41.833l4.6-10.267Z" transform="translate(-8.99 -76.192)" fill="#edebf2"/>
      <path id="Path_900588" data-name="Path 900588" d="M255.717,206.2h10.117v26.134H255.717Z" transform="translate(-222.874 -184.727)" fill="#5f9cd9"/>
      <path id="Path_900589" data-name="Path 900589" d="M265.838,97.667H255.721l4.6-10.267Z" transform="translate(-222.878 -76.192)" fill="#c6c3d8"/>
      <path id="Path_900590" data-name="Path 900590" d="M265.838,97.667H255.721l4.6-10.267Z" transform="translate(-222.878 -76.192)" fill="#c9c6da"/>
      <g id="Group_1111742" data-name="Group 1111742" transform="translate(11.76 4)">
        <circle id="Ellipse_11673" data-name="Ellipse 11673" cx="0.67" cy="0.67" r="0.67" transform="translate(8.313 28.895)" fill="#222831"/>
        <circle id="Ellipse_11674" data-name="Ellipse 11674" cx="0.67" cy="0.67" r="0.67" transform="translate(11.129 28.895)" fill="#222831"/>
        <circle id="Ellipse_11675" data-name="Ellipse 11675" cx="0.67" cy="0.67" r="0.67" transform="translate(10.727 34.326)" fill="#222831"/>
        <circle id="Ellipse_11676" data-name="Ellipse 11676" cx="0.67" cy="0.67" r="0.67" transform="translate(8.715 34.326)" fill="#222831"/>
        <path id="Path_900591" data-name="Path 900591" d="M54,25.453H43.94V21.431c0-.416-.119-.334-6.034-10.257V6.548A2.547,2.547,0,0,0,35.358,4H19.671a2.547,2.547,0,0,0-2.548,2.548v4.827c0,.312-5.363,9.676-5.363,10.057V43.891a4.349,4.349,0,0,0,4.357,4.357H49.3a5.379,5.379,0,0,0,5.363-5.363V26.124A.634.634,0,0,0,54,25.453ZM37.3,12.782l4.76,7.978H33.615c1.073-2.346,2.615-5.565,3.688-7.978ZM18.464,6.548a1.2,1.2,0,0,1,1.207-1.206H35.358a1.2,1.2,0,0,1,1.207,1.206V10.7h-18.1ZM31.872,46.907H16.117A3,3,0,0,1,13.1,43.891V22.1H31.872ZM13.57,20.761l4.76-8.716H36.163c-1.206,2.548-2.816,6.034-4.089,8.716ZM33.213,46.907V22.1H42.6v3.352H37.906a.633.633,0,0,0-.67.671V42.885a5.151,5.151,0,0,0,2.212,4.022Zm16.09,0H43.269c-2.145,0-4.693-1.877-4.693-4.022V36.918l3.688-1.073a7.124,7.124,0,0,1,4.425.135,8.589,8.589,0,0,0,6.57-.4v7.308A3.935,3.935,0,0,1,49.3,46.907Zm4.023-12.8a7.731,7.731,0,0,1-6.168.6,8.709,8.709,0,0,0-5.229-.134l-3.352.939V26.795h14.75Z" transform="translate(-11.76 -4)" fill="#222831"/>
      </g>
      <path id="Path_900592" data-name="Path 900592" d="M332.787,380.515h-6.034c-2.145,0-4.693-1.877-4.693-4.022v-5.967l3.688-1.073a7.124,7.124,0,0,1,4.425.135,8.589,8.589,0,0,0,6.57-.4v7.308A3.935,3.935,0,0,1,332.787,380.515Z" transform="translate(-283.483 -333.608)" fill="#edebf2"/>
      <path id="Path_900593" data-name="Path 900593" d="M336.81,267.76v7.308a7.73,7.73,0,0,1-6.168.6,8.708,8.708,0,0,0-5.229-.134l-3.352.939V267.76Z" transform="translate(-283.483 -240.965)" fill="#94dbf9"/>
      <path id="Path_900594" data-name="Path 900594" d="M131.749,42.776H121.022a.671.671,0,1,0,0,1.341h10.727a.671.671,0,1,0,0-1.341Z" transform="translate(-99.206 -35.424)" fill="#222831"/>
      <path id="Path_900595" data-name="Path 900595" d="M66.189,272.642a2.967,2.967,0,0,0,1.274-2.28v-1.944a.671.671,0,0,0-1.341,0v1.944a1.507,1.507,0,0,1-1.34,1.408H57.406c-.6,0-.67-1.005-.67-1.408v-1.944a.671.671,0,1,0-1.341,0v1.944a2.852,2.852,0,0,0,.8,2.28,6.507,6.507,0,0,0-1.811,4.693.671.671,0,1,0,1.341-.067,5.048,5.048,0,0,1,1.006-3.286v4.961c0,5.765,8.715,5.9,8.715-.134v-5.1a4.417,4.417,0,0,1,1.677,3.554c0,.871,1.34.939,1.34.067A5.971,5.971,0,0,0,66.189,272.642ZM64.11,278.81a3.019,3.019,0,1,1-6.034.134V277.8H64.11Zm0-2.346H58.076v-3.352H64.11Z" transform="translate(-38.942 -240.953)" fill="#222831"/>
    </g>
  </g>
</svg>
