<svg xmlns="http://www.w3.org/2000/svg" width="77" height="77" viewBox="0 0 77 77">
  <g id="Group_1111774" data-name="Group 1111774" transform="translate(-8058 8377)">
    <g id="Group_1111419" data-name="Group 1111419" transform="translate(7037.27 -11470)">
      <g id="Group_1098742" data-name="Group 1098742" transform="translate(1020.73 3093)">
        <rect id="Rectangle_400898" data-name="Rectangle 400898" width="77" height="77" rx="38.5" transform="translate(0 0)" fill="#ccda2d"/>
        <rect id="Rectangle_400907" data-name="Rectangle 400907" width="77" height="77" rx="38.5" transform="translate(0 0)" fill="none"/>
      </g>
    </g>
    <g id="rueda-dentada" transform="translate(8073 -8362)">
      <g id="Group_1111772" data-name="Group 1111772" transform="translate(0.774 0.774)">
        <g id="Group_1111760" data-name="Group 1111760" transform="translate(12.382 38.694)">
          <path id="Path_900630" data-name="Path 900630" d="M170.051,408v3.1c0,2.564-7.623,4.643-17.025,4.643S136,413.66,136,411.1V408c0,2.564,7.623,4.643,17.025,4.643S170.051,410.564,170.051,408Z" transform="translate(-136 -408)" fill="#aab2bd"/>
        </g>
        <g id="Group_1111761" data-name="Group 1111761" transform="translate(12.382 35.378)">
          <path id="Path_900631" data-name="Path 900631" d="M164.941,373.72c3.154.843,5.11,2.017,5.11,3.316,0,2.564-7.623,4.643-17.025,4.643S136,379.6,136,377.036c0-1.3,1.956-2.473,5.11-3.316l2.066,2.066,1.649-1.1a15.37,15.37,0,0,0,4.717,1.956l.388,1.941h6.191l.388-1.941a15.37,15.37,0,0,0,4.717-1.956l1.649,1.1Z" transform="translate(-136 -373.72)" fill="#ccd1d9"/>
        </g>
        <g id="Group_1111762" data-name="Group 1111762" transform="translate(15.18 6.191)">
          <path id="Path_900632" data-name="Path 900632" d="M196.173,85.93v6.191l-1.941.388a15.371,15.371,0,0,1-1.956,4.717l1.1,1.649-2.312,2.312L189,103.253l-1.649-1.1a15.37,15.37,0,0,1-4.717,1.956l-.388,1.941h-6.191l-.388-1.941a15.37,15.37,0,0,1-4.717-1.956l-1.649,1.1-2.066-2.066-2.312-2.312,1.1-1.649a15.436,15.436,0,0,1-1.067-2.023,5.284,5.284,0,0,0,3.361-1.534h1.043a10.838,10.838,0,0,0,19.582,0h0a10.859,10.859,0,0,0,0-9.287h0a10.838,10.838,0,0,0-19.582,0h-1.043L165.2,82.307a15.3,15.3,0,0,1,.818-1.482l-1.1-1.649L169.3,74.8l1.649,1.1a15.37,15.37,0,0,1,4.717-1.956L176.052,72h6.191l.388,1.941a15.37,15.37,0,0,1,4.717,1.956L189,74.8l4.378,4.378-1.1,1.649a15.37,15.37,0,0,1,1.956,4.717Z" transform="translate(-164.92 -72)" fill="#fcd770"/>
        </g>
        <g id="Group_1111763" data-name="Group 1111763" transform="translate(18.573 18.573)">
          <path id="Path_900633" data-name="Path 900633" d="M220.626,200a10.859,10.859,0,0,1,0,9.287H200V200h20.625Z" transform="translate(-200 -200)" fill="#b4dd7f"/>
        </g>
        <g id="Group_1111764" data-name="Group 1111764" transform="translate(4.643 18.573)">
          <path id="Path_900634" data-name="Path 900634" d="M62.191,210.834v1.548a1.547,1.547,0,0,1-1.548,1.548h-3.1A1.547,1.547,0,0,1,56,212.382v-1.548h1.548a1.548,1.548,0,0,0,0-3.1,1.548,1.548,0,1,0,0-3.1,1.548,1.548,0,0,0,0-3.1A1.547,1.547,0,0,0,59.1,200h3.1Z" transform="translate(-56 -200)" fill="#ccd1d9"/>
        </g>
        <g id="Group_1111765" data-name="Group 1111765">
          <path id="Path_900635" data-name="Path 900635" d="M23.478,12.643v3.1a4.643,4.643,0,0,1-4.643,4.643H12.643A4.643,4.643,0,0,1,8,15.739v-3.1A4.643,4.643,0,0,1,12.643,8v4.643h6.191V8a4.644,4.644,0,0,1,4.643,4.643Z" transform="translate(-8 -8)" fill="#ccd1d9"/>
        </g>
        <g id="Group_1111766" data-name="Group 1111766" transform="translate(4.643 12.382)">
          <path id="Path_900636" data-name="Path 900636" d="M62.191,136v3.1H56.774a.773.773,0,0,0-.774.774V136Z" transform="translate(-56 -136)" fill="#ccd1d9"/>
        </g>
        <g id="Group_1111767" data-name="Group 1111767" transform="translate(4.643 15.478)">
          <path id="Path_900637" data-name="Path 900637" d="M62.191,171.1H58.322A2.321,2.321,0,0,1,56,168.774a.773.773,0,0,1,.774-.774h7.575a3.1,3.1,0,0,1,1.717.519l.752.5L69.93,171.1v9.287a5.284,5.284,0,0,1-3.361,1.534c-.125.009-.251.014-.376.014h-4Z" transform="translate(-56 -168)" fill="#f0d0b4"/>
        </g>
        <g id="Group_1111768" data-name="Group 1111768" transform="translate(1.548 23.216)">
          <path id="Path_900638" data-name="Path 900638" d="M28.643,248a1.548,1.548,0,1,1,0,3.1h-3.1a1.548,1.548,0,1,1,0-3.1Z" transform="translate(-24 -248)" fill="#f0d0b4"/>
        </g>
        <g id="Group_1111769" data-name="Group 1111769" transform="translate(1.548 26.312)">
          <path id="Path_900639" data-name="Path 900639" d="M28.643,280a1.548,1.548,0,1,1,0,3.1h-3.1a1.548,1.548,0,1,1,0-3.1Z" transform="translate(-24 -280)" fill="#f0d0b4"/>
        </g>
        <g id="Group_1111770" data-name="Group 1111770" transform="translate(1.548 20.121)">
          <path id="Path_900640" data-name="Path 900640" d="M28.643,216a1.548,1.548,0,1,1,0,3.1h-3.1a1.548,1.548,0,1,1,0-3.1Z" transform="translate(-24 -216)" fill="#f0d0b4"/>
        </g>
        <g id="Group_1111771" data-name="Group 1111771" transform="translate(1.548 17.025)">
          <path id="Path_900641" data-name="Path 900641" d="M29.417,185.548h.774a1.547,1.547,0,0,1-1.548,1.548h-3.1a1.548,1.548,0,1,1,0-3.1h1.68A2.324,2.324,0,0,0,29.417,185.548Z" transform="translate(-24 -184)" fill="#f0d0b4"/>
        </g>
      </g>
      <g id="Group_1111773" data-name="Group 1111773" transform="translate(0 0)">
        <ellipse id="Ellipse_11678" data-name="Ellipse 11678" cx="0.722" cy="1.082" rx="0.722" ry="1.082" transform="translate(29.582 9.019)"/>
        <path id="Path_900642" data-name="Path 900642" d="M202.951,138.177a.774.774,0,1,0,.547.227A.772.772,0,0,0,202.951,138.177Z" transform="translate(-182.619 -124.81)"/>
        <path id="Path_900643" data-name="Path 900643" d="M202.951,341.823a.774.774,0,1,0,.547.227A.771.771,0,0,0,202.951,341.823Z" transform="translate(-182.619 -308.757)"/>
        <circle id="Ellipse_11679" data-name="Ellipse 11679" cx="0.722" cy="0.722" r="0.722" transform="translate(29.582 37.158)"/>
        <path id="Path_900644" data-name="Path 900644" d="M406.6,341.823a.774.774,0,1,0,.547.227A.772.772,0,0,0,406.6,341.823Z" transform="translate(-366.566 -308.757)"/>
        <circle id="Ellipse_11680" data-name="Ellipse 11680" cx="0.722" cy="0.722" r="0.722" transform="translate(43.291 23.449)"/>
        <path id="Path_900645" data-name="Path 900645" d="M406.6,138.177a.774.774,0,1,0,.547.227A.772.772,0,0,0,406.6,138.177Z" transform="translate(-366.566 -124.81)"/>
        <path id="Path_900646" data-name="Path 900646" d="M47.98,27.72V20.26L45.9,19.844a16.12,16.12,0,0,0-1.673-4.034L45.4,14.042,40.13,8.767,38.361,9.946a16.116,16.116,0,0,0-4.034-1.673l-.416-2.082h-7.46l-.416,2.082A16.124,16.124,0,0,0,22,9.946L20.233,8.767l-5.275,5.275,1.179,1.769c-.065.112-.129.225-.192.339l-.032-.022a3.857,3.857,0,0,0-2.146-.65H12.382v-1.6a5.425,5.425,0,0,0,4.643-5.361v-3.1A5.423,5.423,0,0,0,11.608,0h-.774V4.643H6.191V0H5.417A5.423,5.423,0,0,0,0,5.417v3.1a5.425,5.425,0,0,0,4.643,5.361v3.152H3.869a2.32,2.32,0,0,0-1.729,3.869,2.316,2.316,0,0,0,0,3.1,2.316,2.316,0,0,0,0,3.1,2.32,2.32,0,0,0,1.729,3.869h.774v.774a2.324,2.324,0,0,0,2.322,2.322h3.1a2.324,2.324,0,0,0,2.322-2.322v-.774H15.5c.2.413.41.819.641,1.215l-1.179,1.769L16.8,35.78c-2.9.959-4.418,2.223-4.418,3.687v3.1c0,3.556,8.954,5.417,17.8,5.417s17.8-1.861,17.8-5.417v-3.1c0-1.464-1.521-2.728-4.418-3.687L45.4,33.939,44.226,32.17A16.121,16.121,0,0,0,45.9,28.136ZM6.191,15.478V13.93h4.643v1.548ZM1.548,8.513v-3.1a3.876,3.876,0,0,1,3.1-3.792V6.191h7.739V1.626a3.876,3.876,0,0,1,3.1,3.792v3.1a3.874,3.874,0,0,1-3.869,3.869H5.417A3.874,3.874,0,0,1,1.548,8.513Zm2.322,10.06H5.06a3.1,3.1,0,0,0,2.161,1.5.768.768,0,0,1-.255.044h-3.1a.774.774,0,1,1,0-1.548ZM3.1,25.538a.775.775,0,0,1,.774-.774h3.1a.774.774,0,1,1,0,1.548h-3.1A.775.775,0,0,1,3.1,25.538Zm0-3.1a.775.775,0,0,1,.774-.774h3.1a.774.774,0,0,1,0,1.548h-3.1A.775.775,0,0,1,3.1,22.442Zm0,6.191a.775.775,0,0,1,.774-.774h3.1a.774.774,0,1,1,0,1.548h-3.1A.775.775,0,0,1,3.1,28.634ZM10.06,32.5h-3.1a.775.775,0,0,1-.774-.774v-.774h.774a2.32,2.32,0,0,0,1.729-3.869,2.316,2.316,0,0,0,0-3.1,2.316,2.316,0,0,0,0-3.1,2.323,2.323,0,0,0,.46-.774h1.681V31.729A.775.775,0,0,1,10.06,32.5Zm2.322-10a4,4,0,0,0,1.184.631l.119.04.49-1.468-.119-.04a2.444,2.444,0,0,1-1.673-2.322v-.774H7.739a1.55,1.55,0,0,1-1.548-1.548h7.575a2.314,2.314,0,0,1,1.288.39l3.519,2.346V28.3a4.477,4.477,0,0,1-2.963,1.111H12.382ZM39.467,27.86H20.121V20.121H39.467a10.055,10.055,0,0,1,0,7.739Zm-.812,1.548a10.056,10.056,0,0,1-16.95,0ZM21.7,18.573a10.056,10.056,0,0,1,16.95,0ZM13.93,42.563v-.742a9.292,9.292,0,0,0,1.548.836V44.04C14.423,43.5,13.93,42.962,13.93,42.563Zm3.1,2.129V43.233c.488.156,1,.3,1.548.434V45.16l-.227-.06q-.723-.2-1.321-.408Zm10.834.15v1.548q-.783-.029-1.548-.078V44.765q.768.048,1.548.077Zm-3.1,1.349q-.79-.073-1.548-.167V44.486q.762.091,1.548.161Zm-3.1-.387q-.8-.129-1.548-.283V44.007q.752.146,1.548.269Zm7.739.625V44.88q.387,0,.774,0t.774,0v1.548q-.385,0-.774,0T29.407,46.428Zm10.834-2.421v1.514q-.747.154-1.548.283V44.276Q39.489,44.154,40.242,44.007Zm-3.1,2.016q-.758.094-1.548.167V44.648q.785-.07,1.548-.161Zm-3.1.288q-.764.049-1.548.078V44.842q.778-.029,1.548-.077Zm7.739-1.151V43.667c.543-.134,1.06-.279,1.548-.434v1.459q-.6.209-1.321.408l-.227.06Zm3.1-1.12V42.657a9.292,9.292,0,0,0,1.548-.836v.742C46.433,42.962,45.939,43.5,44.885,44.04Zm1.548-4.572c0,.663-1.366,1.7-4.416,2.537a47.061,47.061,0,0,1-11.835,1.333A47.061,47.061,0,0,1,18.346,42c-3.051-.832-4.416-1.874-4.416-2.537,0-.644,1.275-1.633,4.108-2.45l2.2,2.2L22,38.035a16.121,16.121,0,0,0,4.034,1.673l.416,2.082h7.46l.416-2.082a16.121,16.121,0,0,0,4.034-1.673l1.769,1.179,2.2-2.2C45.157,37.835,46.433,38.824,46.433,39.468ZM44.511,27.3a14.586,14.586,0,0,1-1.858,4.479l-.265.424,1.025,1.538-3.481,3.481L38.395,36.2l-.424.265a14.588,14.588,0,0,1-4.479,1.858L33,38.432l-.362,1.81H27.72l-.362-1.81-.487-.112a14.587,14.587,0,0,1-4.479-1.858l-.424-.265L20.43,37.222l-3.481-3.481L17.975,32.2l-.265-.424c-.207-.33-.4-.671-.58-1.017a6.007,6.007,0,0,0,2.526-1.355h.258a11.61,11.61,0,1,0,0-10.834h-.332l-2.343-1.562c.149-.275.305-.547.471-.811l.265-.424L16.95,14.239l3.481-3.481,1.538,1.025.424-.265a14.588,14.588,0,0,1,4.479-1.858l.487-.112.362-1.81h4.922L33,9.548l.487.112a14.59,14.59,0,0,1,4.479,1.858l.424.265,1.538-1.025,3.481,3.481-1.025,1.538.265.424a14.587,14.587,0,0,1,1.858,4.479l.112.487,1.81.362v4.922l-1.81.362Z" transform="translate(0 0)"/>
      </g>
    </g>
  </g>
</svg>
