<svg xmlns="http://www.w3.org/2000/svg" width="77" height="77" viewBox="0 0 77 77">
  <g id="Group_1112087" data-name="Group 1112087" transform="translate(-750 -3231.461)">
    <g id="Group_1111417" data-name="Group 1111417" transform="translate(-270.73 138.461)">
      <g id="Group_1098742" data-name="Group 1098742" transform="translate(1020.73 3093)">
        <rect id="Rectangle_400898" data-name="Rectangle 400898" width="77" height="77" rx="38.5" transform="translate(0 0)" fill="#ccda2d"/>
        <rect id="Rectangle_400907" data-name="Rectangle 400907" width="77" height="77" rx="38.5" transform="translate(0 0)" fill="none"/>
      </g>
    </g>
    <g id="ordeno" transform="translate(689.754 3243.231)">
      <g id="Group_1111744" data-name="Group 1111744" transform="translate(84.139 25.694)">
        <path id="Path_900596" data-name="Path 900596" d="M139.5,248.491l-14.779-2.41-15.711,2.41h-.056c2.418,16.838,1.305,9.092,2.933,20.431l12.339,1.5,12.339-1.5Z" transform="translate(-108.955 -246.081)" fill="#cbe2ff" fill-rule="evenodd"/>
      </g>
      <g id="Group_1111745" data-name="Group 1111745" transform="translate(82.029 23.771)">
        <path id="Path_900597" data-name="Path 900597" d="M121.506,227.668H90.912a2.167,2.167,0,0,0,0,4.333h30.593a2.167,2.167,0,0,0,0-4.333Z" transform="translate(-88.746 -227.668)" fill="#9dc6fb" fill-rule="evenodd"/>
      </g>
      <g id="Group_1111746" data-name="Group 1111746" transform="translate(84.639 38.78)">
        <path id="Path_900598" data-name="Path 900598" d="M121.853,372.823a2,2,0,0,0-2.38-1.344,15.588,15.588,0,0,1-3.738.453,1.99,1.99,0,0,0-.314,3.954,1.821,1.821,0,0,0,.314.024,19.544,19.544,0,0,0,4.691-.568,1.99,1.99,0,0,0,1.456-2.406c-.009-.038-.021-.074-.03-.112Z" transform="translate(-113.747 -371.42)" fill="#ffe07d" fill-rule="evenodd"/>
      </g>
      <g id="Group_1111747" data-name="Group 1111747" transform="translate(87.072 48.535)">
        <path id="Path_900599" data-name="Path 900599" d="M161.724,464.843H137.047l.317,2.19a2.068,2.068,0,0,0,1.947,1.95H159.46a2.073,2.073,0,0,0,1.95-1.95Z" transform="translate(-137.047 -464.843)" fill="#9dc6fb" fill-rule="evenodd"/>
      </g>
      <g id="Group_1111748" data-name="Group 1111748" transform="translate(84.139 28.104)">
        <path id="Path_900600" data-name="Path 900600" d="M128.418,269.167H108.956l.367,2.563h26.355L133.109,289.6h3.457l2.936-20.431Z" transform="translate(-108.956 -269.167)" fill="#bed8fb" fill-rule="evenodd"/>
      </g>
      <g id="Group_1111749" data-name="Group 1111749" transform="translate(106.028 48.535)">
        <path id="Path_900601" data-name="Path 900601" d="M324.322,464.843h-3.457l-.314,2.19a2.068,2.068,0,0,1-1.95,1.95h3.457a2.073,2.073,0,0,0,1.95-1.95Z" transform="translate(-318.601 -464.843)" fill="#80b4fb" fill-rule="evenodd"/>
      </g>
      <g id="Group_1111750" data-name="Group 1111750" transform="translate(110.592 23.771)">
        <path id="Path_900602" data-name="Path 900602" d="M368.674,229.835a2.171,2.171,0,0,0-2.166-2.167h-4.2a2.167,2.167,0,0,1,0,4.333h4.2A2.173,2.173,0,0,0,368.674,229.835Z" transform="translate(-362.311 -227.668)" fill="#80b4fb" fill-rule="evenodd"/>
      </g>
      <g id="Group_1111751" data-name="Group 1111751" transform="translate(84.737 39.002)">
        <path id="Path_900603" data-name="Path 900603" d="M120.279,376.084a19.557,19.557,0,0,1-4.185.562c-.169,0-.337.006-.506.006a1.879,1.879,0,0,1-.317-.027,1.938,1.938,0,0,1-.589-.192,2,2,0,0,0,1.577,1.35,1.823,1.823,0,0,0,.314.024,19.544,19.544,0,0,0,4.691-.568,1.99,1.99,0,0,0,1.456-2.406c-.009-.039-.021-.074-.03-.112a1.984,1.984,0,0,0-1-1.181l.009.027c.012.035.021.074.03.11a1.992,1.992,0,0,1-1.453,2.409Z" transform="translate(-114.682 -373.539)" fill="#ffd064" fill-rule="evenodd"/>
      </g>
      <g id="Group_1111752" data-name="Group 1111752" transform="translate(83.507 0.783)">
        <path id="Path_900604" data-name="Path 900604" d="M133.4,7.5H104.379a14.444,14.444,0,0,0,1.166,6.778l-1.752,1.012a1.783,1.783,0,0,0,1.785,3.087l1.776-1.024a14.527,14.527,0,0,0,2.676,2.681L109,21.807a1.783,1.783,0,1,0,3.09,1.782L113.1,21.84a14.7,14.7,0,0,0,4,1.089v1.589a1.783,1.783,0,0,0,3.566,0V22.932a14.4,14.4,0,0,0,4-1.092l1.009,1.749a1.783,1.783,0,1,0,3.09-1.782l-1.027-1.776a14.453,14.453,0,0,0,2.681-2.679l1.773,1.024a1.783,1.783,0,1,0,1.785-3.087l-1.752-1.012A14.584,14.584,0,0,0,133.4,7.5Z" transform="translate(-102.903 -7.5)" fill="#ffdfcf" fill-rule="evenodd"/>
      </g>
      <path id="Path_900605" data-name="Path 900605" d="M117.738,223.115a2.951,2.951,0,0,0-2.949-2.947H96.259a.783.783,0,0,0,0,1.566h7.079a16.578,16.578,0,0,1-.365,2.764H84.2a1.382,1.382,0,1,1,0-2.764h8.45a.783.783,0,0,0,0-1.566H84.2a2.948,2.948,0,0,0-.749,5.8l1.479,10.308a2.769,2.769,0,0,0,.686,4.763l1,6.977a2.838,2.838,0,0,0,2.723,2.623h20.149a2.845,2.845,0,0,0,2.726-2.622l3.162-22.01a2.953,2.953,0,0,0,2.366-2.891Zm-32.7,2.95h17.506a16.822,16.822,0,0,1-9.427,10.306,2.78,2.78,0,0,0-2.942-1.111,14.82,14.82,0,0,1-3.55.43c-.068,0-.136,0-.2.008Zm1.06,11.313.016-.008a1.2,1.2,0,0,1,.51-.115,16.383,16.383,0,0,0,3.926-.476,1.206,1.206,0,0,1,.579,2.342h0a18.782,18.782,0,0,1-4.5.546,1.2,1.2,0,0,1-.526-2.289Zm23.383,11.7H89.336a1.317,1.317,0,0,1-1.172-1.279l-.186-1.3h9.678a.783.783,0,1,0,0-1.566h-9.9l-.533-3.708a20.328,20.328,0,0,0,4.286-.582,2.775,2.775,0,0,0,2.109-2.781,18.336,18.336,0,0,0,10.584-11.8h9.582l-2.71,18.867h-9.657a.783.783,0,0,0,0,1.566h9.432l-.186,1.295a1.323,1.323,0,0,1-1.175,1.28Zm5.3-24.574H104.58a18.359,18.359,0,0,0,.326-2.764h9.883a1.382,1.382,0,1,1,0,2.764Z" transform="translate(0 -197.18)"/>
      <g id="Group_1111753" data-name="Group 1111753" transform="translate(95.978 0.783)">
        <path id="Path_900606" data-name="Path 900606" d="M239.2,14.278A14.585,14.585,0,0,0,240.364,7.5H229.745a8.332,8.332,0,0,1,1.894,5.171,7.4,7.4,0,0,1-.071,1.027c-.539,3.969-4.173,7.322-9.228,8.909a14.859,14.859,0,0,0,1.731.323v1.589a1.783,1.783,0,0,0,3.566,0V22.932a14.4,14.4,0,0,0,4-1.092l1.009,1.749a1.783,1.783,0,1,0,3.09-1.782l-1.027-1.776a14.452,14.452,0,0,0,2.681-2.679l1.773,1.024a1.783,1.783,0,1,0,1.785-3.087Z" transform="translate(-222.34 -7.5)" fill="#ffcebf" fill-rule="evenodd"/>
      </g>
      <g id="Group_1111754" data-name="Group 1111754" transform="translate(82.723 0)">
        <path id="Path_900607" data-name="Path 900607" d="M112.161,20.366A2.568,2.568,0,0,1,109.6,17.8v-.913a15.456,15.456,0,0,1-2.88-.783l-.669,1.159A2.566,2.566,0,0,1,101.6,14.7l.69-1.194a15.318,15.318,0,0,1-1.852-1.856l-1.194.689a2.566,2.566,0,0,1-2.566-4.444l1.159-.67a15.33,15.33,0,0,1-.964-6.5.783.783,0,1,1,1.563.108,13.738,13.738,0,0,0,1.1,6.411.783.783,0,0,1-.326.991L97.459,9.251a1,1,0,0,0,1,1.731l1.777-1.025a.783.783,0,0,1,1.013.2A13.762,13.762,0,0,0,103.78,12.7a.783.783,0,0,1,.2,1.012l-1.024,1.773a1,1,0,1,0,1.734,1l1.009-1.748a.783.783,0,0,1,.989-.328,13.9,13.9,0,0,0,3.788,1.031.783.783,0,0,1,.686.777V17.8a1,1,0,0,0,2,0V16.215a.783.783,0,0,1,.688-.777,13.622,13.622,0,0,0,3.784-1.033.783.783,0,0,1,.991.327l1.009,1.749a1,1,0,1,0,1.733-1l-1.026-1.774a.783.783,0,0,1,.2-1.014,13.683,13.683,0,0,0,2.536-2.534.783.783,0,0,1,1.013-.2l1.773,1.024a1,1,0,0,0,1-1.73l-1.754-1.013a.783.783,0,0,1-.327-.989,13.841,13.841,0,0,0,1.1-6.413A.783.783,0,1,1,127.453.73a15.412,15.412,0,0,1-.966,6.494l1.162.672a2.566,2.566,0,0,1-2.568,4.443l-1.191-.688a15.269,15.269,0,0,1-1.857,1.855l.69,1.194a2.566,2.566,0,1,1-4.446,2.566l-.668-1.158a15.164,15.164,0,0,1-2.881.786V17.8a2.569,2.569,0,0,1-2.567,2.565Z" transform="translate(-95.393 0)"/>
      </g>
      <g id="Group_1111755" data-name="Group 1111755" transform="translate(102.576 5.194)">
        <path id="Path_900608" data-name="Path 900608" d="M288.943,52.4a4.485,4.485,0,0,1-3.178-1.312.783.783,0,1,1,1.106-1.109,2.938,2.938,0,0,0,4.144,0,.783.783,0,1,1,1.106,1.109A4.485,4.485,0,0,1,288.943,52.4Z" transform="translate(-285.535 -49.748)"/>
      </g>
      <g id="Group_1111756" data-name="Group 1111756" transform="translate(90.936 7.281)">
        <path id="Path_900609" data-name="Path 900609" d="M177.458,72.384a4.482,4.482,0,0,1-3.179-1.315.783.783,0,1,1,1.107-1.107,2.933,2.933,0,0,0,4.143,0,.783.783,0,1,1,1.107,1.107A4.482,4.482,0,0,1,177.458,72.384Z" transform="translate(-174.05 -69.733)"/>
      </g>
    </g>
    <g id="Group_1111757" data-name="Group 1111757" transform="translate(0 -5)">
      <path id="Path_900610" data-name="Path 900610" d="M7090.037-8348.863l8.236,8.236" transform="translate(-6280.037 11608.869)" fill="none" stroke="#e04646" stroke-linecap="round" stroke-width="3"/>
      <path id="Path_900611" data-name="Path 900611" d="M0,0,8.236,8.237" transform="translate(818.237 3260.006) rotate(90)" fill="none" stroke="#e04646" stroke-linecap="round" stroke-width="3"/>
    </g>
  </g>
</svg>
