<svg xmlns="http://www.w3.org/2000/svg" width="1240" height="586" viewBox="0 0 1240 586">
  <g id="Group_1112086" data-name="Group 1112086" transform="translate(-180.333 -387)">
    <g id="sintesis_cuadro" data-name="sintesis cuadro" transform="translate(611.923 491)">
      <path id="Path_873211" data-name="Path 873211" d="M0,0H375.273V47.414H0Z" fill="#0d8449"/>
      <path id="Path_901332" data-name="Path 901332" d="M81.022,12.664q0-.414-.527-.652a7.223,7.223,0,0,0-1.691-.426q-3.873-.633-3.873-2.562a2.194,2.194,0,0,1,1.2-1.879,5.818,5.818,0,0,1,3.136-.754,6.291,6.291,0,0,1,3.306.758,2.252,2.252,0,0,1,1.239,1.969h-2.9a.978.978,0,0,0-.4-.8A2.02,2.02,0,0,0,79.256,8a2.1,2.1,0,0,0-1.134.258.762.762,0,0,0-.4.656.687.687,0,0,0,.457.605,5.645,5.645,0,0,0,1.54.4,15.511,15.511,0,0,1,1.826.379q2.3.656,2.3,2.273a2.121,2.121,0,0,1-1.274,1.871,6.685,6.685,0,0,1-3.291.715,7.169,7.169,0,0,1-2.423-.379,4.038,4.038,0,0,1-1.661-1.039,2.081,2.081,0,0,1-.6-1.426h2.749a1.11,1.11,0,0,0,.572.922,2.747,2.747,0,0,0,1.425.32,2.57,2.57,0,0,0,1.259-.246A.731.731,0,0,0,81.022,12.664ZM90.7,15.156a6.249,6.249,0,0,1-3.888-1.141,3.627,3.627,0,0,1-1.5-3.039v-.219a4.184,4.184,0,0,1,.632-2.277,4.125,4.125,0,0,1,1.791-1.547,6.163,6.163,0,0,1,2.644-.543A5.223,5.223,0,0,1,93.89,7.484a3.858,3.858,0,0,1,1.279,3.1v.922H88.256a1.979,1.979,0,0,0,.848,1.328,3.029,3.029,0,0,0,1.791.5,3.535,3.535,0,0,0,2.619-.945l1.425,1.242a4.305,4.305,0,0,1-1.766,1.121A7.221,7.221,0,0,1,90.7,15.156Zm-.331-6.937a1.956,1.956,0,0,0-2.087,1.75H92.32v-.18a1.468,1.468,0,0,0-.522-1.16A2.2,2.2,0,0,0,90.373,8.219Zm6.02,2.492a4.232,4.232,0,0,1,1.189-3.133,4.335,4.335,0,0,1,3.206-1.187,3.851,3.851,0,0,1,2.779.953l.12-.8h2.629v8.172a3.023,3.023,0,0,1-.647,1.93,4,4,0,0,1-1.821,1.25,7.991,7.991,0,0,1-2.749.43,7.437,7.437,0,0,1-2.328-.371A4.247,4.247,0,0,1,97.056,17l1.284-1.375a3.861,3.861,0,0,0,2.629.945,2.945,2.945,0,0,0,1.8-.48,1.6,1.6,0,0,0,.642-1.363v-.453a3.849,3.849,0,0,1-2.639.883A4.316,4.316,0,0,1,97.6,13.965a4.237,4.237,0,0,1-1.209-3.16Zm2.9.164a2.581,2.581,0,0,0,.592,1.8,2.085,2.085,0,0,0,1.626.652,2.2,2.2,0,0,0,1.9-.773V9a2.2,2.2,0,0,0-1.876-.773,2.094,2.094,0,0,0-1.641.664A2.885,2.885,0,0,0,99.294,10.875Zm15.753,3.266a4.149,4.149,0,0,1-2.97,1.016,4.005,4.005,0,0,1-2.664-.781,2.892,2.892,0,0,1-.938-2.289V6.547h2.9v5.461q0,1.32,1.545,1.32a2.3,2.3,0,0,0,2.027-.8V6.547h2.91V15h-2.729ZM123.1,15h-2.91V6.547h2.91Zm-3.08-10.641a1,1,0,0,1,.436-.836,2.309,2.309,0,0,1,2.373,0,1.016,1.016,0,0,1-.005,1.68,2.282,2.282,0,0,1-2.358,0A1,1,0,0,1,120.024,4.359Zm8.188,2.188.09.945a4.332,4.332,0,0,1,3.121-1.1A3.09,3.09,0,0,1,134.3,7.68a4.131,4.131,0,0,1,3.261-1.289,3.753,3.753,0,0,1,2.629.8,3.132,3.132,0,0,1,.863,2.41V15h-2.91V9.609a1.364,1.364,0,0,0-.361-1.051,1.889,1.889,0,0,0-1.274-.332A1.852,1.852,0,0,0,134.7,9.2l.01,5.8h-2.9V9.617a1.352,1.352,0,0,0-.371-1.062,1.91,1.91,0,0,0-1.264-.328,2.018,2.018,0,0,0-1.786.8V15h-2.9V6.547ZM146.343,15h-2.91V6.547h2.91Zm-3.08-10.641a1,1,0,0,1,.436-.836,2.309,2.309,0,0,1,2.373,0,1.016,1.016,0,0,1-.005,1.68,2.282,2.282,0,0,1-2.358,0A1,1,0,0,1,143.263,4.359Zm10.465,10.8a6.249,6.249,0,0,1-3.888-1.141,3.627,3.627,0,0,1-1.5-3.039v-.219a4.184,4.184,0,0,1,.632-2.277,4.125,4.125,0,0,1,1.791-1.547,6.162,6.162,0,0,1,2.644-.543,5.223,5.223,0,0,1,3.507,1.094,3.858,3.858,0,0,1,1.279,3.1v.922H151.28a1.979,1.979,0,0,0,.848,1.328,3.029,3.029,0,0,0,1.791.5,3.535,3.535,0,0,0,2.619-.945l1.425,1.242a4.305,4.305,0,0,1-1.766,1.121A7.221,7.221,0,0,1,153.728,15.156ZM153.4,8.219a1.956,1.956,0,0,0-2.087,1.75h4.034v-.18a1.468,1.468,0,0,0-.522-1.16A2.2,2.2,0,0,0,153.4,8.219Zm9.111-1.672.09.977a4.283,4.283,0,0,1,3.121-1.133,3.646,3.646,0,0,1,2.569.789,3.139,3.139,0,0,1,.863,2.359V15h-2.9V9.594a1.263,1.263,0,0,0-.4-1.043,2.634,2.634,0,0,0-3.171.488V15h-2.9V6.547ZM174.82,4.469V6.547h1.856V8.2H174.82v4.219a.855.855,0,0,0,.231.672,1.386,1.386,0,0,0,.883.2,5.91,5.91,0,0,0,.853-.055v1.711a7.553,7.553,0,0,1-1.756.2q-3.05,0-3.111-2.4V8.2h-1.585V6.547h1.585V4.469Zm2.719,6.227a3.988,3.988,0,0,1,2.413-3.766,6.421,6.421,0,0,1,2.714-.539,5.8,5.8,0,0,1,3.587,1.047,3.826,3.826,0,0,1,1.55,2.844l.02.578a3.878,3.878,0,0,1-1.395,3.121,6.562,6.562,0,0,1-7.49,0,3.938,3.938,0,0,1-1.4-3.187Zm2.9.164a2.635,2.635,0,0,0,.582,1.84,2.482,2.482,0,0,0,3.311.008,2.868,2.868,0,0,0,.592-2.012,2.614,2.614,0,0,0-.592-1.828,2.141,2.141,0,0,0-1.666-.648,2.1,2.1,0,0,0-1.646.645A2.91,2.91,0,0,0,180.439,10.859Zm9.924,6.992-1.515-.617.361-.508a3.413,3.413,0,0,0,.692-1.9v-1.75h2.448l-.01,1.563a3.361,3.361,0,0,1-.562,1.75A4.8,4.8,0,0,1,190.362,17.852Zm14.379-2.7a6.249,6.249,0,0,1-3.888-1.141,3.627,3.627,0,0,1-1.5-3.039v-.219a4.184,4.184,0,0,1,.632-2.277,4.125,4.125,0,0,1,1.791-1.547,6.162,6.162,0,0,1,2.644-.543,5.223,5.223,0,0,1,3.507,1.094,3.858,3.858,0,0,1,1.279,3.1v.922h-6.913a1.979,1.979,0,0,0,.848,1.328,3.029,3.029,0,0,0,1.791.5,3.535,3.535,0,0,0,2.619-.945l1.425,1.242a4.305,4.305,0,0,1-1.766,1.121A7.221,7.221,0,0,1,204.741,15.156Zm-.331-6.937a1.956,1.956,0,0,0-2.087,1.75h4.034v-.18a1.468,1.468,0,0,0-.522-1.16A2.2,2.2,0,0,0,204.41,8.219Zm10.375,4.023,2.017-5.7h3.03L216.17,15H213.4l-3.662-8.453h3.03ZM227.247,15a2.12,2.12,0,0,1-.291-.758,4.03,4.03,0,0,1-2.739.914,4.573,4.573,0,0,1-2.644-.719,2.134,2.134,0,0,1-1.049-1.812,2.255,2.255,0,0,1,1.279-2.062,7.728,7.728,0,0,1,3.7-.727h1.335V9.352a1.206,1.206,0,0,0-.386-.937,1.774,1.774,0,0,0-1.219-.352,2.077,2.077,0,0,0-1.149.273.853.853,0,0,0-.416.75h-2.9a1.96,1.96,0,0,1,.582-1.359,3.878,3.878,0,0,1,1.646-.98,7.509,7.509,0,0,1,2.388-.355,5.677,5.677,0,0,1,3.186.785,2.5,2.5,0,0,1,1.179,2.207v3.664a3.284,3.284,0,0,0,.431,1.82V15Zm-2.4-1.57a3.085,3.085,0,0,0,1.184-.223,1.756,1.756,0,0,0,.8-.6V11.156h-1.084q-2.177,0-2.318,1.172l-.01.133a.825.825,0,0,0,.381.7A1.761,1.761,0,0,0,224.849,13.43ZM235.034,15h-2.91V3h2.91Zm8.89-.859a4.149,4.149,0,0,1-2.97,1.016,4.005,4.005,0,0,1-2.664-.781,2.893,2.893,0,0,1-.938-2.289V6.547h2.9v5.461q0,1.32,1.545,1.32a2.3,2.3,0,0,0,2.027-.8V6.547h2.91V15H244ZM255.212,15a2.121,2.121,0,0,1-.291-.758,4.03,4.03,0,0,1-2.739.914,4.573,4.573,0,0,1-2.644-.719,2.134,2.134,0,0,1-1.049-1.812,2.255,2.255,0,0,1,1.279-2.062,7.728,7.728,0,0,1,3.7-.727H254.8V9.352a1.206,1.206,0,0,0-.386-.937,1.774,1.774,0,0,0-1.219-.352,2.077,2.077,0,0,0-1.149.273.853.853,0,0,0-.416.75h-2.9a1.96,1.96,0,0,1,.582-1.359,3.878,3.878,0,0,1,1.646-.98,7.509,7.509,0,0,1,2.388-.355,5.677,5.677,0,0,1,3.186.785,2.5,2.5,0,0,1,1.179,2.207v3.664a3.284,3.284,0,0,0,.431,1.82V15Zm-2.4-1.57A3.086,3.086,0,0,0,254,13.207a1.756,1.756,0,0,0,.8-.6V11.156h-1.084q-2.177,0-2.318,1.172l-.01.133a.825.825,0,0,0,.381.7A1.761,1.761,0,0,0,252.814,13.43Zm11.639-.094a2.263,2.263,0,0,0,1.3-.344,1.11,1.11,0,0,0,.522-.914H269a2.46,2.46,0,0,1-.6,1.574,3.831,3.831,0,0,1-1.621,1.109,6.3,6.3,0,0,1-2.273.395A5.459,5.459,0,0,1,260.831,14a3.97,3.97,0,0,1-1.345-3.184v-.148a3.929,3.929,0,0,1,1.335-3.117,6.352,6.352,0,0,1,6.928-.262A2.887,2.887,0,0,1,269,9.7H266.28a1.371,1.371,0,0,0-.522-1.066,2.027,2.027,0,0,0-1.324-.41,1.953,1.953,0,0,0-1.53.574,2.748,2.748,0,0,0-.517,1.863v.234a2.779,2.779,0,0,0,.512,1.875A1.985,1.985,0,0,0,264.453,13.336ZM273.715,15H270.8V6.547h2.91Zm-3.08-10.641a1,1,0,0,1,.436-.836,2.309,2.309,0,0,1,2.373,0,1.016,1.016,0,0,1-.005,1.68,2.282,2.282,0,0,1-2.358,0A1,1,0,0,1,270.634,4.359Zm5.017,6.336a3.988,3.988,0,0,1,2.413-3.766,6.421,6.421,0,0,1,2.714-.539,5.8,5.8,0,0,1,3.587,1.047,3.826,3.826,0,0,1,1.55,2.844l.02.578a3.878,3.878,0,0,1-1.395,3.121,6.562,6.562,0,0,1-7.49,0,3.938,3.938,0,0,1-1.4-3.187Zm2.9.164a2.635,2.635,0,0,0,.582,1.84,2.482,2.482,0,0,0,3.311.008,2.868,2.868,0,0,0,.592-2.012,2.614,2.614,0,0,0-.592-1.828,2.141,2.141,0,0,0-1.666-.648,2.1,2.1,0,0,0-1.646.645A2.91,2.91,0,0,0,278.551,10.859ZM281.351,3h3.161l-2.779,2.422h-2.358Zm9.041,3.547.09.977A4.283,4.283,0,0,1,293.6,6.391a3.646,3.646,0,0,1,2.569.789,3.139,3.139,0,0,1,.863,2.359V15h-2.9V9.594a1.263,1.263,0,0,0-.4-1.043,2.634,2.634,0,0,0-3.171.488V15h-2.9V6.547ZM308.4,11.8l2.007-5.258h3.111l-4.365,9.766-.241.445a3.431,3.431,0,0,1-3.211,1.656,5.775,5.775,0,0,1-1.284-.148V16.555l.441.008a2.963,2.963,0,0,0,1.229-.2,1.388,1.388,0,0,0,.637-.648l.341-.7-3.8-8.477h3.121Zm14.1-5.258.09.945a4.332,4.332,0,0,1,3.121-1.1,3.09,3.09,0,0,1,2.88,1.289,4.131,4.131,0,0,1,3.261-1.289,3.753,3.753,0,0,1,2.629.8,3.132,3.132,0,0,1,.863,2.41V15h-2.91V9.609a1.364,1.364,0,0,0-.361-1.051,1.889,1.889,0,0,0-1.274-.332,1.852,1.852,0,0,0-1.806.969L329,15h-2.9V9.617a1.352,1.352,0,0,0-.371-1.062,1.911,1.911,0,0,0-1.264-.328,2.018,2.018,0,0,0-1.786.8V15h-2.9V6.547ZM337.12,10.7a3.988,3.988,0,0,1,2.413-3.766,6.421,6.421,0,0,1,2.714-.539,5.8,5.8,0,0,1,3.587,1.047,3.827,3.827,0,0,1,1.55,2.844l.02.578a3.878,3.878,0,0,1-1.395,3.121,6.562,6.562,0,0,1-7.49,0,3.938,3.938,0,0,1-1.4-3.187Zm2.9.164a2.635,2.635,0,0,0,.582,1.84,2.482,2.482,0,0,0,3.311.008A2.868,2.868,0,0,0,344.5,10.7a2.614,2.614,0,0,0-.592-1.828,2.141,2.141,0,0,0-1.666-.648,2.1,2.1,0,0,0-1.646.645A2.91,2.91,0,0,0,340.019,10.859Zm11.84-4.312.09.977a4.283,4.283,0,0,1,3.121-1.133,3.646,3.646,0,0,1,2.569.789,3.139,3.139,0,0,1,.863,2.359V15h-2.9V9.594a1.263,1.263,0,0,0-.4-1.043,2.634,2.634,0,0,0-3.171.488V15h-2.9V6.547ZM363.76,15h-2.91V6.547h2.91Zm-3.08-10.641a1,1,0,0,1,.436-.836,2.309,2.309,0,0,1,2.373,0,1.016,1.016,0,0,1-.005,1.68,2.282,2.282,0,0,1-2.358,0A1,1,0,0,1,360.679,4.359Zm8.94.109V6.547h1.856V8.2H369.62v4.219a.855.855,0,0,0,.231.672,1.386,1.386,0,0,0,.883.2,5.91,5.91,0,0,0,.853-.055v1.711a7.553,7.553,0,0,1-1.756.2q-3.05,0-3.111-2.4V8.2h-1.585V6.547h1.585V4.469Zm2.719,6.227a3.988,3.988,0,0,1,2.413-3.766,6.421,6.421,0,0,1,2.714-.539,5.8,5.8,0,0,1,3.587,1.047,3.826,3.826,0,0,1,1.55,2.844l.02.578a3.878,3.878,0,0,1-1.395,3.121,6.562,6.562,0,0,1-7.49,0,3.938,3.938,0,0,1-1.4-3.187Zm2.9.164a2.635,2.635,0,0,0,.582,1.84,2.482,2.482,0,0,0,3.311.008,2.868,2.868,0,0,0,.592-2.012,2.614,2.614,0,0,0-.592-1.828,2.141,2.141,0,0,0-1.666-.648,2.1,2.1,0,0,0-1.646.645A2.91,2.91,0,0,0,375.239,10.859Zm15.272-2.2a10.08,10.08,0,0,0-1.044-.062,2.309,2.309,0,0,0-2.157.867V15h-2.9V6.547h2.739l.08,1.008a2.853,2.853,0,0,1,2.418-1.164,3.846,3.846,0,0,1,.9.1Zm6.2,6.492a6.249,6.249,0,0,1-3.888-1.141,3.627,3.627,0,0,1-1.5-3.039v-.219a4.184,4.184,0,0,1,.632-2.277,4.125,4.125,0,0,1,1.791-1.547,6.162,6.162,0,0,1,2.644-.543A5.223,5.223,0,0,1,399.9,7.484a3.858,3.858,0,0,1,1.279,3.1v.922h-6.913a1.979,1.979,0,0,0,.848,1.328,3.029,3.029,0,0,0,1.791.5,3.535,3.535,0,0,0,2.619-.945l1.425,1.242a4.3,4.3,0,0,1-1.766,1.121A7.221,7.221,0,0,1,396.712,15.156Zm-.331-6.937a1.956,1.956,0,0,0-2.087,1.75h4.034v-.18a1.468,1.468,0,0,0-.522-1.16A2.2,2.2,0,0,0,396.38,8.219Zm5.99,2.477a3.988,3.988,0,0,1,2.413-3.766,6.421,6.421,0,0,1,2.714-.539,5.8,5.8,0,0,1,3.587,1.047,3.827,3.827,0,0,1,1.55,2.844l.02.578a3.878,3.878,0,0,1-1.395,3.121,6.562,6.562,0,0,1-7.49,0,3.938,3.938,0,0,1-1.4-3.187Zm2.9.164a2.635,2.635,0,0,0,.582,1.84,2.482,2.482,0,0,0,3.311.008,2.868,2.868,0,0,0,.592-2.012,2.614,2.614,0,0,0-.592-1.828,2.141,2.141,0,0,0-1.666-.648,2.1,2.1,0,0,0-1.646.645A2.91,2.91,0,0,0,405.271,10.859Zm9.312,3.031a1.032,1.032,0,0,1,.467-.875,2.219,2.219,0,0,1,2.348,0,1.032,1.032,0,0,1,.467.875,1.019,1.019,0,0,1-.462.863,2.259,2.259,0,0,1-2.358,0A1.019,1.019,0,0,1,414.582,13.891Zm0-6.4a1.032,1.032,0,0,1,.467-.875,2.219,2.219,0,0,1,2.348,0,1.032,1.032,0,0,1,.467.875,1.019,1.019,0,0,1-.462.863,2.259,2.259,0,0,1-2.358,0A1.019,1.019,0,0,1,414.582,7.492Z" transform="translate(-58.59 13)" fill="#fff"/>
    </g>
    <rect id="Rectangle_404369" data-name="Rectangle 404369" width="190" height="69" transform="translate(180.333 387)" fill="#ebf0aa"/>
    <path id="Path_901333" data-name="Path 901333" d="M2.93,0H1.43V-11.375h1.5ZM6.813-8.453l.047,1.063A3.08,3.08,0,0,1,9.391-8.609q2.68,0,2.7,3.023V0H10.648V-5.594a1.946,1.946,0,0,0-.418-1.352,1.675,1.675,0,0,0-1.277-.437,2.086,2.086,0,0,0-1.234.375,2.546,2.546,0,0,0-.828.984V0H5.445V-8.453ZM13.922-4.3a4.952,4.952,0,0,1,.922-3.129,2.915,2.915,0,0,1,2.414-1.184,2.932,2.932,0,0,1,2.352,1.016V-12h1.445V0H19.727l-.07-.906A2.943,2.943,0,0,1,17.242.156a2.887,2.887,0,0,1-2.395-1.2,5.008,5.008,0,0,1-.926-3.141Zm1.445.164a3.749,3.749,0,0,0,.594,2.25A1.92,1.92,0,0,0,17.6-1.07,2.108,2.108,0,0,0,19.609-2.3V-6.187a2.125,2.125,0,0,0-1.992-1.2,1.929,1.929,0,0,0-1.656.82A4.128,4.128,0,0,0,15.367-4.133ZM24.867,0H23.422V-8.453h1.445ZM23.3-10.7a.863.863,0,0,1,.215-.594.807.807,0,0,1,.637-.242.819.819,0,0,1,.641.242.854.854,0,0,1,.219.594.826.826,0,0,1-.219.586.834.834,0,0,1-.641.234.821.821,0,0,1-.637-.234A.834.834,0,0,1,23.3-10.7ZM30.57-1.023a2.082,2.082,0,0,0,1.352-.469,1.649,1.649,0,0,0,.641-1.172H33.93a2.621,2.621,0,0,1-.5,1.383A3.293,3.293,0,0,1,32.2-.234,3.55,3.55,0,0,1,30.57.156,3.482,3.482,0,0,1,27.824-1,4.59,4.59,0,0,1,26.8-4.148v-.242a5.089,5.089,0,0,1,.453-2.2,3.451,3.451,0,0,1,1.3-1.492,3.7,3.7,0,0,1,2-.531,3.39,3.39,0,0,1,2.363.852,3.043,3.043,0,0,1,1,2.211H32.563a1.992,1.992,0,0,0-.621-1.348,1.932,1.932,0,0,0-1.379-.527,2.023,2.023,0,0,0-1.707.793,3.724,3.724,0,0,0-.605,2.293v.273a3.65,3.65,0,0,0,.6,2.25A2.033,2.033,0,0,0,30.57-1.023ZM40.773,0a3.036,3.036,0,0,1-.2-.891A3.225,3.225,0,0,1,38.164.156a2.984,2.984,0,0,1-2.051-.707,2.287,2.287,0,0,1-.8-1.793,2.39,2.39,0,0,1,1-2.051,4.733,4.733,0,0,1,2.824-.73h1.406v-.664A1.623,1.623,0,0,0,40.094-7a1.821,1.821,0,0,0-1.336-.449,2.107,2.107,0,0,0-1.3.391,1.151,1.151,0,0,0-.523.945H35.484a2,2,0,0,1,.449-1.223,3.066,3.066,0,0,1,1.219-.934,4.1,4.1,0,0,1,1.691-.344,3.342,3.342,0,0,1,2.289.73,2.635,2.635,0,0,1,.859,2.012v3.891a4.757,4.757,0,0,0,.3,1.852V0Zm-2.4-1.1a2.54,2.54,0,0,0,1.289-.352,2.127,2.127,0,0,0,.883-.914V-4.1H39.414q-2.656,0-2.656,1.555a1.316,1.316,0,0,0,.453,1.063A1.742,1.742,0,0,0,38.375-1.1Zm5.531-3.2a4.952,4.952,0,0,1,.922-3.129,2.915,2.915,0,0,1,2.414-1.184,2.932,2.932,0,0,1,2.352,1.016V-12h1.445V0H49.711l-.07-.906A2.943,2.943,0,0,1,47.227.156a2.887,2.887,0,0,1-2.395-1.2,5.008,5.008,0,0,1-.926-3.141Zm1.445.164a3.749,3.749,0,0,0,.594,2.25,1.92,1.92,0,0,0,1.641.813A2.108,2.108,0,0,0,49.594-2.3V-6.187a2.125,2.125,0,0,0-1.992-1.2,1.929,1.929,0,0,0-1.656.82A4.128,4.128,0,0,0,45.352-4.133ZM52.9-4.3a4.993,4.993,0,0,1,.488-2.234A3.643,3.643,0,0,1,54.746-8.07a3.7,3.7,0,0,1,1.988-.539,3.565,3.565,0,0,1,2.793,1.2,4.6,4.6,0,0,1,1.066,3.18v.1a5.036,5.036,0,0,1-.473,2.215A3.589,3.589,0,0,1,58.77-.391a3.743,3.743,0,0,1-2.02.547,3.556,3.556,0,0,1-2.785-1.2A4.575,4.575,0,0,1,52.9-4.2Zm1.453.172A3.616,3.616,0,0,0,55-1.875a2.088,2.088,0,0,0,1.746.852,2.075,2.075,0,0,0,1.75-.863A3.955,3.955,0,0,0,59.148-4.3a3.61,3.61,0,0,0-.66-2.254,2.1,2.1,0,0,0-1.754-.863,2.075,2.075,0,0,0-1.727.852A3.925,3.925,0,0,0,54.352-4.133ZM66.492-7.156a4.331,4.331,0,0,0-.711-.055A1.9,1.9,0,0,0,63.852-6V0H62.406V-8.453h1.406l.023.977a2.251,2.251,0,0,1,2.016-1.133,1.477,1.477,0,0,1,.641.109ZM71.18.156a3.693,3.693,0,0,1-2.8-1.129A4.19,4.19,0,0,1,67.3-3.992v-.266a5.073,5.073,0,0,1,.48-2.246,3.748,3.748,0,0,1,1.344-1.547A3.378,3.378,0,0,1,71-8.609a3.166,3.166,0,0,1,2.563,1.086,4.7,4.7,0,0,1,.914,3.109v.6H68.75a3,3,0,0,0,.73,2.02,2.3,2.3,0,0,0,1.777.77,2.517,2.517,0,0,0,1.3-.312,3.259,3.259,0,0,0,.93-.828l.883.688A3.55,3.55,0,0,1,71.18.156ZM71-7.422a1.928,1.928,0,0,0-1.469.637A3.1,3.1,0,0,0,68.8-5h4.234v-.109a2.753,2.753,0,0,0-.594-1.707A1.815,1.815,0,0,0,71-7.422Zm10.07,5.18a1.064,1.064,0,0,0-.441-.91,4.249,4.249,0,0,0-1.539-.559,7.277,7.277,0,0,1-1.742-.562,2.479,2.479,0,0,1-.953-.781,1.869,1.869,0,0,1-.309-1.078,2.193,2.193,0,0,1,.879-1.758,3.432,3.432,0,0,1,2.246-.719,3.532,3.532,0,0,1,2.332.742,2.357,2.357,0,0,1,.895,1.9H80.984a1.3,1.3,0,0,0-.5-1.023,1.888,1.888,0,0,0-1.27-.43,1.976,1.976,0,0,0-1.234.344,1.082,1.082,0,0,0-.445.9.877.877,0,0,0,.414.789,5.1,5.1,0,0,0,1.5.508A7.8,7.8,0,0,1,81.2-4.3a2.558,2.558,0,0,1,1,.809,1.988,1.988,0,0,1,.324,1.152,2.163,2.163,0,0,1-.906,1.816,3.8,3.8,0,0,1-2.352.684,4.257,4.257,0,0,1-1.8-.359,2.922,2.922,0,0,1-1.223-1A2.42,2.42,0,0,1,75.8-2.6h1.445a1.5,1.5,0,0,0,.582,1.152,2.258,2.258,0,0,0,1.434.426,2.331,2.331,0,0,0,1.316-.332A1.02,1.02,0,0,0,81.07-2.242Z" transform="translate(234.333 427)" fill="#12263f"/>
    <rect id="Rectangle_404370" data-name="Rectangle 404370" width="190" height="69" transform="translate(180.333 479)" fill="#ebf0aa"/>
    <path id="Path_901334" data-name="Path 901334" d="M2.82-4.453V0H1.32V-11.375h4.2a4.215,4.215,0,0,1,2.926.953A3.231,3.231,0,0,1,9.5-7.9,3.189,3.189,0,0,1,8.465-5.348,4.4,4.4,0,0,1,5.5-4.453Zm0-1.227h2.7a2.7,2.7,0,0,0,1.844-.566A2.069,2.069,0,0,0,8-7.883a2.138,2.138,0,0,0-.641-1.625A2.528,2.528,0,0,0,5.6-10.141H2.82ZM15.273-7.156a4.331,4.331,0,0,0-.711-.055A1.9,1.9,0,0,0,12.633-6V0H11.188V-8.453h1.406l.023.977a2.251,2.251,0,0,1,2.016-1.133,1.477,1.477,0,0,1,.641.109ZM16.063-4.3a4.993,4.993,0,0,1,.488-2.234A3.643,3.643,0,0,1,17.91-8.07,3.7,3.7,0,0,1,19.9-8.609a3.565,3.565,0,0,1,2.793,1.2,4.6,4.6,0,0,1,1.066,3.18v.1a5.036,5.036,0,0,1-.473,2.215A3.589,3.589,0,0,1,21.934-.391a3.743,3.743,0,0,1-2.02.547,3.556,3.556,0,0,1-2.785-1.2A4.575,4.575,0,0,1,16.063-4.2Zm1.453.172a3.616,3.616,0,0,0,.652,2.258,2.088,2.088,0,0,0,1.746.852,2.075,2.075,0,0,0,1.75-.863A3.955,3.955,0,0,0,22.313-4.3a3.61,3.61,0,0,0-.66-2.254A2.1,2.1,0,0,0,19.9-7.422a2.075,2.075,0,0,0-1.727.852A3.925,3.925,0,0,0,17.516-4.133ZM28.961-1.023a2.082,2.082,0,0,0,1.352-.469,1.649,1.649,0,0,0,.641-1.172H32.32a2.621,2.621,0,0,1-.5,1.383A3.293,3.293,0,0,1,30.59-.234a3.55,3.55,0,0,1-1.629.391A3.482,3.482,0,0,1,26.215-1,4.59,4.59,0,0,1,25.2-4.148v-.242a5.089,5.089,0,0,1,.453-2.2,3.451,3.451,0,0,1,1.3-1.492,3.7,3.7,0,0,1,2-.531,3.39,3.39,0,0,1,2.363.852,3.043,3.043,0,0,1,1,2.211H30.953a1.992,1.992,0,0,0-.621-1.348,1.932,1.932,0,0,0-1.379-.527,2.023,2.023,0,0,0-1.707.793,3.724,3.724,0,0,0-.605,2.293v.273a3.65,3.65,0,0,0,.6,2.25A2.033,2.033,0,0,0,28.961-1.023ZM37.453.156a3.693,3.693,0,0,1-2.8-1.129,4.19,4.19,0,0,1-1.078-3.02v-.266a5.073,5.073,0,0,1,.48-2.246A3.748,3.748,0,0,1,35.4-8.051a3.378,3.378,0,0,1,1.871-.559,3.166,3.166,0,0,1,2.563,1.086,4.7,4.7,0,0,1,.914,3.109v.6H35.023a3,3,0,0,0,.73,2.02,2.3,2.3,0,0,0,1.777.77,2.517,2.517,0,0,0,1.3-.312,3.259,3.259,0,0,0,.93-.828l.883.688A3.55,3.55,0,0,1,37.453.156Zm-.18-7.578a1.928,1.928,0,0,0-1.469.637A3.1,3.1,0,0,0,35.07-5H39.3v-.109a2.753,2.753,0,0,0-.594-1.707A1.815,1.815,0,0,0,37.273-7.422ZM42.07-4.3a4.952,4.952,0,0,1,.922-3.129,2.915,2.915,0,0,1,2.414-1.184,2.932,2.932,0,0,1,2.352,1.016V-12H49.2V0H47.875L47.8-.906A2.943,2.943,0,0,1,45.391.156,2.887,2.887,0,0,1,43-1.047a5.008,5.008,0,0,1-.926-3.141Zm1.445.164a3.749,3.749,0,0,0,.594,2.25,1.92,1.92,0,0,0,1.641.813A2.108,2.108,0,0,0,47.758-2.3V-6.187a2.125,2.125,0,0,0-1.992-1.2,1.929,1.929,0,0,0-1.656.82A4.128,4.128,0,0,0,43.516-4.133ZM53.016,0H51.57V-8.453h1.445ZM51.453-10.7a.863.863,0,0,1,.215-.594.807.807,0,0,1,.637-.242.819.819,0,0,1,.641.242.854.854,0,0,1,.219.594.826.826,0,0,1-.219.586.834.834,0,0,1-.641.234.821.821,0,0,1-.637-.234A.834.834,0,0,1,51.453-10.7Zm5.234,2.242.039.938a3.122,3.122,0,0,1,2.508-1.094A2.417,2.417,0,0,1,61.648-7.25a3.2,3.2,0,0,1,1.1-.984,3.242,3.242,0,0,1,1.6-.375q2.781,0,2.828,2.945V0H65.727V-5.578a1.941,1.941,0,0,0-.414-1.355,1.823,1.823,0,0,0-1.391-.449,1.916,1.916,0,0,0-1.336.48,1.949,1.949,0,0,0-.617,1.293V0H60.516V-5.539a1.613,1.613,0,0,0-1.8-1.844,1.934,1.934,0,0,0-1.945,1.211V0H55.32V-8.453ZM70.922,0H69.477V-8.453h1.445ZM69.359-10.7a.863.863,0,0,1,.215-.594.807.807,0,0,1,.637-.242.819.819,0,0,1,.641.242.854.854,0,0,1,.219.594.826.826,0,0,1-.219.586.834.834,0,0,1-.641.234.821.821,0,0,1-.637-.234A.834.834,0,0,1,69.359-10.7ZM76.742.156a3.693,3.693,0,0,1-2.8-1.129,4.19,4.19,0,0,1-1.078-3.02v-.266a5.073,5.073,0,0,1,.48-2.246,3.748,3.748,0,0,1,1.344-1.547,3.378,3.378,0,0,1,1.871-.559,3.166,3.166,0,0,1,2.563,1.086,4.7,4.7,0,0,1,.914,3.109v.6H74.313a3,3,0,0,0,.73,2.02,2.3,2.3,0,0,0,1.777.77,2.517,2.517,0,0,0,1.3-.312,3.259,3.259,0,0,0,.93-.828l.883.688A3.55,3.55,0,0,1,76.742.156Zm-.18-7.578a1.928,1.928,0,0,0-1.469.637A3.1,3.1,0,0,0,74.359-5h4.234v-.109A2.753,2.753,0,0,0,78-6.816,1.815,1.815,0,0,0,76.563-7.422Zm6.516-1.031.047,1.063a3.08,3.08,0,0,1,2.531-1.219q2.68,0,2.7,3.023V0H86.914V-5.594A1.946,1.946,0,0,0,86.5-6.945a1.675,1.675,0,0,0-1.277-.437,2.086,2.086,0,0,0-1.234.375,2.546,2.546,0,0,0-.828.984V0H81.711V-8.453ZM92.5-10.5v2.047h1.578v1.117H92.5v5.242a1.171,1.171,0,0,0,.211.762.888.888,0,0,0,.719.254,3.5,3.5,0,0,0,.688-.094V0a4.19,4.19,0,0,1-1.109.156A1.8,1.8,0,0,1,91.547-.43a2.517,2.517,0,0,1-.492-1.664V-7.336H89.516V-8.453h1.539V-10.5Zm2.727,6.2a4.993,4.993,0,0,1,.488-2.234A3.643,3.643,0,0,1,97.074-8.07a3.7,3.7,0,0,1,1.988-.539,3.565,3.565,0,0,1,2.793,1.2,4.6,4.6,0,0,1,1.066,3.18v.1a5.036,5.036,0,0,1-.473,2.215A3.589,3.589,0,0,1,101.1-.391a3.743,3.743,0,0,1-2.02.547,3.556,3.556,0,0,1-2.785-1.2A4.575,4.575,0,0,1,95.227-4.2Zm1.453.172a3.616,3.616,0,0,0,.652,2.258,2.088,2.088,0,0,0,1.746.852,2.075,2.075,0,0,0,1.75-.863,3.955,3.955,0,0,0,.648-2.418,3.61,3.61,0,0,0-.66-2.254,2.1,2.1,0,0,0-1.754-.863,2.075,2.075,0,0,0-1.727.852A3.925,3.925,0,0,0,96.68-4.133Zm12.977,1.891a1.064,1.064,0,0,0-.441-.91,4.249,4.249,0,0,0-1.539-.559,7.277,7.277,0,0,1-1.742-.562,2.479,2.479,0,0,1-.953-.781,1.869,1.869,0,0,1-.309-1.078,2.193,2.193,0,0,1,.879-1.758,3.432,3.432,0,0,1,2.246-.719,3.532,3.532,0,0,1,2.332.742,2.357,2.357,0,0,1,.895,1.9H109.57a1.3,1.3,0,0,0-.5-1.023,1.888,1.888,0,0,0-1.27-.43,1.976,1.976,0,0,0-1.234.344,1.082,1.082,0,0,0-.445.9.877.877,0,0,0,.414.789,5.1,5.1,0,0,0,1.5.508,7.8,7.8,0,0,1,1.754.578,2.558,2.558,0,0,1,1,.809,1.988,1.988,0,0,1,.324,1.152A2.163,2.163,0,0,1,110.2-.527a3.8,3.8,0,0,1-2.352.684,4.257,4.257,0,0,1-1.8-.359,2.922,2.922,0,0,1-1.223-1,2.42,2.42,0,0,1-.441-1.395h1.445a1.5,1.5,0,0,0,.582,1.152,2.258,2.258,0,0,0,1.434.426,2.331,2.331,0,0,0,1.316-.332A1.02,1.02,0,0,0,109.656-2.242Z" transform="translate(219.333 519)" fill="#12263f"/>
    <rect id="Rectangle_404371" data-name="Rectangle 404371" width="190" height="69" transform="translate(180.333 571)" fill="#ebf0aa"/>
    <path id="Path_901335" data-name="Path 901335" d="M1.32,0V-11.375H4.531a5.169,5.169,0,0,1,2.625.656A4.438,4.438,0,0,1,8.918-8.852,6.078,6.078,0,0,1,9.547-6.07v.727a6.1,6.1,0,0,1-.621,2.82A4.369,4.369,0,0,1,7.152-.664,5.5,5.5,0,0,1,4.469,0Zm1.5-10.141v8.914H4.4A3.435,3.435,0,0,0,7.1-2.3a4.452,4.452,0,0,0,.965-3.07v-.664a4.522,4.522,0,0,0-.91-3.012,3.24,3.24,0,0,0-2.582-1.09ZM13.156,0H11.711V-8.453h1.445ZM11.594-10.7a.863.863,0,0,1,.215-.594.807.807,0,0,1,.637-.242.819.819,0,0,1,.641.242.854.854,0,0,1,.219.594.826.826,0,0,1-.219.586.834.834,0,0,1-.641.234.821.821,0,0,1-.637-.234A.834.834,0,0,1,11.594-10.7ZM20.688,0a3.036,3.036,0,0,1-.2-.891A3.225,3.225,0,0,1,18.078.156a2.984,2.984,0,0,1-2.051-.707,2.287,2.287,0,0,1-.8-1.793,2.39,2.39,0,0,1,1-2.051,4.733,4.733,0,0,1,2.824-.73h1.406v-.664A1.623,1.623,0,0,0,20.008-7a1.821,1.821,0,0,0-1.336-.449,2.108,2.108,0,0,0-1.3.391,1.151,1.151,0,0,0-.523.945H15.4a2,2,0,0,1,.449-1.223,3.066,3.066,0,0,1,1.219-.934,4.1,4.1,0,0,1,1.691-.344,3.342,3.342,0,0,1,2.289.73,2.635,2.635,0,0,1,.859,2.012v3.891a4.757,4.757,0,0,0,.3,1.852V0Zm-2.4-1.1a2.54,2.54,0,0,0,1.289-.352,2.127,2.127,0,0,0,.883-.914V-4.1H19.328q-2.656,0-2.656,1.555a1.316,1.316,0,0,0,.453,1.063A1.742,1.742,0,0,0,18.289-1.1Zm5.539-3.2a4.968,4.968,0,0,1,.914-3.145,2.923,2.923,0,0,1,2.422-1.168,2.908,2.908,0,0,1,2.414,1.094l.07-.937h1.32V-.2A3.439,3.439,0,0,1,30,2.383a3.589,3.589,0,0,1-2.613.945,4.348,4.348,0,0,1-1.789-.391,3.08,3.08,0,0,1-1.336-1.07L25.008,1a2.826,2.826,0,0,0,2.273,1.148,2.214,2.214,0,0,0,1.645-.594,2.269,2.269,0,0,0,.59-1.672V-.844a2.971,2.971,0,0,1-2.367,1,2.887,2.887,0,0,1-2.4-1.2A5.224,5.224,0,0,1,23.828-4.3Zm1.453.164a3.79,3.79,0,0,0,.586,2.246,1.9,1.9,0,0,0,1.641.816,2.117,2.117,0,0,0,2.008-1.242V-6.172a2.142,2.142,0,0,0-1.992-1.211,1.921,1.921,0,0,0-1.648.82A4.128,4.128,0,0,0,25.281-4.133ZM37.234-7.156a4.331,4.331,0,0,0-.711-.055A1.9,1.9,0,0,0,34.594-6V0H33.148V-8.453h1.406l.023.977a2.251,2.251,0,0,1,2.016-1.133,1.477,1.477,0,0,1,.641.109ZM43.469,0a3.036,3.036,0,0,1-.2-.891A3.225,3.225,0,0,1,40.859.156a2.984,2.984,0,0,1-2.051-.707,2.287,2.287,0,0,1-.8-1.793,2.39,2.39,0,0,1,1-2.051,4.733,4.733,0,0,1,2.824-.73h1.406v-.664A1.623,1.623,0,0,0,42.789-7a1.821,1.821,0,0,0-1.336-.449,2.107,2.107,0,0,0-1.3.391,1.151,1.151,0,0,0-.523.945H38.18a2,2,0,0,1,.449-1.223,3.066,3.066,0,0,1,1.219-.934,4.1,4.1,0,0,1,1.691-.344,3.342,3.342,0,0,1,2.289.73,2.635,2.635,0,0,1,.859,2.012v3.891a4.757,4.757,0,0,0,.3,1.852V0Zm-2.4-1.1a2.54,2.54,0,0,0,1.289-.352,2.127,2.127,0,0,0,.883-.914V-4.1H42.109q-2.656,0-2.656,1.555a1.316,1.316,0,0,0,.453,1.063A1.742,1.742,0,0,0,41.07-1.1Zm7.242-7.352.039.938a3.122,3.122,0,0,1,2.508-1.094A2.417,2.417,0,0,1,53.273-7.25a3.2,3.2,0,0,1,1.1-.984,3.242,3.242,0,0,1,1.6-.375q2.781,0,2.828,2.945V0H57.352V-5.578a1.941,1.941,0,0,0-.414-1.355,1.823,1.823,0,0,0-1.391-.449,1.916,1.916,0,0,0-1.336.48,1.949,1.949,0,0,0-.617,1.293V0H52.141V-5.539a1.613,1.613,0,0,0-1.8-1.844,1.934,1.934,0,0,0-1.945,1.211V0H46.945V-8.453ZM66.2,0a3.036,3.036,0,0,1-.2-.891A3.225,3.225,0,0,1,63.586.156a2.984,2.984,0,0,1-2.051-.707,2.287,2.287,0,0,1-.8-1.793,2.39,2.39,0,0,1,1-2.051,4.733,4.733,0,0,1,2.824-.73h1.406v-.664A1.623,1.623,0,0,0,65.516-7a1.821,1.821,0,0,0-1.336-.449,2.107,2.107,0,0,0-1.3.391,1.151,1.151,0,0,0-.523.945H60.906a2,2,0,0,1,.449-1.223,3.066,3.066,0,0,1,1.219-.934,4.1,4.1,0,0,1,1.691-.344,3.342,3.342,0,0,1,2.289.73,2.635,2.635,0,0,1,.859,2.012v3.891a4.757,4.757,0,0,0,.3,1.852V0ZM63.8-1.1a2.54,2.54,0,0,0,1.289-.352,2.127,2.127,0,0,0,.883-.914V-4.1H64.836q-2.656,0-2.656,1.555a1.316,1.316,0,0,0,.453,1.063A1.742,1.742,0,0,0,63.8-1.1Zm9.273.078a2.082,2.082,0,0,0,1.352-.469,1.649,1.649,0,0,0,.641-1.172H76.43a2.621,2.621,0,0,1-.5,1.383A3.293,3.293,0,0,1,74.7-.234,3.55,3.55,0,0,1,73.07.156,3.482,3.482,0,0,1,70.324-1,4.59,4.59,0,0,1,69.3-4.148v-.242a5.089,5.089,0,0,1,.453-2.2,3.451,3.451,0,0,1,1.3-1.492,3.7,3.7,0,0,1,2-.531,3.39,3.39,0,0,1,2.363.852,3.043,3.043,0,0,1,1,2.211H75.063a1.992,1.992,0,0,0-.621-1.348,1.932,1.932,0,0,0-1.379-.527,2.023,2.023,0,0,0-1.707.793,3.724,3.724,0,0,0-.605,2.293v.273a3.65,3.65,0,0,0,.6,2.25A2.033,2.033,0,0,0,73.07-1.023ZM79.625,0H78.18V-8.453h1.445ZM78.063-10.7a.863.863,0,0,1,.215-.594.807.807,0,0,1,.637-.242.819.819,0,0,1,.641.242.854.854,0,0,1,.219.594.826.826,0,0,1-.219.586.834.834,0,0,1-.641.234.821.821,0,0,1-.637-.234A.834.834,0,0,1,78.063-10.7ZM81.555-4.3a4.993,4.993,0,0,1,.488-2.234A3.643,3.643,0,0,1,83.4-8.07a3.7,3.7,0,0,1,1.988-.539,3.565,3.565,0,0,1,2.793,1.2,4.6,4.6,0,0,1,1.066,3.18v.1a5.036,5.036,0,0,1-.473,2.215A3.589,3.589,0,0,1,87.426-.391a3.743,3.743,0,0,1-2.02.547,3.556,3.556,0,0,1-2.785-1.2A4.575,4.575,0,0,1,81.555-4.2Zm1.453.172a3.616,3.616,0,0,0,.652,2.258,2.088,2.088,0,0,0,1.746.852,2.075,2.075,0,0,0,1.75-.863A3.955,3.955,0,0,0,87.8-4.3a3.61,3.61,0,0,0-.66-2.254,2.1,2.1,0,0,0-1.754-.863,2.075,2.075,0,0,0-1.727.852A3.925,3.925,0,0,0,83.008-4.133ZM86.047-12H87.8L85.7-9.7H84.539ZM92.43-8.453l.047,1.063a3.08,3.08,0,0,1,2.531-1.219q2.68,0,2.7,3.023V0H96.266V-5.594a1.946,1.946,0,0,0-.418-1.352,1.675,1.675,0,0,0-1.277-.437,2.086,2.086,0,0,0-1.234.375,2.546,2.546,0,0,0-.828.984V0H91.063V-8.453Z" transform="translate(226.333 611)" fill="#12263f"/>
    <rect id="Rectangle_404372" data-name="Rectangle 404372" width="190" height="69" transform="translate(1230.333 387)" fill="#ebf0aa"/>
    <path id="Path_901342" data-name="Path 901342" d="M9.18-10.141H5.523V0H4.031V-10.141H.383v-1.234h8.8ZM12.211,0H10.766V-8.453h1.445ZM10.648-10.7a.863.863,0,0,1,.215-.594.807.807,0,0,1,.637-.242.819.819,0,0,1,.641.242.854.854,0,0,1,.219.594.826.826,0,0,1-.219.586.834.834,0,0,1-.641.234.821.821,0,0,1-.637-.234A.834.834,0,0,1,10.648-10.7ZM21.664-4.133a5.062,5.062,0,0,1-.883,3.109A2.829,2.829,0,0,1,18.391.156,3.1,3.1,0,0,1,15.969-.82V3.25H14.523v-11.7h1.32l.07.938a2.977,2.977,0,0,1,2.453-1.094,2.882,2.882,0,0,1,2.41,1.148,5.117,5.117,0,0,1,.887,3.2ZM20.219-4.3a3.735,3.735,0,0,0-.609-2.258,1.963,1.963,0,0,0-1.672-.828,2.125,2.125,0,0,0-1.969,1.164V-2.18a2.129,2.129,0,0,0,1.984,1.156,1.954,1.954,0,0,0,1.652-.824A4.077,4.077,0,0,0,20.219-4.3Zm2.9-.008a4.993,4.993,0,0,1,.488-2.234A3.643,3.643,0,0,1,24.965-8.07a3.7,3.7,0,0,1,1.988-.539,3.565,3.565,0,0,1,2.793,1.2,4.6,4.6,0,0,1,1.066,3.18v.1a5.036,5.036,0,0,1-.473,2.215A3.589,3.589,0,0,1,28.988-.391a3.743,3.743,0,0,1-2.02.547,3.556,3.556,0,0,1-2.785-1.2A4.575,4.575,0,0,1,23.117-4.2Zm1.453.172a3.616,3.616,0,0,0,.652,2.258,2.088,2.088,0,0,0,1.746.852,2.075,2.075,0,0,0,1.75-.863A3.955,3.955,0,0,0,29.367-4.3a3.61,3.61,0,0,0-.66-2.254,2.1,2.1,0,0,0-1.754-.863,2.075,2.075,0,0,0-1.727.852A3.925,3.925,0,0,0,24.57-4.133ZM37.547-2.242a1.064,1.064,0,0,0-.441-.91,4.249,4.249,0,0,0-1.539-.559,7.277,7.277,0,0,1-1.742-.562,2.479,2.479,0,0,1-.953-.781,1.869,1.869,0,0,1-.309-1.078,2.193,2.193,0,0,1,.879-1.758,3.432,3.432,0,0,1,2.246-.719,3.532,3.532,0,0,1,2.332.742,2.357,2.357,0,0,1,.895,1.9H37.461a1.3,1.3,0,0,0-.5-1.023,1.888,1.888,0,0,0-1.27-.43,1.976,1.976,0,0,0-1.234.344,1.082,1.082,0,0,0-.445.9.877.877,0,0,0,.414.789,5.1,5.1,0,0,0,1.5.508,7.8,7.8,0,0,1,1.754.578,2.558,2.558,0,0,1,1,.809,1.988,1.988,0,0,1,.324,1.152,2.163,2.163,0,0,1-.906,1.816,3.8,3.8,0,0,1-2.352.684,4.257,4.257,0,0,1-1.8-.359,2.922,2.922,0,0,1-1.223-1A2.42,2.42,0,0,1,32.273-2.6h1.445A1.5,1.5,0,0,0,34.3-1.449a2.258,2.258,0,0,0,1.434.426,2.331,2.331,0,0,0,1.316-.332A1.02,1.02,0,0,0,37.547-2.242Z" transform="translate(1305.333 427)" fill="#12263f"/>
    <rect id="Rectangle_404373" data-name="Rectangle 404373" width="190" height="69" transform="translate(1230.333 479)" fill="#ebf0aa"/>
    <path id="Path_901343" data-name="Path 901343" d="M9.18-10.141H5.523V0H4.031V-10.141H.383v-1.234h8.8Zm4.2,10.3a3.693,3.693,0,0,1-2.8-1.129A4.19,4.19,0,0,1,9.5-3.992v-.266A5.073,5.073,0,0,1,9.98-6.5a3.748,3.748,0,0,1,1.344-1.547A3.378,3.378,0,0,1,13.2-8.609a3.166,3.166,0,0,1,2.563,1.086,4.7,4.7,0,0,1,.914,3.109v.6H10.945a3,3,0,0,0,.73,2.02,2.3,2.3,0,0,0,1.777.77,2.517,2.517,0,0,0,1.3-.312,3.259,3.259,0,0,0,.93-.828l.883.688A3.55,3.55,0,0,1,13.375.156ZM13.2-7.422a1.928,1.928,0,0,0-1.469.637A3.1,3.1,0,0,0,10.992-5h4.234v-.109a2.753,2.753,0,0,0-.594-1.707A1.815,1.815,0,0,0,13.2-7.422ZM13.9-12h1.75L13.555-9.7H12.391ZM21.734-1.023a2.082,2.082,0,0,0,1.352-.469,1.649,1.649,0,0,0,.641-1.172h1.367a2.621,2.621,0,0,1-.5,1.383,3.293,3.293,0,0,1-1.23,1.047,3.55,3.55,0,0,1-1.629.391A3.482,3.482,0,0,1,18.988-1a4.59,4.59,0,0,1-1.02-3.152v-.242a5.089,5.089,0,0,1,.453-2.2,3.451,3.451,0,0,1,1.3-1.492,3.7,3.7,0,0,1,2-.531,3.39,3.39,0,0,1,2.363.852,3.043,3.043,0,0,1,1,2.211H23.727a1.992,1.992,0,0,0-.621-1.348,1.932,1.932,0,0,0-1.379-.527,2.023,2.023,0,0,0-1.707.793,3.724,3.724,0,0,0-.605,2.293v.273a3.65,3.65,0,0,0,.6,2.25A2.033,2.033,0,0,0,21.734-1.023Zm6.352-7.43.047,1.063a3.08,3.08,0,0,1,2.531-1.219q2.68,0,2.7,3.023V0H31.922V-5.594A1.946,1.946,0,0,0,31.5-6.945a1.675,1.675,0,0,0-1.277-.437,2.086,2.086,0,0,0-1.234.375,2.546,2.546,0,0,0-.828.984V0H26.719V-8.453ZM37.117,0H35.672V-8.453h1.445ZM35.555-10.7a.863.863,0,0,1,.215-.594.807.807,0,0,1,.637-.242.819.819,0,0,1,.641.242.854.854,0,0,1,.219.594.826.826,0,0,1-.219.586.834.834,0,0,1-.641.234.821.821,0,0,1-.637-.234A.834.834,0,0,1,35.555-10.7ZM42.82-1.023a2.082,2.082,0,0,0,1.352-.469,1.649,1.649,0,0,0,.641-1.172H46.18a2.621,2.621,0,0,1-.5,1.383,3.293,3.293,0,0,1-1.23,1.047A3.55,3.55,0,0,1,42.82.156,3.482,3.482,0,0,1,40.074-1a4.59,4.59,0,0,1-1.02-3.152v-.242a5.089,5.089,0,0,1,.453-2.2,3.451,3.451,0,0,1,1.3-1.492,3.7,3.7,0,0,1,2-.531,3.39,3.39,0,0,1,2.363.852,3.043,3.043,0,0,1,1,2.211H44.813a1.992,1.992,0,0,0-.621-1.348,1.932,1.932,0,0,0-1.379-.527,2.023,2.023,0,0,0-1.707.793A3.724,3.724,0,0,0,40.5-4.336v.273a3.65,3.65,0,0,0,.6,2.25A2.033,2.033,0,0,0,42.82-1.023ZM53.023,0a3.036,3.036,0,0,1-.2-.891A3.225,3.225,0,0,1,50.414.156a2.984,2.984,0,0,1-2.051-.707,2.287,2.287,0,0,1-.8-1.793,2.39,2.39,0,0,1,1-2.051,4.733,4.733,0,0,1,2.824-.73H52.8v-.664A1.623,1.623,0,0,0,52.344-7a1.821,1.821,0,0,0-1.336-.449,2.107,2.107,0,0,0-1.3.391,1.151,1.151,0,0,0-.523.945H47.734a2,2,0,0,1,.449-1.223A3.066,3.066,0,0,1,49.4-8.266a4.1,4.1,0,0,1,1.691-.344,3.342,3.342,0,0,1,2.289.73,2.635,2.635,0,0,1,.859,2.012v3.891a4.757,4.757,0,0,0,.3,1.852V0Zm-2.4-1.1a2.54,2.54,0,0,0,1.289-.352,2.127,2.127,0,0,0,.883-.914V-4.1H51.664q-2.656,0-2.656,1.555a1.316,1.316,0,0,0,.453,1.063A1.742,1.742,0,0,0,50.625-1.1Zm10.8-1.141a1.064,1.064,0,0,0-.441-.91,4.249,4.249,0,0,0-1.539-.559,7.277,7.277,0,0,1-1.742-.562,2.479,2.479,0,0,1-.953-.781,1.869,1.869,0,0,1-.309-1.078,2.193,2.193,0,0,1,.879-1.758,3.432,3.432,0,0,1,2.246-.719,3.532,3.532,0,0,1,2.332.742,2.357,2.357,0,0,1,.895,1.9H61.344a1.3,1.3,0,0,0-.5-1.023,1.888,1.888,0,0,0-1.27-.43,1.976,1.976,0,0,0-1.234.344,1.082,1.082,0,0,0-.445.9.877.877,0,0,0,.414.789,5.1,5.1,0,0,0,1.5.508,7.8,7.8,0,0,1,1.754.578,2.558,2.558,0,0,1,1,.809,1.988,1.988,0,0,1,.324,1.152,2.163,2.163,0,0,1-.906,1.816,3.8,3.8,0,0,1-2.352.684A4.257,4.257,0,0,1,57.82-.2a2.922,2.922,0,0,1-1.223-1A2.42,2.42,0,0,1,56.156-2.6H57.6a1.5,1.5,0,0,0,.582,1.152,2.258,2.258,0,0,0,1.434.426,2.331,2.331,0,0,0,1.316-.332A1.02,1.02,0,0,0,61.43-2.242Z" transform="translate(1293.333 519)" fill="#12263f"/>
    <rect id="Rectangle_404374" data-name="Rectangle 404374" width="190" height="69" transform="translate(1230.333 571)" fill="#ebf0aa"/>
    <path id="Path_901344" data-name="Path 901344" d="M3.258-11.375,6.977-2.094,10.7-11.375h1.945V0h-1.5V-4.43l.141-4.781L7.547,0H6.4L2.672-9.187,2.82-4.43V0H1.32V-11.375ZM18.57.156a3.693,3.693,0,0,1-2.8-1.129A4.19,4.19,0,0,1,14.7-3.992v-.266a5.073,5.073,0,0,1,.48-2.246A3.748,3.748,0,0,1,16.52-8.051a3.378,3.378,0,0,1,1.871-.559,3.166,3.166,0,0,1,2.563,1.086,4.7,4.7,0,0,1,.914,3.109v.6H16.141a3,3,0,0,0,.73,2.02,2.3,2.3,0,0,0,1.777.77,2.517,2.517,0,0,0,1.3-.312,3.259,3.259,0,0,0,.93-.828l.883.688A3.55,3.55,0,0,1,18.57.156Zm-.18-7.578a1.928,1.928,0,0,0-1.469.637A3.1,3.1,0,0,0,16.188-5h4.234v-.109a2.753,2.753,0,0,0-.594-1.707A1.815,1.815,0,0,0,18.391-7.422ZM25.5-10.5v2.047h1.578v1.117H25.5v5.242a1.171,1.171,0,0,0,.211.762.888.888,0,0,0,.719.254,3.5,3.5,0,0,0,.688-.094V0a4.19,4.19,0,0,1-1.109.156A1.8,1.8,0,0,1,24.547-.43a2.517,2.517,0,0,1-.492-1.664V-7.336H22.516V-8.453h1.539V-10.5Zm2.727,6.2a4.993,4.993,0,0,1,.488-2.234A3.643,3.643,0,0,1,30.074-8.07a3.7,3.7,0,0,1,1.988-.539,3.565,3.565,0,0,1,2.793,1.2,4.6,4.6,0,0,1,1.066,3.18v.1a5.036,5.036,0,0,1-.473,2.215A3.589,3.589,0,0,1,34.1-.391a3.743,3.743,0,0,1-2.02.547,3.556,3.556,0,0,1-2.785-1.2A4.575,4.575,0,0,1,28.227-4.2Zm1.453.172a3.616,3.616,0,0,0,.652,2.258,2.088,2.088,0,0,0,1.746.852,2.075,2.075,0,0,0,1.75-.863A3.955,3.955,0,0,0,34.477-4.3a3.61,3.61,0,0,0-.66-2.254,2.1,2.1,0,0,0-1.754-.863,2.075,2.075,0,0,0-1.727.852A3.925,3.925,0,0,0,29.68-4.133Zm7.7-.164A4.952,4.952,0,0,1,38.3-7.426a2.915,2.915,0,0,1,2.414-1.184A2.932,2.932,0,0,1,43.07-7.594V-12h1.445V0H43.188l-.07-.906A2.943,2.943,0,0,1,40.7.156a2.887,2.887,0,0,1-2.395-1.2,5.008,5.008,0,0,1-.926-3.141Zm1.445.164a3.749,3.749,0,0,0,.594,2.25,1.92,1.92,0,0,0,1.641.813A2.108,2.108,0,0,0,43.07-2.3V-6.187a2.125,2.125,0,0,0-1.992-1.2,1.929,1.929,0,0,0-1.656.82A4.128,4.128,0,0,0,38.828-4.133ZM46.375-4.3a4.993,4.993,0,0,1,.488-2.234A3.643,3.643,0,0,1,48.223-8.07a3.7,3.7,0,0,1,1.988-.539A3.565,3.565,0,0,1,53-7.414a4.6,4.6,0,0,1,1.066,3.18v.1A5.036,5.036,0,0,1,53.6-1.918,3.589,3.589,0,0,1,52.246-.391a3.743,3.743,0,0,1-2.02.547,3.556,3.556,0,0,1-2.785-1.2A4.575,4.575,0,0,1,46.375-4.2Zm1.453.172a3.616,3.616,0,0,0,.652,2.258,2.088,2.088,0,0,0,1.746.852,2.075,2.075,0,0,0,1.75-.863A3.955,3.955,0,0,0,52.625-4.3a3.61,3.61,0,0,0-.66-2.254,2.1,2.1,0,0,0-1.754-.863,2.075,2.075,0,0,0-1.727.852A3.925,3.925,0,0,0,47.828-4.133ZM57.453,0H56.008V-12h1.445Zm1.93-4.3a4.993,4.993,0,0,1,.488-2.234A3.643,3.643,0,0,1,61.23-8.07a3.7,3.7,0,0,1,1.988-.539,3.565,3.565,0,0,1,2.793,1.2,4.6,4.6,0,0,1,1.066,3.18v.1a5.036,5.036,0,0,1-.473,2.215A3.589,3.589,0,0,1,65.254-.391a3.743,3.743,0,0,1-2.02.547,3.556,3.556,0,0,1-2.785-1.2A4.575,4.575,0,0,1,59.383-4.2Zm1.453.172a3.616,3.616,0,0,0,.652,2.258,2.088,2.088,0,0,0,1.746.852,2.075,2.075,0,0,0,1.75-.863A3.955,3.955,0,0,0,65.633-4.3a3.61,3.61,0,0,0-.66-2.254,2.1,2.1,0,0,0-1.754-.863,2.075,2.075,0,0,0-1.727.852A3.925,3.925,0,0,0,60.836-4.133ZM68.547-4.3a4.968,4.968,0,0,1,.914-3.145,2.923,2.923,0,0,1,2.422-1.168A2.908,2.908,0,0,1,74.3-7.516l.07-.937h1.32V-.2a3.439,3.439,0,0,1-.973,2.586,3.589,3.589,0,0,1-2.613.945,4.348,4.348,0,0,1-1.789-.391,3.08,3.08,0,0,1-1.336-1.07L69.727,1A2.826,2.826,0,0,0,72,2.148a2.214,2.214,0,0,0,1.645-.594,2.269,2.269,0,0,0,.59-1.672V-.844a2.971,2.971,0,0,1-2.367,1,2.887,2.887,0,0,1-2.4-1.2A5.224,5.224,0,0,1,68.547-4.3ZM70-4.133a3.79,3.79,0,0,0,.586,2.246,1.9,1.9,0,0,0,1.641.816,2.117,2.117,0,0,0,2.008-1.242V-6.172a2.142,2.142,0,0,0-1.992-1.211,1.921,1.921,0,0,0-1.648.82A4.128,4.128,0,0,0,70-4.133ZM79.438,0H77.984V-8.453h1.453Zm.016-11.992H81.2L79.109-9.7H77.945ZM87.039,0a3.036,3.036,0,0,1-.2-.891A3.225,3.225,0,0,1,84.43.156a2.984,2.984,0,0,1-2.051-.707,2.288,2.288,0,0,1-.8-1.793,2.39,2.39,0,0,1,1-2.051,4.733,4.733,0,0,1,2.824-.73h1.406v-.664A1.623,1.623,0,0,0,86.359-7a1.821,1.821,0,0,0-1.336-.449,2.108,2.108,0,0,0-1.3.391,1.151,1.151,0,0,0-.523.945H81.75A2,2,0,0,1,82.2-7.332a3.066,3.066,0,0,1,1.219-.934,4.1,4.1,0,0,1,1.691-.344,3.342,3.342,0,0,1,2.289.73,2.635,2.635,0,0,1,.859,2.012v3.891a4.757,4.757,0,0,0,.3,1.852V0Zm-2.4-1.1a2.54,2.54,0,0,0,1.289-.352,2.127,2.127,0,0,0,.883-.914V-4.1H85.68q-2.656,0-2.656,1.555a1.316,1.316,0,0,0,.453,1.063A1.742,1.742,0,0,0,84.641-1.1Z" transform="translate(1276.333 611)" fill="#12263f"/>
    <path id="Path_901338" data-name="Path 901338" d="M4.672-5.07A7.053,7.053,0,0,1,1.863-6.434a2.6,2.6,0,0,1-.879-2,2.751,2.751,0,0,1,1.074-2.223,4.269,4.269,0,0,1,2.793-.879,4.66,4.66,0,0,1,2.09.453,3.436,3.436,0,0,1,1.422,1.25,3.2,3.2,0,0,1,.5,1.742H7.359A2.069,2.069,0,0,0,6.7-9.707a2.675,2.675,0,0,0-1.852-.59,2.736,2.736,0,0,0-1.73.488A1.628,1.628,0,0,0,2.5-8.453a1.465,1.465,0,0,0,.59,1.176A5.79,5.79,0,0,0,5.1-6.4a9.3,9.3,0,0,1,2.219.879A3.367,3.367,0,0,1,8.5-4.4a2.861,2.861,0,0,1,.387,1.508A2.658,2.658,0,0,1,7.813-.676,4.6,4.6,0,0,1,4.93.156,5.347,5.347,0,0,1,2.742-.293a3.681,3.681,0,0,1-1.566-1.23A3,3,0,0,1,.625-3.3H2.133a1.959,1.959,0,0,0,.762,1.629,3.207,3.207,0,0,0,2.035.6,2.948,2.948,0,0,0,1.82-.484,1.573,1.573,0,0,0,.633-1.32A1.545,1.545,0,0,0,6.8-4.168,6.755,6.755,0,0,0,4.672-5.07ZM14.094.156A3.693,3.693,0,0,1,11.3-.973a4.19,4.19,0,0,1-1.078-3.02v-.266A5.073,5.073,0,0,1,10.7-6.5a3.748,3.748,0,0,1,1.344-1.547,3.378,3.378,0,0,1,1.871-.559,3.166,3.166,0,0,1,2.563,1.086,4.7,4.7,0,0,1,.914,3.109v.6H11.664a3,3,0,0,0,.73,2.02,2.3,2.3,0,0,0,1.777.77,2.517,2.517,0,0,0,1.3-.312,3.259,3.259,0,0,0,.93-.828l.883.688A3.55,3.55,0,0,1,14.094.156Zm-.18-7.578a1.928,1.928,0,0,0-1.469.637A3.1,3.1,0,0,0,11.711-5h4.234v-.109a2.753,2.753,0,0,0-.594-1.707A1.815,1.815,0,0,0,13.914-7.422ZM24.594,0H23.148V-8.453h1.445ZM23.031-10.7a.863.863,0,0,1,.215-.594.807.807,0,0,1,.637-.242.819.819,0,0,1,.641.242.854.854,0,0,1,.219.594.826.826,0,0,1-.219.586.834.834,0,0,1-.641.234.821.821,0,0,1-.637-.234A.834.834,0,0,1,23.031-10.7Zm5.234,2.242.039.938a3.122,3.122,0,0,1,2.508-1.094A2.417,2.417,0,0,1,33.227-7.25a3.2,3.2,0,0,1,1.1-.984,3.242,3.242,0,0,1,1.6-.375q2.781,0,2.828,2.945V0H37.3V-5.578a1.941,1.941,0,0,0-.414-1.355A1.823,1.823,0,0,0,35.5-7.383a1.916,1.916,0,0,0-1.336.48,1.949,1.949,0,0,0-.617,1.293V0H32.094V-5.539a1.613,1.613,0,0,0-1.8-1.844,1.934,1.934,0,0,0-1.945,1.211V0H26.9V-8.453Zm19.8,4.32a5.062,5.062,0,0,1-.883,3.109A2.829,2.829,0,0,1,44.8.156,3.1,3.1,0,0,1,42.375-.82V3.25H40.93v-11.7h1.32l.07.938a2.977,2.977,0,0,1,2.453-1.094,2.882,2.882,0,0,1,2.41,1.148,5.117,5.117,0,0,1,.887,3.2ZM46.625-4.3a3.735,3.735,0,0,0-.609-2.258,1.963,1.963,0,0,0-1.672-.828,2.125,2.125,0,0,0-1.969,1.164V-2.18a2.129,2.129,0,0,0,1.984,1.156,1.954,1.954,0,0,0,1.652-.824A4.077,4.077,0,0,0,46.625-4.3ZM51.477,0H50.031V-12h1.445ZM57.3.156A3.693,3.693,0,0,1,54.5-.973a4.19,4.19,0,0,1-1.078-3.02v-.266A5.073,5.073,0,0,1,53.9-6.5a3.748,3.748,0,0,1,1.344-1.547,3.378,3.378,0,0,1,1.871-.559A3.166,3.166,0,0,1,59.68-7.523a4.7,4.7,0,0,1,.914,3.109v.6H54.867a3,3,0,0,0,.73,2.02,2.3,2.3,0,0,0,1.777.77,2.517,2.517,0,0,0,1.3-.312,3.259,3.259,0,0,0,.93-.828l.883.688A3.55,3.55,0,0,1,57.3.156Zm-.18-7.578a1.928,1.928,0,0,0-1.469.637A3.1,3.1,0,0,0,54.914-5h4.234v-.109a2.753,2.753,0,0,0-.594-1.707A1.815,1.815,0,0,0,57.117-7.422Zm6.508-1.031.039.938a3.122,3.122,0,0,1,2.508-1.094A2.417,2.417,0,0,1,68.586-7.25a3.2,3.2,0,0,1,1.1-.984,3.242,3.242,0,0,1,1.6-.375q2.781,0,2.828,2.945V0H72.664V-5.578a1.941,1.941,0,0,0-.414-1.355,1.823,1.823,0,0,0-1.391-.449,1.916,1.916,0,0,0-1.336.48,1.949,1.949,0,0,0-.617,1.293V0H67.453V-5.539a1.613,1.613,0,0,0-1.8-1.844A1.934,1.934,0,0,0,63.7-6.172V0H62.258V-8.453ZM79.8.156A3.693,3.693,0,0,1,77-.973a4.19,4.19,0,0,1-1.078-3.02v-.266A5.073,5.073,0,0,1,76.4-6.5a3.748,3.748,0,0,1,1.344-1.547,3.378,3.378,0,0,1,1.871-.559A3.166,3.166,0,0,1,82.18-7.523a4.7,4.7,0,0,1,.914,3.109v.6H77.367a3,3,0,0,0,.73,2.02,2.3,2.3,0,0,0,1.777.77,2.517,2.517,0,0,0,1.3-.312,3.259,3.259,0,0,0,.93-.828l.883.688A3.55,3.55,0,0,1,79.8.156Zm-.18-7.578a1.928,1.928,0,0,0-1.469.637A3.1,3.1,0,0,0,77.414-5h4.234v-.109a2.753,2.753,0,0,0-.594-1.707A1.815,1.815,0,0,0,79.617-7.422Zm6.516-1.031.047,1.063a3.08,3.08,0,0,1,2.531-1.219q2.68,0,2.7,3.023V0H89.969V-5.594a1.946,1.946,0,0,0-.418-1.352,1.675,1.675,0,0,0-1.277-.437,2.086,2.086,0,0,0-1.234.375,2.546,2.546,0,0,0-.828.984V0H84.766V-8.453ZM95.555-10.5v2.047h1.578v1.117H95.555v5.242a1.171,1.171,0,0,0,.211.762.888.888,0,0,0,.719.254,3.5,3.5,0,0,0,.688-.094V0a4.19,4.19,0,0,1-1.109.156A1.8,1.8,0,0,1,94.6-.43a2.517,2.517,0,0,1-.492-1.664V-7.336H92.57V-8.453h1.539V-10.5ZM104.039,0a3.036,3.036,0,0,1-.2-.891A3.225,3.225,0,0,1,101.43.156a2.984,2.984,0,0,1-2.051-.707,2.288,2.288,0,0,1-.8-1.793,2.39,2.39,0,0,1,1-2.051,4.733,4.733,0,0,1,2.824-.73h1.406v-.664A1.623,1.623,0,0,0,103.359-7a1.821,1.821,0,0,0-1.336-.449,2.108,2.108,0,0,0-1.3.391,1.151,1.151,0,0,0-.523.945H98.75A2,2,0,0,1,99.2-7.332a3.066,3.066,0,0,1,1.219-.934,4.1,4.1,0,0,1,1.691-.344,3.342,3.342,0,0,1,2.289.73,2.635,2.635,0,0,1,.859,2.012v3.891a4.757,4.757,0,0,0,.3,1.852V0Zm-2.4-1.1a2.54,2.54,0,0,0,1.289-.352,2.127,2.127,0,0,0,.883-.914V-4.1H102.68q-2.656,0-2.656,1.555a1.316,1.316,0,0,0,.453,1.063A1.742,1.742,0,0,0,101.641-1.1Zm7.25-7.352.047,1.063a3.08,3.08,0,0,1,2.531-1.219q2.68,0,2.7,3.023V0h-1.445V-5.594a1.946,1.946,0,0,0-.418-1.352,1.675,1.675,0,0,0-1.277-.437,2.086,2.086,0,0,0-1.234.375,2.546,2.546,0,0,0-.828.984V0h-1.445V-8.453ZM123.82.156a3.693,3.693,0,0,1-2.8-1.129,4.19,4.19,0,0,1-1.078-3.02v-.266a5.073,5.073,0,0,1,.48-2.246,3.748,3.748,0,0,1,1.344-1.547,3.378,3.378,0,0,1,1.871-.559A3.166,3.166,0,0,1,126.2-7.523a4.7,4.7,0,0,1,.914,3.109v.6h-5.727a3,3,0,0,0,.73,2.02,2.3,2.3,0,0,0,1.777.77,2.517,2.517,0,0,0,1.3-.312,3.259,3.259,0,0,0,.93-.828l.883.688A3.55,3.55,0,0,1,123.82.156Zm-.18-7.578a1.928,1.928,0,0,0-1.469.637A3.1,3.1,0,0,0,121.438-5h4.234v-.109a2.753,2.753,0,0,0-.594-1.707A1.815,1.815,0,0,0,123.641-7.422Zm6.516-1.031.047,1.063a3.08,3.08,0,0,1,2.531-1.219q2.68,0,2.7,3.023V0h-1.445V-5.594a1.946,1.946,0,0,0-.418-1.352,1.675,1.675,0,0,0-1.277-.437,2.086,2.086,0,0,0-1.234.375,2.546,2.546,0,0,0-.828.984V0h-1.445V-8.453Z" transform="translate(731.333 611)" fill="#12263f"/>
    <rect id="Rectangle_404375" data-name="Rectangle 404375" width="190" height="69" transform="translate(705.333 630)" fill="#cee6da"/>
    <path id="Path_901337" data-name="Path 901337" d="M2.828-1.227H8.219V0H1.32V-11.375H2.828ZM14.922,0a3.036,3.036,0,0,1-.2-.891A3.225,3.225,0,0,1,12.313.156a2.984,2.984,0,0,1-2.051-.707,2.287,2.287,0,0,1-.8-1.793,2.39,2.39,0,0,1,1-2.051,4.733,4.733,0,0,1,2.824-.73H14.7v-.664A1.623,1.623,0,0,0,14.242-7a1.821,1.821,0,0,0-1.336-.449,2.107,2.107,0,0,0-1.3.391,1.151,1.151,0,0,0-.523.945H9.633a2,2,0,0,1,.449-1.223A3.066,3.066,0,0,1,11.3-8.266a4.1,4.1,0,0,1,1.691-.344,3.342,3.342,0,0,1,2.289.73,2.635,2.635,0,0,1,.859,2.012v3.891a4.757,4.757,0,0,0,.3,1.852V0Zm-2.4-1.1a2.54,2.54,0,0,0,1.289-.352,2.127,2.127,0,0,0,.883-.914V-4.1H13.563q-2.656,0-2.656,1.555a1.316,1.316,0,0,0,.453,1.063A1.742,1.742,0,0,0,12.523-1.1Zm10.8-1.141a1.064,1.064,0,0,0-.441-.91,4.249,4.249,0,0,0-1.539-.559,7.277,7.277,0,0,1-1.742-.562,2.479,2.479,0,0,1-.953-.781,1.869,1.869,0,0,1-.309-1.078,2.193,2.193,0,0,1,.879-1.758,3.432,3.432,0,0,1,2.246-.719,3.532,3.532,0,0,1,2.332.742,2.357,2.357,0,0,1,.895,1.9H23.242a1.3,1.3,0,0,0-.5-1.023,1.888,1.888,0,0,0-1.27-.43,1.976,1.976,0,0,0-1.234.344,1.082,1.082,0,0,0-.445.9.877.877,0,0,0,.414.789,5.1,5.1,0,0,0,1.5.508,7.8,7.8,0,0,1,1.754.578,2.558,2.558,0,0,1,1,.809,1.988,1.988,0,0,1,.324,1.152,2.163,2.163,0,0,1-.906,1.816,3.8,3.8,0,0,1-2.352.684,4.257,4.257,0,0,1-1.8-.359,2.922,2.922,0,0,1-1.223-1A2.42,2.42,0,0,1,18.055-2.6H19.5a1.5,1.5,0,0,0,.582,1.152,2.258,2.258,0,0,0,1.434.426,2.331,2.331,0,0,0,1.316-.332A1.02,1.02,0,0,0,23.328-2.242ZM30.844,0V-11.375h3.719a4.317,4.317,0,0,1,2.785.766,2.759,2.759,0,0,1,.934,2.266,2.31,2.31,0,0,1-.453,1.41,2.938,2.938,0,0,1-1.234.949A2.638,2.638,0,0,1,38.051-5a2.814,2.814,0,0,1,.535,1.723,3.042,3.042,0,0,1-.992,2.406,4.1,4.1,0,0,1-2.8.875Zm1.5-5.32v4.094H34.82a2.385,2.385,0,0,0,1.652-.543,1.907,1.907,0,0,0,.605-1.5q0-2.055-2.234-2.055Zm0-1.2h2.266a2.378,2.378,0,0,0,1.574-.492,1.649,1.649,0,0,0,.59-1.336,1.621,1.621,0,0,0-.547-1.363,2.69,2.69,0,0,0-1.664-.426H32.344ZM42.3-4.453V0H40.8V-11.375H45a4.215,4.215,0,0,1,2.926.953A3.231,3.231,0,0,1,48.984-7.9a3.189,3.189,0,0,1-1.035,2.551,4.4,4.4,0,0,1-2.965.895Zm0-1.227H45a2.7,2.7,0,0,0,1.844-.566,2.069,2.069,0,0,0,.641-1.637,2.138,2.138,0,0,0-.641-1.625,2.528,2.528,0,0,0-1.758-.633H42.3ZM59.3-1.492A3.465,3.465,0,0,1,57.684-.254a6.517,6.517,0,0,1-2.41.41A4.674,4.674,0,0,1,52.8-.5a4.346,4.346,0,0,1-1.668-1.855,6.408,6.408,0,0,1-.605-2.789v-.992a5.982,5.982,0,0,1,1.2-3.984A4.179,4.179,0,0,1,55.1-11.531a4.316,4.316,0,0,1,2.867.91A3.965,3.965,0,0,1,59.3-8.039H57.8A2.478,2.478,0,0,0,55.109-10.3a2.656,2.656,0,0,0-2.285,1.059,5.165,5.165,0,0,0-.785,3.066v.93A4.841,4.841,0,0,0,52.914-2.2,2.837,2.837,0,0,0,55.281-1.07a5.217,5.217,0,0,0,1.477-.187A2.282,2.282,0,0,0,57.8-1.891V-4.445H55.172V-5.664H59.3Z" transform="translate(770.333 670)" fill="#12263f"/>
    <rect id="Rectangle_404376" data-name="Rectangle 404376" width="190" height="69" transform="translate(495.333 792)" fill="#ebf0aa"/>
    <path id="Path_901336" data-name="Path 901336" d="M9.688-3.609A4.185,4.185,0,0,1,8.355-.824a4.365,4.365,0,0,1-2.98.98,4.008,4.008,0,0,1-3.23-1.445A5.815,5.815,0,0,1,.93-5.156V-6.25A6.481,6.481,0,0,1,1.5-9.039,4.231,4.231,0,0,1,3.1-10.887a4.47,4.47,0,0,1,2.406-.645A4.11,4.11,0,0,1,8.414-10.52a4.235,4.235,0,0,1,1.273,2.8H8.18a3.254,3.254,0,0,0-.848-1.969A2.569,2.569,0,0,0,5.508-10.3,2.685,2.685,0,0,0,3.254-9.234a4.875,4.875,0,0,0-.816,3.023v1.1a5.011,5.011,0,0,0,.773,2.945A2.5,2.5,0,0,0,5.375-1.07a2.887,2.887,0,0,0,1.918-.566A3.143,3.143,0,0,0,8.18-3.609Zm1.438-.7a4.993,4.993,0,0,1,.488-2.234A3.643,3.643,0,0,1,12.973-8.07a3.7,3.7,0,0,1,1.988-.539,3.565,3.565,0,0,1,2.793,1.2,4.6,4.6,0,0,1,1.066,3.18v.1a5.036,5.036,0,0,1-.473,2.215A3.589,3.589,0,0,1,17-.391a3.743,3.743,0,0,1-2.02.547,3.556,3.556,0,0,1-2.785-1.2A4.575,4.575,0,0,1,11.125-4.2Zm1.453.172a3.616,3.616,0,0,0,.652,2.258,2.088,2.088,0,0,0,1.746.852,2.075,2.075,0,0,0,1.75-.863A3.955,3.955,0,0,0,17.375-4.3a3.61,3.61,0,0,0-.66-2.254,2.1,2.1,0,0,0-1.754-.863,2.075,2.075,0,0,0-1.727.852A3.925,3.925,0,0,0,12.578-4.133ZM22-8.453l.047,1.063a3.08,3.08,0,0,1,2.531-1.219q2.68,0,2.7,3.023V0H25.836V-5.594a1.946,1.946,0,0,0-.418-1.352,1.675,1.675,0,0,0-1.277-.437,2.086,2.086,0,0,0-1.234.375,2.546,2.546,0,0,0-.828.984V0H20.633V-8.453ZM31.422-10.5v2.047H33v1.117H31.422v5.242a1.171,1.171,0,0,0,.211.762.888.888,0,0,0,.719.254,3.5,3.5,0,0,0,.688-.094V0A4.19,4.19,0,0,1,31.93.156,1.8,1.8,0,0,1,30.469-.43a2.517,2.517,0,0,1-.492-1.664V-7.336H28.438V-8.453h1.539V-10.5ZM36.258,0H34.813V-8.453h1.445ZM34.7-10.7a.863.863,0,0,1,.215-.594.807.807,0,0,1,.637-.242.819.819,0,0,1,.641.242.854.854,0,0,1,.219.594.826.826,0,0,1-.219.586.834.834,0,0,1-.641.234.821.821,0,0,1-.637-.234A.834.834,0,0,1,34.7-10.7Zm5.242,2.242.047,1.063a3.08,3.08,0,0,1,2.531-1.219q2.68,0,2.7,3.023V0H43.773V-5.594a1.946,1.946,0,0,0-.418-1.352,1.675,1.675,0,0,0-1.277-.437,2.086,2.086,0,0,0-1.234.375,2.546,2.546,0,0,0-.828.984V0H38.57V-8.453ZM47.055-4.3a4.968,4.968,0,0,1,.914-3.145,2.923,2.923,0,0,1,2.422-1.168A2.908,2.908,0,0,1,52.8-7.516l.07-.937H54.2V-.2a3.439,3.439,0,0,1-.973,2.586,3.589,3.589,0,0,1-2.613.945,4.348,4.348,0,0,1-1.789-.391,3.08,3.08,0,0,1-1.336-1.07L48.234,1a2.826,2.826,0,0,0,2.273,1.148,2.214,2.214,0,0,0,1.645-.594,2.269,2.269,0,0,0,.59-1.672V-.844a2.971,2.971,0,0,1-2.367,1,2.887,2.887,0,0,1-2.4-1.2A5.224,5.224,0,0,1,47.055-4.3Zm1.453.164a3.79,3.79,0,0,0,.586,2.246,1.9,1.9,0,0,0,1.641.816,2.117,2.117,0,0,0,2.008-1.242V-6.172A2.142,2.142,0,0,0,50.75-7.383a1.921,1.921,0,0,0-1.648.82A4.128,4.128,0,0,0,48.508-4.133ZM59.883.156a3.693,3.693,0,0,1-2.8-1.129,4.19,4.19,0,0,1-1.078-3.02v-.266a5.073,5.073,0,0,1,.48-2.246,3.748,3.748,0,0,1,1.344-1.547A3.378,3.378,0,0,1,59.7-8.609a3.166,3.166,0,0,1,2.563,1.086,4.7,4.7,0,0,1,.914,3.109v.6H57.453a3,3,0,0,0,.73,2.02,2.3,2.3,0,0,0,1.777.77,2.517,2.517,0,0,0,1.3-.312,3.259,3.259,0,0,0,.93-.828l.883.688A3.55,3.55,0,0,1,59.883.156ZM59.7-7.422a1.928,1.928,0,0,0-1.469.637A3.1,3.1,0,0,0,57.5-5h4.234v-.109a2.753,2.753,0,0,0-.594-1.707A1.815,1.815,0,0,0,59.7-7.422Zm6.516-1.031.047,1.063A3.08,3.08,0,0,1,68.8-8.609q2.68,0,2.7,3.023V0H70.055V-5.594a1.946,1.946,0,0,0-.418-1.352,1.675,1.675,0,0,0-1.277-.437,2.086,2.086,0,0,0-1.234.375,2.546,2.546,0,0,0-.828.984V0H64.852V-8.453ZM77.07-1.023a2.082,2.082,0,0,0,1.352-.469,1.649,1.649,0,0,0,.641-1.172H80.43a2.621,2.621,0,0,1-.5,1.383A3.293,3.293,0,0,1,78.7-.234,3.55,3.55,0,0,1,77.07.156,3.482,3.482,0,0,1,74.324-1,4.59,4.59,0,0,1,73.3-4.148v-.242a5.089,5.089,0,0,1,.453-2.2,3.451,3.451,0,0,1,1.3-1.492,3.7,3.7,0,0,1,2-.531,3.39,3.39,0,0,1,2.363.852,3.043,3.043,0,0,1,1,2.211H79.063a1.992,1.992,0,0,0-.621-1.348,1.932,1.932,0,0,0-1.379-.527,2.023,2.023,0,0,0-1.707.793,3.724,3.724,0,0,0-.605,2.293v.273a3.65,3.65,0,0,0,.6,2.25A2.033,2.033,0,0,0,77.07-1.023ZM83.625,0H82.18V-8.453h1.445ZM82.063-10.7a.863.863,0,0,1,.215-.594.807.807,0,0,1,.637-.242.819.819,0,0,1,.641.242.854.854,0,0,1,.219.594.826.826,0,0,1-.219.586.834.834,0,0,1-.641.234.821.821,0,0,1-.637-.234A.834.834,0,0,1,82.063-10.7ZM91.156,0a3.036,3.036,0,0,1-.2-.891A3.225,3.225,0,0,1,88.547.156,2.984,2.984,0,0,1,86.5-.551a2.288,2.288,0,0,1-.8-1.793,2.39,2.39,0,0,1,1-2.051,4.733,4.733,0,0,1,2.824-.73H90.93v-.664A1.623,1.623,0,0,0,90.477-7a1.821,1.821,0,0,0-1.336-.449,2.108,2.108,0,0,0-1.3.391,1.151,1.151,0,0,0-.523.945H85.867a2,2,0,0,1,.449-1.223,3.066,3.066,0,0,1,1.219-.934,4.1,4.1,0,0,1,1.691-.344,3.342,3.342,0,0,1,2.289.73,2.635,2.635,0,0,1,.859,2.012v3.891a4.757,4.757,0,0,0,.3,1.852V0Zm-2.4-1.1a2.54,2.54,0,0,0,1.289-.352,2.127,2.127,0,0,0,.883-.914V-4.1H89.8q-2.656,0-2.656,1.555a1.316,1.316,0,0,0,.453,1.063A1.742,1.742,0,0,0,88.758-1.1Zm10.8-1.141a1.064,1.064,0,0,0-.441-.91,4.249,4.249,0,0,0-1.539-.559,7.277,7.277,0,0,1-1.742-.562,2.479,2.479,0,0,1-.953-.781,1.869,1.869,0,0,1-.309-1.078,2.193,2.193,0,0,1,.879-1.758A3.432,3.432,0,0,1,97.7-8.609a3.532,3.532,0,0,1,2.332.742,2.357,2.357,0,0,1,.895,1.9H99.477a1.3,1.3,0,0,0-.5-1.023,1.888,1.888,0,0,0-1.27-.43,1.976,1.976,0,0,0-1.234.344,1.082,1.082,0,0,0-.445.9.877.877,0,0,0,.414.789,5.1,5.1,0,0,0,1.5.508,7.8,7.8,0,0,1,1.754.578,2.558,2.558,0,0,1,1,.809,1.988,1.988,0,0,1,.324,1.152A2.163,2.163,0,0,1,100.1-.527,3.8,3.8,0,0,1,97.75.156a4.257,4.257,0,0,1-1.8-.359,2.922,2.922,0,0,1-1.223-1A2.42,2.42,0,0,1,94.289-2.6h1.445a1.5,1.5,0,0,0,.582,1.152,2.258,2.258,0,0,0,1.434.426,2.331,2.331,0,0,0,1.316-.332A1.02,1.02,0,0,0,99.563-2.242Z" transform="translate(541.333 832)" fill="#12263f"/>
    <rect id="Rectangle_404377" data-name="Rectangle 404377" width="190" height="69" transform="translate(915.333 792)" fill="#ebf0aa"/>
    <path id="Path_901341" data-name="Path 901341" d="M9.18-10.141H5.523V0H4.031V-10.141H.383v-1.234h8.8Zm4.961,2.984a4.331,4.331,0,0,0-.711-.055A1.9,1.9,0,0,0,11.5-6V0H10.055V-8.453h1.406l.023.977A2.251,2.251,0,0,1,13.5-8.609a1.477,1.477,0,0,1,.641.109ZM20.375,0a3.036,3.036,0,0,1-.2-.891A3.225,3.225,0,0,1,17.766.156a2.984,2.984,0,0,1-2.051-.707,2.287,2.287,0,0,1-.8-1.793,2.39,2.39,0,0,1,1-2.051,4.733,4.733,0,0,1,2.824-.73h1.406v-.664A1.623,1.623,0,0,0,19.7-7a1.821,1.821,0,0,0-1.336-.449,2.108,2.108,0,0,0-1.3.391,1.151,1.151,0,0,0-.523.945H15.086a2,2,0,0,1,.449-1.223,3.066,3.066,0,0,1,1.219-.934,4.1,4.1,0,0,1,1.691-.344,3.342,3.342,0,0,1,2.289.73,2.635,2.635,0,0,1,.859,2.012v3.891a4.757,4.757,0,0,0,.3,1.852V0Zm-2.4-1.1a2.54,2.54,0,0,0,1.289-.352,2.127,2.127,0,0,0,.883-.914V-4.1H19.016q-2.656,0-2.656,1.555a1.316,1.316,0,0,0,.453,1.063A1.742,1.742,0,0,0,17.977-1.1Zm7.242-.078h4.945V0H23.453V-1.062l4.664-6.2H23.523v-1.2H29.93V-7.43ZM37.008,0a3.036,3.036,0,0,1-.2-.891A3.225,3.225,0,0,1,34.4.156a2.984,2.984,0,0,1-2.051-.707,2.287,2.287,0,0,1-.8-1.793,2.39,2.39,0,0,1,1-2.051,4.733,4.733,0,0,1,2.824-.73h1.406v-.664A1.623,1.623,0,0,0,36.328-7a1.821,1.821,0,0,0-1.336-.449,2.107,2.107,0,0,0-1.3.391,1.151,1.151,0,0,0-.523.945H31.719a2,2,0,0,1,.449-1.223,3.066,3.066,0,0,1,1.219-.934,4.1,4.1,0,0,1,1.691-.344,3.342,3.342,0,0,1,2.289.73,2.635,2.635,0,0,1,.859,2.012v3.891a4.757,4.757,0,0,0,.3,1.852V0Zm-2.4-1.1A2.54,2.54,0,0,0,35.9-1.453a2.127,2.127,0,0,0,.883-.914V-4.1H35.648q-2.656,0-2.656,1.555a1.316,1.316,0,0,0,.453,1.063A1.742,1.742,0,0,0,34.609-1.1ZM47.648-4.133a5.026,5.026,0,0,1-.891,3.113A2.846,2.846,0,0,1,44.367.156,2.947,2.947,0,0,1,41.891-.977L41.82,0H40.492V-12h1.445v4.477a2.93,2.93,0,0,1,2.414-1.086A2.863,2.863,0,0,1,46.77-7.445a5.177,5.177,0,0,1,.879,3.188ZM46.2-4.3a3.906,3.906,0,0,0-.57-2.281,1.888,1.888,0,0,0-1.641-.8,2.122,2.122,0,0,0-2.055,1.328V-2.4a2.181,2.181,0,0,0,2.07,1.328,1.878,1.878,0,0,0,1.617-.8A4.153,4.153,0,0,0,46.2-4.3ZM51.039,0H49.594V-8.453h1.445ZM49.477-10.7a.863.863,0,0,1,.215-.594.807.807,0,0,1,.637-.242.819.819,0,0,1,.641.242.854.854,0,0,1,.219.594.826.826,0,0,1-.219.586.834.834,0,0,1-.641.234.821.821,0,0,1-.637-.234A.834.834,0,0,1,49.477-10.7ZM54.922,0H53.477V-12h1.445ZM58.8,0H57.359V-8.453H58.8ZM57.242-10.7a.863.863,0,0,1,.215-.594.807.807,0,0,1,.637-.242.819.819,0,0,1,.641.242.854.854,0,0,1,.219.594.826.826,0,0,1-.219.586.834.834,0,0,1-.641.234.821.821,0,0,1-.637-.234A.834.834,0,0,1,57.242-10.7Zm3.523,6.4a4.952,4.952,0,0,1,.922-3.129A2.915,2.915,0,0,1,64.1-8.609a2.932,2.932,0,0,1,2.352,1.016V-12H67.9V0H66.57L66.5-.906A2.943,2.943,0,0,1,64.086.156a2.887,2.887,0,0,1-2.395-1.2,5.008,5.008,0,0,1-.926-3.141Zm1.445.164a3.749,3.749,0,0,0,.594,2.25,1.92,1.92,0,0,0,1.641.813A2.109,2.109,0,0,0,66.453-2.3V-6.187a2.125,2.125,0,0,0-1.992-1.2,1.929,1.929,0,0,0-1.656.82A4.128,4.128,0,0,0,62.211-4.133ZM75.359,0a3.036,3.036,0,0,1-.2-.891A3.225,3.225,0,0,1,72.75.156,2.984,2.984,0,0,1,70.7-.551a2.288,2.288,0,0,1-.8-1.793,2.39,2.39,0,0,1,1-2.051,4.733,4.733,0,0,1,2.824-.73h1.406v-.664A1.623,1.623,0,0,0,74.68-7a1.821,1.821,0,0,0-1.336-.449,2.108,2.108,0,0,0-1.3.391,1.151,1.151,0,0,0-.523.945H70.07a2,2,0,0,1,.449-1.223,3.066,3.066,0,0,1,1.219-.934,4.1,4.1,0,0,1,1.691-.344,3.342,3.342,0,0,1,2.289.73,2.635,2.635,0,0,1,.859,2.012v3.891a4.757,4.757,0,0,0,.3,1.852V0Zm-2.4-1.1a2.54,2.54,0,0,0,1.289-.352,2.127,2.127,0,0,0,.883-.914V-4.1H74q-2.656,0-2.656,1.555A1.316,1.316,0,0,0,71.8-1.484,1.742,1.742,0,0,0,72.961-1.1Zm5.531-3.2a4.952,4.952,0,0,1,.922-3.129,2.915,2.915,0,0,1,2.414-1.184A2.932,2.932,0,0,1,84.18-7.594V-12h1.445V0H84.3l-.07-.906A2.943,2.943,0,0,1,81.813.156a2.887,2.887,0,0,1-2.395-1.2,5.008,5.008,0,0,1-.926-3.141Zm1.445.164a3.749,3.749,0,0,0,.594,2.25,1.92,1.92,0,0,0,1.641.813A2.109,2.109,0,0,0,84.18-2.3V-6.187a2.125,2.125,0,0,0-1.992-1.2,1.929,1.929,0,0,0-1.656.82A4.128,4.128,0,0,0,79.938-4.133Z" transform="translate(967.333 832)" fill="#12263f"/>
    <rect id="Rectangle_404378" data-name="Rectangle 404378" width="190" height="69" transform="translate(705.333 904)" fill="#ebf0aa"/>
    <path id="Path_901340" data-name="Path 901340" d="M7.6-2.969H2.836L1.766,0H.219L4.563-11.375H5.875L10.227,0H8.688ZM3.289-4.2H7.156L5.219-9.523Zm11.633,3.18a2.082,2.082,0,0,0,1.352-.469,1.649,1.649,0,0,0,.641-1.172h1.367a2.621,2.621,0,0,1-.5,1.383,3.293,3.293,0,0,1-1.23,1.047,3.55,3.55,0,0,1-1.629.391A3.482,3.482,0,0,1,12.176-1a4.59,4.59,0,0,1-1.02-3.152v-.242a5.089,5.089,0,0,1,.453-2.2,3.451,3.451,0,0,1,1.3-1.492,3.7,3.7,0,0,1,2-.531,3.39,3.39,0,0,1,2.363.852,3.043,3.043,0,0,1,1,2.211H16.914a1.992,1.992,0,0,0-.621-1.348,1.932,1.932,0,0,0-1.379-.527,2.023,2.023,0,0,0-1.707.793A3.724,3.724,0,0,0,12.6-4.336v.273a3.65,3.65,0,0,0,.6,2.25A2.033,2.033,0,0,0,14.922-1.023Zm8.375,0a2.082,2.082,0,0,0,1.352-.469,1.649,1.649,0,0,0,.641-1.172h1.367a2.621,2.621,0,0,1-.5,1.383,3.293,3.293,0,0,1-1.23,1.047A3.55,3.55,0,0,1,23.3.156,3.482,3.482,0,0,1,20.551-1a4.59,4.59,0,0,1-1.02-3.152v-.242a5.089,5.089,0,0,1,.453-2.2,3.451,3.451,0,0,1,1.3-1.492,3.7,3.7,0,0,1,2-.531,3.39,3.39,0,0,1,2.363.852,3.043,3.043,0,0,1,1,2.211H25.289a1.992,1.992,0,0,0-.621-1.348,1.932,1.932,0,0,0-1.379-.527,2.023,2.023,0,0,0-1.707.793,3.724,3.724,0,0,0-.605,2.293v.273a3.65,3.65,0,0,0,.6,2.25A2.033,2.033,0,0,0,23.3-1.023ZM29.852,0H28.406V-8.453h1.445ZM28.289-10.7a.863.863,0,0,1,.215-.594.807.807,0,0,1,.637-.242.819.819,0,0,1,.641.242A.854.854,0,0,1,30-10.7a.826.826,0,0,1-.219.586.834.834,0,0,1-.641.234.821.821,0,0,1-.637-.234A.834.834,0,0,1,28.289-10.7ZM31.781-4.3a4.993,4.993,0,0,1,.488-2.234A3.643,3.643,0,0,1,33.629-8.07a3.7,3.7,0,0,1,1.988-.539,3.565,3.565,0,0,1,2.793,1.2,4.6,4.6,0,0,1,1.066,3.18v.1A5.036,5.036,0,0,1,39-1.918,3.589,3.589,0,0,1,37.652-.391a3.743,3.743,0,0,1-2.02.547,3.556,3.556,0,0,1-2.785-1.2A4.575,4.575,0,0,1,31.781-4.2Zm1.453.172a3.616,3.616,0,0,0,.652,2.258,2.088,2.088,0,0,0,1.746.852,2.075,2.075,0,0,0,1.75-.863A3.955,3.955,0,0,0,38.031-4.3a3.61,3.61,0,0,0-.66-2.254,2.1,2.1,0,0,0-1.754-.863,2.075,2.075,0,0,0-1.727.852A3.925,3.925,0,0,0,33.234-4.133Zm9.422-4.32L42.7-7.391a3.08,3.08,0,0,1,2.531-1.219q2.68,0,2.7,3.023V0H46.492V-5.594a1.946,1.946,0,0,0-.418-1.352A1.675,1.675,0,0,0,44.8-7.383a2.086,2.086,0,0,0-1.234.375,2.546,2.546,0,0,0-.828.984V0H41.289V-8.453ZM53.625.156a3.693,3.693,0,0,1-2.8-1.129,4.19,4.19,0,0,1-1.078-3.02v-.266A5.073,5.073,0,0,1,50.23-6.5a3.748,3.748,0,0,1,1.344-1.547,3.378,3.378,0,0,1,1.871-.559,3.166,3.166,0,0,1,2.563,1.086,4.7,4.7,0,0,1,.914,3.109v.6H51.2a3,3,0,0,0,.73,2.02,2.3,2.3,0,0,0,1.777.77A2.517,2.517,0,0,0,55-1.336a3.259,3.259,0,0,0,.93-.828l.883.688A3.55,3.55,0,0,1,53.625.156Zm-.18-7.578a1.928,1.928,0,0,0-1.469.637A3.1,3.1,0,0,0,51.242-5h4.234v-.109a2.753,2.753,0,0,0-.594-1.707A1.815,1.815,0,0,0,53.445-7.422Zm10.07,5.18a1.064,1.064,0,0,0-.441-.91,4.249,4.249,0,0,0-1.539-.559,7.277,7.277,0,0,1-1.742-.562,2.479,2.479,0,0,1-.953-.781,1.869,1.869,0,0,1-.309-1.078,2.193,2.193,0,0,1,.879-1.758,3.432,3.432,0,0,1,2.246-.719,3.532,3.532,0,0,1,2.332.742,2.357,2.357,0,0,1,.895,1.9H63.43a1.3,1.3,0,0,0-.5-1.023,1.888,1.888,0,0,0-1.27-.43,1.976,1.976,0,0,0-1.234.344,1.082,1.082,0,0,0-.445.9.877.877,0,0,0,.414.789,5.1,5.1,0,0,0,1.5.508,7.8,7.8,0,0,1,1.754.578,2.558,2.558,0,0,1,1,.809,1.988,1.988,0,0,1,.324,1.152,2.163,2.163,0,0,1-.906,1.816A3.8,3.8,0,0,1,61.7.156a4.257,4.257,0,0,1-1.8-.359,2.922,2.922,0,0,1-1.223-1A2.42,2.42,0,0,1,58.242-2.6h1.445a1.5,1.5,0,0,0,.582,1.152,2.258,2.258,0,0,0,1.434.426,2.331,2.331,0,0,0,1.316-.332A1.02,1.02,0,0,0,63.516-2.242ZM74.2-1.023a2.082,2.082,0,0,0,1.352-.469,1.649,1.649,0,0,0,.641-1.172h1.367a2.621,2.621,0,0,1-.5,1.383,3.293,3.293,0,0,1-1.23,1.047A3.55,3.55,0,0,1,74.2.156,3.482,3.482,0,0,1,71.449-1a4.59,4.59,0,0,1-1.02-3.152v-.242a5.089,5.089,0,0,1,.453-2.2,3.451,3.451,0,0,1,1.3-1.492,3.7,3.7,0,0,1,2-.531,3.39,3.39,0,0,1,2.363.852,3.043,3.043,0,0,1,1,2.211H76.188a1.992,1.992,0,0,0-.621-1.348,1.932,1.932,0,0,0-1.379-.527,2.023,2.023,0,0,0-1.707.793,3.724,3.724,0,0,0-.605,2.293v.273a3.65,3.65,0,0,0,.6,2.25A2.033,2.033,0,0,0,74.2-1.023ZM78.8-4.3a4.993,4.993,0,0,1,.488-2.234A3.643,3.643,0,0,1,80.645-8.07a3.7,3.7,0,0,1,1.988-.539,3.565,3.565,0,0,1,2.793,1.2,4.6,4.6,0,0,1,1.066,3.18v.1a5.036,5.036,0,0,1-.473,2.215A3.589,3.589,0,0,1,84.668-.391a3.743,3.743,0,0,1-2.02.547,3.556,3.556,0,0,1-2.785-1.2A4.575,4.575,0,0,1,78.8-4.2Zm1.453.172A3.616,3.616,0,0,0,80.9-1.875a2.088,2.088,0,0,0,1.746.852,2.075,2.075,0,0,0,1.75-.863A3.955,3.955,0,0,0,85.047-4.3a3.61,3.61,0,0,0-.66-2.254,2.1,2.1,0,0,0-1.754-.863,2.075,2.075,0,0,0-1.727.852A3.925,3.925,0,0,0,80.25-4.133ZM92.391-7.156a4.331,4.331,0,0,0-.711-.055A1.9,1.9,0,0,0,89.75-6V0H88.3V-8.453h1.406l.023.977A2.251,2.251,0,0,1,91.75-8.609a1.477,1.477,0,0,1,.641.109Zm5.414,0a4.331,4.331,0,0,0-.711-.055A1.9,1.9,0,0,0,95.164-6V0H93.719V-8.453h1.406l.023.977a2.251,2.251,0,0,1,2.016-1.133A1.477,1.477,0,0,1,97.8-8.5ZM102.492.156A3.693,3.693,0,0,1,99.7-.973a4.19,4.19,0,0,1-1.078-3.02v-.266A5.073,5.073,0,0,1,99.1-6.5a3.748,3.748,0,0,1,1.344-1.547,3.378,3.378,0,0,1,1.871-.559,3.166,3.166,0,0,1,2.563,1.086,4.7,4.7,0,0,1,.914,3.109v.6h-5.727a3,3,0,0,0,.73,2.02,2.3,2.3,0,0,0,1.777.77,2.517,2.517,0,0,0,1.3-.312,3.259,3.259,0,0,0,.93-.828l.883.688A3.55,3.55,0,0,1,102.492.156Zm-.18-7.578a1.928,1.928,0,0,0-1.469.637A3.1,3.1,0,0,0,100.109-5h4.234v-.109a2.753,2.753,0,0,0-.594-1.707A1.815,1.815,0,0,0,102.313-7.422Zm8.539,6.4a2.082,2.082,0,0,0,1.352-.469,1.649,1.649,0,0,0,.641-1.172h1.367a2.621,2.621,0,0,1-.5,1.383,3.293,3.293,0,0,1-1.23,1.047,3.55,3.55,0,0,1-1.629.391A3.482,3.482,0,0,1,108.105-1a4.59,4.59,0,0,1-1.02-3.152v-.242a5.089,5.089,0,0,1,.453-2.2,3.451,3.451,0,0,1,1.3-1.492,3.7,3.7,0,0,1,2-.531,3.39,3.39,0,0,1,2.363.852,3.043,3.043,0,0,1,1,2.211h-1.367a1.992,1.992,0,0,0-.621-1.348,1.932,1.932,0,0,0-1.379-.527,2.023,2.023,0,0,0-1.707.793,3.724,3.724,0,0,0-.605,2.293v.273a3.65,3.65,0,0,0,.6,2.25A2.033,2.033,0,0,0,110.852-1.023ZM117.8-10.5v2.047h1.578v1.117H117.8v5.242a1.171,1.171,0,0,0,.211.762.888.888,0,0,0,.719.254,3.5,3.5,0,0,0,.688-.094V0A4.19,4.19,0,0,1,118.3.156a1.8,1.8,0,0,1-1.461-.586,2.517,2.517,0,0,1-.492-1.664V-7.336h-1.539V-8.453h1.539V-10.5ZM122.633,0h-1.445V-8.453h1.445ZM121.07-10.7a.863.863,0,0,1,.215-.594.807.807,0,0,1,.637-.242.819.819,0,0,1,.641.242.854.854,0,0,1,.219.594.826.826,0,0,1-.219.586.834.834,0,0,1-.641.234.821.821,0,0,1-.637-.234A.834.834,0,0,1,121.07-10.7Zm6.664,8.734,2.094-6.492H131.3L128.273,0h-1.1l-3.062-8.453h1.477ZM137.8,0a3.036,3.036,0,0,1-.2-.891A3.225,3.225,0,0,1,135.188.156a2.984,2.984,0,0,1-2.051-.707,2.287,2.287,0,0,1-.8-1.793,2.39,2.39,0,0,1,1-2.051,4.733,4.733,0,0,1,2.824-.73h1.406v-.664A1.623,1.623,0,0,0,137.117-7a1.821,1.821,0,0,0-1.336-.449,2.107,2.107,0,0,0-1.3.391,1.151,1.151,0,0,0-.523.945h-1.453a2,2,0,0,1,.449-1.223,3.066,3.066,0,0,1,1.219-.934,4.1,4.1,0,0,1,1.691-.344,3.342,3.342,0,0,1,2.289.73,2.635,2.635,0,0,1,.859,2.012v3.891a4.757,4.757,0,0,0,.3,1.852V0Zm-2.4-1.1a2.54,2.54,0,0,0,1.289-.352,2.127,2.127,0,0,0,.883-.914V-4.1h-1.133q-2.656,0-2.656,1.555a1.316,1.316,0,0,0,.453,1.063A1.742,1.742,0,0,0,135.4-1.1Zm10.8-1.141a1.064,1.064,0,0,0-.441-.91,4.249,4.249,0,0,0-1.539-.559,7.277,7.277,0,0,1-1.742-.562,2.479,2.479,0,0,1-.953-.781,1.869,1.869,0,0,1-.309-1.078,2.193,2.193,0,0,1,.879-1.758,3.432,3.432,0,0,1,2.246-.719,3.532,3.532,0,0,1,2.332.742,2.357,2.357,0,0,1,.895,1.9h-1.453a1.3,1.3,0,0,0-.5-1.023,1.888,1.888,0,0,0-1.27-.43,1.976,1.976,0,0,0-1.234.344,1.082,1.082,0,0,0-.445.9.877.877,0,0,0,.414.789,5.1,5.1,0,0,0,1.5.508,7.8,7.8,0,0,1,1.754.578,2.558,2.558,0,0,1,1,.809,1.988,1.988,0,0,1,.324,1.152,2.163,2.163,0,0,1-.906,1.816,3.8,3.8,0,0,1-2.352.684,4.257,4.257,0,0,1-1.8-.359,2.922,2.922,0,0,1-1.223-1A2.42,2.42,0,0,1,140.93-2.6h1.445a1.5,1.5,0,0,0,.582,1.152,2.258,2.258,0,0,0,1.434.426,2.331,2.331,0,0,0,1.316-.332A1.02,1.02,0,0,0,146.2-2.242Z" transform="translate(726.333 944)" fill="#12263f"/>
    <path id="Path_901339" data-name="Path 901339" d="M2.828-1.227H8.219V0H1.32V-11.375H2.828ZM14.922,0a3.036,3.036,0,0,1-.2-.891A3.225,3.225,0,0,1,12.313.156a2.984,2.984,0,0,1-2.051-.707,2.287,2.287,0,0,1-.8-1.793,2.39,2.39,0,0,1,1-2.051,4.733,4.733,0,0,1,2.824-.73H14.7v-.664A1.623,1.623,0,0,0,14.242-7a1.821,1.821,0,0,0-1.336-.449,2.107,2.107,0,0,0-1.3.391,1.151,1.151,0,0,0-.523.945H9.633a2,2,0,0,1,.449-1.223A3.066,3.066,0,0,1,11.3-8.266a4.1,4.1,0,0,1,1.691-.344,3.342,3.342,0,0,1,2.289.73,2.635,2.635,0,0,1,.859,2.012v3.891a4.757,4.757,0,0,0,.3,1.852V0Zm-2.4-1.1a2.54,2.54,0,0,0,1.289-.352,2.127,2.127,0,0,0,.883-.914V-4.1H13.563q-2.656,0-2.656,1.555a1.316,1.316,0,0,0,.453,1.063A1.742,1.742,0,0,0,12.523-1.1Zm10.8-1.141a1.064,1.064,0,0,0-.441-.91,4.249,4.249,0,0,0-1.539-.559,7.277,7.277,0,0,1-1.742-.562,2.479,2.479,0,0,1-.953-.781,1.869,1.869,0,0,1-.309-1.078,2.193,2.193,0,0,1,.879-1.758,3.432,3.432,0,0,1,2.246-.719,3.532,3.532,0,0,1,2.332.742,2.357,2.357,0,0,1,.895,1.9H23.242a1.3,1.3,0,0,0-.5-1.023,1.888,1.888,0,0,0-1.27-.43,1.976,1.976,0,0,0-1.234.344,1.082,1.082,0,0,0-.445.9.877.877,0,0,0,.414.789,5.1,5.1,0,0,0,1.5.508,7.8,7.8,0,0,1,1.754.578,2.558,2.558,0,0,1,1,.809,1.988,1.988,0,0,1,.324,1.152,2.163,2.163,0,0,1-.906,1.816,3.8,3.8,0,0,1-2.352.684,4.257,4.257,0,0,1-1.8-.359,2.922,2.922,0,0,1-1.223-1A2.42,2.42,0,0,1,18.055-2.6H19.5a1.5,1.5,0,0,0,.582,1.152,2.258,2.258,0,0,0,1.434.426,2.331,2.331,0,0,0,1.316-.332A1.02,1.02,0,0,0,23.328-2.242Zm10.68,1.219a2.082,2.082,0,0,0,1.352-.469A1.649,1.649,0,0,0,36-2.664h1.367a2.621,2.621,0,0,1-.5,1.383,3.293,3.293,0,0,1-1.23,1.047,3.55,3.55,0,0,1-1.629.391A3.482,3.482,0,0,1,31.262-1a4.59,4.59,0,0,1-1.02-3.152v-.242a5.089,5.089,0,0,1,.453-2.2A3.451,3.451,0,0,1,32-8.078a3.7,3.7,0,0,1,2-.531,3.39,3.39,0,0,1,2.363.852,3.043,3.043,0,0,1,1,2.211H36a1.992,1.992,0,0,0-.621-1.348A1.932,1.932,0,0,0,34-7.422a2.023,2.023,0,0,0-1.707.793,3.724,3.724,0,0,0-.605,2.293v.273a3.65,3.65,0,0,0,.6,2.25A2.033,2.033,0,0,0,34.008-1.023Zm10.2.188a3.07,3.07,0,0,1-2.477.992,2.628,2.628,0,0,1-2.059-.785,3.4,3.4,0,0,1-.715-2.324v-5.5h1.445v5.461q0,1.922,1.563,1.922a2.163,2.163,0,0,0,2.2-1.234V-8.453h1.445V0H44.242ZM53.031,0a3.036,3.036,0,0,1-.2-.891A3.225,3.225,0,0,1,50.422.156a2.984,2.984,0,0,1-2.051-.707,2.287,2.287,0,0,1-.8-1.793,2.39,2.39,0,0,1,1-2.051,4.733,4.733,0,0,1,2.824-.73H52.8v-.664A1.623,1.623,0,0,0,52.352-7a1.821,1.821,0,0,0-1.336-.449,2.107,2.107,0,0,0-1.3.391,1.151,1.151,0,0,0-.523.945H47.742a2,2,0,0,1,.449-1.223,3.066,3.066,0,0,1,1.219-.934A4.1,4.1,0,0,1,51.1-8.609a3.342,3.342,0,0,1,2.289.73,2.635,2.635,0,0,1,.859,2.012v3.891a4.757,4.757,0,0,0,.3,1.852V0Zm-2.4-1.1a2.54,2.54,0,0,0,1.289-.352,2.127,2.127,0,0,0,.883-.914V-4.1H51.672q-2.656,0-2.656,1.555a1.316,1.316,0,0,0,.453,1.063A1.742,1.742,0,0,0,50.633-1.1ZM58.086,0H56.641V-12h1.445Zm5.82.156a3.693,3.693,0,0,1-2.8-1.129,4.19,4.19,0,0,1-1.078-3.02v-.266a5.073,5.073,0,0,1,.48-2.246,3.748,3.748,0,0,1,1.344-1.547,3.378,3.378,0,0,1,1.871-.559,3.166,3.166,0,0,1,2.563,1.086A4.7,4.7,0,0,1,67.2-4.414v.6H61.477a3,3,0,0,0,.73,2.02,2.3,2.3,0,0,0,1.777.77,2.517,2.517,0,0,0,1.3-.312,3.259,3.259,0,0,0,.93-.828l.883.688A3.55,3.55,0,0,1,63.906.156Zm-.18-7.578a1.928,1.928,0,0,0-1.469.637A3.1,3.1,0,0,0,61.523-5h4.234v-.109a2.753,2.753,0,0,0-.594-1.707A1.815,1.815,0,0,0,63.727-7.422ZM73.8-2.242a1.064,1.064,0,0,0-.441-.91,4.249,4.249,0,0,0-1.539-.559,7.277,7.277,0,0,1-1.742-.562,2.479,2.479,0,0,1-.953-.781,1.869,1.869,0,0,1-.309-1.078,2.193,2.193,0,0,1,.879-1.758,3.432,3.432,0,0,1,2.246-.719,3.532,3.532,0,0,1,2.332.742,2.357,2.357,0,0,1,.895,1.9H73.711a1.3,1.3,0,0,0-.5-1.023,1.888,1.888,0,0,0-1.27-.43,1.976,1.976,0,0,0-1.234.344,1.082,1.082,0,0,0-.445.9.877.877,0,0,0,.414.789,5.1,5.1,0,0,0,1.5.508,7.8,7.8,0,0,1,1.754.578,2.558,2.558,0,0,1,1,.809,1.988,1.988,0,0,1,.324,1.152,2.163,2.163,0,0,1-.906,1.816,3.8,3.8,0,0,1-2.352.684,4.257,4.257,0,0,1-1.8-.359,2.922,2.922,0,0,1-1.223-1A2.42,2.42,0,0,1,68.523-2.6h1.445a1.5,1.5,0,0,0,.582,1.152,2.258,2.258,0,0,0,1.434.426A2.331,2.331,0,0,0,73.3-1.355,1.02,1.02,0,0,0,73.8-2.242ZM86.3,0a3.036,3.036,0,0,1-.2-.891A3.225,3.225,0,0,1,83.7.156a2.984,2.984,0,0,1-2.051-.707,2.288,2.288,0,0,1-.8-1.793,2.39,2.39,0,0,1,1-2.051,4.733,4.733,0,0,1,2.824-.73h1.406v-.664A1.623,1.623,0,0,0,85.625-7a1.821,1.821,0,0,0-1.336-.449,2.108,2.108,0,0,0-1.3.391,1.151,1.151,0,0,0-.523.945H81.016a2,2,0,0,1,.449-1.223,3.066,3.066,0,0,1,1.219-.934,4.1,4.1,0,0,1,1.691-.344,3.342,3.342,0,0,1,2.289.73,2.635,2.635,0,0,1,.859,2.012v3.891a4.757,4.757,0,0,0,.3,1.852V0Zm-2.4-1.1A2.54,2.54,0,0,0,85.2-1.453a2.127,2.127,0,0,0,.883-.914V-4.1H84.945q-2.656,0-2.656,1.555a1.316,1.316,0,0,0,.453,1.063A1.742,1.742,0,0,0,83.906-1.1ZM96.945-4.133a5.026,5.026,0,0,1-.891,3.113A2.846,2.846,0,0,1,93.664.156,2.947,2.947,0,0,1,91.188-.977L91.117,0H89.789V-12h1.445v4.477a2.93,2.93,0,0,1,2.414-1.086,2.863,2.863,0,0,1,2.418,1.164,5.177,5.177,0,0,1,.879,3.188ZM95.5-4.3a3.906,3.906,0,0,0-.57-2.281,1.888,1.888,0,0,0-1.641-.8,2.122,2.122,0,0,0-2.055,1.328V-2.4A2.181,2.181,0,0,0,93.3-1.07a1.878,1.878,0,0,0,1.617-.8A4.153,4.153,0,0,0,95.5-4.3ZM103.984,0a3.036,3.036,0,0,1-.2-.891A3.225,3.225,0,0,1,101.375.156a2.984,2.984,0,0,1-2.051-.707,2.288,2.288,0,0,1-.8-1.793,2.39,2.39,0,0,1,1-2.051,4.733,4.733,0,0,1,2.824-.73h1.406v-.664A1.623,1.623,0,0,0,103.3-7a1.821,1.821,0,0,0-1.336-.449,2.108,2.108,0,0,0-1.3.391,1.151,1.151,0,0,0-.523.945H98.7a2,2,0,0,1,.449-1.223,3.066,3.066,0,0,1,1.219-.934,4.1,4.1,0,0,1,1.691-.344,3.342,3.342,0,0,1,2.289.73,2.635,2.635,0,0,1,.859,2.012v3.891a4.757,4.757,0,0,0,.3,1.852V0Zm-2.4-1.1a2.54,2.54,0,0,0,1.289-.352,2.127,2.127,0,0,0,.883-.914V-4.1h-1.133q-2.656,0-2.656,1.555a1.316,1.316,0,0,0,.453,1.063A1.742,1.742,0,0,0,101.586-1.1Zm9.969-6.055a4.331,4.331,0,0,0-.711-.055A1.9,1.9,0,0,0,108.914-6V0h-1.445V-8.453h1.406l.023.977a2.251,2.251,0,0,1,2.016-1.133,1.477,1.477,0,0,1,.641.109Zm4.57,6.133a2.082,2.082,0,0,0,1.352-.469,1.649,1.649,0,0,0,.641-1.172h1.367a2.621,2.621,0,0,1-.5,1.383,3.293,3.293,0,0,1-1.23,1.047,3.55,3.55,0,0,1-1.629.391A3.482,3.482,0,0,1,113.379-1a4.59,4.59,0,0,1-1.02-3.152v-.242a5.089,5.089,0,0,1,.453-2.2,3.451,3.451,0,0,1,1.3-1.492,3.7,3.7,0,0,1,2-.531,3.39,3.39,0,0,1,2.363.852,3.043,3.043,0,0,1,1,2.211h-1.367a1.992,1.992,0,0,0-.621-1.348,1.932,1.932,0,0,0-1.379-.527,2.023,2.023,0,0,0-1.707.793,3.724,3.724,0,0,0-.605,2.293v.273a3.65,3.65,0,0,0,.6,2.25A2.033,2.033,0,0,0,116.125-1.023ZM126.328,0a3.036,3.036,0,0,1-.2-.891A3.225,3.225,0,0,1,123.719.156a2.984,2.984,0,0,1-2.051-.707,2.288,2.288,0,0,1-.8-1.793,2.39,2.39,0,0,1,1-2.051,4.733,4.733,0,0,1,2.824-.73H126.1v-.664A1.623,1.623,0,0,0,125.648-7a1.821,1.821,0,0,0-1.336-.449,2.108,2.108,0,0,0-1.3.391,1.151,1.151,0,0,0-.523.945h-1.453a2,2,0,0,1,.449-1.223,3.066,3.066,0,0,1,1.219-.934,4.1,4.1,0,0,1,1.691-.344,3.342,3.342,0,0,1,2.289.73,2.635,2.635,0,0,1,.859,2.012v3.891a4.757,4.757,0,0,0,.3,1.852V0Zm-2.4-1.1a2.54,2.54,0,0,0,1.289-.352,2.127,2.127,0,0,0,.883-.914V-4.1h-1.133q-2.656,0-2.656,1.555a1.316,1.316,0,0,0,.453,1.063A1.742,1.742,0,0,0,123.93-1.1Zm7.25-7.352.047,1.063a3.08,3.08,0,0,1,2.531-1.219q2.68,0,2.7,3.023V0h-1.445V-5.594a1.946,1.946,0,0,0-.418-1.352,1.675,1.675,0,0,0-1.277-.437,2.086,2.086,0,0,0-1.234.375,2.546,2.546,0,0,0-.828.984V0h-1.445V-8.453Z" transform="translate(731.333 751)" fill="#12263f"/>
    <path id="Path_901249" data-name="Path 901249" d="M-12301.333-9119l175.219,102.942-175.219,107.906" transform="translate(12691.333 9531)" fill="none" stroke="#000" stroke-width="1"/>
    <path id="Path_901250" data-name="Path 901250" d="M-12301.333-9017.5h171.677" transform="translate(12693.333 9533)" fill="none" stroke="#000" stroke-width="1"/>
    <path id="Path_901251" data-name="Path 901251" d="M-12126.114-9119l-175.219,102.942,175.219,107.906" transform="translate(13336.114 9531)" fill="none" stroke="#000" stroke-width="1"/>
    <path id="Path_901252" data-name="Path 901252" d="M-12129.655-9017.5h-171.677" transform="translate(13337.655 9533)" fill="none" stroke="#000" stroke-width="1"/>
    <path id="Path_901253" data-name="Path 901253" d="M-11986.333-8666.526l96.9-59.661,93.1,59.661" transform="translate(12691.333 9496)" fill="none" stroke="#000" stroke-width="1"/>
    <path id="Path_901254" data-name="Path 901254" d="M-11891-8726.187v123.664" transform="translate(12693.333 9496)" fill="none" stroke="#000" stroke-width="1"/>
    <path id="Path_901330" data-name="Path 901330" d="M-11891-9016v47.245" transform="translate(12691.333 9555)" fill="none" stroke="#000" stroke-width="1"/>
    <path id="Path_901331" data-name="Path 901331" d="M-11891-9016v29.953" transform="translate(12691.333 9715)" fill="none" stroke="#000" stroke-width="1"/>
  </g>
</svg>
